<svg version="1.1" id="svg1" width="318.0020783707876" height="274.0025504690327" viewBox="68.00044443148917 152.00141485873345 318.0020783707876 274.0025504690327" sodipodi:docname="2_1_1.pdf" xmlns:inkscape="http://www.inkscape.org/namespaces/inkscape" xmlns:sodipodi="http://sodipodi.sourceforge.net/DTD/sodipodi-0.dtd" xmlns="http://www.w3.org/2000/svg" xmlns:svg="http://www.w3.org/2000/svg" style="">
  <defs id="defs1"/>
  <sodipodi:namedview id="namedview1" pagecolor="#ffffff" bordercolor="#000000" borderopacity="0.25" inkscape:showpageshadow="2" inkscape:pageopacity="0.0" inkscape:pagecheckerboard="0" inkscape:deskcolor="#d1d1d1">
    <inkscape:page x="0" y="0" inkscape:label="1" id="page1" width="793.33331" height="1122.6667" margin="0" bleed="0"/>
  </sodipodi:namedview>
  <g id="g1" inkscape:groupmode="layer" inkscape:label="1">
    
    
    <path id="path4" d="m 2240.75,6210.88 c 0,0 3.55,-51.06 8.16,-77.58 2.04,-11.71 5.01,-22 8.16,-33.46 2.55,-9.23 5.16,-17.44 8.17,-26.54 2.65,-8.02 5.22,-15.17 8.17,-23.1 2.7,-7.28 5.25,-13.77 8.16,-20.98 2.74,-6.78 5.28,-12.83 8.17,-19.55 2.75,-6.41 5.3,-12.14 8.16,-18.5 2.77,-6.13 5.31,-11.62 8.17,-17.71 2.78,-5.91 5.31,-11.21 8.16,-17.09 2.79,-5.74 5.32,-10.88 8.17,-16.6 2.79,-5.6 5.33,-10.61 8.17,-16.19 2.79,-5.49 5.32,-10.4 8.16,-15.87 2.8,-5.39 5.33,-10.22 8.17,-15.6 2.8,-5.31 5.33,-10.07 8.16,-15.36 2.81,-5.25 5.34,-9.95 8.17,-15.18 2.81,-5.18 5.34,-9.83 8.16,-15.01 2.81,-5.14 5.34,-9.74 8.17,-14.87 2.81,-5.1 5.34,-9.67 8.17,-14.76 2.81,-5.07 5.34,-9.61 8.16,-14.66 2.81,-5.04 5.34,-9.56 8.17,-14.58 2.81,-5.01 5.34,-9.51 8.16,-14.51 2.82,-4.99 5.35,-9.47 8.17,-14.45 2.81,-4.98 5.34,-9.44 8.16,-14.41 2.82,-4.95 5.35,-9.4 8.17,-14.36 2.82,-4.94 5.35,-9.39 8.17,-14.33 2.81,-4.94 5.34,-9.37 8.16,-14.31 2.82,-4.93 5.35,-9.36 8.16,-14.29 2.83,-4.92 5.35,-9.35 8.17,-14.27 2.82,-4.93 5.35,-9.35 8.17,-14.27 2.82,-4.92 5.34,-9.35 8.16,-14.27 2.82,-4.92 5.35,-9.34 8.17,-14.26 2.82,-4.92 5.35,-9.35 8.16,-14.27 2.82,-4.93 5.35,-9.35 8.17,-14.28 2.82,-4.93 5.35,-9.36 8.17,-14.29 2.82,-4.93 5.35,-9.36 8.16,-14.3 2.82,-4.93 5.35,-9.37 8.17,-14.31 2.82,-4.95 5.35,-9.39 8.17,-14.33 2.81,-4.96 5.34,-9.4 8.16,-14.36 2.82,-4.96 5.35,-9.41 8.16,-14.37 2.82,-4.97 5.35,-9.43 8.17,-14.4 2.82,-4.98 5.35,-9.45 8.17,-14.43 2.82,-4.98 5.35,-9.46 8.16,-14.44 2.82,-5 5.35,-9.48 8.17,-14.48 2.82,-5.01 5.35,-9.5 8.16,-14.51 2.82,-5.02 5.35,-9.52 8.17,-14.54 2.82,-5.03 5.35,-9.54 8.16,-14.57 2.82,-5.04 5.35,-9.56 8.17,-14.6 2.82,-5.05 5.35,-9.58 8.17,-14.63 2.82,-5.06 8.16,-14.67 8.16,-14.67" style="fill:none;stroke:#000000;stroke-width:7.97011;stroke-linecap:butt;stroke-linejoin:miter;stroke-miterlimit:10;stroke-dasharray:none;stroke-opacity:1" transform="matrix(0.13333333,0,0,-0.13333333,0,1122.6667)"/>
    <path id="path5" d="m 2240.75,6211.12 c 0,0 3.55,51.07 8.16,77.58 2.04,11.71 5.01,22 8.16,33.46 2.55,9.23 5.16,17.44 8.17,26.54 2.65,8.03 5.22,15.17 8.17,23.1 2.7,7.28 5.25,13.77 8.16,20.98 2.74,6.78 5.28,12.83 8.17,19.55 2.75,6.41 5.3,12.14 8.16,18.5 2.77,6.13 5.31,11.62 8.17,17.71 2.78,5.92 5.31,11.21 8.16,17.09 2.79,5.74 5.32,10.88 8.17,16.6 2.79,5.6 5.33,10.61 8.17,16.19 2.79,5.49 5.32,10.4 8.16,15.87 2.8,5.39 5.33,10.22 8.17,15.6 2.8,5.31 5.33,10.07 8.16,15.36 2.81,5.25 5.34,9.95 8.17,15.18 2.81,5.18 5.34,9.84 8.16,15.01 2.81,5.14 5.34,9.75 8.17,14.88 2.81,5.09 5.34,9.66 8.17,14.75 2.81,5.07 5.34,9.61 8.16,14.66 2.81,5.04 5.34,9.56 8.17,14.58 2.81,5.01 5.34,9.51 8.16,14.51 2.82,4.99 5.35,9.47 8.17,14.45 2.81,4.98 5.34,9.44 8.16,14.41 2.82,4.95 5.35,9.4 8.17,14.36 2.82,4.94 5.35,9.39 8.17,14.33 2.81,4.94 5.34,9.37 8.16,14.31 2.82,4.93 5.35,9.36 8.16,14.29 2.83,4.92 5.35,9.35 8.17,14.27 2.82,4.93 5.35,9.35 8.17,14.27 2.82,4.92 5.34,9.35 8.16,14.27 2.82,4.92 5.35,9.34 8.17,14.26 2.82,4.92 5.35,9.35 8.16,14.27 2.82,4.93 5.35,9.35 8.17,14.28 2.82,4.93 5.35,9.36 8.17,14.29 2.82,4.93 5.35,9.36 8.16,14.3 2.82,4.93 5.35,9.37 8.17,14.31 2.82,4.95 5.35,9.39 8.17,14.33 2.81,4.96 5.34,9.4 8.16,14.36 2.82,4.96 5.35,9.41 8.16,14.37 2.82,4.97 5.35,9.43 8.17,14.4 2.82,4.98 5.35,9.45 8.17,14.43 2.82,4.98 5.35,9.46 8.16,14.45 2.82,4.99 5.35,9.48 8.17,14.47 2.82,5.01 5.35,9.5 8.16,14.51 2.82,5.02 5.35,9.52 8.17,14.54 2.82,5.03 5.35,9.54 8.16,14.57 2.82,5.04 5.35,9.56 8.17,14.6 2.82,5.05 5.35,9.58 8.17,14.64 2.82,5.05 8.16,14.66 8.16,14.66" style="fill:none;stroke:#000000;stroke-width:7.97011;stroke-linecap:butt;stroke-linejoin:miter;stroke-miterlimit:10;stroke-dasharray:none;stroke-opacity:1" transform="matrix(0.13333333,0,0,-0.13333333,0,1122.6667)"/>
    <path id="path6" d="m 1198.46,6210.88 c 0,0 4.28,-56.91 10.63,-86.18 2.6,-11.96 6.37,-22.37 10.64,-33.85 3.23,-8.69 6.59,-16.33 10.63,-24.67 3.37,-6.95 6.7,-13.06 10.64,-19.7 3.44,-5.8 6.75,-10.88 10.63,-16.39 3.49,-4.95 6.8,-9.27 10.64,-13.95 3.52,-4.28 6.82,-8 10.64,-12.02 3.54,-3.73 6.84,-6.96 10.63,-10.43 3.56,-3.26 6.86,-6.07 10.64,-9.08 3.57,-2.86 6.87,-5.31 10.63,-7.92 3.59,-2.49 6.89,-4.63 10.64,-6.89 3.6,-2.17 6.9,-4.01 10.63,-5.95 3.62,-1.88 6.92,-3.46 10.64,-5.11 3.62,-1.61 6.92,-2.95 10.64,-4.34 3.62,-1.36 6.93,-2.48 10.63,-3.62 3.64,-1.12 6.94,-2.04 10.63,-2.96 3.65,-0.9 6.95,-1.62 10.64,-2.32 3.65,-0.7 6.95,-1.23 10.64,-1.73 3.65,-0.5 6.95,-0.85 10.63,-1.16 3.67,-0.31 6.96,-0.5 10.64,-0.63 3.67,-0.12 6.96,-0.15 10.63,-0.1 3.68,0.05 6.97,0.17 10.64,0.39 3.67,0.22 6.97,0.49 10.63,0.87 3.68,0.39 6.98,0.81 10.64,1.35 3.68,0.55 6.98,1.11 10.64,1.81 3.68,0.7 6.98,1.4 10.63,2.25 3.69,0.87 6.98,1.7 10.64,2.71 3.69,1.01 6.98,1.99 10.63,3.14 3.7,1.17 6.99,2.28 10.64,3.58 3.69,1.32 6.99,2.56 10.63,4.01 3.7,1.47 7,2.86 10.64,4.46 3.7,1.62 7,3.14 10.64,4.89 3.7,1.78 6.99,3.44 10.63,5.35 3.7,1.94 7,3.74 10.64,5.81 3.7,2.1 7,4.05 10.63,6.28 3.71,2.27 7.01,4.37 10.64,6.77 3.71,2.46 7.01,4.72 10.63,7.3 3.72,2.65 7.02,5.08 10.64,7.85 3.72,2.85 7.02,5.46 10.64,8.44 3.72,3.07 7.02,5.89 10.63,9.1 3.73,3.32 7.03,6.36 10.64,9.82 3.74,3.6 7.04,6.9 10.63,10.65 3.76,3.93 7.06,7.53 10.64,11.63 3.77,4.33 7.09,8.28 10.63,12.8 3.81,4.84 7.13,9.27 10.64,14.32 3.85,5.54 7.19,10.6 10.63,16.4 3.93,6.6 7.33,12.63 10.64,19.57 4.12,8.63 7.97,16.42 10.63,25.61 6.03,20.82 10.64,61.96 10.64,61.96" style="fill:none;stroke:#000000;stroke-width:7.97011;stroke-linecap:butt;stroke-linejoin:miter;stroke-miterlimit:10;stroke-dasharray:none;stroke-opacity:1" transform="matrix(0.13333333,0,0,-0.13333333,0,1122.6667)"/>
    <path id="path7" d="m 1198.46,6211.12 c 0,0 4.28,56.91 10.63,86.18 2.6,11.96 6.37,22.38 10.64,33.85 3.23,8.69 6.59,16.33 10.63,24.67 3.37,6.95 6.7,13.06 10.64,19.7 3.44,5.8 6.75,10.88 10.63,16.39 3.49,4.95 6.8,9.27 10.64,13.95 3.52,4.28 6.82,8 10.64,12.02 3.54,3.73 6.84,6.96 10.63,10.43 3.56,3.26 6.86,6.07 10.64,9.08 3.57,2.86 6.87,5.31 10.63,7.92 3.59,2.49 6.89,4.63 10.64,6.89 3.6,2.17 6.9,4.01 10.63,5.95 3.62,1.88 6.92,3.46 10.64,5.11 3.62,1.61 6.92,2.95 10.64,4.34 3.62,1.36 6.93,2.48 10.63,3.62 3.64,1.13 6.94,2.04 10.63,2.96 3.65,0.9 6.95,1.62 10.64,2.32 3.65,0.7 6.95,1.23 10.64,1.73 3.65,0.5 6.95,0.85 10.63,1.16 3.67,0.31 6.96,0.5 10.64,0.63 3.67,0.12 6.96,0.16 10.63,0.1 3.68,-0.05 6.97,-0.17 10.64,-0.39 3.67,-0.22 6.97,-0.49 10.63,-0.87 3.68,-0.39 6.98,-0.81 10.64,-1.35 3.68,-0.55 6.98,-1.11 10.64,-1.81 3.68,-0.7 6.98,-1.4 10.63,-2.25 3.69,-0.86 6.98,-1.7 10.64,-2.71 3.69,-1.01 6.98,-1.99 10.63,-3.14 3.7,-1.17 6.99,-2.28 10.64,-3.58 3.69,-1.32 6.99,-2.56 10.63,-4.01 3.7,-1.47 7,-2.86 10.64,-4.46 3.7,-1.62 7,-3.14 10.64,-4.89 3.7,-1.78 6.99,-3.44 10.63,-5.35 3.7,-1.94 7,-3.74 10.64,-5.81 3.7,-2.1 7,-4.05 10.63,-6.28 3.71,-2.27 7.01,-4.37 10.64,-6.77 3.71,-2.46 7.01,-4.72 10.63,-7.3 3.72,-2.65 7.02,-5.08 10.64,-7.85 3.72,-2.85 7.02,-5.46 10.64,-8.44 3.72,-3.07 7.02,-5.89 10.63,-9.1 3.73,-3.32 7.03,-6.36 10.64,-9.82 3.74,-3.6 7.04,-6.9 10.63,-10.65 3.76,-3.93 7.06,-7.53 10.64,-11.63 3.77,-4.32 7.09,-8.28 10.63,-12.8 3.81,-4.84 7.13,-9.27 10.64,-14.32 3.85,-5.54 7.19,-10.6 10.63,-16.4 3.93,-6.6 7.33,-12.63 10.64,-19.57 4.12,-8.63 7.97,-16.42 10.63,-25.61 6.03,-20.82 10.64,-61.96 10.64,-61.96" style="fill:none;stroke:#000000;stroke-width:7.97011;stroke-linecap:butt;stroke-linejoin:miter;stroke-miterlimit:10;stroke-dasharray:none;stroke-opacity:1" transform="matrix(0.13333333,0,0,-0.13333333,0,1122.6667)"/>
    <path id="path8" d="m 982.59,5695.09 c 0,0 22.16,15.52 33.84,23.7 11.68,8.17 22.17,15.51 33.84,23.68 11.68,8.18 22.17,15.52 33.85,23.69 11.68,8.18 22.16,15.52 33.84,23.69 11.68,8.18 22.16,15.52 33.84,23.69 11.68,8.17 22.16,15.51 33.84,23.69 11.68,8.18 22.17,15.52 33.85,23.69 11.67,8.18 22.16,15.51 33.84,23.69 11.68,8.18 22.16,15.51 33.84,23.69 11.68,8.18 22.17,15.52 33.84,23.69 11.68,8.17 22.17,15.51 33.85,23.69 11.68,8.18 22.16,15.52 33.84,23.69 11.68,8.17 22.16,15.51 33.84,23.69 11.68,8.17 22.16,15.51 33.84,23.69 11.68,8.17 22.17,15.51 33.84,23.69 11.68,8.17 22.17,15.51 33.85,23.69 11.68,8.17 22.16,15.51 33.84,23.69 11.68,8.17 22.16,15.51 33.84,23.69 11.68,8.17 22.16,15.51 33.84,23.69 11.68,8.17 22.17,15.51 33.85,23.69 11.67,8.17 22.16,15.51 33.84,23.68 11.68,8.18 22.16,15.52 33.84,23.7 11.68,8.17 22.17,15.51 33.84,23.68 11.68,8.18 22.16,15.52 33.84,23.69 11.68,8.18 22.17,15.52 33.85,23.69 11.67,8.18 22.16,15.52 33.84,23.69 11.68,8.18 22.16,15.52 33.84,23.69 11.68,8.18 22.17,15.52 33.85,23.69 11.67,8.18 22.16,15.52 33.84,23.69 11.68,8.18 22.16,15.52 33.84,23.69 11.68,8.18 22.16,15.52 33.84,23.69 11.68,8.17 22.16,15.51 33.84,23.69 11.68,8.18 22.17,15.52 33.85,23.69 11.67,8.17 22.16,15.51 33.84,23.69 11.68,8.17 22.16,15.51 33.84,23.69 11.68,8.17 22.16,15.51 33.84,23.69 11.68,8.17 22.16,15.51 33.84,23.69 11.68,8.18 22.17,15.51 33.85,23.69 11.67,8.17 22.16,15.51 33.84,23.69 11.68,8.17 22.16,15.51 33.84,23.69 11.68,8.17 22.17,15.51 33.84,23.69 11.68,8.17 22.17,15.51 33.84,23.68 11.68,8.18 22.17,15.52 33.85,23.7 11.68,8.17 22.16,15.51 33.84,23.68 11.68,8.18 22.16,15.52 33.84,23.69 11.68,8.18 22.17,15.52 33.85,23.69 11.67,8.18 22.16,15.52 33.84,23.69 11.68,8.18 22.16,15.52 33.84,23.7 11.68,8.17 33.84,23.68 33.84,23.68" style="fill:none;stroke:#000000;stroke-width:7.97011;stroke-linecap:butt;stroke-linejoin:miter;stroke-miterlimit:10;stroke-dasharray:none;stroke-opacity:1" transform="matrix(0.13333333,0,0,-0.13333333,0,1122.6667)"/>
    <g id="g8" aria-label="ℓ:y=x" transform="matrix(1.3333333,0,0,1.3333333,92.225467,377.148)">
      <path id="path9" d="m 1.1023844,-2.0270156 c -0.75000003,0.7382812 -0.94921878,0.9140625 -0.94921878,0.9609375 0,0.046875 0.046875,0.12890623 0.12890625,0.12890623 0.0703125,0 0.75000003,-0.65625003 0.84375003,-0.76171873 0.070312,0.79687498 0.375,1.83984373 1.3007812,1.83984373 0.4804688,0 0.9140625,-0.29296875 1.1015625,-0.4453125 0.1523438,-0.1171875 0.7265625,-0.609375 0.7265625,-0.71484373 0,-0.058594 -0.058594,-0.1289063 -0.1171875,-0.1289063 -0.046875,0 -0.2226562,0.17578128 -0.28125,0.22265628 -0.4101562,0.41015625 -0.9375,0.83203125 -1.4179687,0.83203125 -0.6445313,0 -0.7265625,-0.93750003 -0.7265625,-1.58203123 0,-0.1171875 0,-0.6210938 0.082031,-0.7148438 0.703125,-0.7265625 2.9179688,-3.0117187 2.9179688,-5.1328125 0,-0.46875 -0.1757813,-0.890625 -0.6914063,-0.890625 -1.1132812,0 -2.0859375,2.4609375 -2.25,2.9179688 -0.046875,0.1171875 -0.7382812,1.9570312 -0.6679685,3.46875 z m 0.7148437,-0.75 c 0.011719,-0.070312 0.5507813,-3.1992188 1.5585938,-4.875 0.1992187,-0.3164063 0.3984375,-0.5273438 0.6445312,-0.5273438 0.3984375,0 0.421875,0.3867188 0.421875,0.6445313 0,0.421875 -0.1171875,1.5 -1.1484375,3 -0.3164062,0.4453125 -0.796875,1.0429687 -1.4765625,1.7578125 z m 0,0" style="fill:#000000;fill-opacity:1;fill-rule:nonzero;stroke:none"/>
      <path id="path10" d="m 10.483244,-4.5817031 c 0,-0.3164063 -0.28125,-0.5742188 -0.574219,-0.5742188 -0.3515625,0 -0.5859375,0.28125 -0.5859375,0.5742188 0,0.3632812 0.2929688,0.5859375 0.5742188,0.5859375 0.3164067,0 0.5859377,-0.2460938 0.5859377,-0.5859375 z m 0,3.99609373 c 0,-0.328125 -0.28125,-0.57421873 -0.574219,-0.57421873 -0.3515625,0 -0.5859375,0.28124998 -0.5859375,0.57421873 0,0.36328125 0.2929688,0.585937495 0.5742188,0.585937495 0.3164067,0 0.5859377,-0.246093745 0.5859377,-0.585937495 z m 0,0" style="fill:#000000;fill-opacity:1;fill-rule:nonzero;stroke:none"/>
      <path id="path11" d="m 17.901212,1.3362656 c -0.316406,0.4570313 -0.785156,0.8671875 -1.371093,0.8671875 -0.140625,0 -0.714844,-0.023437 -0.902344,-0.5742187 0.04687,0.011719 0.105469,0.011719 0.128906,0.011719 0.351563,0 0.597656,-0.3164062 0.597656,-0.5859375 0,-0.28124997 -0.234375,-0.37499997 -0.410156,-0.37499997 -0.1875,0 -0.609375,0.140625 -0.609375,0.72656247 0,0.609375 0.515625,1.03125 1.195313,1.03125 1.195312,0 2.402343,-1.1015625 2.742187,-2.42578122 l 1.171875,-4.66406248 c 0.01172,-0.058594 0.03516,-0.1289063 0.03516,-0.1992188 0,-0.1757812 -0.152343,-0.3046875 -0.328125,-0.3046875 -0.105468,0 -0.363281,0.046875 -0.457031,0.4101563 l -0.878906,3.515625 c -0.05859,0.2109375 -0.05859,0.23437498 -0.152344,0.37499998 -0.246094,0.328125 -0.644531,0.73828125 -1.207031,0.73828125 -0.679688,0 -0.738281,-0.65625 -0.738281,-0.98437503 0,-0.6796875 0.328125,-1.6054687 0.644531,-2.4609375 0.140625,-0.3515625 0.210937,-0.515625 0.210937,-0.75 0,-0.5039062 -0.363281,-0.9609375 -0.949218,-0.9609375 -1.101563,0 -1.535156,1.734375 -1.535156,1.828125 0,0.046875 0.04687,0.1054688 0.128906,0.1054688 0.105469,0 0.117187,-0.046875 0.164062,-0.2109375 0.292969,-1.0078125 0.738281,-1.4765625 1.207031,-1.4765625 0.105469,0 0.316407,0 0.316407,0.3867187 0,0.3164063 -0.140625,0.65625 -0.316407,1.1132813 -0.585937,1.5703125 -0.585937,1.9570312 -0.585937,2.25 0,1.13671873 0.808594,1.39453123 1.40625,1.39453123 0.351562,0 0.785156,-0.10546875 1.195312,-0.55078125 l 0.01172,0.0117188 c -0.175781,0.703125 -0.292969,1.171875 -0.714844,1.75781242 z m 0,0" style="fill:#000000;fill-opacity:1;fill-rule:nonzero;stroke:none"/>
      <path id="path12" d="m 32.315275,-3.8668594 c 0.164062,0 0.375,0 0.375,-0.2226562 0,-0.2226563 -0.199219,-0.2226563 -0.375,-0.2226563 h -7.042969 c -0.175781,0 -0.386719,0 -0.386719,0.2109375 0,0.234375 0.199219,0.234375 0.386719,0.234375 z m 0,2.2148438 c 0.164062,0 0.375,0 0.375,-0.2109375 0,-0.234375 -0.199219,-0.234375 -0.375,-0.234375 h -7.042969 c -0.175781,0 -0.386719,0 -0.386719,0.2226562 0,0.2226563 0.199219,0.2226563 0.386719,0.2226563 z m 0,0" style="fill:#000000;fill-opacity:1;fill-rule:nonzero;stroke:none"/>
      <path id="path13" d="m 42.381681,-4.8746719 c -0.375,0.070312 -0.515625,0.3515625 -0.515625,0.5859375 0,0.28125 0.222656,0.375 0.386719,0.375 0.363281,0 0.609375,-0.3046875 0.609375,-0.6328125 0,-0.4921875 -0.574219,-0.7265625 -1.078125,-0.7265625 -0.726563,0 -1.125,0.7148438 -1.242188,0.9492188 -0.269531,-0.9023438 -1.007812,-0.9492188 -1.230468,-0.9492188 -1.21875,0 -1.863282,1.5703125 -1.863282,1.828125 0,0.046875 0.04687,0.1054688 0.128907,0.1054688 0.105468,0 0.128906,-0.070312 0.152343,-0.1171875 0.398438,-1.3242188 1.207032,-1.5703125 1.546875,-1.5703125 0.539063,0 0.644532,0.4921875 0.644532,0.7851562 0,0.2578125 -0.07031,0.5390625 -0.210938,1.1132813 -0.1875,0.7617187 -0.234375,0.9375 -0.410156,1.6289062 -0.175781,0.72656253 -0.527344,1.38281253 -1.160156,1.38281253 -0.05859,0 -0.351563,0 -0.609375,-0.15234375 0.433593,-0.09375 0.527343,-0.4453125 0.527343,-0.5859375 0,-0.24609378 -0.175781,-0.38671878 -0.398437,-0.38671878 -0.292969,0 -0.597656,0.24609378 -0.597656,0.63281253 0,0.50390625 0.5625,0.7265625 1.066406,0.7265625 0.574219,0 0.984375,-0.45703125 1.230469,-0.9375 0.199218,0.703125 0.796875,0.9375 1.230468,0.9375 1.230469,0 1.875,-1.55859373 1.875,-1.82812503 0,-0.058594 -0.04687,-0.1054687 -0.128906,-0.1054687 -0.105469,0 -0.117187,0.058594 -0.152344,0.1523437 -0.316406,1.05468753 -1.019531,1.54687503 -1.546875,1.54687503 -0.421875,0 -0.65625,-0.31640625 -0.65625,-0.80859375 0,-0.25781248 0.05859,-0.44531248 0.246094,-1.24218748 0.140625,-0.5507813 0.292969,-1.1835938 0.421875,-1.6171875 0.175781,-0.7265625 0.585938,-1.2421875 1.125,-1.2421875 0.03516,0 0.363281,0 0.609375,0.1523437 z m 0,0" style="fill:#000000;fill-opacity:1;fill-rule:nonzero;stroke:none"/>
    </g>
    <path id="path14" d="M 2456.61,7058.56 V 5363.44" style="fill:none;stroke:#000000;stroke-width:7.97011;stroke-linecap:butt;stroke-linejoin:miter;stroke-miterlimit:10;stroke-dasharray:48.4321, 48.4321;stroke-dashoffset:0;stroke-opacity:1" transform="matrix(0.13333333,0,0,-0.13333333,0,1122.6667)"/>
    <path id="path15" d="M 1719.6,7058.56 V 5363.44" style="fill:none;stroke:#000000;stroke-width:7.97011;stroke-linecap:butt;stroke-linejoin:miter;stroke-miterlimit:10;stroke-dasharray:48.4321, 48.4321;stroke-dashoffset:0;stroke-opacity:1" transform="matrix(0.13333333,0,0,-0.13333333,0,1122.6667)"/>
    <path id="path16" d="M 1351.09,7058.56 V 5363.44" style="fill:none;stroke:#000000;stroke-width:7.97011;stroke-linecap:butt;stroke-linejoin:miter;stroke-miterlimit:10;stroke-dasharray:48.4321, 48.4321;stroke-dashoffset:0;stroke-opacity:1" transform="matrix(0.13333333,0,0,-0.13333333,0,1122.6667)"/>
    <path id="path17" d="m 5.2978125,-2.9872656 c 0,-1.2773438 -1.0546875,-2.3203125 -2.3085938,-2.3203125 -1.3007812,0 -2.32031245,1.0664062 -2.32031245,2.3203125 0,1.2773437 1.05468745,2.32031248 2.30859375,2.32031248 1.3007812,0 2.3203125,-1.06640628 2.3203125,-2.32031248 z m 0,0" style="fill:#ff0000;fill-opacity:1;fill-rule:nonzero;stroke:none" aria-label="•" transform="matrix(1.3333333,0,0,1.3333333,225.28,298.05333)"/>
    <g id="g17" aria-label="(0,0)" transform="matrix(1.3333333,0,0,1.3333333,231.49333,303.44667)">
      <path id="path18" d="m 3.8897656,2.9052344 c 0,-0.035156 0,-0.058594 -0.2109375,-0.2695313 -1.1953125,-1.2070312 -1.8632812,-3.17578122 -1.8632812,-5.6132812 0,-2.3203125 0.5625,-4.3125 1.9453125,-5.7304688 0.1289062,-0.1054687 0.1289062,-0.1289062 0.1289062,-0.1640625 0,-0.070312 -0.070312,-0.09375 -0.1171875,-0.09375 -0.1523437,0 -1.1367187,0.8554688 -1.7226562,2.0273438 -0.609375,1.2070312 -0.8789063,2.4960937 -0.8789063,3.9609375 0,1.0664062 0.1640625,2.48437498 0.7851563,3.76171873 0.703125,1.44140627 1.6875,2.21484377 1.8164062,2.21484377 0.046875,0 0.1171875,-0.023437 0.1171875,-0.09375 z m 6.0292969,-6.7265625 c 0,-0.9960938 -0.058594,-1.96875 -0.4921875,-2.8710938 -0.4921875,-0.9960937 -1.3476563,-1.2539062 -1.9335938,-1.2539062 -0.6914062,0 -1.546875,0.3398437 -1.9804687,1.3359375 -0.3398438,0.75 -0.4570313,1.4882812 -0.4570313,2.7890625 0,1.1601562 0.082031,2.0273437 0.515625,2.87109373 0.4570313,0.9140625 1.2890625,1.1953125 1.9101563,1.1953125 1.0429687,0 1.640625,-0.62109375 1.9804687,-1.31250003 0.4335938,-0.890625 0.4570313,-2.0625 0.4570313,-2.7539062 z m -2.4375,3.83203123 c -0.3867188,0 -1.1601563,-0.2109375 -1.3828125,-1.52343753 -0.140625,-0.7148437 -0.140625,-1.6171875 -0.140625,-2.4609375 0,-0.9726562 0,-1.8632812 0.1992187,-2.5664062 0.1992188,-0.796875 0.8085938,-1.171875 1.3242188,-1.171875 0.4570312,0 1.1484375,0.28125 1.3710937,1.3007812 C 9.005,-5.7314844 9.005,-4.7822656 9.005,-3.9736719 c 0,0.8085938 0,1.7109375 -0.1289063,2.4375 -0.2226562,1.32421878 -0.9726562,1.54687503 -1.3945312,1.54687503 z m 0,0" style="fill:#000000;fill-opacity:1;fill-rule:nonzero;stroke:none"/>
      <path id="path19" d="m 12.772578,0.04585938 c 0,-0.69140625 -0.222656,-1.20703128 -0.714844,-1.20703128 -0.386718,0 -0.574218,0.31640628 -0.574218,0.57421878 0,0.2578125 0.175781,0.5859375 0.585937,0.5859375 0.152344,0 0.28125,-0.046875 0.386719,-0.15234375 0.02344,-0.0234375 0.03516,-0.0234375 0.04687,-0.0234375 0.03516,0 0.03516,0.1640625 0.03516,0.22265625 0,0.3984375 -0.08203,1.17187502 -0.773437,1.94531252 -0.128907,0.1523437 -0.128907,0.1757812 -0.128907,0.1992187 0,0.058594 0.05859,0.1171875 0.117188,0.1171875 0.09375,0 1.019531,-0.890625 1.019532,-2.26171872 z m 0,0" style="fill:#000000;fill-opacity:1;fill-rule:nonzero;stroke:none"/>
      <path id="path20" d="m 21.075312,-3.8213281 c 0,-0.9960938 -0.05859,-1.96875 -0.492187,-2.8710938 -0.492188,-0.9960937 -1.347656,-1.2539062 -1.933594,-1.2539062 -0.691406,0 -1.546875,0.3398437 -1.980469,1.3359375 -0.339843,0.75 -0.457031,1.4882812 -0.457031,2.7890625 0,1.1601562 0.08203,2.0273437 0.515625,2.87109373 0.457031,0.9140625 1.289063,1.1953125 1.910156,1.1953125 1.042969,0 1.640625,-0.62109375 1.980469,-1.31250003 0.433594,-0.890625 0.457031,-2.0625 0.457031,-2.7539062 z m -2.4375,3.83203123 c -0.386718,0 -1.160156,-0.2109375 -1.382812,-1.52343753 -0.140625,-0.7148437 -0.140625,-1.6171875 -0.140625,-2.4609375 0,-0.9726562 0,-1.8632812 0.199219,-2.5664062 0.199218,-0.796875 0.808593,-1.171875 1.324218,-1.171875 0.457032,0 1.148438,0.28125 1.371094,1.3007812 0.152344,0.6796875 0.152344,1.6289063 0.152344,2.4375 0,0.8085938 0,1.7109375 -0.128906,2.4375 -0.222657,1.32421878 -0.972657,1.54687503 -1.394532,1.54687503 z m 6.342774,-2.98828123 c 0,-0.9140625 -0.128906,-2.390625 -0.796875,-3.7734375 -0.703125,-1.4414063 -1.675781,-2.2148438 -1.816406,-2.2148438 -0.04687,0 -0.105469,0.023437 -0.105469,0.09375 0,0.035156 0,0.058594 0.199219,0.2695313 1.195312,1.2070312 1.875,3.1757812 1.875,5.6132812 0,2.32031253 -0.5625,4.3125 -1.957032,5.7304688 -0.117187,0.1054687 -0.117187,0.1289062 -0.117187,0.1640625 0,0.070312 0.05859,0.09375 0.105469,0.09375 0.164062,0 1.136718,-0.8554688 1.722656,-2.02734377 0.609375,-1.21875 0.890625,-2.51953123 0.890625,-3.94921873 z m 0,0" style="fill:#000000;fill-opacity:1;fill-rule:nonzero;stroke:none"/>
    </g>
    <path id="path21" d="m 5.2962734,-2.9892969 c 0,-1.2773437 -1.0546875,-2.3203125 -2.3085937,-2.3203125 -1.3007813,0 -2.32031251,1.0664063 -2.32031251,2.3203125 0,1.2773438 1.05468751,2.32031253 2.30859371,2.32031253 1.3007813,0 2.3203125,-1.06640623 2.3203125,-2.32031253 z m 0,0" style="fill:#ff0000;fill-opacity:1;fill-rule:nonzero;stroke:none" aria-label="•" transform="matrix(1.3333333,0,0,1.3333333,176.14533,332.44667)"/>
    <g id="g21" aria-label="(−1,1)" transform="matrix(1.3333333,0,0,1.3333333,122.0724,260.7)">
      <path id="path22" d="m 3.8919891,2.9056641 c 0,-0.035156 0,-0.058594 -0.2109375,-0.2695313 -1.1953125,-1.2070312 -1.8632813,-3.17578124 -1.8632813,-5.6132812 0,-2.3203125 0.5625,-4.3125 1.9453125,-5.7304688 0.1289063,-0.1054687 0.1289063,-0.1289062 0.1289063,-0.1640625 0,-0.070312 -0.070312,-0.09375 -0.1171875,-0.09375 -0.1523438,0 -1.1367188,0.8554688 -1.7226563,2.0273438 -0.609375,1.2070312 -0.8789062,2.4960937 -0.8789062,3.9609375 0,1.0664062 0.1640625,2.48437496 0.7851562,3.76171871 0.703125,1.44140629 1.6875,2.21484379 1.8164063,2.21484379 0.046875,0 0.1171875,-0.023437 0.1171875,-0.09375 z m 0,0" style="fill:#000000;fill-opacity:1;fill-rule:nonzero;stroke:none"/>
      <path id="path23" d="m 12.458395,-2.7544922 c 0.175782,0 0.398438,0 0.398438,-0.234375 0,-0.234375 -0.222656,-0.234375 -0.398438,-0.234375 H 5.9427703 c -0.1640625,0 -0.3867187,0 -0.3867187,0.234375 0,0.234375 0.2226562,0.234375 0.3867187,0.234375 z m 0,0" style="fill:#000000;fill-opacity:1;fill-rule:nonzero;stroke:none"/>
      <path id="path24" d="m 17.245505,-7.6646484 c 0,-0.2695313 0,-0.28125 -0.246094,-0.28125 -0.28125,0.3164062 -0.878906,0.7617187 -2.109375,0.7617187 v 0.3515625 c 0.269531,0 0.867187,0 1.523437,-0.3164062 v 6.22265621 c 0,0.43359375 -0.03516,0.57421875 -1.078125,0.57421875 h -0.375 v 0.3515625025 c 0.316407,-0.0234375025 1.476563,-0.0234375025 1.875,-0.0234375025 0.398438,0 1.546875,0 1.863282,0.0234375025 V -0.35214844 h -0.363282 c -1.054687,0 -1.089843,-0.140625 -1.089843,-0.57421875 z m 0,0" style="fill:#000000;fill-opacity:1;fill-rule:nonzero;stroke:none"/>
      <path id="path25" d="m 22.012106,0.04628906 c 0,-0.69140625 -0.222656,-1.20703126 -0.714843,-1.20703126 -0.386719,0 -0.574219,0.31640626 -0.574219,0.57421876 0,0.2578125 0.175781,0.5859375025 0.585937,0.5859375025 0.152344,0 0.28125,-0.0468750025 0.386719,-0.1523437525 0.02344,-0.0234375 0.03516,-0.0234375 0.04687,-0.0234375 0.03516,0 0.03516,0.1640625 0.03516,0.22265625 0,0.3984375 -0.08203,1.17187504 -0.773437,1.94531254 -0.128906,0.1523437 -0.128906,0.1757812 -0.128906,0.1992187 0,0.058594 0.05859,0.1171875 0.117187,0.1171875 0.09375,0 1.019531,-0.890625 1.019532,-2.26171874 z m 0,0" style="fill:#000000;fill-opacity:1;fill-rule:nonzero;stroke:none"/>
      <path id="path26" d="m 28.404684,-7.6646484 c 0,-0.2695313 0,-0.28125 -0.246093,-0.28125 -0.28125,0.3164062 -0.878907,0.7617187 -2.109375,0.7617187 v 0.3515625 c 0.269531,0 0.867187,0 1.523437,-0.3164062 v 6.22265621 c 0,0.43359375 -0.03516,0.57421875 -1.078125,0.57421875 h -0.375 v 0.3515625025 c 0.316406,-0.0234375025 1.476563,-0.0234375025 1.875,-0.0234375025 0.398438,0 1.546875,0 1.863281,0.0234375025 V -0.35214844 h -0.363281 c -1.054687,0 -1.089844,-0.140625 -1.089844,-0.57421875 z m 5.81543,4.6875 c 0,-0.9140625 -0.128906,-2.390625 -0.796875,-3.7734375 -0.703125,-1.4414063 -1.675781,-2.2148438 -1.816406,-2.2148438 -0.04687,0 -0.105469,0.023437 -0.105469,0.09375 0,0.035156 0,0.058594 0.199219,0.2695313 1.195312,1.2070312 1.875,3.1757812 1.875,5.6132812 0,2.32031251 -0.5625,4.3125 -1.957031,5.7304688 -0.117188,0.1054687 -0.117188,0.1289062 -0.117188,0.1640625 0,0.070312 0.05859,0.09375 0.105469,0.09375 0.164062,0 1.136719,-0.8554688 1.722656,-2.02734379 0.609375,-1.21875 0.890625,-2.51953121 0.890625,-3.94921871 z m 0,0" style="fill:#000000;fill-opacity:1;fill-rule:nonzero;stroke:none"/>
    </g>
    <path id="path27" d="m 5.2960312,-2.9890625 c 0,-1.2773437 -1.0546875,-2.3203125 -2.3085937,-2.3203125 -1.3007813,0 -2.3203125,1.0664063 -2.3203125,2.3203125 0,1.2773438 1.0546875,2.3203125 2.3085937,2.3203125 1.3007813,0 2.3203125,-1.0664062 2.3203125,-2.3203125 z m 0,0" style="fill:#ff0000;fill-opacity:1;fill-rule:nonzero;stroke:none" aria-label="•" transform="matrix(1.3333333,0,0,1.3333333,323.548,229.26667)"/>
    <g id="g27" aria-label="(2,2)" transform="matrix(1.3333333,0,0,1.3333333,290.45467,223.35867)">
      <path id="path28" d="m 3.8894688,2.9067813 c 0,-0.035156 0,-0.058594 -0.2109375,-0.2695313 C 2.4832188,1.4302188 1.81525,-0.53853125 1.81525,-2.9760312 c 0,-2.3203125 0.5625,-4.3125 1.9453125,-5.7304688 0.1289063,-0.1054687 0.1289063,-0.1289062 0.1289063,-0.1640625 0,-0.070312 -0.070312,-0.09375 -0.1171875,-0.09375 -0.1523438,0 -1.1367188,0.8554688 -1.7226563,2.0273438 -0.609375,1.2070312 -0.8789062,2.4960937 -0.8789062,3.9609375 0,1.0664062 0.1640625,2.48437495 0.7851562,3.7617187 0.703125,1.4414063 1.6875,2.2148438 1.8164063,2.2148438 0.046875,0 0.1171875,-0.023437 0.1171875,-0.09375 z M 9.8250156,-2.003375 H 9.5554844 c -0.035156,0.1992188 -0.1289063,0.8554688 -0.2460938,1.04296875 -0.082031,0.1171875 -0.7617187,0.1171875 -1.125,0.1171875 H 5.9695469 c 0.328125,-0.28124995 1.0546875,-1.04296875 1.3710937,-1.33593745 1.8164063,-1.6640625 2.484375,-2.2851563 2.484375,-3.46875 0,-1.3828125 -1.0898437,-2.296875 -2.4726562,-2.296875 -1.3945313,0 -2.203125,1.1835937 -2.203125,2.203125 0,0.609375 0.5273437,0.609375 0.5625,0.609375 0.2460937,0 0.5625,-0.1757813 0.5625,-0.5625 0,-0.328125 -0.234375,-0.5507813 -0.5625,-0.5507813 -0.1054688,0 -0.1289063,0 -0.1640625,0.011719 0.2226562,-0.8203125 0.8671875,-1.3710938 1.640625,-1.3710938 1.0195312,0 1.640625,0.8554688 1.640625,1.9570313 0,1.0078125 -0.5859375,1.8984375 -1.265625,2.6601562 l -2.4140625,2.70703125 v 0.28125 h 4.359375 z m 0,0" style="fill:#000000;fill-opacity:1;fill-rule:nonzero;stroke:none"/>
      <path id="path29" d="m 12.772281,0.04740625 c 0,-0.69140625 -0.222656,-1.20703125 -0.714843,-1.20703125 -0.386719,0 -0.574219,0.31640625 -0.574219,0.57421875 0,0.2578125 0.175781,0.5859375 0.585937,0.5859375 0.152344,0 0.28125,-0.046875 0.386719,-0.15234375 0.02344,-0.0234375 0.03516,-0.0234375 0.04687,-0.0234375 0.03516,0 0.03516,0.1640625 0.03516,0.22265625 0,0.3984375 -0.08203,1.17187505 -0.773437,1.94531255 -0.128906,0.1523437 -0.128906,0.1757812 -0.128906,0.1992187 0,0.058594 0.05859,0.1171875 0.117187,0.1171875 0.09375,0 1.019531,-0.890625 1.019531,-2.26171875 z m 0,0" style="fill:#000000;fill-opacity:1;fill-rule:nonzero;stroke:none"/>
      <path id="path30" d="m 20.981266,-2.003375 h -0.269532 c -0.03516,0.1992188 -0.128906,0.8554688 -0.246093,1.04296875 -0.08203,0.1171875 -0.761719,0.1171875 -1.125,0.1171875 h -2.214844 c 0.328125,-0.28124995 1.054687,-1.04296875 1.371094,-1.33593745 1.816406,-1.6640625 2.484375,-2.2851563 2.484375,-3.46875 0,-1.3828125 -1.089844,-2.296875 -2.472657,-2.296875 -1.394531,0 -2.203125,1.1835937 -2.203125,2.203125 0,0.609375 0.527344,0.609375 0.5625,0.609375 0.246094,0 0.5625,-0.1757813 0.5625,-0.5625 0,-0.328125 -0.234375,-0.5507813 -0.5625,-0.5507813 -0.105468,0 -0.128906,0 -0.164062,0.011719 0.222656,-0.8203125 0.867187,-1.3710938 1.640625,-1.3710938 1.019531,0 1.640625,0.8554688 1.640625,1.9570313 0,1.0078125 -0.585938,1.8984375 -1.265625,2.6601562 l -2.414063,2.70703125 v 0.28125 h 4.359375 z m 3.999023,-0.9726562 c 0,-0.9140625 -0.128906,-2.390625 -0.796875,-3.7734375 -0.703125,-1.4414063 -1.675781,-2.2148438 -1.816406,-2.2148438 -0.04687,0 -0.105469,0.023437 -0.105469,0.09375 0,0.035156 0,0.058594 0.199219,0.2695313 1.195312,1.2070312 1.875,3.1757812 1.875,5.6132812 0,2.3203125 -0.5625,4.3125 -1.957031,5.7304688 -0.117188,0.1054687 -0.117188,0.1289062 -0.117188,0.1640625 0,0.070312 0.05859,0.09375 0.105469,0.09375 0.164062,0 1.136719,-0.8554688 1.722656,-2.0273438 0.609375,-1.21875 0.890625,-2.5195312 0.890625,-3.9492187 z m 0,0" style="fill:#000000;fill-opacity:1;fill-rule:nonzero;stroke:none"/>
    </g>
    <path id="path31" d="m 5.2962734,-2.9881641 c 0,-1.2773437 -1.0546875,-2.3203125 -2.3085937,-2.3203125 -1.3007813,0 -2.32031251,1.0664063 -2.32031251,2.3203125 0,1.2773438 1.05468751,2.32031254 2.30859371,2.32031254 1.3007813,0 2.3203125,-1.06640624 2.3203125,-2.32031254 z m 0,0" style="fill:#ff0000;fill-opacity:1;fill-rule:nonzero;stroke:none" aria-label="•" transform="matrix(1.3333333,0,0,1.3333333,176.14533,263.66)"/>
    <g id="g31" aria-label="(−1,−1)" transform="matrix(1.3333333,0,0,1.3333333,111.07867,334.64667)">
      <path id="path32" d="m 3.8902188,2.9075781 c 0,-0.035156 0,-0.058594 -0.2109375,-0.2695312 C 2.4839688,1.4310156 1.816,-0.53773437 1.816,-2.9752344 c 0,-2.3203125 0.5625,-4.3125 1.9453125,-5.7304687 0.1289063,-0.1054688 0.1289063,-0.1289063 0.1289063,-0.1640625 0,-0.070312 -0.070312,-0.09375 -0.1171875,-0.09375 -0.1523438,0 -1.1367188,0.8554687 -1.7226563,2.0273437 -0.609375,1.2070313 -0.8789062,2.4960938 -0.8789062,3.9609375 0,1.0664063 0.1640625,2.48437503 0.7851562,3.76171878 0.703125,1.44140622 1.6875,2.21484372 1.8164063,2.21484372 0.046875,0 0.1171875,-0.023437 0.1171875,-0.09375 z m 0,0" style="fill:#000000;fill-opacity:1;fill-rule:nonzero;stroke:none"/>
      <path id="path33" d="m 12.459555,-2.7525781 c 0.175781,0 0.398437,0 0.398437,-0.234375 0,-0.234375 -0.222656,-0.234375 -0.398437,-0.234375 H 5.9439297 c -0.1640625,0 -0.3867188,0 -0.3867188,0.234375 0,0.234375 0.2226563,0.234375 0.3867188,0.234375 z m 0,0" style="fill:#000000;fill-opacity:1;fill-rule:nonzero;stroke:none"/>
      <path id="path34" d="m 17.246664,-7.6627344 c 0,-0.2695312 0,-0.28125 -0.246094,-0.28125 -0.28125,0.3164063 -0.878906,0.7617188 -2.109375,0.7617188 v 0.3515625 c 0.269532,0 0.867188,0 1.523438,-0.3164063 v 6.22265628 c 0,0.43359375 -0.03516,0.57421875 -1.078125,0.57421875 h -0.375 v 0.3515625 c 0.316406,-0.0234375 1.476562,-0.0234375 1.875,-0.0234375 0.398437,0 1.546875,0 1.863281,0.0234375 v -0.3515625 h -0.363281 c -1.054688,0 -1.089844,-0.140625 -1.089844,-0.57421875 z m 0,0" style="fill:#000000;fill-opacity:1;fill-rule:nonzero;stroke:none"/>
      <path id="path35" d="m 22.013266,0.04820313 c 0,-0.69140625 -0.222657,-1.20703123 -0.714844,-1.20703123 -0.386719,0 -0.574219,0.31640623 -0.574219,0.57421873 0,0.2578125 0.175781,0.5859375 0.585938,0.5859375 0.152343,0 0.28125,-0.046875 0.386718,-0.15234375 0.02344,-0.0234375 0.03516,-0.0234375 0.04687,-0.0234375 0.03516,0 0.03516,0.1640625 0.03516,0.22265625 0,0.3984375 -0.08203,1.17187497 -0.773438,1.94531247 -0.128906,0.1523438 -0.128906,0.1757813 -0.128906,0.1992188 0,0.058594 0.05859,0.1171875 0.117187,0.1171875 0.09375,0 1.019532,-0.890625 1.019532,-2.26171877 z m 0,0" style="fill:#000000;fill-opacity:1;fill-rule:nonzero;stroke:none"/>
      <path id="path36" d="m 32.858969,-2.7525781 c 0.175781,0 0.398437,0 0.398437,-0.234375 0,-0.234375 -0.222656,-0.234375 -0.398437,-0.234375 h -6.515625 c -0.164063,0 -0.386719,0 -0.386719,0.234375 0,0.234375 0.222656,0.234375 0.386719,0.234375 z m 0,0" style="fill:#000000;fill-opacity:1;fill-rule:nonzero;stroke:none"/>
      <path id="path37" d="m 37.646078,-7.6627344 c 0,-0.2695312 0,-0.28125 -0.246094,-0.28125 -0.28125,0.3164063 -0.878906,0.7617188 -2.109375,0.7617188 v 0.3515625 c 0.269532,0 0.867188,0 1.523438,-0.3164063 v 6.22265628 c 0,0.43359375 -0.03516,0.57421875 -1.078125,0.57421875 h -0.375 v 0.3515625 c 0.316406,-0.0234375 1.476562,-0.0234375 1.875,-0.0234375 0.398437,0 1.546875,0 1.863281,0.0234375 v -0.3515625 h -0.363281 c -1.054688,0 -1.089844,-0.140625 -1.089844,-0.57421875 z m 5.81543,4.6875 c 0,-0.9140625 -0.128906,-2.390625 -0.796875,-3.7734375 -0.703125,-1.4414062 -1.675781,-2.2148437 -1.816406,-2.2148437 -0.04687,0 -0.105469,0.023437 -0.105469,0.09375 0,0.035156 0,0.058594 0.199219,0.2695312 1.195312,1.2070313 1.875,3.1757813 1.875,5.6132813 0,2.32031248 -0.5625,4.3125 -1.957032,5.7304687 -0.117187,0.1054688 -0.117187,0.1289063 -0.117187,0.1640625 0,0.070312 0.05859,0.09375 0.105469,0.09375 0.164062,0 1.136718,-0.8554687 1.722656,-2.02734372 0.609375,-1.21875 0.890625,-2.51953128 0.890625,-3.94921878 z m 0,0" style="fill:#000000;fill-opacity:1;fill-rule:nonzero;stroke:none"/>
    </g>
    <path id="path38" d="m 5.2960312,-2.9883984 c 0,-1.2773438 -1.0546875,-2.3203125 -2.3085937,-2.3203125 -1.3007813,0 -2.3203125,1.0664062 -2.3203125,2.3203125 0,1.2773437 1.0546875,2.32031246 2.3085937,2.32031246 1.3007813,0 2.3203125,-1.06640626 2.3203125,-2.32031246 z m 0,0" style="fill:#ff0000;fill-opacity:1;fill-rule:nonzero;stroke:none" aria-label="•" transform="matrix(1.3333333,0,0,1.3333333,323.548,366.84)"/>
    <g id="g38" aria-label="(2,−2)&#10;Figure2.7:AdditioninR." transform="matrix(1.3333333,0,0,1.3333333,279.30133,373.708)">
      <path id="path39" d="m 3.8902109,2.9055234 c 0,-0.035156 0,-0.058594 -0.2109375,-0.2695312 -1.1953125,-1.2070313 -1.8632812,-3.17578126 -1.8632812,-5.6132813 0,-2.3203125 0.5625,-4.3125 1.9453125,-5.7304687 0.1289062,-0.1054688 0.1289062,-0.1289063 0.1289062,-0.1640625 0,-0.070312 -0.070312,-0.09375 -0.1171875,-0.09375 -0.1523437,0 -1.1367187,0.8554687 -1.7226562,2.0273437 -0.609375,1.2070313 -0.8789063,2.4960938 -0.8789063,3.9609375 0,1.0664063 0.1640625,2.48437504 0.7851563,3.76171879 0.703125,1.44140621 1.6875,2.21484371 1.8164062,2.21484371 0.046875,0 0.1171875,-0.023437 0.1171875,-0.09375 z M 9.8257578,-2.0046328 H 9.5562266 c -0.035156,0.1992187 -0.1289063,0.8554687 -0.2460938,1.04296874 -0.082031,0.1171875 -0.7617187,0.1171875 -1.125,0.1171875 H 5.9702891 c 0.328125,-0.28125004 1.0546875,-1.04296874 1.3710937,-1.33593754 1.8164063,-1.6640625 2.484375,-2.2851562 2.484375,-3.46875 0,-1.3828125 -1.0898437,-2.296875 -2.4726562,-2.296875 -1.3945313,0 -2.203125,1.1835938 -2.203125,2.203125 0,0.609375 0.5273437,0.609375 0.5625,0.609375 0.2460937,0 0.5625,-0.1757812 0.5625,-0.5625 0,-0.328125 -0.234375,-0.5507812 -0.5625,-0.5507812 -0.1054688,0 -0.1289063,0 -0.1640625,0.011719 0.2226562,-0.8203125 0.8671875,-1.3710937 1.640625,-1.3710937 1.0195312,0 1.640625,0.8554687 1.640625,1.9570312 0,1.0078125 -0.5859375,1.8984375 -1.265625,2.6601563 l -2.4140625,2.70703124 v 0.2812499975 h 4.359375 z m 0,0" style="fill:#000000;fill-opacity:1;fill-rule:nonzero;stroke:none"/>
      <path id="path40" d="m 12.773023,0.04614844 c 0,-0.69140625 -0.222656,-1.20703124 -0.714843,-1.20703124 -0.386719,0 -0.574219,0.31640624 -0.574219,0.57421874 0,0.2578125 0.175781,0.5859374975 0.585937,0.5859374975 0.152344,0 0.28125,-0.0468749975 0.386719,-0.1523437475 0.02344,-0.0234375 0.03516,-0.0234375 0.04687,-0.0234375 0.03516,0 0.03516,0.1640625 0.03516,0.22265625 0,0.3984375 -0.08203,1.17187496 -0.773437,1.94531246 -0.128906,0.1523438 -0.128906,0.1757813 -0.128906,0.1992188 0,0.058594 0.05859,0.1171875 0.117187,0.1171875 0.09375,0 1.019531,-0.890625 1.019531,-2.26171876 z m 0,0" style="fill:#000000;fill-opacity:1;fill-rule:nonzero;stroke:none"/>
      <path id="path41" d="m 23.618727,-2.7546328 c 0.175781,0 0.398437,0 0.398437,-0.234375 0,-0.234375 -0.222656,-0.234375 -0.398437,-0.234375 h -6.515625 c -0.164063,0 -0.386719,0 -0.386719,0.234375 0,0.234375 0.222656,0.234375 0.386719,0.234375 z m 0,0" style="fill:#000000;fill-opacity:1;fill-rule:nonzero;stroke:none"/>
      <path id="path42" d="m 30.222242,-2.0046328 h -0.269531 c -0.03516,0.1992187 -0.128906,0.8554687 -0.246094,1.04296874 -0.08203,0.1171875 -0.761719,0.1171875 -1.125,0.1171875 h -2.214844 c 0.328125,-0.28125004 1.054688,-1.04296874 1.371094,-1.33593754 1.816406,-1.6640625 2.484375,-2.2851562 2.484375,-3.46875 0,-1.3828125 -1.089844,-2.296875 -2.472656,-2.296875 -1.394531,0 -2.203125,1.1835938 -2.203125,2.203125 0,0.609375 0.527344,0.609375 0.5625,0.609375 0.246094,0 0.5625,-0.1757812 0.5625,-0.5625 0,-0.328125 -0.234375,-0.5507812 -0.5625,-0.5507812 -0.105469,0 -0.128906,0 -0.164063,0.011719 0.222657,-0.8203125 0.867188,-1.3710937 1.640625,-1.3710937 1.019532,0 1.640625,0.8554687 1.640625,1.9570312 0,1.0078125 -0.585937,1.8984375 -1.265625,2.6601563 l -2.414062,2.70703124 v 0.2812499975 h 4.359375 z m 3.999024,-0.9726563 c 0,-0.9140625 -0.128907,-2.390625 -0.796875,-3.7734375 -0.703125,-1.4414062 -1.675782,-2.2148437 -1.816407,-2.2148437 -0.04687,0 -0.105468,0.023437 -0.105468,0.09375 0,0.035156 0,0.058594 0.199218,0.2695312 1.195313,1.2070313 1.875,3.1757813 1.875,5.6132813 0,2.32031249 -0.5625,4.3125 -1.957031,5.7304687 -0.117187,0.1054688 -0.117187,0.1289063 -0.117187,0.1640625 0,0.070312 0.05859,0.09375 0.105468,0.09375 0.164063,0 1.136719,-0.8554687 1.722657,-2.02734371 0.609375,-1.21875 0.890625,-2.51953129 0.890625,-3.94921879 z M -100.17522,48.995367 h -6.32812 v 0.351563 h 0.23437 c 0.86719,0 0.90234,0.117187 0.90234,0.5625 v 6.316406 c 0,0.445312 -0.0352,0.5625 -0.90234,0.5625 h -0.23437 v 0.351562 c 0.28125,-0.02344 1.34765,-0.02344 1.71093,-0.02344 0.41016,0 1.46485,0 1.81641,0.02344 v -0.351562 h -0.36328 c -1.04297,0 -1.06641,-0.140625 -1.06641,-0.574219 v -2.976562 h 1.05469 c 1.125,0 1.24219,0.398437 1.24219,1.40625 h 0.26953 V 51.50318 h -0.26953 c 0,0.996093 -0.11719,1.394531 -1.24219,1.394531 h -1.05469 v -3.070313 c 0,-0.398437 0.0234,-0.480468 0.55078,-0.480468 h 1.5 c 1.72266,0 2.0625,0.632812 2.23828,2.320312 h 0.257818 z m 2.935548,0.785156 c 0,-0.316406 -0.246094,-0.585937 -0.574219,-0.585937 -0.316406,0 -0.574218,0.246094 -0.574218,0.574219 0,0.351562 0.28125,0.585937 0.574218,0.585937 0.363282,0 0.574219,-0.316406 0.574219,-0.574219 z m -1.640625,2.214844 v 0.351563 c 0.761719,0 0.867188,0.07031 0.867188,0.65625 v 3.257812 c 0,0.527344 -0.128907,0.527344 -0.902344,0.527344 v 0.351562 c 0.328125,-0.02344 0.902344,-0.02344 1.253906,-0.02344 0.128906,0 0.820313,0 1.230469,0.02344 v -0.351562 c -0.773438,0 -0.832031,-0.05859 -0.832031,-0.515625 v -4.40625 z m 4.22461,2.976563 c 0.5625,0.375 1.042968,0.375 1.171875,0.375 1.078125,0 1.875,-0.808594 1.875,-1.734375 0,-0.316407 -0.09375,-0.773438 -0.46875,-1.160157 0.457031,-0.480468 1.019531,-0.480468 1.089843,-0.480468 0.04687,0 0.105469,0 0.152344,0.02344 -0.117187,0.04687 -0.1875,0.175781 -0.1875,0.304688 0,0.164062 0.128906,0.304687 0.316406,0.304687 0.09375,0 0.316407,-0.05859 0.316407,-0.316406 0,-0.210938 -0.175782,-0.550781 -0.585938,-0.550781 -0.632812,0 -1.089844,0.386718 -1.265625,0.5625 -0.351562,-0.28125 -0.773437,-0.433594 -1.230469,-0.433594 -1.066406,0 -1.875,0.820312 -1.875,1.734375 0,0.679687 0.421875,1.125 0.539063,1.230469 -0.140625,0.175781 -0.351563,0.527343 -0.351563,0.996093 0,0.691407 0.410157,0.984375 0.503907,1.054688 -0.550782,0.152344 -1.089844,0.585937 -1.089844,1.207031 0,0.820313 1.113281,1.5 2.589844,1.5 1.417968,0 2.601562,-0.632812 2.601562,-1.523437 0,-0.304688 -0.08203,-1.007813 -0.796875,-1.382813 -0.609375,-0.304687 -1.207031,-0.304687 -2.238281,-0.304687 -0.726563,0 -0.808594,0 -1.03125,-0.234375 -0.117188,-0.117188 -0.222656,-0.339844 -0.222656,-0.597657 0,-0.199218 0.07031,-0.398437 0.1875,-0.574218 z m 1.183593,0.128906 c -1.042968,0 -1.042968,-1.207031 -1.042968,-1.488281 0,-0.210938 0,-0.703125 0.199218,-1.03125 0.222657,-0.339844 0.585938,-0.457032 0.832032,-0.457032 1.054687,0 1.054687,1.207032 1.054687,1.476563 0,0.210937 0,0.703125 -0.199219,1.03125 -0.234375,0.339844 -0.585937,0.46875 -0.84375,0.46875 z m 0.328125,4.242187 c -1.148437,0 -2.015625,-0.585937 -2.015625,-1.265625 0,-0.105468 0.02344,-0.5625 0.46875,-0.878906 0.269532,-0.164062 0.375,-0.164062 1.207032,-0.164062 0.996093,0 2.34375,0 2.34375,1.042968 0,0.703125 -0.902344,1.265625 -2.003907,1.265625 z m 6.585938,-7.347656 v 0.351563 c 0.808594,0 0.914062,0.08203 0.914062,0.667968 v 2.144532 c 0,1.007812 -0.539062,1.863281 -1.441406,1.863281 -0.972656,0 -1.042969,-0.5625 -1.042969,-1.195313 v -3.960937 l -1.675781,0.128906 v 0.351563 c 0.902344,0 0.902344,0.03516 0.902344,1.101562 v 1.792969 c 0,0.738281 0,1.171875 0.363281,1.558594 0.28125,0.316406 0.773438,0.457031 1.382813,0.457031 0.199218,0 0.585937,0 0.996093,-0.339844 0.339844,-0.28125 0.539063,-0.738281 0.539063,-0.738281 v 1.078125 l 1.652344,-0.117188 v -0.351562 c -0.808594,0 -0.902344,-0.08203 -0.902344,-0.667969 v -4.253906 z m 4.839844,2.355469 c 0,-1.160156 0.480468,-2.238281 1.40625,-2.238281 0.09375,0 0.117187,0 0.164062,0.01172 -0.09375,0.04687 -0.292969,0.117188 -0.292969,0.433594 0,0.351563 0.28125,0.480469 0.46875,0.480469 0.246094,0 0.480469,-0.152344 0.480469,-0.480469 0,-0.351562 -0.316406,-0.691406 -0.832031,-0.691406 -1.019531,0 -1.371094,1.101562 -1.441406,1.324219 h -0.01172 v -1.324219 l -1.59375,0.128906 v 0.351563 c 0.808594,0 0.902344,0.08203 0.902344,0.667968 v 3.246094 c 0,0.527344 -0.128907,0.527344 -0.902344,0.527344 V 57.1399 c 0.328125,-0.02344 0.984375,-0.02344 1.347656,-0.02344 0.316406,0 1.171875,0 1.441406,0.02344 v -0.351562 h -0.234375 c -0.878906,0 -0.902343,-0.128906 -0.902343,-0.5625 z m 7.154296,0.01172 c 0.257813,0 0.28125,0 0.28125,-0.222657 0,-1.207031 -0.644531,-2.332031 -2.085937,-2.332031 -1.371094,0 -2.414063,1.230469 -2.414063,2.71875 0,1.570313 1.21875,2.730469 2.542969,2.730469 1.417969,0 1.957031,-1.289063 1.957031,-1.535156 0,-0.08203 -0.05859,-0.128907 -0.128906,-0.128907 -0.09375,0 -0.117187,0.07031 -0.140625,0.128907 -0.316406,0.996093 -1.113281,1.277343 -1.617187,1.277343 -0.503907,0 -1.710938,-0.339843 -1.710938,-2.402343 v -0.234375 z m -3.304687,-0.222657 c 0.09375,-1.875 1.148437,-2.097656 1.488281,-2.097656 1.277344,0 1.347656,1.6875 1.359375,2.097656 z m 13.101562,0.996094 h -0.269531 c -0.03516,0.199219 -0.128906,0.855469 -0.246094,1.042969 -0.08203,0.117187 -0.761718,0.117187 -1.125,0.117187 h -2.214843 c 0.328125,-0.28125 1.054687,-1.042968 1.371093,-1.335937 1.816407,-1.664063 2.484375,-2.285156 2.484375,-3.46875 0,-1.382813 -1.089843,-2.296875 -2.472656,-2.296875 -1.394531,0 -2.203125,1.183594 -2.203125,2.203125 0,0.609375 0.527344,0.609375 0.5625,0.609375 0.246094,0 0.5625,-0.175781 0.5625,-0.5625 0,-0.328125 -0.234375,-0.550781 -0.5625,-0.550781 -0.105469,0 -0.128906,0 -0.164062,0.01172 0.222656,-0.820312 0.867187,-1.371093 1.640625,-1.371093 1.019531,0 1.640625,0.855468 1.640625,1.957031 0,1.007812 -0.585938,1.898437 -1.265625,2.660156 l -2.414063,2.707031 v 0.28125 h 4.359375 z m 2.827149,1.417969 c 0,-0.328125 -0.28125,-0.574219 -0.574219,-0.574219 -0.351562,0 -0.585937,0.28125 -0.585937,0.574219 0,0.363281 0.292968,0.585937 0.574218,0.585937 0.316407,0 0.585938,-0.246093 0.585938,-0.585937 z m 6.720703,-6.832031 v -0.28125 h -2.882813 c -1.453125,0 -1.476562,-0.152344 -1.523437,-0.386719 h -0.257813 l -0.375,2.390625 h 0.269532 c 0.03516,-0.210938 0.140625,-0.949219 0.292968,-1.078125 0.09375,-0.07031 0.996094,-0.07031 1.160157,-0.07031 h 2.53125 l -1.265625,1.816407 c -0.316407,0.457031 -1.523438,2.425781 -1.523438,4.664062 0,0.140625 0,0.609375 0.480469,0.609375 0.503906,0 0.503906,-0.457031 0.503906,-0.621094 v -0.597656 c 0,-1.78125 0.292969,-3.164062 0.855469,-3.960937 z m 2.405273,2.835937 c 0,-0.316406 -0.28125,-0.574219 -0.574218,-0.574219 -0.351563,0 -0.585938,0.28125 -0.585938,0.574219 0,0.363281 0.292969,0.585938 0.574219,0.585938 0.316406,0 0.585937,-0.246094 0.585937,-0.585938 z m 0,3.996094 c 0,-0.328125 -0.28125,-0.574219 -0.574218,-0.574219 -0.351563,0 -0.585938,0.28125 -0.585938,0.574219 0,0.363281 0.292969,0.585937 0.574219,0.585937 0.316406,0 0.585937,-0.246093 0.585937,-0.585937 z m 10.825196,-7.734375 c -0.04687,-0.140625 -0.07031,-0.210938 -0.246094,-0.210938 -0.164063,0 -0.1875,0.03516 -0.246094,0.222657 l -2.496094,7.148437 c -0.175781,0.492188 -0.503906,0.796875 -1.265625,0.808594 v 0.351562 c 0.726563,-0.02344 0.75,-0.02344 1.148438,-0.02344 0.328125,0 0.902344,0 1.21875,0.02344 v -0.351562 c -0.503906,-0.01172 -0.808594,-0.257813 -0.808594,-0.597656 0,-0.07031 0,-0.09375 0.05859,-0.246094 l 0.550781,-1.59375 h 3.011719 l 0.65625,1.875 c 0.07031,0.152344 0.07031,0.175781 0.07031,0.210937 0,0.351563 -0.621093,0.351563 -0.914062,0.351563 v 0.351562 c 0.269531,-0.02344 1.21875,-0.02344 1.558594,-0.02344 0.328125,0 1.195312,0 1.464843,0.02344 v -0.351562 c -0.773437,0 -0.996093,0 -1.160156,-0.480469 z m -0.574219,1.207031 1.382812,3.984375 h -2.777343 z m 8.291016,-1.054687 v 0.351562 c 0.808593,0 0.914062,0.08203 0.914062,0.667969 v 2.636719 c -0.257812,-0.339844 -0.773437,-0.761719 -1.5,-0.761719 -1.382812,0 -2.578125,1.171875 -2.578125,2.707031 0,1.511719 1.136719,2.683594 2.449219,2.683594 0.902344,0 1.429687,-0.597656 1.59375,-0.820313 v 0.820313 l 1.6875,-0.117188 v -0.351562 c -0.808594,0 -0.902344,-0.08203 -0.902344,-0.667969 v -7.277344 z m 0.878906,6.773437 c 0,0.210938 0,0.246094 -0.164063,0.515625 -0.28125,0.410156 -0.773437,0.761719 -1.371093,0.761719 -0.316407,0 -1.605469,-0.117188 -1.605469,-2.4375 0,-0.867188 0.140625,-1.347656 0.410156,-1.734375 0.234375,-0.375 0.714844,-0.738281 1.3125,-0.738281 0.738281,0 1.160156,0.527343 1.277344,0.726562 0.140625,0.199219 0.140625,0.222656 0.140625,0.445313 z m 5.601562,-6.773437 v 0.351562 c 0.808594,0 0.914063,0.08203 0.914063,0.667969 v 2.636719 c -0.257813,-0.339844 -0.773438,-0.761719 -1.5,-0.761719 -1.382813,0 -2.578125,1.171875 -2.578125,2.707031 0,1.511719 1.136719,2.683594 2.449219,2.683594 0.902343,0 1.429687,-0.597656 1.59375,-0.820313 v 0.820313 l 1.6875,-0.117188 v -0.351562 c -0.808594,0 -0.902344,-0.08203 -0.902344,-0.667969 v -7.277344 z m 0.878907,6.773437 c 0,0.210938 0,0.246094 -0.164063,0.515625 -0.28125,0.410156 -0.773437,0.761719 -1.371094,0.761719 -0.316406,0 -1.605468,-0.117188 -1.605468,-2.4375 0,-0.867188 0.140625,-1.347656 0.410156,-1.734375 0.234375,-0.375 0.714844,-0.738281 1.3125,-0.738281 0.738281,0 1.160156,0.527343 1.277344,0.726562 0.140625,0.199219 0.140625,0.222656 0.140625,0.445313 z m 4.089843,-5.964844 c 0,-0.316406 -0.246093,-0.585937 -0.574218,-0.585937 -0.316407,0 -0.574219,0.246094 -0.574219,0.574219 0,0.351562 0.28125,0.585937 0.574219,0.585937 0.363281,0 0.574218,-0.316406 0.574218,-0.574219 z m -1.640625,2.214844 v 0.351563 c 0.761719,0 0.867188,0.07031 0.867188,0.65625 v 3.257812 c 0,0.527344 -0.128906,0.527344 -0.902344,0.527344 v 0.351562 c 0.328125,-0.02344 0.902344,-0.02344 1.253906,-0.02344 0.128907,0 0.820313,0 1.230469,0.02344 v -0.351562 c -0.773437,0 -0.832031,-0.05859 -0.832031,-0.515625 v -4.40625 z m 4.810547,0.339844 h 1.6875 v -0.351563 h -1.6875 v -2.191406 h -0.257812 c -0.01172,1.125 -0.445313,2.261719 -1.535157,2.308594 v 0.234375 h 1.019532 v 3.328125 c 0,1.324219 0.890625,1.59375 1.523437,1.59375 0.75,0 1.148438,-0.738281 1.148438,-1.59375 V 54.97193 h -0.269532 v 0.65625 c 0,0.867187 -0.339843,1.371093 -0.808593,1.371093 -0.820313,0 -0.820313,-1.113281 -0.820313,-1.3125 z m 4.631836,-2.554688 c 0,-0.316406 -0.246094,-0.585937 -0.574219,-0.585937 -0.316406,0 -0.574218,0.246094 -0.574218,0.574219 0,0.351562 0.28125,0.585937 0.574218,0.585937 0.363282,0 0.574219,-0.316406 0.574219,-0.574219 z m -1.640625,2.214844 v 0.351563 c 0.761719,0 0.867188,0.07031 0.867188,0.65625 v 3.257812 c 0,0.527344 -0.128907,0.527344 -0.902344,0.527344 v 0.351562 c 0.328125,-0.02344 0.902344,-0.02344 1.253906,-0.02344 0.128906,0 0.820313,0 1.230469,0.02344 v -0.351562 c -0.773438,0 -0.832031,-0.05859 -0.832031,-0.515625 v -4.40625 z m 8.2910158,2.589844 c 0,-1.546875 -1.171875,-2.777344 -2.5546878,-2.777344 -1.429687,0 -2.566406,1.265625 -2.566406,2.777344 0,1.523437 1.195313,2.671875 2.554688,2.671875 1.4062495,0 2.5664058,-1.171875 2.5664058,-2.671875 z m -2.5546878,2.414062 c -0.445312,0 -0.984375,-0.199218 -1.324218,-0.785156 -0.328125,-0.527344 -0.339844,-1.242187 -0.339844,-1.734375 0,-0.457031 0,-1.183594 0.375,-1.722656 0.328125,-0.515625 0.855469,-0.714844 1.277344,-0.714844 0.46875,0 0.9726558,0.222656 1.289062,0.691406 0.375,0.550782 0.375,1.300782 0.375,1.746094 0,0.410156 0,1.148438 -0.3164062,1.710938 -0.328125,0.574218 -0.8789058,0.808593 -1.3359378,0.808593 z m 8.2763674,-2.765625 c 0,-1.113281 0,-1.441406 -0.28125,-1.828125 -0.3398437,-0.46875 -0.9023437,-0.539062 -1.3125,-0.539062 -1.1601562,0 -1.6054687,0.996094 -1.7109375,1.230469 h -0.011719 v -1.230469 l -1.6171875,0.128906 v 0.351563 c 0.8085937,0 0.9023437,0.08203 0.9023437,0.667968 v 3.246094 c 0,0.527344 -0.1289062,0.527344 -0.9023437,0.527344 v 0.351562 c 0.3046875,-0.02344 0.9492187,-0.02344 1.2890625,-0.02344 0.3398437,0 0.984375,0 1.3007812,0.02344 v -0.351562 c -0.7617187,0 -0.9140625,0 -0.9140625,-0.527344 V 54.03443 c 0,-1.253907 0.8320313,-1.921875 1.5703125,-1.921875 0.7382813,0 0.9140625,0.609375 0.9140625,1.335937 v 2.8125 c 0,0.527344 -0.140625,0.527344 -0.9140625,0.527344 v 0.351562 c 0.3164063,-0.02344 0.9609375,-0.02344 1.2890625,-0.02344 0.3515625,0 0.9960938,0 1.3007813,0.02344 v -0.351562 c -0.5976563,0 -0.890625,0 -0.9023438,-0.351563 z m 7.1953125,-4.453125 c 0,-0.316406 -0.2460937,-0.585937 -0.5742187,-0.585937 -0.3164063,0 -0.5742188,0.246094 -0.5742188,0.574219 0,0.351562 0.28125,0.585937 0.5742188,0.585937 0.3632812,0 0.5742187,-0.316406 0.5742187,-0.574219 z m -1.640625,2.214844 v 0.351563 c 0.7617188,0 0.8671875,0.07031 0.8671875,0.65625 v 3.257812 c 0,0.527344 -0.1289062,0.527344 -0.9023437,0.527344 v 0.351562 c 0.328125,-0.02344 0.9023437,-0.02344 1.2539062,-0.02344 0.1289063,0 0.8203125,0 1.2304688,0.02344 v -0.351562 c -0.7734375,0 -0.8320313,-0.05859 -0.8320313,-0.515625 v -4.40625 z m 8.1269531,2.238281 c 0,-1.113281 0,-1.441406 -0.28125,-1.828125 -0.339844,-0.46875 -0.9023437,-0.539062 -1.3124999,-0.539062 -1.1601563,0 -1.6054688,0.996094 -1.7109375,1.230469 h -0.011719 v -1.230469 l -1.6171875,0.128906 v 0.351563 c 0.8085938,0 0.9023438,0.08203 0.9023438,0.667968 v 3.246094 c 0,0.527344 -0.1289063,0.527344 -0.9023438,0.527344 v 0.351562 c 0.3046875,-0.02344 0.9492188,-0.02344 1.2890625,-0.02344 0.3398438,0 0.984375,0 1.3007813,0.02344 v -0.351562 c -0.7617188,0 -0.9140625,0 -0.9140625,-0.527344 V 54.03443 c 0,-1.253907 0.8320312,-1.921875 1.5703125,-1.921875 0.7382811,0 0.9140631,0.609375 0.9140631,1.335937 v 2.8125 c 0,0.527344 -0.140625,0.527344 -0.9140631,0.527344 v 0.351562 c 0.3164062,-0.02344 0.9609381,-0.02344 1.2890631,-0.02344 0.351562,0 0.996093,0 1.300781,0.02344 v -0.351562 c -0.597656,0 -0.890625,0 -0.902344,-0.351563 z m 0,0" style="fill:#000000;fill-opacity:1;fill-rule:nonzero;stroke:none"/>
      
      
    </g>
    
    
    
    
    
    
    
    
    
    
    
    
    
    
    
    
    
    
    
    
    
    
    
    
    
    
    
    
    
    
    
    
    
    
    
    
    
    
    
    
    
    
    
    
    
    
    
    
    
    
    
    
    
    
    
    
    
    
    
    
    
    
    
    
    
    
    
    
    
    
    
  </g>
</svg>