<svg version="1.1" id="svg1" width="300.0019607271581" height="255.002373611691" viewBox="213.00139211628226 469.00436558385525 300.0019607271581 255.002373611691" sodipodi:docname="2_1_1.pdf" xmlns:inkscape="http://www.inkscape.org/namespaces/inkscape" xmlns:sodipodi="http://sodipodi.sourceforge.net/DTD/sodipodi-0.dtd" xmlns="http://www.w3.org/2000/svg" xmlns:svg="http://www.w3.org/2000/svg" style="">
  <defs id="defs1"/>
  <sodipodi:namedview id="namedview1" pagecolor="#ffffff" bordercolor="#000000" borderopacity="0.25" inkscape:showpageshadow="2" inkscape:pageopacity="0.0" inkscape:pagecheckerboard="0" inkscape:deskcolor="#d1d1d1">
    <inkscape:page x="0" y="0" inkscape:label="1" id="page1" width="793.33331" height="1122.6667" margin="0" bleed="0"/>
  </sodipodi:namedview>
  <g id="g1" inkscape:groupmode="layer" inkscape:label="1">
    
    
    
    
    
    
    
    
    
    
    
    
    
    
    
    
    
    
    
    
    
    
    
    
    
    
    
    
    
    
    
    
    
    
    
    
    
    
    
    
    
    
    
    
    
    
    
    <path id="path89" d="m 3516.21,3206.36 43.24,15.44 -43.24,15.44 17.3,-15.44" style="fill:#000000;fill-opacity:1;fill-rule:nonzero;stroke:none" transform="matrix(0.13333333,0,0,-0.13333333,0,1122.6667)"/>
    <path id="path90" d="M 2000.4,3221.8 H 3533.51" style="fill:none;stroke:#000000;stroke-width:7.97011;stroke-linecap:butt;stroke-linejoin:miter;stroke-miterlimit:10;stroke-dasharray:none;stroke-opacity:1" transform="matrix(0.13333333,0,0,-0.13333333,0,1122.6667)"/>
    <path id="path91" d="m 2000.4,3181.95 v 79.7" style="fill:none;stroke:#000000;stroke-width:3.98506;stroke-linecap:butt;stroke-linejoin:miter;stroke-miterlimit:10;stroke-dasharray:none;stroke-opacity:1" transform="matrix(0.13333333,0,0,-0.13333333,0,1122.6667)"/>
    <path id="path92" d="m 2142.13,3181.95 v 79.7" style="fill:none;stroke:#000000;stroke-width:3.98506;stroke-linecap:butt;stroke-linejoin:miter;stroke-miterlimit:10;stroke-dasharray:none;stroke-opacity:1" transform="matrix(0.13333333,0,0,-0.13333333,0,1122.6667)"/>
    <path id="path93" d="m 2283.86,3181.95 v 79.7" style="fill:none;stroke:#000000;stroke-width:3.98506;stroke-linecap:butt;stroke-linejoin:miter;stroke-miterlimit:10;stroke-dasharray:none;stroke-opacity:1" transform="matrix(0.13333333,0,0,-0.13333333,0,1122.6667)"/>
    <path id="path94" d="m 2425.6,3181.95 v 79.7" style="fill:none;stroke:#000000;stroke-width:3.98506;stroke-linecap:butt;stroke-linejoin:miter;stroke-miterlimit:10;stroke-dasharray:none;stroke-opacity:1" transform="matrix(0.13333333,0,0,-0.13333333,0,1122.6667)"/>
    <path id="path95" d="m 2567.33,3181.95 v 79.7" style="fill:none;stroke:#000000;stroke-width:3.98506;stroke-linecap:butt;stroke-linejoin:miter;stroke-miterlimit:10;stroke-dasharray:none;stroke-opacity:1" transform="matrix(0.13333333,0,0,-0.13333333,0,1122.6667)"/>
    <path id="path96" d="m 2709.06,3181.95 v 79.7" style="fill:none;stroke:#000000;stroke-width:3.98506;stroke-linecap:butt;stroke-linejoin:miter;stroke-miterlimit:10;stroke-dasharray:none;stroke-opacity:1" transform="matrix(0.13333333,0,0,-0.13333333,0,1122.6667)"/>
    <path id="path97" d="m 2850.79,3181.95 v 79.7" style="fill:none;stroke:#000000;stroke-width:3.98506;stroke-linecap:butt;stroke-linejoin:miter;stroke-miterlimit:10;stroke-dasharray:none;stroke-opacity:1" transform="matrix(0.13333333,0,0,-0.13333333,0,1122.6667)"/>
    <path id="path98" d="m 2992.52,3181.95 v 79.7" style="fill:none;stroke:#000000;stroke-width:3.98506;stroke-linecap:butt;stroke-linejoin:miter;stroke-miterlimit:10;stroke-dasharray:none;stroke-opacity:1" transform="matrix(0.13333333,0,0,-0.13333333,0,1122.6667)"/>
    <path id="path99" d="m 3134.26,3181.95 v 79.7" style="fill:none;stroke:#000000;stroke-width:3.98506;stroke-linecap:butt;stroke-linejoin:miter;stroke-miterlimit:10;stroke-dasharray:none;stroke-opacity:1" transform="matrix(0.13333333,0,0,-0.13333333,0,1122.6667)"/>
    <path id="path100" d="m 3275.99,3181.95 v 79.7" style="fill:none;stroke:#000000;stroke-width:3.98506;stroke-linecap:butt;stroke-linejoin:miter;stroke-miterlimit:10;stroke-dasharray:none;stroke-opacity:1" transform="matrix(0.13333333,0,0,-0.13333333,0,1122.6667)"/>
    <path id="path101" d="m 3417.72,3181.95 v 79.7" style="fill:none;stroke:#000000;stroke-width:3.98506;stroke-linecap:butt;stroke-linejoin:miter;stroke-miterlimit:10;stroke-dasharray:none;stroke-opacity:1" transform="matrix(0.13333333,0,0,-0.13333333,0,1122.6667)"/>
    <path id="path102" d="m 2000.4,3181.95 v 79.7" style="fill:none;stroke:#000000;stroke-width:3.98506;stroke-linecap:butt;stroke-linejoin:miter;stroke-miterlimit:10;stroke-dasharray:none;stroke-opacity:1" transform="matrix(0.13333333,0,0,-0.13333333,0,1122.6667)"/>
    <path id="path103" d="m 2015.84,4737.62 -15.44,43.24 -15.44,-43.24 15.44,17.29" style="fill:#000000;fill-opacity:1;fill-rule:nonzero;stroke:none" transform="matrix(0.13333333,0,0,-0.13333333,0,1122.6667)"/>
    <path id="path104" d="M 2000.4,3221.8 V 4754.91" style="fill:none;stroke:#000000;stroke-width:7.97011;stroke-linecap:butt;stroke-linejoin:miter;stroke-miterlimit:10;stroke-dasharray:none;stroke-opacity:1" transform="matrix(0.13333333,0,0,-0.13333333,0,1122.6667)"/>
    <path id="path105" d="m 1960.55,3221.8 h 79.7" style="fill:none;stroke:#000000;stroke-width:3.98506;stroke-linecap:butt;stroke-linejoin:miter;stroke-miterlimit:10;stroke-dasharray:none;stroke-opacity:1" transform="matrix(0.13333333,0,0,-0.13333333,0,1122.6667)"/>
    <path id="path106" d="m 1960.55,3363.53 h 79.7" style="fill:none;stroke:#000000;stroke-width:3.98506;stroke-linecap:butt;stroke-linejoin:miter;stroke-miterlimit:10;stroke-dasharray:none;stroke-opacity:1" transform="matrix(0.13333333,0,0,-0.13333333,0,1122.6667)"/>
    <path id="path107" d="m 1960.55,3505.27 h 79.7" style="fill:none;stroke:#000000;stroke-width:3.98506;stroke-linecap:butt;stroke-linejoin:miter;stroke-miterlimit:10;stroke-dasharray:none;stroke-opacity:1" transform="matrix(0.13333333,0,0,-0.13333333,0,1122.6667)"/>
    <path id="path108" d="m 1960.55,3647 h 79.7" style="fill:none;stroke:#000000;stroke-width:3.98506;stroke-linecap:butt;stroke-linejoin:miter;stroke-miterlimit:10;stroke-dasharray:none;stroke-opacity:1" transform="matrix(0.13333333,0,0,-0.13333333,0,1122.6667)"/>
    <path id="path109" d="m 1960.55,3788.73 h 79.7" style="fill:none;stroke:#000000;stroke-width:3.98506;stroke-linecap:butt;stroke-linejoin:miter;stroke-miterlimit:10;stroke-dasharray:none;stroke-opacity:1" transform="matrix(0.13333333,0,0,-0.13333333,0,1122.6667)"/>
    <path id="path110" d="m 1960.55,3930.46 h 79.7" style="fill:none;stroke:#000000;stroke-width:3.98506;stroke-linecap:butt;stroke-linejoin:miter;stroke-miterlimit:10;stroke-dasharray:none;stroke-opacity:1" transform="matrix(0.13333333,0,0,-0.13333333,0,1122.6667)"/>
    <path id="path111" d="m 1960.55,4072.19 h 79.7" style="fill:none;stroke:#000000;stroke-width:3.98506;stroke-linecap:butt;stroke-linejoin:miter;stroke-miterlimit:10;stroke-dasharray:none;stroke-opacity:1" transform="matrix(0.13333333,0,0,-0.13333333,0,1122.6667)"/>
    <path id="path112" d="m 1960.55,4213.93 h 79.7" style="fill:none;stroke:#000000;stroke-width:3.98506;stroke-linecap:butt;stroke-linejoin:miter;stroke-miterlimit:10;stroke-dasharray:none;stroke-opacity:1" transform="matrix(0.13333333,0,0,-0.13333333,0,1122.6667)"/>
    <path id="path113" d="m 1960.55,4355.66 h 79.7" style="fill:none;stroke:#000000;stroke-width:3.98506;stroke-linecap:butt;stroke-linejoin:miter;stroke-miterlimit:10;stroke-dasharray:none;stroke-opacity:1" transform="matrix(0.13333333,0,0,-0.13333333,0,1122.6667)"/>
    <path id="path114" d="m 1960.55,4497.39 h 79.7" style="fill:none;stroke:#000000;stroke-width:3.98506;stroke-linecap:butt;stroke-linejoin:miter;stroke-miterlimit:10;stroke-dasharray:none;stroke-opacity:1" transform="matrix(0.13333333,0,0,-0.13333333,0,1122.6667)"/>
    <path id="path115" d="m 1960.55,4639.12 h 79.7" style="fill:none;stroke:#000000;stroke-width:3.98506;stroke-linecap:butt;stroke-linejoin:miter;stroke-miterlimit:10;stroke-dasharray:none;stroke-opacity:1" transform="matrix(0.13333333,0,0,-0.13333333,0,1122.6667)"/>
    <path id="path116" d="m 1960.55,3221.8 h 79.7" style="fill:none;stroke:#000000;stroke-width:3.98506;stroke-linecap:butt;stroke-linejoin:miter;stroke-miterlimit:10;stroke-dasharray:none;stroke-opacity:1" transform="matrix(0.13333333,0,0,-0.13333333,0,1122.6667)"/>
    <g id="g116" aria-label="0&#10;1&#10;2&#10;3&#10;4&#10;5&#10;6&#10;7&#10;8&#10;9&#10;10&#10;012345678910&#10;•&#10;•&#10;•&#10;•&#10;•&#10;•&#10;•" transform="matrix(1.3333333,0,0,1.3333333,247.04,698.21333)">
      <path id="path117" d="m 5.3547656,-3.8191797 c 0,-0.9960937 -0.058594,-1.96875 -0.4921875,-2.8710937 -0.4921875,-0.9960938 -1.3476562,-1.2539063 -1.9335937,-1.2539063 -0.6914063,0 -1.546875,0.3398438 -1.98046878,1.3359375 -0.33984375,0.75 -0.45703125,1.4882813 -0.45703125,2.7890625 0,1.1601563 0.0820313,2.0273438 0.51562503,2.87109376 0.4570312,0.9140625 1.2890625,1.1953125 1.9101562,1.1953125 1.0429688,0 1.640625,-0.62109375 1.9804688,-1.31249996 0.4335937,-0.890625 0.4570312,-2.0625 0.4570312,-2.7539063 z m -2.4375,3.83203126 c -0.3867187,0 -1.1601562,-0.2109375 -1.3828125,-1.52343746 -0.140625,-0.7148438 -0.140625,-1.6171875 -0.140625,-2.4609375 0,-0.9726563 0,-1.8632813 0.1992188,-2.5664063 0.1992187,-0.796875 0.8085937,-1.171875 1.3242187,-1.171875 0.4570313,0 1.1484375,0.28125 1.3710938,1.3007813 0.1523437,0.6796875 0.1523437,1.6289062 0.1523437,2.4375 0,0.8085937 0,1.7109375 -0.1289062,2.4375 C 4.0891406,-0.20980469 3.3391406,0.01285156 2.9172656,0.01285156 Z M 3.4446094,-21.945156 c 0,-0.269531 0,-0.28125 -0.2460938,-0.28125 -0.28125,0.316406 -0.8789062,0.761719 -2.109375,0.761719 v 0.351562 c 0.2695313,0 0.8671875,0 1.5234375,-0.316406 v 6.222656 c 0,0.433594 -0.035156,0.574219 -1.078125,0.574219 h -0.375 v 0.351562 c 0.3164063,-0.02344 1.4765625,-0.02344 1.875,-0.02344 0.3984375,0 1.546875,0 1.8632813,0.02344 v -0.351562 H 4.5344531 c -1.0546875,0 -1.0898437,-0.140625 -1.0898437,-0.574219 z M 5.2610156,-30.44418 H 4.9914844 c -0.035156,0.199219 -0.1289063,0.855469 -0.2460938,1.042969 -0.082031,0.117188 -0.7617187,0.117188 -1.125,0.117188 H 1.4055469 c 0.328125,-0.28125 1.0546875,-1.042969 1.3710937,-1.335938 1.8164063,-1.664062 2.484375,-2.285156 2.484375,-3.46875 0,-1.382812 -1.0898437,-2.296875 -2.4726562,-2.296875 -1.3945313,0 -2.20312503,1.183594 -2.20312503,2.203125 0,0.609375 0.52734373,0.609375 0.56250003,0.609375 0.2460937,0 0.5625,-0.175781 0.5625,-0.5625 0,-0.328125 -0.234375,-0.550781 -0.5625,-0.550781 -0.1054688,0 -0.1289063,0 -0.16406253,0.01172 0.22265623,-0.820313 0.86718753,-1.371094 1.64062503,-1.371094 1.0195312,0 1.640625,0.855469 1.640625,1.957031 0,1.007813 -0.5859375,1.898438 -1.265625,2.660156 l -2.41406253,2.707032 v 0.28125 H 4.9446094 Z M 2.2024219,-46.888516 c -0.2109375,0.01172 -0.2578125,0.02344 -0.2578125,0.128907 0,0.117187 0.058594,0.117187 0.28125,0.117187 h 0.5507812 c 1.0078125,0 1.4648438,0.84375 1.4648438,1.992188 0,1.558593 -0.8085938,1.980468 -1.3945313,1.980468 -0.5742187,0 -1.5585937,-0.28125 -1.89843748,-1.066406 0.37499998,0.05859 0.72656248,-0.152344 0.72656248,-0.585937 0,-0.339844 -0.2578125,-0.585938 -0.5859375,-0.585938 -0.29296873,0 -0.59765623,0.164063 -0.59765623,0.621094 0,1.066406 1.06640623,1.933594 2.39062503,1.933594 1.4179687,0 2.4726562,-1.078125 2.4726562,-2.285157 0,-1.101562 -0.890625,-1.96875 -2.0273437,-2.167968 1.03125,-0.304688 1.6992187,-1.171875 1.6992187,-2.109375 0,-0.9375 -0.9726562,-1.628907 -2.1328125,-1.628907 -1.1953125,0 -2.08593748,0.726563 -2.08593748,1.59375 0,0.480469 0.37499998,0.574219 0.55078128,0.574219 0.2578125,0 0.5390625,-0.175781 0.5390625,-0.539062 0,-0.375 -0.28125,-0.539063 -0.5507813,-0.539063 -0.070312,0 -0.09375,0 -0.1289062,0.01172 0.4570312,-0.820313 1.5820312,-0.820313 1.640625,-0.820313 0.3867187,0 1.171875,0.175782 1.171875,1.347657 0,0.234375 -0.035156,0.902343 -0.3867188,1.417968 -0.3515625,0.527344 -0.7617187,0.5625 -1.0898437,0.574219 z m 2.109375,-17.651367 c 0,-0.222656 0,-0.292969 -0.1640625,-0.292969 -0.09375,0 -0.1289063,0 -0.2226563,0.152344 l -3.59765623,5.578125 v 0.351563 H 3.4680469 v 1.078125 c 0,0.445312 -0.023437,0.5625 -0.9023438,0.5625 h -0.234375 v 0.351562 c 0.2695313,-0.02344 1.21875,-0.02344 1.5585938,-0.02344 0.328125,0 1.2890625,0 1.5585937,0.02344 v -0.351562 h -0.234375 c -0.8671875,0 -0.9023437,-0.117188 -0.9023437,-0.5625 v -1.078125 h 1.2070312 v -0.351563 H 4.3117969 Z m -0.7851563,0.9375 v 4.5 H 0.62039062 Z M 1.5344531,-77.764492 c 0.5039063,0.164062 0.9257813,0.175781 1.0546875,0.175781 1.359375,0 2.2148438,-0.996094 2.2148438,-1.160156 0,-0.04687 -0.023437,-0.105469 -0.09375,-0.105469 -0.023437,0 -0.046875,0 -0.1523438,0.04687 -0.6679687,0.28125 -1.2421875,0.316406 -1.5585937,0.316406 -0.7851563,0 -1.3476563,-0.234375 -1.5820313,-0.328125 -0.082031,-0.03516 -0.1054687,-0.03516 -0.1171875,-0.03516 -0.09375,0 -0.09375,0.07031 -0.09375,0.257813 v 3.550781 c 0,0.210937 0,0.292969 0.140625,0.292969 0.058594,0 0.070312,-0.01172 0.1992188,-0.164063 0.328125,-0.492187 0.890625,-0.773437 1.4882812,-0.773437 0.6328125,0 0.9492188,0.585937 1.0429688,0.785156 0.1992187,0.46875 0.2109375,1.054687 0.2109375,1.511719 0,0.457031 0,1.136718 -0.328125,1.675781 -0.2695313,0.421875 -0.7382813,0.726562 -1.2539063,0.726562 -0.796875,0 -1.5703125,-0.539062 -1.78124998,-1.40625 0.0585938,0.02344 0.12890628,0.03516 0.18749998,0.03516 0.1992188,0 0.5273438,-0.128907 0.5273438,-0.527344 0,-0.339844 -0.234375,-0.527344 -0.5273438,-0.527344 -0.21093748,0 -0.52734373,0.105469 -0.52734373,0.574219 0,1.007812 0.80859373,2.167969 2.14453123,2.167969 1.3476563,0 2.53125,-1.125 2.53125,-2.648438 0,-1.417969 -0.9609375,-2.601562 -2.2148437,-2.601562 -0.6796875,0 -1.2070313,0.292968 -1.5117188,0.632812 z m -0.070312,-11.475586 c 0,-3.023438 1.4765625,-3.503906 2.1210938,-3.503906 0.4335937,0 0.8554687,0.128906 1.0898437,0.492187 -0.140625,0 -0.5976562,0 -0.5976562,0.492188 0,0.257812 0.1757812,0.492187 0.4921875,0.492187 0.2929687,0 0.4921875,-0.1875 0.4921875,-0.527344 0,-0.621093 -0.4453125,-1.230468 -1.4882813,-1.230468 -1.5117187,0 -3.08203123,1.535156 -3.08203123,4.171875 0,3.28125 1.42968753,4.019531 2.44921873,4.019531 1.3007813,0 2.4140625,-1.125 2.4140625,-2.683594 0,-1.59375 -1.1132812,-2.660156 -2.3085937,-2.660156 -1.0664063,0 -1.453125,0.925781 -1.5820313,1.265625 z m 1.4765625,4.089844 c -0.75,0 -1.1132812,-0.667969 -1.21875,-0.925782 -0.1054687,-0.304687 -0.2226562,-0.890625 -0.2226562,-1.734375 0,-0.9375 0.421875,-2.121093 1.5,-2.121093 0.65625,0 1.0078125,0.445312 1.1835937,0.84375 0.1875,0.445312 0.1875,1.042968 0.1875,1.558593 0,0.609375 0,1.148438 -0.2226562,1.605469 -0.3046875,0.574219 -0.7265625,0.773438 -1.2070313,0.773438 z m 2.7421875,-21.506836 v -0.28125 h -2.882813 c -1.453125,0 -1.4765625,-0.15234 -1.5234375,-0.38672 H 1.0188281 l -0.37499998,2.39063 h 0.26953125 c 0.0351563,-0.21094 0.14062503,-0.94922 0.29296873,-1.07813 0.09375,-0.0703 0.9960938,-0.0703 1.1601563,-0.0703 h 2.53125 l -1.265625,1.8164 c -0.3164063,0.45704 -1.5234375,2.42579 -1.5234375,4.664067 0,0.140625 0,0.609375 0.4804687,0.609375 0.5039063,0 0.5039063,-0.457031 0.5039063,-0.621094 v -0.597658 c 0,-1.78125 0.2929687,-3.16406 0.8554687,-3.96094 z m -2.1210937,-11.05664 c 0.5976562,-0.32813 1.4648437,-0.87891 1.4648437,-1.875 0,-1.04297 -0.9960937,-1.75781 -2.0976562,-1.75781 -1.1835938,0 -2.12109378,0.86718 -2.12109378,1.95703 0,0.41015 0.12890625,0.80859 0.45703128,1.21875 0.1289062,0.15234 0.140625,0.16406 0.984375,0.75 -1.1601563,0.53906 -1.75781253,1.34765 -1.75781253,2.21484 0,1.26563 1.20703123,2.05078 2.42578123,2.05078 1.3242188,0 2.4375,-0.97265 2.4375,-2.22656 0,-1.21875 -0.8554687,-1.75781 -1.7929687,-2.33203 z m -1.6289063,-1.07813 c -0.1523437,-0.10546 -0.6328125,-0.42187 -0.6328125,-1.00781 0,-0.77344 0.8203125,-1.26562 1.6171875,-1.26562 0.8554688,0 1.6289063,0.62109 1.6289063,1.48828 0,0.72656 -0.5273438,1.3125 -1.21875,1.6875 z m 0.5625,1.54688 c 0.328125,0.21094 1.125,0.72656 1.453125,0.9375 0.3046875,0.19922 0.8554688,0.57422 0.8554688,1.30078 0,0.91406 -0.9140625,1.53516 -1.875,1.53516 -1.0195313,0 -1.8867188,-0.73828 -1.8867188,-1.73438 0,-0.9375 0.6796875,-1.6875 1.453125,-2.03906 z m 1.875,-13.7959 c 0,2.82422 -1.2539062,3.41016 -1.96875,3.41016 -0.28125,0 -0.9257812,-0.0352 -1.21875,-0.45703 h 0.070312 c 0.082031,0.0234 0.515625,-0.0469 0.515625,-0.49219 0,-0.25781 -0.1757812,-0.49219 -0.4921875,-0.49219 -0.30468748,0 -0.50390623,0.21094 -0.50390623,0.51563 0,0.75 0.59765623,1.24218 1.64062503,1.24218 1.5,0 2.9414062,-1.58203 2.9414062,-4.18359 0,-3.21094 -1.3359375,-4.00781 -2.390625,-4.00781 -1.3125,0 -2.47265623,1.10156 -2.47265623,2.67187 0,1.58203 1.11328123,2.66016 2.30859373,2.66016 0.8789063,0 1.3359375,-0.64453 1.5703125,-1.25391 z m -1.5234375,0.62109 c -0.75,0 -1.078125,-0.60937 -1.1835937,-0.83203 -0.1992188,-0.45703 -0.1992188,-1.03125 -0.1992188,-1.57031 0,-0.66797 0,-1.24219 0.3164063,-1.73437 0.2109375,-0.31641 0.5390625,-0.66797 1.1835937,-0.66797 0.6796875,0 1.03125,0.59765 1.1484375,0.8789 0.234375,0.58594 0.234375,1.59375 0.234375,1.78125 0,0.9961 -0.4453125,2.14453 -1.5,2.14453 z m -5.2822265,-18.96386 c 0,-0.26953 0,-0.28125 -0.2460938,-0.28125 -0.28125,0.3164 -0.8789062,0.76172 -2.109375,0.76172 v 0.35156 c 0.2695313,0 0.8671875,0 1.5234375,-0.31641 v 6.22266 c 0,0.43359 -0.035156,0.57422 -1.078125,0.57422 h -0.375 v 0.35156 c 0.3164063,-0.0234 1.4765625,-0.0234 1.875,-0.0234 0.3984375,0 1.546875,0 1.86328126,0.0234 v -0.35156 H -1.3454297 c -1.0546875,0 -1.0898437,-0.14063 -1.0898437,-0.57422 z m 7.7958984,3.84375 c 0,-0.9961 -0.058594,-1.96875 -0.4921875,-2.8711 -0.4921875,-0.99609 -1.3476563,-1.2539 -1.9335938,-1.2539 -0.6914062,0 -1.546875,0.33984 -1.9804687,1.33593 -0.33984375,0.75 -0.45703125,1.48829 -0.45703125,2.78907 0,1.16015 0.0820313,2.02734 0.51562495,2.87109 0.4570313,0.91406 1.2890625,1.19531 1.9101563,1.19531 1.0429687,0 1.640625,-0.62109 1.9804687,-1.3125 0.4335938,-0.89062 0.4570313,-2.0625 0.4570313,-2.7539 z m -2.4375,3.83203 c -0.3867188,0 -1.1601563,-0.21094 -1.3828125,-1.52344 -0.140625,-0.71484 -0.140625,-1.61719 -0.140625,-2.46094 0,-0.97265 0,-1.86328 0.1992187,-2.5664 0.1992188,-0.79688 0.8085938,-1.17188 1.3242188,-1.17188 0.4570312,0 1.1484375,0.28125 1.3710937,1.30078 0.1523438,0.67969 0.1523438,1.62891 0.1523438,2.4375 0,0.8086 0,1.71094 -0.1289063,2.4375 C 4.095,-141.93051 3.345,-141.70785 2.9231255,-141.70785 Z M 17.234648,8.8985938 c 0,-0.9960938 -0.05859,-1.96875 -0.492187,-2.8710938 -0.492188,-0.9960937 -1.347656,-1.2539062 -1.933594,-1.2539062 -0.691406,0 -1.546875,0.3398437 -1.980469,1.3359375 -0.339843,0.75 -0.457031,1.4882812 -0.457031,2.7890625 0,1.1601562 0.08203,2.0273442 0.515625,2.8710942 0.457031,0.914062 1.289063,1.195312 1.910156,1.195312 1.042969,0 1.640625,-0.621094 1.980469,-1.3125 0.433594,-0.890625 0.457031,-2.0625 0.457031,-2.7539062 z m -2.4375,3.8320312 c -0.386718,0 -1.160156,-0.210937 -1.382812,-1.523437 C 13.273711,10.492344 13.273711,9.59 13.273711,8.74625 c 0,-0.9726562 0,-1.8632812 0.199219,-2.5664062 0.199218,-0.796875 0.808593,-1.171875 1.324218,-1.171875 0.457032,0 1.148438,0.28125 1.371094,1.3007812 0.152344,0.6796875 0.152344,1.6289063 0.152344,2.4375 0,0.8085938 0,1.710938 -0.128906,2.4375 -0.222657,1.324219 -0.972657,1.546875 -1.394532,1.546875 z M 29.489531,5.0548438 c 0,-0.2695313 0,-0.28125 -0.246094,-0.28125 C 28.962187,5.09 28.364531,5.5353125 27.134062,5.5353125 V 5.886875 c 0.269532,0 0.867188,0 1.523438,-0.3164062 v 6.2226562 c 0,0.433594 -0.03516,0.574219 -1.078125,0.574219 h -0.375 v 0.351562 c 0.316406,-0.02344 1.476562,-0.02344 1.875,-0.02344 0.398437,0 1.546875,0 1.863281,0.02344 v -0.351562 h -0.363281 c -1.054688,0 -1.089844,-0.140625 -1.089844,-0.574219 z M 45.470977,10.715 h -0.269532 c -0.03516,0.199219 -0.128906,0.855469 -0.246093,1.042969 -0.08203,0.117187 -0.761719,0.117187 -1.125,0.117187 h -2.214844 c 0.328125,-0.28125 1.054687,-1.042968 1.371094,-1.335937 1.816406,-1.6640627 2.484375,-2.2851565 2.484375,-3.4687502 0,-1.3828125 -1.089844,-2.296875 -2.472657,-2.296875 -1.394531,0 -2.203125,1.1835937 -2.203125,2.203125 0,0.609375 0.527344,0.609375 0.5625,0.609375 0.246094,0 0.5625,-0.1757813 0.5625,-0.5625 0,-0.328125 -0.234375,-0.5507813 -0.5625,-0.5507813 -0.105468,0 -0.128906,0 -0.164062,0.011719 0.222656,-0.8203125 0.867187,-1.3710938 1.640625,-1.3710938 1.019531,0 1.640625,0.8554688 1.640625,1.9570313 0,1.0078125 -0.585938,1.8984375 -1.265625,2.6601562 l -2.414063,2.7070308 v 0.28125 H 45.15457 Z M 56.580352,8.4298438 c -0.210938,0.011719 -0.257813,0.023437 -0.257813,0.1289062 0,0.1171875 0.05859,0.1171875 0.28125,0.1171875 h 0.550781 c 1.007813,0 1.464844,0.84375 1.464844,1.9921875 0,1.558594 -0.808594,1.980469 -1.394531,1.980469 -0.574219,0 -1.558594,-0.28125 -1.898438,-1.066406 0.375,0.05859 0.726563,-0.152344 0.726563,-0.585938 0,-0.339844 -0.257813,-0.585937 -0.585938,-0.585937 -0.292968,0 -0.597656,0.164062 -0.597656,0.621093 0,1.066407 1.066406,1.933594 2.390625,1.933594 1.417969,0 2.472656,-1.078125 2.472656,-2.285156 0,-1.1015627 -0.890625,-1.9687502 -2.027343,-2.167969 C 58.736602,8.2071875 59.40457,7.34 59.40457,6.4025 c 0,-0.9375 -0.972656,-1.6289062 -2.132812,-1.6289062 -1.195313,0 -2.085938,0.7265625 -2.085938,1.59375 0,0.4804687 0.375,0.5742187 0.550782,0.5742187 0.257812,0 0.539062,-0.1757812 0.539062,-0.5390625 0,-0.375 -0.28125,-0.5390625 -0.550781,-0.5390625 -0.07031,0 -0.09375,0 -0.128906,0.011719 0.457031,-0.8203125 1.582031,-0.8203125 1.640625,-0.8203125 0.386718,0 1.171875,0.1757812 1.171875,1.3476562 0,0.234375 -0.03516,0.9023438 -0.386719,1.4179688 -0.351563,0.5273437 -0.761719,0.5625 -1.089844,0.5742187 z M 72.854766,4.9376563 c 0,-0.2226563 0,-0.2929688 -0.164063,-0.2929688 -0.09375,0 -0.128906,0 -0.222656,0.1523438 l -3.597656,5.5781247 v 0.351563 h 3.140625 v 1.078125 c 0,0.445312 -0.02344,0.5625 -0.902344,0.5625 h -0.234375 v 0.351562 c 0.269531,-0.02344 1.21875,-0.02344 1.558594,-0.02344 0.328125,0 1.289062,0 1.558593,0.02344 v -0.351562 h -0.234375 c -0.867187,0 -0.902343,-0.117188 -0.902343,-0.5625 v -1.078125 h 1.207031 v -0.351563 h -1.207031 z m -0.785157,0.9375 v 4.4999997 h -2.90625 z m 12.292969,0 c 0.503906,0.1640625 0.925781,0.1757812 1.054688,0.1757812 1.359375,0 2.214843,-0.9960937 2.214843,-1.1601562 0,-0.046875 -0.02344,-0.1054688 -0.09375,-0.1054688 -0.02344,0 -0.04687,0 -0.152343,0.046875 -0.667969,0.28125 -1.242188,0.3164063 -1.558594,0.3164063 -0.785156,0 -1.347656,-0.234375 -1.582031,-0.328125 -0.08203,-0.035156 -0.105469,-0.035156 -0.117188,-0.035156 -0.09375,0 -0.09375,0.070312 -0.09375,0.2578125 v 3.5507813 c 0,0.2109375 0,0.2929687 0.140625,0.2929687 0.05859,0 0.07031,-0.011719 0.199219,-0.1640625 0.328125,-0.4921875 0.890625,-0.7734375 1.488281,-0.7734375 0.632813,0 0.949219,0.5859375 1.042969,0.7851563 0.199219,0.46875 0.210937,1.0546875 0.210937,1.5117184 0,0.457031 0,1.136719 -0.328125,1.675781 -0.269531,0.421875 -0.738281,0.726563 -1.253906,0.726563 -0.796875,0 -1.570312,-0.539063 -1.78125,-1.40625 0.05859,0.02344 0.128906,0.03516 0.1875,0.03516 0.199219,0 0.527344,-0.128906 0.527344,-0.527344 0,-0.339843 -0.234375,-0.527343 -0.527344,-0.527343 -0.210937,0 -0.527344,0.105468 -0.527344,0.574218 0,1.007813 0.808594,2.167969 2.144532,2.167969 1.347656,0 2.53125,-1.125 2.53125,-2.648437 0,-1.4179689 -0.960938,-2.6015627 -2.214844,-2.6015627 -0.679688,0 -1.207031,0.2929688 -1.511719,0.6328125 z M 98.457305,8.55875 c 0,-3.0234375 1.476562,-3.5039062 2.121095,-3.5039062 0.43359,0 0.85547,0.1289062 1.08984,0.4921875 -0.14062,0 -0.59765,0 -0.59765,0.4921875 0,0.2578125 0.17578,0.4921875 0.49218,0.4921875 0.29297,0 0.49219,-0.1875 0.49219,-0.5273438 0,-0.6210937 -0.44531,-1.2304687 -1.48828,-1.2304687 -1.511719,0 -3.082032,1.5351562 -3.082032,4.171875 0,3.2812502 1.429688,4.0195312 2.449219,4.0195312 1.300783,0 2.414063,-1.125 2.414063,-2.683594 0,-1.5937497 -1.11328,-2.660156 -2.30859,-2.660156 -1.06641,0 -1.453129,0.9257813 -1.582035,1.265625 z m 1.476562,4.089844 c -0.75,0 -1.113281,-0.667969 -1.21875,-0.925781 -0.105469,-0.304688 -0.222656,-0.890625 -0.222656,-1.7343755 0,-0.9375 0.421875,-2.1210937 1.5,-2.1210937 0.656249,0 1.007809,0.4453125 1.183589,0.84375 0.1875,0.4453125 0.1875,1.0429687 0.1875,1.5585942 0,0.609375 0,1.148437 -0.22265,1.605468 -0.30469,0.574219 -0.72656,0.773438 -1.207033,0.773438 z M 116.84109,5.3009375 v -0.28125 h -2.88281 c -1.45312,0 -1.47656,-0.1523437 -1.52344,-0.3867187 h -0.25781 l -0.375,2.390625 h 0.26953 c 0.0352,-0.2109375 0.14063,-0.9492188 0.29297,-1.078125 0.0937,-0.070312 0.9961,-0.070312 1.16016,-0.070312 h 2.53125 l -1.26563,1.8164062 c -0.3164,0.4570313 -1.52343,2.425782 -1.52343,4.664062 0,0.140625 0,0.609375 0.48046,0.609375 0.50391,0 0.50391,-0.457031 0.50391,-0.621094 V 11.74625 c 0,-1.78125 0.29297,-3.1640625 0.85547,-3.9609375 z m 12.04395,3.1054688 c 0.59766,-0.328125 1.46484,-0.8789063 1.46484,-1.875 0,-1.0429688 -0.99609,-1.7578125 -2.09765,-1.7578125 -1.1836,0 -2.1211,0.8671875 -2.1211,1.9570312 0,0.4101563 0.12891,0.8085938 0.45703,1.21875 0.12891,0.1523438 0.14063,0.1640625 0.98438,0.75 -1.16016,0.5390625 -1.75781,1.347656 -1.75781,2.214844 0,1.265625 1.20703,2.050781 2.42578,2.050781 1.32422,0 2.4375,-0.972656 2.4375,-2.226562 0,-1.2187505 -0.85547,-1.757813 -1.79297,-2.3320317 z m -1.62891,-1.078125 c -0.15234,-0.1054688 -0.63281,-0.421875 -0.63281,-1.0078125 0,-0.7734375 0.82031,-1.265625 1.61719,-1.265625 0.85547,0 1.6289,0.6210937 1.6289,1.4882812 0,0.7265625 -0.52734,1.3125 -1.21875,1.6875 z m 0.5625,1.546875 c 0.32813,0.2109375 1.125,0.7265625 1.45313,0.9375 0.30469,0.1992187 0.85547,0.5742187 0.85547,1.3007817 0,0.914062 -0.91407,1.535156 -1.875,1.535156 -1.01953,0 -1.88672,-0.738281 -1.88672,-1.734375 0,-0.9375002 0.67969,-1.6875002 1.45312,-2.0390627 z m 16.04004,0.3632812 c 0,2.8242185 -1.2539,3.4101565 -1.96875,3.4101565 -0.28125,0 -0.92578,-0.03516 -1.21875,-0.457031 h 0.0703 c 0.082,0.02344 0.51563,-0.04687 0.51563,-0.492188 0,-0.257812 -0.17578,-0.492187 -0.49219,-0.492187 -0.30469,0 -0.5039,0.210937 -0.5039,0.515625 0,0.75 0.59765,1.242187 1.64062,1.242187 1.5,0 2.94141,-1.582031 2.94141,-4.1835937 0,-3.2109375 -1.33594,-4.0078125 -2.39063,-4.0078125 -1.3125,0 -2.47265,1.1015625 -2.47265,2.671875 0,1.5820312 1.11328,2.6601562 2.30859,2.6601562 0.87891,0 1.33594,-0.6445312 1.57031,-1.2539062 z m -1.52344,0.6210938 c -0.75,0 -1.07812,-0.609375 -1.18359,-0.8320313 -0.19922,-0.4570312 -0.19922,-1.03125 -0.19922,-1.5703125 0,-0.6679687 0,-1.2421875 0.31641,-1.734375 0.21094,-0.3164062 0.53906,-0.6679687 1.18359,-0.6679687 0.67969,0 1.03125,0.5976562 1.14844,0.8789062 0.23437,0.5859375 0.23437,1.59375 0.23437,1.78125 0,0.9960938 -0.44531,2.1445313 -1.5,2.1445313 z m 11.88282,-4.8046875 c 0,-0.2695313 0,-0.28125 -0.2461,-0.28125 C 153.6907,5.09 153.09305,5.5353125 151.86258,5.5353125 V 5.886875 c 0.26953,0 0.86719,0 1.52344,-0.3164062 v 6.2226562 c 0,0.433594 -0.0352,0.574219 -1.07813,0.574219 h -0.375 v 0.351562 c 0.31641,-0.02344 1.47656,-0.02344 1.875,-0.02344 0.39844,0 1.54688,0 1.86328,0.02344 v -0.351562 h -0.36328 c -1.05469,0 -1.08984,-0.140625 -1.08984,-0.574219 z m 7.7959,3.84375 c 0,-0.9960938 -0.0586,-1.96875 -0.49219,-2.8710938 -0.49219,-0.9960937 -1.34766,-1.2539062 -1.9336,-1.2539062 -0.6914,0 -1.54687,0.3398437 -1.98046,1.3359375 -0.33985,0.75 -0.45704,1.4882812 -0.45704,2.7890625 0,1.1601562 0.082,2.0273442 0.51563,2.8710942 0.45703,0.914062 1.28906,1.195312 1.91016,1.195312 1.04296,0 1.64062,-0.621094 1.98046,-1.3125 0.4336,-0.890625 0.45704,-2.0625 0.45704,-2.7539062 z m -2.4375,3.8320312 c -0.38672,0 -1.16016,-0.210937 -1.38282,-1.523437 -0.14062,-0.714844 -0.14062,-1.617188 -0.14062,-2.460938 0,-0.9726562 0,-1.8632812 0.19922,-2.5664062 0.19922,-0.796875 0.80859,-1.171875 1.32422,-1.171875 0.45703,0 1.14843,0.28125 1.37109,1.3007812 0.15234,0.6796875 0.15234,1.6289063 0.15234,2.4375 0,0.8085938 0,1.710938 -0.1289,2.4375 -0.22266,1.324219 -0.97266,1.546875 -1.39453,1.546875 z m 0,0" style="fill:#000000;fill-opacity:1;fill-rule:nonzero;stroke:none"/>
      <path id="path118" d="m 17.055937,-4.1883203 c 0,-1.2773438 -1.054687,-2.3203125 -2.308593,-2.3203125 -1.300782,0 -2.320313,1.0664062 -2.320313,2.3203125 0,1.2773437 1.054688,2.3203125 2.308594,2.3203125 1.300781,0 2.320312,-1.0664063 2.320312,-2.3203125 z M 45.403594,-32.535977 c 0,-1.277343 -1.054688,-2.320312 -2.308594,-2.320312 -1.300781,0 -2.320313,1.066406 -2.320313,2.320312 0,1.277344 1.054688,2.320313 2.308594,2.320313 1.300781,0 2.320313,-1.066406 2.320313,-2.320313 z M 158.78836,-145.92074 c 0,-1.27735 -1.05469,-2.32031 -2.30859,-2.32031 -1.30079,0 -2.32032,1.0664 -2.32032,2.32031 0,1.27734 1.05469,2.32031 2.3086,2.32031 1.30078,0 2.32031,-1.06641 2.32031,-2.32031 z m -113.384766,14.17383 c 0,-1.27735 -1.054688,-2.32032 -2.308594,-2.32032 -1.300781,0 -2.320313,1.06641 -2.320313,2.32032 0,1.27734 1.054688,2.32031 2.308594,2.32031 1.300781,0 2.320313,-1.06641 2.320313,-2.32031 z M 73.74832,-18.362148 c 0,-1.277344 -1.054687,-2.320313 -2.308593,-2.320313 -1.300782,0 -2.320313,1.066406 -2.320313,2.320313 0,1.277343 1.054688,2.320312 2.308594,2.320312 1.300781,0 2.320312,-1.066406 2.320312,-2.320312 z m 0,-127.558592 c 0,-1.27735 -1.054687,-2.32031 -2.308593,-2.32031 -1.300782,0 -2.320313,1.0664 -2.320313,2.32031 0,1.27734 1.054688,2.32031 2.308594,2.32031 1.300781,0 2.320312,-1.06641 2.320312,-2.32031 z m 14.173828,85.040037 c 0,-1.277344 -1.054687,-2.320313 -2.308593,-2.320313 -1.300782,0 -2.320313,1.066407 -2.320313,2.320313 0,1.277344 1.054688,2.320312 2.308594,2.320312 1.300781,0 2.320312,-1.066406 2.320312,-2.320312 z m 0,0" style="fill:#000000;fill-opacity:1;fill-rule:nonzero;stroke:none"/>
    </g>
    <path id="path119" d="m 5.2961484,-2.9891875 c 0,-1.2773437 -1.0546875,-2.3203125 -2.3085937,-2.3203125 -1.3007813,0 -2.32031251,1.0664063 -2.32031251,2.3203125 0,1.2773438 1.05468751,2.3203125 2.30859371,2.3203125 1.3007813,0 2.3203125,-1.0664062 2.3203125,-2.3203125 z m 0,0" style="fill:#0000ff;fill-opacity:1;fill-rule:nonzero;stroke:none" aria-label="•" transform="matrix(1.3333333,0,0,1.3333333,357.208,564.32933)"/>
    <path id="path120" d="m 5.2976328,-2.9891484 c 0,-1.2773438 -1.0546875,-2.3203125 -2.3085937,-2.3203125 -1.3007813,0 -2.32031254,1.0664062 -2.32031254,2.3203125 0,1.2773437 1.05468754,2.32031246 2.30859374,2.32031246 1.3007813,0 2.3203125,-1.06640626 2.3203125,-2.32031246 z m 0,0" style="fill:#000000;fill-opacity:1;fill-rule:nonzero;stroke:none" aria-label="•" transform="matrix(1.3333333,0,0,1.3333333,413.90133,677.716)"/>
    <path id="path121" d="m 5.2976328,-2.9887422 c 0,-1.2773437 -1.0546875,-2.3203125 -2.3085937,-2.3203125 -1.3007813,0 -2.32031254,1.0664063 -2.32031254,2.3203125 0,1.2773438 1.05468754,2.32031251 2.30859374,2.32031251 1.3007813,0 2.3203125,-1.06640621 2.3203125,-2.32031251 z m 0,0" style="fill:#0000ff;fill-opacity:1;fill-rule:nonzero;stroke:none" aria-label="•" transform="matrix(1.3333333,0,0,1.3333333,413.90133,507.63733)"/>
    <path id="path122" d="m 5.2963594,-2.9891484 c 0,-1.2773438 -1.0546875,-2.3203125 -2.3085938,-2.3203125 -1.3007812,0 -2.32031247,1.0664062 -2.32031247,2.3203125 0,1.2773437 1.05468747,2.32031246 2.30859377,2.32031246 1.3007812,0 2.3203125,-1.06640626 2.3203125,-2.32031246 z m 0,0" style="fill:#000000;fill-opacity:1;fill-rule:nonzero;stroke:none" aria-label="•" transform="matrix(1.3333333,0,0,1.3333333,451.696,677.716)"/>
    <path id="path123" d="m 2000.4,3505.27 c 0,0 17.05,17.04 26.03,26.03 8.98,8.98 17.05,17.05 26.03,26.03 8.99,8.98 17.06,17.05 26.04,26.03 8.98,8.98 17.05,17.05 26.03,26.03 8.98,8.99 17.05,17.05 26.03,26.04 8.99,8.98 17.05,17.05 26.03,26.03 8.99,8.98 17.05,17.05 26.04,26.03 8.98,8.99 17.05,17.05 26.03,26.03 8.98,8.99 17.05,17.05 26.03,26.03 8.99,8.99 17.05,17.06 26.03,26.04 8.99,8.98 17.05,17.05 26.04,26.03 8.98,8.99 17.04,17.05 26.03,26.03 8.98,8.99 17.05,17.05 26.03,26.04 8.98,8.98 17.05,17.04 26.04,26.03 8.98,8.98 17.04,17.05 26.03,26.03 8.98,8.98 17.04,17.05 26.03,26.04 8.98,8.98 17.05,17.04 26.03,26.03 8.98,8.98 17.05,17.04 26.03,26.03 8.99,8.98 17.05,17.05 26.04,26.03 8.98,8.98 17.05,17.05 26.03,26.03 8.98,8.98 17.05,17.05 26.03,26.04 8.98,8.98 17.05,17.05 26.03,26.03 8.99,8.98 17.05,17.05 26.03,26.03 8.99,8.98 17.06,17.05 26.04,26.03 8.98,8.99 17.05,17.05 26.03,26.03 8.99,8.99 17.05,17.05 26.03,26.04 8.99,8.98 17.05,17.05 26.03,26.03 8.99,8.98 17.05,17.05 26.04,26.03 8.98,8.99 17.05,17.05 26.03,26.03 8.98,8.99 17.05,17.05 26.03,26.04 8.99,8.98 17.05,17.05 26.04,26.03 8.98,8.98 17.04,17.05 26.03,26.03 8.98,8.99 17.05,17.05 26.03,26.04 8.98,8.98 17.05,17.04 26.03,26.03 8.98,8.98 17.05,17.04 26.04,26.03 8.98,8.98 17.04,17.05 26.03,26.03 8.98,8.98 17.05,17.05 26.03,26.03 8.98,8.99 17.05,17.05 26.03,26.04 8.99,8.98 17.05,17.05 26.03,26.03 8.99,8.98 17.05,17.05 26.04,26.03 8.98,8.99 17.05,17.05 26.03,26.03 8.98,8.99 17.05,17.05 26.03,26.03 8.99,8.99 17.05,17.06 26.03,26.04 8.99,8.98 17.05,17.05 26.04,26.03 8.98,8.99 17.05,17.05 26.03,26.03 8.98,8.99 17.05,17.05 26.03,26.04 8.99,8.98 17.05,17.04 26.04,26.03 8.98,8.98 17.04,17.05 26.03,26.03 8.98,8.98 26.03,26.04 26.03,26.04" style="fill:none;stroke:#000000;stroke-width:7.97011;stroke-linecap:butt;stroke-linejoin:miter;stroke-miterlimit:10;stroke-dasharray:none;stroke-opacity:1" transform="matrix(0.13333333,0,0,-0.13333333,0,1122.6667)"/>
    <path id="path124" d="m 3275.99,3221.8 c 0,0 3.79,3.79 5.78,5.79 2,1.99 3.79,3.79 5.79,5.78 1.99,2 3.79,3.79 5.78,5.79 2,1.99 3.79,3.79 5.79,5.78 1.99,2 3.79,3.79 5.78,5.79 2,1.99 3.79,3.79 5.79,5.78 2,2 3.79,3.79 5.78,5.79 2,1.99 3.79,3.78 5.79,5.78 2,2 3.79,3.79 5.78,5.79 2,1.99 3.79,3.78 5.79,5.78 2,2 3.79,3.79 5.78,5.78 2,2 3.79,3.79 5.79,5.79 2,1.99 3.79,3.79 5.79,5.78 1.99,2 3.78,3.79 5.78,5.79 2,2 3.79,3.79 5.78,5.78 2,2 3.79,3.79 5.79,5.79 1.99,2 3.79,3.79 5.78,5.78 2,2 3.79,3.79 5.79,5.79 1.99,2 3.79,3.79 5.78,5.78 2,2 3.79,3.79 5.79,5.79 1.99,2 3.79,3.79 5.78,5.79 2,1.99 3.79,3.78 5.79,5.78 1.99,2 3.79,3.79 5.78,5.79 2,1.99 3.79,3.78 5.79,5.78 1.99,2 3.79,3.79 5.78,5.79 2,1.99 3.79,3.78 5.79,5.78 1.99,2 3.79,3.79 5.78,5.79 2,1.99 3.79,3.79 5.79,5.78 1.99,2 3.79,3.79 5.78,5.79 2,1.99 3.79,3.79 5.79,5.78 2,2 3.79,3.79 5.78,5.79 2,1.99 3.79,3.78 5.79,5.78 2,2 3.79,3.79 5.78,5.78 2,2 3.79,3.79 5.79,5.79 2,1.99 3.79,3.79 5.78,5.78 2,2 3.79,3.79 5.79,5.79 2,1.99 3.79,3.79 5.78,5.78 2,2 3.79,3.79 5.79,5.79 1.99,1.99 3.79,3.79 5.78,5.78 2,2 3.79,3.79 5.79,5.79 1.99,2 3.79,3.79 5.78,5.78 2,2 3.79,3.79 5.79,5.79 1.99,2 3.79,3.79 5.78,5.78 2,2 3.79,3.79 5.79,5.79 1.99,2 3.79,3.79 5.78,5.78 2,2 3.79,3.79 5.79,5.79 1.99,2 3.79,3.79 5.78,5.79 2,1.99 3.79,3.78 5.79,5.78 1.99,2 5.78,5.79 5.78,5.79" style="fill:none;stroke:#000000;stroke-width:7.97011;stroke-linecap:butt;stroke-linejoin:miter;stroke-miterlimit:10;stroke-dasharray:none;stroke-opacity:1" transform="matrix(0.13333333,0,0,-0.13333333,0,1122.6667)"/>
    <path id="path125" d="M 3417.72,3221.8 V 4780.86" style="fill:none;stroke:#000000;stroke-width:7.97011;stroke-linecap:butt;stroke-linejoin:miter;stroke-miterlimit:10;stroke-dasharray:50.2921, 50.2921;stroke-dashoffset:0;stroke-opacity:1" transform="matrix(0.13333333,0,0,-0.13333333,0,1122.6667)"/>
    
    
    
    
    
    
    
    
    
  </g>
</svg>