<svg version="1.1" id="svg1" width="282.0018430835286" height="281.0026156270007" viewBox="89.00058168239023 647.506027112039 282.0018430835286 281.0026156270007" sodipodi:docname="2_1.pdf" xmlns:inkscape="http://www.inkscape.org/namespaces/inkscape" xmlns:sodipodi="http://sodipodi.sourceforge.net/DTD/sodipodi-0.dtd" xmlns="http://www.w3.org/2000/svg" xmlns:svg="http://www.w3.org/2000/svg" style="">
  <defs id="defs1"/>
  <sodipodi:namedview id="namedview1" pagecolor="#ffffff" bordercolor="#000000" borderopacity="0.25" inkscape:showpageshadow="2" inkscape:pageopacity="0.0" inkscape:pagecheckerboard="0" inkscape:deskcolor="#d1d1d1">
    <inkscape:page x="0" y="0" inkscape:label="1" id="page1" width="793.33331" height="1122.6667" margin="0" bleed="0"/>
  </sodipodi:namedview>
  <g id="g1" inkscape:groupmode="layer" inkscape:label="1">
    
    
    
    <path id="path116" d="m 2136.85,2503 c 0,0 3.55,-53.55 8.1,-81.4 2.02,-12.38 4.98,-23.3 8.1,-35.45 2.53,-9.86 5.12,-18.64 8.09,-28.38 2.65,-8.64 5.2,-16.35 8.11,-24.91 2.68,-7.9 5.22,-14.96 8.09,-22.8 2.72,-7.42 5.25,-14.04 8.1,-21.4 2.74,-7.06 5.26,-13.37 8.1,-20.39 2.75,-6.79 5.27,-12.88 8.1,-19.64 2.76,-6.59 5.28,-12.5 8.1,-19.07 2.77,-6.44 5.28,-12.2 8.1,-18.61 2.77,-6.32 5.28,-11.98 8.1,-18.27 2.77,-6.22 5.29,-11.79 8.1,-17.99 2.78,-6.13 5.29,-11.63 8.1,-17.76 2.78,-6.07 5.29,-11.51 8.09,-17.57 2.79,-6.02 5.3,-11.42 8.1,-17.43 2.79,-5.98 5.3,-11.34 8.1,-17.31 2.79,-5.94 5.3,-11.28 8.1,-17.22 2.79,-5.92 5.3,-11.23 8.1,-17.15 2.79,-5.89 5.3,-11.19 8.1,-17.09 2.79,-5.88 5.3,-11.16 8.1,-17.05 2.79,-5.87 5.3,-11.15 8.1,-17.02 2.79,-5.86 5.3,-11.13 8.1,-17 2.79,-5.87 5.3,-11.13 8.09,-17 2.8,-5.86 5.31,-11.13 8.1,-17 2.8,-5.86 5.31,-11.13 8.1,-17 2.8,-5.87 5.31,-11.14 8.1,-17.02 2.8,-5.88 5.31,-11.16 8.1,-17.04 2.8,-5.89 5.31,-11.17 8.1,-17.06 2.79,-5.9 5.31,-11.19 8.1,-17.09 2.8,-5.91 5.3,-11.22 8.1,-17.13 2.79,-5.92 5.3,-11.24 8.1,-17.16 2.79,-5.94 5.3,-11.27 8.1,-17.2 2.79,-5.95 5.3,-11.3 8.09,-17.25 2.8,-5.96 5.31,-11.32 8.1,-17.29 2.8,-5.98 5.31,-11.35 8.1,-17.33 2.8,-6 5.31,-11.39 8.1,-17.39 2.8,-6.02 5.31,-11.42 8.1,-17.44 2.8,-6.03 5.31,-11.46 8.1,-17.49 2.8,-6.06 5.31,-11.49 8.1,-17.55 2.8,-6.07 5.31,-11.53 8.09,-17.6 2.81,-6.09 5.31,-11.57 8.11,-17.66 2.79,-6.11 5.3,-11.6 8.09,-17.72 2.8,-6.13 5.31,-11.64 8.1,-17.78 2.8,-6.15 5.31,-11.68 8.1,-17.84 2.8,-6.17 5.31,-11.72 8.1,-17.9 2.8,-6.19 5.31,-11.76 8.1,-17.96 2.8,-6.22 5.31,-11.8 8.1,-18.02 2.8,-6.24 5.31,-11.85 8.1,-18.09 2.8,-6.26 8.1,-18.15 8.1,-18.15" style="fill:none;stroke:#000000;stroke-width:7.97011;stroke-linecap:butt;stroke-linejoin:miter;stroke-miterlimit:10;stroke-dasharray:none;stroke-opacity:1" transform="matrix(0.13333333,0,0,-0.13333333,0,1122.6667)"/>
    <path id="path117" d="m 1343.15,2503 c 0,0 3.23,-52 8.1,-78.95 1.96,-10.86 4.83,-20.41 8.1,-30.96 2.45,-7.9 5,-14.89 8.1,-22.56 2.55,-6.33 5.08,-11.91 8.1,-18.03 2.6,-5.27 5.12,-9.92 8.09,-14.99 2.65,-4.5 5.16,-8.46 8.11,-12.76 2.66,-3.89 5.17,-7.3 8.09,-10.99 2.68,-3.39 5.2,-6.35 8.1,-9.55 2.7,-2.96 5.21,-5.54 8.1,-8.31 2.71,-2.59 5.22,-4.84 8.1,-7.24 2.72,-2.27 5.23,-4.22 8.1,-6.3 2.73,-1.97 5.24,-3.66 8.1,-5.44 2.74,-1.71 5.25,-3.16 8.1,-4.68 2.74,-1.46 5.26,-2.69 8.1,-3.97 2.75,-1.23 5.26,-2.26 8.1,-3.31 2.76,-1.03 5.27,-1.86 8.09,-2.7 2.77,-0.83 5.29,-1.48 8.1,-2.13 2.78,-0.63 5.29,-1.12 8.1,-1.58 2.78,-0.46 5.3,-0.78 8.1,-1.07 2.79,-0.28 5.3,-0.45 8.1,-0.57 2.79,-0.11 5.3,-0.14 8.1,-0.1 2.8,0.05 5.31,0.16 8.1,0.36 2.8,0.21 5.31,0.45 8.1,0.81 2.8,0.35 5.31,0.73 8.1,1.23 2.81,0.5 5.31,1.01 8.09,1.65 2.82,0.64 5.33,1.29 8.1,2.07 2.82,0.78 5.33,1.55 8.1,2.47 2.82,0.93 5.33,1.82 8.1,2.87 2.82,1.07 5.33,2.09 8.1,3.27 2.82,1.21 5.33,2.35 8.1,3.68 2.82,1.35 5.33,2.61 8.1,4.07 2.82,1.49 5.33,2.88 8.1,4.48 2.82,1.63 5.33,3.15 8.1,4.89 2.83,1.78 5.33,3.43 8.1,5.31 2.83,1.93 5.34,3.72 8.09,5.75 2.84,2.09 5.35,4.01 8.1,6.2 2.84,2.25 5.35,4.32 8.1,6.67 2.84,2.43 5.35,4.65 8.1,7.18 2.84,2.62 5.36,5.01 8.1,7.73 2.85,2.82 5.36,5.39 8.1,8.32 2.85,3.04 5.37,5.82 8.1,8.98 2.86,3.31 5.38,6.32 8.1,9.74 2.87,3.61 5.39,6.91 8.1,10.64 2.88,3.98 5.41,7.6 8.09,11.71 2.91,4.45 5.44,8.5 8.11,13.1 2.94,5.1 5.48,9.73 8.09,15 3.01,6.08 5.59,11.6 8.1,17.9 3.16,7.95 6.09,15.12 8.1,23.43 4.65,19.2 8.1,56.68 8.1,56.68" style="fill:none;stroke:#000000;stroke-width:7.97011;stroke-linecap:butt;stroke-linejoin:miter;stroke-miterlimit:10;stroke-dasharray:none;stroke-opacity:1" transform="matrix(0.13333333,0,0,-0.13333333,0,1122.6667)"/>
    <path id="path118" d="m 2136.85,2503 c 0,0 3.55,53.55 8.1,81.4 2.02,12.39 4.98,23.3 8.1,35.45 2.53,9.86 5.12,18.64 8.09,28.38 2.65,8.65 5.2,16.35 8.11,24.91 2.68,7.91 5.22,14.97 8.09,22.81 2.72,7.41 5.25,14.03 8.1,21.39 2.74,7.06 5.26,13.37 8.1,20.39 2.75,6.8 5.27,12.88 8.1,19.64 2.76,6.59 5.28,12.5 8.1,19.07 2.77,6.44 5.28,12.2 8.1,18.62 2.77,6.31 5.28,11.97 8.1,18.26 2.77,6.22 5.29,11.79 8.1,17.99 2.78,6.14 5.29,11.64 8.1,17.76 2.78,6.07 5.29,11.51 8.09,17.57 2.79,6.02 5.3,11.42 8.1,17.43 2.79,5.98 5.3,11.34 8.1,17.31 2.79,5.95 5.3,11.28 8.1,17.22 2.79,5.92 5.3,11.23 8.1,17.15 2.79,5.9 5.3,11.19 8.1,17.09 2.79,5.88 5.3,11.16 8.1,17.05 2.79,5.87 5.3,11.15 8.1,17.02 2.79,5.87 5.3,11.14 8.1,17 2.79,5.87 5.3,11.13 8.09,17 2.8,5.87 5.31,11.13 8.1,17 2.8,5.86 5.31,11.13 8.1,17 2.8,5.88 5.31,11.15 8.1,17.02 2.8,5.88 5.31,11.16 8.1,17.04 2.8,5.89 5.31,11.17 8.1,17.06 2.79,5.9 5.31,11.2 8.1,17.09 2.8,5.92 5.3,11.22 8.1,17.13 2.79,5.92 5.3,11.24 8.1,17.16 2.79,5.94 5.3,11.27 8.1,17.2 2.79,5.96 5.3,11.3 8.09,17.25 2.8,5.96 5.31,11.32 8.1,17.29 2.8,5.98 5.31,11.35 8.1,17.34 2.8,5.99 5.31,11.38 8.1,17.39 2.8,6.01 5.31,11.41 8.1,17.43 2.8,6.04 5.31,11.46 8.1,17.49 2.8,6.06 5.31,11.49 8.1,17.55 2.8,6.07 5.31,11.53 8.09,17.6 2.81,6.1 5.31,11.57 8.11,17.66 2.79,6.12 5.3,11.6 8.09,17.72 2.8,6.13 5.31,11.64 8.1,17.78 2.8,6.15 5.31,11.68 8.1,17.84 2.8,6.17 5.31,11.72 8.1,17.9 2.8,6.19 5.31,11.76 8.1,17.96 2.8,6.22 5.31,11.8 8.1,18.03 2.8,6.23 5.31,11.84 8.1,18.09 2.8,6.26 8.1,18.15 8.1,18.15" style="fill:none;stroke:#000000;stroke-width:7.97011;stroke-linecap:butt;stroke-linejoin:miter;stroke-miterlimit:10;stroke-dasharray:none;stroke-opacity:1" transform="matrix(0.13333333,0,0,-0.13333333,0,1122.6667)"/>
    <path id="path119" d="m 1343.15,2503 c 0,0 3.23,52.01 8.1,78.95 1.96,10.86 4.83,20.41 8.1,30.96 2.45,7.9 5,14.89 8.1,22.57 2.55,6.32 5.08,11.91 8.1,18.02 2.6,5.27 5.12,9.92 8.09,15 2.65,4.49 5.16,8.45 8.11,12.75 2.66,3.89 5.17,7.3 8.09,11 2.68,3.38 5.2,6.34 8.1,9.54 2.7,2.96 5.21,5.54 8.1,8.31 2.71,2.59 5.22,4.84 8.1,7.24 2.72,2.27 5.23,4.22 8.1,6.3 2.73,1.97 5.24,3.66 8.1,5.45 2.74,1.7 5.25,3.16 8.1,4.67 2.74,1.47 5.26,2.7 8.1,3.97 2.75,1.24 5.26,2.26 8.1,3.31 2.76,1.03 5.27,1.86 8.09,2.71 2.77,0.82 5.29,1.48 8.1,2.12 2.78,0.63 5.29,1.12 8.1,1.58 2.78,0.46 5.3,0.78 8.1,1.07 2.79,0.28 5.3,0.45 8.1,0.57 2.79,0.12 5.3,0.14 8.1,0.1 2.8,-0.05 5.31,-0.16 8.1,-0.36 2.8,-0.2 5.31,-0.45 8.1,-0.8 2.8,-0.35 5.31,-0.74 8.1,-1.24 2.81,-0.5 5.31,-1.01 8.09,-1.65 2.82,-0.64 5.33,-1.28 8.1,-2.06 2.82,-0.79 5.33,-1.56 8.1,-2.47 2.82,-0.93 5.33,-1.83 8.1,-2.88 2.82,-1.07 5.33,-2.09 8.1,-3.27 2.82,-1.21 5.33,-2.35 8.1,-3.67 2.82,-1.35 5.33,-2.62 8.1,-4.08 2.82,-1.49 5.33,-2.88 8.1,-4.48 2.82,-1.63 5.33,-3.15 8.1,-4.89 2.83,-1.78 5.33,-3.43 8.1,-5.31 2.83,-1.93 5.34,-3.71 8.09,-5.74 2.84,-2.09 5.35,-4.02 8.1,-6.2 2.84,-2.26 5.35,-4.33 8.1,-6.68 2.84,-2.43 5.35,-4.65 8.1,-7.18 2.84,-2.61 5.36,-5.01 8.1,-7.72 2.85,-2.82 5.36,-5.4 8.1,-8.32 2.85,-3.05 5.37,-5.83 8.1,-8.99 2.86,-3.31 5.38,-6.32 8.1,-9.74 2.87,-3.61 5.39,-6.9 8.1,-10.64 2.88,-3.97 5.41,-7.6 8.09,-11.71 2.91,-4.45 5.44,-8.5 8.11,-13.1 2.94,-5.09 5.48,-9.73 8.09,-15 3.01,-6.07 5.59,-11.6 8.1,-17.9 3.16,-7.95 6.09,-15.12 8.1,-23.43 4.65,-19.19 8.1,-56.68 8.1,-56.68" style="fill:none;stroke:#000000;stroke-width:7.97011;stroke-linecap:butt;stroke-linejoin:miter;stroke-miterlimit:10;stroke-dasharray:none;stroke-opacity:1" transform="matrix(0.13333333,0,0,-0.13333333,0,1122.6667)"/>
    <path id="path120" d="m 946.305,1941.58 c 0,0 21.215,19.31 32.394,29.49 11.18,10.17 21.215,19.31 32.391,29.48 11.18,10.18 21.22,19.31 32.4,29.49 11.18,10.17 21.22,19.31 32.4,29.49 11.18,10.17 21.21,19.31 32.39,29.48 11.18,10.18 21.22,19.31 32.4,29.49 11.18,10.18 21.21,19.31 32.39,29.48 11.18,10.18 21.22,19.32 32.4,29.49 11.18,10.18 21.22,19.32 32.39,29.49 11.18,10.18 21.22,19.31 32.4,29.49 11.18,10.17 21.22,19.31 32.4,29.48 11.18,10.18 21.21,19.31 32.39,29.49 11.18,10.17 21.22,19.31 32.4,29.49 11.18,10.17 21.21,19.31 32.39,29.48 11.18,10.18 21.22,19.31 32.4,29.49 11.18,10.17 21.22,19.31 32.4,29.49 11.18,10.17 21.21,19.31 32.39,29.48 11.18,10.18 21.22,19.31 32.4,29.49 11.18,10.18 21.21,19.31 32.39,29.48 11.18,10.18 21.22,19.32 32.4,29.49 11.18,10.18 21.21,19.31 32.39,29.49 11.18,10.18 21.22,19.31 32.4,29.49 11.18,10.17 21.22,19.31 32.4,29.48 11.18,10.18 21.21,19.31 32.39,29.49 11.18,10.17 21.22,19.31 32.4,29.49 11.18,10.17 21.21,19.31 32.39,29.48 11.18,10.18 21.22,19.31 32.4,29.49 11.18,10.17 21.22,19.31 32.4,29.49 11.18,10.17 21.21,19.31 32.39,29.48 11.18,10.18 21.22,19.31 32.4,29.49 11.18,10.18 21.21,19.31 32.39,29.48 11.18,10.18 21.22,19.32 32.4,29.49 11.18,10.18 21.21,19.31 32.39,29.49 11.18,10.18 21.22,19.31 32.4,29.48 11.18,10.18 21.22,19.32 32.4,29.49 11.18,10.18 21.21,19.31 32.39,29.49 11.18,10.17 21.22,19.31 32.4,29.49 11.17,10.17 21.21,19.31 32.39,29.48 11.18,10.18 21.22,19.31 32.4,29.49 11.18,10.17 21.22,19.31 32.4,29.49 11.17,10.17 21.21,19.31 32.39,29.48 11.18,10.18 21.22,19.31 32.4,29.49 11.18,10.18 21.21,19.31 32.39,29.48 11.18,10.18 21.22,19.32 32.4,29.49 11.18,10.18 21.21,19.31 32.39,29.49 11.18,10.17 21.22,19.31 32.4,29.48 11.18,10.18 21.22,19.32 32.4,29.49 11.18,10.18 21.21,19.31 32.39,29.49 11.18,10.17 32.4,29.49 32.4,29.49" style="fill:none;stroke:#000000;stroke-width:7.97011;stroke-linecap:butt;stroke-linejoin:miter;stroke-miterlimit:10;stroke-dasharray:none;stroke-opacity:1" transform="matrix(0.13333333,0,0,-0.13333333,0,1122.6667)"/>
    <path id="path121" d="m 1.1011313,-2.0275859 c -0.75000005,0.7382812 -0.9492188,0.9140625 -0.9492188,0.9609375 0,0.046875 0.046875,0.12890621 0.12890625,0.12890621 0.0703125,0 0.75000005,-0.65625001 0.84375005,-0.76171871 0.070312,0.79687496 0.375,1.83984371 1.3007812,1.83984371 0.4804688,0 0.9140625,-0.29296875 1.1015625,-0.4453125 0.1523438,-0.1171875 0.7265625,-0.609375 0.7265625,-0.71484371 0,-0.058594 -0.058594,-0.1289063 -0.1171875,-0.1289063 -0.046875,0 -0.2226562,0.17578126 -0.28125,0.22265626 -0.4101562,0.41015625 -0.9375,0.83203125 -1.4179687,0.83203125 -0.6445313,0 -0.7265625,-0.93750001 -0.7265625,-1.58203121 0,-0.1171875 0,-0.6210938 0.082031,-0.7148438 0.703125,-0.7265625 2.9179688,-3.0117187 2.9179688,-5.1328125 0,-0.46875 -0.1757813,-0.890625 -0.6914063,-0.890625 -1.1132812,0 -2.0859375,2.4609375 -2.25,2.9179688 -0.046875,0.1171875 -0.7382812,1.9570312 -0.6679685,3.46875 z m 0.7148437,-0.75 c 0.011719,-0.070312 0.5507813,-3.1992188 1.5585938,-4.875 0.1992187,-0.3164063 0.3984375,-0.5273438 0.6445312,-0.5273438 0.3984375,0 0.421875,0.3867188 0.421875,0.6445313 0,0.421875 -0.1171875,1.5 -1.1484375,3 -0.3164062,0.4453125 -0.796875,1.0429687 -1.4765625,1.7578125 z m 0,0" style="fill:#000000;fill-opacity:1;fill-rule:nonzero;stroke:none" aria-label="ℓ" transform="matrix(1.3333333,0,0,1.3333333,112.3912,873.90267)"/>
    <path id="path122" d="m 5.2961484,-2.9896484 c 0,-1.2773438 -1.0546875,-2.3203125 -2.3085937,-2.3203125 -1.3007813,0 -2.32031251,1.0664062 -2.32031251,2.3203125 0,1.2773437 1.05468751,2.32031246 2.30859371,2.32031246 1.3007813,0 2.3203125,-1.06640626 2.3203125,-2.32031246 z m 0,0" style="fill:#ff0000;fill-opacity:1;fill-rule:nonzero;stroke:none" aria-label="•" transform="matrix(1.3333333,0,0,1.3333333,222.708,775.96667)"/>
    <path id="path123" d="m 5.0990703,-0.06903906 c 2.0507813,-0.83203125 3.5859375,-3.00000004 3.5859375,-5.16796874 0,-1.96875 -1.3007812,-3.1757813 -2.9648437,-3.1757813 -2.5664063,0 -5.14453129,2.7539063 -5.14453129,5.5078125 0,1.875 1.24218749,3.15234379 2.97656249,3.15234379 0.4101563,0 0.796875,-0.0585938 1.1835938,-0.17578125 -0.070312,0.71484375 -0.070312,0.7734375 -0.070312,1.00781246 0,0.3398438 0,1.2421875 0.9492187,1.2421875 1.4296875,0 1.9570313,-2.23828121 1.9570313,-2.30859371 0,-0.0703125 -0.046875,-0.1171875 -0.1171875,-0.1171875 -0.070312,0 -0.09375,0.05859375 -0.1289063,0.1875 -0.2578125,0.75 -0.8789062,1.18359371 -1.40625,1.18359371 -0.609375,0 -0.7617187,-0.42187496 -0.820313,-1.33593746 z m -2.15625,-0.05859375 C 1.9936016,-0.45575781 1.5482891,-1.4401328 1.5482891,-2.5416953 c 0,-0.84375 0.3046875,-2.4257813 1.0898437,-3.6328125 0.890625,-1.3710938 2.0742188,-1.9804688 3,-1.9804688 1.2539063,0 2.0859375,1.0078125 2.0859375,2.5664063 0,0.8789062 -0.421875,3.84375 -2.671875,5.15624999 C 4.9936016,-1.0416953 4.8295391,-1.7565391 4.0443828,-1.7565391 c -0.6445312,0 -1.1953125,0.6445313 -1.1953125,1.23046879 0,0.12890625 0.046875,0.31640625 0.09375,0.3984375 z m 1.8164063,-0.140625 c -0.4335938,0.1875 -0.796875,0.2578125 -1.1367188,0.2578125 -0.1171875,0 -0.5390625,0 -0.5390625,-0.52734375 0,-0.43359375 0.421875,-0.98437504 0.9609375,-0.98437504 0.5976563,0 0.7265625,0.4101563 0.7265625,1.00781254 0,0.0703125 0,0.1640625 -0.011719,0.24609375 z m 0,0" style="fill:#000000;fill-opacity:1;fill-rule:nonzero;stroke:none" aria-label="Q" transform="matrix(1.3333333,0,0,1.3333333,233.69733,779.70533)"/>
    <path id="path124" d="m 5.2970547,-2.9891406 c 0,-1.2773438 -1.0546875,-2.3203125 -2.3085938,-2.3203125 -1.3007812,0 -2.32031246,1.0664062 -2.32031246,2.3203125 0,1.2773437 1.05468746,2.32031248 2.30859376,2.32031248 1.3007812,0 2.3203125,-1.06640628 2.3203125,-2.32031248 z m 0,0" style="fill:#ff0000;fill-opacity:1;fill-rule:nonzero;stroke:none" aria-label="•" transform="matrix(1.3333333,0,0,1.3333333,180.37867,814.49333)"/>
    <path id="path125" d="m 3.539625,-3.7982578 h 2.0039063 c 1.6523437,0 3.3046875,-1.21875 3.3046875,-2.5898438 0,-0.9257812 -0.796875,-1.78125 -2.296875,-1.78125 H 2.8599375 c -0.234375,0 -0.3398437,0 -0.3398437,0.234375 0,0.1171875 0.1054687,0.1171875 0.2929687,0.1171875 0.7265625,0 0.7265625,0.09375 0.7265625,0.2226563 0,0.023437 0,0.09375 -0.046875,0.28125 l -1.6171875,6.43359374 c -0.1054687,0.41015625 -0.1289062,0.52734375 -0.9609375,0.52734375 -0.234375,0 -0.3515625,0 -0.3515625,0.22265625 0,0.12890625 0.10546875,0.12890625 0.17578125,0.12890625 0.234375,0 0.46875005,-0.0234375 0.69140625,-0.0234375 H 2.8365 c 0.2226563,0 0.4804688,0.0234375 0.703125,0.0234375 0.09375,0 0.2226563,0 0.2226563,-0.22265625 0,-0.12890625 -0.1054688,-0.12890625 -0.28125,-0.12890625 -0.7148438,0 -0.7265625,-0.0820313 -0.7265625,-0.19921875 0,-0.0585938 0.011719,-0.140625 0.023437,-0.19921875 z m 0.8554688,-3.5507813 c 0.1171875,-0.4453125 0.1640625,-0.46875 0.6210937,-0.46875 h 1.1835938 c 0.9023437,0 1.640625,0.28125 1.640625,1.1835938 0,0.3046875 -0.1523438,1.3242187 -0.703125,1.875 C 6.9380625,-4.5482578 6.3638438,-4.0912266 5.274,-4.0912266 H 3.5865 Z m 0,0" style="fill:#000000;fill-opacity:1;fill-rule:nonzero;stroke:none" aria-label="P" transform="matrix(1.3333333,0,0,1.3333333,190.468,816.412)"/>
    <path id="path126" d="m 5.2957266,-2.9890391 c 0,-1.2773437 -1.0546875,-2.3203125 -2.3085938,-2.3203125 -1.3007812,0 -2.32031249,1.0664063 -2.32031249,2.3203125 0,1.2773438 1.05468749,2.32031254 2.30859379,2.32031254 1.3007812,0 2.3203125,-1.06640624 2.3203125,-2.32031254 z m 0,0" style="fill:#ff0000;fill-opacity:1;fill-rule:nonzero;stroke:none" aria-label="•" transform="matrix(1.3333333,0,0,1.3333333,324.732,683.09867)"/>
    <g id="g126" aria-label="⊖R" transform="matrix(1.3333333,0,0,1.3333333,300.69733,678.928)">
      <path id="path127" d="m 8.6146953,-2.9870156 c 0,-2.2148438 -1.8046875,-3.984375 -3.9609375,-3.984375 -2.2148437,0 -3.98437499,1.8046875 -3.98437499,3.984375 0,2.21484373 1.80468749,3.98437498 3.97265629,3.98437498 2.203125,0 3.9726562,-1.8046875 3.9726562,-3.98437498 z M 0.97407031,-3.1393594 c 0.10546879,-2.0625 1.78124999,-3.5273437 3.66796879,-3.5273437 1.921875,0 3.5742187,1.4882812 3.6796875,3.5273437 z m 7.34765629,0.2929688 c -0.1054688,2.09765623 -1.8046875,3.53906248 -3.6679688,3.53906248 -1.8984375,0 -3.5742187,-1.46484375 -3.67968749,-3.53906248 z m 0,0" style="fill:#000000;fill-opacity:1;fill-rule:nonzero;stroke:none"/>
      <path id="path128" d="m 13.63325,-7.3463906 c 0.117188,-0.4453125 0.164063,-0.46875 0.621094,-0.46875 h 0.867187 c 1.03125,0 1.792969,0.3046875 1.792969,1.2421875 0,0.609375 -0.316406,2.3671875 -2.71875,2.3671875 h -1.347656 z m 1.664063,3.28125 c 1.488281,-0.3164063 2.648437,-1.2773438 2.648437,-2.3085938 0,-0.9257812 -0.949219,-1.7929687 -2.613281,-1.7929687 h -3.234375 c -0.246094,0 -0.351563,0 -0.351563,0.234375 0,0.1171875 0.08203,0.1171875 0.316407,0.1171875 0.714843,0 0.714843,0.09375 0.714843,0.2226562 0,0.023437 0,0.09375 -0.04687,0.28125 l -1.617187,6.43359378 c -0.105469,0.41015625 -0.128906,0.52734375 -0.949219,0.52734375 -0.28125,0 -0.3632812,0 -0.3632812,0.234375 0,0.1171875 0.1289062,0.1171875 0.1640625,0.1171875 0.2226567,0 0.4687497,-0.0234375 0.6914067,-0.0234375 h 1.417968 c 0.210938,0 0.46875,0.0234375 0.679688,0.0234375 0.09375,0 0.222656,0 0.222656,-0.22265625 0,-0.12890625 -0.105469,-0.12890625 -0.28125,-0.12890625 -0.726562,0 -0.726562,-0.09375 -0.726562,-0.2109375 0,-0.0117188 0,-0.09375 0.02344,-0.1875 L 12.7895,-3.9713906 h 1.429688 c 1.136718,0 1.359375,0.7265625 1.359375,1.1132812 0,0.1875 -0.128907,0.6445313 -0.210938,0.9609375 -0.128906,0.5507813 -0.164062,0.6796875 -0.164062,0.90234378 0,0.85546875 0.691406,1.2421875 1.488281,1.2421875 0.972656,0 1.394531,-1.18359375 1.394531,-1.34765628 0,-0.082031 -0.05859,-0.1171875 -0.128906,-0.1171875 -0.105469,0 -0.128906,0.070312 -0.152344,0.1640625 -0.28125,0.85546878 -0.773437,1.06640628 -1.066406,1.06640628 -0.304688,0 -0.492188,-0.12890625 -0.492188,-0.66796875 0,-0.29296875 0.140625,-1.37109373 0.152344,-1.44140623 0.05859,-0.4335938 0.05859,-0.4804688 0.05859,-0.5742188 0,-0.8789062 -0.703125,-1.2539062 -1.160156,-1.3945312 z m 0,0" style="fill:#000000;fill-opacity:1;fill-rule:nonzero;stroke:none"/>
    </g>
    <path id="path129" d="M 2465.49,3324.36 V 1681.64" style="fill:none;stroke:#000000;stroke-width:7.97011;stroke-linecap:butt;stroke-linejoin:miter;stroke-miterlimit:10;stroke-dasharray:49.7792, 49.7792;stroke-dashoffset:0;stroke-opacity:1" transform="matrix(0.13333333,0,0,-0.13333333,0,1122.6667)"/>
    <path id="path130" d="m 5.2957266,-2.9876016 c 0,-1.2773437 -1.0546875,-2.3203125 -2.3085938,-2.3203125 -1.3007812,0 -2.32031249,1.0664063 -2.32031249,2.3203125 0,1.2773438 1.05468749,2.32031254 2.30859379,2.32031254 1.3007812,0 2.3203125,-1.06640624 2.3203125,-2.32031254 z m 0,0" style="fill:#ff0000;fill-opacity:1;fill-rule:nonzero;stroke:none" aria-label="•" transform="matrix(1.3333333,0,0,1.3333333,324.732,902.128)"/>
    <g id="g130" aria-label="R=P⊕Q&#10;Figure2.5:Ellipticcurveaddition." transform="matrix(1.3333333,0,0,1.3333333,245.35467,915.676)">
      <path id="path131" d="m 4.3951328,-7.3478203 c 0.1171875,-0.4453125 0.1640625,-0.46875 0.6210938,-0.46875 h 0.8671875 c 1.03125,0 1.7929687,0.3046875 1.7929687,1.2421875 0,0.609375 -0.3164062,2.3671875 -2.71875,2.3671875 H 3.6099766 Z m 1.6640625,3.28125 c 1.4882813,-0.3164063 2.6484375,-1.2773438 2.6484375,-2.3085938 0,-0.9257812 -0.9492187,-1.7929687 -2.6132812,-1.7929687 h -3.234375 c -0.2460938,0 -0.3515625,0 -0.3515625,0.234375 0,0.1171875 0.082031,0.1171875 0.3164062,0.1171875 0.7148438,0 0.7148438,0.09375 0.7148438,0.2226562 0,0.023437 0,0.09375 -0.046875,0.28125 l -1.6171875,6.43359379 c -0.1054688,0.41015625 -0.1289063,0.52734375 -0.94921879,0.52734375 -0.28125,0 -0.36328125,0 -0.36328125,0.234375 0,0.1171874975 0.12890625,0.1171874975 0.1640625,0.1171874975 0.22265625,0 0.46875004,-0.0234374975 0.69140624,-0.0234374975 h 1.4179688 c 0.2109375,0 0.46875,0.0234374975 0.6796875,0.0234374975 0.09375,0 0.2226562,0 0.2226562,-0.2226562475 0,-0.12890625 -0.1054687,-0.12890625 -0.28125,-0.12890625 -0.7265625,0 -0.7265625,-0.09375 -0.7265625,-0.2109375 0,-0.0117188 0,-0.09375 0.023437,-0.1875 l 0.796875,-3.22265624 h 1.4296875 c 1.1367188,0 1.359375,0.7265625 1.359375,1.1132812 0,0.1875 -0.1289062,0.6445313 -0.2109375,0.9609375 -0.1289062,0.5507813 -0.1640625,0.6796875 -0.1640625,0.90234379 0,0.85546875 0.6914063,1.2421875 1.4882813,1.2421875 0.9726562,0 1.3945312,-1.18359375 1.3945312,-1.34765629 0,-0.082031 -0.058594,-0.1171875 -0.1289062,-0.1171875 -0.1054688,0 -0.1289063,0.070312 -0.1523438,0.1640625 -0.28125,0.85546879 -0.7734375,1.06640629 -1.0664062,1.06640629 -0.3046875,0 -0.4921875,-0.12890625 -0.4921875,-0.66796875 0,-0.29296875 0.140625,-1.37109374 0.1523437,-1.44140624 0.058594,-0.4335938 0.058594,-0.4804688 0.058594,-0.5742188 0,-0.8789062 -0.703125,-1.2539062 -1.160156,-1.3945312 z m 0,0" style="fill:#000000;fill-opacity:1;fill-rule:nonzero;stroke:none"/>
      <path id="path132" d="m 20.315055,-3.8673516 c 0.164062,0 0.375,0 0.375,-0.2226562 0,-0.2226563 -0.199219,-0.2226563 -0.375,-0.2226563 h -7.042969 c -0.175781,0 -0.386719,0 -0.386719,0.2109375 0,0.234375 0.199219,0.234375 0.386719,0.234375 z m 0,2.2148438 c 0.164062,0 0.375,0 0.375,-0.2109375 0,-0.234375 -0.199219,-0.234375 -0.375,-0.234375 h -7.042969 c -0.175781,0 -0.386719,0 -0.386719,0.2226562 0,0.2226563 0.199219,0.2226563 0.386719,0.2226563 z m 0,0" style="fill:#000000;fill-opacity:1;fill-rule:nonzero;stroke:none"/>
      <path id="path133" d="m 28.260367,-3.7970391 h 2.003906 c 1.652344,0 3.304688,-1.21875 3.304688,-2.5898437 0,-0.9257813 -0.796875,-1.78125 -2.296875,-1.78125 H 27.58068 c -0.234375,0 -0.339844,0 -0.339844,0.234375 0,0.1171875 0.105469,0.1171875 0.292969,0.1171875 0.726562,0 0.726562,0.09375 0.726562,0.2226562 0,0.023437 0,0.09375 -0.04687,0.28125 l -1.617187,6.43359379 c -0.105469,0.41015625 -0.128907,0.52734375 -0.960938,0.52734375 -0.234375,0 -0.351562,0 -0.351562,0.22265625 0,0.1289062475 0.105468,0.1289062475 0.175781,0.1289062475 0.234375,0 0.46875,-0.0234374975 0.691406,-0.0234374975 h 1.40625 c 0.222656,0 0.480469,0.0234374975 0.703125,0.0234374975 0.09375,0 0.222656,0 0.222656,-0.2226562475 0,-0.12890625 -0.105468,-0.12890625 -0.28125,-0.12890625 -0.714843,0 -0.726562,-0.0820313 -0.726562,-0.19921875 0,-0.0585938 0.01172,-0.140625 0.02344,-0.19921875 z m 0.855469,-3.5507812 c 0.117187,-0.4453125 0.164062,-0.46875 0.621094,-0.46875 h 1.183593 c 0.902344,0 1.640625,0.28125 1.640625,1.1835937 0,0.3046875 -0.152343,1.3242188 -0.703125,1.875 -0.199218,0.2109375 -0.773437,0.6679688 -1.863281,0.6679688 h -1.6875 z m 0,0" style="fill:#000000;fill-opacity:1;fill-rule:nonzero;stroke:none"/>
      <path id="path134" d="m 45.094352,-2.9884453 c 0,-2.2148438 -1.804688,-3.984375 -3.960938,-3.984375 -2.214844,0 -3.984375,1.8046875 -3.984375,3.984375 0,2.21484374 1.804688,3.98437499 3.972656,3.98437499 2.203125,0 3.972657,-1.8046875 3.972657,-3.98437499 z m -7.640625,-0.1523438 c 0.09375,-1.8398437 1.5,-3.4101562 3.527343,-3.5273437 v 3.5273437 z m 3.820312,-3.5273437 c 2.015625,0.1171875 3.433594,1.6875 3.527344,3.5273437 H 41.274039 Z M 40.98107,0.69124219 c -2.003906,-0.1171875 -3.433593,-1.6640625 -3.527343,-3.53906249 h 3.527343 z m 3.820313,-3.53906249 c -0.09375,1.87499999 -1.535156,3.42187499 -3.527344,3.53906249 V -2.8478203 Z m 0,0" style="fill:#000000;fill-opacity:1;fill-rule:nonzero;stroke:none"/>
      <path id="path135" d="m 53.578727,-0.07047656 c 2.050781,-0.83203125 3.585937,-3.00000004 3.585937,-5.16796874 0,-1.96875 -1.300781,-3.1757813 -2.964844,-3.1757813 -2.566406,0 -5.144531,2.7539063 -5.144531,5.5078125 0,1.875 1.242188,3.15234379 2.976563,3.15234379 0.410156,0 0.796875,-0.0585938 1.183593,-0.17578125 -0.07031,0.71484375 -0.07031,0.7734375 -0.07031,1.00781246 0,0.3398438 0,1.2421875 0.949219,1.2421875 1.429687,0 1.957031,-2.23828121 1.957031,-2.30859371 0,-0.0703125 -0.04687,-0.1171875 -0.117188,-0.1171875 -0.07031,0 -0.09375,0.05859375 -0.128906,0.1875 -0.257812,0.75 -0.878906,1.18359371 -1.40625,1.18359371 -0.609375,0 -0.761719,-0.42187496 -0.820312,-1.33593746 z m -2.15625,-0.05859375 c -0.949219,-0.328125 -1.394532,-1.31249999 -1.394532,-2.41406249 0,-0.84375 0.304688,-2.4257813 1.089844,-3.6328125 0.890625,-1.3710938 2.074219,-1.9804688 3,-1.9804688 1.253906,0 2.085938,1.0078125 2.085938,2.5664063 0,0.8789062 -0.421875,3.84375 -2.671875,5.15624999 -0.05859,-0.60937499 -0.222657,-1.32421879 -1.007813,-1.32421879 -0.644531,0 -1.195312,0.6445313 -1.195312,1.23046879 0,0.12890625 0.04687,0.31640625 0.09375,0.3984375 z m 1.816406,-0.140625 c -0.433594,0.1875 -0.796875,0.2578125 -1.136719,0.2578125 -0.117187,0 -0.539062,0 -0.539062,-0.52734375 0,-0.43359375 0.421875,-0.98437504 0.960937,-0.98437504 0.597656,0 0.726563,0.4101563 0.726563,1.00781254 0,0.0703125 0,0.1640625 -0.01172,0.24609375 z m 0,0" style="fill:#000000;fill-opacity:1;fill-rule:nonzero;stroke:none"/>
      
    </g>
    
    
    
    
    
    
    
    
    
    
    
    
    
  </g>
</svg>