<svg version="1.1" id="svg1" width="311.0020326204872" height="287.0026714766875" viewBox="367.0023986228901 645.5060084954766 311.0020326204872 287.0026714766875" sodipodi:docname="2_1.pdf" xmlns:inkscape="http://www.inkscape.org/namespaces/inkscape" xmlns:sodipodi="http://sodipodi.sourceforge.net/DTD/sodipodi-0.dtd" xmlns="http://www.w3.org/2000/svg" xmlns:svg="http://www.w3.org/2000/svg" style="">
  <defs id="defs1"/>
  <sodipodi:namedview id="namedview1" pagecolor="#ffffff" bordercolor="#000000" borderopacity="0.25" inkscape:showpageshadow="2" inkscape:pageopacity="0.0" inkscape:pagecheckerboard="0" inkscape:deskcolor="#d1d1d1">
    <inkscape:page x="0" y="0" inkscape:label="1" id="page1" width="793.33331" height="1122.6667" margin="0" bleed="0"/>
  </sodipodi:namedview>
  <g id="g1" inkscape:groupmode="layer" inkscape:label="1">
    
    
    
    
    
    
    
    
    
    
    
    
    
    
    
    
    
    
    <path id="path137" d="m 4223.65,2507.8 c 0,0 3.55,-53.55 8.1,-81.4 2.02,-12.38 4.98,-23.29 8.1,-35.45 2.53,-9.86 5.12,-18.64 8.1,-28.38 2.63,-8.64 5.18,-16.35 8.09,-24.91 2.69,-7.9 5.23,-14.96 8.1,-22.8 2.72,-7.41 5.25,-14.04 8.1,-21.4 2.74,-7.06 5.26,-13.37 8.1,-20.39 2.75,-6.79 5.27,-12.87 8.1,-19.64 2.76,-6.59 5.27,-12.5 8.1,-19.07 2.76,-6.43 5.28,-12.2 8.1,-18.62 2.77,-6.31 5.29,-11.97 8.1,-18.26 2.78,-6.22 5.29,-11.79 8.1,-17.99 2.78,-6.13 5.29,-11.63 8.09,-17.76 2.79,-6.07 5.3,-11.51 8.11,-17.57 2.78,-6.02 5.29,-11.42 8.09,-17.43 2.79,-5.98 5.3,-11.34 8.1,-17.31 2.79,-5.95 5.3,-11.28 8.1,-17.22 2.79,-5.92 5.3,-11.23 8.1,-17.15 2.79,-5.89 5.3,-11.19 8.1,-17.09 2.79,-5.88 5.3,-11.16 8.1,-17.05 2.79,-5.87 5.3,-11.14 8.1,-17.02 2.79,-5.87 5.3,-11.13 8.09,-17 2.8,-5.87 5.31,-11.13 8.11,-17 2.79,-5.86 5.3,-11.13 8.09,-17 2.8,-5.86 5.31,-11.13 8.1,-17 2.8,-5.87 5.31,-11.14 8.1,-17.02 2.8,-5.88 5.31,-11.16 8.1,-17.04 2.8,-5.88 5.3,-11.17 8.1,-17.06 2.79,-5.9 5.31,-11.2 8.1,-17.09 2.8,-5.91 5.3,-11.22 8.1,-17.13 2.79,-5.92 5.31,-11.24 8.09,-17.16 2.81,-5.94 5.31,-11.27 8.11,-17.2 2.79,-5.95 5.3,-11.3 8.09,-17.25 2.8,-5.96 5.31,-11.32 8.1,-17.29 2.8,-5.98 5.31,-11.35 8.1,-17.33 2.8,-6 5.31,-11.39 8.1,-17.39 2.8,-6.02 5.31,-11.42 8.1,-17.44 2.8,-6.04 5.31,-11.45 8.1,-17.49 2.8,-6.05 5.3,-11.49 8.1,-17.55 2.79,-6.07 5.31,-11.52 8.1,-17.6 2.8,-6.09 5.3,-11.56 8.1,-17.66 2.79,-6.11 5.3,-11.6 8.09,-17.72 2.8,-6.13 5.31,-11.64 8.1,-17.78 2.8,-6.15 5.31,-11.68 8.1,-17.83 2.8,-6.18 5.31,-11.73 8.1,-17.91 2.8,-6.19 5.31,-11.76 8.1,-17.96 2.8,-6.22 5.31,-11.8 8.1,-18.03 2.8,-6.23 5.31,-11.84 8.1,-18.08 2.8,-6.27 8.1,-18.16 8.1,-18.16" style="fill:none;stroke:#000000;stroke-width:7.97011;stroke-linecap:butt;stroke-linejoin:miter;stroke-miterlimit:10;stroke-dasharray:none;stroke-opacity:1" transform="matrix(0.13333333,0,0,-0.13333333,0,1122.6667)"/>
    <path id="path138" d="m 3429.95,2507.8 c 0,0 3.23,-52.01 8.1,-78.94 1.97,-10.87 4.83,-20.42 8.1,-30.97 2.45,-7.9 5,-14.89 8.1,-22.56 2.55,-6.33 5.08,-11.91 8.1,-18.03 2.6,-5.27 5.12,-9.92 8.1,-15 2.64,-4.49 5.15,-8.45 8.1,-12.75 2.66,-3.89 5.17,-7.3 8.09,-11 2.68,-3.38 5.2,-6.34 8.1,-9.54 2.7,-2.96 5.21,-5.54 8.1,-8.31 2.71,-2.59 5.22,-4.84 8.1,-7.24 2.72,-2.27 5.23,-4.22 8.1,-6.3 2.73,-1.97 5.24,-3.66 8.1,-5.45 2.74,-1.7 5.25,-3.15 8.1,-4.67 2.74,-1.47 5.26,-2.7 8.1,-3.97 2.75,-1.23 5.27,-2.26 8.1,-3.31 2.76,-1.03 5.27,-1.86 8.1,-2.7 2.76,-0.83 5.28,-1.49 8.09,-2.13 2.78,-0.63 5.29,-1.12 8.1,-1.58 2.79,-0.46 5.3,-0.78 8.1,-1.06 2.79,-0.29 5.3,-0.46 8.1,-0.58 2.79,-0.11 5.3,-0.14 8.1,-0.1 2.8,0.05 5.31,0.16 8.1,0.36 2.8,0.21 5.31,0.46 8.1,0.8 2.8,0.36 5.31,0.74 8.1,1.24 2.8,0.5 5.31,1.01 8.1,1.65 2.81,0.64 5.32,1.29 8.09,2.07 2.82,0.78 5.33,1.55 8.1,2.47 2.82,0.92 5.33,1.82 8.1,2.87 2.82,1.07 5.33,2.09 8.1,3.27 2.82,1.21 5.33,2.36 8.1,3.68 2.82,1.35 5.33,2.61 8.1,4.07 2.82,1.49 5.33,2.88 8.1,4.48 2.83,1.63 5.33,3.15 8.1,4.89 2.83,1.78 5.33,3.43 8.1,5.31 2.82,1.93 5.34,3.71 8.09,5.75 2.84,2.09 5.35,4.01 8.11,6.2 2.83,2.25 5.34,4.32 8.09,6.67 2.84,2.43 5.35,4.65 8.1,7.18 2.84,2.62 5.36,5.01 8.1,7.73 2.85,2.81 5.36,5.39 8.1,8.32 2.85,3.04 5.37,5.83 8.1,8.98 2.86,3.31 5.38,6.32 8.1,9.74 2.87,3.61 5.39,6.91 8.1,10.64 2.88,3.98 5.4,7.6 8.09,11.72 2.91,4.44 5.44,8.5 8.1,13.09 2.95,5.09 5.49,9.73 8.1,15 3.01,6.08 5.59,11.6 8.1,17.9 3.17,7.95 6.09,15.12 8.1,23.43 4.64,19.2 8.1,56.68 8.1,56.68" style="fill:none;stroke:#000000;stroke-width:7.97011;stroke-linecap:butt;stroke-linejoin:miter;stroke-miterlimit:10;stroke-dasharray:none;stroke-opacity:1" transform="matrix(0.13333333,0,0,-0.13333333,0,1122.6667)"/>
    <path id="path139" d="m 4223.65,2507.8 c 0,0 3.55,53.55 8.1,81.4 2.02,12.39 4.98,23.3 8.1,35.45 2.53,9.87 5.12,18.64 8.1,28.38 2.63,8.65 5.18,16.35 8.09,24.91 2.69,7.9 5.23,14.96 8.1,22.81 2.72,7.41 5.25,14.03 8.1,21.39 2.74,7.06 5.26,13.37 8.1,20.39 2.75,6.8 5.27,12.88 8.1,19.64 2.76,6.6 5.27,12.5 8.1,19.07 2.76,6.44 5.28,12.2 8.1,18.62 2.77,6.31 5.29,11.97 8.1,18.26 2.78,6.22 5.29,11.79 8.1,17.99 2.78,6.14 5.29,11.64 8.09,17.76 2.79,6.07 5.3,11.51 8.11,17.57 2.78,6.02 5.29,11.42 8.09,17.43 2.79,5.98 5.3,11.34 8.1,17.31 2.79,5.95 5.3,11.28 8.1,17.22 2.79,5.92 5.3,11.23 8.1,17.15 2.79,5.9 5.3,11.19 8.1,17.09 2.79,5.88 5.3,11.16 8.1,17.05 2.79,5.87 5.3,11.15 8.1,17.02 2.79,5.87 5.3,11.13 8.09,17 2.8,5.87 5.31,11.13 8.11,17 2.79,5.86 5.3,11.13 8.09,17 2.8,5.86 5.31,11.13 8.1,17 2.8,5.88 5.31,11.15 8.1,17.02 2.8,5.88 5.31,11.16 8.1,17.04 2.8,5.89 5.3,11.18 8.1,17.06 2.79,5.9 5.31,11.2 8.1,17.1 2.8,5.9 5.3,11.21 8.1,17.12 2.79,5.92 5.31,11.24 8.09,17.16 2.81,5.94 5.31,11.27 8.11,17.2 2.79,5.95 5.3,11.3 8.09,17.25 2.8,5.96 5.31,11.32 8.1,17.29 2.8,5.98 5.31,11.35 8.1,17.34 2.8,6 5.31,11.38 8.1,17.38 2.8,6.02 5.31,11.42 8.1,17.44 2.8,6.04 5.31,11.46 8.1,17.5 2.8,6.05 5.3,11.48 8.1,17.54 2.79,6.07 5.31,11.53 8.1,17.6 2.8,6.09 5.3,11.57 8.1,17.66 2.79,6.11 5.3,11.61 8.09,17.72 2.8,6.14 5.31,11.64 8.1,17.78 2.8,6.15 5.31,11.68 8.1,17.84 2.8,6.17 5.31,11.72 8.1,17.9 2.8,6.19 5.31,11.76 8.1,17.96 2.8,6.22 5.31,11.8 8.1,18.03 2.8,6.24 5.31,11.84 8.1,18.08 2.8,6.27 8.1,18.16 8.1,18.16" style="fill:none;stroke:#000000;stroke-width:7.97011;stroke-linecap:butt;stroke-linejoin:miter;stroke-miterlimit:10;stroke-dasharray:none;stroke-opacity:1" transform="matrix(0.13333333,0,0,-0.13333333,0,1122.6667)"/>
    <path id="path140" d="m 3429.95,2507.8 c 0,0 3.23,52.01 8.1,78.95 1.97,10.86 4.83,20.41 8.1,30.96 2.45,7.9 5,14.89 8.1,22.56 2.55,6.33 5.08,11.91 8.1,18.03 2.6,5.27 5.12,9.92 8.1,15 2.64,4.49 5.15,8.45 8.1,12.75 2.66,3.89 5.17,7.3 8.09,11 2.68,3.38 5.2,6.34 8.1,9.54 2.7,2.96 5.21,5.54 8.1,8.31 2.71,2.59 5.22,4.84 8.1,7.24 2.72,2.27 5.23,4.22 8.1,6.3 2.73,1.97 5.24,3.66 8.1,5.45 2.74,1.7 5.25,3.15 8.1,4.67 2.74,1.47 5.26,2.7 8.1,3.97 2.75,1.24 5.27,2.26 8.1,3.31 2.76,1.03 5.27,1.86 8.1,2.7 2.76,0.83 5.28,1.49 8.09,2.13 2.78,0.63 5.29,1.12 8.1,1.58 2.79,0.46 5.3,0.79 8.1,1.07 2.79,0.28 5.3,0.45 8.1,0.57 2.79,0.11 5.3,0.14 8.1,0.1 2.8,-0.05 5.31,-0.16 8.1,-0.36 2.8,-0.2 5.31,-0.45 8.1,-0.8 2.8,-0.35 5.31,-0.74 8.1,-1.24 2.8,-0.5 5.31,-1.01 8.1,-1.65 2.81,-0.64 5.32,-1.29 8.09,-2.06 2.82,-0.79 5.33,-1.56 8.1,-2.47 2.82,-0.93 5.33,-1.83 8.1,-2.88 2.82,-1.07 5.33,-2.08 8.1,-3.27 2.82,-1.21 5.33,-2.35 8.1,-3.67 2.82,-1.36 5.33,-2.62 8.1,-4.08 2.82,-1.49 5.33,-2.88 8.1,-4.48 2.83,-1.63 5.33,-3.15 8.1,-4.89 2.83,-1.78 5.33,-3.43 8.1,-5.31 2.82,-1.93 5.34,-3.71 8.09,-5.75 2.84,-2.08 5.35,-4.01 8.11,-6.2 2.83,-2.25 5.34,-4.32 8.09,-6.67 2.84,-2.43 5.35,-4.65 8.1,-7.18 2.84,-2.62 5.36,-5.01 8.1,-7.73 2.85,-2.81 5.36,-5.39 8.1,-8.32 2.85,-3.04 5.37,-5.82 8.1,-8.98 2.86,-3.3 5.38,-6.32 8.1,-9.74 2.87,-3.61 5.39,-6.9 8.1,-10.64 2.88,-3.97 5.4,-7.6 8.09,-11.71 2.91,-4.45 5.44,-8.5 8.1,-13.1 2.95,-5.09 5.49,-9.73 8.1,-15 3.01,-6.08 5.59,-11.6 8.1,-17.9 3.17,-7.95 6.09,-15.12 8.1,-23.43 4.64,-19.19 8.1,-56.68 8.1,-56.68" style="fill:none;stroke:#000000;stroke-width:7.97011;stroke-linecap:butt;stroke-linejoin:miter;stroke-miterlimit:10;stroke-dasharray:none;stroke-opacity:1" transform="matrix(0.13333333,0,0,-0.13333333,0,1122.6667)"/>
    <path id="path141" d="m 3033.1,2542.01 c 0,0 21.22,8.35 32.4,12.74 11.18,4.4 21.21,8.34 32.39,12.74 11.18,4.4 21.22,8.35 32.4,12.74 11.18,4.4 21.22,8.35 32.4,12.74 11.18,4.4 21.21,8.35 32.39,12.74 11.18,4.4 21.22,8.35 32.4,12.75 11.18,4.4 21.22,8.34 32.4,12.74 11.17,4.39 21.21,8.34 32.39,12.74 11.18,4.4 21.21,8.35 32.39,12.74 11.18,4.4 21.22,8.34 32.4,12.74 11.18,4.4 21.22,8.35 32.4,12.74 11.18,4.4 21.21,8.35 32.39,12.75 11.18,4.39 21.22,8.34 32.4,12.73 11.18,4.4 21.21,8.35 32.39,12.75 11.18,4.4 21.22,8.34 32.4,12.74 11.18,4.39 21.22,8.34 32.4,12.74 11.17,4.4 21.21,8.34 32.39,12.74 11.18,4.4 21.22,8.35 32.4,12.74 11.18,4.4 21.22,8.35 32.39,12.74 11.18,4.4 21.22,8.35 32.4,12.75 11.18,4.39 21.21,8.34 32.39,12.73 11.18,4.4 21.22,8.35 32.4,12.75 11.18,4.39 21.22,8.34 32.4,12.74 11.18,4.4 21.21,8.34 32.39,12.74 11.18,4.4 21.22,8.34 32.4,12.74 11.18,4.4 21.21,8.35 32.39,12.74 11.18,4.4 21.22,8.34 32.4,12.74 11.18,4.4 21.22,8.35 32.39,12.75 11.18,4.39 21.22,8.34 32.4,12.74 11.18,4.39 21.22,8.34 32.4,12.74 11.18,4.39 21.21,8.34 32.39,12.74 11.18,4.4 21.22,8.34 32.4,12.74 11.18,4.39 21.21,8.34 32.39,12.74 11.18,4.4 21.22,8.35 32.4,12.74 11.18,4.4 21.22,8.35 32.4,12.74 11.18,4.4 21.21,8.35 32.39,12.75 11.18,4.39 21.22,8.34 32.4,12.74 11.18,4.39 21.21,8.34 32.39,12.74 11.18,4.39 21.22,8.34 32.4,12.74 11.18,4.4 21.21,8.34 32.39,12.74 11.18,4.4 21.22,8.34 32.4,12.74 11.18,4.4 21.22,8.35 32.4,12.74 11.18,4.4 21.21,8.35 32.39,12.74 11.18,4.4 21.22,8.35 32.4,12.74 11.18,4.4 21.21,8.35 32.39,12.75 11.18,4.39 21.22,8.34 32.4,12.74 11.18,4.39 21.22,8.34 32.4,12.74 11.18,4.4 21.21,8.34 32.39,12.74 11.18,4.4 32.4,12.74 32.4,12.74" style="fill:none;stroke:#000000;stroke-width:7.97011;stroke-linecap:butt;stroke-linejoin:miter;stroke-miterlimit:10;stroke-dasharray:none;stroke-opacity:1" transform="matrix(0.13333333,0,0,-0.13333333,0,1122.6667)"/>
    <path id="path142" d="m 1.1002422,-2.0264453 c -0.75000001,0.7382812 -0.94921876,0.9140625 -0.94921876,0.9609375 0,0.046875 0.046875,0.12890624 0.12890625,0.12890624 0.0703125,0 0.75000001,-0.65625004 0.84375001,-0.76171874 0.070312,0.79687499 0.375,1.83984374 1.3007812,1.83984374 0.4804688,0 0.9140625,-0.29296875 1.1015625,-0.4453125 0.1523438,-0.1171875 0.7265625,-0.609375 0.7265625,-0.71484374 0,-0.058594 -0.058594,-0.1289063 -0.1171875,-0.1289063 -0.046875,0 -0.2226562,0.17578129 -0.28125,0.22265629 -0.4101562,0.41015625 -0.9375,0.83203125 -1.4179687,0.83203125 -0.6445313,0 -0.7265625,-0.93750004 -0.7265625,-1.58203124 0,-0.1171875 0,-0.6210938 0.082031,-0.7148438 0.703125,-0.7265625 2.9179688,-3.0117187 2.9179688,-5.1328125 0,-0.46875 -0.1757813,-0.890625 -0.6914063,-0.890625 -1.1132812,0 -2.0859375,2.4609375 -2.25,2.9179688 -0.046875,0.1171875 -0.7382812,1.9570312 -0.6679685,3.46875 z m 0.7148437,-0.75 c 0.011719,-0.070312 0.5507813,-3.1992188 1.5585938,-4.875 0.1992187,-0.3164063 0.3984375,-0.5273438 0.6445312,-0.5273438 0.3984375,0 0.421875,0.3867188 0.421875,0.6445313 0,0.421875 -0.1171875,1.5 -1.1484375,3 -0.3164062,0.4453125 -0.796875,1.0429687 -1.4765625,1.7578125 z m 0,0" style="fill:#000000;fill-opacity:1;fill-rule:nonzero;stroke:none" aria-label="ℓ" transform="matrix(1.3333333,0,0,1.3333333,390.63067,793.89333)"/>
    <path id="path143" d="m 5.2982188,-2.9868672 c 0,-1.2773437 -1.0546875,-2.3203125 -2.3085938,-2.3203125 -1.3007812,0 -2.3203125,1.0664063 -2.3203125,2.3203125 0,1.2773438 1.0546875,2.32031251 2.3085938,2.32031251 1.3007812,0 2.3203125,-1.06640621 2.3203125,-2.32031251 z m 0,0" style="fill:#ff0000;fill-opacity:1;fill-rule:nonzero;stroke:none" aria-label="•" transform="matrix(1.3333333,0,0,1.3333333,469.20133,760.19733)"/>
    <path id="path144" d="m 3.5388828,-3.7965078 h 2.0039063 c 1.6523437,0 3.3046875,-1.21875 3.3046875,-2.5898438 0,-0.9257812 -0.796875,-1.78125 -2.296875,-1.78125 H 2.8591953 c -0.234375,0 -0.3398437,0 -0.3398437,0.234375 0,0.1171875 0.1054687,0.1171875 0.2929687,0.1171875 0.7265625,0 0.7265625,0.09375 0.7265625,0.2226563 0,0.023437 0,0.09375 -0.046875,0.28125 l -1.6171875,6.43359374 c -0.1054687,0.41015625 -0.1289062,0.52734375 -0.96093749,0.52734375 -0.234375,0 -0.3515625,0 -0.3515625,0.22265625 0,0.1289062475 0.10546875,0.1289062475 0.17578125,0.1289062475 0.234375,0 0.46875004,-0.0234374975 0.69140624,-0.0234374975 h 1.40625 c 0.2226563,0 0.4804688,0.0234374975 0.703125,0.0234374975 0.09375,0 0.2226563,0 0.2226563,-0.2226562475 0,-0.12890625 -0.1054688,-0.12890625 -0.28125,-0.12890625 -0.7148438,0 -0.7265625,-0.0820313 -0.7265625,-0.19921875 0,-0.0585938 0.011719,-0.140625 0.023437,-0.19921875 z m 0.8554688,-3.5507813 c 0.1171875,-0.4453125 0.1640625,-0.46875 0.6210937,-0.46875 h 1.1835938 c 0.9023437,0 1.640625,0.28125 1.640625,1.1835938 0,0.3046875 -0.1523438,1.3242187 -0.703125,1.875 -0.1992188,0.2109375 -0.7734375,0.6679687 -1.8632813,0.6679687 h -1.6875 z m 0,0" style="fill:#000000;fill-opacity:1;fill-rule:nonzero;stroke:none" aria-label="P" transform="matrix(1.3333333,0,0,1.3333333,467.12133,751.53467)"/>
    <path id="path145" d="m 5.2968047,-2.9892031 c 0,-1.2773438 -1.0546875,-2.3203125 -2.3085938,-2.3203125 -1.3007812,0 -2.32031246,1.0664062 -2.32031246,2.3203125 0,1.2773437 1.05468746,2.32031248 2.30859376,2.32031248 1.3007812,0 2.3203125,-1.06640628 2.3203125,-2.32031248 z m 0,0" style="fill:#ff0000;fill-opacity:1;fill-rule:nonzero;stroke:none" aria-label="•" transform="matrix(1.3333333,0,0,1.3333333,588.504,713.27467)"/>
    <g id="g145" aria-label="⊖R" transform="matrix(1.3333333,0,0,1.3333333,567.64533,703.972)">
      <path id="path146" d="m 8.6126797,-2.9877891 c 0,-2.2148437 -1.8046875,-3.984375 -3.9609375,-3.984375 -2.2148438,0 -3.98437501,1.8046875 -3.98437501,3.984375 0,2.21484379 1.80468751,3.98437504 3.97265621,3.98437504 2.203125,0 3.9726563,-1.8046875 3.9726563,-3.98437504 z M 0.97205469,-3.1401328 c 0.10546871,-2.0625 1.78125001,-3.5273438 3.66796871,-3.5273438 1.921875,0 3.5742188,1.4882813 3.6796875,3.5273438 z m 7.34765621,0.2929687 c -0.1054687,2.09765629 -1.8046875,3.53906254 -3.6679687,3.53906254 -1.8984375,0 -3.5742188,-1.46484375 -3.67968751,-3.53906254 z m 0,0" style="fill:#000000;fill-opacity:1;fill-rule:nonzero;stroke:none"/>
      <path id="path147" d="m 13.634164,-7.3471641 c 0.117188,-0.4453125 0.164063,-0.46875 0.621094,-0.46875 h 0.867187 c 1.03125,0 1.792969,0.3046875 1.792969,1.2421875 0,0.609375 -0.316406,2.3671875 -2.71875,2.3671875 h -1.347656 z m 1.664063,3.28125 c 1.488281,-0.3164062 2.648437,-1.2773437 2.648437,-2.3085937 0,-0.9257813 -0.949219,-1.7929688 -2.613281,-1.7929688 h -3.234375 c -0.246094,0 -0.351563,0 -0.351563,0.234375 0,0.1171875 0.08203,0.1171875 0.316407,0.1171875 0.714843,0 0.714843,0.09375 0.714843,0.2226563 0,0.023437 0,0.09375 -0.04687,0.28125 l -1.617187,6.43359374 c -0.105469,0.41015625 -0.128906,0.52734375 -0.949219,0.52734375 -0.2812499,0 -0.3632812,0 -0.3632812,0.234375 0,0.1171874975 0.1289063,0.1171874975 0.1640625,0.1171874975 0.2226567,0 0.4687497,-0.0234374975 0.6914067,-0.0234374975 h 1.417968 c 0.210938,0 0.46875,0.0234374975 0.679688,0.0234374975 0.09375,0 0.222656,0 0.222656,-0.2226562475 0,-0.12890625 -0.105469,-0.12890625 -0.28125,-0.12890625 -0.726562,0 -0.726562,-0.09375 -0.726562,-0.2109375 0,-0.0117188 0,-0.09375 0.02344,-0.1875 l 0.796875,-3.22265629 h 1.429688 c 1.136718,0 1.359375,0.7265625 1.359375,1.1132813 0,0.1875 -0.128907,0.6445312 -0.210938,0.9609375 -0.128906,0.5507812 -0.164062,0.6796875 -0.164062,0.90234374 0,0.85546875 0.691406,1.2421875 1.488281,1.2421875 0.972656,0 1.394531,-1.18359375 1.394531,-1.34765624 0,-0.082031 -0.05859,-0.1171875 -0.128906,-0.1171875 -0.105469,0 -0.128906,0.070312 -0.152344,0.1640625 -0.28125,0.85546874 -0.773437,1.06640624 -1.066406,1.06640624 -0.304688,0 -0.492188,-0.12890625 -0.492188,-0.66796875 0,-0.29296875 0.140625,-1.37109379 0.152344,-1.44140629 0.05859,-0.4335937 0.05859,-0.4804687 0.05859,-0.5742187 0,-0.8789063 -0.703125,-1.2539063 -1.160156,-1.3945313 z m 0,0" style="fill:#000000;fill-opacity:1;fill-rule:nonzero;stroke:none"/>
    </g>
    <path id="path148" d="M 4443.78,3096.84 V 1918.76" style="fill:none;stroke:#000000;stroke-width:7.97011;stroke-linecap:butt;stroke-linejoin:miter;stroke-miterlimit:10;stroke-dasharray:51.2211, 51.2211;stroke-dashoffset:0;stroke-opacity:1" transform="matrix(0.13333333,0,0,-0.13333333,0,1122.6667)"/>
    <path id="path149" d="m 5.2968047,-2.9886094 c 0,-1.2773437 -1.0546875,-2.3203125 -2.3085938,-2.3203125 -1.3007812,0 -2.32031246,1.0664063 -2.32031246,2.3203125 0,1.2773438 1.05468746,2.32031253 2.30859376,2.32031253 1.3007812,0 2.3203125,-1.06640623 2.3203125,-2.32031253 z m 0,0" style="fill:#ff0000;fill-opacity:1;fill-rule:nonzero;stroke:none" aria-label="•" transform="matrix(1.3333333,0,0,1.3333333,588.504,870.352)"/>
    <g id="g149" aria-label="R=P⊕P&#10;Figure2.6:Ellipticcurvedoubling.&#10;Havinglooselydefnedthegeneralgroupoperation,wecannow(alsoloosely)" transform="matrix(1.3333333,0,0,1.3333333,511.77333,882.21467)">
      <path id="path150" d="m 4.3946094,-7.3475234 c 0.1171875,-0.4453125 0.1640625,-0.46875 0.6210937,-0.46875 h 0.8671875 c 1.03125,0 1.7929688,0.3046875 1.7929688,1.2421875 0,0.609375 -0.3164063,2.3671875 -2.71875,2.3671875 H 3.6094531 Z m 1.6640625,3.28125 c 1.4882812,-0.3164063 2.6484375,-1.2773438 2.6484375,-2.3085938 0,-0.9257812 -0.9492188,-1.7929687 -2.6132813,-1.7929687 h -3.234375 c -0.2460937,0 -0.3515625,0 -0.3515625,0.234375 0,0.1171875 0.082031,0.1171875 0.3164063,0.1171875 0.7148437,0 0.7148437,0.09375 0.7148437,0.2226562 0,0.023437 0,0.09375 -0.046875,0.28125 l -1.6171875,6.43359376 c -0.1054687,0.41015625 -0.1289062,0.52734375 -0.94921872,0.52734375 -0.28125,0 -0.36328125,0 -0.36328125,0.234375 0,0.1171875025 0.12890625,0.1171875025 0.1640625,0.1171875025 0.22265625,0 0.46874997,-0.0234375025 0.69140627,-0.0234375025 h 1.4179687 c 0.2109375,0 0.46875,0.0234375025 0.6796875,0.0234375025 0.09375,0 0.2226563,0 0.2226563,-0.2226562525 0,-0.12890625 -0.1054688,-0.12890625 -0.28125,-0.12890625 -0.7265625,0 -0.7265625,-0.09375 -0.7265625,-0.2109375 0,-0.0117188 0,-0.09375 0.023437,-0.1875 l 0.796875,-3.22265621 h 1.4296875 c 1.1367187,0 1.359375,0.7265625 1.359375,1.1132812 0,0.1875 -0.1289063,0.6445313 -0.2109375,0.9609375 -0.1289063,0.5507813 -0.1640625,0.6796875 -0.1640625,0.90234376 0,0.85546875 0.6914062,1.2421875 1.4882812,1.2421875 0.9726563,0 1.3945313,-1.18359375 1.3945313,-1.34765626 0,-0.082031 -0.058594,-0.1171875 -0.1289063,-0.1171875 -0.1054687,0 -0.1289062,0.070312 -0.1523437,0.1640625 -0.28125,0.85546876 -0.7734375,1.06640626 -1.0664063,1.06640626 -0.3046875,0 -0.4921875,-0.12890625 -0.4921875,-0.66796875 0,-0.29296875 0.140625,-1.37109371 0.1523438,-1.44140621 0.058594,-0.4335938 0.058594,-0.4804688 0.058594,-0.5742188 0,-0.8789062 -0.703125,-1.2539062 -1.160156,-1.3945312 z m 0,0" style="fill:#000000;fill-opacity:1;fill-rule:nonzero;stroke:none"/>
      <path id="path151" d="m 20.314531,-3.8670547 c 0.164063,0 0.375,0 0.375,-0.2226562 0,-0.2226563 -0.199218,-0.2226563 -0.375,-0.2226563 h -7.042968 c -0.175782,0 -0.386719,0 -0.386719,0.2109375 0,0.234375 0.199219,0.234375 0.386719,0.234375 z m 0,2.2148438 c 0.164063,0 0.375,0 0.375,-0.2109375 0,-0.234375 -0.199218,-0.234375 -0.375,-0.234375 h -7.042968 c -0.175782,0 -0.386719,0 -0.386719,0.2226562 0,0.2226563 0.199219,0.2226563 0.386719,0.2226563 z m 0,0" style="fill:#000000;fill-opacity:1;fill-rule:nonzero;stroke:none"/>
      <path id="path152" d="m 28.259844,-3.7967422 h 2.003906 c 1.652344,0 3.304688,-1.21875 3.304688,-2.5898437 0,-0.9257813 -0.796875,-1.78125 -2.296875,-1.78125 h -3.691407 c -0.234375,0 -0.339843,0 -0.339843,0.234375 0,0.1171875 0.105468,0.1171875 0.292968,0.1171875 0.726563,0 0.726563,0.09375 0.726563,0.2226562 0,0.023437 0,0.09375 -0.04687,0.28125 l -1.617188,6.43359376 c -0.105468,0.41015625 -0.128906,0.52734375 -0.960937,0.52734375 -0.234375,0 -0.351563,0 -0.351563,0.22265625 0,0.1289062525 0.105469,0.1289062525 0.175782,0.1289062525 0.234375,0 0.46875,-0.0234375025 0.691406,-0.0234375025 h 1.40625 c 0.222656,0 0.480469,0.0234375025 0.703125,0.0234375025 0.09375,0 0.222656,0 0.222656,-0.2226562525 0,-0.12890625 -0.105469,-0.12890625 -0.28125,-0.12890625 -0.714844,0 -0.726562,-0.0820313 -0.726562,-0.19921875 0,-0.0585938 0.01172,-0.140625 0.02344,-0.19921875 z m 0.855469,-3.5507812 c 0.117187,-0.4453125 0.164062,-0.46875 0.621093,-0.46875 H 30.92 c 0.902344,0 1.640625,0.28125 1.640625,1.1835937 0,0.3046875 -0.152344,1.3242188 -0.703125,1.875 -0.199219,0.2109375 -0.773437,0.6679688 -1.863281,0.6679688 h -1.6875 z m 0,0" style="fill:#000000;fill-opacity:1;fill-rule:nonzero;stroke:none"/>
      <path id="path153" d="m 45.213945,-2.9881484 c 0,-2.2148438 -1.804687,-3.984375 -3.960937,-3.984375 -2.214844,0 -3.984375,1.8046875 -3.984375,3.984375 0,2.21484371 1.804687,3.98437496 3.972656,3.98437496 2.203125,0 3.972656,-1.8046875 3.972656,-3.98437496 z M 37.57332,-3.1404922 c 0.09375,-1.8398437 1.5,-3.4101562 3.527344,-3.5273437 v 3.5273437 z m 3.820313,-3.5273437 c 2.015625,0.1171875 3.433594,1.6875 3.527344,3.5273437 H 41.393633 Z M 41.100664,0.69153906 C 39.096758,0.57435156 37.66707,-0.97252344 37.57332,-2.8475234 h 3.527344 z m 3.820313,-3.53906246 c -0.09375,1.87499996 -1.535157,3.42187496 -3.527344,3.53906246 V -2.8475234 Z m 0,0" style="fill:#000000;fill-opacity:1;fill-rule:nonzero;stroke:none"/>
      <path id="path154" d="m 52.019609,-3.7967422 h 2.003907 c 1.652343,0 3.304687,-1.21875 3.304687,-2.5898437 0,-0.9257813 -0.796875,-1.78125 -2.296875,-1.78125 h -3.691406 c -0.234375,0 -0.339844,0 -0.339844,0.234375 0,0.1171875 0.105469,0.1171875 0.292969,0.1171875 0.726562,0 0.726562,0.09375 0.726562,0.2226562 0,0.023437 0,0.09375 -0.04687,0.28125 l -1.617187,6.43359376 c -0.105469,0.41015625 -0.128906,0.52734375 -0.960938,0.52734375 -0.234375,0 -0.351562,0 -0.351562,0.22265625 0,0.1289062525 0.105469,0.1289062525 0.175781,0.1289062525 0.234375,0 0.46875,-0.0234375025 0.691406,-0.0234375025 h 1.40625 c 0.222657,0 0.480469,0.0234375025 0.703125,0.0234375025 0.09375,0 0.222657,0 0.222657,-0.2226562525 0,-0.12890625 -0.105469,-0.12890625 -0.28125,-0.12890625 -0.714844,0 -0.726563,-0.0820313 -0.726563,-0.19921875 0,-0.0585938 0.01172,-0.140625 0.02344,-0.19921875 z m 0.855469,-3.5507812 c 0.117188,-0.4453125 0.164063,-0.46875 0.621094,-0.46875 h 1.183594 c 0.902343,0 1.640625,0.28125 1.640625,1.1835937 0,0.3046875 -0.152344,1.3242188 -0.703125,1.875 -0.199219,0.2109375 -0.773438,0.6679688 -1.863282,0.6679688 h -1.6875 z m 0,0" style="fill:#000000;fill-opacity:1;fill-rule:nonzero;stroke:none"/>
      
    </g>
  </g>
</svg>