<svg version="1.1" id="svg1" width="327.00213719260233" height="277.0025783938761" viewBox="388.00253587379115 151.5014102045929 327.00213719260233 277.0025783938761" sodipodi:docname="2_1_1.pdf" xmlns:inkscape="http://www.inkscape.org/namespaces/inkscape" xmlns:sodipodi="http://sodipodi.sourceforge.net/DTD/sodipodi-0.dtd" xmlns="http://www.w3.org/2000/svg" xmlns:svg="http://www.w3.org/2000/svg" style="">
  <defs id="defs1"/>
  <sodipodi:namedview id="namedview1" pagecolor="#ffffff" bordercolor="#000000" borderopacity="0.25" inkscape:showpageshadow="2" inkscape:pageopacity="0.0" inkscape:pagecheckerboard="0" inkscape:deskcolor="#d1d1d1">
    <inkscape:page x="0" y="0" inkscape:label="1" id="page1" width="793.33331" height="1122.6667" margin="0" bleed="0"/>
  </sodipodi:namedview>
  <g id="g1" inkscape:groupmode="layer" inkscape:label="1">
    
    
    
    
    
    
    
    
    
    
    
    
    
    
    
    
    
    
    
    
    
    <path id="path45" d="m 4362.34,6210.67 c 0,0 3.57,-50.93 8.17,-77.37 2.04,-11.71 5.01,-22 8.17,-33.46 2.54,-9.23 5.16,-17.44 8.16,-26.54 2.65,-8.03 5.23,-15.17 8.17,-23.1 2.7,-7.28 5.26,-13.77 8.16,-20.98 2.74,-6.78 5.28,-12.83 8.17,-19.55 2.75,-6.41 5.29,-12.14 8.16,-18.5 2.77,-6.13 5.31,-11.62 8.17,-17.71 2.78,-5.92 5.31,-11.21 8.17,-17.09 2.78,-5.74 5.32,-10.88 8.16,-16.6 2.79,-5.6 5.32,-10.61 8.17,-16.19 2.79,-5.49 5.33,-10.4 8.16,-15.87 2.8,-5.39 5.33,-10.22 8.17,-15.6 2.8,-5.31 5.33,-10.07 8.16,-15.36 2.81,-5.25 5.34,-9.95 8.17,-15.18 2.81,-5.18 5.34,-9.84 8.17,-15.01 2.8,-5.14 5.33,-9.75 8.16,-14.87 2.81,-5.1 5.34,-9.67 8.16,-14.76 2.82,-5.07 5.35,-9.61 8.17,-14.66 2.81,-5.04 5.35,-9.56 8.17,-14.58 2.81,-5.01 5.34,-9.51 8.16,-14.51 2.82,-4.99 5.35,-9.47 8.17,-14.45 2.81,-4.98 5.34,-9.44 8.16,-14.41 2.82,-4.95 5.35,-9.4 8.17,-14.36 2.82,-4.94 5.34,-9.39 8.16,-14.33 2.82,-4.94 5.35,-9.37 8.17,-14.31 2.82,-4.93 5.35,-9.36 8.17,-14.29 2.81,-4.92 5.34,-9.35 8.16,-14.27 2.82,-4.93 5.35,-9.35 8.17,-14.27 2.81,-4.92 5.35,-9.35 8.16,-14.27 2.82,-4.92 5.35,-9.34 8.17,-14.26 2.82,-4.92 5.35,-9.35 8.16,-14.27 2.82,-4.93 5.35,-9.35 8.17,-14.28 2.82,-4.93 5.35,-9.36 8.17,-14.29 2.82,-4.93 5.34,-9.36 8.16,-14.3 2.82,-4.93 5.35,-9.37 8.17,-14.31 2.81,-4.95 5.35,-9.39 8.16,-14.33 2.82,-4.96 5.35,-9.4 8.17,-14.36 2.82,-4.96 5.35,-9.41 8.16,-14.37 2.82,-4.97 5.35,-9.43 8.17,-14.4 2.82,-4.98 5.35,-9.45 8.17,-14.43 2.82,-4.98 5.34,-9.46 8.16,-14.44 2.82,-5 5.35,-9.49 8.17,-14.48 2.82,-5.01 5.35,-9.5 8.16,-14.51 2.82,-5.02 5.35,-9.52 8.17,-14.54 2.82,-5.03 5.35,-9.54 8.16,-14.57 2.83,-5.04 5.35,-9.56 8.17,-14.6 2.82,-5.05 5.35,-9.58 8.17,-14.64 2.82,-5.05 8.16,-14.66 8.16,-14.66" style="fill:none;stroke:#000000;stroke-width:7.97011;stroke-linecap:butt;stroke-linejoin:miter;stroke-miterlimit:10;stroke-dasharray:none;stroke-opacity:1" transform="matrix(0.13333333,0,0,-0.13333333,0,1122.6667)"/>
    <path id="path46" d="m 4362.34,6211.33 c 0,0 3.57,50.93 8.17,77.37 2.04,11.71 5.01,22 8.17,33.46 2.54,9.23 5.16,17.44 8.16,26.54 2.65,8.03 5.23,15.17 8.17,23.1 2.7,7.28 5.26,13.78 8.16,20.98 2.74,6.78 5.28,12.83 8.17,19.55 2.75,6.41 5.29,12.14 8.16,18.5 2.77,6.13 5.31,11.62 8.17,17.71 2.78,5.92 5.31,11.21 8.17,17.09 2.78,5.74 5.32,10.88 8.16,16.6 2.79,5.6 5.32,10.62 8.17,16.19 2.79,5.49 5.33,10.4 8.16,15.87 2.8,5.39 5.33,10.22 8.17,15.6 2.8,5.31 5.33,10.07 8.16,15.36 2.81,5.25 5.34,9.95 8.17,15.18 2.81,5.18 5.34,9.84 8.17,15.01 2.8,5.14 5.33,9.75 8.16,14.88 2.81,5.09 5.34,9.66 8.16,14.75 2.82,5.07 5.35,9.61 8.17,14.66 2.81,5.04 5.35,9.56 8.17,14.58 2.81,5.01 5.34,9.51 8.16,14.51 2.82,4.99 5.35,9.47 8.17,14.45 2.81,4.98 5.34,9.44 8.16,14.41 2.82,4.95 5.35,9.4 8.17,14.36 2.82,4.94 5.34,9.39 8.16,14.33 2.82,4.94 5.35,9.37 8.17,14.31 2.82,4.93 5.35,9.36 8.17,14.29 2.81,4.92 5.34,9.35 8.16,14.27 2.82,4.93 5.35,9.35 8.17,14.27 2.81,4.92 5.35,9.35 8.16,14.27 2.82,4.92 5.35,9.34 8.17,14.26 2.82,4.92 5.35,9.35 8.16,14.27 2.82,4.93 5.35,9.35 8.17,14.28 2.82,4.93 5.35,9.36 8.17,14.29 2.82,4.93 5.34,9.36 8.16,14.3 2.82,4.94 5.35,9.37 8.17,14.31 2.81,4.95 5.35,9.39 8.16,14.33 2.82,4.96 5.35,9.4 8.17,14.36 2.82,4.96 5.35,9.41 8.16,14.37 2.82,4.97 5.35,9.43 8.17,14.4 2.82,4.98 5.35,9.45 8.17,14.43 2.82,4.98 5.34,9.46 8.16,14.45 2.82,4.99 5.35,9.48 8.17,14.47 2.82,5.01 5.35,9.5 8.16,14.51 2.82,5.02 5.35,9.52 8.17,14.54 2.82,5.03 5.35,9.54 8.16,14.57 2.83,5.04 5.35,9.56 8.17,14.6 2.82,5.05 5.35,9.58 8.17,14.64 2.82,5.05 8.16,14.66 8.16,14.66" style="fill:none;stroke:#000000;stroke-width:7.97011;stroke-linecap:butt;stroke-linejoin:miter;stroke-miterlimit:10;stroke-dasharray:none;stroke-opacity:1" transform="matrix(0.13333333,0,0,-0.13333333,0,1122.6667)"/>
    <path id="path47" d="m 3320.05,6210.88 c 0,0 4.29,-56.91 10.64,-86.18 2.6,-11.96 6.37,-22.37 10.64,-33.85 3.22,-8.69 6.59,-16.33 10.63,-24.67 3.37,-6.95 6.7,-13.06 10.64,-19.7 3.44,-5.8 6.75,-10.88 10.63,-16.39 3.49,-4.95 6.8,-9.27 10.64,-13.95 3.52,-4.28 6.82,-8 10.63,-12.02 3.55,-3.73 6.85,-6.96 10.64,-10.43 3.56,-3.26 6.86,-6.07 10.64,-9.08 3.57,-2.86 6.87,-5.31 10.63,-7.92 3.59,-2.49 6.89,-4.63 10.64,-6.89 3.6,-2.17 6.9,-4.01 10.63,-5.95 3.62,-1.88 6.92,-3.46 10.64,-5.11 3.62,-1.61 6.92,-2.95 10.63,-4.34 3.64,-1.36 6.94,-2.48 10.64,-3.62 3.64,-1.12 6.94,-2.04 10.64,-2.96 3.64,-0.9 6.94,-1.62 10.63,-2.32 3.65,-0.7 6.95,-1.23 10.64,-1.73 3.66,-0.5 6.95,-0.85 10.63,-1.16 3.67,-0.31 6.96,-0.5 10.64,-0.63 3.67,-0.12 6.96,-0.15 10.63,-0.1 3.67,0.05 6.97,0.17 10.64,0.39 3.67,0.22 6.97,0.49 10.64,0.87 3.68,0.39 6.97,0.81 10.63,1.35 3.68,0.55 6.98,1.11 10.64,1.81 3.68,0.7 6.98,1.4 10.63,2.25 3.69,0.87 6.99,1.7 10.64,2.71 3.69,1.01 6.98,1.99 10.63,3.14 3.7,1.17 6.99,2.28 10.64,3.58 3.69,1.32 6.99,2.56 10.63,4.01 3.7,1.47 7,2.86 10.64,4.46 3.7,1.62 6.99,3.14 10.63,4.89 3.71,1.78 7,3.44 10.64,5.35 3.7,1.94 7,3.74 10.64,5.81 3.7,2.1 7,4.05 10.63,6.28 3.71,2.27 7.01,4.37 10.64,6.77 3.71,2.46 7.01,4.72 10.63,7.3 3.72,2.65 7.02,5.08 10.64,7.85 3.72,2.85 7.02,5.46 10.63,8.44 3.73,3.07 7.03,5.89 10.64,9.1 3.73,3.32 7.04,6.36 10.64,9.82 3.74,3.6 7.04,6.9 10.63,10.65 3.76,3.93 7.06,7.53 10.64,11.63 3.77,4.33 7.08,8.28 10.63,12.8 3.8,4.84 7.12,9.27 10.64,14.32 3.84,5.54 7.19,10.6 10.63,16.4 3.93,6.6 7.33,12.63 10.64,19.57 4.12,8.63 7.98,16.42 10.63,25.61 6.03,20.82 10.64,61.96 10.64,61.96" style="fill:none;stroke:#000000;stroke-width:7.97011;stroke-linecap:butt;stroke-linejoin:miter;stroke-miterlimit:10;stroke-dasharray:none;stroke-opacity:1" transform="matrix(0.13333333,0,0,-0.13333333,0,1122.6667)"/>
    <path id="path48" d="m 3320.05,6211.12 c 0,0 4.29,56.91 10.64,86.18 2.6,11.96 6.37,22.38 10.64,33.85 3.22,8.69 6.59,16.33 10.63,24.67 3.37,6.95 6.7,13.06 10.64,19.7 3.44,5.8 6.75,10.88 10.63,16.39 3.49,4.95 6.8,9.27 10.64,13.95 3.52,4.28 6.82,8 10.63,12.02 3.55,3.73 6.85,6.96 10.64,10.43 3.56,3.26 6.86,6.07 10.64,9.08 3.57,2.86 6.87,5.31 10.63,7.92 3.59,2.49 6.89,4.63 10.64,6.89 3.6,2.17 6.9,4.01 10.63,5.95 3.62,1.88 6.92,3.46 10.64,5.11 3.62,1.61 6.92,2.95 10.63,4.34 3.64,1.36 6.94,2.48 10.64,3.62 3.64,1.13 6.94,2.04 10.64,2.96 3.64,0.9 6.94,1.62 10.63,2.32 3.65,0.7 6.95,1.23 10.64,1.73 3.66,0.5 6.95,0.85 10.63,1.16 3.67,0.31 6.96,0.5 10.64,0.63 3.67,0.12 6.96,0.16 10.63,0.1 3.67,-0.05 6.97,-0.17 10.64,-0.39 3.67,-0.22 6.97,-0.49 10.64,-0.87 3.68,-0.39 6.97,-0.81 10.63,-1.35 3.68,-0.55 6.98,-1.11 10.64,-1.81 3.68,-0.7 6.98,-1.4 10.63,-2.25 3.69,-0.86 6.99,-1.7 10.64,-2.71 3.69,-1.01 6.98,-1.99 10.63,-3.14 3.7,-1.17 6.99,-2.28 10.64,-3.58 3.69,-1.32 6.99,-2.56 10.63,-4.01 3.7,-1.47 7,-2.86 10.64,-4.46 3.7,-1.62 6.99,-3.14 10.63,-4.89 3.71,-1.78 7,-3.44 10.64,-5.35 3.7,-1.94 7,-3.74 10.64,-5.81 3.7,-2.1 7,-4.05 10.63,-6.28 3.71,-2.27 7.01,-4.37 10.64,-6.77 3.71,-2.46 7.01,-4.72 10.63,-7.3 3.72,-2.65 7.02,-5.08 10.64,-7.85 3.72,-2.85 7.02,-5.46 10.63,-8.44 3.73,-3.07 7.03,-5.89 10.64,-9.1 3.73,-3.32 7.04,-6.36 10.64,-9.82 3.74,-3.6 7.04,-6.9 10.63,-10.65 3.76,-3.93 7.06,-7.53 10.64,-11.63 3.77,-4.32 7.08,-8.28 10.63,-12.8 3.8,-4.84 7.12,-9.27 10.64,-14.32 3.84,-5.54 7.19,-10.6 10.63,-16.4 3.93,-6.6 7.33,-12.63 10.64,-19.57 4.12,-8.63 7.98,-16.42 10.63,-25.61 6.03,-20.82 10.64,-61.96 10.64,-61.96" style="fill:none;stroke:#000000;stroke-width:7.97011;stroke-linecap:butt;stroke-linejoin:miter;stroke-miterlimit:10;stroke-dasharray:none;stroke-opacity:1" transform="matrix(0.13333333,0,0,-0.13333333,0,1122.6667)"/>
    <path id="path49" d="m 3104.19,6082.02 c 0,0 22.17,-7.75 33.84,-11.84 11.68,-4.09 22.17,-7.76 33.85,-11.84 11.67,-4.09 22.16,-7.76 33.84,-11.85 11.67,-4.09 22.16,-7.76 33.84,-11.85 11.68,-4.08 22.16,-7.75 33.84,-11.84 11.68,-4.09 22.17,-7.76 33.84,-11.85 11.68,-4.08 22.17,-7.75 33.85,-11.84 11.68,-4.09 22.16,-7.76 33.84,-11.84 11.68,-4.09 22.16,-7.76 33.84,-11.85 11.68,-4.09 22.16,-7.76 33.84,-11.85 11.68,-4.08 22.17,-7.75 33.85,-11.84 11.67,-4.09 22.16,-7.76 33.84,-11.84 11.68,-4.09 22.16,-7.76 33.84,-11.85 11.68,-4.09 22.16,-7.75 33.84,-11.84 11.68,-4.09 22.16,-7.76 33.84,-11.85 11.68,-4.08 22.17,-7.76 33.85,-11.84 11.67,-4.09 22.16,-7.76 33.84,-11.85 11.68,-4.09 22.16,-7.75 33.84,-11.84 11.68,-4.09 22.17,-7.76 33.85,-11.85 11.67,-4.08 22.16,-7.76 33.84,-11.84 11.67,-4.09 22.16,-7.76 33.84,-11.85 11.67,-4.08 22.16,-7.75 33.84,-11.84 11.68,-4.09 22.16,-7.76 33.84,-11.85 11.68,-4.08 22.17,-7.75 33.85,-11.84 11.67,-4.09 22.16,-7.76 33.84,-11.85 11.68,-4.08 22.16,-7.75 33.84,-11.84 11.68,-4.09 22.16,-7.76 33.84,-11.85 11.68,-4.09 22.16,-7.75 33.84,-11.84 11.68,-4.09 22.17,-7.76 33.85,-11.85 11.67,-4.08 22.16,-7.75 33.84,-11.84 11.68,-4.09 22.16,-7.76 33.84,-11.84 11.68,-4.09 22.16,-7.76 33.84,-11.85 11.68,-4.09 22.17,-7.76 33.84,-11.85 11.68,-4.08 22.17,-7.75 33.85,-11.84 11.68,-4.09 22.16,-7.76 33.84,-11.84 11.68,-4.09 22.16,-7.76 33.84,-11.85 11.68,-4.09 22.17,-7.75 33.85,-11.84 11.67,-4.09 22.16,-7.76 33.84,-11.85 11.68,-4.08 22.16,-7.76 33.84,-11.84 11.68,-4.09 22.16,-7.76 33.84,-11.85 11.68,-4.09 22.16,-7.75 33.84,-11.84 11.68,-4.09 22.17,-7.76 33.85,-11.85 11.67,-4.09 22.16,-7.75 33.84,-11.84 11.68,-4.09 22.16,-7.76 33.84,-11.85 11.68,-4.08 22.16,-7.76 33.84,-11.84 11.68,-4.09 22.17,-7.76 33.84,-11.85 11.68,-4.09 22.17,-7.75 33.85,-11.84 11.68,-4.09 22.16,-7.76 33.84,-11.85 11.68,-4.08 33.84,-11.84 33.84,-11.84" style="fill:none;stroke:#000000;stroke-width:7.97011;stroke-linecap:butt;stroke-linejoin:miter;stroke-miterlimit:10;stroke-dasharray:none;stroke-opacity:1" transform="matrix(0.13333333,0,0,-0.13333333,0,1122.6667)"/>
    <g id="g49" aria-label="ℓ&#10;′&#10;:y=−&#10;x" transform="matrix(1.3333333,0,0,1.3333333,470.62667,386.81467)">
      <path id="path50" d="m 1.1003125,-2.0260391 c -0.75,0.7382813 -0.94921875,0.9140625 -0.94921875,0.9609375 0,0.046875 0.046875,0.12890629 0.12890625,0.12890629 0.0703125,0 0.75,-0.65624999 0.84375,-0.76171879 0.070312,0.79687504 0.375,1.83984379 1.3007813,1.83984379 0.4804687,0 0.9140625,-0.29296875 1.1015625,-0.4453125 0.1523437,-0.1171875 0.7265625,-0.609375 0.7265625,-0.71484379 0,-0.058594 -0.058594,-0.1289062 -0.1171875,-0.1289062 -0.046875,0 -0.2226563,0.17578124 -0.28125,0.22265624 -0.4101563,0.41015625 -0.9375,0.83203125 -1.4179688,0.83203125 -0.6445312,0 -0.7265625,-0.93749999 -0.7265625,-1.58203129 0,-0.1171875 0,-0.6210937 0.082031,-0.7148437 0.703125,-0.7265625 2.9179687,-3.0117188 2.9179687,-5.1328125 0,-0.46875 -0.1757812,-0.890625 -0.6914062,-0.890625 -1.1132813,0 -2.0859375,2.4609375 -2.25,2.9179687 -0.046875,0.1171875 -0.7382813,1.9570313 -0.6679685,3.46875 z m 0.7148438,-0.75 c 0.011719,-0.070312 0.5507812,-3.1992187 1.5585937,-4.875 0.1992188,-0.3164062 0.3984375,-0.5273437 0.6445313,-0.5273437 0.3984375,0 0.421875,0.3867187 0.421875,0.6445312 0,0.421875 -0.1171875,1.5 -1.1484375,3 -0.3164063,0.4453125 -0.796875,1.0429688 -1.4765625,1.7578125 z m 0,0" style="fill:#000000;fill-opacity:1;fill-rule:nonzero;stroke:none"/>
      <path id="path51" d="m 7.0534375,-8.1285781 c 0.011719,-0.035156 0.046875,-0.1289063 0.046875,-0.2109375 0,-0.2460938 -0.2226562,-0.4335938 -0.4570312,-0.4335938 -0.3164063,0 -0.3984375,0.2578125 -0.421875,0.3515625 l -1.0195313,3.46875 c 0,0.011719 -0.035156,0.1171875 -0.035156,0.1289063 0,0.1054687 0.2460937,0.1757812 0.3046875,0.1757812 0.046875,0 0.082031,-0.035156 0.1171875,-0.1171875 z m 0,0" style="fill:#000000;fill-opacity:1;fill-rule:nonzero;stroke:none"/>
      <path id="path52" d="m 13.243867,-4.5807266 c 0,-0.3164062 -0.28125,-0.5742187 -0.574219,-0.5742187 -0.351562,0 -0.585937,0.28125 -0.585937,0.5742187 0,0.3632813 0.292969,0.5859375 0.574219,0.5859375 0.316406,0 0.585937,-0.2460937 0.585937,-0.5859375 z m 0,3.99609379 c 0,-0.328125 -0.28125,-0.57421879 -0.574219,-0.57421879 -0.351562,0 -0.585937,0.28125004 -0.585937,0.57421879 0,0.36328125 0.292969,0.5859375 0.574219,0.5859375 0.316406,0 0.585937,-0.24609375 0.585937,-0.5859375 z m 0,0" style="fill:#000000;fill-opacity:1;fill-rule:nonzero;stroke:none"/>
      <path id="path53" d="m 20.781953,1.3372422 c -0.316406,0.4570312 -0.785156,0.8671875 -1.371094,0.8671875 -0.140625,0 -0.714843,-0.023437 -0.902343,-0.5742188 0.04687,0.011719 0.105468,0.011719 0.128906,0.011719 0.351562,0 0.597656,-0.3164063 0.597656,-0.5859375 0,-0.28125001 -0.234375,-0.37500001 -0.410156,-0.37500001 -0.1875,0 -0.609375,0.140625 -0.609375,0.72656251 0,0.609375 0.515625,1.03125 1.195312,1.03125 1.195313,0 2.402344,-1.1015625 2.742188,-2.42578126 l 1.171875,-4.66406254 c 0.01172,-0.058594 0.03516,-0.1289062 0.03516,-0.1992187 0,-0.1757813 -0.152344,-0.3046875 -0.328125,-0.3046875 -0.105469,0 -0.363281,0.046875 -0.457031,0.4101562 l -0.878906,3.515625 c -0.05859,0.2109375 -0.05859,0.23437504 -0.152344,0.37500004 -0.246094,0.328125 -0.644531,0.73828125 -1.207031,0.73828125 -0.679688,0 -0.738282,-0.65625 -0.738282,-0.98437499 0,-0.6796875 0.328125,-1.6054688 0.644532,-2.4609375 0.140625,-0.3515625 0.210937,-0.515625 0.210937,-0.75 0,-0.5039063 -0.363281,-0.9609375 -0.949219,-0.9609375 -1.101562,0 -1.535156,1.734375 -1.535156,1.828125 0,0.046875 0.04687,0.1054687 0.128906,0.1054687 0.105469,0 0.117188,-0.046875 0.164063,-0.2109375 0.292969,-1.0078125 0.738281,-1.4765625 1.207031,-1.4765625 0.105469,0 0.316406,0 0.316406,0.3867188 0,0.3164062 -0.140625,0.65625 -0.316406,1.1132812 -0.585937,1.5703125 -0.585937,1.9570313 -0.585937,2.25 0,1.13671879 0.808593,1.39453129 1.40625,1.39453129 0.351562,0 0.785156,-0.10546875 1.195312,-0.55078125 l 0.01172,0.0117188 c -0.175781,0.703125 -0.292969,1.171875 -0.714844,1.75781256 z m 0,0" style="fill:#000000;fill-opacity:1;fill-rule:nonzero;stroke:none"/>
      <path id="path54" d="m 35.075898,-3.8658828 c 0.164063,0 0.375,0 0.375,-0.2226563 0,-0.2226562 -0.199218,-0.2226562 -0.375,-0.2226562 H 28.03293 c -0.175782,0 -0.386719,0 -0.386719,0.2109375 0,0.234375 0.199219,0.234375 0.386719,0.234375 z m 0,2.2148437 c 0.164063,0 0.375,0 0.375,-0.2109375 0,-0.234375 -0.199218,-0.234375 -0.375,-0.234375 H 28.03293 c -0.175782,0 -0.386719,0 -0.386719,0.2226563 0,0.2226562 0.199219,0.2226562 0.386719,0.2226562 z m 0,0" style="fill:#000000;fill-opacity:1;fill-rule:nonzero;stroke:none"/>
      <path id="path55" d="m 47.377656,-2.7526016 c 0.175782,0 0.398438,0 0.398438,-0.234375 0,-0.234375 -0.222656,-0.234375 -0.398438,-0.234375 h -6.515625 c -0.164062,0 -0.386718,0 -0.386718,0.234375 0,0.234375 0.222656,0.234375 0.386718,0.234375 z m 0,0" style="fill:#000000;fill-opacity:1;fill-rule:nonzero;stroke:none"/>
      <path id="path56" d="m 53.916719,-7.8561172 c -0.351563,0.082031 -0.375,0.3984375 -0.375,0.421875 0,0.1757813 0.140625,0.3046875 0.316406,0.3046875 0.175781,0 0.445313,-0.140625 0.445313,-0.4804687 0,-0.4570313 -0.503907,-0.5859375 -0.796875,-0.5859375 -0.375,0 -0.679688,0.2695312 -0.855469,0.5742187 -0.175781,-0.421875 -0.597656,-0.5742187 -0.925781,-0.5742187 -0.867188,0 -1.347657,0.9960937 -1.347657,1.21875 0,0.070312 0.05859,0.1054687 0.117188,0.1054687 0.09375,0 0.105469,-0.035156 0.140625,-0.140625 0.175781,-0.5742187 0.65625,-0.9609375 1.066406,-0.9609375 0.316406,0 0.46875,0.2226563 0.46875,0.515625 0,0.1523438 -0.09375,0.5273438 -0.164062,0.7734375 -0.05859,0.234375 -0.234375,0.9492188 -0.269532,1.0898438 -0.105468,0.4335937 -0.398437,0.7734375 -0.761718,0.7734375 -0.02344,0 -0.234375,0 -0.398438,-0.1171875 0.363281,-0.082031 0.363281,-0.421875 0.363281,-0.421875 0,-0.1875 -0.140625,-0.3046875 -0.316406,-0.3046875 -0.222656,0 -0.445312,0.1875 -0.445312,0.4921875 0,0.3632812 0.386718,0.5742187 0.796875,0.5742187 0.421875,0 0.714843,-0.3164062 0.855468,-0.5742187 0.175782,0.3867187 0.539063,0.5742187 0.925782,0.5742187 0.867187,0 1.347656,-0.9960937 1.347656,-1.21875 0,-0.082031 -0.05859,-0.1054687 -0.117188,-0.1054687 -0.09375,0 -0.117187,0.058594 -0.140625,0.1289062 -0.152343,0.5390625 -0.609375,0.9726563 -1.078125,0.9726563 -0.257812,0 -0.445312,-0.1757813 -0.445312,-0.515625 0,-0.1523438 0.04687,-0.3398438 0.152344,-0.7851563 0.05859,-0.234375 0.234375,-0.9375 0.269531,-1.0898437 0.117187,-0.421875 0.398437,-0.7617188 0.75,-0.7617188 0.04687,0 0.246094,0 0.421875,0.1171875 z m 0,0" style="fill:#000000;fill-opacity:1;fill-rule:nonzero;stroke:none"/>
    </g>
    <rect id="rect56" x="0" y="0" width="1" height="1" style="fill:#000000;fill-opacity:1;fill-rule:nonzero" transform="matrix(6.4,0,0,-0.64,537.17067,383.15067)"/>
    <g id="g56" aria-label="2&#10;−&#10;3" transform="matrix(1.3333333,0,0,1.3333333,537.50667,392.25467)">
      <path id="path57" d="m 2.2508594,-1.6294766 c 0.1289062,-0.1171875 0.4570312,-0.375 0.5859375,-0.4921875 0.4921875,-0.4570312 0.9609375,-0.890625 0.9609375,-1.6171875 0,-0.9492187 -0.796875,-1.5585937 -1.7929688,-1.5585937 -0.9492187,0 -1.58203122,0.7265625 -1.58203122,1.4296875 0,0.3984375 0.31640625,0.4453125 0.421875,0.4453125 0.16406252,0 0.41015622,-0.1171875 0.41015622,-0.421875 0,-0.4101563 -0.39843747,-0.4101563 -0.49218747,-0.4101563 0.234375,-0.5859375 0.77343747,-0.7851562 1.16015627,-0.7851562 0.7382812,0 1.125,0.6328125 1.125,1.3007812 0,0.8320313 -0.5859375,1.4296875 -1.5234375,2.4023438 l -1.00781252,1.03124999 c -0.09375,0.09375 -0.09375,0.10546875 -0.09375,0.3046874975 H 3.5750781 L 3.7977344,-1.4302578 H 3.5516406 c -0.023437,0.1640625 -0.082031,0.56249999 -0.1757812,0.71484374 -0.046875,0.0585938 -0.65625,0.0585938 -0.7851563,0.0585938 H 1.1727344 Z m 0,0" style="fill:#000000;fill-opacity:1;fill-rule:nonzero;stroke:none"/>
      <path id="path58" d="m 16.298711,-6.8326016 c 0.175781,0 0.398437,0 0.398437,-0.234375 0,-0.234375 -0.222656,-0.234375 -0.398437,-0.234375 H 9.7830859 c -0.1640625,0 -0.3867187,0 -0.3867187,0.234375 0,0.234375 0.2226562,0.234375 0.3867187,0.234375 z m 0,0" style="fill:#000000;fill-opacity:1;fill-rule:nonzero;stroke:none"/>
      <path id="path59" d="m 23.61707,-11.420492 c 0.632813,0 1.03125,0.457031 1.03125,1.300781 0,0.9960938 -0.574218,1.2890626 -0.996093,1.2890626 -0.433594,0 -1.03125,-0.1640625 -1.3125,-0.5859375 0.292968,0 0.492187,-0.1757813 0.492187,-0.4453125 0,-0.2578126 -0.1875,-0.4335936 -0.445312,-0.4335936 -0.210938,0 -0.433594,0.128906 -0.433594,0.4570311 0,0.75 0.808594,1.2421875 1.722656,1.2421875 1.054688,0 1.792969,-0.7265625 1.792969,-1.5234376 0,-0.667969 -0.515625,-1.265625 -1.335938,-1.441406 0.632813,-0.222656 1.101563,-0.773438 1.101563,-1.40625 0,-0.632813 -0.714844,-1.089844 -1.546875,-1.089844 -0.855469,0 -1.5,0.457031 -1.5,1.066406 0,0.292969 0.199219,0.421875 0.410156,0.421875 0.246094,0 0.410156,-0.175781 0.410156,-0.410156 0,-0.292969 -0.257812,-0.398437 -0.433593,-0.410156 0.339843,-0.433594 0.949218,-0.46875 1.089843,-0.46875 0.210938,0 0.808594,0.07031 0.808594,0.890625 0,0.5625 -0.222656,0.890625 -0.339844,1.019531 -0.234375,0.246094 -0.421875,0.257813 -0.902343,0.292969 -0.152344,0.01172 -0.222657,0.02344 -0.222657,0.117187 0,0.117188 0.07031,0.117188 0.210938,0.117188 z m 0,0" style="fill:#000000;fill-opacity:1;fill-rule:nonzero;stroke:none"/>
    </g>
    <rect id="rect59" x="0" y="0" width="1" height="1" style="fill:#000000;fill-opacity:1;fill-rule:nonzero" transform="matrix(5.76,0,0,-0.64,566.29067,383.15067)"/>
    <path id="path60" d="m 2.2514453,-1.6294766 c 0.1289063,-0.1171875 0.4570313,-0.375 0.5859375,-0.4921875 0.4921875,-0.4570312 0.9609375,-0.890625 0.9609375,-1.6171875 0,-0.9492187 -0.796875,-1.5585937 -1.7929687,-1.5585937 -0.9492188,0 -1.58203129,0.7265625 -1.58203129,1.4296875 0,0.3984375 0.31640625,0.4453125 0.421875,0.4453125 0.16406249,0 0.41015629,-0.1171875 0.41015629,-0.421875 0,-0.4101563 -0.39843754,-0.4101563 -0.49218754,-0.4101563 0.234375,-0.5859375 0.77343754,-0.7851562 1.16015624,-0.7851562 0.7382813,0 1.125,0.6328125 1.125,1.3007812 0,0.8320313 -0.5859375,1.4296875 -1.5234375,2.4023438 l -1.00781249,1.03124999 c -0.09375,0.09375 -0.09375,0.10546875 -0.09375,0.3046874975 H 3.5756641 L 3.7983203,-1.4302578 H 3.5522266 c -0.023437,0.1640625 -0.082031,0.56249999 -0.1757813,0.71484374 -0.046875,0.0585938 -0.65625,0.0585938 -0.7851562,0.0585938 H 1.1733203 Z m 0,0" style="fill:#000000;fill-opacity:1;fill-rule:nonzero;stroke:none" aria-label="2" transform="matrix(1.3333333,0,0,1.3333333,566.30667,392.25467)"/>
    <path id="path61" d="m 5.2973828,-2.9892969 c 0,-1.2773437 -1.0546875,-2.3203125 -2.3085937,-2.3203125 -1.3007813,0 -2.32031254,1.0664063 -2.32031254,2.3203125 0,1.2773438 1.05468754,2.32031253 2.30859374,2.32031253 1.3007813,0 2.3203125,-1.06640623 2.3203125,-2.32031253 z m 0,0" style="fill:#ff0000;fill-opacity:1;fill-rule:nonzero;stroke:none" aria-label="•" transform="matrix(1.3333333,0,0,1.3333333,459.02667,332.44667)"/>
    <g id="g61" aria-label="(−1,−1)" transform="matrix(1.3333333,0,0,1.3333333,418.52533,348.15867)">
      <path id="path62" d="m 3.8892031,2.9073672 c 0,-0.035156 0,-0.058594 -0.2109375,-0.2695313 -1.1953125,-1.2070312 -1.8632812,-3.17578121 -1.8632812,-5.6132812 0,-2.3203125 0.5625,-4.3125 1.9453125,-5.7304688 0.1289062,-0.1054687 0.1289062,-0.1289062 0.1289062,-0.1640625 0,-0.070312 -0.070312,-0.09375 -0.1171875,-0.09375 -0.1523437,0 -1.1367187,0.8554688 -1.7226562,2.0273438 -0.609375,1.2070312 -0.8789063,2.4960937 -0.8789063,3.9609375 0,1.0664062 0.1640625,2.48437499 0.7851563,3.76171874 0.703125,1.44140626 1.6875,2.21484376 1.8164062,2.21484376 0.046875,0 0.1171875,-0.023437 0.1171875,-0.09375 z m 0,0" style="fill:#000000;fill-opacity:1;fill-rule:nonzero;stroke:none"/>
      <path id="path63" d="m 12.458539,-2.7527891 c 0.175781,0 0.398438,0 0.398438,-0.234375 0,-0.234375 -0.222657,-0.234375 -0.398438,-0.234375 H 5.9429141 c -0.1640625,0 -0.3867188,0 -0.3867188,0.234375 0,0.234375 0.2226563,0.234375 0.3867188,0.234375 z m 0,0" style="fill:#000000;fill-opacity:1;fill-rule:nonzero;stroke:none"/>
      <path id="path64" d="m 17.245648,-7.6629453 c 0,-0.2695313 0,-0.28125 -0.246093,-0.28125 -0.28125,0.3164062 -0.878907,0.7617187 -2.109375,0.7617187 v 0.3515625 c 0.269531,0 0.867187,0 1.523437,-0.3164062 v 6.22265624 c 0,0.43359375 -0.03516,0.57421875 -1.078125,0.57421875 h -0.375 v 0.3515625 c 0.316406,-0.0234375 1.476563,-0.0234375 1.875,-0.0234375 0.398438,0 1.546875,0 1.863281,0.0234375 v -0.3515625 h -0.363281 c -1.054687,0 -1.089844,-0.140625 -1.089844,-0.57421875 z m 0,0" style="fill:#000000;fill-opacity:1;fill-rule:nonzero;stroke:none"/>
      <path id="path65" d="m 22.01225,0.04799219 c 0,-0.69140625 -0.222656,-1.20703129 -0.714844,-1.20703129 -0.386719,0 -0.574219,0.31640629 -0.574219,0.57421879 0,0.2578125 0.175782,0.5859375 0.585938,0.5859375 0.152344,0 0.28125,-0.046875 0.386719,-0.15234375 0.02344,-0.0234375 0.03516,-0.0234375 0.04687,-0.0234375 0.03516,0 0.03516,0.1640625 0.03516,0.22265625 0,0.3984375 -0.08203,1.17187501 -0.773438,1.94531251 -0.128906,0.1523437 -0.128906,0.1757812 -0.128906,0.1992187 0,0.058594 0.05859,0.1171875 0.117188,0.1171875 0.09375,0 1.019531,-0.890625 1.019531,-2.26171871 z m 0,0" style="fill:#000000;fill-opacity:1;fill-rule:nonzero;stroke:none"/>
      <path id="path66" d="m 32.857953,-2.7527891 c 0.175781,0 0.398438,0 0.398438,-0.234375 0,-0.234375 -0.222657,-0.234375 -0.398438,-0.234375 h -6.515625 c -0.164062,0 -0.386719,0 -0.386719,0.234375 0,0.234375 0.222657,0.234375 0.386719,0.234375 z m 0,0" style="fill:#000000;fill-opacity:1;fill-rule:nonzero;stroke:none"/>
      <path id="path67" d="m 37.645062,-7.6629453 c 0,-0.2695313 0,-0.28125 -0.246093,-0.28125 -0.28125,0.3164062 -0.878907,0.7617187 -2.109375,0.7617187 v 0.3515625 c 0.269531,0 0.867187,0 1.523437,-0.3164062 v 6.22265624 c 0,0.43359375 -0.03516,0.57421875 -1.078125,0.57421875 h -0.375 v 0.3515625 c 0.316406,-0.0234375 1.476563,-0.0234375 1.875,-0.0234375 0.398438,0 1.546875,0 1.863281,0.0234375 v -0.3515625 h -0.363281 c -1.054687,0 -1.089844,-0.140625 -1.089844,-0.57421875 z m 5.81543,4.6875 c 0,-0.9140625 -0.128906,-2.390625 -0.796875,-3.7734375 -0.703125,-1.4414063 -1.675781,-2.2148438 -1.816406,-2.2148438 -0.04687,0 -0.105469,0.023437 -0.105469,0.09375 0,0.035156 0,0.058594 0.199219,0.2695313 1.195312,1.2070312 1.875,3.1757812 1.875,5.6132812 0,2.32031254 -0.5625,4.3125 -1.957031,5.7304688 -0.117188,0.1054687 -0.117188,0.1289062 -0.117188,0.1640625 0,0.070312 0.05859,0.09375 0.105469,0.09375 0.164062,0 1.136719,-0.8554688 1.722656,-2.02734376 0.609375,-1.21875 0.890625,-2.51953124 0.890625,-3.94921874 z m 0,0" style="fill:#000000;fill-opacity:1;fill-rule:nonzero;stroke:none"/>
    </g>
    <path id="path68" d="m 5.2960781,-2.9881328 c 0,-1.2773438 -1.0546875,-2.3203125 -2.3085937,-2.3203125 -1.3007813,0 -2.32031252,1.0664062 -2.32031252,2.3203125 0,1.2773437 1.05468752,2.32031249 2.30859372,2.32031249 1.3007813,0 2.3203125,-1.06640629 2.3203125,-2.32031249 z m 0,0" style="fill:#ff0000;fill-opacity:1;fill-rule:nonzero;stroke:none" aria-label="•" transform="matrix(1.3333333,0,0,1.3333333,618.712,207.76933)"/>
    <g id="g68" aria-label="(&#10;9" transform="matrix(1.3333333,0,0,1.3333333,631.072,218.28533)">
      <path id="path69" d="m 3.8893594,2.9061172 c 0,-0.035156 0,-0.058594 -0.2109375,-0.2695313 -1.1953125,-1.2070312 -1.8632813,-3.17578121 -1.8632813,-5.6132812 0,-2.3203125 0.5625,-4.3125 1.9453125,-5.7304688 0.1289063,-0.1054687 0.1289063,-0.1289062 0.1289063,-0.1640625 0,-0.070312 -0.070312,-0.09375 -0.1171875,-0.09375 -0.1523438,0 -1.1367188,0.8554688 -1.7226563,2.0273438 -0.609375,1.2070312 -0.8789062,2.4960937 -0.8789062,3.9609375 0,1.0664062 0.1640625,2.48437499 0.7851562,3.76171874 0.703125,1.44140626 1.6875,2.21484376 1.8164063,2.21484376 0.046875,0 0.1171875,-0.023437 0.1171875,-0.09375 z m 0,0" style="fill:#000000;fill-opacity:1;fill-rule:nonzero;stroke:none"/>
      <path id="path70" d="m 8.8903359,-7.0343125 c 0,1.9453125 -0.9257812,2.2851563 -1.3945312,2.2851563 -0.1640625,0 -0.5742188,-0.023437 -0.796875,-0.2695313 0.3515625,-0.035156 0.375,-0.2929687 0.375,-0.375 0,-0.2460937 -0.1757813,-0.375 -0.375,-0.375 -0.140625,0 -0.375,0.082031 -0.375,0.3867188 0,0.5390625 0.4453125,0.8671875 1.1835937,0.8671875 1.0898438,0 2.1210938,-1.078125 2.1210938,-2.7890625 0,-2.0742188 -0.9140625,-2.671875 -1.734375,-2.671875 -0.9375,0 -1.78125,0.7265625 -1.78125,1.7695312 0,1.03125 0.7734375,1.78125 1.6757812,1.78125 0.5625,0 0.9023438,-0.3632812 1.1015625,-0.7617187 z m -1.078125,0.3867188 c -0.3632812,0 -0.5976562,-0.1640625 -0.7734375,-0.4570313 -0.1757812,-0.3046875 -0.1757812,-0.6796875 -0.1757812,-1.0898437 0,-0.46875 0,-0.8085938 0.2109375,-1.125 C 7.2731484,-9.6124375 7.5309609,-9.7765 7.9059609,-9.7765 c 0.5273438,0 0.7617188,0.5273438 0.7851563,0.5742188 0.1757812,0.3867187 0.1757812,1.0078125 0.1757812,1.171875 0,0.6210937 -0.3398437,1.3828125 -1.0546875,1.3828125 z m 0,0" style="fill:#000000;fill-opacity:1;fill-rule:nonzero;stroke:none"/>
    </g>
    <rect id="rect70" x="0" y="0" width="1" height="1" style="fill:#000000;fill-opacity:1;fill-rule:nonzero" transform="matrix(5.76,0,0,-0.64,638.736,214.62133)"/>
    <g id="g70" aria-label="4&#10;,&#10;21" transform="matrix(1.3333333,0,0,1.3333333,638.752,223.724)">
      <path id="path71" d="m 3.1420547,-5.1572578 c 0,-0.1640625 0,-0.2226563 -0.1640625,-0.2226563 -0.1054688,0 -0.1171875,0.011719 -0.1992188,0.1171875 l -2.54296871,3.6914063 v 0.2578125 H 2.4858047 v 0.66796874 c 0,0.29296875 -0.023437,0.38671875 -0.6328125,0.38671875 h -0.1875 v 0.2578125 c 0.6796875,-0.0234375 0.6914062,-0.0234375 1.1484375,-0.0234375 0.4570312,0 0.46875,0 1.1484375,0.0234375 v -0.2578125 h -0.1875 c -0.609375,0 -0.6328125,-0.09375 -0.6328125,-0.38671875 V -1.3135078 h 0.84375 v -0.2578125 h -0.84375 z m -0.5976563,0.6445312 v 2.9414063 H 0.51705469 Z m 0,0" style="fill:#000000;fill-opacity:1;fill-rule:nonzero;stroke:none"/>
      <path id="path72" d="m 7.732875,-4.0322578 c 0,-0.6914063 -0.2226562,-1.2070313 -0.7148437,-1.2070313 -0.3867188,0 -0.5742188,0.3164063 -0.5742188,0.5742188 0,0.2578125 0.1757813,0.5859375 0.5859375,0.5859375 0.1523438,0 0.28125,-0.046875 0.3867188,-0.1523438 0.023437,-0.023437 0.035156,-0.023437 0.046875,-0.023437 0.035156,0 0.035156,0.1640625 0.035156,0.2226563 0,0.3984375 -0.082031,1.171875 -0.7734375,1.9453125 -0.1289062,0.1523437 -0.1289062,0.1757812 -0.1289062,0.1992187 0,0.058594 0.058594,0.1171875 0.1171875,0.1171875 0.09375,0 1.0195312,-0.890625 1.0195314,-2.2617192 z m 0,0" style="fill:#000000;fill-opacity:1;fill-rule:nonzero;stroke:none"/>
      <path id="path73" d="m 14.131313,-10.38968 c 0.128906,-0.117187 0.457031,-0.375 0.585937,-0.492187 0.492188,-0.457031 0.960938,-0.890625 0.960938,-1.617188 0,-0.949218 -0.796875,-1.558593 -1.792969,-1.558593 -0.949219,0 -1.582031,0.726562 -1.582031,1.429687 0,0.398438 0.316406,0.445313 0.421875,0.445313 0.164062,0 0.410156,-0.117188 0.410156,-0.421875 0,-0.410157 -0.398438,-0.410157 -0.492188,-0.410157 0.234375,-0.585937 0.773438,-0.785156 1.160157,-0.785156 0.738281,0 1.125,0.632813 1.125,1.300781 0,0.832032 -0.585938,1.429688 -1.523438,2.402344 l -1.007812,1.0312501 c -0.09375,0.09375 -0.09375,0.1054687 -0.09375,0.3046875 h 3.152343 l 0.222657,-1.4296876 h -0.246094 c -0.02344,0.164063 -0.08203,0.5625001 -0.175781,0.7148438 -0.04687,0.058594 -0.65625,0.058594 -0.785157,0.058594 h -1.417968 z m 4.453125,-3.445312 c 0,-0.222656 -0.02344,-0.222656 -0.234375,-0.222656 -0.328125,0.316406 -0.75,0.503906 -1.511719,0.503906 v 0.269531 c 0.222656,0 0.644531,0 1.113281,-0.222656 v 4.0898436 c 0,0.2929687 -0.02344,0.3984375 -0.785156,0.3984375 h -0.28125 v 0.2578125 c 0.328125,-0.023437 1.019531,-0.023437 1.371094,-0.023437 0.363281,0 1.054687,0 1.382812,0.023437 v -0.2578125 h -0.28125 c -0.75,0 -0.773437,-0.1054688 -0.773437,-0.3984375 z m 0,0" style="fill:#000000;fill-opacity:1;fill-rule:nonzero;stroke:none"/>
    </g>
    <rect id="rect73" x="0" y="0" width="1" height="1" style="fill:#000000;fill-opacity:1;fill-rule:nonzero" transform="matrix(11.36,0,0,-0.64,654.576,214.62133)"/>
    <g id="g73" aria-label="8&#10;)" transform="matrix(1.3333333,0,0,1.3333333,657.312,223.724)">
      <path id="path74" d="m 2.6488125,-2.8721016 c 0.4453125,-0.2226562 0.984375,-0.6210937 0.984375,-1.2421875 0,-0.75 -0.7734375,-1.1835937 -1.5117187,-1.1835937 -0.84375,0 -1.5351563,0.5742187 -1.5351563,1.3242187 0,0.3046875 0.10546875,0.5742188 0.3046875,0.796875 0.140625,0.1757813 0.1640625,0.1875 0.6679688,0.5039063 -0.9960938,0.4335937 -1.2070313,1.0195312 -1.2070313,1.4648437 0,0.86718754 0.8789063,1.37109379 1.7578125,1.37109379 0.9726563,0 1.7578125,-0.65625 1.7578125,-1.49999999 0,-0.5039063 -0.2695312,-0.84375 -0.3984375,-0.9726563 -0.1289062,-0.1289062 -0.140625,-0.140625 -0.8203125,-0.5625 z m -1.2421875,-0.75 c -0.2226562,-0.140625 -0.421875,-0.375 -0.421875,-0.6445312 0,-0.5039063 0.5507813,-0.8320313 1.125,-0.8320313 0.6210938,0 1.125,0.4335938 1.125,0.984375 0,0.46875 -0.3632812,0.8554688 -0.8320312,1.0898438 z m 0.3984375,1.0898438 c 0.023437,0.011719 0.9375,0.5742187 1.0664063,0.65625 0.1289062,0.070312 0.5507812,0.328125 0.5507812,0.8085937 0,0.60937504 -0.6445312,0.99609379 -1.3007812,0.99609379 -0.7148438,0 -1.31250005,-0.4921875 -1.31250005,-1.13671879 0,-0.5976562 0.44531255,-1.0664062 0.99609375,-1.3242187 z m 0,0" style="fill:#000000;fill-opacity:1;fill-rule:nonzero;stroke:none"/>
      <path id="path75" d="m 10.933969,-7.0556953 c 0,-0.9140625 -0.128906,-2.390625 -0.796875,-3.7734377 -0.7031252,-1.441406 -1.6757815,-2.214844 -1.8164065,-2.214844 -0.046875,0 -0.1054687,0.02344 -0.1054687,0.09375 0,0.03516 0,0.05859 0.1992187,0.269532 1.1953125,1.207031 1.8750005,3.1757809 1.8750005,5.6132809 0,2.3203125 -0.5625005,4.3125 -1.9570317,5.7304688 -0.1171875,0.1054687 -0.1171875,0.1289062 -0.1171875,0.1640625 0,0.070312 0.058594,0.09375 0.1054687,0.09375 0.1640625,0 1.1367188,-0.8554688 1.7226565,-2.0273438 0.609375,-1.21875 0.890625,-2.5195312 0.890625,-3.9492187 z m 0,0" style="fill:#000000;fill-opacity:1;fill-rule:nonzero;stroke:none"/>
    </g>
    <path id="path76" d="m 5.2960781,-2.9883281 c 0,-1.2773438 -1.0546875,-2.3203125 -2.3085937,-2.3203125 -1.3007813,0 -2.32031252,1.0664062 -2.32031252,2.3203125 0,1.2773437 1.05468752,2.32031248 2.30859372,2.32031248 1.3007813,0 2.3203125,-1.06640628 2.3203125,-2.32031248 z m 0,0" style="fill:#ff0000;fill-opacity:1;fill-rule:nonzero;stroke:none" aria-label="•" transform="matrix(1.3333333,0,0,1.3333333,618.712,388.336)"/>
    <g id="g76" aria-label="(&#10;9" transform="matrix(1.3333333,0,0,1.3333333,624.832,370.10933)">
      <path id="path77" d="m 3.8906484,2.9062813 c 0,-0.035156 0,-0.058594 -0.2109375,-0.2695313 -1.1953125,-1.2070312 -1.8632812,-3.17578125 -1.8632812,-5.6132812 0,-2.3203125 0.5625,-4.3125 1.9453125,-5.7304688 0.1289062,-0.1054687 0.1289062,-0.1289062 0.1289062,-0.1640625 0,-0.070312 -0.070312,-0.09375 -0.1171875,-0.09375 -0.1523437,0 -1.1367187,0.8554688 -1.7226562,2.0273438 -0.609375,1.2070312 -0.8789063,2.4960937 -0.8789063,3.9609375 0,1.0664062 0.1640625,2.48437495 0.7851563,3.7617187 0.703125,1.4414063 1.6875,2.2148438 1.8164062,2.2148438 0.046875,0 0.1171875,-0.023437 0.1171875,-0.09375 z m 0,0" style="fill:#000000;fill-opacity:1;fill-rule:nonzero;stroke:none"/>
      <path id="path78" d="m 8.8886953,-7.0341484 c 0,1.9453125 -0.9257812,2.2851562 -1.3945312,2.2851562 -0.1640625,0 -0.5742188,-0.023437 -0.796875,-0.2695312 0.3515625,-0.035156 0.375,-0.2929688 0.375,-0.375 0,-0.2460938 -0.1757813,-0.375 -0.375,-0.375 -0.140625,0 -0.375,0.082031 -0.375,0.3867187 0,0.5390625 0.4453125,0.8671875 1.1835937,0.8671875 1.0898438,0 2.1210938,-1.078125 2.1210938,-2.7890625 0,-2.0742187 -0.9140625,-2.671875 -1.734375,-2.671875 -0.9375,0 -1.78125,0.7265625 -1.78125,1.7695313 0,1.03125 0.7734375,1.78125 1.6757812,1.78125 0.5625,0 0.9023438,-0.3632813 1.1015625,-0.7617188 z m -1.078125,0.3867187 c -0.3632812,0 -0.5976562,-0.1640625 -0.7734375,-0.4570312 -0.1757812,-0.3046875 -0.1757812,-0.6796875 -0.1757812,-1.0898438 0,-0.46875 0,-0.8085937 0.2109375,-1.125 0.1992187,-0.2929687 0.4570312,-0.4570312 0.8320312,-0.4570312 0.5273438,0 0.7617188,0.5273437 0.7851563,0.5742187 0.1757812,0.3867188 0.1757812,1.0078125 0.1757812,1.171875 0,0.6210938 -0.3398437,1.3828125 -1.0546875,1.3828125 z m 0,0" style="fill:#000000;fill-opacity:1;fill-rule:nonzero;stroke:none"/>
    </g>
    <rect id="rect78" x="0" y="0" width="1" height="1" style="fill:#000000;fill-opacity:1;fill-rule:nonzero" transform="matrix(5.76,0,0,-0.64,632.496,366.44533)"/>
    <g id="g78" aria-label="4&#10;,−&#10;21" transform="matrix(1.3333333,0,0,1.3333333,632.512,375.54933)">
      <path id="path79" d="m 3.1404141,-5.1551641 c 0,-0.1640625 0,-0.2226562 -0.1640625,-0.2226562 -0.1054688,0 -0.1171875,0.011719 -0.1992188,0.1171875 l -2.54296874,3.6914062 v 0.2578125 H 2.4841641 v 0.66796879 c 0,0.29296875 -0.023437,0.38671875 -0.6328125,0.38671875 h -0.1875 v 0.2578125 c 0.6796875,-0.0234375 0.6914062,-0.0234375 1.1484375,-0.0234375 0.4570312,0 0.46875,0 1.1484375,0.0234375 v -0.2578125 h -0.1875 c -0.609375,0 -0.6328125,-0.09375 -0.6328125,-0.38671875 V -1.3114141 h 0.84375 v -0.2578125 h -0.84375 z m -0.5976563,0.6445313 v 2.9414062 H 0.51541406 Z m 0,0" style="fill:#000000;fill-opacity:1;fill-rule:nonzero;stroke:none"/>
      <path id="path80" d="m 7.7312344,-4.0330937 c 0,-0.6914063 -0.2226563,-1.2070313 -0.7148438,-1.2070313 -0.3867187,0 -0.5742187,0.3164063 -0.5742187,0.5742188 0,0.2578125 0.1757812,0.5859375 0.5859375,0.5859375 0.1523437,0 0.28125,-0.046875 0.3867187,-0.1523438 0.023437,-0.023437 0.035156,-0.023437 0.046875,-0.023437 0.035156,0 0.035156,0.1640625 0.035156,0.2226563 0,0.3984375 -0.082031,1.171875 -0.7734375,1.9453125 -0.1289063,0.1523437 -0.1289063,0.1757812 -0.1289063,0.1992187 0,0.058594 0.058594,0.1171875 0.1171875,0.1171875 0.09375,0 1.0195313,-0.890625 1.0195316,-2.2617192 z m 0,0" style="fill:#000000;fill-opacity:1;fill-rule:nonzero;stroke:none"/>
      <path id="path81" d="m 18.579867,-6.833875 c 0.175781,0 0.398438,0 0.398438,-0.234375 0,-0.234375 -0.222657,-0.234375 -0.398438,-0.234375 h -6.515625 c -0.164062,0 -0.386719,0 -0.386719,0.234375 0,0.234375 0.222657,0.234375 0.386719,0.234375 z m 0,0" style="fill:#000000;fill-opacity:1;fill-rule:nonzero;stroke:none"/>
      <path id="path82" d="m 23.369906,-10.387586 c 0.128907,-0.117187 0.457032,-0.375 0.585938,-0.492187 0.492187,-0.457032 0.960937,-0.890625 0.960937,-1.617188 0,-0.949219 -0.796875,-1.558594 -1.792968,-1.558594 -0.949219,0 -1.582032,0.726563 -1.582032,1.429688 0,0.398437 0.316407,0.445312 0.421875,0.445312 0.164063,0 0.410157,-0.117187 0.410157,-0.421875 0,-0.410156 -0.398438,-0.410156 -0.492188,-0.410156 0.234375,-0.585937 0.773438,-0.785156 1.160156,-0.785156 0.738282,0 1.125,0.632812 1.125,1.300781 0,0.832031 -0.585937,1.429688 -1.523437,2.402344 l -1.007813,1.0312498 c -0.09375,0.09375 -0.09375,0.1054688 -0.09375,0.3046875 h 3.152344 l 0.222656,-1.4296873 h -0.246093 c -0.02344,0.164062 -0.08203,0.5624998 -0.175782,0.7148436 -0.04687,0.058594 -0.65625,0.058594 -0.785156,0.058594 h -1.417969 z m 4.456055,-3.445312 c 0,-0.222657 -0.02344,-0.222657 -0.234375,-0.222657 -0.328125,0.316407 -0.75,0.503907 -1.511719,0.503907 v 0.269531 c 0.222656,0 0.644531,0 1.113281,-0.222656 v 4.0898433 c 0,0.2929688 -0.02344,0.3984375 -0.785156,0.3984375 h -0.28125 v 0.2578125 c 0.328125,-0.023437 1.019531,-0.023437 1.371094,-0.023437 0.363281,0 1.054687,0 1.382812,0.023437 v -0.2578125 h -0.28125 c -0.75,0 -0.773437,-0.1054687 -0.773437,-0.3984375 z m 0,0" style="fill:#000000;fill-opacity:1;fill-rule:nonzero;stroke:none"/>
    </g>
    <rect id="rect82" x="0" y="0" width="1" height="1" style="fill:#000000;fill-opacity:1;fill-rule:nonzero" transform="matrix(11.36,0,0,-0.64,660.656,366.44533)"/>
    <g id="g82" aria-label="8&#10;)" transform="matrix(1.3333333,0,0,1.3333333,663.552,375.54933)">
      <path id="path83" d="m 2.6475234,-2.8700078 c 0.4453125,-0.2226563 0.984375,-0.6210938 0.984375,-1.2421875 0,-0.75 -0.7734375,-1.1835938 -1.5117187,-1.1835938 -0.84375,0 -1.53515626,0.5742188 -1.53515626,1.3242188 0,0.3046875 0.10546875,0.5742187 0.3046875,0.796875 0.14062496,0.1757812 0.16406246,0.1875 0.66796876,0.5039062 -0.99609376,0.4335938 -1.20703126,1.0195313 -1.20703126,1.4648438 0,0.86718749 0.87890626,1.37109374 1.75781246,1.37109374 0.9726563,0 1.7578125,-0.65625 1.7578125,-1.50000004 0,-0.5039062 -0.2695312,-0.84375 -0.3984375,-0.9726562 -0.1289062,-0.1289063 -0.140625,-0.140625 -0.8203125,-0.5625 z m -1.2421875,-0.75 c -0.2226562,-0.140625 -0.42187496,-0.375 -0.42187496,-0.6445313 0,-0.5039062 0.55078126,-0.8320312 1.12499996,-0.8320312 0.6210938,0 1.125,0.4335937 1.125,0.984375 0,0.46875 -0.3632812,0.8554687 -0.8320312,1.0898437 z m 0.3984375,1.0898437 c 0.023437,0.011719 0.9375,0.5742188 1.0664063,0.65625 0.1289062,0.070312 0.5507812,0.328125 0.5507812,0.8085938 0,0.60937499 -0.6445312,0.99609374 -1.3007812,0.99609374 -0.7148438,0 -1.31250001,-0.4921875 -1.31250001,-1.13671874 0,-0.5976563 0.44531251,-1.0664063 0.99609371,-1.3242188 z m 0,0" style="fill:#000000;fill-opacity:1;fill-rule:nonzero;stroke:none"/>
      <path id="path84" d="m 10.935609,-7.0565312 c 0,-0.9140625 -0.128906,-2.390625 -0.796875,-3.7734378 -0.7031246,-1.441406 -1.6757809,-2.214843 -1.8164059,-2.214843 -0.046875,0 -0.1054687,0.02344 -0.1054687,0.09375 0,0.03516 0,0.05859 0.1992187,0.269531 1.1953125,1.207031 1.8749999,3.175781 1.8749999,5.613281 0,2.3203125 -0.5624999,4.3125 -1.9570311,5.7304688 -0.1171875,0.1054687 -0.1171875,0.1289062 -0.1171875,0.1640625 0,0.070312 0.058594,0.09375 0.1054687,0.09375 0.1640625,0 1.1367188,-0.8554688 1.7226559,-2.0273438 0.609375,-1.21875 0.890625,-2.5195312 0.890625,-3.9492187 z m 0,0" style="fill:#000000;fill-opacity:1;fill-rule:nonzero;stroke:none"/>
    </g>
    <path id="path85" d="M 4670.34,7058.56 V 5363.44" style="fill:none;stroke:#000000;stroke-width:7.97011;stroke-linecap:butt;stroke-linejoin:miter;stroke-miterlimit:10;stroke-dasharray:48.4321, 48.4321;stroke-dashoffset:0;stroke-opacity:1" transform="matrix(0.13333333,0,0,-0.13333333,0,1122.6667)"/>
    
    
    
    
    
    
    
    
    
    
    
    
    
    
    
    
    
    
    
    
    
    
    
    
    
    
    
    
    
    
    
    
    
    
    
    
    
    
    
    
    
    
    
    
    
    
  </g>
</svg>