<svg version="1.1" id="svg1" width="317.0020718350304" height="307.00285764231035" viewBox="72.00047057451795 592.5055151565762 317.0020718350304 307.00285764231035" sodipodi:docname="2_1_3-2_1_4.pdf" xmlns:inkscape="http://www.inkscape.org/namespaces/inkscape" xmlns:sodipodi="http://sodipodi.sourceforge.net/DTD/sodipodi-0.dtd" xmlns="http://www.w3.org/2000/svg" xmlns:svg="http://www.w3.org/2000/svg" style="">
  <defs id="defs1"/>
  <sodipodi:namedview id="namedview1" pagecolor="#ffffff" bordercolor="#000000" borderopacity="0.25" inkscape:showpageshadow="2" inkscape:pageopacity="0.0" inkscape:pagecheckerboard="0" inkscape:deskcolor="#d1d1d1">
    <inkscape:page x="0" y="0" inkscape:label="1" id="page1" width="793.33331" height="1122.6667" margin="0" bleed="0"/>
  </sodipodi:namedview>
  <g id="g1" inkscape:groupmode="layer" inkscape:label="1">
    
    
    
    <path id="path65" d="m 2043.1,2799.28 c 0,0 4.76,-57.78 10.74,-87.65 2.7,-13.46 6.62,-25.22 10.75,-38.31 3.37,-10.72 6.81,-20.21 10.74,-30.73 3.51,-9.41 6.9,-17.76 10.74,-27.03 3.58,-8.6 6.94,-16.27 10.75,-24.78 3.61,-8.08 6.97,-15.28 10.74,-23.28 3.64,-7.7 6.99,-14.58 10.75,-22.22 3.65,-7.42 6.99,-14.06 10.74,-21.43 3.67,-7.21 7,-13.66 10.75,-20.83 3.67,-7.05 7,-13.35 10.74,-20.37 3.68,-6.91 7.01,-13.11 10.75,-20 3.68,-6.81 7.01,-12.91 10.74,-19.7 3.69,-6.74 7.02,-12.77 10.74,-19.48 3.69,-6.67 7.03,-12.65 10.75,-19.3 3.69,-6.61 7.02,-12.54 10.74,-19.15 3.7,-6.57 7.03,-12.47 10.74,-19.03 3.71,-6.54 7.04,-12.41 10.75,-18.95 3.7,-6.52 7.03,-12.36 10.74,-18.88 3.71,-6.5 7.04,-12.33 10.75,-18.83 3.7,-6.49 7.03,-12.31 10.74,-18.79 3.71,-6.49 7.04,-12.31 10.75,-18.78 3.7,-6.48 7.03,-12.3 10.74,-18.77 3.71,-6.48 7.04,-12.29 10.74,-18.78 3.71,-6.48 7.04,-12.29 10.75,-18.78 3.7,-6.48 7.04,-12.31 10.74,-18.79 3.71,-6.5 7.04,-12.33 10.75,-18.83 3.71,-6.5 7.03,-12.35 10.74,-18.85 3.71,-6.52 7.04,-12.37 10.74,-18.89 3.71,-6.53 7.04,-12.39 10.75,-18.93 3.71,-6.55 7.04,-12.43 10.74,-18.98 3.71,-6.55 7.04,-12.45 10.74,-19.02 3.72,-6.57 7.05,-12.48 10.75,-19.07 3.71,-6.6 7.04,-12.52 10.74,-19.12 3.71,-6.62 7.05,-12.57 10.75,-19.19 3.71,-6.64 7.04,-12.6 10.74,-19.24 3.71,-6.66 7.04,-12.64 10.75,-19.31 3.71,-6.68 7.04,-12.68 10.74,-19.37 3.71,-6.7 7.04,-12.72 10.75,-19.43 3.71,-6.72 7.03,-12.77 10.74,-19.5 3.71,-6.75 7.04,-12.81 10.74,-19.56 3.71,-6.78 7.04,-12.86 10.75,-19.64 3.71,-6.8 7.04,-12.9 10.74,-19.71 3.71,-6.82 7.04,-12.95 10.74,-19.77 3.71,-6.85 7.05,-13 10.75,-19.85 3.71,-6.88 7.04,-13.05 10.74,-19.93 3.71,-6.9 7.04,-13.09 10.74,-19.99 3.72,-6.92 7.05,-13.14 10.75,-20.07 3.71,-6.95 7.04,-13.19 10.74,-20.15 3.72,-6.98 10.75,-20.22 10.75,-20.22" style="fill:none;stroke:#000000;stroke-width:7.97011;stroke-linecap:butt;stroke-linejoin:miter;stroke-miterlimit:10;stroke-dasharray:none;stroke-opacity:1" transform="matrix(0.13333333,0,0,-0.13333333,0,1122.6667)"/>
    <path id="path66" d="m 2043.1,2799.52 c 0,0 4.76,57.78 10.74,87.65 2.7,13.46 6.62,25.22 10.75,38.31 3.37,10.72 6.81,20.21 10.74,30.73 3.51,9.41 6.9,17.76 10.74,27.03 3.58,8.6 6.94,16.27 10.75,24.78 3.61,8.08 6.97,15.28 10.74,23.28 3.64,7.7 6.99,14.58 10.75,22.22 3.65,7.43 6.99,14.06 10.74,21.43 3.67,7.21 7,13.66 10.75,20.84 3.67,7.04 7,13.35 10.74,20.36 3.68,6.91 7.01,13.11 10.75,20 3.68,6.81 7.01,12.91 10.74,19.71 3.69,6.73 7.02,12.76 10.74,19.47 3.69,6.67 7.03,12.65 10.75,19.3 3.69,6.61 7.02,12.54 10.74,19.15 3.7,6.57 7.03,12.47 10.74,19.03 3.71,6.55 7.04,12.41 10.75,18.95 3.7,6.52 7.03,12.36 10.74,18.88 3.71,6.5 7.04,12.33 10.75,18.83 3.7,6.49 7.03,12.31 10.74,18.8 3.71,6.48 7.04,12.3 10.75,18.77 3.7,6.48 7.03,12.3 10.74,18.77 3.71,6.48 7.04,12.3 10.74,18.78 3.71,6.48 7.04,12.29 10.75,18.78 3.7,6.48 7.04,12.31 10.74,18.79 3.71,6.5 7.04,12.33 10.75,18.83 3.71,6.5 7.03,12.35 10.74,18.85 3.71,6.52 7.04,12.37 10.74,18.89 3.71,6.53 7.04,12.4 10.75,18.93 3.71,6.55 7.04,12.43 10.74,18.98 3.71,6.56 7.04,12.45 10.74,19.02 3.72,6.58 7.05,12.48 10.75,19.07 3.71,6.6 7.04,12.52 10.74,19.13 3.71,6.62 7.05,12.56 10.75,19.18 3.71,6.64 7.04,12.6 10.74,19.25 3.71,6.65 7.04,12.63 10.75,19.3 3.71,6.68 7.04,12.68 10.74,19.37 3.71,6.7 7.04,12.72 10.75,19.43 3.71,6.72 7.03,12.77 10.74,19.5 3.71,6.75 7.04,12.81 10.74,19.56 3.71,6.78 7.04,12.86 10.75,19.64 3.71,6.8 7.04,12.9 10.74,19.71 3.71,6.82 7.04,12.95 10.74,19.77 3.71,6.85 7.05,13 10.75,19.85 3.71,6.88 7.04,13.05 10.74,19.93 3.71,6.9 7.04,13.09 10.74,19.99 3.72,6.93 7.05,13.14 10.75,20.07 3.71,6.96 7.04,13.2 10.74,20.15 3.72,6.98 10.75,20.23 10.75,20.23" style="fill:none;stroke:#000000;stroke-width:7.97011;stroke-linecap:butt;stroke-linejoin:miter;stroke-miterlimit:10;stroke-dasharray:none;stroke-opacity:1" transform="matrix(0.13333333,0,0,-0.13333333,0,1122.6667)"/>
    <path id="path67" d="m 1040.9,2799.28 c 0,0 4.12,-54.72 10.23,-82.86 2.49,-11.5 6.12,-21.51 10.23,-32.54 3.1,-8.36 6.34,-15.7 10.22,-23.73 3.24,-6.68 6.44,-12.55 10.23,-18.94 3.3,-5.58 6.49,-10.46 10.23,-15.76 3.34,-4.76 6.53,-8.92 10.22,-13.41 3.38,-4.12 6.56,-7.7 10.23,-11.56 3.4,-3.58 6.58,-6.69 10.22,-10.03 3.43,-3.13 6.6,-5.84 10.23,-8.74 3.44,-2.74 6.61,-5.1 10.23,-7.61 3.45,-2.4 6.62,-4.45 10.22,-6.62 3.47,-2.09 6.64,-3.86 10.23,-5.72 3.47,-1.81 6.65,-3.33 10.23,-4.92 3.48,-1.54 6.65,-2.84 10.22,-4.17 3.49,-1.31 6.67,-2.38 10.23,-3.48 3.5,-1.08 6.67,-1.96 10.22,-2.84 3.51,-0.87 6.68,-1.56 10.23,-2.24 3.52,-0.66 6.69,-1.18 10.23,-1.66 3.52,-0.48 6.69,-0.82 10.22,-1.12 3.53,-0.29 6.7,-0.48 10.23,-0.6 3.53,-0.12 6.7,-0.15 10.23,-0.1 3.53,0.05 6.7,0.16 10.22,0.37 3.54,0.21 6.71,0.48 10.23,0.85 3.54,0.37 6.71,0.77 10.23,1.29 3.54,0.53 6.71,1.07 10.22,1.74 3.55,0.68 6.72,1.35 10.23,2.17 3.55,0.83 6.72,1.63 10.23,2.6 3.55,0.97 6.71,1.91 10.22,3.02 3.55,1.12 6.72,2.19 10.23,3.44 3.55,1.27 6.72,2.47 10.23,3.86 3.55,1.42 6.72,2.74 10.22,4.28 3.56,1.57 6.73,3.03 10.23,4.71 3.56,1.72 6.73,3.31 10.23,5.14 3.56,1.87 6.73,3.6 10.22,5.58 3.57,2.03 6.74,3.9 10.23,6.05 3.56,2.18 6.74,4.2 10.22,6.51 3.57,2.36 6.75,4.54 10.23,7.02 3.58,2.54 6.75,4.88 10.23,7.54 3.58,2.74 6.75,5.26 10.22,8.12 3.59,2.96 6.76,5.67 10.23,8.75 3.59,3.19 6.77,6.12 10.23,9.44 3.6,3.46 6.77,6.64 10.22,10.25 3.62,3.77 6.8,7.23 10.23,11.17 3.63,4.17 6.82,7.97 10.23,12.32 3.65,4.65 6.85,8.9 10.22,13.77 3.7,5.32 6.91,10.19 10.23,15.76 3.78,6.35 7.04,12.15 10.23,18.82 3.96,8.3 7.66,15.79 10.22,24.62 5.8,20.03 10.23,59.58 10.23,59.58" style="fill:none;stroke:#000000;stroke-width:7.97011;stroke-linecap:butt;stroke-linejoin:miter;stroke-miterlimit:10;stroke-dasharray:none;stroke-opacity:1" transform="matrix(0.13333333,0,0,-0.13333333,0,1122.6667)"/>
    <path id="path68" d="m 1040.9,2799.52 c 0,0 4.12,54.72 10.23,82.86 2.49,11.5 6.12,21.51 10.23,32.55 3.1,8.35 6.34,15.69 10.22,23.72 3.24,6.68 6.44,12.55 10.23,18.94 3.3,5.58 6.49,10.46 10.23,15.77 3.34,4.75 6.53,8.91 10.22,13.41 3.38,4.11 6.56,7.69 10.23,11.55 3.4,3.59 6.58,6.69 10.22,10.03 3.43,3.13 6.6,5.84 10.23,8.74 3.44,2.74 6.61,5.1 10.23,7.61 3.45,2.4 6.62,4.45 10.22,6.62 3.47,2.09 6.64,3.86 10.23,5.72 3.47,1.81 6.65,3.33 10.23,4.92 3.48,1.54 6.65,2.84 10.22,4.17 3.49,1.31 6.67,2.38 10.23,3.48 3.5,1.09 6.67,1.96 10.22,2.84 3.51,0.87 6.68,1.56 10.23,2.24 3.52,0.67 6.69,1.18 10.23,1.66 3.52,0.48 6.69,0.82 10.22,1.12 3.53,0.3 6.7,0.48 10.23,0.6 3.53,0.12 6.7,0.15 10.23,0.1 3.53,-0.05 6.7,-0.16 10.22,-0.37 3.54,-0.21 6.71,-0.48 10.23,-0.85 3.54,-0.37 6.71,-0.77 10.23,-1.29 3.54,-0.53 6.71,-1.07 10.22,-1.74 3.55,-0.68 6.72,-1.35 10.23,-2.17 3.55,-0.83 6.72,-1.63 10.23,-2.6 3.55,-0.97 6.71,-1.91 10.22,-3.02 3.55,-1.12 6.72,-2.19 10.23,-3.44 3.55,-1.27 6.72,-2.47 10.23,-3.86 3.55,-1.42 6.72,-2.74 10.22,-4.28 3.56,-1.57 6.73,-3.03 10.23,-4.71 3.56,-1.72 6.73,-3.31 10.23,-5.14 3.56,-1.87 6.73,-3.6 10.22,-5.58 3.57,-2.03 6.74,-3.9 10.23,-6.05 3.56,-2.18 6.74,-4.2 10.22,-6.51 3.57,-2.36 6.75,-4.54 10.23,-7.02 3.58,-2.54 6.75,-4.88 10.23,-7.54 3.58,-2.74 6.75,-5.26 10.22,-8.12 3.59,-2.95 6.76,-5.66 10.23,-8.75 3.59,-3.19 6.77,-6.11 10.23,-9.44 3.6,-3.46 6.77,-6.64 10.22,-10.24 3.62,-3.78 6.8,-7.24 10.23,-11.18 3.63,-4.16 6.82,-7.97 10.23,-12.32 3.65,-4.65 6.85,-8.9 10.22,-13.77 3.7,-5.32 6.91,-10.19 10.23,-15.76 3.78,-6.35 7.04,-12.15 10.23,-18.81 3.96,-8.31 7.66,-15.8 10.22,-24.63 5.8,-20.03 10.23,-59.58 10.23,-59.58" style="fill:none;stroke:#000000;stroke-width:7.97011;stroke-linecap:butt;stroke-linejoin:miter;stroke-miterlimit:10;stroke-dasharray:none;stroke-opacity:1" transform="matrix(0.13333333,0,0,-0.13333333,0,1122.6667)"/>
    <path id="path69" d="m 904.207,2291.36 c 0,0 22.258,20.42 33.984,31.18 11.731,10.75 22.258,20.41 33.989,31.17 11.726,10.76 22.258,20.41 33.98,31.18 11.73,10.75 22.27,20.41 33.99,31.17 11.73,10.76 22.26,20.42 33.99,31.17 11.73,10.76 22.26,20.42 33.98,31.18 11.74,10.75 22.26,20.41 33.99,31.17 11.73,10.76 22.26,20.42 33.99,31.18 11.73,10.76 22.26,20.41 33.99,31.17 11.73,10.76 22.25,20.42 33.98,31.18 11.73,10.75 22.26,20.41 33.99,31.17 11.73,10.76 22.26,20.42 33.99,31.17 11.73,10.76 22.25,20.42 33.99,31.18 11.72,10.76 22.25,20.42 33.98,31.17 11.73,10.76 22.26,20.42 33.99,31.18 11.72,10.75 22.26,20.41 33.99,31.17 11.72,10.76 22.25,20.42 33.98,31.17 11.73,10.77 22.26,20.42 33.99,31.18 11.73,10.76 22.26,20.42 33.98,31.18 11.73,10.75 22.26,20.41 33.99,31.17 11.73,10.76 22.26,20.42 33.99,31.17 11.73,10.76 22.26,20.42 33.98,31.18 11.73,10.76 22.26,20.41 33.99,31.17 11.73,10.76 22.26,20.42 33.99,31.18 11.73,10.75 22.26,20.41 33.99,31.17 11.73,10.76 22.25,20.42 33.98,31.17 11.73,10.76 22.26,20.42 33.99,31.18 11.73,10.76 22.26,20.42 33.99,31.18 11.72,10.75 22.25,20.41 33.98,31.17 11.73,10.76 22.26,20.42 33.99,31.17 11.73,10.76 22.26,20.42 33.99,31.18 11.72,10.75 22.25,20.41 33.98,31.17 11.73,10.76 22.26,20.42 33.99,31.18 11.73,10.76 22.26,20.41 33.99,31.17 11.72,10.76 22.26,20.42 33.98,31.17 11.73,10.76 22.26,20.42 33.99,31.18 11.73,10.76 22.26,20.41 33.99,31.17 11.73,10.76 22.26,20.42 33.98,31.18 11.73,10.76 22.26,20.42 33.99,31.17 11.73,10.76 22.26,20.42 33.99,31.18 11.73,10.75 22.26,20.41 33.98,31.17 11.73,10.76 22.26,20.42 33.99,31.18 11.73,10.76 22.26,20.41 33.99,31.17 11.73,10.76 22.26,20.42 33.98,31.18 11.73,10.75 22.26,20.41 33.99,31.17 11.73,10.76 22.26,20.41 33.99,31.17 11.73,10.76 22.26,20.42 33.99,31.18 11.72,10.76 22.25,20.41 33.98,31.17 11.73,10.76 33.99,31.18 33.99,31.18" style="fill:none;stroke:#000000;stroke-width:7.97011;stroke-linecap:butt;stroke-linejoin:miter;stroke-miterlimit:10;stroke-dasharray:none;stroke-opacity:1" transform="matrix(0.13333333,0,0,-0.13333333,0,1122.6667)"/>
    <g id="g69" aria-label="•&#10;•&#10;P⊕Q" transform="matrix(1.3333333,0,0,1.3333333,331.61733,623.572)">
      <path id="path70" d="m 5.2967656,-2.9895469 c 0,-1.2773437 -1.0546875,-2.3203125 -2.3085937,-2.3203125 -1.3007813,0 -2.32031252,1.0664063 -2.32031252,2.3203125 0,1.2773438 1.05468752,2.32031253 2.30859372,2.32031253 1.3007813,0 2.3203125,-1.06640623 2.3203125,-2.32031253 z m 0,194.2851569 c 0,-1.27734 -1.0546875,-2.32031 -2.3085937,-2.32031 -1.3007813,0 -2.32031252,1.0664 -2.32031252,2.32031 0,1.27734 1.05468752,2.32031 2.30859372,2.32031 1.3007813,0 2.3203125,-1.0664 2.3203125,-2.32031 z m 0,0" style="fill:#000000;fill-opacity:1;fill-rule:nonzero;stroke:none"/>
      <path id="path71" d="m -18.65343,198.16573 h 1.453125 c 1.148438,0 2.34375,-0.79688 2.34375,-1.73438 0,-0.67969 -0.644531,-1.21875 -1.664062,-1.21875 h -2.683594 c -0.152344,0 -0.246094,0 -0.246094,0.14063 0,0.11718 0.09375,0.11718 0.222657,0.11718 0.269531,0 0.492187,0 0.492187,0.12891 0,0.0352 0,0.0352 -0.02344,0.14063 l -1.066407,4.27734 c -0.08203,0.29297 -0.09375,0.375 -0.65625,0.375 -0.1875,0 -0.269531,0 -0.269531,0.14062 0,0.0352 0.02344,0.11719 0.128906,0.11719 0.140625,0 0.339844,-0.0117 0.492188,-0.0234 h 0.503906 c 0.773438,0 0.972656,0.0234 1.03125,0.0234 0.04687,0 0.164063,0 0.164063,-0.15234 0,-0.10547 -0.105469,-0.10547 -0.246094,-0.10547 -0.02344,0 -0.164063,0 -0.304688,-0.0234 -0.164062,-0.0117 -0.175781,-0.0352 -0.175781,-0.10547 0,-0.0469 0.01172,-0.0937 0.02344,-0.1289 z m 0.585938,-2.40235 c 0.07031,-0.26953 0.08203,-0.29297 0.410156,-0.29297 h 0.867188 c 0.65625,0 1.160156,0.1875 1.160156,0.78516 0,0.0937 -0.03516,0.80859 -0.492188,1.24219 -0.117187,0.1289 -0.492187,0.42187 -1.277343,0.42187 h -1.207032 z m 0,0" style="fill:#000000;fill-opacity:1;fill-rule:nonzero;stroke:none"/>
      <path id="path72" d="m -6.6563594,198.65791 c 0,-1.55859 -1.2773437,-2.82421 -2.8125,-2.82421 -1.5585936,0 -2.8242186,1.27734 -2.8242186,2.82421 0,1.54688 1.265625,2.82422 2.8242186,2.82422 1.5351563,0 2.8125,-1.26562 2.8125,-2.82422 z m -5.3906246,-0.1289 c 0.07031,-1.3125 1.125,-2.37891 2.4492184,-2.44922 v 2.44922 z m 2.6953121,-2.44922 c 1.3359375,0.0703 2.3789063,1.13672 2.4492188,2.44922 h -2.4492188 z m -0.2460937,5.15625 c -1.3125004,-0.0703 -2.3671874,-1.10156 -2.4492184,-2.46094 h 2.4492184 z m 2.6953125,-2.46094 c -0.082031,1.3711 -1.1601563,2.39063 -2.4492188,2.46094 v -2.46094 z m 0,0" style="fill:#000000;fill-opacity:1;fill-rule:nonzero;stroke:none"/>
      <path id="path73" d="m -0.50401562,200.59151 c 1.2421875,-0.44531 2.48437502,-1.80469 2.48437502,-3.36328 0,-1.3125 -0.9023438,-2.19141 -2.17968752,-2.19141 -1.86328128,0 -3.63281248,1.83984 -3.63281248,3.62109 0,1.23047 0.8554687,2.15625 2.1914062,2.15625 0.2226563,0 0.4921875,-0.0234 0.80859378,-0.10546 0,0.0937 -0.0117188,0.39843 -0.0117188,0.45703 0,0.32812 0,1.03125 0.7265625,1.03125 0.9375,0 1.38281242,-1.40625 1.38281242,-1.54688 0,-0.0586 -0.046875,-0.11719 -0.1171875,-0.11719 -0.070312,0 -0.09375,0.082 -0.1054687,0.10547 -0.16406247,0.52735 -0.63281247,0.75 -0.96093747,0.75 -0.28125,0 -0.48046875,-0.10547 -0.58593745,-0.79687 z M -2.1446406,200.4626 c -0.6328125,-0.24609 -0.9375,-0.82031 -0.9375,-1.59375 0,-0.53906 0.1757812,-1.57031 0.8203125,-2.44922 0.5273437,-0.6914 1.28906248,-1.13672 1.99218748,-1.13672 0.84375,0 1.51171872,0.59766 1.51171872,1.72266 0,0.42188 -0.1640625,2.36719 -1.79296872,3.29297 -0.09375,-0.45703 -0.2578125,-0.85547 -0.77343748,-0.85547 -0.4570313,0 -0.8671875,0.41016 -0.8671875,0.82031 0,0.0703 0.023437,0.14063 0.046875,0.19922 z m 1.32421873,-0.0469 c -0.17578125,0.0703 -0.45703123,0.15234 -0.76171873,0.15234 -0.09375,0 -0.3867188,0 -0.3867188,-0.30469 0,-0.28125 0.3046875,-0.59765 0.65625,-0.59765 0.33984378,0 0.48046878,0.22265 0.49218753,0.75 z m 0,0" style="fill:#000000;fill-opacity:1;fill-rule:nonzero;stroke:none"/>
    </g>
    <path id="path74" d="M 2517.13,1827.99 V 3770.81" style="fill:none;stroke:#000000;stroke-width:7.97011;stroke-linecap:butt;stroke-linejoin:miter;stroke-miterlimit:10;stroke-dasharray:49.816, 49.816;stroke-dashoffset:0;stroke-opacity:1" transform="matrix(0.13333333,0,0,-0.13333333,0,1122.6667)"/>
    <path id="path75" d="m 904.207,2771.23 c 0,0 22.258,-13.02 33.984,-19.87 11.731,-6.86 22.258,-13.02 33.989,-19.88 11.726,-6.86 22.258,-13.02 33.98,-19.87 11.73,-6.86 22.27,-13.02 33.99,-19.88 11.73,-6.86 22.26,-13.02 33.99,-19.87 11.73,-6.86 22.26,-13.02 33.98,-19.88 11.74,-6.86 22.26,-13.02 33.99,-19.88 11.73,-6.86 22.26,-13.01 33.99,-19.87 11.73,-6.86 22.26,-13.02 33.99,-19.88 11.73,-6.86 22.25,-13.01 33.98,-19.87 11.73,-6.86 22.26,-13.02 33.99,-19.88 11.73,-6.86 22.26,-13.02 33.99,-19.88 11.73,-6.86 22.25,-13.01 33.99,-19.87 11.72,-6.86 22.25,-13.02 33.98,-19.88 11.73,-6.86 22.26,-13.01 33.99,-19.87 11.72,-6.86 22.26,-13.02 33.99,-19.88 11.72,-6.86 22.25,-13.02 33.98,-19.88 11.73,-6.85 22.26,-13.01 33.99,-19.87 11.73,-6.86 22.26,-13.02 33.98,-19.88 11.73,-6.86 22.26,-13.01 33.99,-19.87 11.73,-6.86 22.26,-13.02 33.99,-19.88 11.73,-6.86 22.26,-13.02 33.98,-19.87 11.73,-6.86 22.26,-13.02 33.99,-19.88 11.73,-6.86 22.26,-13.02 33.99,-19.88 11.73,-6.85 22.26,-13.01 33.99,-19.87 11.73,-6.86 22.25,-13.02 33.98,-19.88 11.73,-6.85 22.26,-13.01 33.99,-19.87 11.73,-6.86 22.26,-13.02 33.99,-19.88 11.72,-6.85 22.25,-13.01 33.98,-19.87 11.73,-6.86 22.26,-13.02 33.99,-19.88 11.73,-6.86 22.26,-13.01 33.99,-19.87 11.72,-6.86 22.25,-13.02 33.98,-19.88 11.73,-6.86 22.26,-13.01 33.99,-19.87 11.73,-6.86 22.26,-13.02 33.99,-19.88 11.72,-6.86 22.26,-13.02 33.98,-19.88 11.73,-6.85 22.26,-13.01 33.99,-19.87 11.73,-6.86 22.26,-13.02 33.99,-19.88 11.73,-6.86 22.26,-13.01 33.98,-19.87 11.73,-6.86 22.26,-13.02 33.99,-19.88 11.73,-6.86 22.26,-13.02 33.99,-19.87 11.73,-6.86 22.26,-13.02 33.98,-19.88 11.73,-6.86 22.26,-13.02 33.99,-19.88 11.73,-6.86 22.26,-13.01 33.99,-19.87 11.73,-6.86 22.26,-13.02 33.98,-19.88 11.73,-6.86 22.26,-13.01 33.99,-19.87 11.73,-6.86 22.26,-13.02 33.99,-19.88 11.73,-6.86 22.26,-13.02 33.99,-19.88 11.72,-6.86 22.25,-13.01 33.98,-19.87 11.73,-6.86 33.99,-19.88 33.99,-19.88" style="fill:none;stroke:#000000;stroke-width:7.97011;stroke-linecap:butt;stroke-linejoin:miter;stroke-miterlimit:10;stroke-dasharray:none;stroke-opacity:1" transform="matrix(0.13333333,0,0,-0.13333333,0,1122.6667)"/>
    <path id="path76" d="m 5.2968281,-2.9876016 c 0,-1.2773437 -1.0546875,-2.3203125 -2.3085937,-2.3203125 -1.3007813,0 -2.32031252,1.0664063 -2.32031252,2.3203125 0,1.2773438 1.05468752,2.32031254 2.30859372,2.32031254 1.3007813,0 2.3203125,-1.06640624 2.3203125,-2.32031254 z m 0,0" style="fill:#000000;fill-opacity:1;fill-rule:nonzero;stroke:none" aria-label="•" transform="matrix(1.3333333,0,0,1.3333333,168.336,787.128)"/>
    <path id="path77" d="m 1292.52,2544.14 v 510.52" style="fill:none;stroke:#000000;stroke-width:7.97011;stroke-linecap:butt;stroke-linejoin:miter;stroke-miterlimit:10;stroke-dasharray:46.4109, 46.4109;stroke-dashoffset:0;stroke-opacity:1" transform="matrix(0.13333333,0,0,-0.13333333,0,1122.6667)"/>
    <path id="path78" d="m 5.2964766,-2.9882344 c 0,-1.2773437 -1.0546875,-2.3203125 -2.3085938,-2.3203125 -1.3007812,0 -2.32031249,1.0664063 -2.32031249,2.3203125 0,1.2773438 1.05468749,2.32031253 2.30859379,2.32031253 1.3007812,0 2.3203125,-1.06640623 2.3203125,-2.32031253 z m 0,0" style="fill:#ff0000;fill-opacity:1;fill-rule:nonzero;stroke:none" aria-label="•" transform="matrix(1.3333333,0,0,1.3333333,154.356,786.164)"/>
    <path id="path79" d="m 2.5067188,-2.4834141 h 1.453125 c 1.1484375,0 2.34375,-0.796875 2.34375,-1.734375 0,-0.6796875 -0.6445313,-1.21875 -1.6640625,-1.21875 H 1.9559375 c -0.1523437,0 -0.2460937,0 -0.2460937,0.140625 0,0.1171875 0.09375,0.1171875 0.2226562,0.1171875 0.2695313,0 0.4921875,0 0.4921875,0.1289063 0,0.035156 0,0.035156 -0.023437,0.140625 l -1.0664062,4.27734374 c -0.082031,0.29296875 -0.09375,0.375 -0.65625005,0.375 -0.1875,0 -0.26953125,0 -0.26953125,0.140625 0,0.03515625 0.0234375,0.1171874975 0.12890625,0.1171874975 0.140625,0 0.33984375,-0.0117187475 0.49218755,-0.0234374975 H 1.534063 c 0.7734375,0 0.9726563,0.0234374975 1.03125,0.0234374975 0.046875,0 0.1640625,0 0.1640625,-0.1523437475 0,-0.10546875 -0.1054687,-0.10546875 -0.2460937,-0.10546875 -0.023437,0 -0.1640625,0 -0.3046875,-0.0234375 -0.1640625,-0.0117188 -0.1757813,-0.0351563 -0.1757813,-0.10546875 0,-0.046875 0.011719,-0.09375 0.023437,-0.12890625 z m 0.5859375,-2.4023437 c 0.070312,-0.2695313 0.082031,-0.2929688 0.4101562,-0.2929688 H 4.37 c 0.65625,0 1.1601563,0.1875 1.1601563,0.7851563 0,0.09375 -0.035156,0.8085937 -0.4921875,1.2421875 -0.1171875,0.1289062 -0.4921875,0.421875 -1.2773438,0.421875 H 2.5535938 Z m 0,0" style="fill:#000000;fill-opacity:1;fill-rule:nonzero;stroke:none" aria-label="P" transform="matrix(1.3333333,0,0,1.3333333,151.67333,795.612)"/>
    <path id="path80" d="m 5.2958594,-2.9894687 c 0,-1.2773438 -1.0546875,-2.3203125 -2.3085938,-2.3203125 -1.3007812,0 -2.32031247,1.0664062 -2.32031247,2.3203125 0,1.2773437 1.05468747,2.32031245 2.30859377,2.32031245 1.3007812,0 2.3203125,-1.06640625 2.3203125,-2.32031245 z m 0,0" style="fill:#ff0000;fill-opacity:1;fill-rule:nonzero;stroke:none" aria-label="•" transform="matrix(1.3333333,0,0,1.3333333,199.94667,744.34533)"/>
    <path id="path81" d="m 3.7370937,-0.05990625 c 1.2421875,-0.4453125 2.484375,-1.80468745 2.484375,-3.36328125 0,-1.3125 -0.9023437,-2.1914062 -2.1796875,-2.1914062 -1.8632812,0 -3.63281245,1.8398437 -3.63281245,3.6210937 0,1.23046875 0.85546875,2.15625 2.19140625,2.15625 0.2226562,0 0.4921875,-0.0234375 0.8085937,-0.10546875 0,0.09375 -0.011719,0.3984375 -0.011719,0.45703125 0,0.328125 0,1.03125 0.7265625,1.03125 0.9375,0 1.3828125,-1.40625 1.3828125,-1.546875 0,-0.05859375 -0.046875,-0.1171875 -0.1171875,-0.1171875 -0.070312,0 -0.09375,0.08203125 -0.1054688,0.10546875 -0.1640625,0.52734375 -0.6328125,0.75 -0.9609375,0.75 -0.28125,0 -0.4804687,-0.10546875 -0.5859372,-0.796875 z M 2.0964687,-0.1888125 c -0.6328125,-0.24609375 -0.9375,-0.8203125 -0.9375,-1.59375 0,-0.5390625 0.1757813,-1.5703125 0.8203125,-2.4492187 C 2.506625,-4.9231875 3.2683437,-5.3685 3.9714687,-5.3685 c 0.84375,0 1.5117188,0.5976563 1.5117188,1.7226563 0,0.421875 -0.1640625,2.3671875 -1.7929688,3.2929687 -0.09375,-0.45703125 -0.2578125,-0.8554687 -0.7734375,-0.8554687 -0.4570312,0 -0.8671875,0.4101562 -0.8671875,0.82031245 0,0.0703125 0.023437,0.140625 0.046875,0.19921875 z m 1.3242188,-0.046875 c -0.1757813,0.0703125 -0.4570313,0.15234375 -0.7617188,0.15234375 -0.09375,0 -0.3867187,0 -0.3867187,-0.3046875 0,-0.28125 0.3046875,-0.59765625 0.65625,-0.59765625 0.3398437,0 0.4804687,0.22265625 0.4921875,0.75 z m 0,0" style="fill:#000000;fill-opacity:1;fill-rule:nonzero;stroke:none" aria-label="Q" transform="matrix(1.3333333,0,0,1.3333333,205.84533,747.408)"/>
    <path id="path82" d="m 5.2971094,-2.9893437 c 0,-1.2773438 -1.0546875,-2.3203125 -2.3085938,-2.3203125 -1.3007812,0 -2.32031247,1.0664062 -2.32031247,2.3203125 0,1.2773437 1.05468747,2.32031245 2.30859377,2.32031245 1.3007812,0 2.3203125,-1.06640625 2.3203125,-2.32031245 z m 0,0" style="fill:#ff0000;fill-opacity:1;fill-rule:nonzero;stroke:none" aria-label="•" transform="matrix(1.3333333,0,0,1.3333333,137.82,769.28267)"/>
    <path id="path83" d="m 3.0947578,-4.8868359 c 0.070312,-0.2695313 0.082031,-0.2929688 0.4101563,-0.2929688 h 0.6445312 c 0.6445313,0 1.265625,0.1640625 1.265625,0.8085938 0,0.3515625 -0.1875,0.9140625 -0.5507812,1.171875 -0.3867188,0.2695312 -0.84375,0.3632812 -1.3007813,0.3632812 h -0.984375 z m 1.3476563,2.1796875 c 0.984375,-0.2460938 1.7460937,-0.84375 1.7460937,-1.5234375 0,-0.6914063 -0.7734375,-1.2070313 -1.8867187,-1.2070313 h -2.34375 c -0.1523438,0 -0.2460938,0 -0.2460938,0.140625 0,0.1171875 0.09375,0.1171875 0.2226563,0.1171875 0.2695312,0 0.4921875,0 0.4921875,0.1289063 0,0.035156 0,0.035156 -0.023437,0.140625 l -1.0664063,4.27734371 c -0.082031,0.3046875 -0.09375,0.375 -0.67968749,0.375 -0.15234375,0 -0.24609375,0 -0.24609375,0.140625 0,0.03515625 0.0234375,0.1171875025 0.12890625,0.1171875025 0.140625,0 0.328125,-0.0117187525 0.49218749,-0.0234375025 h 0.4921875 c 0.7382813,0 0.9726563,0.0234375025 1.0195313,0.0234375025 0.046875,0 0.1640625,0 0.1640625,-0.1523437525 0,-0.10546875 -0.1054688,-0.10546875 -0.2460938,-0.10546875 -0.023437,0 -0.1640625,0 -0.3046875,-0.0234375 -0.1640625,-0.0117188 -0.1757812,-0.0351563 -0.1757812,-0.10546875 0,-0.046875 0.011719,-0.09375 0.023438,-0.12890625 l 0.515625,-2.09765621 h 1.03125 c 0.7148437,0 0.9492187,0.3867187 0.9492187,0.703125 0,0.1171875 -0.058594,0.3398437 -0.1054687,0.5039062 -0.058594,0.234375 -0.140625,0.55078126 -0.140625,0.69140626 0,0.62109375 0.5273437,0.87890625 1.1132812,0.87890625 0.6914063,0 1.0195313,-0.7734375 1.0195313,-0.92578125 0,-0.0351563 -0.023437,-0.1171875 -0.1289063,-0.1171875 -0.082031,0 -0.1054687,0.0703125 -0.1171875,0.10546875 -0.1757812,0.55078125 -0.515625,0.71484375 -0.75,0.71484375 -0.2929687,0 -0.328125,-0.22265625 -0.328125,-0.48046875 0,-0.26953125 0.058594,-0.62109371 0.082031,-0.87890621 0.035156,-0.234375 0.035156,-0.2929688 0.035156,-0.3632813 0,-0.4804687 -0.3164062,-0.7617187 -0.7382817,-0.9257812 z m 0,0" style="fill:#000000;fill-opacity:1;fill-rule:nonzero;stroke:none" aria-label="R" transform="matrix(1.3333333,0,0,1.3333333,132.776,776.84)"/>
    <path id="path84" d="m 5.2968281,-2.9883359 c 0,-1.2773438 -1.0546875,-2.3203125 -2.3085937,-2.3203125 -1.3007813,0 -2.32031252,1.0664062 -2.32031252,2.3203125 0,1.2773437 1.05468752,2.32031246 2.30859372,2.32031246 1.3007813,0 2.3203125,-1.06640626 2.3203125,-2.32031246 z m 0,0" style="fill:#00ff00;fill-opacity:1;fill-rule:nonzero;stroke:none" aria-label="•" transform="matrix(1.3333333,0,0,1.3333333,168.336,719.05867)"/>
    <g id="g84" aria-label="(P⊕Q)⊕R&#10;Figure2.12:(P⊕Q)⊕R." transform="matrix(1.3333333,0,0,1.3333333,140.976,706.77867)">
      <path id="path85" d="m 2.6488594,1.9911953 c 0.070312,0 0.1640625,0 0.1640625,-0.09375 0,-0.035156 -0.011719,-0.046875 -0.1054688,-0.140625 -1.1015625,-1.03124999 -1.3710937,-2.51953124 -1.3710937,-3.75 0,-2.296875 0.9492187,-3.375 1.359375,-3.7382812 0.1054687,-0.1054688 0.1171875,-0.1054688 0.1171875,-0.1523438 0,-0.035156 -0.035156,-0.09375 -0.1054688,-0.09375 -0.1289062,0 -0.5273437,0.4101563 -0.5976562,0.4804688 -1.0664063,1.1132812 -1.28906252,2.5429687 -1.28906252,3.5039062 0,1.78125001 0.75000002,3.2226563 1.82812502,3.984375 z m 0,0" style="fill:#000000;fill-opacity:1;fill-rule:nonzero;stroke:none"/>
      <path id="path86" d="m 5.7484688,-2.4853672 h 1.453125 c 1.1484375,0 2.34375,-0.796875 2.34375,-1.734375 0,-0.6796875 -0.6445313,-1.21875 -1.6640625,-1.21875 H 5.1976875 c -0.1523437,0 -0.2460937,0 -0.2460937,0.140625 0,0.1171875 0.09375,0.1171875 0.2226562,0.1171875 0.2695313,0 0.4921875,0 0.4921875,0.1289063 0,0.035156 0,0.035156 -0.023437,0.140625 l -1.0664062,4.27734371 c -0.082031,0.29296875 -0.09375,0.375 -0.65625,0.375 -0.1875,0 -0.2695313,0 -0.2695313,0.140625 0,0.03515625 0.023437,0.1171875025 0.1289063,0.1171875025 0.140625,0 0.3398437,-0.0117187525 0.4921875,-0.0234375025 H 4.775813 c 0.7734375,0 0.9726563,0.0234375025 1.03125,0.0234375025 0.046875,0 0.1640625,0 0.1640625,-0.1523437525 0,-0.10546875 -0.1054687,-0.10546875 -0.2460937,-0.10546875 -0.023437,0 -0.1640625,0 -0.3046875,-0.0234375 -0.1640625,-0.0117188 -0.1757813,-0.0351563 -0.1757813,-0.10546875 0,-0.046875 0.011719,-0.09375 0.023437,-0.12890625 z m 0.5859375,-2.4023437 c 0.070312,-0.2695313 0.082031,-0.2929688 0.4101562,-0.2929688 H 7.61175 c 0.65625,0 1.1601563,0.1875 1.1601563,0.7851563 0,0.09375 -0.035156,0.8085937 -0.4921875,1.2421875 -0.1171875,0.1289062 -0.4921875,0.421875 -1.2773438,0.421875 H 5.7953438 Z m 0,0" style="fill:#000000;fill-opacity:1;fill-rule:nonzero;stroke:none"/>
      <path id="path87" d="m 17.865656,-1.9931797 c 0,-1.5585937 -1.277344,-2.8242187 -2.8125,-2.8242187 -1.558593,0 -2.824218,1.2773437 -2.824218,2.8242187 0,1.54687501 1.265625,2.82421876 2.824218,2.82421876 1.535156,0 2.8125,-1.265625 2.8125,-2.82421876 z m -5.390625,-0.1289062 c 0.07031,-1.3125 1.125,-2.3789063 2.449219,-2.4492188 v 2.4492188 z m 2.695313,-2.4492188 c 1.335937,0.070312 2.378906,1.1367188 2.449218,2.4492188 H 15.170344 Z M 14.92425,0.58494531 c -1.3125,-0.0703125 -2.367187,-1.1015625 -2.449219,-2.46093751 h 2.449219 z m 2.695312,-2.46093751 c -0.08203,1.37109376 -1.160156,2.39062501 -2.449218,2.46093751 V -1.8759922 Z m 0,0" style="fill:#000000;fill-opacity:1;fill-rule:nonzero;stroke:none"/>
      <path id="path88" d="m 24.018,-0.05958594 c 1.242187,-0.4453125 2.484375,-1.80468746 2.484375,-3.36328126 0,-1.3125 -0.902344,-2.1914062 -2.179688,-2.1914062 -1.863281,0 -3.632812,1.8398437 -3.632812,3.6210937 0,1.23046876 0.855469,2.15625001 2.191406,2.15625001 0.222656,0 0.492188,-0.0234375 0.808594,-0.10546875 0,0.09375 -0.01172,0.3984375 -0.01172,0.45703125 0,0.328125 0,1.03124999 0.726563,1.03124999 0.9375,0 1.382812,-1.40624999 1.382812,-1.5468749875 0,-0.0585937525 -0.04687,-0.1171875025 -0.117187,-0.1171875025 -0.07031,0 -0.09375,0.08203125 -0.105469,0.10546875 -0.164063,0.52734375 -0.632813,0.75 -0.960938,0.75 -0.28125,0 -0.480468,-0.10546875 -0.585937,-0.796875 z m -1.640625,-0.12890625 c -0.632813,-0.24609375 -0.9375,-0.82031251 -0.9375,-1.59375001 0,-0.5390625 0.175781,-1.5703125 0.820312,-2.4492187 0.527344,-0.6914063 1.289063,-1.1367188 1.992188,-1.1367188 0.84375,0 1.511719,0.5976563 1.511719,1.7226563 0,0.421875 -0.164063,2.3671875 -1.792969,3.29296871 -0.09375,-0.45703125 -0.257813,-0.85546871 -0.773438,-0.85546871 -0.457031,0 -0.867187,0.41015621 -0.867187,0.82031246 0,0.0703125 0.02344,0.140625 0.04687,0.19921875 z m 1.324219,-0.046875 c -0.175782,0.0703125 -0.457032,0.15234375 -0.761719,0.15234375 -0.09375,0 -0.386719,0 -0.386719,-0.3046875 0,-0.28125 0.304688,-0.59765625 0.65625,-0.59765625 0.339844,0 0.480469,0.22265625 0.492188,0.75 z m 0,0" style="fill:#000000;fill-opacity:1;fill-rule:nonzero;stroke:none"/>
      <path id="path89" d="m 29.461359,-1.9931797 c 0,-0.7617187 -0.128906,-1.6640625 -0.621093,-2.6015625 -0.386719,-0.7382812 -1.113282,-1.3828125 -1.253907,-1.3828125 -0.08203,0 -0.105468,0.058594 -0.105468,0.09375 0,0.035156 0,0.046875 0.09375,0.140625 1.113281,1.0664063 1.371093,2.5195313 1.371093,3.75 0,2.28515626 -0.949218,3.375 -1.359375,3.7382813 -0.105468,0.1054687 -0.105468,0.1054687 -0.105468,0.1523437 0,0.035156 0.02344,0.09375 0.105468,0.09375 0.128907,0 0.527344,-0.4101562 0.585938,-0.4804687 1.066406,-1.11328129 1.289062,-2.5429688 1.289062,-3.5039063 z m 0,0" style="fill:#000000;fill-opacity:1;fill-rule:nonzero;stroke:none"/>
      <path id="path90" d="m 38.144953,-1.9931797 c 0,-1.5585937 -1.277344,-2.8242187 -2.8125,-2.8242187 -1.558594,0 -2.824219,1.2773437 -2.824219,2.8242187 0,1.54687501 1.265625,2.82421876 2.824219,2.82421876 1.535156,0 2.8125,-1.265625 2.8125,-2.82421876 z m -5.390625,-0.1289062 c 0.07031,-1.3125 1.125,-2.3789063 2.449219,-2.4492188 v 2.4492188 z m 2.695313,-2.4492188 c 1.335937,0.070312 2.378906,1.1367188 2.449218,2.4492188 h -2.449218 z m -0.246094,5.15625001 c -1.3125,-0.0703125 -2.367188,-1.1015625 -2.449219,-2.46093751 h 2.449219 z m 2.695312,-2.46093751 c -0.08203,1.37109376 -1.160156,2.39062501 -2.449218,2.46093751 V -1.8759922 Z m 0,0" style="fill:#000000;fill-opacity:1;fill-rule:nonzero;stroke:none"/>
      <path id="path91" d="m 43.652766,-4.8877109 c 0.07031,-0.2695313 0.08203,-0.2929688 0.410156,-0.2929688 h 0.644531 c 0.644531,0 1.265625,0.1640625 1.265625,0.8085938 0,0.3515625 -0.1875,0.9140625 -0.550781,1.171875 -0.386719,0.2695312 -0.84375,0.3632812 -1.300781,0.3632812 h -0.984375 z m 1.347656,2.1796875 c 0.984375,-0.2460938 1.746094,-0.84375 1.746094,-1.5234375 0,-0.6914063 -0.773438,-1.2070313 -1.886719,-1.2070313 h -2.34375 c -0.152344,0 -0.246094,0 -0.246094,0.140625 0,0.1171875 0.09375,0.1171875 0.222656,0.1171875 0.269532,0 0.492188,0 0.492188,0.1289063 0,0.035156 0,0.035156 -0.02344,0.140625 l -1.066406,4.27734371 c -0.08203,0.3046875 -0.09375,0.375 -0.679687,0.375 -0.152344,0 -0.246094,0 -0.246094,0.140625 0,0.03515625 0.02344,0.1171875025 0.128906,0.1171875025 0.140625,0 0.328125,-0.0117187525 0.492188,-0.0234375025 h 0.492187 c 0.738281,0 0.972656,0.0234375025 1.019531,0.0234375025 0.04687,0 0.164063,0 0.164063,-0.1523437525 0,-0.10546875 -0.105469,-0.10546875 -0.246094,-0.10546875 -0.02344,0 -0.164062,0 -0.304687,-0.0234375 -0.164063,-0.0117188 -0.175782,-0.0351563 -0.175782,-0.10546875 0,-0.046875 0.01172,-0.09375 0.02344,-0.12890625 l 0.515625,-2.09765621 h 1.03125 c 0.714844,0 0.949219,0.3867187 0.949219,0.703125 0,0.1171875 -0.05859,0.3398437 -0.105469,0.5039062 -0.05859,0.234375 -0.140625,0.55078126 -0.140625,0.69140626 0,0.62109375 0.527344,0.87890625 1.113281,0.87890625 0.691406,0 1.019531,-0.7734375 1.019531,-0.92578125 0,-0.0351563 -0.02344,-0.1171875 -0.128906,-0.1171875 -0.08203,0 -0.105469,0.0703125 -0.117187,0.10546875 -0.175782,0.55078125 -0.515625,0.71484375 -0.75,0.71484375 -0.292969,0 -0.328125,-0.22265625 -0.328125,-0.48046875 0,-0.26953125 0.05859,-0.62109371 0.08203,-0.87890621 0.03516,-0.234375 0.03516,-0.2929688 0.03516,-0.3632813 0,-0.4804687 -0.316406,-0.7617187 -0.738281,-0.9257812 z m 0,0" style="fill:#000000;fill-opacity:1;fill-rule:nonzero;stroke:none"/>
      
      
      
      
      
      
      
      
    </g>
    
    
    
    
    
    
    
    
    
    
    
    
    
    
    
    
    
    
  </g>
</svg>