<svg version="1.1" id="svg1" width="292.00190844110057" height="261.00242946137786" viewBox="83.00054246784707 242.00225260403616 292.00190844110057 261.00242946137786" sodipodi:docname="ch3.pdf" xmlns:inkscape="http://www.inkscape.org/namespaces/inkscape" xmlns:sodipodi="http://sodipodi.sourceforge.net/DTD/sodipodi-0.dtd" xmlns="http://www.w3.org/2000/svg" xmlns:svg="http://www.w3.org/2000/svg" style="">
  <defs id="defs1">
    <clipPath clipPathUnits="userSpaceOnUse" id="clipPath38">
      <path d="M -49.464001,100.181 V -69.898004 H 177.307 V 100.181 Z" id="path38"/>
    </clipPath>
    <clipPath clipPathUnits="userSpaceOnUse" id="clipPath42">
      <path d="M -57.117999,71.800999 V -98.278005 H 169.65301 V 71.800999 Z" id="path42"/>
    </clipPath>
    <clipPath clipPathUnits="userSpaceOnUse" id="clipPath46">
      <path d="M -20.976601,72.415002 V -97.664002 H 205.79441 V 72.415002 Z" id="path46"/>
    </clipPath>
    <clipPath clipPathUnits="userSpaceOnUse" id="clipPath50">
      <path d="M -86.882005,92.149002 V -77.930002 H 139.889 V 92.149002 Z" id="path50"/>
    </clipPath>
    <clipPath clipPathUnits="userSpaceOnUse" id="clipPath54">
      <path d="M -128.53701,72.352002 V -97.727002 H 98.234 V 72.352002 Z" id="path54"/>
    </clipPath>
    <clipPath clipPathUnits="userSpaceOnUse" id="clipPath59">
      <path d="M -159.165,98.037005 V -72.041999 H 67.606002 V 98.037005 Z" id="path59"/>
    </clipPath>
    <clipPath clipPathUnits="userSpaceOnUse" id="clipPath64">
      <path d="M -25.983601,97.52 V -72.559004 H 200.78741 V 97.52 Z" id="path64"/>
    </clipPath>
    <clipPath clipPathUnits="userSpaceOnUse" id="clipPath69">
      <path d="M -95.718002,76.414002 V -93.665002 H 131.053 V 76.414002 Z" id="path69"/>
    </clipPath>
    <clipPath clipPathUnits="userSpaceOnUse" id="clipPath74">
      <path d="M -126.219,94.596005 V -75.482999 H 100.552 V 94.596005 Z" id="path74"/>
    </clipPath>
    <clipPath clipPathUnits="userSpaceOnUse" id="clipPath79">
      <path d="M -160.10301,74.095002 V -95.984002 H 66.667999 V 74.095002 Z" id="path79"/>
    </clipPath>
    <clipPath clipPathUnits="userSpaceOnUse" id="clipPath105">
      <path d="M -38.327003,162.958 V -7.1210002 H 188.445 V 162.958 Z" id="path105"/>
    </clipPath>
    <clipPath clipPathUnits="userSpaceOnUse" id="clipPath110">
      <path d="M -26.583998,152.768 V -17.311003 H 200.18801 V 152.768 Z" id="path110"/>
    </clipPath>
    <clipPath clipPathUnits="userSpaceOnUse" id="clipPath115">
      <path d="M -92.066005,64.246002 V -105.833 H 134.706 V 64.246002 Z" id="path115"/>
    </clipPath>
    <clipPath clipPathUnits="userSpaceOnUse" id="clipPath120">
      <path d="M -129.796,106.258 V -63.821002 H 96.976005 V 106.258 Z" id="path120"/>
    </clipPath>
    <clipPath clipPathUnits="userSpaceOnUse" id="clipPath125">
      <path d="M -159.427,50.529004 V -119.55 H 67.345004 V 50.529004 Z" id="path125"/>
    </clipPath>
    <clipPath clipPathUnits="userSpaceOnUse" id="clipPath127">
      <path d="m 2842.8001,4720.6004 v 1700.79 h 2267.72 v -1700.79 z" id="path127"/>
    </clipPath>
    <clipPath clipPathUnits="userSpaceOnUse" id="clipPath132">
      <path d="M -107.658,77.152999 V -92.926005 H 119.114 V 77.152999 Z" id="path132"/>
    </clipPath>
    <clipPath clipPathUnits="userSpaceOnUse" id="clipPath137">
      <path d="M -149.724,96.743 V -73.336004 H 77.048002 V 96.743 Z" id="path137"/>
    </clipPath>
    <clipPath clipPathUnits="userSpaceOnUse" id="clipPath142">
      <path d="M -50.054004,74.308999 V -95.770005 H 176.718 V 74.308999 Z" id="path142"/>
    </clipPath>
  </defs>
  <sodipodi:namedview id="namedview1" pagecolor="#ffffff" bordercolor="#000000" borderopacity="0.25" inkscape:showpageshadow="2" inkscape:pageopacity="0.0" inkscape:pagecheckerboard="0" inkscape:deskcolor="#d1d1d1">
    <inkscape:page x="0" y="0" inkscape:label="10" id="page1" width="793.33331" height="1122.6667" margin="0" bleed="0"/>
  </sodipodi:namedview>
  <g id="g1" inkscape:groupmode="layer" inkscape:label="10">
    
    
    
    <path id="path26" d="m 1039.3,5569.88 c 0,0 2.51,-33.95 6.51,-51.34 1.57,-6.83 3.85,-12.77 6.51,-19.25 1.95,-4.74 3.99,-8.89 6.51,-13.35 2.03,-3.61 4.06,-6.75 6.51,-10.09 2.08,-2.86 4.11,-5.31 6.5,-7.91 2.12,-2.29 4.15,-4.24 6.51,-6.28 2.15,-1.85 4.17,-3.4 6.51,-5 2.17,-1.49 4.19,-2.71 6.51,-3.96 2.18,-1.18 4.21,-2.14 6.51,-3.09 2.2,-0.91 4.22,-1.63 6.5,-2.34 2.22,-0.68 4.24,-1.2 6.51,-1.69 2.23,-0.48 4.25,-0.82 6.5,-1.12 2.24,-0.3 4.26,-0.48 6.51,-0.62 2.24,-0.13 4.26,-0.18 6.51,-0.16 2.25,0.01 4.27,0.09 6.51,0.23 2.25,0.15 4.27,0.34 6.51,0.6 2.25,0.26 4.27,0.56 6.5,0.93 2.26,0.37 4.28,0.75 6.51,1.22 2.26,0.47 4.27,0.94 6.51,1.49 2.26,0.56 4.27,1.1 6.51,1.74 2.25,0.64 4.27,1.25 6.5,1.96 2.26,0.72 4.28,1.39 6.51,2.17 2.26,0.78 4.28,1.51 6.51,2.35 2.25,0.84 4.27,1.63 6.51,2.52 2.25,0.91 4.27,1.74 6.51,2.68 2.25,0.96 4.27,1.83 6.5,2.83 2.26,1 4.27,1.91 6.51,2.95 2.26,1.04 4.27,2 6.51,3.07 2.25,1.08 4.27,2.07 6.51,3.19 2.25,1.12 4.27,2.13 6.51,3.28 2.25,1.15 4.26,2.2 6.5,3.38 2.25,1.18 4.27,2.25 6.51,3.46 2.25,1.21 4.27,2.31 6.51,3.54 2.25,1.24 4.26,2.37 6.51,3.62 2.25,1.27 4.26,2.41 6.5,3.7 2.25,1.29 4.27,2.45 6.51,3.76 2.25,1.31 4.27,2.49 6.51,3.83 2.25,1.33 4.27,2.54 6.51,3.89 2.25,1.37 4.26,2.6 6.51,3.98 2.25,1.39 4.26,2.64 6.5,4.05 2.25,1.42 4.27,2.7 6.51,4.15 2.26,1.45 4.27,2.77 6.5,4.25 2.26,1.5 4.28,2.85 6.51,4.39 2.26,1.55 4.28,2.96 6.51,4.56 2.27,1.63 4.29,3.11 6.51,4.81 2.28,1.75 4.31,3.33 6.51,5.18 2.3,1.94 4.36,3.69 6.5,5.8 2.37,2.33 4.71,4.31 6.51,7.09 3.07,4.72 6.51,14.99 6.51,14.99" style="fill:none;stroke:#000000;stroke-width:6.97385;stroke-linecap:butt;stroke-linejoin:miter;stroke-miterlimit:10;stroke-dasharray:none;stroke-opacity:1" transform="matrix(0.13333333,0,0,-0.13333333,0,1122.6667)"/>
    <path id="path27" d="m 1570.82,5569.69 c 0,0 2.41,-4.74 4.34,-6.71 1.26,-1.27 2.78,-1.99 4.34,-2.89 1.45,-0.84 2.81,-1.47 4.34,-2.16 1.47,-0.67 2.82,-1.2 4.33,-1.77 1.49,-0.56 2.83,-1.02 4.34,-1.51 1.49,-0.48 2.83,-0.88 4.34,-1.31 1.49,-0.42 2.83,-0.78 4.34,-1.15 1.49,-0.38 2.83,-0.69 4.33,-1.03 1.5,-0.34 2.84,-0.62 4.34,-0.92 1.5,-0.3 2.84,-0.55 4.34,-0.82 1.5,-0.26 2.84,-0.49 4.34,-0.73 1.49,-0.24 2.84,-0.44 4.34,-0.65 1.49,-0.21 2.83,-0.39 4.33,-0.58 1.5,-0.18 2.84,-0.34 4.34,-0.5 1.5,-0.17 2.84,-0.3 4.34,-0.44 1.5,-0.15 2.84,-0.27 4.34,-0.39 1.49,-0.12 2.84,-0.22 4.34,-0.32 1.49,-0.1 2.84,-0.18 4.33,-0.26 1.5,-0.08 2.84,-0.15 4.34,-0.21 1.5,-0.06 2.84,-0.11 4.34,-0.15 1.49,-0.05 2.84,-0.08 4.34,-0.11 1.49,-0.03 2.84,-0.04 4.33,-0.05 1.5,-0.01 2.84,-0.01 4.34,0 1.5,0.01 2.84,0.02 4.34,0.04 1.5,0.03 2.84,0.06 4.34,0.1 1.5,0.04 2.84,0.08 4.34,0.14 1.49,0.06 2.84,0.12 4.34,0.19 1.49,0.07 2.84,0.15 4.33,0.24 1.5,0.09 2.84,0.17 4.34,0.28 1.5,0.11 2.84,0.21 4.34,0.33 1.49,0.13 2.84,0.24 4.34,0.38 1.49,0.14 2.84,0.27 4.33,0.43 1.5,0.15 2.85,0.3 4.34,0.47 1.5,0.17 2.84,0.33 4.34,0.53 1.5,0.18 2.84,0.36 4.34,0.57 1.49,0.21 2.84,0.4 4.33,0.63 1.5,0.23 2.85,0.44 4.34,0.68 1.5,0.25 2.84,0.48 4.34,0.74 1.5,0.27 2.84,0.52 4.34,0.81 1.5,0.29 2.84,0.55 4.34,0.86 1.5,0.32 2.84,0.61 4.34,0.95 1.5,0.34 2.84,0.65 4.33,1.03 1.5,0.37 2.85,0.71 4.34,1.12 1.5,0.41 2.85,0.79 4.34,1.25 1.5,0.45 2.85,0.88 4.34,1.39 1.51,0.52 2.85,1 4.33,1.59 1.52,0.61 2.88,1.17 4.34,1.9 1.54,0.78 3.04,1.36 4.34,2.49 1.84,1.6 4.34,5.61 4.34,5.61" style="fill:none;stroke:#000000;stroke-width:6.97385;stroke-linecap:butt;stroke-linejoin:miter;stroke-miterlimit:10;stroke-dasharray:none;stroke-opacity:1" transform="matrix(0.13333333,0,0,-0.13333333,0,1122.6667)"/>
    <path id="path28" d="m 1996.02,5569.73 c 0,0 2.45,-4.44 4.34,-6.27 1.27,-1.25 2.78,-1.94 4.34,-2.83 1.45,-0.83 2.81,-1.48 4.33,-2.18 1.48,-0.69 2.83,-1.25 4.34,-1.86 1.49,-0.6 2.83,-1.1 4.34,-1.64 1.49,-0.54 2.83,-1 4.34,-1.49 1.49,-0.49 2.83,-0.91 4.33,-1.37 1.5,-0.45 2.84,-0.84 4.34,-1.26 1.49,-0.42 2.84,-0.79 4.34,-1.18 1.49,-0.39 2.84,-0.73 4.33,-1.1 1.5,-0.37 2.84,-0.69 4.34,-1.03 1.5,-0.35 2.84,-0.65 4.34,-0.97 1.5,-0.32 2.84,-0.6 4.34,-0.91 1.5,-0.3 2.84,-0.56 4.34,-0.85 1.49,-0.28 2.84,-0.52 4.34,-0.79 1.49,-0.27 2.84,-0.49 4.33,-0.74 1.5,-0.24 2.84,-0.46 4.34,-0.69 1.5,-0.22 2.84,-0.42 4.34,-0.62 1.49,-0.22 2.84,-0.4 4.34,-0.59 1.49,-0.18 2.84,-0.35 4.33,-0.52 1.5,-0.17 2.85,-0.32 4.34,-0.47 1.5,-0.16 2.84,-0.28 4.34,-0.42 1.5,-0.13 2.84,-0.25 4.34,-0.36 1.5,-0.12 2.84,-0.21 4.33,-0.3 1.5,-0.1 2.85,-0.18 4.34,-0.25 1.5,-0.08 2.84,-0.14 4.34,-0.19 1.5,-0.06 2.84,-0.1 4.34,-0.13 1.5,-0.04 2.84,-0.06 4.34,-0.07 1.5,-0.01 2.84,-0.01 4.34,0 1.49,0.01 2.84,0.03 4.33,0.06 1.5,0.04 2.85,0.08 4.34,0.14 1.5,0.06 2.84,0.13 4.34,0.21 1.5,0.08 2.84,0.17 4.34,0.28 1.49,0.12 2.84,0.23 4.33,0.37 1.5,0.14 2.85,0.28 4.34,0.45 1.5,0.17 2.85,0.34 4.34,0.54 1.5,0.2 2.84,0.39 4.34,0.63 1.5,0.24 2.84,0.47 4.34,0.74 1.5,0.27 2.84,0.54 4.34,0.85 1.5,0.31 2.84,0.62 4.33,0.97 1.51,0.36 2.85,0.71 4.34,1.12 1.51,0.41 2.85,0.8 4.34,1.27 1.5,0.47 2.85,0.92 4.34,1.45 1.5,0.54 2.85,1.06 4.33,1.67 1.52,0.63 2.87,1.22 4.34,1.95 1.53,0.75 2.88,1.45 4.34,2.31 1.54,0.92 2.92,1.77 4.34,2.87 1.59,1.23 3.14,2.28 4.33,3.88 2.09,2.78 4.34,9.09 4.34,9.09" style="fill:none;stroke:#000000;stroke-width:6.97385;stroke-linecap:butt;stroke-linejoin:miter;stroke-miterlimit:10;stroke-dasharray:none;stroke-opacity:1" transform="matrix(0.13333333,0,0,-0.13333333,0,1122.6667)"/>
    <path id="path29" d="m 2378.68,5569.64 c 0,0 2.53,-15.23 5.2,-22.87 1.37,-3.91 3.28,-7.16 5.21,-10.82 1.68,-3.2 3.35,-5.99 5.2,-9.09 1.75,-2.92 3.39,-5.49 5.21,-8.34 1.77,-2.77 3.39,-5.23 5.21,-7.96 1.78,-2.69 3.4,-5.09 5.2,-7.76 1.79,-2.65 3.41,-5.01 5.21,-7.66 1.79,-2.64 3.41,-5 5.21,-7.64 1.79,-2.64 3.41,-5.01 5.21,-7.66 1.8,-2.66 3.41,-5.05 5.2,-7.72 1.8,-2.68 3.42,-5.1 5.21,-7.79 1.8,-2.72 3.42,-5.17 5.2,-7.9 1.81,-2.76 3.42,-5.24 5.21,-8.02 1.81,-2.8 3.42,-5.32 5.21,-8.14 1.81,-2.85 3.42,-5.42 5.2,-8.29 1.81,-2.9 3.43,-5.51 5.21,-8.43 1.81,-2.96 3.42,-5.62 5.2,-8.6 1.82,-3.01 3.43,-5.72 5.21,-8.75 1.81,-3.08 3.42,-5.85 5.21,-8.94 1.81,-3.13 3.42,-5.96 5.2,-9.11 1.81,-3.19 3.43,-6.08 5.21,-9.29 1.81,-3.26 3.42,-6.2 5.21,-9.48 1.81,-3.33 3.42,-6.33 5.2,-9.67 1.81,-3.4 3.43,-6.46 5.21,-9.87 1.81,-3.46 3.42,-6.59 5.21,-10.07 1.81,-3.54 3.42,-6.72 5.2,-10.27 1.82,-3.61 3.42,-6.86 5.21,-10.49 1.81,-3.68 3.42,-6.99 5.21,-10.69 1.81,-3.76 3.42,-7.14 5.2,-10.92 1.81,-3.83 3.43,-7.28 5.21,-11.13 1.81,-3.91 3.42,-7.43 5.2,-11.35 1.82,-3.99 3.43,-7.58 5.21,-11.58 1.81,-4.07 3.43,-7.73 5.21,-11.8 1.81,-4.15 3.42,-7.88 5.21,-12.05 1.8,-4.22 3.42,-8.03 5.2,-12.27 1.81,-4.31 3.42,-8.19 5.21,-12.52 1.81,-4.39 3.42,-8.34 5.2,-12.75 1.81,-4.48 3.43,-8.51 5.21,-13 1.81,-4.56 3.43,-8.67 5.21,-13.24 1.81,-4.66 3.42,-8.84 5.2,-13.5 1.81,-4.74 3.43,-9 5.21,-13.75 1.81,-4.83 3.42,-9.17 5.2,-14 1.82,-4.92 3.43,-9.34 5.21,-14.27 1.81,-5.01 3.43,-9.51 5.21,-14.52 1.81,-5.1 3.42,-9.68 5.2,-14.79 1.82,-5.19 3.43,-9.86 5.21,-15.06 1.81,-5.28 3.42,-10.03 5.21,-15.33 1.81,-5.38 3.42,-10.21 5.2,-15.6 1.81,-5.47 5.21,-15.88 5.21,-15.88" style="fill:none;stroke:#000000;stroke-width:6.97385;stroke-linecap:butt;stroke-linejoin:miter;stroke-miterlimit:10;stroke-dasharray:none;stroke-opacity:1" transform="matrix(0.13333333,0,0,-0.13333333,0,1122.6667)"/>
    <path id="path30" d="m 1039.3,5570.52 c 0,0 2.51,33.94 6.51,51.35 1.57,6.83 3.85,12.76 6.51,19.24 1.95,4.74 3.99,8.89 6.51,13.35 2.03,3.61 4.06,6.75 6.51,10.09 2.08,2.86 4.11,5.32 6.5,7.91 2.12,2.29 4.15,4.24 6.51,6.28 2.15,1.85 4.17,3.4 6.51,5.01 2.17,1.48 4.19,2.71 6.51,3.96 2.18,1.18 4.21,2.13 6.51,3.08 2.2,0.92 4.22,1.64 6.5,2.34 2.22,0.68 4.24,1.2 6.51,1.69 2.23,0.48 4.25,0.82 6.5,1.12 2.24,0.3 4.26,0.48 6.51,0.61 2.24,0.14 4.26,0.18 6.51,0.17 2.25,-0.01 4.27,-0.09 6.51,-0.23 2.25,-0.15 4.27,-0.34 6.51,-0.6 2.25,-0.27 4.27,-0.56 6.5,-0.93 2.26,-0.37 4.28,-0.75 6.51,-1.22 2.26,-0.47 4.27,-0.94 6.51,-1.49 2.26,-0.56 4.27,-1.1 6.51,-1.74 2.25,-0.64 4.27,-1.25 6.5,-1.96 2.26,-0.71 4.28,-1.39 6.51,-2.17 2.26,-0.78 4.28,-1.51 6.51,-2.35 2.25,-0.85 4.27,-1.63 6.51,-2.52 2.25,-0.9 4.27,-1.74 6.51,-2.68 2.25,-0.95 4.27,-1.83 6.5,-2.83 2.26,-1 4.27,-1.91 6.51,-2.95 2.26,-1.04 4.27,-2 6.51,-3.07 2.25,-1.09 4.27,-2.07 6.51,-3.18 2.25,-1.12 4.27,-2.14 6.51,-3.29 2.25,-1.15 4.26,-2.2 6.5,-3.38 2.25,-1.18 4.27,-2.25 6.51,-3.46 2.25,-1.21 4.27,-2.31 6.51,-3.55 2.25,-1.23 4.26,-2.35 6.51,-3.61 2.25,-1.27 4.26,-2.41 6.5,-3.69 2.25,-1.29 4.27,-2.46 6.51,-3.77 2.25,-1.31 4.27,-2.5 6.51,-3.82 2.25,-1.34 4.27,-2.55 6.51,-3.91 2.25,-1.36 4.26,-2.59 6.51,-3.97 2.25,-1.39 4.26,-2.64 6.5,-4.05 2.25,-1.42 4.27,-2.7 6.51,-4.15 2.26,-1.45 4.27,-2.76 6.5,-4.25 2.26,-1.5 4.28,-2.85 6.51,-4.38 2.26,-1.56 4.28,-2.97 6.51,-4.57 2.27,-1.63 4.29,-3.11 6.51,-4.81 2.28,-1.75 4.31,-3.33 6.51,-5.18 2.3,-1.94 4.36,-3.69 6.5,-5.8 2.37,-2.33 4.71,-4.31 6.51,-7.09 3.07,-4.72 6.51,-14.98 6.51,-14.98" style="fill:none;stroke:#000000;stroke-width:6.97385;stroke-linecap:butt;stroke-linejoin:miter;stroke-miterlimit:10;stroke-dasharray:none;stroke-opacity:1" transform="matrix(0.13333333,0,0,-0.13333333,0,1122.6667)"/>
    <path id="path31" d="m 1570.82,5570.71 c 0,0 2.41,4.75 4.34,6.7 1.26,1.29 2.78,2 4.34,2.9 1.45,0.84 2.81,1.48 4.34,2.16 1.47,0.67 2.82,1.2 4.33,1.77 1.49,0.56 2.83,1.02 4.34,1.51 1.49,0.48 2.83,0.88 4.34,1.31 1.49,0.42 2.83,0.78 4.34,1.15 1.49,0.38 2.83,0.7 4.33,1.03 1.5,0.34 2.84,0.62 4.34,0.92 1.5,0.3 2.84,0.55 4.34,0.82 1.5,0.27 2.84,0.49 4.34,0.73 1.49,0.24 2.84,0.44 4.34,0.65 1.49,0.21 2.83,0.39 4.33,0.58 1.5,0.18 2.84,0.34 4.34,0.51 1.5,0.16 2.84,0.3 4.34,0.44 1.5,0.14 2.84,0.25 4.34,0.38 1.49,0.12 2.84,0.21 4.34,0.32 1.49,0.1 2.84,0.18 4.33,0.26 1.5,0.08 2.84,0.15 4.34,0.21 1.5,0.06 2.84,0.11 4.34,0.15 1.49,0.05 2.84,0.08 4.34,0.11 1.49,0.02 2.84,0.04 4.33,0.05 1.5,0.01 2.84,0.01 4.34,0 1.5,-0.01 2.84,-0.02 4.34,-0.04 1.5,-0.03 2.84,-0.06 4.34,-0.1 1.5,-0.04 2.84,-0.08 4.34,-0.14 1.49,-0.06 2.84,-0.12 4.34,-0.19 1.49,-0.07 2.84,-0.15 4.33,-0.24 1.5,-0.09 2.84,-0.18 4.34,-0.28 1.5,-0.11 2.84,-0.21 4.34,-0.33 1.49,-0.12 2.84,-0.24 4.34,-0.38 1.49,-0.14 2.84,-0.27 4.33,-0.42 1.5,-0.16 2.85,-0.31 4.34,-0.48 1.5,-0.17 2.84,-0.34 4.34,-0.52 1.5,-0.2 2.84,-0.37 4.34,-0.58 1.49,-0.21 2.84,-0.4 4.33,-0.63 1.5,-0.22 2.85,-0.43 4.34,-0.68 1.5,-0.25 2.84,-0.47 4.34,-0.74 1.5,-0.27 2.84,-0.51 4.34,-0.8 1.5,-0.29 2.84,-0.56 4.34,-0.87 1.5,-0.32 2.84,-0.61 4.34,-0.95 1.5,-0.34 2.84,-0.66 4.33,-1.03 1.5,-0.37 2.85,-0.72 4.34,-1.12 1.5,-0.41 2.85,-0.79 4.34,-1.24 1.5,-0.46 2.85,-0.88 4.34,-1.4 1.51,-0.51 2.85,-1 4.33,-1.59 1.52,-0.61 2.88,-1.17 4.34,-1.91 1.54,-0.77 3.04,-1.35 4.34,-2.48 1.84,-1.61 4.34,-5.61 4.34,-5.61" style="fill:none;stroke:#000000;stroke-width:6.97385;stroke-linecap:butt;stroke-linejoin:miter;stroke-miterlimit:10;stroke-dasharray:none;stroke-opacity:1" transform="matrix(0.13333333,0,0,-0.13333333,0,1122.6667)"/>
    <path id="path32" d="m 1996.02,5570.67 c 0,0 2.45,4.44 4.34,6.28 1.27,1.24 2.78,1.93 4.34,2.82 1.45,0.83 2.81,1.48 4.33,2.18 1.48,0.69 2.83,1.25 4.34,1.86 1.49,0.6 2.83,1.1 4.34,1.65 1.49,0.53 2.83,0.99 4.34,1.49 1.49,0.48 2.83,0.9 4.33,1.36 1.5,0.45 2.84,0.84 4.34,1.26 1.49,0.42 2.84,0.79 4.34,1.18 1.49,0.39 2.84,0.73 4.33,1.1 1.5,0.37 2.84,0.69 4.34,1.03 1.5,0.35 2.84,0.65 4.34,0.97 1.5,0.33 2.84,0.61 4.34,0.91 1.5,0.3 2.84,0.56 4.34,0.85 1.49,0.28 2.84,0.53 4.34,0.79 1.49,0.26 2.84,0.49 4.33,0.74 1.5,0.25 2.84,0.46 4.34,0.68 1.5,0.23 2.84,0.43 4.34,0.64 1.49,0.21 2.84,0.38 4.34,0.58 1.49,0.19 2.84,0.35 4.33,0.52 1.5,0.17 2.85,0.32 4.34,0.47 1.5,0.16 2.84,0.29 4.34,0.42 1.5,0.14 2.84,0.25 4.34,0.36 1.5,0.12 2.84,0.21 4.33,0.31 1.5,0.09 2.85,0.17 4.34,0.25 1.5,0.07 2.84,0.13 4.34,0.18 1.5,0.06 2.84,0.1 4.34,0.13 1.5,0.03 2.84,0.06 4.34,0.07 1.5,0.01 2.84,0.01 4.34,0 1.49,-0.01 2.84,-0.03 4.33,-0.07 1.5,-0.03 2.85,-0.07 4.34,-0.13 1.5,-0.06 2.84,-0.12 4.34,-0.21 1.5,-0.09 2.84,-0.17 4.34,-0.29 1.49,-0.1 2.84,-0.22 4.33,-0.36 1.5,-0.14 2.85,-0.28 4.34,-0.45 1.5,-0.17 2.85,-0.33 4.34,-0.54 1.5,-0.2 2.84,-0.4 4.34,-0.63 1.5,-0.24 2.84,-0.46 4.34,-0.74 1.5,-0.27 2.84,-0.53 4.34,-0.85 1.5,-0.32 2.84,-0.61 4.33,-0.97 1.51,-0.37 2.85,-0.71 4.34,-1.12 1.51,-0.41 2.85,-0.8 4.34,-1.27 1.5,-0.47 2.85,-0.91 4.34,-1.45 1.5,-0.54 2.85,-1.05 4.33,-1.67 1.52,-0.63 2.87,-1.23 4.34,-1.95 1.53,-0.75 2.88,-1.44 4.34,-2.32 1.54,-0.91 2.92,-1.77 4.34,-2.86 1.59,-1.23 3.14,-2.28 4.33,-3.88 2.09,-2.78 4.34,-9.09 4.34,-9.09" style="fill:none;stroke:#000000;stroke-width:6.97385;stroke-linecap:butt;stroke-linejoin:miter;stroke-miterlimit:10;stroke-dasharray:none;stroke-opacity:1" transform="matrix(0.13333333,0,0,-0.13333333,0,1122.6667)"/>
    <path id="path33" d="m 2378.68,5570.75 c 0,0 2.53,15.25 5.2,22.88 1.37,3.91 3.28,7.16 5.21,10.83 1.68,3.2 3.35,5.99 5.2,9.09 1.75,2.91 3.39,5.48 5.21,8.34 1.77,2.76 3.39,5.22 5.21,7.95 1.78,2.69 3.4,5.09 5.2,7.76 1.79,2.65 3.41,5.02 5.21,7.66 1.79,2.64 3.41,5 5.21,7.64 1.79,2.64 3.41,5.01 5.21,7.66 1.8,2.66 3.41,5.05 5.2,7.71 1.8,2.69 3.42,5.11 5.21,7.8 1.8,2.72 3.42,5.17 5.2,7.9 1.81,2.76 3.42,5.24 5.21,8.01 1.81,2.81 3.42,5.33 5.21,8.15 1.81,2.85 3.42,5.42 5.2,8.29 1.81,2.9 3.43,5.51 5.21,8.43 1.81,2.96 3.42,5.62 5.2,8.6 1.82,3.01 3.43,5.73 5.21,8.76 1.81,3.07 3.42,5.84 5.21,8.93 1.81,3.13 3.42,5.95 5.2,9.11 1.81,3.2 3.43,6.07 5.21,9.29 1.81,3.26 3.42,6.2 5.21,9.48 1.81,3.33 3.42,6.32 5.2,9.67 1.81,3.4 3.43,6.45 5.21,9.87 1.81,3.47 3.42,6.59 5.21,10.07 1.81,3.54 3.42,6.72 5.2,10.28 1.82,3.61 3.42,6.86 5.21,10.48 1.81,3.68 3.42,7 5.21,10.69 1.81,3.76 3.42,7.14 5.2,10.92 1.81,3.83 3.43,7.28 5.21,11.13 1.81,3.91 3.42,7.42 5.2,11.35 1.82,3.99 3.43,7.58 5.21,11.58 1.81,4.07 3.43,7.73 5.21,11.81 1.81,4.15 3.42,7.88 5.21,12.04 1.8,4.23 3.42,8.03 5.2,12.27 1.81,4.32 3.42,8.19 5.21,12.52 1.81,4.39 3.42,8.34 5.2,12.75 1.81,4.48 3.43,8.51 5.21,13 1.81,4.57 3.43,8.67 5.21,13.25 1.81,4.65 3.42,8.83 5.2,13.49 1.81,4.74 3.43,9 5.21,13.75 1.81,4.83 3.42,9.17 5.2,14.01 1.82,4.91 3.43,9.33 5.21,14.26 1.81,5 3.43,9.5 5.21,14.52 1.81,5.1 3.42,9.68 5.2,14.79 1.82,5.19 3.43,9.86 5.21,15.06 1.81,5.28 3.42,10.03 5.21,15.33 1.81,5.38 3.42,10.21 5.2,15.6 1.81,5.47 5.21,15.88 5.21,15.88" style="fill:none;stroke:#000000;stroke-width:6.97385;stroke-linecap:butt;stroke-linejoin:miter;stroke-miterlimit:10;stroke-dasharray:none;stroke-opacity:1" transform="matrix(0.13333333,0,0,-0.13333333,0,1122.6667)"/>
    <path id="path34" d="m 1039.3,5302.12 c 0,0 15.78,152.63 28.86,232.36 8.04,49.06 14.15,93.68 28.85,141.14 7.58,24.47 10.88,50.44 28.85,68.44 7.59,7.59 18.45,14.3 28.85,12.21 13.69,-2.74 20.63,-17.86 28.86,-29.45 12.98,-18.3 19.89,-37.77 28.85,-58.37 11.23,-25.82 19.35,-49.83 28.85,-76.33 10.45,-29.13 18.94,-55.6 28.85,-84.91 10,-29.56 18.59,-56.23 28.86,-85.7 9.66,-27.74 18.24,-52.71 28.85,-80.11 9.38,-24.22 17.85,-45.99 28.85,-69.51 9.11,-19.44 17.37,-37 28.86,-55.14 8.83,-13.93 16.9,-26.79 28.85,-38.14 8.71,-8.29 17.42,-15.99 28.85,-19.61 9.46,-2.98 19.31,-3.16 28.85,-0.45 11.32,3.21 20.09,10.54 28.86,18.44 11.86,10.7 19.99,22.98 28.85,36.3 11.44,17.19 19.75,33.92 28.85,52.47 11.01,22.42 19.52,43.22 28.85,66.39 10.68,26.48 19.32,50.64 28.86,77.56 10.41,29.39 19.12,56 28.85,85.63 10.2,31.09 18.95,59.13 28.85,90.31 10.01,31.53 18.77,59.91 28.85,91.42 9.84,30.71 18.57,58.32 28.86,88.88 9.64,28.64 18.31,54.36 28.85,82.69 9.44,25.38 17.99,48.16 28.85,72.97 9.21,21.03 17.55,39.96 28.85,59.94 8.93,15.76 16.96,30.23 28.86,43.87 8.68,9.95 16.91,19.65 28.85,25.2 9.1,4.22 19.05,6.41 28.85,4.4 11.41,-2.34 20.35,-9.89 28.85,-17.92 12.57,-11.87 20.3,-26.02 28.86,-41.07 12.01,-21.12 20.02,-41.61 28.85,-64.26 11.44,-29.34 19.77,-56.43 28.85,-86.6 11.03,-36.65 19.56,-69.97 28.85,-107.11 10.73,-42.85 19.37,-81.57 28.86,-124.71 10.47,-47.58 19.16,-90.46 28.85,-138.21 10.24,-50.45 18.94,-95.84 28.85,-146.36 10.01,-50.98 18.67,-96.81 28.85,-147.75 9.74,-48.68 18.27,-92.44 28.86,-140.94 9.39,-43.03 17.55,-81.77 28.85,-124.34 8.9,-33.53 15.77,-64.2 28.85,-96.31 8.09,-19.86 10.58,-44.54 28.86,-55.07 8.49,-4.89 20.89,-4.47 28.85,1.24 22.02,15.79 21.49,47.98 28.85,74.55 15.6,56.32 20.88,109.04 28.85,166.95 13.28,96.42 20.52,183.59 28.86,280.57 12.37,143.94 20.28,273.44 28.85,417.66 11.89,200.24 28.85,580.56 28.85,580.56" style="fill:none;stroke:#000000;stroke-width:6.97385;stroke-linecap:butt;stroke-linejoin:miter;stroke-miterlimit:10;stroke-dasharray:none;stroke-opacity:1" transform="matrix(0.13333333,0,0,-0.13333333,0,1122.6667)"/>
    <path id="path35" d="m 5.296375,-2.9891563 c 0,-1.2773437 -1.0546875,-2.3203125 -2.3085937,-2.3203125 -1.3007813,0 -2.32031255,1.0664063 -2.32031255,2.3203125 0,1.2773438 1.05468755,2.32031255 2.30859375,2.32031255 1.3007813,0 2.3203125,-1.06640625 2.3203125,-2.32031255 z m 0,0" style="fill:#ff0000;fill-opacity:1;fill-rule:nonzero;stroke:none" aria-label="•" transform="matrix(1.3333333,0,0,1.3333333,157.25067,369.43867)"/>
    <g id="g35" aria-label="P&#10;1" transform="matrix(1.3333333,0,0,1.3333333,161.952,359.67867)" clip-path="url(#clipPath38)">
      <path id="path36" d="m 2.5086563,-2.4836094 h 1.453125 c 1.1484375,0 2.34375,-0.796875 2.34375,-1.734375 0,-0.6796875 -0.6445313,-1.21875 -1.6640625,-1.21875 H 1.957875 c -0.1523437,0 -0.2460937,0 -0.2460937,0.140625 0,0.1171875 0.09375,0.1171875 0.2226562,0.1171875 0.2695313,0 0.4921875,0 0.4921875,0.1289063 0,0.035156 0,0.035156 -0.023437,0.140625 l -1.0664062,4.27734373 c -0.082031,0.29296875 -0.09375,0.375 -0.65625005,0.375 -0.1875,0 -0.26953125,0 -0.26953125,0.140625 0,0.03515625 0.0234375,0.117187495 0.12890625,0.117187495 0.140625,0 0.33984375,-0.011718745 0.49218755,-0.023437495 H 1.536 c 0.7734375,0 0.9726563,0.023437495 1.03125,0.023437495 0.046875,0 0.1640625,0 0.1640625,-0.152343745 0,-0.10546875 -0.1054687,-0.10546875 -0.2460937,-0.10546875 -0.023437,0 -0.1640625,0 -0.3046875,-0.0234375 C 2.0164688,-0.29220312 2.00475,-0.31564062 2.00475,-0.38595312 c 0,-0.046875 0.011719,-0.09375 0.023437,-0.12890625 z M 3.0945938,-4.8859531 C 3.1649063,-5.1554844 3.176625,-5.1789219 3.50475,-5.1789219 h 0.8671875 c 0.65625,0 1.1601563,0.1875 1.1601563,0.7851563 0,0.09375 -0.035156,0.8085937 -0.4921875,1.2421875 -0.1171875,0.1289062 -0.4921875,0.421875 -1.2773438,0.421875 H 2.5555313 Z m 0,0" style="fill:#000000;fill-opacity:1;fill-rule:nonzero;stroke:none"/>
      <path id="path37" d="m 7.5447891,-2.7179844 c 0,-0.1757812 -0.023437,-0.1757812 -0.1992188,-0.1757812 -0.3984375,0.375 -1.0078125,0.375 -1.21875,0.375 v 0.234375 c 0.1523438,0 0.5507813,0 0.9023438,-0.1640625 v 3.02343748 c 0,0.1875 0,0.26953125 -0.609375,0.26953125 H 6.1619766 V 1.0788906 c 0.328125,-0.023437 0.796875,-0.023437 1.125,-0.023437 0.3398437,0 0.796875,0 1.1367187,0.023437 V 0.84451563 H 8.1658828 c -0.6210937,0 -0.6210937,-0.0820313 -0.6210937,-0.26953125 z m 0,0" style="fill:#000000;fill-opacity:1;fill-rule:nonzero;stroke:none"/>
    </g>
    <path id="path39" d="m 5.2963047,-2.9891797 c 0,-1.2773437 -1.0546875,-2.3203125 -2.3085938,-2.3203125 -1.3007812,0 -2.32031246,1.0664063 -2.32031246,2.3203125 0,1.2773438 1.05468746,2.32031251 2.30859376,2.32031251 1.3007812,0 2.3203125,-1.06640621 2.3203125,-2.32031251 z m 0,0" style="fill:#ff0000;fill-opacity:1;fill-rule:nonzero;stroke:none" aria-label="•" transform="matrix(1.3333333,0,0,1.3333333,165.75467,393.10667)"/>
    <g id="g39" aria-label="P&#10;2" transform="matrix(1.3333333,0,0,1.3333333,172.15733,397.51867)" clip-path="url(#clipPath42)">
      <path id="path40" d="m 2.507,-2.4837266 h 1.453125 c 1.1484375,0 2.34375,-0.796875 2.34375,-1.734375 0,-0.6796875 -0.6445312,-1.21875 -1.6640625,-1.21875 H 1.9562188 c -0.1523438,0 -0.2460938,0 -0.2460938,0.140625 0,0.1171875 0.09375,0.1171875 0.2226563,0.1171875 0.2695312,0 0.4921875,0 0.4921875,0.1289063 0,0.035156 0,0.035156 -0.023437,0.140625 L 1.335125,-0.63216406 c -0.082031,0.29296875 -0.09375,0.375 -0.65625,0.375 -0.1875,0 -0.26953125,0 -0.26953125,0.140625 0,0.03515625 0.0234375,0.1171874975 0.12890625,0.1171874975 0.140625,0 0.33984375,-0.0117187475 0.4921875,-0.0234374975 h 0.5039063 c 0.7734375,0 0.9726562,0.0234374975 1.03125,0.0234374975 0.046875,0 0.1640625,0 0.1640625,-0.1523437475 0,-0.10546875 -0.1054688,-0.10546875 -0.2460938,-0.10546875 -0.023437,0 -0.1640625,0 -0.3046875,-0.0234375 -0.1640625,-0.0117188 -0.1757812,-0.0351563 -0.1757812,-0.10546875 0,-0.046875 0.011719,-0.09375 0.023437,-0.12890625 z m 0.5859375,-2.4023437 c 0.070312,-0.2695313 0.082031,-0.2929688 0.4101563,-0.2929688 h 0.8671875 c 0.65625,0 1.1601562,0.1875 1.1601562,0.7851563 0,0.09375 -0.035156,0.8085937 -0.4921875,1.2421875 -0.1171875,0.1289062 -0.4921875,0.421875 -1.2773437,0.421875 H 2.553875 Z m 0,0" style="fill:#000000;fill-opacity:1;fill-rule:nonzero;stroke:none"/>
      <path id="path41" d="M 8.6095391,-0.03450781 H 8.3986016 c -0.023437,0.08203125 -0.082031,0.46875 -0.1640625,0.5390625 -0.046875,0.0351563 -0.5273438,0.0351563 -0.609375,0.0351563 h -1.125 c 0.1757812,-0.140625 0.5976562,-0.48046875 0.7734375,-0.62109375 0.1992187,-0.1640625 0.7265625,-0.5390625 0.9140625,-0.7265625 0.1757812,-0.17578125 0.421875,-0.48046874 0.421875,-0.90234374 0,-0.7500001 -0.6679688,-1.1835938 -1.4765625,-1.1835938 -0.7617188,0 -1.3007813,0.5039062 -1.3007813,1.0664062 0,0.3046875 0.2578125,0.3398438 0.3164063,0.3398438 0.1523437,0 0.328125,-0.1054688 0.328125,-0.3164063 0,-0.140625 -0.082031,-0.328125 -0.3398438,-0.328125 0.1289063,-0.3046875 0.5039063,-0.5273437 0.9140625,-0.5273437 0.6210938,0 0.9609375,0.46875 0.9609375,0.9492188 0,0.421875 -0.28125,0.85546874 -0.703125,1.24218749 l -1.4179687,1.3007812 c -0.058594,0.0585938 -0.058594,0.0585938 -0.058594,0.24609371 h 2.6015625 z m 0,0" style="fill:#000000;fill-opacity:1;fill-rule:nonzero;stroke:none"/>
    </g>
    <path id="path43" d="m 5.2974922,-2.9884609 c 0,-1.2773438 -1.0546875,-2.3203125 -2.3085938,-2.3203125 -1.3007812,0 -2.32031246,1.0664062 -2.32031246,2.3203125 0,1.2773437 1.05468746,2.32031246 2.30859376,2.32031246 1.3007812,0 2.3203125,-1.06640626 2.3203125,-2.32031246 z m 0,0" style="fill:#ff0000;fill-opacity:1;fill-rule:nonzero;stroke:none" aria-label="•" transform="matrix(1.3333333,0,0,1.3333333,137.40933,395.12133)"/>
    <g id="g43" aria-label="P&#10;3" transform="matrix(1.3333333,0,0,1.3333333,123.9688,396.7)" clip-path="url(#clipPath46)">
      <path id="path44" d="M 2.507775,-2.4849609 H 3.9609 c 1.1484375,0 2.34375,-0.796875 2.34375,-1.734375 0,-0.6796875 -0.6445313,-1.21875 -1.6640625,-1.21875 H 1.9569937 c -0.1523437,0 -0.2460937,0 -0.2460937,0.140625 0,0.1171875 0.09375,0.1171875 0.2226562,0.1171875 0.2695313,0 0.4921875,0 0.4921875,0.1289062 0,0.035156 0,0.035156 -0.023437,0.140625 L 1.3359,-0.63339844 c -0.082031,0.29296875 -0.09375,0.375 -0.65625,0.375 -0.1875,0 -0.26953125,0 -0.26953125,0.140625 0,0.03515625 0.0234375,0.1171875025 0.12890625,0.1171875025 0.140625,0 0.33984375,-0.0117187525 0.4921875,-0.0234375025 h 0.5039062 c 0.7734375,0 0.9726563,0.0234375025 1.03125,0.0234375025 0.046875,0 0.1640625,0 0.1640625,-0.1523437525 0,-0.10546875 -0.1054687,-0.10546875 -0.2460937,-0.10546875 -0.023437,0 -0.1640625,0 -0.3046875,-0.0234375 -0.1640625,-0.0117188 -0.1757813,-0.0351563 -0.1757813,-0.10546875 0,-0.046875 0.011719,-0.09375 0.023437,-0.12890625 z m 0.5859375,-2.4023438 c 0.070312,-0.2695312 0.082031,-0.2929687 0.4101562,-0.2929687 h 0.8671875 c 0.65625,0 1.1601563,0.1875 1.1601563,0.7851562 0,0.09375 -0.035156,0.8085938 -0.4921875,1.2421875 -0.1171875,0.1289063 -0.4921875,0.421875 -1.2773438,0.421875 H 2.55465 Z m 0,0" style="fill:#000000;fill-opacity:1;fill-rule:nonzero;stroke:none"/>
      <path id="path45" d="m 7.1571891,-0.9 c 0.5039062,0 0.84375,0.33984375 0.84375,0.94921875 0,0.65625 -0.3867188,0.9375 -0.8320313,0.9375 -0.1523437,0 -0.7734375,-0.0351563 -1.0429687,-0.375 0.234375,-0.0234375 0.328125,-0.1875 0.328125,-0.33984375 0,-0.2109375 -0.140625,-0.33984375 -0.3398438,-0.33984375 -0.1640625,0 -0.3398437,0.09375 -0.3398437,0.3515625 0,0.5859375 0.65625,0.92578125 1.4179687,0.92578125 0.8789063,0 1.4765625,-0.57421875 1.4765625,-1.16015625 0,-0.43359375 -0.3398437,-0.90234375 -1.0429687,-1.07812495 0.46875,-0.1523438 0.8554687,-0.5390625 0.8554687,-1.03125 0,-0.4804688 -0.5625,-0.8320313 -1.2773437,-0.8320313 -0.703125,0 -1.2421875,0.3164063 -1.2421875,0.8085938 0,0.2578125 0.1992187,0.328125 0.3164062,0.328125 0.1640625,0 0.328125,-0.1054688 0.328125,-0.3164063 0,-0.1875 -0.140625,-0.2929687 -0.2929687,-0.3164062 0.2695312,-0.3046875 0.8203125,-0.3046875 0.8671875,-0.3046875 0.3046875,0 0.6914062,0.140625 0.6914062,0.6328125 0,0.328125 -0.1875,0.9023437 -0.7851562,0.9375 -0.1054688,0.011719 -0.2695313,0.023437 -0.3164063,0.023437 -0.058594,0 -0.1289062,0.011719 -0.1289062,0.1054687 0,0.09375 0.070312,0.09375 0.1640625,0.09375 z m 0,0" style="fill:#000000;fill-opacity:1;fill-rule:nonzero;stroke:none"/>
    </g>
    <path id="path47" d="m 5.2968359,-2.9879531 c 0,-1.2773438 -1.0546875,-2.3203125 -2.3085937,-2.3203125 -1.3007813,0 -2.32031251,1.0664062 -2.32031251,2.3203125 0,1.2773437 1.05468751,2.32031248 2.30859371,2.32031248 1.3007813,0 2.3203125,-1.06640628 2.3203125,-2.32031248 z m 0,0" style="fill:#ff0000;fill-opacity:1;fill-rule:nonzero;stroke:none" aria-label="•" transform="matrix(1.3333333,0,0,1.3333333,219.61333,380.148)"/>
    <g id="g47" aria-label="P&#10;4" transform="matrix(1.3333333,0,0,1.3333333,211.84267,370.388)" clip-path="url(#clipPath50)">
      <path id="path48" d="M 2.508625,-2.4853359 H 3.96175 c 1.1484375,0 2.34375,-0.796875 2.34375,-1.734375 0,-0.6796875 -0.6445313,-1.21875 -1.6640625,-1.21875 H 1.9578437 c -0.1523437,0 -0.2460937,0 -0.2460937,0.140625 0,0.1171875 0.09375,0.1171875 0.2226562,0.1171875 0.2695313,0 0.4921875,0 0.4921875,0.1289062 0,0.035156 0,0.035156 -0.023437,0.140625 L 1.33675,-0.63377344 c -0.082031,0.29296875 -0.09375,0.375 -0.65625,0.375 -0.1875,0 -0.26953125,0 -0.26953125,0.140625 0,0.03515625 0.0234375,0.1171875025 0.12890625,0.1171875025 0.140625,0 0.33984375,-0.0117187525 0.4921875,-0.0234375025 h 0.5039062 c 0.7734375,0 0.9726563,0.0234375025 1.03125,0.0234375025 0.046875,0 0.1640625,0 0.1640625,-0.1523437525 0,-0.10546875 -0.1054687,-0.10546875 -0.2460937,-0.10546875 -0.023437,0 -0.1640625,0 -0.3046875,-0.0234375 -0.1640625,-0.0117188 -0.1757813,-0.0351563 -0.1757813,-0.10546875 0,-0.046875 0.011719,-0.09375 0.023437,-0.12890625 z m 0.5859375,-2.4023438 c 0.070312,-0.2695312 0.082031,-0.2929687 0.4101562,-0.2929687 h 0.8671875 c 0.65625,0 1.1601563,0.1875 1.1601563,0.7851562 0,0.09375 -0.035156,0.8085938 -0.4921875,1.2421875 -0.1171875,0.1289063 -0.4921875,0.421875 -1.2773438,0.421875 H 2.5555 Z m 0,0" style="fill:#000000;fill-opacity:1;fill-rule:nonzero;stroke:none"/>
      <path id="path49" d="m 8.7752266,0.09571875 v -0.234375 H 8.0721016 V -2.775375 c 0,-0.140625 0,-0.1757812 -0.1523438,-0.1757812 -0.1054687,0 -0.1171875,0.011719 -0.1757812,0.082031 l -2.0742188,2.73046875 v 0.234375 H 7.5330391 V 0.5761875 c 0,0.19921875 0,0.26953125 -0.5039063,0.26953125 H 6.8533516 V 1.0800938 c 0.1289062,-0.011719 0.6914062,-0.023437 0.9492187,-0.023437 0.2578125,0 0.8203125,0.011719 0.9492188,0.023437 V 0.84571875 H 8.5760078 c -0.5039062,0 -0.5039062,-0.0703125 -0.5039062,-0.26953125 V 0.09571875 Z M 7.5799141,-2.306625 v 2.16796875 H 5.9275703 Z m 0,0" style="fill:#000000;fill-opacity:1;fill-rule:nonzero;stroke:none"/>
    </g>
    <path id="path51" d="m 5.2961328,-2.9891953 c 0,-1.2773438 -1.0546875,-2.3203125 -2.3085937,-2.3203125 -1.3007813,0 -2.32031254,1.0664062 -2.32031254,2.3203125 0,1.2773437 1.05468754,2.32031249 2.30859374,2.32031249 1.3007813,0 2.3203125,-1.06640629 2.3203125,-2.32031249 z m 0,0" style="fill:#ff0000;fill-opacity:1;fill-rule:nonzero;stroke:none" aria-label="•" transform="matrix(1.3333333,0,0,1.3333333,275.15333,387.552)"/>
    <g id="g51" aria-label="P&#10;5" transform="matrix(1.3333333,0,0,1.3333333,267.38267,396.784)" clip-path="url(#clipPath54)">
      <path id="path52" d="m 2.5079219,-2.4835078 h 1.453125 c 1.1484375,0 2.34375,-0.796875 2.34375,-1.734375 0,-0.6796875 -0.6445313,-1.21875 -1.6640625,-1.21875 H 1.9571406 c -0.1523437,0 -0.2460937,0 -0.2460937,0.140625 0,0.1171875 0.09375,0.1171875 0.2226562,0.1171875 0.2695313,0 0.4921875,0 0.4921875,0.1289062 0,0.035156 0,0.035156 -0.023437,0.140625 l -1.0664062,4.27734379 c -0.082031,0.29296875 -0.09375,0.375 -0.65625002,0.375 -0.1875,0 -0.26953125,0 -0.26953125,0.140625 0,0.03515625 0.0234375,0.1171874975 0.12890625,0.1171874975 0.140625,0 0.33984375,-0.0117187475 0.49218752,-0.0234374975 h 0.5039062 c 0.7734375,0 0.9726563,0.0234374975 1.03125,0.0234374975 0.046875,0 0.1640625,0 0.1640625,-0.1523437475 0,-0.10546875 -0.1054687,-0.10546875 -0.2460937,-0.10546875 -0.023437,0 -0.1640625,0 -0.3046875,-0.0234375 -0.1640625,-0.0117188 -0.1757813,-0.0351563 -0.1757813,-0.10546875 0,-0.046875 0.011719,-0.09375 0.023437,-0.12890625 z m 0.5859375,-2.4023438 c 0.070312,-0.2695312 0.082031,-0.2929687 0.4101562,-0.2929687 h 0.8671875 c 0.65625,0 1.1601563,0.1875 1.1601563,0.7851562 0,0.09375 -0.035156,0.8085938 -0.4921875,1.2421875 -0.1171875,0.1289063 -0.4921875,0.421875 -1.2773438,0.421875 H 2.5547969 Z m 0,0" style="fill:#000000;fill-opacity:1;fill-rule:nonzero;stroke:none"/>
      <path id="path53" d="m 6.4190547,-2.2374141 c 0.1992187,0.058594 0.3984375,0.082031 0.609375,0.082031 0.1289062,0 0.4570312,0 0.84375,-0.2109375 0.09375,-0.058594 0.46875,-0.3046875 0.46875,-0.4335938 0,-0.082031 -0.058594,-0.09375 -0.082031,-0.09375 -0.023437,0 -0.023437,0 -0.09375,0.023437 -0.2109375,0.082031 -0.515625,0.1640625 -0.9023437,0.1640625 -0.2929688,0 -0.6210938,-0.046875 -0.890625,-0.1523437 -0.058594,-0.023437 -0.082031,-0.035156 -0.1054688,-0.035156 -0.082031,0 -0.082031,0.058594 -0.082031,0.1640625 v 1.79296879 c 0,0.09375 0,0.1640625 0.1054687,0.1640625 0.058594,0 0.070312,-0.0234375 0.1171875,-0.0703125 0.140625,-0.18749999 0.4101563,-0.38671879 0.8789063,-0.38671879 0.7265625,0 0.7265625,0.89062504 0.7265625,1.07812504 0,0.234375 -0.011719,0.57421875 -0.2109375,0.8203125 -0.1875,0.22265625 -0.4570313,0.31640625 -0.7148438,0.31640625 -0.4101562,0 -0.8320312,-0.22265625 -0.9726562,-0.57421875 0.2929687,0 0.328125,-0.234375 0.328125,-0.3046875 0,-0.1640625 -0.1171875,-0.3046875 -0.3046875,-0.3046875 -0.058594,0 -0.3046875,0.0234375 -0.3046875,0.328125 0,0.55078125 0.515625,1.07812496 1.265625,1.07812496 0.8203125,0 1.5117187,-0.58593746 1.5117187,-1.33593746 0,-0.6796875 -0.5507812,-1.30078124 -1.3125,-1.30078124 -0.3867187,0 -0.6914062,0.1289062 -0.8789062,0.2929687 z m 0,0" style="fill:#000000;fill-opacity:1;fill-rule:nonzero;stroke:none"/>
    </g>
    <path id="path55" d="m 5.2960391,-2.988625 c 0,-1.2773437 -1.0546875,-2.3203125 -2.3085938,-2.3203125 -1.3007812,0 -2.32031249,1.0664063 -2.32031249,2.3203125 0,1.2773438 1.05468749,2.3203125 2.30859379,2.3203125 1.3007812,0 2.3203125,-1.0664062 2.3203125,-2.3203125 z m 0,0" style="fill:#ff0000;fill-opacity:1;fill-rule:nonzero;stroke:none" aria-label="•" transform="matrix(1.3333333,0,0,1.3333333,318.82533,372.29733)"/>
    <g id="g55" aria-label="P&#10;6&#10;ℓ" transform="matrix(1.3333333,0,0,1.3333333,308.22,362.53733)" clip-path="url(#clipPath59)">
      <path id="path56" d="M 2.506875,-2.4830781 H 3.96 c 1.1484375,0 2.34375,-0.796875 2.34375,-1.734375 0,-0.6796875 -0.6445312,-1.21875 -1.6640625,-1.21875 H 1.9560938 c -0.1523438,0 -0.2460938,0 -0.2460938,0.140625 0,0.1171875 0.09375,0.1171875 0.2226563,0.1171875 0.2695312,0 0.4921875,0 0.4921875,0.1289062 0,0.035156 0,0.035156 -0.023437,0.140625 L 1.335,-0.63151562 c -0.082031,0.29296875 -0.09375,0.375 -0.65625,0.375 -0.1875,0 -0.26953125,0 -0.26953125,0.140625 0,0.03515625 0.0234375,0.1171875 0.12890625,0.1171875 0.140625,0 0.33984375,-0.01171875 0.4921875,-0.0234375 h 0.5039063 c 0.7734375,0 0.9726562,0.0234375 1.03125,0.0234375 0.046875,0 0.1640625,0 0.1640625,-0.15234375 0,-0.10546875 -0.1054688,-0.10546875 -0.2460938,-0.10546875 -0.023437,0 -0.1640625,0 -0.3046875,-0.0234375 -0.1640625,-0.0117188 -0.1757812,-0.0351563 -0.1757812,-0.10546875 0,-0.046875 0.011719,-0.09375 0.023437,-0.12890625 z m 0.5859375,-2.4023438 c 0.070312,-0.2695312 0.082031,-0.2929687 0.4101563,-0.2929687 h 0.8671875 c 0.65625,0 1.1601562,0.1875 1.1601562,0.7851562 0,0.09375 -0.035156,0.8085938 -0.4921875,1.2421875 -0.1171875,0.1289063 -0.4921875,0.421875 -1.2773437,0.421875 H 2.55375 Z m 0,0" style="fill:#000000;fill-opacity:1;fill-rule:nonzero;stroke:none"/>
      <path id="path57" d="M 6.3740625,-0.90104687 C 6.3857813,-1.1940156 6.3975,-1.6979219 6.6084375,-2.0612031 6.86625,-2.5182344 7.2646875,-2.6940156 7.61625,-2.6940156 c 0.140625,0 0.4101563,0.023437 0.5625,0.1875 -0.2226562,0.035156 -0.2578125,0.1875 -0.2578125,0.28125 0,0.1640625 0.1054688,0.2929687 0.28125,0.2929687 0.1757813,0 0.2929688,-0.1171875 0.2929688,-0.3046875 0,-0.3632812 -0.2695313,-0.65625 -0.8789063,-0.65625 -0.9257812,0 -1.8398437,0.8085938 -1.8398437,2.07421878 0,1.453125 0.6796875,2.02734372 1.4648437,2.02734372 0.234375,0 0.6445313,-0.035156 1.0078125,-0.38671872 0.1875,-0.19921875 0.421875,-0.43359375 0.421875,-0.9609375 0,-0.19921875 -0.023437,-0.5859375 -0.3867187,-0.92578128 -0.2109375,-0.1875 -0.46875,-0.3984375 -0.984375,-0.3984375 -0.421875,0 -0.7265625,0.2109375 -0.9257813,0.56250003 z M 7.24125,0.98567188 c -0.84375,0 -0.84375,-1.01953125 -0.84375,-1.25390625 0,-0.515625 0.3398438,-1.00781253 0.8789063,-1.00781253 0.3046875,0 0.4804687,0.1289063 0.6328125,0.31640628 0.1640625,0.234375 0.1640625,0.50390625 0.1640625,0.8203125 0,0.41015625 -0.011719,0.609375 -0.2109375,0.85546875 C 7.71,0.89192188 7.5225,0.98567188 7.24125,0.98567188 Z m 0,0" style="fill:#000000;fill-opacity:1;fill-rule:nonzero;stroke:none"/>
      <path id="path58" d="m 5.0967188,-55.273117 c -0.023437,0.03516 -0.058594,0.05859 -0.058594,0.105469 0,0.05859 0.070312,0.140625 0.1289063,0.140625 0.058594,0 0.09375,-0.03516 0.3984375,-0.339844 0.082031,-0.07031 0.3046875,-0.28125 0.3867187,-0.363281 0.1171875,0.855468 0.4335938,1.664062 1.2304688,1.664062 0.4335937,0 0.8203125,-0.246094 1.0429687,-0.410156 0.1523438,-0.117188 0.6679688,-0.539063 0.6679688,-0.644531 0,-0.03516 -0.035156,-0.128907 -0.1289063,-0.128907 -0.035156,0 -0.046875,0.01172 -0.140625,0.09375 -0.703125,0.691407 -1.1015625,0.855469 -1.4179687,0.855469 -0.4921875,0 -0.6679688,-0.574219 -0.6679688,-1.417969 0,-0.07031 0.023437,-0.574218 0.046875,-0.621093 0.023437,-0.03516 0.023437,-0.05859 0.2460938,-0.28125 0.8789062,-0.878907 2.4375,-2.71875 2.4375,-4.417969 0,-0.1875 0,-0.84375 -0.6445313,-0.84375 -0.9140625,0 -1.7226562,1.792969 -1.828125,2.050781 -0.5273437,1.183594 -0.8554687,2.460938 -0.8554687,3.761719 z m 1.546875,-1.535156 c 0.023437,-0.117188 0.4921875,-2.53125 1.1132812,-3.808594 0.2929688,-0.597656 0.5273438,-1.03125 0.8789063,-1.03125 0.3632812,0 0.3632812,0.398437 0.3632812,0.574219 0,1.816406 -1.828125,3.726562 -2.3554687,4.265625 z m 0,0" style="fill:#000000;fill-opacity:1;fill-rule:nonzero;stroke:none"/>
    </g>
    <path id="path60" d="m 5.2959297,-2.9879375 c 0,-1.2773437 -1.0546875,-2.3203125 -2.3085938,-2.3203125 -1.3007812,0 -2.32031246,1.0664063 -2.32031246,2.3203125 0,1.2773438 1.05468746,2.3203125 2.30859376,2.3203125 1.3007812,0 2.3203125,-1.0664062 2.3203125,-2.3203125 z m 0,0" style="fill:#00ff00;fill-opacity:1;fill-rule:nonzero;stroke:none" aria-label="•" transform="matrix(1.3333333,0,0,1.3333333,142.94267,367.20267)"/>
    <g id="g60" aria-label="¯&#10;P&#10;1" transform="matrix(1.3333333,0,0,1.3333333,130.6448,363.22667)" clip-path="url(#clipPath64)">
      <path id="path61" d="M 3.6326109,-4.4414844 V -4.7461719 H 0.58573594 v 0.3046875 z m 0,0" style="fill:#000000;fill-opacity:1;fill-rule:nonzero;stroke:none"/>
      <path id="path62" d="M 0.58866563,-0.44539062 H 2.0417906 c 1.1484375,0 2.34375,-0.79687498 2.34375,-1.73437498 0,-0.6796875 -0.6445312,-1.21875 -1.6640625,-1.21875 H 0.03788438 c -0.15234375,0 -0.24609375,0 -0.24609375,0.140625 0,0.1171875 0.09375,0.1171875 0.22265625,0.1171875 0.26953125,0 0.4921875,0 0.4921875,0.1289062 0,0.035156 0,0.035156 -0.0234375,0.140625 l -1.06640625,4.2773438 c -0.0820313,0.2929687 -0.09375,0.375 -0.65625003,0.375 -0.1875,0 -0.2695312,0 -0.2695312,0.140625 0,0.035156 0.023437,0.1171875 0.1289062,0.1171875 0.140625,0 0.3398438,-0.011719 0.49218753,-0.023437 h 0.50390625 c 0.7734375,0 0.97265625,0.023437 1.03125,0.023437 0.046875,0 0.1640625,0 0.1640625,-0.1523438 0,-0.1054687 -0.10546875,-0.1054687 -0.24609375,-0.1054687 -0.0234375,0 -0.1640625,0 -0.3046875,-0.023437 -0.1640625,-0.011719 -0.17578125,-0.035156 -0.17578125,-0.1054688 0,-0.046875 0.01171875,-0.09375 0.0234375,-0.1289062 z M 1.1746031,-2.8477344 c 0.070312,-0.2695312 0.082031,-0.2929687 0.4101563,-0.2929687 h 0.8671875 c 0.65625,0 1.1601562,0.1875 1.1601562,0.7851562 0,0.09375 -0.035156,0.8085938 -0.4921875,1.2421875 -0.1171875,0.12890628 -0.4921875,0.42187503 -1.2773437,0.42187503 H 0.63554063 Z m 0,0" style="fill:#000000;fill-opacity:1;fill-rule:nonzero;stroke:none"/>
      <path id="path63" d="m 5.6247984,-0.67683594 c 0,-0.17578125 -0.023437,-0.17578125 -0.1992187,-0.17578125 -0.3984375,0.375 -1.0078125,0.375 -1.21875,0.375 v 0.234375 c 0.1523437,0 0.5507812,0 0.9023437,-0.1640625 V 2.6161328 c 0,0.1875 0,0.2695313 -0.609375,0.2695313 H 4.2419859 v 0.234375 c 0.328125,-0.023437 0.796875,-0.023437 1.125,-0.023437 0.3398438,0 0.796875,0 1.1367188,0.023437 V 2.8856641 H 6.2458922 c -0.6210938,0 -0.6210938,-0.082031 -0.6210938,-0.2695313 z m 0,0" style="fill:#000000;fill-opacity:1;fill-rule:nonzero;stroke:none"/>
    </g>
    <path id="path65" d="m 5.2979453,-2.9883984 c 0,-1.2773438 -1.0546875,-2.3203125 -2.3085937,-2.3203125 -1.3007813,0 -2.32031254,1.0664062 -2.32031254,2.3203125 0,1.2773437 1.05468754,2.32031246 2.30859374,2.32031246 1.3007813,0 2.3203125,-1.06640626 2.3203125,-2.32031246 z m 0,0" style="fill:#00ff00;fill-opacity:1;fill-rule:nonzero;stroke:none" aria-label="•" transform="matrix(1.3333333,0,0,1.3333333,217.49467,386.84)"/>
    <g id="g65" aria-label="¯&#10;P&#10;2" transform="matrix(1.3333333,0,0,1.3333333,223.624,391.368)" clip-path="url(#clipPath69)">
      <path id="path66" d="m 3.6335625,-4.4420156 v -0.3046875 h -3.046875 v 0.3046875 z m 0,0" style="fill:#000000;fill-opacity:1;fill-rule:nonzero;stroke:none"/>
      <path id="path67" d="m 0.5866875,-0.44592187 h 1.453125 c 1.1484375,0 2.34375,-0.79687503 2.34375,-1.73437503 0,-0.6796875 -0.6445312,-1.21875 -1.6640625,-1.21875 H 0.03590625 c -0.15234375,0 -0.24609375,0 -0.24609375,0.140625 0,0.1171875 0.09375,0.1171875 0.22265625,0.1171875 0.26953125,0 0.4921875,0 0.4921875,0.1289063 0,0.035156 0,0.035156 -0.0234375,0.140625 L -0.5851875,1.4056406 c -0.0820313,0.2929688 -0.09375,0.375 -0.65625,0.375 -0.1875,0 -0.2695312,0 -0.2695312,0.140625 0,0.035156 0.023437,0.1171875 0.1289062,0.1171875 0.140625,0 0.3398438,-0.011719 0.4921875,-0.023437 h 0.50390625 c 0.7734375,0 0.97265625,0.023437 1.03125,0.023437 0.046875,0 0.1640625,0 0.1640625,-0.1523437 0,-0.1054688 -0.10546875,-0.1054688 -0.24609375,-0.1054688 -0.0234375,0 -0.1640625,0 -0.3046875,-0.023437 C 0.0945,1.7454844 0.08278125,1.7220469 0.08278125,1.6517344 c 0,-0.046875 0.01171875,-0.09375 0.0234375,-0.1289063 z M 1.172625,-2.8482656 c 0.070312,-0.2695313 0.082031,-0.2929688 0.4101563,-0.2929688 h 0.8671875 c 0.65625,0 1.1601562,0.1875 1.1601562,0.7851563 0,0.09375 -0.035156,0.8085937 -0.4921875,1.2421875 C 3.00075,-0.98498437 2.62575,-0.69201562 1.8405938,-0.69201562 H 0.6335625 Z m 0,0" style="fill:#000000;fill-opacity:1;fill-rule:nonzero;stroke:none"/>
      <path id="path68" d="M 6.6921563,2.0062266 H 6.4812188 c -0.023437,0.082031 -0.082031,0.46875 -0.1640625,0.5390625 -0.046875,0.035156 -0.5273438,0.035156 -0.609375,0.035156 h -1.125 C 4.7585625,2.4398203 5.1804375,2.0999766 5.3562188,1.9593516 5.5554375,1.7952891 6.0827813,1.4202891 6.2702813,1.2327891 6.4460625,1.0570078 6.6921563,0.75232031 6.6921563,0.33044531 c 0,-0.75 -0.6679688,-1.18359375 -1.4765625,-1.18359375 -0.7617188,0 -1.3007813,0.50390625 -1.3007813,1.06640625 0,0.3046875 0.2578125,0.33984375 0.3164063,0.33984375 0.1523437,0 0.328125,-0.10546875 0.328125,-0.31640625 0,-0.140625 -0.082031,-0.328125 -0.3398438,-0.328125 0.1289063,-0.3046875 0.5039063,-0.52734375 0.9140625,-0.52734375 0.6210938,0 0.9609375,0.46875 0.9609375,0.94921875 0,0.421875 -0.28125,0.85546879 -0.703125,1.24218749 L 3.9734063,2.8734141 c -0.058594,0.058594 -0.058594,0.058594 -0.058594,0.2460937 H 6.516375 Z m 0,0" style="fill:#000000;fill-opacity:1;fill-rule:nonzero;stroke:none"/>
    </g>
    <path id="path70" d="m 5.2973672,-2.9881797 c 0,-1.2773437 -1.0546875,-2.3203125 -2.3085938,-2.3203125 -1.3007812,0 -2.32031246,1.0664063 -2.32031246,2.3203125 0,1.2773438 1.05468746,2.32031251 2.30859376,2.32031251 1.3007812,0 2.3203125,-1.06640621 2.3203125,-2.32031251 z m 0,0" style="fill:#00ff00;fill-opacity:1;fill-rule:nonzero;stroke:none" aria-label="•" transform="matrix(1.3333333,0,0,1.3333333,273.472,379.60533)"/>
    <g id="g70" aria-label="¯&#10;P&#10;3" transform="matrix(1.3333333,0,0,1.3333333,264.292,367.12533)" clip-path="url(#clipPath74)">
      <path id="path71" d="M 3.6335391,-4.4416562 V -4.7463437 H 0.58666406 v 0.3046875 z m 0,0" style="fill:#000000;fill-opacity:1;fill-rule:nonzero;stroke:none"/>
      <path id="path72" d="M 0.58666406,-0.4455625 H 2.0397891 c 1.1484375,0 2.34375,-0.796875 2.34375,-1.734375 0,-0.6796875 -0.6445313,-1.21875 -1.6640625,-1.21875 H 0.03588281 c -0.15234375,0 -0.24609375,0 -0.24609375,0.140625 0,0.1171875 0.09375,0.1171875 0.22265625,0.1171875 0.26953125,0 0.4921875,0 0.4921875,0.1289063 0,0.035156 0,0.035156 -0.0234375,0.140625 L -0.58521094,1.406 c -0.0820313,0.2929688 -0.09375,0.375 -0.65624996,0.375 -0.1875,0 -0.2695313,0 -0.2695313,0.140625 0,0.035156 0.023437,0.1171875 0.1289063,0.1171875 0.140625,0 0.3398437,-0.011719 0.49218746,-0.023437 h 0.50390625 c 0.7734375,0 0.97265625,0.023437 1.03125,0.023437 0.046875,0 0.1640625,0 0.1640625,-0.1523437 C 0.80932031,1.781 0.70385156,1.781 0.56322656,1.781 c -0.0234375,0 -0.1640625,0 -0.3046875,-0.023437 C 0.09447656,1.745844 0.08275781,1.722407 0.08275781,1.6520943 c 0,-0.046875 0.01171875,-0.09375 0.0234375,-0.1289063 z M 1.1726016,-2.8479062 c 0.070312,-0.2695313 0.082031,-0.2929688 0.4101562,-0.2929688 h 0.8671875 c 0.65625,0 1.1601563,0.1875 1.1601563,0.7851563 0,0.09375 -0.035156,0.8085937 -0.4921875,1.2421875 -0.1171875,0.1289062 -0.4921875,0.42187495 -1.2773438,0.42187495 H 0.63353906 Z m 0,0" style="fill:#000000;fill-opacity:1;fill-rule:nonzero;stroke:none"/>
      <path id="path73" d="m 5.2390078,1.1393984 c 0.5039063,0 0.84375,0.3398438 0.84375,0.9492188 0,0.65625 -0.3867187,0.9375 -0.8320312,0.9375 -0.1523438,0 -0.7734375,-0.035156 -1.0429688,-0.375 0.234375,-0.023437 0.328125,-0.1875 0.328125,-0.3398438 0,-0.2109375 -0.140625,-0.3398437 -0.3398437,-0.3398437 -0.1640625,0 -0.3398438,0.09375 -0.3398438,0.3515625 0,0.5859375 0.65625,0.9257812 1.4179688,0.9257812 0.8789062,0 1.4765625,-0.5742187 1.4765625,-1.1601562 0,-0.4335938 -0.3398438,-0.9023438 -1.0429688,-1.078125 0.46875,-0.15234376 0.8554688,-0.53906251 0.8554688,-1.03125001 0,-0.48046875 -0.5625,-0.83203125 -1.2773438,-0.83203125 -0.703125,0 -1.2421875,0.31640625 -1.2421875,0.80859375 0,0.2578125 0.1992188,0.328125 0.3164063,0.328125 0.1640625,0 0.328125,-0.10546875 0.328125,-0.31640625 0,-0.1875 -0.140625,-0.29296875 -0.2929688,-0.31640625 0.2695313,-0.3046875 0.8203125,-0.3046875 0.8671875,-0.3046875 0.3046875,0 0.6914063,0.140625 0.6914063,0.6328125 0,0.328125 -0.1875,0.90234375 -0.7851563,0.9375 -0.1054687,0.0117188 -0.2695312,0.0234375 -0.3164062,0.0234375 -0.058594,0 -0.1289063,0.0117188 -0.1289063,0.10546871 0,0.09375 0.070312,0.09375 0.1640625,0.09375 z m 0,0" style="fill:#000000;fill-opacity:1;fill-rule:nonzero;stroke:none"/>
    </g>
    <path id="path75" d="m 5.2965938,-2.9890625 c 0,-1.2773437 -1.0546875,-2.3203125 -2.3085938,-2.3203125 -1.3007812,0 -2.3203125,1.0664063 -2.3203125,2.3203125 0,1.2773438 1.0546875,2.3203125 2.3085938,2.3203125 1.3007812,0 2.3203125,-1.0664062 2.3203125,-2.3203125 z m 0,0" style="fill:#00ff00;fill-opacity:1;fill-rule:nonzero;stroke:none" aria-label="•" transform="matrix(1.3333333,0,0,1.3333333,317.516,392.76667)"/>
    <g id="g75" aria-label="¯&#10;P&#10;4" transform="matrix(1.3333333,0,0,1.3333333,309.47067,394.46)" clip-path="url(#clipPath79)">
      <path id="path76" d="M 3.631375,-4.4407031 V -4.7453906 H 0.5845 v 0.3046875 z m 0,0" style="fill:#000000;fill-opacity:1;fill-rule:nonzero;stroke:none"/>
      <path id="path77" d="M 0.58742969,-0.44460937 H 2.0405547 c 1.1484375,0 2.34375,-0.79687503 2.34375,-1.73437503 0,-0.6796875 -0.6445313,-1.21875 -1.6640625,-1.21875 H 0.03664844 c -0.15234375,0 -0.24609375,0 -0.24609375,0.140625 0,0.1171875 0.09375,0.1171875 0.22265625,0.1171875 0.26953125,0 0.4921875,0 0.4921875,0.1289063 0,0.035156 0,0.035156 -0.0234375,0.140625 l -1.06640625,4.2773437 c -0.0820313,0.2929688 -0.09375,0.375 -0.65624999,0.375 -0.1875,0 -0.2695313,0 -0.2695313,0.140625 0,0.035156 0.023437,0.1171875 0.1289063,0.1171875 0.140625,0 0.3398437,-0.011719 0.49218749,-0.023437 h 0.50390625 c 0.7734375,0 0.97265625,0.023437 1.03125,0.023437 0.046875,0 0.1640625,0 0.1640625,-0.1523437 0,-0.1054688 -0.10546875,-0.1054688 -0.24609375,-0.1054688 -0.0234375,0 -0.1640625,0 -0.3046875,-0.023437 -0.1640625,-0.011719 -0.17578125,-0.035156 -0.17578125,-0.1054687 0,-0.046875 0.01171875,-0.09375 0.0234375,-0.1289063 z M 1.1733672,-2.8469531 c 0.070312,-0.2695313 0.082031,-0.2929688 0.4101562,-0.2929688 h 0.8671875 c 0.65625,0 1.1601563,0.1875 1.1601563,0.7851563 0,0.09375 -0.035156,0.8085937 -0.4921875,1.2421875 -0.1171875,0.12890623 -0.4921875,0.42187498 -1.2773438,0.42187498 H 0.63430469 Z m 0,0" style="fill:#000000;fill-opacity:1;fill-rule:nonzero;stroke:none"/>
      <path id="path78" d="m 6.8540313,2.1364453 v -0.234375 h -0.703125 v -2.63671874 c 0,-0.140625 0,-0.17578125 -0.1523438,-0.17578125 -0.1054687,0 -0.1171875,0.0117188 -0.1757812,0.0820313 L 3.7485625,1.9020703 v 0.234375 h 1.8632813 v 0.4804688 c 0,0.1992187 0,0.2695312 -0.5039063,0.2695312 H 4.9321563 v 0.234375 c 0.1289062,-0.011719 0.6914062,-0.023437 0.9492187,-0.023437 0.2578125,0 0.8203125,0.011719 0.9492188,0.023437 V 2.8864453 H 6.6548125 c -0.5039062,0 -0.5039062,-0.070312 -0.5039062,-0.2695312 V 2.1364453 Z M 5.6587188,-0.26589844 V 1.9020703 H 4.006375 Z m 0,0" style="fill:#000000;fill-opacity:1;fill-rule:nonzero;stroke:none"/>
    </g>
    
    
    
    
    
    
    
    
    
    
    
    
    
    
    
    
    
    
    
    
    
    
    
    
    
    
  </g>
</svg>