<svg version="1.1" id="svg1" width="283.0018496192858" height="204.00189888935282" viewBox="229.00149668839734 224.5020897091162 283.0018496192858 204.00189888935282" sodipodi:docname="ch3.pdf" xmlns:inkscape="http://www.inkscape.org/namespaces/inkscape" xmlns:sodipodi="http://sodipodi.sourceforge.net/DTD/sodipodi-0.dtd" xmlns="http://www.w3.org/2000/svg" xmlns:svg="http://www.w3.org/2000/svg" style="">
  <defs id="defs1"/>
  <sodipodi:namedview id="namedview1" pagecolor="#ffffff" bordercolor="#000000" borderopacity="0.25" inkscape:showpageshadow="2" inkscape:pageopacity="0.0" inkscape:pagecheckerboard="0" inkscape:deskcolor="#d1d1d1">
    <inkscape:page x="0" y="0" inkscape:label="4" id="page1" width="793.33331" height="1122.6667" margin="0" bleed="0"/>
  </sodipodi:namedview>
  <g id="g1" inkscape:groupmode="layer" inkscape:label="4">
    
    
    
    <path id="path49" d="m 3063.86,5980.6 c 0,0 2.54,-38.25 5.79,-58.14 1.44,-8.85 3.56,-16.64 5.78,-25.32 1.81,-7.05 3.67,-13.32 5.79,-20.28 1.89,-6.17 3.71,-11.67 5.78,-17.79 1.93,-5.64 3.73,-10.69 5.79,-16.29 1.94,-5.29 3.75,-10.02 5.78,-15.28 1.96,-5.04 3.76,-9.55 5.79,-14.56 1.96,-4.86 3.76,-9.2 5.78,-14.03 1.98,-4.71 3.77,-8.93 5.79,-13.62 1.98,-4.6 3.77,-8.72 5.78,-13.3 1.99,-4.51 3.78,-8.55 5.79,-13.05 1.98,-4.44 3.78,-8.42 5.79,-12.85 1.98,-4.38 3.77,-8.31 5.78,-12.68 1.99,-4.34 3.78,-8.23 5.79,-12.55 1.98,-4.31 3.78,-8.16 5.78,-12.45 1.99,-4.27 3.78,-8.11 5.79,-12.37 1.99,-4.25 3.78,-8.06 5.78,-12.3 1.99,-4.22 3.79,-8.02 5.78,-12.24 2,-4.22 3.79,-8 5.79,-12.21 1.99,-4.21 3.79,-7.98 5.78,-12.18 2,-4.2 3.79,-7.97 5.79,-12.16 1.99,-4.19 3.79,-7.95 5.78,-12.15 2,-4.19 3.79,-7.94 5.79,-12.14 1.99,-4.19 3.79,-7.95 5.78,-12.14 2,-4.19 3.79,-7.95 5.79,-12.14 1.99,-4.2 3.79,-7.97 5.78,-12.16 2,-4.2 3.79,-7.97 5.79,-12.17 1.99,-4.21 3.79,-7.98 5.78,-12.19 2,-4.21 3.79,-7.99 5.79,-12.21 1.99,-4.22 3.79,-8.01 5.78,-12.23 2,-4.23 3.79,-8.03 5.79,-12.26 2,-4.24 3.79,-8.04 5.78,-12.28 2,-4.26 3.79,-8.07 5.79,-12.33 2,-4.25 3.79,-8.08 5.78,-12.34 2,-4.28 3.79,-8.11 5.79,-12.39 2,-4.28 3.79,-8.13 5.78,-12.42 2,-4.29 3.79,-8.15 5.79,-12.45 2,-4.31 3.79,-8.18 5.79,-12.5 1.99,-4.32 3.78,-8.2 5.78,-12.53 2,-4.34 3.79,-8.23 5.79,-12.57 1.99,-4.35 3.78,-8.26 5.78,-12.62 2,-4.36 3.79,-8.28 5.78,-12.65 2,-4.38 3.79,-8.32 5.79,-12.7 2,-4.4 3.79,-8.34 5.78,-12.74 2,-4.41 3.8,-8.38 5.79,-12.79 2,-4.43 3.79,-8.4 5.78,-12.83 2,-4.44 3.8,-8.43 5.79,-12.88 2,-4.45 3.79,-8.46 5.78,-12.92 2,-4.47 5.79,-12.96 5.79,-12.96" style="fill:none;stroke:#000000;stroke-width:7.97011;stroke-linecap:butt;stroke-linejoin:miter;stroke-miterlimit:10;stroke-dasharray:none;stroke-opacity:1" transform="matrix(0.13333333,0,0,-0.13333333,0,1122.6667)"/>
    <path id="path50" d="m 2496.94,5980.6 c 0,0 2.3,-37.15 5.78,-56.39 1.4,-7.76 3.45,-14.58 5.78,-22.12 1.75,-5.64 3.58,-10.63 5.79,-16.11 1.82,-4.52 3.63,-8.51 5.78,-12.88 1.87,-3.76 3.66,-7.09 5.79,-10.71 1.89,-3.21 3.68,-6.04 5.78,-9.11 1.91,-2.78 3.7,-5.22 5.79,-7.85 1.91,-2.43 3.71,-4.54 5.78,-6.82 1.93,-2.12 3.72,-3.96 5.79,-5.94 1.93,-1.85 3.73,-3.46 5.79,-5.17 1.94,-1.62 3.73,-3.02 5.78,-4.5 1.95,-1.41 3.75,-2.62 5.79,-3.89 1.95,-1.22 3.75,-2.25 5.78,-3.34 1.96,-1.04 3.76,-1.92 5.79,-2.84 1.96,-0.88 3.76,-1.61 5.78,-2.36 1.97,-0.73 3.77,-1.33 5.79,-1.93 1.97,-0.59 3.77,-1.06 5.78,-1.52 1.98,-0.45 3.78,-0.8 5.79,-1.13 1.98,-0.32 3.78,-0.56 5.78,-0.76 1.99,-0.2 3.79,-0.32 5.79,-0.41 1.99,-0.08 3.79,-0.1 5.78,-0.07 2,0.04 3.79,0.12 5.79,0.26 2,0.14 3.79,0.32 5.78,0.57 2,0.25 3.8,0.53 5.78,0.88 2.01,0.36 3.8,0.73 5.79,1.18 2.01,0.46 3.8,0.92 5.78,1.48 2.02,0.56 3.81,1.11 5.79,1.76 2.01,0.67 3.8,1.3 5.78,2.05 2.02,0.77 3.81,1.5 5.79,2.34 2.01,0.87 3.81,1.68 5.78,2.63 2.02,0.96 3.81,1.87 5.79,2.91 2.02,1.06 3.81,2.05 5.78,3.2 2.02,1.16 3.82,2.25 5.79,3.49 2.02,1.27 3.81,2.45 5.78,3.79 2.03,1.38 3.82,2.66 5.79,4.11 2.02,1.49 3.82,2.86 5.79,4.42 2.02,1.61 3.82,3.09 5.78,4.77 2.03,1.74 3.82,3.33 5.79,5.13 2.03,1.87 3.82,3.58 5.78,5.52 2.04,2.01 3.83,3.85 5.79,5.94 2.04,2.18 3.83,4.17 5.78,6.42 2.04,2.36 3.84,4.52 5.79,6.96 2.05,2.58 3.84,4.93 5.78,7.6 2.06,2.84 3.86,5.43 5.79,8.36 2.07,3.18 3.88,6.07 5.78,9.36 2.1,3.64 3.92,6.95 5.79,10.71 2.15,4.34 3.99,8.29 5.78,12.79 2.26,5.67 4.35,10.8 5.78,16.73 3.32,13.71 5.79,40.49 5.79,40.49" style="fill:none;stroke:#000000;stroke-width:7.97011;stroke-linecap:butt;stroke-linejoin:miter;stroke-miterlimit:10;stroke-dasharray:none;stroke-opacity:1" transform="matrix(0.13333333,0,0,-0.13333333,0,1122.6667)"/>
    <path id="path51" d="m 3063.86,5980.6 c 0,0 2.54,38.25 5.79,58.15 1.44,8.84 3.56,16.63 5.78,25.32 1.81,7.04 3.67,13.31 5.79,20.27 1.89,6.17 3.71,11.68 5.78,17.79 1.93,5.64 3.73,10.69 5.79,16.29 1.94,5.29 3.75,10.03 5.78,15.28 1.96,5.04 3.76,9.55 5.79,14.57 1.96,4.85 3.76,9.19 5.78,14.02 1.98,4.71 3.77,8.93 5.79,13.62 1.98,4.6 3.77,8.72 5.78,13.3 1.99,4.51 3.78,8.56 5.79,13.05 1.98,4.44 3.78,8.42 5.79,12.85 1.98,4.38 3.77,8.31 5.78,12.68 1.99,4.34 3.78,8.23 5.79,12.55 1.98,4.3 3.78,8.16 5.78,12.45 1.99,4.27 3.78,8.1 5.79,12.37 1.99,4.25 3.78,8.05 5.78,12.3 1.99,4.23 3.79,8.02 5.78,12.25 2,4.21 3.79,7.99 5.79,12.2 1.99,4.21 3.79,7.98 5.78,12.18 2,4.2 3.79,7.96 5.79,12.16 1.99,4.19 3.79,7.95 5.78,12.14 2,4.2 3.79,7.96 5.79,12.15 1.99,4.19 3.79,7.95 5.78,12.14 2,4.19 3.79,7.95 5.79,12.14 1.99,4.2 3.79,7.97 5.78,12.16 2,4.2 3.79,7.97 5.79,12.17 1.99,4.21 3.79,7.98 5.78,12.19 2,4.21 3.79,8 5.79,12.21 1.99,4.22 3.79,8.01 5.78,12.23 2,4.23 3.79,8.03 5.79,12.26 2,4.24 3.79,8.05 5.78,12.29 2,4.25 3.79,8.06 5.79,12.31 2,4.27 3.79,8.09 5.78,12.35 2,4.28 3.79,8.11 5.79,12.39 2,4.28 3.79,8.13 5.78,12.42 2,4.29 3.79,8.15 5.79,12.45 2,4.31 3.79,8.18 5.79,12.5 1.99,4.32 3.78,8.2 5.78,12.53 2,4.34 3.79,8.24 5.79,12.58 1.99,4.35 3.78,8.25 5.78,12.61 2,4.37 3.79,8.28 5.78,12.65 2,4.38 3.79,8.32 5.79,12.7 2,4.4 3.79,8.35 5.78,12.75 2,4.41 3.8,8.37 5.79,12.78 2,4.43 3.79,8.4 5.78,12.83 2,4.44 3.8,8.43 5.79,12.87 2,4.46 3.79,8.47 5.78,12.93 2,4.47 5.79,12.97 5.79,12.97" style="fill:none;stroke:#000000;stroke-width:7.97011;stroke-linecap:butt;stroke-linejoin:miter;stroke-miterlimit:10;stroke-dasharray:none;stroke-opacity:1" transform="matrix(0.13333333,0,0,-0.13333333,0,1122.6667)"/>
    <path id="path52" d="m 2496.94,5980.6 c 0,0 2.3,37.15 5.78,56.39 1.4,7.76 3.45,14.58 5.78,22.12 1.75,5.64 3.58,10.64 5.79,16.12 1.82,4.51 3.63,8.5 5.78,12.87 1.87,3.77 3.66,7.09 5.79,10.71 1.89,3.21 3.68,6.04 5.78,9.11 1.91,2.78 3.7,5.22 5.79,7.86 1.91,2.42 3.71,4.53 5.78,6.81 1.93,2.12 3.72,3.96 5.79,5.94 1.93,1.85 3.73,3.45 5.79,5.17 1.94,1.62 3.73,3.01 5.78,4.5 1.95,1.41 3.75,2.62 5.79,3.89 1.95,1.22 3.75,2.26 5.78,3.34 1.96,1.05 3.76,1.93 5.79,2.84 1.96,0.88 3.76,1.61 5.78,2.36 1.97,0.73 3.77,1.33 5.79,1.93 1.97,0.59 3.77,1.06 5.78,1.52 1.98,0.45 3.78,0.8 5.79,1.13 1.98,0.33 3.78,0.56 5.78,0.76 1.99,0.2 3.79,0.33 5.79,0.41 1.99,0.08 3.79,0.1 5.78,0.07 2,-0.03 3.79,-0.11 5.79,-0.26 2,-0.14 3.79,-0.32 5.78,-0.57 2,-0.25 3.8,-0.53 5.78,-0.88 2.01,-0.36 3.8,-0.72 5.79,-1.18 2.01,-0.46 3.8,-0.92 5.78,-1.48 2.02,-0.56 3.81,-1.11 5.79,-1.76 2.01,-0.66 3.8,-1.3 5.78,-2.05 2.02,-0.77 3.81,-1.5 5.79,-2.34 2.01,-0.87 3.81,-1.68 5.78,-2.63 2.02,-0.96 3.81,-1.86 5.79,-2.91 2.02,-1.06 3.81,-2.05 5.78,-3.19 2.02,-1.17 3.82,-2.25 5.79,-3.5 2.02,-1.27 3.81,-2.45 5.78,-3.79 2.03,-1.38 3.82,-2.66 5.79,-4.11 2.02,-1.49 3.82,-2.86 5.79,-4.42 2.02,-1.61 3.82,-3.09 5.78,-4.77 2.03,-1.73 3.82,-3.32 5.79,-5.13 2.03,-1.87 3.82,-3.58 5.78,-5.52 2.04,-2.01 3.83,-3.85 5.79,-5.94 2.04,-2.18 3.83,-4.16 5.78,-6.42 2.04,-2.36 3.84,-4.51 5.79,-6.96 2.05,-2.58 3.84,-4.93 5.78,-7.59 2.06,-2.85 3.86,-5.44 5.79,-8.37 2.07,-3.18 3.88,-6.07 5.78,-9.36 2.1,-3.64 3.92,-6.95 5.79,-10.71 2.15,-4.34 3.99,-8.29 5.78,-12.79 2.26,-5.68 4.35,-10.8 5.78,-16.73 3.32,-13.71 5.79,-40.49 5.79,-40.49" style="fill:none;stroke:#000000;stroke-width:7.97011;stroke-linecap:butt;stroke-linejoin:miter;stroke-miterlimit:10;stroke-dasharray:none;stroke-opacity:1" transform="matrix(0.13333333,0,0,-0.13333333,0,1122.6667)"/>
    <path id="path53" d="m 2213.47,5579.58 c 0,0 15.15,13.8 23.14,21.06 7.99,7.27 15.16,13.8 23.14,21.07 7.99,7.27 15.16,13.79 23.14,21.06 7.99,7.27 15.16,13.79 23.14,21.06 7.99,7.27 15.16,13.79 23.14,21.06 7.99,7.27 15.15,13.8 23.14,21.07 7.99,7.26 15.15,13.79 23.14,21.06 7.99,7.27 15.16,13.79 23.14,21.06 7.98,7.27 15.16,13.79 23.14,21.06 7.98,7.27 15.16,13.79 23.14,21.06 7.99,7.27 15.15,13.8 23.14,21.07 7.99,7.26 15.15,13.79 23.14,21.06 7.99,7.26 15.15,13.79 23.14,21.06 7.99,7.27 15.16,13.79 23.14,21.06 7.98,7.27 15.16,13.8 23.14,21.06 7.98,7.27 15.16,13.8 23.14,21.06 7.99,7.27 15.15,13.8 23.14,21.07 7.99,7.27 15.15,13.79 23.14,21.06 7.99,7.27 15.15,13.79 23.14,21.06 7.99,7.27 15.16,13.79 23.14,21.06 7.98,7.27 15.16,13.8 23.14,21.07 7.98,7.26 15.16,13.79 23.14,21.06 7.99,7.26 15.15,13.79 23.14,21.06 7.99,7.27 15.15,13.79 23.14,21.06 7.99,7.27 15.15,13.79 23.14,21.06 7.99,7.27 15.15,13.8 23.14,21.07 7.98,7.26 15.16,13.79 23.14,21.06 7.98,7.26 15.16,13.79 23.14,21.06 7.99,7.27 15.15,13.79 23.14,21.06 7.99,7.27 15.15,13.8 23.14,21.06 7.99,7.27 15.15,13.8 23.14,21.06 7.98,7.27 15.15,13.8 23.14,21.07 7.98,7.27 15.16,13.79 23.14,21.06 7.98,7.27 15.15,13.79 23.14,21.06 7.98,7.27 15.15,13.79 23.14,21.06 7.99,7.27 15.15,13.8 23.14,21.07 7.99,7.26 15.15,13.79 23.14,21.06 7.98,7.26 15.15,13.79 23.14,21.06 7.98,7.27 15.16,13.79 23.14,21.06 7.98,7.27 15.15,13.79 23.14,21.06 7.98,7.27 15.15,13.8 23.14,21.06 7.99,7.27 15.15,13.8 23.14,21.07 7.99,7.26 15.15,13.79 23.14,21.06 7.98,7.27 15.15,13.79 23.14,21.06 7.98,7.27 15.16,13.8 23.14,21.06 7.98,7.27 15.15,13.8 23.14,21.06 7.98,7.27 15.15,13.8 23.14,21.07 7.99,7.27 15.15,13.79 23.14,21.06 7.99,7.27 23.14,21.06 23.14,21.06" style="fill:none;stroke:#000000;stroke-width:7.97011;stroke-linecap:butt;stroke-linejoin:miter;stroke-miterlimit:10;stroke-dasharray:none;stroke-opacity:1" transform="matrix(0.13333333,0,0,-0.13333333,0,1122.6667)"/>
    <path id="path54" d="m 0.17621875,-1.0784375 c -0.0234375,0.035156 -0.0585938,0.058594 -0.0585938,0.10546875 0,0.0585938 0.0703125,0.140625 0.12890625,0.140625 0.0585937,0 0.09375,-0.0351563 0.3984375,-0.33984375 C 0.727,-1.2425 0.94965625,-1.4534375 1.0316875,-1.5354687 1.148875,-0.68 1.4652813,0.12859375 2.2621563,0.12859375 2.69575,0.12859375 3.0824688,-0.1175 3.305125,-0.2815625 3.4574688,-0.39875 3.9730938,-0.820625 3.9730938,-0.92609375 3.9730938,-0.96125 3.9379375,-1.055 3.8441875,-1.055 c -0.035156,0 -0.046875,0.011719 -0.140625,0.09375 C 3.0004375,-0.26984375 2.602,-0.10578125 2.2855938,-0.10578125 1.7934063,-0.10578125 1.617625,-0.68 1.617625,-1.52375 c 0,-0.070312 0.023437,-0.5742187 0.046875,-0.6210937 0.023437,-0.035156 0.023437,-0.058594 0.2460938,-0.28125 0.8789062,-0.8789063 2.4375,-2.71875 2.4375,-4.4179688 0,-0.1875 0,-0.84375 -0.6445313,-0.84375 -0.9140625,0 -1.7226562,1.7929688 -1.828125,2.0507813 -0.5273437,1.1835937 -0.8554687,2.4609375 -0.8554687,3.7617187 z M 1.7230938,-2.6135937 c 0.023437,-0.1171875 0.4921875,-2.53125 1.1132812,-3.8085938 0.2929688,-0.5976562 0.5273438,-1.03125 0.8789063,-1.03125 0.3632812,0 0.3632812,0.3984375 0.3632812,0.5742188 0,1.8164062 -1.828125,3.7265625 -2.3554687,4.265625 z m 0,0" style="fill:#000000;fill-opacity:1;fill-rule:nonzero;stroke:none" aria-label="ℓ" transform="matrix(1.3333333,0,0,1.3333333,284.53067,386.90667)"/>
    <path id="path55" d="m 5.2979297,-2.9881719 c 0,-1.2773437 -1.0546875,-2.3203125 -2.3085938,-2.3203125 -1.3007812,0 -2.32031246,1.0664063 -2.32031246,2.3203125 0,1.2773438 1.05468746,2.32031253 2.30859376,2.32031253 1.3007812,0 2.3203125,-1.06640623 2.3203125,-2.32031253 z m 0,0" style="fill:#ff0000;fill-opacity:1;fill-rule:nonzero;stroke:none" aria-label="•" transform="matrix(1.3333333,0,0,1.3333333,362.94,316.88267)"/>
    <path id="path56" d="m 3.7388984,-0.05913281 c 1.2421875,-0.4453125 2.484375,-1.80468749 2.484375,-3.36328129 0,-1.3125 -0.9023437,-2.1914062 -2.1796875,-2.1914062 -1.8632812,0 -3.63281246,1.8398437 -3.63281246,3.6210937 0,1.23046879 0.85546876,2.15625004 2.19140626,2.15625004 0.2226562,0 0.4921875,-0.0234375 0.8085937,-0.10546875 0,0.09375 -0.011719,0.3984375 -0.011719,0.45703125 0,0.328125 0,1.03124996 0.7265625,1.03124996 0.9375,0 1.3828125,-1.40624996 1.3828125,-1.5468749625 0,-0.0585937475 -0.046875,-0.1171874975 -0.1171875,-0.1171874975 -0.070312,0 -0.09375,0.08203125 -0.1054688,0.10546875 -0.1640625,0.52734375 -0.6328125,0.75 -0.9609375,0.75 -0.28125,0 -0.4804687,-0.10546875 -0.5859372,-0.796875 z m -1.640625,-0.12890625 c -0.6328125,-0.24609375 -0.9375,-0.82031254 -0.9375,-1.59375004 0,-0.5390625 0.1757813,-1.5703125 0.8203125,-2.4492187 0.5273438,-0.6914063 1.2890625,-1.1367188 1.9921875,-1.1367188 0.84375,0 1.5117188,0.5976563 1.5117188,1.7226563 0,0.421875 -0.1640625,2.3671875 -1.7929688,3.29296874 -0.09375,-0.45703125 -0.2578125,-0.85546874 -0.7734375,-0.85546874 -0.4570312,0 -0.8671875,0.41015624 -0.8671875,0.82031249 0,0.0703125 0.023437,0.140625 0.046875,0.19921875 z m 1.3242188,-0.046875 c -0.1757813,0.0703125 -0.4570313,0.15234375 -0.7617188,0.15234375 -0.09375,0 -0.3867187,0 -0.3867187,-0.3046875 0,-0.28125 0.3046875,-0.59765625 0.65625,-0.59765625 0.3398437,0 0.4804687,0.22265625 0.4921875,0.75 z m 0,0" style="fill:#000000;fill-opacity:1;fill-rule:nonzero;stroke:none" aria-label="Q" transform="matrix(1.3333333,0,0,1.3333333,371.90933,318.364)"/>
    <path id="path57" d="m 5.2981484,-2.9875234 c 0,-1.2773438 -1.0546875,-2.3203125 -2.3085937,-2.3203125 -1.3007813,0 -2.32031251,1.0664062 -2.32031251,2.3203125 0,1.2773437 1.05468751,2.32031246 2.30859371,2.32031246 1.3007813,0 2.3203125,-1.06640626 2.3203125,-2.32031246 z m 0,0" style="fill:#ff0000;fill-opacity:1;fill-rule:nonzero;stroke:none" aria-label="•" transform="matrix(1.3333333,0,0,1.3333333,332.70533,344.40133)"/>
    <path id="path58" d="m 2.5084063,-2.4836172 h 1.453125 c 1.1484375,0 2.34375,-0.796875 2.34375,-1.734375 0,-0.6796875 -0.6445313,-1.21875 -1.6640625,-1.21875 H 1.957625 c -0.1523437,0 -0.2460937,0 -0.2460937,0.140625 0,0.1171875 0.09375,0.1171875 0.2226562,0.1171875 0.2695313,0 0.4921875,0 0.4921875,0.1289063 0,0.035156 0,0.035156 -0.023437,0.140625 l -1.0664062,4.27734371 c -0.082031,0.29296875 -0.09375,0.375 -0.65625005,0.375 -0.1875,0 -0.26953125,0 -0.26953125,0.140625 0,0.03515625 0.0234375,0.1171875025 0.12890625,0.1171875025 0.140625,0 0.33984375,-0.0117187525 0.49218755,-0.0234375025 H 1.53575 c 0.7734375,0 0.9726563,0.0234375025 1.03125,0.0234375025 0.046875,0 0.1640625,0 0.1640625,-0.1523437525 0,-0.10546875 -0.1054687,-0.10546875 -0.2460937,-0.10546875 -0.023437,0 -0.1640625,0 -0.3046875,-0.0234375 C 2.0162188,-0.29221094 2.0045,-0.31564844 2.0045,-0.38596094 c 0,-0.046875 0.011719,-0.09375 0.023437,-0.12890625 z M 3.0943438,-4.8859609 C 3.1646563,-5.1554922 3.176375,-5.1789297 3.5045,-5.1789297 h 0.8671875 c 0.65625,0 1.1601563,0.1875 1.1601563,0.7851563 0,0.09375 -0.035156,0.8085937 -0.4921875,1.2421875 -0.1171875,0.1289062 -0.4921875,0.421875 -1.2773438,0.421875 H 2.5552813 Z m 0,0" style="fill:#000000;fill-opacity:1;fill-rule:nonzero;stroke:none" aria-label="P" transform="matrix(1.3333333,0,0,1.3333333,341.07733,344.40133)"/>
    <path id="path59" d="m 5.2981797,-2.989125 c 0,-1.2773437 -1.0546875,-2.3203125 -2.3085938,-2.3203125 -1.3007812,0 -2.32031246,1.0664063 -2.32031246,2.3203125 0,1.2773438 1.05468746,2.3203125 2.30859376,2.3203125 1.3007812,0 2.3203125,-1.0664062 2.3203125,-2.3203125 z m 0,0" style="fill:#ff0000;fill-opacity:1;fill-rule:nonzero;stroke:none" aria-label="•" transform="matrix(1.3333333,0,0,1.3333333,435.81467,250.548)"/>
    <g id="g59" aria-label="−(P+Q)" transform="matrix(1.3333333,0,0,1.3333333,386.988,242.02933)">
      <path id="path60" d="m 5.5783359,-1.80325 c 0.1171875,0 0.28125,0 0.28125,-0.1875 0,-0.1875 -0.1640625,-0.1875 -0.28125,-0.1875 H 0.99630469 c -0.1171875,0 -0.28125,0 -0.28125,0.1875 0,0.1875 0.1640625,0.1875 0.28125,0.1875 z m 0,0" style="fill:#000000;fill-opacity:1;fill-rule:nonzero;stroke:none"/>
      <path id="path61" d="m 9.2492344,1.993625 c 0.070312,0 0.1640625,0 0.1640625,-0.09375 0,-0.035156 -0.011719,-0.046875 -0.1054688,-0.140625 -1.1015625,-1.03125 -1.3710937,-2.51953125 -1.3710937,-3.75 0,-2.296875 0.9492187,-3.375 1.359375,-3.7382812 C 9.4015781,-5.8345 9.4132969,-5.8345 9.4132969,-5.881375 c 0,-0.035156 -0.035156,-0.09375 -0.1054688,-0.09375 -0.1289062,0 -0.5273437,0.4101563 -0.5976562,0.4804688 -1.0664063,1.1132812 -1.2890625,2.5429687 -1.2890625,3.5039062 0,1.78125 0.75,3.2226563 1.828125,3.984375 z m 0,0" style="fill:#000000;fill-opacity:1;fill-rule:nonzero;stroke:none"/>
      <path id="path62" d="m 12.348844,-2.4829375 h 1.453125 c 1.148437,0 2.34375,-0.796875 2.34375,-1.734375 0,-0.6796875 -0.644531,-1.21875 -1.664063,-1.21875 h -2.683593 c -0.152344,0 -0.246094,0 -0.246094,0.140625 0,0.1171875 0.09375,0.1171875 0.222656,0.1171875 0.269531,0 0.492188,0 0.492188,0.1289063 0,0.035156 0,0.035156 -0.02344,0.140625 l -1.066406,4.2773437 c -0.08203,0.29296875 -0.09375,0.375 -0.65625,0.375 -0.1875,0 -0.269531,0 -0.269531,0.140625 0,0.03515625 0.02344,0.1171875 0.128906,0.1171875 0.140625,0 0.339844,-0.01171875 0.492187,-0.0234375 h 0.503907 c 0.773437,0 0.972656,0.0234375 1.03125,0.0234375 0.04687,0 0.164062,0 0.164062,-0.15234375 0,-0.10546875 -0.105469,-0.10546875 -0.246094,-0.10546875 -0.02344,0 -0.164062,0 -0.304687,-0.0234375 -0.164063,-0.0117188 -0.175781,-0.0351563 -0.175781,-0.10546875 0,-0.046875 0.01172,-0.09375 0.02344,-0.12890625 z m 0.585937,-2.4023437 c 0.07031,-0.2695313 0.08203,-0.2929688 0.410157,-0.2929688 h 0.867187 c 0.65625,0 1.160156,0.1875 1.160156,0.7851563 0,0.09375 -0.03516,0.8085937 -0.492187,1.2421875 -0.117188,0.1289062 -0.492188,0.421875 -1.277344,0.421875 h -1.207031 z m 0,0" style="fill:#000000;fill-opacity:1;fill-rule:nonzero;stroke:none"/>
      <path id="path63" d="m 21.829313,-1.80325 h 2.34375 c 0.117187,0 0.292968,0 0.292968,-0.1875 0,-0.1875 -0.175781,-0.1875 -0.292968,-0.1875 h -2.34375 V -4.522 c 0,-0.1171875 0,-0.2929687 -0.175782,-0.2929687 -0.1875,0 -0.1875,0.1757812 -0.1875,0.2929687 v 2.34375 h -2.34375 c -0.117187,0 -0.292968,0 -0.292968,0.1875 0,0.1875 0.175781,0.1875 0.292968,0.1875 h 2.34375 V 0.5405 c 0,0.1171875 0,0.29296875 0.1875,0.29296875 0.175782,0 0.175782,-0.17578125 0.175782,-0.29296875 z m 0,0" style="fill:#000000;fill-opacity:1;fill-rule:nonzero;stroke:none"/>
      <path id="path64" d="m 30.498258,-0.05715625 c 1.242187,-0.4453125 2.484375,-1.80468745 2.484375,-3.36328125 0,-1.3125 -0.902344,-2.1914062 -2.179688,-2.1914062 -1.863281,0 -3.632812,1.8398437 -3.632812,3.6210937 0,1.23046875 0.855469,2.15625 2.191406,2.15625 0.222656,0 0.492188,-0.0234375 0.808594,-0.10546875 0,0.09375 -0.01172,0.3984375 -0.01172,0.45703125 0,0.328125 0,1.03125 0.726563,1.03125 0.9375,0 1.382812,-1.40625 1.382812,-1.546875 0,-0.05859375 -0.04687,-0.1171875 -0.117187,-0.1171875 -0.07031,0 -0.09375,0.08203125 -0.105469,0.10546875 -0.164063,0.52734375 -0.632813,0.75 -0.960938,0.75 -0.28125,0 -0.480468,-0.10546875 -0.585937,-0.796875 z M 28.857633,-0.1860625 c -0.632813,-0.24609375 -0.9375,-0.8203125 -0.9375,-1.59375 0,-0.5390625 0.175781,-1.5703125 0.820312,-2.4492187 0.527344,-0.6914063 1.289063,-1.1367188 1.992188,-1.1367188 0.84375,0 1.511719,0.5976563 1.511719,1.7226563 0,0.421875 -0.164063,2.3671875 -1.792969,3.2929687 -0.09375,-0.45703125 -0.257813,-0.8554687 -0.773438,-0.8554687 -0.457031,0 -0.867187,0.4101562 -0.867187,0.82031245 0,0.0703125 0.02344,0.140625 0.04687,0.19921875 z m 1.324219,-0.046875 c -0.175782,0.0703125 -0.457032,0.15234375 -0.761719,0.15234375 -0.09375,0 -0.386719,0 -0.386719,-0.3046875 0,-0.28125 0.304688,-0.59765625 0.65625,-0.59765625 0.339844,0 0.480469,0.22265625 0.492188,0.75 z m 0,0" style="fill:#000000;fill-opacity:1;fill-rule:nonzero;stroke:none"/>
      <path id="path65" d="m 35.941617,-1.99075 c 0,-0.7617187 -0.128906,-1.6640625 -0.621094,-2.6015625 -0.386718,-0.7382812 -1.113281,-1.3828125 -1.253906,-1.3828125 -0.08203,0 -0.105469,0.058594 -0.105469,0.09375 0,0.035156 0,0.046875 0.09375,0.140625 1.113282,1.0664063 1.371094,2.5195313 1.371094,3.75 0,2.28515625 -0.949219,3.375 -1.359375,3.7382813 C 33.961148,1.853 33.961148,1.853 33.961148,1.899875 c 0,0.035156 0.02344,0.09375 0.105469,0.09375 0.128906,0 0.527344,-0.4101562 0.585938,-0.4804687 1.066406,-1.1132813 1.289062,-2.5429688 1.289062,-3.5039063 z m 0,0" style="fill:#000000;fill-opacity:1;fill-rule:nonzero;stroke:none"/>
    </g>
    <path id="path66" d="m 2213.47,6005.04 c 0,0 15.15,5.96 23.14,9.1 7.99,3.14 15.16,5.96 23.14,9.1 7.99,3.14 15.16,5.96 23.14,9.1 7.99,3.14 15.16,5.96 23.14,9.1 7.99,3.14 15.16,5.96 23.14,9.1 7.99,3.14 15.15,5.96 23.14,9.1 7.99,3.14 15.15,5.96 23.14,9.1 7.99,3.14 15.16,5.96 23.14,9.1 7.98,3.14 15.16,5.96 23.14,9.11 7.98,3.14 15.16,5.95 23.14,9.09 7.99,3.14 15.15,5.96 23.14,9.1 7.99,3.15 15.15,5.97 23.14,9.11 7.99,3.14 15.15,5.96 23.14,9.1 7.99,3.14 15.16,5.96 23.14,9.1 7.98,3.14 15.16,5.96 23.14,9.1 7.98,3.14 15.16,5.96 23.14,9.1 7.99,3.14 15.15,5.96 23.14,9.1 7.99,3.14 15.15,5.96 23.14,9.1 7.99,3.14 15.15,5.96 23.14,9.1 7.99,3.14 15.16,5.96 23.14,9.1 7.98,3.15 15.16,5.97 23.14,9.11 7.98,3.14 15.16,5.95 23.14,9.09 7.99,3.14 15.15,5.96 23.14,9.11 7.99,3.14 15.15,5.96 23.14,9.1 7.99,3.14 15.15,5.96 23.14,9.1 7.99,3.14 15.15,5.96 23.14,9.1 7.98,3.14 15.16,5.96 23.14,9.1 7.98,3.14 15.16,5.96 23.14,9.1 7.99,3.14 15.15,5.96 23.14,9.1 7.99,3.14 15.15,5.96 23.14,9.1 7.99,3.14 15.15,5.96 23.14,9.1 7.98,3.14 15.15,5.96 23.14,9.11 7.98,3.14 15.16,5.96 23.14,9.1 7.98,3.14 15.15,5.96 23.14,9.1 7.98,3.14 15.15,5.96 23.14,9.1 7.99,3.14 15.15,5.96 23.14,9.1 7.99,3.14 15.15,5.96 23.14,9.1 7.98,3.14 15.15,5.96 23.14,9.1 7.98,3.14 15.16,5.96 23.14,9.1 7.98,3.14 15.15,5.96 23.14,9.1 7.98,3.14 15.15,5.96 23.14,9.1 7.99,3.14 15.15,5.96 23.14,9.1 7.99,3.14 15.15,5.96 23.14,9.11 7.98,3.14 15.15,5.96 23.14,9.1 7.98,3.14 15.16,5.96 23.14,9.1 7.98,3.14 15.15,5.96 23.14,9.1 7.98,3.14 15.15,5.96 23.14,9.1 7.99,3.14 15.15,5.96 23.14,9.1 7.99,3.14 23.14,9.1 23.14,9.1" style="fill:none;stroke:#000000;stroke-width:7.97011;stroke-linecap:butt;stroke-linejoin:miter;stroke-miterlimit:10;stroke-dasharray:none;stroke-opacity:1" transform="matrix(0.13333333,0,0,-0.13333333,0,1122.6667)"/>
    <g id="g66" aria-label="ℓ&#10;′" transform="matrix(1.3333333,0,0,1.3333333,282.61067,330.85333)">
      <path id="path67" d="m 0.1748125,-1.0794531 c -0.0234375,0.035156 -0.0585938,0.058594 -0.0585938,0.10546872 0,0.0585938 0.0703125,0.140625 0.12890625,0.140625 0.0585937,0 0.09375,-0.0351563 0.3984375,-0.33984372 0.0820313,-0.070312 0.3046875,-0.28125 0.38671865,-0.3632813 0.1171875,0.85546877 0.4335938,1.66406252 1.2304689,1.66406252 0.4335937,0 0.8203125,-0.24609375 1.0429687,-0.41015625 0.1523438,-0.1171875 0.6679688,-0.5390625 0.6679688,-0.64453125 0,-0.0351563 -0.035156,-0.12890622 -0.1289063,-0.12890622 -0.035156,0 -0.046875,0.011719 -0.140625,0.09375 -0.703125,0.69140625 -1.1015625,0.85546875 -1.4179687,0.85546875 -0.4921876,0 -0.6679689,-0.57421875 -0.6679689,-1.41796875 0,-0.070312 0.023437,-0.5742188 0.046875,-0.6210938 0.023437,-0.035156 0.023437,-0.058594 0.2460938,-0.28125 0.8789063,-0.8789062 2.4375,-2.71875 2.4375,-4.4179687 0,-0.1875 0,-0.84375 -0.6445312,-0.84375 -0.9140625,0 -1.7226563,1.7929687 -1.8281251,2.0507812 -0.5273436,1.1835938 -0.8554686,2.4609375 -0.8554686,3.7617188 z m 1.546875,-1.5351563 c 0.023437,-0.1171875 0.4921875,-2.53125 1.1132812,-3.8085937 0.2929688,-0.5976563 0.5273438,-1.03125 0.8789063,-1.03125 0.3632812,0 0.3632812,0.3984375 0.3632812,0.5742187 0,1.8164063 -1.828125,3.7265625 -2.3554687,4.265625 z m 0,0" style="fill:#000000;fill-opacity:1;fill-rule:nonzero;stroke:none"/>
      <path id="path68" d="m 6.6933672,-7.7679297 c 0.011719,-0.035156 0.046875,-0.1289062 0.046875,-0.2109375 0,-0.2460937 -0.2226563,-0.4335937 -0.4570313,-0.4335937 -0.3164062,0 -0.3984375,0.2578125 -0.421875,0.3515625 l -1.0195312,3.46875 c 0,0.011719 -0.035156,0.1171875 -0.035156,0.1289062 0,0.1054688 0.2460938,0.1757813 0.3046875,0.1757813 0.046875,0 0.082031,-0.035156 0.1171875,-0.1171875 z m 0,0" style="fill:#000000;fill-opacity:1;fill-rule:nonzero;stroke:none"/>
    </g>
    <path id="path69" d="m 5.2980937,-2.9877266 c 0,-1.2773437 -1.0546875,-2.3203125 -2.3085937,-2.3203125 -1.3007813,0 -2.3203125,1.0664063 -2.3203125,2.3203125 0,1.2773438 1.0546875,2.32031254 2.3085937,2.32031254 1.3007813,0 2.3203125,-1.06640624 2.3203125,-2.32031254 z m 0,0" style="fill:#ff0000;fill-opacity:1;fill-rule:nonzero;stroke:none" aria-label="•" transform="matrix(1.3333333,0,0,1.3333333,340.264,306.19067)"/>
    <path id="path70" d="m 3.0928047,-4.8861094 c 0.070312,-0.2695312 0.082031,-0.2929687 0.4101562,-0.2929687 h 0.6445313 c 0.6445312,0 1.265625,0.1640625 1.265625,0.8085937 0,0.3515625 -0.1875,0.9140625 -0.5507813,1.171875 -0.3867187,0.2695313 -0.84375,0.3632813 -1.3007812,0.3632813 h -0.984375 z m 1.3476562,2.1796875 c 0.984375,-0.2460937 1.7460938,-0.84375 1.7460938,-1.5234375 0,-0.6914062 -0.7734375,-1.2070312 -1.8867188,-1.2070312 h -2.34375 c -0.1523437,0 -0.2460937,0 -0.2460937,0.140625 0,0.1171875 0.09375,0.1171875 0.2226562,0.1171875 0.2695313,0 0.4921875,0 0.4921875,0.1289062 0,0.035156 0,0.035156 -0.023437,0.140625 l -1.0664062,4.27734378 c -0.082031,0.3046875 -0.09375,0.375 -0.67968751,0.375 -0.15234375,0 -0.24609375,0 -0.24609375,0.140625 0,0.03515625 0.0234375,0.117187495 0.12890625,0.117187495 0.140625,0 0.328125,-0.011718745 0.49218751,-0.023437495 h 0.4921875 c 0.7382812,0 0.9726562,0.023437495 1.0195312,0.023437495 0.046875,0 0.1640625,0 0.1640625,-0.152343745 0,-0.10546875 -0.1054687,-0.10546875 -0.2460937,-0.10546875 -0.023437,0 -0.1640625,0 -0.3046875,-0.0234375 -0.1640625,-0.0117188 -0.1757813,-0.0351563 -0.1757813,-0.10546875 0,-0.046875 0.011719,-0.09375 0.023438,-0.12890625 l 0.515625,-2.09765628 h 1.03125 c 0.7148438,0 0.9492188,0.3867188 0.9492188,0.703125 0,0.1171875 -0.058594,0.3398438 -0.1054688,0.5039063 -0.058594,0.234375 -0.140625,0.55078123 -0.140625,0.69140623 0,0.62109375 0.5273438,0.87890625 1.1132813,0.87890625 0.6914062,0 1.0195312,-0.7734375 1.0195312,-0.92578125 0,-0.0351563 -0.023437,-0.1171875 -0.1289062,-0.1171875 -0.082031,0 -0.1054688,0.0703125 -0.1171875,0.10546875 -0.1757813,0.55078125 -0.515625,0.71484375 -0.75,0.71484375 -0.2929688,0 -0.328125,-0.22265625 -0.328125,-0.48046875 0,-0.26953125 0.058594,-0.62109378 0.082031,-0.87890628 0.035156,-0.234375 0.035156,-0.2929687 0.035156,-0.3632812 0,-0.4804688 -0.3164063,-0.7617188 -0.7382818,-0.9257813 z m 0,0" style="fill:#000000;fill-opacity:1;fill-rule:nonzero;stroke:none" aria-label="R" transform="matrix(1.3333333,0,0,1.3333333,339.94267,298.632)"/>
    <path id="path71" d="m 5.2972266,-2.989375 c 0,-1.2773437 -1.0546875,-2.3203125 -2.3085938,-2.3203125 -1.3007812,0 -2.32031249,1.0664063 -2.32031249,2.3203125 0,1.2773438 1.05468749,2.3203125 2.30859379,2.3203125 1.3007812,0 2.3203125,-1.0664062 2.3203125,-2.3203125 z m 0,0" style="fill:#ff0000;fill-opacity:1;fill-rule:nonzero;stroke:none" aria-label="•" transform="matrix(1.3333333,0,0,1.3333333,425.48,272.67333)"/>
    <g id="g71" aria-label="−[2]R&#10;Figure3.3:Twofunctionsℓandℓ&#10;′&#10;onE.&#10;thefunctionℓ&#10;prod&#10;=ℓℓ&#10;′&#10;is(ℓ&#10;prod&#10;)=(ℓ)+(ℓ&#10;′&#10;)=(P)+(Q)+2(R)+(−(P+&#10;Q))+(−[2]R)−6(O).Thedivisorofℓ&#10;quot&#10;=ℓ/ℓ&#10;′&#10;is(ℓ&#10;quot&#10;)=(ℓ)−(ℓ&#10;′&#10;)=&#10;(P)+(Q)+(−(P+Q))−2(R)−(−[2]R).Noticethatℓ&#10;quot&#10;doesnotintersect&#10;EatO;projectifyingℓ/ℓ&#10;′&#10;=&#10;y−λ&#10;1&#10;x+ν&#10;1" transform="matrix(1.3333333,0,0,1.3333333,426.25867,283.052)">
      <path id="path72" d="m 5.5774844,-1.8056016 c 0.1171875,0 0.28125,0 0.28125,-0.1875 0,-0.1875 -0.1640625,-0.1875 -0.28125,-0.1875 H 0.99545312 c -0.1171875,0 -0.28125,0 -0.28125,0.1875 0,0.1875 0.1640625,0.1875 0.28125,0.1875 z m 0,0" style="fill:#000000;fill-opacity:1;fill-rule:nonzero;stroke:none"/>
      <path id="path73" d="M 8.7561953,1.9912734 V 1.6279922 h -0.796875 v -7.2421875 h 0.796875 v -0.3632813 h -1.171875 v 7.96875 z m 2.4931637,-3.6210937 c 0.128907,-0.1171875 0.457032,-0.375 0.585938,-0.4921875 0.492187,-0.4570313 0.960937,-0.890625 0.960937,-1.6171875 0,-0.9492188 -0.796875,-1.5585938 -1.792968,-1.5585938 -0.949219,0 -1.5820316,0.7265625 -1.5820316,1.4296875 0,0.3984375 0.3164062,0.4453125 0.421875,0.4453125 0.1640626,0 0.4101566,-0.1171875 0.4101566,-0.421875 0,-0.4101562 -0.3984379,-0.4101562 -0.4921879,-0.4101562 0.234375,-0.5859375 0.7734379,-0.7851563 1.1601559,-0.7851563 0.738282,0 1.125,0.6328125 1.125,1.3007813 0,0.8320312 -0.585937,1.4296875 -1.523437,2.4023437 l -1.0078126,1.03125004 c -0.09375,0.09375 -0.09375,0.10546875 -0.09375,0.3046874975 H 12.573578 L 12.796234,-1.4306016 h -0.246093 c -0.02344,0.1640625 -0.08203,0.56250004 -0.175782,0.71484379 -0.04687,0.0585938 -0.65625,0.0585938 -0.785156,0.0585938 h -1.417969 z m 3.307618,-4.3476563 h -1.171875 v 0.3632813 h 0.796875 v 7.2421875 h -0.796875 v 0.3632812 h 1.171875 z m 0,0" style="fill:#000000;fill-opacity:1;fill-rule:nonzero;stroke:none"/>
      <path id="path74" d="m 18.693695,-4.8876328 c 0.07031,-0.2695313 0.08203,-0.2929688 0.410157,-0.2929688 h 0.644531 c 0.644531,0 1.265625,0.1640625 1.265625,0.8085938 0,0.3515625 -0.1875,0.9140625 -0.550781,1.171875 -0.386719,0.2695312 -0.84375,0.3632812 -1.300782,0.3632812 H 18.17807 Z m 1.347657,2.1796875 c 0.984375,-0.2460938 1.746093,-0.84375 1.746093,-1.5234375 0,-0.6914063 -0.773437,-1.2070313 -1.886718,-1.2070313 h -2.34375 c -0.152344,0 -0.246094,0 -0.246094,0.140625 0,0.1171875 0.09375,0.1171875 0.222656,0.1171875 0.269531,0 0.492188,0 0.492188,0.1289063 0,0.035156 0,0.035156 -0.02344,0.140625 l -1.066406,4.27734374 c -0.08203,0.3046875 -0.09375,0.375 -0.679688,0.375 -0.152343,0 -0.246093,0 -0.246093,0.140625 0,0.03515625 0.02344,0.1171874975 0.128906,0.1171874975 0.140625,0 0.328125,-0.0117187475 0.492187,-0.0234374975 h 0.492188 c 0.738281,0 0.972656,0.0234374975 1.019531,0.0234374975 0.04687,0 0.164063,0 0.164063,-0.1523437475 0,-0.10546875 -0.105469,-0.10546875 -0.246094,-0.10546875 -0.02344,0 -0.164063,0 -0.304688,-0.0234375 -0.164062,-0.0117188 -0.175781,-0.0351563 -0.175781,-0.10546875 0,-0.046875 0.01172,-0.09375 0.02344,-0.12890625 l 0.515625,-2.09765624 h 1.03125 c 0.714843,0 0.949218,0.3867187 0.949218,0.703125 0,0.1171875 -0.05859,0.3398437 -0.105468,0.5039062 -0.05859,0.234375 -0.140625,0.55078129 -0.140625,0.69140629 0,0.62109375 0.527343,0.87890625 1.113281,0.87890625 0.691406,0 1.019531,-0.7734375 1.019531,-0.92578125 0,-0.0351563 -0.02344,-0.1171875 -0.128906,-0.1171875 -0.08203,0 -0.105469,0.0703125 -0.117188,0.10546875 -0.175781,0.55078125 -0.515625,0.71484375 -0.75,0.71484375 -0.292968,0 -0.328125,-0.22265625 -0.328125,-0.48046875 0,-0.26953125 0.05859,-0.62109374 0.08203,-0.87890624 0.03516,-0.234375 0.03516,-0.2929688 0.03516,-0.3632813 0,-0.4804687 -0.316406,-0.7617187 -0.738281,-0.9257812 z m 0,0" style="fill:#000000;fill-opacity:1;fill-rule:nonzero;stroke:none"/>
      
      
      
      
      
      
      
      
      
      
      
      
      
      
      
      
      
      
      
      
      
      
      
      
      
      
      
      
      
      
      
      
      
      
      
      
      
      
      
      
      
      
      
      
      
      
      
      
      
      
      
      
      
      
      
      
      
      
      
      
      
      
      
      
      
      
      
      
      
      
      
      
      
      
      
      
      
      
      
      
      
      
      
      
      
      
      
      
      
      
      
      
      
      
      
      
      
      
    </g>
    
    
    
    
    
    
    
    
  </g>
</svg>