<svg version="1.1" id="svg1" width="283.0018496192858" height="261.00242946137786" viewBox="238.00155551021209 148.50138227974946 283.0018496192858 261.00242946137786" sodipodi:docname="ch3.pdf" xmlns:inkscape="http://www.inkscape.org/namespaces/inkscape" xmlns:sodipodi="http://sodipodi.sourceforge.net/DTD/sodipodi-0.dtd" xmlns="http://www.w3.org/2000/svg" xmlns:svg="http://www.w3.org/2000/svg" style="">
  <defs id="defs1"/>
  <sodipodi:namedview id="namedview1" pagecolor="#ffffff" bordercolor="#000000" borderopacity="0.25" inkscape:showpageshadow="2" inkscape:pageopacity="0.0" inkscape:pagecheckerboard="0" inkscape:deskcolor="#d1d1d1">
    <inkscape:page x="0" y="0" inkscape:label="8" id="page1" width="793.33331" height="1122.6667" margin="0" bleed="0"/>
  </sodipodi:namedview>
  <g id="g1" inkscape:groupmode="layer" inkscape:label="8">
    
    
    <path id="path4" d="m 3261.45,6213.29 c 0,0 3.29,-47.14 7.54,-71.61 1.88,-10.81 4.62,-20.31 7.54,-30.89 2.35,-8.52 4.76,-16.09 7.54,-24.49 2.45,-7.41 4.82,-14.01 7.54,-21.33 2.49,-6.72 4.85,-12.72 7.53,-19.37 2.52,-6.26 4.88,-11.84 7.54,-18.04 2.54,-5.92 4.89,-11.2 7.53,-17.08 2.56,-5.66 4.9,-10.72 7.54,-16.34 2.57,-5.46 4.91,-10.35 7.54,-15.78 2.57,-5.3 4.91,-10.05 7.54,-15.32 2.58,-5.17 4.91,-9.8 7.54,-14.95 2.58,-5.07 4.92,-9.6 7.53,-14.65 2.59,-4.98 4.92,-9.44 7.54,-14.39 2.59,-4.91 4.92,-9.3 7.54,-14.19 2.59,-4.84 4.93,-9.18 7.54,-14 2.59,-4.79 4.93,-9.09 7.53,-13.86 2.59,-4.75 4.93,-9 7.54,-13.73 2.59,-4.71 4.93,-8.93 7.54,-13.63 2.59,-4.67 4.93,-8.86 7.54,-13.53 2.59,-4.65 4.93,-8.82 7.53,-13.46 2.6,-4.62 4.94,-8.77 7.54,-13.39 2.6,-4.61 4.94,-8.74 7.54,-13.34 2.6,-4.59 4.93,-8.71 7.54,-13.3 2.59,-4.57 4.93,-8.68 7.54,-13.25 2.59,-4.57 4.93,-8.67 7.53,-13.23 2.6,-4.56 4.94,-8.65 7.54,-13.21 2.6,-4.55 4.93,-8.64 7.53,-13.19 2.61,-4.55 4.94,-8.63 7.54,-13.18 2.61,-4.54 4.94,-8.62 7.54,-13.17 2.6,-4.54 4.94,-8.62 7.54,-13.16 2.6,-4.55 4.94,-8.63 7.54,-13.17 2.6,-4.55 4.93,-8.63 7.53,-13.17 2.6,-4.55 4.94,-8.64 7.54,-13.18 2.6,-4.55 4.94,-8.64 7.54,-13.19 2.6,-4.56 4.93,-8.64 7.54,-13.2 2.6,-4.56 4.93,-8.66 7.53,-13.21 2.61,-4.57 4.94,-8.67 7.54,-13.23 2.61,-4.58 4.94,-8.68 7.54,-13.26 2.6,-4.57 4.94,-8.69 7.53,-13.26 2.61,-4.59 4.95,-8.71 7.54,-13.3 2.6,-4.59 4.94,-8.72 7.54,-13.31 2.6,-4.6 4.94,-8.73 7.54,-13.34 2.6,-4.61 4.93,-8.75 7.54,-13.36 2.6,-4.62 4.93,-8.77 7.53,-13.39 2.61,-4.64 4.94,-8.79 7.54,-13.43 2.6,-4.63 4.94,-8.8 7.54,-13.44 2.6,-4.65 4.94,-8.83 7.53,-13.48 2.61,-4.66 4.95,-8.85 7.54,-13.51 2.61,-4.67 7.54,-13.54 7.54,-13.54" style="fill:none;stroke:#000000;stroke-width:7.97011;stroke-linecap:butt;stroke-linejoin:miter;stroke-miterlimit:10;stroke-dasharray:none;stroke-opacity:1" transform="matrix(0.13333333,0,0,-0.13333333,0,1122.6667)"/>
    <path id="path5" d="m 3261.45,6213.52 c 0,0 3.29,47.13 7.54,71.6 1.88,10.81 4.62,20.31 7.54,30.89 2.35,8.53 4.76,16.1 7.54,24.49 2.45,7.41 4.82,14.01 7.54,21.33 2.49,6.72 4.85,12.72 7.53,19.37 2.52,6.26 4.88,11.84 7.54,18.04 2.54,5.92 4.89,11.21 7.53,17.08 2.56,5.66 4.9,10.72 7.54,16.34 2.57,5.47 4.91,10.35 7.54,15.78 2.57,5.3 4.91,10.05 7.54,15.32 2.58,5.17 4.91,9.8 7.54,14.95 2.58,5.07 4.92,9.61 7.53,14.65 2.59,4.98 4.92,9.44 7.54,14.39 2.59,4.91 4.92,9.3 7.54,14.19 2.59,4.84 4.93,9.18 7.54,14.01 2.59,4.78 4.93,9.08 7.53,13.85 2.59,4.75 4.93,9 7.54,13.74 2.59,4.7 4.93,8.92 7.54,13.62 2.59,4.67 4.93,8.87 7.54,13.53 2.59,4.65 4.93,8.82 7.53,13.46 2.6,4.62 4.94,8.77 7.54,13.39 2.6,4.61 4.94,8.74 7.54,13.34 2.6,4.59 4.93,8.71 7.54,13.3 2.59,4.57 4.93,8.68 7.54,13.25 2.59,4.57 4.93,8.67 7.53,13.23 2.6,4.56 4.94,8.65 7.54,13.21 2.6,4.55 4.93,8.64 7.53,13.19 2.61,4.55 4.94,8.63 7.54,13.18 2.61,4.55 4.94,8.62 7.54,13.17 2.6,4.54 4.94,8.62 7.54,13.17 2.6,4.54 4.94,8.62 7.54,13.17 2.6,4.54 4.93,8.62 7.53,13.17 2.6,4.54 4.94,8.63 7.54,13.17 2.6,4.55 4.94,8.64 7.54,13.19 2.6,4.56 4.93,8.65 7.54,13.2 2.6,4.56 4.93,8.66 7.53,13.22 2.61,4.56 4.94,8.66 7.54,13.23 2.61,4.57 4.94,8.68 7.54,13.25 2.6,4.57 4.94,8.69 7.53,13.27 2.61,4.58 4.95,8.7 7.54,13.29 2.6,4.59 4.94,8.72 7.54,13.31 2.6,4.6 4.94,8.74 7.54,13.34 2.6,4.61 4.93,8.75 7.54,13.36 2.6,4.63 4.93,8.77 7.53,13.39 2.61,4.64 4.94,8.79 7.54,13.43 2.6,4.64 4.94,8.8 7.54,13.45 2.6,4.64 4.94,8.82 7.53,13.47 2.61,4.66 4.95,8.85 7.54,13.51 2.61,4.67 7.54,13.54 7.54,13.54" style="fill:none;stroke:#000000;stroke-width:7.97011;stroke-linecap:butt;stroke-linejoin:miter;stroke-miterlimit:10;stroke-dasharray:none;stroke-opacity:1" transform="matrix(0.13333333,0,0,-0.13333333,0,1122.6667)"/>
    <path id="path6" d="m 2299.35,6213.29 c 0,0 3.95,-52.53 9.81,-79.55 2.4,-11.04 5.89,-20.65 9.82,-31.24 2.98,-8.03 6.09,-15.07 9.82,-22.78 3.11,-6.42 6.18,-12.05 9.82,-18.18 3.17,-5.36 6.23,-10.05 9.81,-15.14 3.22,-4.56 6.27,-8.55 9.82,-12.87 3.25,-3.95 6.3,-7.39 9.82,-11.09 3.27,-3.44 6.32,-6.43 9.82,-9.63 3.28,-3.01 6.33,-5.61 9.81,-8.39 3.3,-2.63 6.35,-4.9 9.82,-7.31 3.32,-2.3 6.36,-4.27 9.82,-6.35 3.32,-2 6.37,-3.71 9.82,-5.5 3.33,-1.73 6.38,-3.19 9.81,-4.72 3.35,-1.48 6.39,-2.72 9.82,-4 3.35,-1.25 6.4,-2.29 9.82,-3.34 3.36,-1.04 6.4,-1.88 9.82,-2.73 3.36,-0.83 6.41,-1.49 9.81,-2.14 3.37,-0.65 6.42,-1.14 9.82,-1.6 3.38,-0.46 6.42,-0.79 9.82,-1.07 3.38,-0.29 6.42,-0.46 9.82,-0.58 3.38,-0.12 6.42,-0.15 9.81,-0.1 3.39,0.04 6.44,0.16 9.82,0.36 3.39,0.2 6.44,0.46 9.82,0.81 3.39,0.35 6.44,0.74 9.81,1.24 3.4,0.51 6.45,1.03 9.82,1.67 3.4,0.65 6.45,1.3 9.82,2.08 3.4,0.8 6.45,1.57 9.82,2.5 3.4,0.93 6.45,1.84 9.81,2.9 3.41,1.08 6.45,2.1 9.82,3.3 3.41,1.22 6.45,2.37 9.82,3.71 3.41,1.36 6.45,2.63 9.82,4.11 3.41,1.5 6.45,2.9 9.81,4.52 3.42,1.64 6.46,3.18 9.82,4.93 3.42,1.8 6.46,3.46 9.82,5.37 3.42,1.94 6.46,3.73 9.82,5.79 3.42,2.11 6.46,4.04 9.81,6.26 3.43,2.26 6.47,4.35 9.82,6.73 3.43,2.44 6.48,4.69 9.82,7.25 3.43,2.63 6.48,5.04 9.82,7.79 3.44,2.84 6.48,5.44 9.81,8.4 3.45,3.06 6.5,5.87 9.82,9.07 3.46,3.32 6.51,6.36 9.82,9.83 3.46,3.63 6.52,6.94 9.82,10.73 3.48,3.99 6.54,7.65 9.81,11.82 3.51,4.47 6.58,8.55 9.82,13.22 3.55,5.11 6.64,9.78 9.82,15.13 3.62,6.1 6.76,11.66 9.82,18.07 3.8,7.97 7.36,15.16 9.81,23.64 5.57,19.22 9.82,57.19 9.82,57.19" style="fill:none;stroke:#000000;stroke-width:7.97011;stroke-linecap:butt;stroke-linejoin:miter;stroke-miterlimit:10;stroke-dasharray:none;stroke-opacity:1" transform="matrix(0.13333333,0,0,-0.13333333,0,1122.6667)"/>
    <path id="path7" d="m 2299.35,6213.52 c 0,0 3.95,52.53 9.81,79.55 2.4,11.04 5.89,20.64 9.82,31.23 2.98,8.03 6.09,15.08 9.82,22.78 3.11,6.42 6.18,12.05 9.82,18.19 3.17,5.35 6.23,10.04 9.81,15.13 3.22,4.56 6.27,8.56 9.82,12.87 3.25,3.95 6.3,7.39 9.82,11.09 3.27,3.44 6.32,6.43 9.82,9.63 3.28,3.01 6.33,5.61 9.81,8.39 3.3,2.63 6.35,4.9 9.82,7.31 3.32,2.3 6.36,4.27 9.82,6.35 3.32,2 6.37,3.71 9.82,5.5 3.33,1.73 6.38,3.19 9.81,4.72 3.35,1.48 6.39,2.72 9.82,4 3.35,1.26 6.4,2.29 9.82,3.35 3.36,1.03 6.4,1.87 9.82,2.72 3.36,0.83 6.41,1.49 9.81,2.15 3.37,0.64 6.42,1.13 9.82,1.59 3.38,0.46 6.42,0.79 9.82,1.07 3.38,0.29 6.42,0.47 9.82,0.58 3.38,0.12 6.42,0.15 9.81,0.1 3.39,-0.04 6.44,-0.16 9.82,-0.36 3.39,-0.2 6.44,-0.46 9.82,-0.81 3.39,-0.35 6.44,-0.74 9.81,-1.24 3.4,-0.51 6.45,-1.03 9.82,-1.67 3.4,-0.65 6.45,-1.3 9.82,-2.08 3.4,-0.8 6.45,-1.57 9.82,-2.5 3.4,-0.93 6.45,-1.84 9.81,-2.9 3.41,-1.08 6.45,-2.1 9.82,-3.3 3.41,-1.22 6.45,-2.37 9.82,-3.71 3.41,-1.36 6.45,-2.63 9.82,-4.11 3.41,-1.5 6.45,-2.9 9.81,-4.52 3.42,-1.64 6.46,-3.17 9.82,-4.93 3.42,-1.8 6.46,-3.46 9.82,-5.36 3.42,-1.95 6.46,-3.74 9.82,-5.8 3.42,-2.1 6.46,-4.04 9.81,-6.26 3.43,-2.26 6.47,-4.35 9.82,-6.73 3.43,-2.44 6.48,-4.69 9.82,-7.25 3.43,-2.63 6.48,-5.04 9.82,-7.79 3.44,-2.84 6.48,-5.44 9.81,-8.4 3.45,-3.06 6.5,-5.87 9.82,-9.06 3.46,-3.33 6.51,-6.37 9.82,-9.84 3.46,-3.62 6.52,-6.94 9.82,-10.73 3.48,-3.99 6.54,-7.65 9.81,-11.82 3.51,-4.47 6.58,-8.55 9.82,-13.22 3.55,-5.11 6.64,-9.78 9.82,-15.13 3.62,-6.1 6.76,-11.66 9.82,-18.07 3.8,-7.96 7.36,-15.16 9.81,-23.64 5.57,-19.22 9.82,-57.19 9.82,-57.19" style="fill:none;stroke:#000000;stroke-width:7.97011;stroke-linecap:butt;stroke-linejoin:miter;stroke-miterlimit:10;stroke-dasharray:none;stroke-opacity:1" transform="matrix(0.13333333,0,0,-0.13333333,0,1122.6667)"/>
    <path id="path8" d="m 2202.13,7059.18 c 0,0 18.9,-57.63 29.16,-87.89 9.87,-29.1 18.89,-55.18 29.16,-84.13 9.86,-27.81 18.87,-52.71 29.15,-80.37 9.86,-26.51 18.87,-50.25 29.16,-76.6 9.85,-25.22 18.86,-47.8 29.15,-72.84 9.84,-23.93 18.86,-45.35 29.16,-69.08 9.83,-22.64 18.84,-42.89 29.16,-65.31 9.82,-21.36 18.83,-40.44 29.15,-61.56 9.82,-20.06 18.82,-37.99 29.16,-57.79 9.8,-18.78 18.81,-35.54 29.16,-54.02 9.79,-17.5 18.8,-33.1 29.15,-50.27 9.79,-16.21 18.79,-30.65 29.16,-46.5 9.78,-14.94 18.78,-28.21 29.15,-42.74 9.77,-13.67 18.77,-25.78 29.16,-38.97 9.76,-12.4 18.76,-23.35 29.16,-35.22 9.75,-11.13 18.75,-20.92 29.15,-31.45 9.76,-9.87 18.76,-18.5 29.16,-27.69 9.76,-8.61 18.76,-16.09 29.16,-23.92 9.76,-7.37 18.78,-13.68 29.15,-20.17 9.79,-6.11 18.82,-11.26 29.16,-16.39 9.82,-4.88 18.86,-8.86 29.15,-12.64 9.88,-3.63 18.93,-6.43 29.16,-8.88 9.93,-2.37 19.01,-3.99 29.16,-5.11 10.01,-1.1 19.09,-1.53 29.15,-1.35 10.1,0.19 19.17,0.95 29.16,2.42 10.17,1.49 19.24,3.44 29.16,6.17 10.25,2.82 19.3,5.96 29.15,9.94 10.31,4.16 19.35,8.48 29.16,13.7 10.35,5.52 19.38,11 29.15,17.46 10.38,6.87 19.4,13.52 29.16,21.23 10.4,8.22 19.41,16.02 29.16,24.99 10.4,9.57 19.4,18.53 29.16,28.75 10.4,10.91 19.4,21.03 29.15,32.52 10.4,12.24 19.4,23.52 29.16,36.28 10.39,13.57 19.39,26.01 29.16,40.04 10.37,14.9 19.37,28.5 29.15,43.8 10.36,16.22 19.37,30.98 29.16,47.57 10.35,17.54 19.36,33.46 29.15,51.32 10.35,18.86 19.35,35.95 29.16,55.09 10.33,20.18 19.34,38.43 29.16,58.86 10.32,21.48 19.33,40.9 29.15,62.61 10.31,22.8 19.32,43.38 29.16,66.38 10.3,24.11 19.31,45.85 29.16,70.14 10.29,25.42 19.3,48.32 29.15,73.91 10.28,26.72 19.3,50.79 29.16,77.67 10.27,28.02 19.29,53.25 29.15,81.43 10.27,29.32 19.29,55.72 29.16,85.19 10.26,30.63 19.28,58.2 29.16,88.95 10.25,31.94 29.15,92.72 29.15,92.72" style="fill:none;stroke:#000000;stroke-width:7.97011;stroke-linecap:butt;stroke-linejoin:miter;stroke-miterlimit:10;stroke-dasharray:none;stroke-opacity:1" transform="matrix(0.13333333,0,0,-0.13333333,0,1122.6667)"/>
    <path id="path9" d="M 3460.71,7063.79 V 5431.04" style="fill:none;stroke:#000000;stroke-width:7.97011;stroke-linecap:butt;stroke-linejoin:miter;stroke-miterlimit:10;stroke-dasharray:49.4774, 49.4774;stroke-dashoffset:0;stroke-opacity:1" transform="matrix(0.13333333,0,0,-0.13333333,0,1122.6667)"/>
    <g id="g9" aria-label="˜&#10;ℓ" transform="matrix(1.3333333,0,0,1.3333333,282.30667,188.564)">
      <path id="path10" d="m 4.7006641,-7.9347187 c -0.3515625,0.3398437 -0.5976563,0.5859375 -0.984375,0.5859375 -0.1757813,0 -0.3398438,-0.035156 -0.7148438,-0.2929688 -0.234375,-0.140625 -0.4804687,-0.2929687 -0.75,-0.2929687 -0.4453125,0 -0.703125,0.2929687 -1.26562499,0.9140625 L 1.1498828,-6.844875 c 0.3515625,-0.3515625 0.5976563,-0.5859375 0.984375,-0.5859375 0.1757813,0 0.3398438,0.035156 0.7148438,0.28125 0.234375,0.140625 0.4804687,0.3046875 0.75,0.3046875 0.4453125,0 0.703125,-0.3046875 1.265625,-0.9257812 z m 0,0" style="fill:#000000;fill-opacity:1;fill-rule:nonzero;stroke:none"/>
      <path id="path11" d="m 0.38230469,1.0916484 c -0.75,0.7382813 -0.94921875,0.9140625 -0.94921875,0.9609375 0,0.046875 0.046875,0.1289063 0.12890625,0.1289063 0.0703125,0 0.75,-0.65625 0.84375,-0.7617188 0.0703125,0.796875 0.375,1.8398438 1.30078121,1.8398438 0.4804688,0 0.9140625,-0.2929688 1.1015625,-0.4453125 0.1523438,-0.1171875 0.7265625,-0.609375 0.7265625,-0.7148438 0,-0.058594 -0.058594,-0.1289062 -0.1171875,-0.1289062 -0.046875,0 -0.2226562,0.1757812 -0.28125,0.2226562 -0.4101562,0.4101563 -0.9375,0.8320313 -1.4179687,0.8320313 -0.6445313,0 -0.72656251,-0.9375 -0.72656251,-1.5820313 0,-0.1171875 0,-0.62109371 0.0820312,-0.71484371 0.703125,-0.7265625 2.9179688,-3.01171879 2.9179688,-5.13281249 0,-0.46875 -0.1757813,-0.890625 -0.6914063,-0.890625 -1.1132812,0 -2.0859375,2.4609375 -2.25,2.9179687 -0.046875,0.1171875 -0.73828122,1.95703129 -0.66796871,3.46875 z M 1.0971484,0.34164844 c 0.011719,-0.0703125 0.5507813,-3.19921874 1.5585938,-4.87500004 0.1992187,-0.3164062 0.3984375,-0.5273437 0.6445312,-0.5273437 0.3984375,0 0.421875,0.3867187 0.421875,0.6445312 0,0.421875 -0.1171875,1.5 -1.1484375,3 -0.3164062,0.44531254 -0.796875,1.04296879 -1.4765625,1.75781254 z m 0,0" style="fill:#000000;fill-opacity:1;fill-rule:nonzero;stroke:none"/>
    </g>
    <path id="path12" d="m 5.2982656,-2.989 c 0,-1.2773437 -1.0546875,-2.3203125 -2.3085937,-2.3203125 -1.3007813,0 -2.32031252,1.0664063 -2.32031252,2.3203125 0,1.2773438 1.05468752,2.3203125 2.30859372,2.3203125 1.3007813,0 2.3203125,-1.0664062 2.3203125,-2.3203125 z m 0,0" style="fill:#ff0000;fill-opacity:1;fill-rule:nonzero;stroke:none" aria-label="•" transform="matrix(1.3333333,0,0,1.3333333,321.36533,265.98533)"/>
    <g id="g12" aria-label="˜&#10;P&#10;1" transform="matrix(1.3333333,0,0,1.3333333,325.26133,250.93867)">
      <path id="path13" d="m 4.6995078,-7.9344687 c -0.3515625,0.3398437 -0.5976562,0.5859375 -0.984375,0.5859375 -0.1757812,0 -0.3398437,-0.035156 -0.7148437,-0.2929688 -0.234375,-0.140625 -0.4804688,-0.2929687 -0.75,-0.2929687 -0.4453125,0 -0.703125,0.2929687 -1.26562504,0.9140625 L 1.1487266,-6.844625 c 0.3515625,-0.3515625 0.5976562,-0.5859375 0.984375,-0.5859375 0.1757812,0 0.3398437,0.035156 0.7148437,0.28125 0.234375,0.140625 0.4804688,0.3046875 0.75,0.3046875 0.4453125,0 0.703125,-0.3046875 1.265625,-0.9257812 z m 0,0" style="fill:#000000;fill-opacity:1;fill-rule:nonzero;stroke:none"/>
      <path id="path14" d="M 0.89970313,-0.79775 H 2.9036094 c 1.6523437,0 3.3046875,-1.21875 3.3046875,-2.5898437 0,-0.9257813 -0.796875,-1.78125 -2.296875,-1.78125 H 0.22001563 c -0.234375,0 -0.33984375,0 -0.33984375,0.234375 0,0.1171875 0.10546875,0.1171875 0.29296875,0.1171875 0.7265625,0 0.7265625,0.09375 0.7265625,0.2226562 0,0.023437 0,0.09375 -0.046875,0.28125 l -1.6171875,6.4335938 c -0.10546875,0.4101562 -0.12890625,0.5273437 -0.96093753,0.5273437 -0.234375,0 -0.3515625,0 -0.3515625,0.2226563 0,0.1289062 0.1054688,0.1289062 0.1757813,0.1289062 0.234375,0 0.46875,-0.023437 0.6914062,-0.023437 h 1.40625003 c 0.22265625,0 0.48046875,0.023437 0.703125,0.023437 0.09375,0 0.22265627,0 0.22265627,-0.2226562 0,-0.1289063 -0.1054688,-0.1289063 -0.28125002,-0.1289063 -0.71484375,0 -0.7265625,-0.082031 -0.7265625,-0.1992187 0,-0.058594 0.0117187,-0.140625 0.0234375,-0.1992188 z M 1.7551719,-4.3485312 c 0.1171875,-0.4453125 0.1640625,-0.46875 0.6210937,-0.46875 h 1.1835938 c 0.9023437,0 1.640625,0.28125 1.640625,1.1835937 0,0.3046875 -0.1523438,1.3242188 -0.703125,1.875 C 4.2981406,-1.54775 3.7239219,-1.0907187 2.6340781,-1.0907187 H 0.94657813 Z m 0,0" style="fill:#000000;fill-opacity:1;fill-rule:nonzero;stroke:none"/>
      <path id="path15" d="m 7.4270469,-0.27333594 c 0,-0.22265625 -0.023437,-0.22265625 -0.234375,-0.22265625 -0.328125,0.31640625 -0.75,0.50390625 -1.5117188,0.50390625 v 0.26953125 c 0.2226563,0 0.6445313,0 1.1132813,-0.22265625 V 4.1446328 c 0,0.2929688 -0.023437,0.3984375 -0.7851563,0.3984375 h -0.28125 v 0.2578125 c 0.328125,-0.023437 1.0195313,-0.023437 1.3710938,-0.023437 0.3632812,0 1.0546875,0 1.3828125,0.023437 V 4.5430703 h -0.28125 c -0.75,0 -0.7734375,-0.1054687 -0.7734375,-0.3984375 z m 0,0" style="fill:#000000;fill-opacity:1;fill-rule:nonzero;stroke:none"/>
    </g>
    <path id="path16" d="m 5.2962031,-2.98925 c 0,-1.2773437 -1.0546875,-2.3203125 -2.3085937,-2.3203125 -1.3007813,0 -2.32031252,1.0664063 -2.32031252,2.3203125 0,1.2773438 1.05468752,2.3203125 2.30859372,2.3203125 1.3007813,0 2.3203125,-1.0664062 2.3203125,-2.3203125 z m 0,0" style="fill:#ff0000;fill-opacity:1;fill-rule:nonzero;stroke:none" aria-label="•" transform="matrix(1.3333333,0,0,1.3333333,357.64933,317.61067)"/>
    <g id="g16" aria-label="˜&#10;P&#10;2" transform="matrix(1.3333333,0,0,1.3333333,357.00933,329.776)">
      <path id="path17" d="m 4.6980781,-7.9325859 c -0.3515625,0.3398437 -0.5976562,0.5859375 -0.984375,0.5859375 -0.1757812,0 -0.3398437,-0.035156 -0.7148437,-0.2929688 -0.234375,-0.140625 -0.4804688,-0.2929687 -0.75,-0.2929687 -0.4453125,0 -0.703125,0.2929687 -1.26562502,0.9140625 l 0.16406252,0.1757812 c 0.3515625,-0.3515625 0.5976562,-0.5859375 0.984375,-0.5859375 0.1757812,0 0.3398437,0.035156 0.7148437,0.28125 0.234375,0.140625 0.4804688,0.3046875 0.75,0.3046875 0.4453125,0 0.703125,-0.3046875 1.265625,-0.9257812 z m 0,0" style="fill:#000000;fill-opacity:1;fill-rule:nonzero;stroke:none"/>
      <path id="path18" d="M 0.89827344,-0.79586719 H 2.9021797 c 1.6523437,0 3.3046875,-1.21875001 3.3046875,-2.58984371 0,-0.9257813 -0.796875,-1.78125 -2.296875,-1.78125 H 0.21858594 c -0.234375,0 -0.33984375,0 -0.33984375,0.234375 0,0.1171875 0.10546875,0.1171875 0.29296875,0.1171875 0.7265625,0 0.7265625,0.09375 0.7265625,0.2226562 0,0.023437 0,0.09375 -0.046875,0.28125 l -1.6171875,6.4335938 c -0.10546875,0.4101562 -0.12890625,0.5273437 -0.96093754,0.5273437 -0.234375,0 -0.3515625,0 -0.3515625,0.2226563 0,0.1289062 0.1054688,0.1289062 0.1757813,0.1289062 0.234375,0 0.46875,-0.023437 0.6914062,-0.023437 h 1.40625004 c 0.22265625,0 0.48046875,0.023437 0.703125,0.023437 0.09375,0 0.22265626,0 0.22265626,-0.2226562 0,-0.1289063 -0.1054688,-0.1289063 -0.28125001,-0.1289063 -0.71484375,0 -0.7265625,-0.082031 -0.7265625,-0.1992187 0,-0.058594 0.0117188,-0.140625 0.0234375,-0.1992188 z M 1.7537422,-4.3466484 c 0.1171875,-0.4453125 0.1640625,-0.46875 0.6210937,-0.46875 h 1.1835938 c 0.9023437,0 1.640625,0.28125 1.640625,1.1835937 0,0.3046875 -0.1523438,1.3242188 -0.703125,1.875 -0.1992188,0.2109375 -0.7734375,0.6679688 -1.8632813,0.6679688 H 0.94514844 Z m 0,0" style="fill:#000000;fill-opacity:1;fill-rule:nonzero;stroke:none"/>
      <path id="path19" d="m 7.1707344,3.1709297 c 0.1289062,-0.1171875 0.4570312,-0.375 0.5859375,-0.4921875 0.4921875,-0.4570313 0.9609375,-0.890625 0.9609375,-1.6171875 0,-0.94921876 -0.796875,-1.55859376 -1.7929688,-1.55859376 -0.9492187,0 -1.5820312,0.7265625 -1.5820312,1.4296875 0,0.39843746 0.3164062,0.44531246 0.421875,0.44531246 0.1640625,0 0.4101562,-0.1171875 0.4101562,-0.42187496 0,-0.41015625 -0.3984375,-0.41015625 -0.4921875,-0.41015625 0.234375,-0.5859375 0.7734375,-0.78515625 1.1601563,-0.78515625 0.7382812,0 1.125,0.6328125 1.125,1.30078126 0,0.8320312 -0.5859375,1.4296875 -1.5234375,2.4023437 l -1.0078125,1.03125 c -0.09375,0.09375 -0.09375,0.1054688 -0.09375,0.3046875 H 8.4949531 L 8.7176094,3.3701484 H 8.4715156 c -0.023437,0.1640625 -0.082031,0.5625 -0.1757812,0.7148438 -0.046875,0.058594 -0.65625,0.058594 -0.7851563,0.058594 H 6.0926094 Z m 0,0" style="fill:#000000;fill-opacity:1;fill-rule:nonzero;stroke:none"/>
    </g>
    <path id="path20" d="m 5.2974453,-2.9885781 c 0,-1.2773438 -1.0546875,-2.3203125 -2.3085937,-2.3203125 -1.3007813,0 -2.32031254,1.0664062 -2.32031254,2.3203125 0,1.2773437 1.05468754,2.32031248 2.30859374,2.32031248 1.3007813,0 2.3203125,-1.06640628 2.3203125,-2.32031248 z m 0,0" style="fill:#ff0000;fill-opacity:1;fill-rule:nonzero;stroke:none" aria-label="•" transform="matrix(1.3333333,0,0,1.3333333,432.24533,286.46133)"/>
    <g id="g20" aria-label="˜&#10;P&#10;3" transform="matrix(1.3333333,0,0,1.3333333,417.99867,283.208)">
      <path id="path21" d="m 4.7002188,-7.9343203 c -0.3515625,0.3398437 -0.5976563,0.5859375 -0.984375,0.5859375 -0.1757813,0 -0.3398438,-0.035156 -0.7148438,-0.2929688 -0.234375,-0.140625 -0.4804687,-0.2929687 -0.75,-0.2929687 -0.4453125,0 -0.703125,0.2929687 -1.265625,0.9140625 l 0.1640625,0.1757812 C 1.501,-7.1960391 1.7470938,-7.4304141 2.1338125,-7.4304141 c 0.1757813,0 0.3398438,0.035156 0.7148438,0.28125 0.234375,0.140625 0.4804687,0.3046875 0.75,0.3046875 0.4453125,0 0.703125,-0.3046875 1.265625,-0.9257812 z m 0,0" style="fill:#000000;fill-opacity:1;fill-rule:nonzero;stroke:none"/>
      <path id="path22" d="M 0.89748438,-0.79760156 H 2.9013906 c 1.6523438,0 3.3046875,-1.21875004 3.3046875,-2.58984374 0,-0.9257813 -0.796875,-1.78125 -2.296875,-1.78125 H 0.21779688 c -0.234375,0 -0.33984375,0 -0.33984375,0.234375 0,0.1171875 0.10546875,0.1171875 0.29296875,0.1171875 0.7265625,0 0.7265625,0.09375 0.7265625,0.2226562 0,0.023437 0,0.09375 -0.046875,0.28125 l -1.6171875,6.4335938 c -0.10546875,0.4101562 -0.12890625,0.5273437 -0.96093748,0.5273437 -0.234375,0 -0.3515625,0 -0.3515625,0.2226563 0,0.1289062 0.1054687,0.1289062 0.1757812,0.1289062 0.234375,0 0.46875,-0.023437 0.6914063,-0.023437 h 1.40624998 c 0.22265625,0 0.48046875,0.023437 0.703125,0.023437 0.09375,0 0.22265622,0 0.22265622,-0.2226562 0,-0.1289063 -0.1054687,-0.1289063 -0.28124997,-0.1289063 -0.71484375,0 -0.7265625,-0.082031 -0.7265625,-0.1992187 0,-0.058594 0.0117188,-0.140625 0.0234375,-0.1992188 z M 1.7529531,-4.3483828 c 0.1171875,-0.4453125 0.1640625,-0.46875 0.6210938,-0.46875 h 1.1835937 c 0.9023438,0 1.640625,0.28125 1.640625,1.1835937 0,0.3046875 -0.1523437,1.3242188 -0.703125,1.875 -0.1992187,0.2109375 -0.7734375,0.6679688 -1.8632812,0.6679688 H 0.94435938 Z m 0,0" style="fill:#000000;fill-opacity:1;fill-rule:nonzero;stroke:none"/>
      <path id="path23" d="m 6.9355703,2.140875 c 0.6328125,0 1.03125,0.4570313 1.03125,1.3007813 0,0.9960937 -0.5742187,1.2890625 -0.9960937,1.2890625 -0.4335938,0 -1.03125,-0.1640625 -1.3125,-0.5859375 0.2929687,0 0.4921875,-0.1757813 0.4921875,-0.4453125 0,-0.2578125 -0.1875,-0.4335938 -0.4453125,-0.4335938 -0.2109375,0 -0.4335938,0.1289063 -0.4335938,0.4570313 0,0.75 0.8085938,1.2421875 1.7226563,1.2421875 1.0546875,0 1.7929687,-0.7265625 1.7929687,-1.5234375 0,-0.6679688 -0.515625,-1.265625 -1.3359375,-1.4414063 C 8.0840078,1.7775938 8.5527578,1.2268125 8.5527578,0.594 c 0,-0.6328125 -0.7148437,-1.08984375 -1.546875,-1.08984375 -0.8554687,0 -1.5,0.45703125 -1.5,1.06640625 0,0.29296875 0.1992188,0.421875 0.4101563,0.421875 0.2460937,0 0.4101562,-0.17578125 0.4101562,-0.41015625 0,-0.29296875 -0.2578125,-0.3984375 -0.4335937,-0.41015625 0.3398437,-0.43359375 0.9492187,-0.46875 1.0898437,-0.46875 0.2109375,0 0.8085938,0.0703125 0.8085938,0.890625 0,0.5625 -0.2226563,0.890625 -0.3398438,1.0195313 C 7.2168203,1.859625 7.0293203,1.8713438 6.5488516,1.9065 6.3965078,1.9182188 6.3261953,1.9299375 6.3261953,2.0236875 c 0,0.1171875 0.070312,0.1171875 0.2109375,0.1171875 z m 0,0" style="fill:#000000;fill-opacity:1;fill-rule:nonzero;stroke:none"/>
    </g>
    <path id="path24" d="m 5.2981406,-2.9875703 c 0,-1.2773438 -1.0546875,-2.3203125 -2.3085937,-2.3203125 -1.3007813,0 -2.32031252,1.0664062 -2.32031252,2.3203125 0,1.2773437 1.05468752,2.32031249 2.30859372,2.32031249 1.3007813,0 2.3203125,-1.06640629 2.3203125,-2.32031249 z m 0,0" style="fill:#ff0000;fill-opacity:1;fill-rule:nonzero;stroke:none" aria-label="•" transform="matrix(1.3333333,0,0,1.3333333,457.428,234.23733)"/>
    <path id="path25" d="m 5.0983281,-0.07088281 c 2.0507813,-0.83203125 3.5859375,-2.99999999 3.5859375,-5.16796879 0,-1.96875 -1.3007812,-3.1757812 -2.9648437,-3.1757812 -2.5664063,0 -5.14453127,2.7539062 -5.14453127,5.5078125 0,1.875 1.24218747,3.15234374 2.97656247,3.15234374 0.4101563,0 0.796875,-0.0585938 1.1835938,-0.17578125 -0.070312,0.71484375 -0.070312,0.7734375 -0.070312,1.00781251 0,0.3398437 0,1.2421875 0.9492187,1.2421875 1.4296875,0 1.9570313,-2.23828126 1.9570313,-2.30859376 0,-0.0703125 -0.046875,-0.1171875 -0.1171875,-0.1171875 -0.070312,0 -0.09375,0.05859375 -0.1289063,0.1875 -0.2578125,0.75 -0.8789062,1.18359376 -1.40625,1.18359376 -0.609375,0 -0.7617187,-0.42187501 -0.820313,-1.33593751 z m -2.15625,-0.05859375 C 1.9928594,-0.45760156 1.5475469,-1.4419766 1.5475469,-2.5435391 c 0,-0.84375 0.3046875,-2.4257812 1.0898437,-3.6328125 0.890625,-1.3710937 2.0742188,-1.9804687 3,-1.9804687 1.2539063,0 2.0859375,1.0078125 2.0859375,2.5664062 0,0.8789063 -0.421875,3.84375 -2.671875,5.15625004 C 4.9928594,-1.0435391 4.8287969,-1.7583828 4.0436406,-1.7583828 c -0.6445312,0 -1.1953125,0.6445312 -1.1953125,1.23046874 0,0.12890625 0.046875,0.31640625 0.09375,0.3984375 z m 1.8164063,-0.140625 c -0.4335938,0.1875 -0.796875,0.2578125 -1.1367188,0.2578125 -0.1171875,0 -0.5390625,0 -0.5390625,-0.52734375 0,-0.43359375 0.421875,-0.98437499 0.9609375,-0.98437499 0.5976563,0 0.7265625,0.4101562 0.7265625,1.00781249 0,0.0703125 0,0.1640625 -0.011719,0.24609375 z m 0,0" style="fill:#000000;fill-opacity:1;fill-rule:nonzero;stroke:none" aria-label="Q" transform="matrix(1.3333333,0,0,1.3333333,443.85067,227.75467)"/>
    <path id="path26" d="m 5.2981406,-2.9874297 c 0,-1.2773437 -1.0546875,-2.3203125 -2.3085937,-2.3203125 -1.3007813,0 -2.32031252,1.0664063 -2.32031252,2.3203125 0,1.2773438 1.05468752,2.32031251 2.30859372,2.32031251 1.3007813,0 2.3203125,-1.06640621 2.3203125,-2.32031251 z m 0,0" style="fill:#ff0000;fill-opacity:1;fill-rule:nonzero;stroke:none" aria-label="•" transform="matrix(1.3333333,0,0,1.3333333,457.428,361.22933)"/>
    <g id="g26" aria-label="R&#10;˜v&#10;Figure3.4:Reducing&#10;˜&#10;Dto(R)−(O)inPic&#10;0&#10;(E).&#10;reducedtotheequivalentdivisor(R)−(O)∼DinPic&#10;0&#10;(E)whichhassize1.&#10;Theaboveexampleillustratesakeyconsequenceofoneofthemostcentral&#10;theoremsinourstudy:theRiemann-Rochtheorem.Topresentthetheoreminits&#10;generalityrequiresafewmoredefnitionsthanweneedforourexposition,sofor&#10;thefullstorywereferthereadertoanyof[Ful08,§8],[Sil09,§II.5],[Gal12,§8.7].&#10;Theimportantcorollaryweuseisthefollowing:foranycurveC,thereisaunique&#10;minimalintegerg,calledthegenusofC,suchthatanydivisorD∈Pic&#10;0&#10;(C)is&#10;equivalenttoadivisorD&#10;′&#10;withDeg(ǫ(D&#10;′&#10;))≤g.EllipticcurvesEarecurvesof&#10;genusg=1,meaningthateveryD∈Pic&#10;0&#10;(E)canbewrittenas(P&#10;1&#10;)−(Q&#10;1&#10;);&#10;thisiswhywewereabletoreducethedivisorinExample3.2.1to(R)−(O).&#10;Wewillonlybedealingwithellipticcurvesinthistext,sincetheyhaveproved&#10;mostsuccessfulinthecontextofpairings,butfornowitaidsone’sunderstanding&#10;toseewhereellipticcurvesftinaslightlybroadercontext.Assuminganodd&#10;characteristicfeld,ageneral(“imaginaryquadratic”)hyperellipticcurveofgenus&#10;gisageneralisationofanellipticcurve,whichcanbewrittenas&#10;C&#10;g&#10;:y&#10;2&#10;=x&#10;2g+1&#10;+f&#10;2g&#10;x&#10;2g&#10;+...+f&#10;1&#10;x+f&#10;0&#10;.(3.3)&#10;EachdivisorD∈Pic&#10;0&#10;(C&#10;g&#10;)hasauniquereducedrepresentativeoftheform&#10;(P&#10;1&#10;)+(P&#10;2&#10;)+...+(P&#10;n&#10;)−n(O),&#10;wheren≤g,P&#10;i&#10;6=−P&#10;j&#10;foralli6=j,andnoP&#10;i&#10;satisfyingP&#10;i&#10;=−P&#10;i&#10;appearsmore&#10;thanonce[BBC&#10;+&#10;09,§2.3].Thefollowingexamplesillustratethisinthecaseof" transform="matrix(1.3333333,0,0,1.3333333,444.00933,369.952)">
      <path id="path27" d="m 4.3933906,-7.3468125 c 0.1171875,-0.4453125 0.1640625,-0.46875 0.6210938,-0.46875 h 0.8671875 c 1.03125,0 1.7929687,0.3046875 1.7929687,1.2421875 0,0.609375 -0.3164062,2.3671875 -2.71875,2.3671875 H 3.6082344 Z m 1.6640625,3.28125 c 1.4882813,-0.3164062 2.6484375,-1.2773437 2.6484375,-2.3085937 0,-0.9257813 -0.9492187,-1.7929688 -2.6132812,-1.7929688 h -3.234375 c -0.2460938,0 -0.3515625,0 -0.3515625,0.234375 0,0.1171875 0.082031,0.1171875 0.3164062,0.1171875 0.7148438,0 0.7148438,0.09375 0.7148438,0.2226563 0,0.023437 0,0.09375 -0.046875,0.28125 l -1.6171875,6.4335937 c -0.1054688,0.41015625 -0.1289063,0.52734375 -0.94921877,0.52734375 -0.28125,0 -0.36328125,0 -0.36328125,0.234375 0,0.1171875 0.12890625,0.1171875 0.1640625,0.1171875 0.22265625,0 0.46875002,-0.0234375 0.69140622,-0.0234375 h 1.4179688 c 0.2109375,0 0.46875,0.0234375 0.6796875,0.0234375 0.09375,0 0.2226562,0 0.2226562,-0.22265625 0,-0.12890625 -0.1054687,-0.12890625 -0.28125,-0.12890625 -0.7265625,0 -0.7265625,-0.09375 -0.7265625,-0.2109375 0,-0.0117188 0,-0.09375 0.023437,-0.1875 l 0.796875,-3.22265625 h 1.4296875 c 1.1367188,0 1.359375,0.7265625 1.359375,1.1132813 0,0.1875 -0.1289062,0.6445312 -0.2109375,0.9609375 -0.1289062,0.5507812 -0.1640625,0.6796875 -0.1640625,0.9023437 0,0.85546875 0.6914063,1.2421875 1.4882813,1.2421875 0.9726562,0 1.3945312,-1.18359375 1.3945312,-1.3476562 0,-0.082031 -0.058594,-0.1171875 -0.1289062,-0.1171875 -0.1054688,0 -0.1289063,0.070312 -0.1523438,0.1640625 -0.28125,0.8554687 -0.7734375,1.0664062 -1.0664062,1.0664062 -0.3046875,0 -0.4921875,-0.12890625 -0.4921875,-0.66796875 0,-0.29296875 0.140625,-1.37109375 0.1523437,-1.44140625 0.058594,-0.4335937 0.058594,-0.4804687 0.058594,-0.5742187 0,-0.8789063 -0.703125,-1.2539063 -1.160156,-1.3945313 z m 0,0" style="fill:#000000;fill-opacity:1;fill-rule:nonzero;stroke:none"/>
      <path id="path28" d="m 15.121906,-152.62123 c -0.351562,0.33985 -0.597656,0.58594 -0.984375,0.58594 -0.175781,0 -0.339843,-0.0352 -0.714843,-0.29297 -0.234375,-0.14062 -0.480469,-0.29297 -0.75,-0.29297 -0.445313,0 -0.703125,0.29297 -1.265625,0.91407 l 0.164062,0.17578 c 0.351563,-0.35157 0.597656,-0.58594 0.984375,-0.58594 0.175781,0 0.339844,0.0352 0.714844,0.28125 0.234375,0.14062 0.480469,0.30469 0.75,0.30469 0.445312,0 0.703125,-0.30469 1.265625,-0.92578 z m 0,0" style="fill:#000000;fill-opacity:1;fill-rule:nonzero;stroke:none"/>
      <path id="path29" d="m 15.523273,-149.15248 c 0,-0.76172 -0.375,-0.80859 -0.480468,-0.80859 -0.28125,0 -0.550782,0.29297 -0.550782,0.52734 0,0.14063 0.09375,0.22266 0.140625,0.28125 0.117188,0.10547 0.421875,0.42188 0.421875,1.04297 0,0.50391 -0.714843,3.30469 -2.144531,3.30469 -0.726562,0 -0.878906,-0.60938 -0.878906,-1.05469 0,-0.59765 0.28125,-1.42969 0.597656,-2.29687 0.199219,-0.49219 0.246094,-0.60938 0.246094,-0.84375 0,-0.50391 -0.363281,-0.96094 -0.949219,-0.96094 -1.101562,0 -1.535156,1.73437 -1.535156,1.82812 0,0.0469 0.04687,0.10547 0.128906,0.10547 0.105469,0 0.117188,-0.0469 0.164063,-0.21093 0.292968,-1.03125 0.75,-1.47657 1.207031,-1.47657 0.105469,0 0.316406,0 0.316406,0.38672 0,0.31641 -0.140625,0.65625 -0.316406,1.11328 -0.574219,1.53516 -0.574219,1.89844 -0.574219,2.19141 0,0.25781 0.03516,0.75 0.410156,1.08984 0.433594,0.36328 1.03125,0.36328 1.136719,0.36328 1.980469,0 2.660156,-3.90234 2.660156,-4.58203 z m 0,0" style="fill:#000000;fill-opacity:1;fill-rule:nonzero;stroke:none"/>
      
      
      
      
      
      
      
      
      
      
      
      
      
      
      
      
      
      
      
      
      
      
      
      
      
      
      
      
      
      
      
      
      
      
      
      
      
      
      
      
      
      
      
      
      
      
      
      
      
      
      
      
      
      
      
      
      
      
      
      
      
      
      
      
      
      
      
      
      
      
      
      
      
      
      
      
      
      
      
      
      
      
      
      
      
      
      
      
      
      
      
      
      
      
      
      
      
      
      
      
      
      
      
      
      
      
      
      
      
      
      
      
      
      
      
      
      
      
      
      
      
      
      
      
      
      
      
      
      
      
      
      
      
      
      
      
      
      
      
      
      
      
      
      
      
      
      
      
      
      
      
      
      
      
      
      
      
      
      
      
      
      
      
      
      
      
      
      
      
      
      
      
      
      
      
      
    </g>
  </g>
</svg>