<svg version="1.1" id="svg1" width="237.0015489744549" height="211.0019640473208" viewBox="166.00108493569414 155.50144743771745 237.0015489744549 211.0019640473208" sodipodi:docname="ch3.pdf" xmlns:inkscape="http://www.inkscape.org/namespaces/inkscape" xmlns:sodipodi="http://sodipodi.sourceforge.net/DTD/sodipodi-0.dtd" xmlns="http://www.w3.org/2000/svg" xmlns:svg="http://www.w3.org/2000/svg" style="">
  <defs id="defs1"/>
  <sodipodi:namedview id="namedview1" pagecolor="#ffffff" bordercolor="#000000" borderopacity="0.25" inkscape:showpageshadow="2" inkscape:pageopacity="0.0" inkscape:pagecheckerboard="0" inkscape:deskcolor="#d1d1d1">
    <inkscape:page x="0" y="0" inkscape:label="3" id="page1" width="793.33331" height="1122.6667" margin="0" bleed="0"/>
  </sodipodi:namedview>
  <g id="g1" inkscape:groupmode="layer" inkscape:label="3">
    
    
    <path id="path2" d="m 2427.86,6423.4 c 0,0 2.54,-38.25 5.79,-58.14 1.44,-8.85 3.56,-16.64 5.78,-25.33 1.81,-7.04 3.67,-13.31 5.79,-20.27 1.89,-6.17 3.71,-11.68 5.78,-17.78 1.93,-5.65 3.73,-10.7 5.79,-16.3 1.94,-5.29 3.75,-10.02 5.78,-15.28 1.96,-5.04 3.76,-9.55 5.79,-14.57 1.96,-4.85 3.76,-9.19 5.78,-14.02 1.98,-4.71 3.77,-8.93 5.79,-13.62 1.98,-4.6 3.77,-8.72 5.78,-13.3 1.99,-4.51 3.78,-8.56 5.79,-13.05 1.98,-4.44 3.78,-8.42 5.79,-12.85 1.98,-4.38 3.77,-8.31 5.78,-12.68 1.99,-4.34 3.78,-8.23 5.79,-12.55 1.98,-4.3 3.78,-8.16 5.78,-12.45 1.99,-4.27 3.78,-8.1 5.79,-12.37 1.99,-4.25 3.78,-8.05 5.78,-12.3 1.99,-4.23 3.79,-8.02 5.78,-12.25 2,-4.21 3.79,-7.99 5.79,-12.2 1.99,-4.21 3.79,-7.98 5.78,-12.18 2,-4.2 3.79,-7.96 5.79,-12.16 1.99,-4.19 3.79,-7.95 5.78,-12.14 2,-4.2 3.79,-7.96 5.79,-12.15 1.99,-4.19 3.79,-7.95 5.78,-12.14 2,-4.19 3.79,-7.95 5.79,-12.14 1.99,-4.2 3.79,-7.97 5.78,-12.16 2,-4.2 3.79,-7.97 5.79,-12.17 1.99,-4.21 3.79,-7.98 5.78,-12.19 2,-4.21 3.79,-7.99 5.79,-12.21 1.99,-4.22 3.79,-8.01 5.78,-12.23 2,-4.23 3.79,-8.03 5.79,-12.26 2,-4.24 3.79,-8.05 5.78,-12.28 2,-4.25 3.79,-8.07 5.79,-12.32 2,-4.27 3.79,-8.09 5.78,-12.35 2,-4.28 3.79,-8.11 5.79,-12.39 2,-4.28 3.79,-8.13 5.78,-12.42 2,-4.29 3.79,-8.15 5.79,-12.45 2,-4.31 3.79,-8.18 5.79,-12.5 1.99,-4.32 3.78,-8.2 5.78,-12.53 2,-4.34 3.79,-8.23 5.79,-12.57 1.99,-4.36 3.78,-8.26 5.78,-12.62 2,-4.36 3.79,-8.28 5.78,-12.65 2,-4.38 3.79,-8.32 5.79,-12.7 2,-4.4 3.79,-8.35 5.78,-12.74 2,-4.42 3.8,-8.38 5.79,-12.79 2,-4.43 3.79,-8.4 5.78,-12.83 2,-4.44 3.8,-8.43 5.79,-12.87 2,-4.46 3.79,-8.47 5.78,-12.93 2,-4.47 5.79,-12.96 5.79,-12.96" style="fill:none;stroke:#000000;stroke-width:7.97011;stroke-linecap:butt;stroke-linejoin:miter;stroke-miterlimit:10;stroke-dasharray:none;stroke-opacity:1" transform="matrix(0.13333333,0,0,-0.13333333,0,1122.6667)"/>
    <path id="path3" d="m 1860.94,6423.4 c 0,0 2.3,-37.15 5.78,-56.39 1.4,-7.76 3.45,-14.58 5.78,-22.12 1.75,-5.64 3.58,-10.64 5.79,-16.12 1.82,-4.51 3.63,-8.5 5.78,-12.87 1.87,-3.77 3.66,-7.09 5.79,-10.71 1.89,-3.21 3.68,-6.04 5.78,-9.11 1.91,-2.78 3.7,-5.22 5.79,-7.86 1.91,-2.42 3.71,-4.53 5.78,-6.81 1.93,-2.12 3.72,-3.96 5.79,-5.94 1.93,-1.85 3.73,-3.45 5.79,-5.17 1.94,-1.62 3.73,-3.01 5.78,-4.5 1.95,-1.41 3.74,-2.62 5.79,-3.89 1.95,-1.22 3.75,-2.26 5.78,-3.34 1.96,-1.05 3.76,-1.93 5.79,-2.84 1.96,-0.88 3.76,-1.61 5.78,-2.36 1.97,-0.73 3.77,-1.33 5.79,-1.93 1.97,-0.59 3.77,-1.06 5.78,-1.52 1.98,-0.45 3.78,-0.8 5.79,-1.13 1.98,-0.33 3.78,-0.56 5.78,-0.76 1.99,-0.2 3.79,-0.33 5.79,-0.41 1.99,-0.08 3.79,-0.1 5.78,-0.07 2,0.03 3.79,0.11 5.79,0.26 2,0.14 3.79,0.32 5.78,0.57 2,0.25 3.8,0.53 5.78,0.88 2.01,0.36 3.8,0.72 5.79,1.18 2.01,0.46 3.8,0.92 5.78,1.48 2.02,0.56 3.81,1.11 5.79,1.76 2.01,0.67 3.8,1.3 5.78,2.05 2.02,0.77 3.81,1.5 5.79,2.34 2.01,0.87 3.81,1.68 5.78,2.63 2.02,0.96 3.81,1.86 5.79,2.91 2.02,1.06 3.81,2.05 5.78,3.19 2.02,1.17 3.82,2.26 5.79,3.5 2.02,1.27 3.81,2.45 5.78,3.79 2.03,1.38 3.82,2.66 5.79,4.11 2.02,1.49 3.82,2.86 5.79,4.42 2.02,1.61 3.82,3.09 5.78,4.77 2.03,1.73 3.82,3.32 5.79,5.13 2.03,1.87 3.82,3.58 5.78,5.52 2.04,2.01 3.83,3.85 5.79,5.94 2.04,2.18 3.83,4.16 5.78,6.42 2.04,2.36 3.84,4.51 5.79,6.96 2.05,2.58 3.84,4.93 5.78,7.59 2.06,2.85 3.86,5.44 5.79,8.37 2.07,3.18 3.88,6.07 5.78,9.36 2.1,3.64 3.92,6.95 5.79,10.71 2.15,4.34 3.99,8.29 5.78,12.79 2.26,5.68 4.35,10.8 5.78,16.73 3.32,13.71 5.79,40.49 5.79,40.49" style="fill:none;stroke:#000000;stroke-width:7.97011;stroke-linecap:butt;stroke-linejoin:miter;stroke-miterlimit:10;stroke-dasharray:none;stroke-opacity:1" transform="matrix(0.13333333,0,0,-0.13333333,0,1122.6667)"/>
    <path id="path4" d="m 2427.86,6423.4 c 0,0 2.54,38.25 5.79,58.14 1.44,8.85 3.56,16.64 5.78,25.32 1.81,7.05 3.67,13.32 5.79,20.28 1.89,6.17 3.71,11.68 5.78,17.79 1.93,5.64 3.73,10.69 5.79,16.29 1.94,5.29 3.75,10.02 5.78,15.28 1.96,5.04 3.76,9.55 5.79,14.57 1.96,4.85 3.76,9.19 5.78,14.02 1.98,4.71 3.77,8.93 5.79,13.62 1.98,4.6 3.77,8.72 5.78,13.3 1.99,4.51 3.78,8.55 5.79,13.05 1.98,4.44 3.78,8.42 5.79,12.85 1.98,4.38 3.77,8.31 5.78,12.68 1.99,4.34 3.78,8.23 5.79,12.55 1.98,4.31 3.78,8.16 5.78,12.45 1.99,4.27 3.78,8.11 5.79,12.37 1.99,4.25 3.78,8.06 5.78,12.3 1.99,4.23 3.79,8.02 5.78,12.24 2,4.22 3.79,8 5.79,12.21 1.99,4.21 3.79,7.98 5.78,12.18 2,4.2 3.79,7.97 5.79,12.16 1.99,4.19 3.79,7.95 5.78,12.15 2,4.19 3.79,7.95 5.79,12.14 1.99,4.19 3.79,7.95 5.78,12.14 2,4.19 3.79,7.95 5.79,12.14 1.99,4.2 3.79,7.97 5.78,12.16 2,4.2 3.79,7.97 5.79,12.17 1.99,4.21 3.79,7.98 5.78,12.19 2,4.21 3.79,7.99 5.79,12.21 1.99,4.22 3.79,8.01 5.78,12.23 2,4.23 3.79,8.03 5.79,12.26 2,4.24 3.79,8.05 5.78,12.28 2,4.26 3.79,8.07 5.79,12.33 2,4.25 3.79,8.08 5.78,12.34 2,4.28 3.79,8.11 5.79,12.39 2,4.28 3.79,8.13 5.78,12.42 2,4.29 3.79,8.15 5.79,12.45 2,4.31 3.79,8.18 5.79,12.5 1.99,4.32 3.78,8.2 5.78,12.53 2,4.34 3.79,8.23 5.79,12.57 1.99,4.35 3.78,8.26 5.78,12.62 2,4.36 3.79,8.28 5.78,12.66 2,4.37 3.79,8.31 5.79,12.69 2,4.4 3.79,8.34 5.78,12.74 2,4.42 3.8,8.38 5.79,12.79 2,4.43 3.79,8.4 5.78,12.83 2,4.44 3.8,8.43 5.79,12.88 2,4.45 3.79,8.46 5.78,12.92 2,4.47 5.79,12.96 5.79,12.96" style="fill:none;stroke:#000000;stroke-width:7.97011;stroke-linecap:butt;stroke-linejoin:miter;stroke-miterlimit:10;stroke-dasharray:none;stroke-opacity:1" transform="matrix(0.13333333,0,0,-0.13333333,0,1122.6667)"/>
    <path id="path5" d="m 1860.94,6423.4 c 0,0 2.3,37.15 5.78,56.39 1.4,7.76 3.45,14.58 5.78,22.12 1.75,5.64 3.58,10.63 5.79,16.11 1.82,4.52 3.63,8.51 5.78,12.88 1.87,3.76 3.66,7.09 5.79,10.71 1.89,3.21 3.68,6.04 5.78,9.11 1.91,2.78 3.7,5.22 5.79,7.85 1.91,2.43 3.71,4.54 5.78,6.82 1.93,2.12 3.72,3.96 5.79,5.94 1.93,1.85 3.73,3.46 5.79,5.17 1.94,1.62 3.73,3.02 5.78,4.5 1.95,1.41 3.74,2.62 5.79,3.89 1.95,1.22 3.75,2.25 5.78,3.34 1.96,1.05 3.76,1.93 5.79,2.84 1.96,0.88 3.76,1.61 5.78,2.36 1.97,0.73 3.77,1.33 5.79,1.93 1.97,0.59 3.77,1.06 5.78,1.52 1.98,0.45 3.78,0.8 5.79,1.13 1.98,0.32 3.78,0.56 5.78,0.76 1.99,0.2 3.79,0.33 5.79,0.41 1.99,0.08 3.79,0.1 5.78,0.07 2,-0.04 3.79,-0.12 5.79,-0.26 2,-0.14 3.79,-0.32 5.78,-0.57 2,-0.25 3.8,-0.53 5.78,-0.88 2.01,-0.36 3.8,-0.73 5.79,-1.18 2.01,-0.46 3.8,-0.92 5.78,-1.48 2.02,-0.56 3.81,-1.11 5.79,-1.76 2.01,-0.67 3.8,-1.3 5.78,-2.05 2.02,-0.77 3.81,-1.5 5.79,-2.34 2.01,-0.87 3.81,-1.68 5.78,-2.63 2.02,-0.96 3.81,-1.86 5.79,-2.9 2.02,-1.07 3.81,-2.06 5.78,-3.2 2.02,-1.17 3.82,-2.26 5.79,-3.5 2.02,-1.27 3.81,-2.45 5.78,-3.79 2.03,-1.38 3.82,-2.66 5.79,-4.11 2.02,-1.49 3.82,-2.86 5.79,-4.42 2.02,-1.61 3.82,-3.09 5.78,-4.77 2.03,-1.74 3.82,-3.32 5.79,-5.13 2.03,-1.87 3.82,-3.58 5.78,-5.52 2.04,-2.01 3.83,-3.85 5.79,-5.94 2.04,-2.18 3.83,-4.16 5.78,-6.42 2.04,-2.36 3.84,-4.52 5.79,-6.96 2.05,-2.58 3.84,-4.93 5.78,-7.6 2.06,-2.84 3.86,-5.43 5.79,-8.36 2.07,-3.18 3.88,-6.07 5.78,-9.36 2.1,-3.64 3.92,-6.95 5.79,-10.71 2.15,-4.34 3.99,-8.29 5.78,-12.79 2.26,-5.67 4.35,-10.8 5.78,-16.73 3.32,-13.71 5.79,-40.49 5.79,-40.49" style="fill:none;stroke:#000000;stroke-width:7.97011;stroke-linecap:butt;stroke-linejoin:miter;stroke-miterlimit:10;stroke-dasharray:none;stroke-opacity:1" transform="matrix(0.13333333,0,0,-0.13333333,0,1122.6667)"/>
    <path id="path6" d="m 1577.47,6022.38 c 0,0 15.15,13.8 23.14,21.07 7.99,7.26 15.16,13.79 23.14,21.06 7.99,7.26 15.16,13.79 23.14,21.06 7.99,7.27 15.16,13.79 23.14,21.06 7.99,7.27 15.16,13.8 23.14,21.06 7.99,7.27 15.15,13.8 23.14,21.06 7.99,7.27 15.15,13.8 23.14,21.07 7.99,7.27 15.16,13.79 23.14,21.06 7.98,7.27 15.16,13.79 23.14,21.06 7.98,7.27 15.16,13.79 23.14,21.06 7.99,7.27 15.15,13.8 23.14,21.07 7.99,7.26 15.15,13.79 23.14,21.05 7.99,7.27 15.15,13.8 23.14,21.07 7.99,7.27 15.16,13.79 23.14,21.06 7.98,7.27 15.16,13.79 23.14,21.06 7.98,7.27 15.16,13.8 23.14,21.07 7.99,7.26 15.15,13.79 23.14,21.06 7.99,7.26 15.15,13.79 23.14,21.06 7.99,7.27 15.15,13.79 23.14,21.06 7.99,7.27 15.16,13.8 23.14,21.06 7.98,7.27 15.16,13.8 23.14,21.06 7.98,7.27 15.16,13.8 23.14,21.07 7.99,7.27 15.15,13.79 23.14,21.06 7.99,7.27 15.15,13.79 23.14,21.06 7.99,7.27 15.15,13.79 23.14,21.06 7.99,7.27 15.15,13.8 23.14,21.07 7.98,7.26 15.16,13.79 23.14,21.05 7.98,7.27 15.16,13.8 23.14,21.07 7.99,7.27 15.15,13.79 23.14,21.06 7.99,7.27 15.15,13.79 23.14,21.06 7.99,7.27 15.15,13.8 23.14,21.06 7.98,7.27 15.15,13.8 23.14,21.07 7.98,7.26 15.16,13.79 23.14,21.06 7.98,7.27 15.15,13.79 23.14,21.06 7.98,7.27 15.15,13.8 23.14,21.06 7.99,7.27 15.15,13.8 23.14,21.06 7.99,7.27 15.15,13.8 23.14,21.07 7.98,7.27 15.15,13.79 23.14,21.06 7.98,7.27 15.16,13.79 23.14,21.06 7.98,7.27 15.15,13.79 23.14,21.06 7.98,7.27 15.15,13.8 23.14,21.07 7.99,7.26 15.15,13.79 23.14,21.05 7.99,7.27 15.15,13.8 23.14,21.07 7.98,7.27 15.15,13.79 23.14,21.06 7.98,7.27 15.16,13.79 23.14,21.06 7.98,7.27 15.15,13.79 23.14,21.06 7.98,7.27 15.15,13.8 23.14,21.07 7.99,7.26 15.15,13.79 23.14,21.06 7.99,7.26 23.14,21.06 23.14,21.06" style="fill:none;stroke:#000000;stroke-width:7.97011;stroke-linecap:butt;stroke-linejoin:miter;stroke-miterlimit:10;stroke-dasharray:none;stroke-opacity:1" transform="matrix(0.13333333,0,0,-0.13333333,0,1122.6667)"/>
    <path id="path7" d="m 1.3129375,-1.5815781 c 0.070312,-0.070312 0.1523437,-0.1523438 0.2226562,-0.234375 0.5625,-0.5625 0.9375,-1.0664063 1.1367188,-1.359375 0.3984375,-0.6328125 0.6210937,-1.2890625 0.6210937,-1.7695313 0,-0.375 -0.140625,-0.6679687 -0.515625,-0.6679687 -0.9726562,0 -2.01562495,2.5429687 -2.01562495,4.0429687 0,0.09375 0,0.1054688 0,0.1757813 -0.1171875,0.1171875 -0.421875,0.3867187 -0.55078125,0.51562498 -0.12890625,0.12890625 -0.140625,0.140625 -0.140625,0.1640625 0,0.0585938 0.05859375,0.12890625 0.1171875,0.12890625 0.0234375,0 0.046875,0 0.1640625,-0.09375 L 0.78559375,-1.0776719 C 0.867625,-0.60892187 1.0902812,0.09420313 1.75825,0.09420313 c 0.3046875,0 0.609375,-0.15234375 0.8203125,-0.29296875 0.1289062,-0.0820312 0.5273437,-0.38671875 0.5273437,-0.46875 0,-0.046875 -0.046875,-0.140625 -0.1289062,-0.140625 -0.035156,0 -0.058594,0.0234375 -0.1289063,0.0820313 -0.3164062,0.29296875 -0.703125,0.59765625 -1.0664062,0.59765625 -0.4335938,0 -0.515625,-0.55078125 -0.515625,-1.05468743 0,-0.058594 0,-0.1992188 0.011719,-0.3632813 z m 0.035156,-0.3867188 c 0.082031,-0.4570312 0.3515625,-1.6054687 0.609375,-2.25 0.09375,-0.2460937 0.4453125,-1.171875 0.8203125,-1.171875 0.1992188,0 0.2695313,0.1523438 0.2695313,0.421875 0,0.09375 0,0.75 -0.6210938,1.7109375 -0.421875,0.6445313 -1.03125,1.2421875 -1.078125,1.2890625 z m 0,0" style="fill:#000000;fill-opacity:1;fill-rule:nonzero;stroke:none" aria-label="ℓ" transform="matrix(1.3333333,0,0,1.3333333,200.53067,326.58533)"/>
    <path id="path8" d="m 5.2973438,-2.9874687 c 0,-1.2773438 -1.0546875,-2.3203125 -2.3085938,-2.3203125 -1.3007812,0 -2.3203125,1.0664062 -2.3203125,2.3203125 0,1.2773437 1.0546875,2.32031245 2.3085938,2.32031245 1.3007812,0 2.3203125,-1.06640625 2.3203125,-2.32031245 z m 0,0" style="fill:#ff0000;fill-opacity:1;fill-rule:nonzero;stroke:none" aria-label="•" transform="matrix(1.3333333,0,0,1.3333333,278.14,257.84267)"/>
    <path id="path9" d="m 3.7383125,-0.05842969 c 1.2421875,-0.4453125 2.484375,-1.80468751 2.484375,-3.36328121 0,-1.3125 -0.9023437,-2.1914063 -2.1796875,-2.1914063 -1.8632812,0 -3.6328125,1.8398438 -3.6328125,3.6210938 0,1.23046871 0.8554688,2.15624996 2.1914063,2.15624996 0.2226562,0 0.4921875,-0.0234375 0.8085937,-0.10546875 0,0.09375 -0.011719,0.3984375 -0.011719,0.45703125 0,0.328125 0,1.03125004 0.7265625,1.03125004 0.9375,0 1.3828125,-1.40625004 1.3828125,-1.5468750375 0,-0.0585937525 -0.046875,-0.1171875025 -0.1171875,-0.1171875025 -0.070312,0 -0.09375,0.08203125 -0.1054688,0.10546875 -0.1640625,0.52734375 -0.6328125,0.75 -0.9609375,0.75 -0.28125,0 -0.4804687,-0.10546875 -0.5859372,-0.796875 z m -1.640625,-0.12890625 c -0.6328125,-0.24609375 -0.9375,-0.82031246 -0.9375,-1.59374996 0,-0.5390625 0.1757813,-1.5703125 0.8203125,-2.4492188 0.5273438,-0.6914062 1.2890625,-1.1367187 1.9921875,-1.1367187 0.84375,0 1.5117188,0.5976562 1.5117188,1.7226562 0,0.421875 -0.1640625,2.3671875 -1.7929688,3.29296876 C 3.5976875,-0.80842969 3.433625,-1.2068672 2.918,-1.2068672 c -0.4570312,0 -0.8671875,0.41015626 -0.8671875,0.82031251 0,0.0703125 0.023437,0.140625 0.046875,0.19921875 z m 1.3242188,-0.046875 c -0.1757813,0.0703125 -0.4570313,0.15234375 -0.7617188,0.15234375 -0.09375,0 -0.3867187,0 -0.3867187,-0.3046875 0,-0.28125 0.3046875,-0.59765625 0.65625,-0.59765625 0.3398437,0 0.4804687,0.22265625 0.4921875,0.75 z m 0,0" style="fill:#000000;fill-opacity:1;fill-rule:nonzero;stroke:none" aria-label="Q" transform="matrix(1.3333333,0,0,1.3333333,287.10933,259.324)"/>
    <path id="path10" d="m 5.2975625,-2.9868203 c 0,-1.2773438 -1.0546875,-2.3203125 -2.3085937,-2.3203125 -1.3007813,0 -2.32031255,1.0664062 -2.32031255,2.3203125 0,1.2773437 1.05468755,2.32031249 2.30859375,2.32031249 1.3007813,0 2.3203125,-1.06640629 2.3203125,-2.32031249 z m 0,0" style="fill:#ff0000;fill-opacity:1;fill-rule:nonzero;stroke:none" aria-label="•" transform="matrix(1.3333333,0,0,1.3333333,247.90533,285.36133)"/>
    <path id="path11" d="m 2.5078203,-2.4857266 h 1.453125 c 1.1484375,0 2.34375,-0.796875 2.34375,-1.734375 0,-0.6796875 -0.6445312,-1.21875 -1.6640625,-1.21875 H 1.9570391 c -0.1523438,0 -0.2460938,0 -0.2460938,0.140625 0,0.1171875 0.09375,0.1171875 0.2226563,0.1171875 0.2695312,0 0.4921875,0 0.4921875,0.1289063 0,0.035156 0,0.035156 -0.023437,0.140625 l -1.0664063,4.27734374 c -0.082031,0.29296875 -0.09375,0.375 -0.65624999,0.375 -0.1875,0 -0.26953125,0 -0.26953125,0.140625 0,0.03515625 0.0234375,0.1171875 0.12890625,0.1171875 0.140625,0 0.33984375,-0.01171875 0.49218749,-0.0234375 h 0.5039063 c 0.7734375,0 0.9726562,0.0234375 1.03125,0.0234375 0.046875,0 0.1640625,0 0.1640625,-0.15234375 0,-0.10546875 -0.1054688,-0.10546875 -0.2460938,-0.10546875 -0.023437,0 -0.1640625,0 -0.3046875,-0.0234375 -0.1640625,-0.0117188 -0.1757812,-0.0351563 -0.1757812,-0.10546875 0,-0.046875 0.011719,-0.09375 0.023437,-0.12890625 z m 0.5859375,-2.4023437 c 0.070312,-0.2695313 0.082031,-0.2929688 0.4101563,-0.2929688 h 0.8671875 c 0.65625,0 1.1601562,0.1875 1.1601562,0.7851563 0,0.09375 -0.035156,0.8085937 -0.4921875,1.2421875 -0.1171875,0.1289062 -0.4921875,0.421875 -1.2773437,0.421875 H 2.5546953 Z m 0,0" style="fill:#000000;fill-opacity:1;fill-rule:nonzero;stroke:none" aria-label="P" transform="matrix(1.3333333,0,0,1.3333333,256.27733,285.52133)"/>
    <path id="path12" d="m 5.2975938,-2.9884219 c 0,-1.2773437 -1.0546875,-2.3203125 -2.3085938,-2.3203125 -1.3007812,0 -2.3203125,1.0664063 -2.3203125,2.3203125 0,1.2773438 1.0546875,2.32031252 2.3085938,2.32031252 1.3007812,0 2.3203125,-1.06640622 2.3203125,-2.32031252 z m 0,0" style="fill:#ff0000;fill-opacity:1;fill-rule:nonzero;stroke:none" aria-label="•" transform="matrix(1.3333333,0,0,1.3333333,351.01467,191.508)"/>
    <g id="g12" aria-label="−(P+Q)&#10;Figure3.1:(ℓ)=(P)+(Q)+(−(P+&#10;Q))−3(O)." transform="matrix(1.3333333,0,0,1.3333333,304.07733,186.92933)">
      <path id="path13" d="m 5.5787188,-1.8044219 c 0.1171875,0 0.28125,0 0.28125,-0.1875 0,-0.1875 -0.1640625,-0.1875 -0.28125,-0.1875 H 0.9966875 c -0.1171875,0 -0.28125,0 -0.28125,0.1875 0,0.1875 0.1640625,0.1875 0.28125,0.1875 z m 0,0" style="fill:#000000;fill-opacity:1;fill-rule:nonzero;stroke:none"/>
      <path id="path14" d="m 9.2496172,1.9924531 c 0.070312,0 0.1640625,0 0.1640625,-0.09375 0,-0.035156 -0.011719,-0.046875 -0.1054688,-0.140625 -1.1015625,-1.03124997 -1.3710937,-2.51953122 -1.3710937,-3.75 0,-2.296875 0.9492187,-3.375 1.359375,-3.7382812 0.1054687,-0.1054688 0.1171875,-0.1054688 0.1171875,-0.1523438 0,-0.035156 -0.035156,-0.09375 -0.1054688,-0.09375 -0.1289062,0 -0.5273437,0.4101563 -0.5976562,0.4804688 -1.0664063,1.1132812 -1.2890625,2.5429687 -1.2890625,3.5039062 0,1.78125003 0.75,3.2226563 1.828125,3.984375 z m 0,0" style="fill:#000000;fill-opacity:1;fill-rule:nonzero;stroke:none"/>
      <path id="path15" d="m 12.346297,-2.4841094 h 1.453125 c 1.148437,0 2.34375,-0.796875 2.34375,-1.734375 0,-0.6796875 -0.644531,-1.21875 -1.664063,-1.21875 h -2.683593 c -0.152344,0 -0.246094,0 -0.246094,0.140625 0,0.1171875 0.09375,0.1171875 0.222656,0.1171875 0.269531,0 0.492188,0 0.492188,0.1289063 0,0.035156 0,0.035156 -0.02344,0.140625 l -1.066406,4.27734373 c -0.08203,0.29296875 -0.09375,0.375 -0.65625,0.375 -0.1875,0 -0.269531,0 -0.269531,0.140625 0,0.03515625 0.02344,0.117187495 0.128906,0.117187495 0.140625,0 0.339844,-0.011718745 0.492187,-0.023437495 h 0.503907 c 0.773437,0 0.972656,0.023437495 1.03125,0.023437495 0.04687,0 0.164062,0 0.164062,-0.152343745 0,-0.10546875 -0.105469,-0.10546875 -0.246094,-0.10546875 -0.02344,0 -0.164062,0 -0.304687,-0.0234375 -0.164063,-0.0117188 -0.175781,-0.0351563 -0.175781,-0.10546875 0,-0.046875 0.01172,-0.09375 0.02344,-0.12890625 z m 0.585937,-2.4023437 c 0.07031,-0.2695313 0.08203,-0.2929688 0.410157,-0.2929688 h 0.867187 c 0.65625,0 1.160156,0.1875 1.160156,0.7851563 0,0.09375 -0.03516,0.8085937 -0.492187,1.2421875 -0.117188,0.1289062 -0.492188,0.421875 -1.277344,0.421875 h -1.207031 z m 0,0" style="fill:#000000;fill-opacity:1;fill-rule:nonzero;stroke:none"/>
      <path id="path16" d="m 21.709578,-1.8044219 h 2.34375 c 0.117188,0 0.292969,0 0.292969,-0.1875 0,-0.1875 -0.175781,-0.1875 -0.292969,-0.1875 h -2.34375 v -2.34375 c 0,-0.1171875 0,-0.2929687 -0.175781,-0.2929687 -0.1875,0 -0.1875,0.1757812 -0.1875,0.2929687 v 2.34375 h -2.34375 c -0.117188,0 -0.292969,0 -0.292969,0.1875 0,0.1875 0.175781,0.1875 0.292969,0.1875 h 2.34375 v 2.34375003 c 0,0.1171875 0,0.29296875 0.1875,0.29296875 0.175781,0 0.175781,-0.17578125 0.175781,-0.29296875 z m 0,0" style="fill:#000000;fill-opacity:1;fill-rule:nonzero;stroke:none"/>
      <path id="path17" d="m 30.498641,-0.05832812 c 1.242187,-0.4453125 2.484375,-1.80468748 2.484375,-3.36328128 0,-1.3125 -0.902344,-2.1914062 -2.179688,-2.1914062 -1.863281,0 -3.632812,1.8398437 -3.632812,3.6210937 0,1.23046878 0.855468,2.15625003 2.191406,2.15625003 0.222656,0 0.492187,-0.0234375 0.808594,-0.10546875 0,0.09375 -0.01172,0.3984375 -0.01172,0.45703125 0,0.328125 0,1.03124997 0.726562,1.03124997 0.9375,0 1.382813,-1.40624997 1.382813,-1.546874975 0,-0.058593745 -0.04687,-0.117187495 -0.117188,-0.117187495 -0.07031,0 -0.09375,0.08203125 -0.105468,0.10546875 -0.164063,0.52734375 -0.632813,0.75 -0.960938,0.75 -0.28125,0 -0.480469,-0.10546875 -0.585936,-0.796875 z m -1.640625,-0.12890625 c -0.632813,-0.24609375 -0.9375,-0.82031253 -0.9375,-1.59375003 0,-0.5390625 0.175781,-1.5703125 0.820312,-2.4492187 0.527344,-0.6914063 1.289063,-1.1367188 1.992188,-1.1367188 0.84375,0 1.511718,0.5976563 1.511718,1.7226563 0,0.421875 -0.164062,2.3671875 -1.792968,3.29296873 -0.09375,-0.45703125 -0.257813,-0.85546873 -0.773438,-0.85546873 -0.457031,0 -0.867187,0.41015623 -0.867187,0.82031248 0,0.0703125 0.02344,0.140625 0.04687,0.19921875 z m 1.324218,-0.046875 c -0.175781,0.0703125 -0.457031,0.15234375 -0.761718,0.15234375 -0.09375,0 -0.386719,0 -0.386719,-0.3046875 0,-0.28125 0.304687,-0.59765625 0.65625,-0.59765625 0.339844,0 0.480469,0.22265625 0.492187,0.75 z m 0,0" style="fill:#000000;fill-opacity:1;fill-rule:nonzero;stroke:none"/>
      <path id="path18" d="m 35.942,-1.9919219 c 0,-0.7617187 -0.128906,-1.6640625 -0.621094,-2.6015625 -0.386718,-0.7382812 -1.113281,-1.3828125 -1.253906,-1.3828125 -0.08203,0 -0.105469,0.058594 -0.105469,0.09375 0,0.035156 0,0.046875 0.09375,0.140625 1.113282,1.0664063 1.371094,2.5195313 1.371094,3.75 0,2.28515628 -0.949219,3.375 -1.359375,3.7382813 -0.105469,0.1054687 -0.105469,0.1054687 -0.105469,0.1523437 0,0.035156 0.02344,0.09375 0.105469,0.09375 0.128906,0 0.527344,-0.4101562 0.585938,-0.4804687 C 35.719344,0.39870313 35.942,-1.0309844 35.942,-1.9919219 Z m 0,0" style="fill:#000000;fill-opacity:1;fill-rule:nonzero;stroke:none"/>
      
      
      
      
      
      
      
      
      
      
      
      
      
      
      
      
      
      
    </g>
    
    
    
    
    
    
    
    
    
    
    
    
    
    
    
    
  </g>
</svg>