<svg version="1.1" id="svg1" width="282.0018430835286" height="233.0021688295059" viewBox="281.0018365477714 322.50300192066805 282.0018430835286 233.0021688295059" sodipodi:docname="ch3.pdf" xmlns:inkscape="http://www.inkscape.org/namespaces/inkscape" xmlns:sodipodi="http://sodipodi.sourceforge.net/DTD/sodipodi-0.dtd" xmlns="http://www.w3.org/2000/svg" xmlns:svg="http://www.w3.org/2000/svg" style="">
  <defs id="defs1">
    <clipPath clipPathUnits="userSpaceOnUse" id="clipPath61">
      <path d="m 2355.6001,4252.6004 v 1700.79 h 1700.79 v -1700.79 z" id="path61"/>
    </clipPath>
    <clipPath clipPathUnits="userSpaceOnUse" id="clipPath66">
      <path d="M -24.744001,99.083 V -70.996004 H 145.335 V 99.083 Z" id="path66"/>
    </clipPath>
    <clipPath clipPathUnits="userSpaceOnUse" id="clipPath70">
      <path d="M -67.371002,101.534 V -68.545004 H 102.708 V 101.534 Z" id="path70"/>
    </clipPath>
    <clipPath clipPathUnits="userSpaceOnUse" id="clipPath75">
      <path d="M -19.749,68.085004 V -101.994 H 150.33 V 68.085004 Z" id="path75"/>
    </clipPath>
    <clipPath clipPathUnits="userSpaceOnUse" id="clipPath79">
      <path d="M -70.491999,68.154004 V -101.925 H 99.587005 V 68.154004 Z" id="path79"/>
    </clipPath>
    <clipPath clipPathUnits="userSpaceOnUse" id="clipPath87">
      <path d="M -107.34,107.099 V -62.980004 H 62.739002 V 107.099 Z" id="path87"/>
    </clipPath>
    <clipPath clipPathUnits="userSpaceOnUse" id="clipPath95">
      <path d="M -132.00201,34.354001 V -135.725 H 38.076998 V 34.354001 Z" id="path95"/>
    </clipPath>
  </defs>
  <sodipodi:namedview id="namedview1" pagecolor="#ffffff" bordercolor="#000000" borderopacity="0.25" inkscape:showpageshadow="2" inkscape:pageopacity="0.0" inkscape:pagecheckerboard="0" inkscape:deskcolor="#d1d1d1">
    <inkscape:page x="0" y="0" inkscape:label="9" id="page1" width="793.33331" height="1122.6667" margin="0" bleed="0"/>
  </sodipodi:namedview>
  <g id="g1" inkscape:groupmode="layer" inkscape:label="9">
    
    
    
    <path id="path55" d="m 2534.03,5098.27 c 0,0 2.95,-54.79 7.43,-83.29 1.8,-11.44 4.36,-21.57 7.43,-32.73 2.21,-8.02 4.52,-15.13 7.43,-22.91 2.3,-6.13 4.6,-11.57 7.44,-17.48 2.34,-4.88 4.64,-9.18 7.43,-13.82 2.38,-3.96 4.67,-7.42 7.43,-11.11 2.4,-3.22 4.7,-6.02 7.43,-8.97 2.43,-2.62 4.73,-4.86 7.43,-7.2 2.45,-2.11 4.76,-3.89 7.43,-5.71 2.48,-1.68 4.79,-3.06 7.44,-4.43 2.49,-1.3 4.8,-2.33 7.43,-3.32 2.51,-0.95 4.83,-1.66 7.43,-2.32 2.53,-0.64 4.84,-1.08 7.43,-1.44 2.55,-0.36 4.86,-0.55 7.43,-0.65 2.57,-0.1 4.88,-0.06 7.44,0.08 2.57,0.14 4.88,0.37 7.43,0.73 2.58,0.35 4.88,0.78 7.43,1.33 2.59,0.56 4.89,1.15 7.43,1.88 2.59,0.74 4.9,1.48 7.43,2.38 2.59,0.91 4.89,1.8 7.43,2.85 2.6,1.06 4.9,2.09 7.44,3.27 2.59,1.21 4.89,2.36 7.43,3.68 2.59,1.34 4.89,2.6 7.43,4.03 2.59,1.47 4.89,2.83 7.43,4.38 2.59,1.58 4.89,3.04 7.43,4.7 2.59,1.68 4.89,3.23 7.44,4.98 2.58,1.78 4.88,3.42 7.43,5.26 2.58,1.87 4.88,3.58 7.43,5.51 2.58,1.95 4.88,3.73 7.43,5.73 2.59,2.03 4.89,3.88 7.43,5.96 2.59,2.1 4.89,4.01 7.43,6.15 2.59,2.17 4.89,4.13 7.44,6.34 2.58,2.23 4.88,4.25 7.43,6.51 2.58,2.29 4.88,4.35 7.43,6.67 2.58,2.34 4.88,4.45 7.43,6.82 2.58,2.39 4.88,4.55 7.43,6.96 2.58,2.44 4.88,4.64 7.44,7.1 2.57,2.48 4.88,4.72 7.43,7.22 2.58,2.53 4.88,4.8 7.43,7.36 2.58,2.57 4.88,4.88 7.43,7.48 2.58,2.61 4.88,4.97 7.43,7.61 2.58,2.67 4.89,5.07 7.43,7.76 2.59,2.73 4.89,5.18 7.44,7.94 2.58,2.8 4.89,5.33 7.43,8.16 2.59,2.9 4.9,5.51 7.43,8.47 2.61,3.04 4.93,5.78 7.43,8.91 2.64,3.3 5,6.26 7.43,9.7 2.72,3.84 5.42,7.18 7.44,11.41 3.6,7.58 7.43,23.17 7.43,23.17" style="fill:none;stroke:#000000;stroke-width:6.97385;stroke-linecap:butt;stroke-linejoin:miter;stroke-miterlimit:10;stroke-dasharray:none;stroke-opacity:1" transform="matrix(0.13333333,0,0,-0.13333333,0,1122.6667)"/>
    <path id="path56" d="m 2980.27,5101.36 c 0,0 4.3,-15.41 8.3,-22.74 2.27,-4.15 5.27,-7.28 8.31,-10.91 2.72,-3.25 5.35,-6 8.31,-9.04 2.78,-2.87 5.38,-5.35 8.3,-8.08 2.81,-2.63 5.4,-4.93 8.31,-7.45 2.82,-2.46 5.4,-4.61 8.3,-6.98 2.84,-2.31 5.41,-4.35 8.31,-6.58 2.84,-2.19 5.41,-4.12 8.3,-6.24 2.84,-2.07 5.42,-3.91 8.31,-5.91 2.84,-1.98 5.41,-3.72 8.3,-5.61 2.85,-1.87 5.42,-3.52 8.31,-5.32 2.84,-1.77 5.42,-3.33 8.3,-5.03 2.85,-1.67 5.42,-3.15 8.31,-4.74 2.85,-1.58 5.42,-2.96 8.31,-4.46 2.84,-1.47 5.41,-2.77 8.3,-4.16 2.85,-1.38 5.42,-2.58 8.31,-3.88 2.84,-1.27 5.42,-2.38 8.3,-3.57 2.85,-1.18 5.42,-2.2 8.31,-3.28 2.85,-1.07 5.42,-1.99 8.3,-2.97 2.85,-0.97 5.43,-1.8 8.31,-2.66 2.85,-0.86 5.42,-1.59 8.3,-2.35 2.86,-0.75 5.43,-1.38 8.31,-2.03 2.85,-0.64 5.43,-1.17 8.31,-1.69 2.85,-0.53 5.43,-0.96 8.3,-1.37 2.86,-0.41 5.44,-0.73 8.31,-1.02 2.86,-0.3 5.43,-0.51 8.3,-0.68 2.86,-0.17 5.44,-0.27 8.31,-0.32 2.86,-0.05 5.44,-0.04 8.3,0.03 2.87,0.08 5.45,0.21 8.31,0.41 2.87,0.21 5.44,0.45 8.3,0.79 2.88,0.34 5.45,0.7 8.31,1.17 2.88,0.47 5.45,0.95 8.3,1.56 2.89,0.62 5.46,1.23 8.31,1.97 2.88,0.76 5.46,1.5 8.31,2.39 2.88,0.91 5.46,1.78 8.3,2.82 2.89,1.05 5.47,2.06 8.31,3.25 2.89,1.22 5.47,2.37 8.3,3.72 2.9,1.38 5.48,2.67 8.31,4.19 2.9,1.55 5.48,3 8.3,4.69 2.91,1.73 5.48,3.35 8.31,5.22 2.91,1.93 5.49,3.72 8.3,5.78 2.92,2.14 5.5,4.12 8.31,6.4 2.92,2.37 5.5,4.55 8.31,7.07 2.93,2.64 5.51,5.07 8.3,7.86 2.95,2.95 5.54,5.66 8.31,8.79 2.97,3.36 5.57,6.44 8.3,10.01 3.02,3.95 5.67,7.56 8.3,11.77 3.15,5.03 6.15,9.53 8.31,15.05 4.36,11.15 8.31,33.71 8.31,33.71" style="fill:none;stroke:#000000;stroke-width:6.97385;stroke-linecap:butt;stroke-linejoin:miter;stroke-miterlimit:10;stroke-dasharray:none;stroke-opacity:1" transform="matrix(0.13333333,0,0,-0.13333333,0,1122.6667)"/>
    <path id="path57" d="m 3490.61,5100.48 c 0,0 2.44,-22.86 5.06,-34.65 1.31,-5.93 3.16,-11.08 5.06,-16.85 1.61,-4.93 3.24,-9.3 5.05,-14.16 1.68,-4.5 3.27,-8.51 5.06,-12.98 1.71,-4.27 3.29,-8.09 5.05,-12.35 1.73,-4.15 3.31,-7.87 5.06,-12 1.73,-4.08 3.31,-7.74 5.06,-11.81 1.74,-4.04 3.31,-7.67 5.06,-11.72 1.74,-4.03 3.31,-7.65 5.05,-11.68 1.75,-4.04 3.32,-7.67 5.06,-11.71 1.75,-4.06 3.32,-7.7 5.05,-11.77 1.75,-4.08 3.32,-7.75 5.06,-11.84 1.75,-4.12 3.32,-7.82 5.06,-11.94 1.75,-4.16 3.32,-7.9 5.06,-12.06 1.75,-4.21 3.32,-7.98 5.05,-12.19 1.75,-4.25 3.32,-8.07 5.06,-12.33 1.75,-4.31 3.32,-8.17 5.05,-12.48 1.76,-4.36 3.32,-8.28 5.06,-12.64 1.76,-4.41 3.32,-8.38 5.06,-12.8 1.75,-4.47 3.32,-8.49 5.06,-12.97 1.75,-4.53 3.32,-8.6 5.05,-13.14 1.75,-4.59 3.32,-8.72 5.06,-13.32 1.75,-4.66 3.32,-8.84 5.05,-13.5 1.76,-4.72 3.32,-8.96 5.06,-13.69 1.76,-4.78 3.32,-9.08 5.06,-13.87 1.75,-4.85 3.32,-9.21 5.05,-14.07 1.76,-4.91 3.33,-9.33 5.06,-14.25 1.75,-4.99 3.32,-9.46 5.06,-14.46 1.75,-5.05 3.32,-9.59 5.05,-14.65 1.76,-5.12 3.32,-9.72 5.06,-14.85 1.76,-5.19 3.32,-9.85 5.06,-15.05 1.75,-5.26 3.32,-9.99 5.05,-15.26 1.76,-5.33 3.33,-10.12 5.06,-15.46 1.75,-5.4 3.32,-10.26 5.06,-15.67 1.75,-5.47 3.32,-10.39 5.05,-15.88 1.76,-5.54 3.32,-10.53 5.06,-16.08 1.76,-5.62 3.32,-10.67 5.06,-16.3 1.75,-5.69 3.32,-10.81 5.05,-16.51 1.76,-5.77 3.33,-10.95 5.06,-16.72 1.75,-5.85 3.32,-11.1 5.06,-16.94 1.75,-5.92 3.32,-11.24 5.05,-17.16 1.76,-5.99 3.32,-11.38 5.06,-17.37 1.76,-6.07 3.32,-11.52 5.06,-17.6 1.75,-6.14 3.32,-11.66 5.05,-17.81 1.76,-6.22 3.33,-11.81 5.06,-18.03 1.75,-6.3 3.32,-11.96 5.05,-18.26 1.76,-6.37 3.33,-12.1 5.06,-18.47 1.76,-6.46 3.32,-12.25 5.06,-18.71 1.76,-6.53 5.06,-18.92 5.06,-18.92" style="fill:none;stroke:#000000;stroke-width:6.97385;stroke-linecap:butt;stroke-linejoin:miter;stroke-miterlimit:10;stroke-dasharray:none;stroke-opacity:1" transform="matrix(0.13333333,0,0,-0.13333333,0,1122.6667)"/>
    <path id="path58" d="m 2534.03,5106.14 c 0,0 2.95,54.78 7.43,83.28 1.8,11.44 4.36,21.57 7.43,32.74 2.21,8 4.52,15.11 7.43,22.89 2.3,6.15 4.6,11.58 7.44,17.49 2.34,4.88 4.64,9.18 7.43,13.82 2.38,3.96 4.67,7.42 7.43,11.11 2.4,3.23 4.7,6.02 7.43,8.97 2.43,2.62 4.73,4.86 7.43,7.2 2.45,2.11 4.76,3.9 7.43,5.71 2.48,1.68 4.79,3.06 7.44,4.44 2.49,1.29 4.8,2.32 7.43,3.31 2.51,0.95 4.83,1.67 7.43,2.32 2.53,0.64 4.84,1.08 7.43,1.44 2.55,0.36 4.86,0.55 7.43,0.65 2.57,0.1 4.88,0.06 7.44,-0.08 2.57,-0.14 4.88,-0.38 7.43,-0.73 2.58,-0.36 4.88,-0.78 7.43,-1.32 2.59,-0.56 4.89,-1.16 7.43,-1.88 2.59,-0.75 4.9,-1.5 7.43,-2.39 2.59,-0.91 4.89,-1.8 7.43,-2.84 2.6,-1.07 4.9,-2.09 7.44,-3.28 2.59,-1.21 4.89,-2.36 7.43,-3.67 2.59,-1.35 4.89,-2.61 7.43,-4.04 2.59,-1.47 4.89,-2.83 7.43,-4.38 2.59,-1.58 4.89,-3.04 7.43,-4.7 2.59,-1.68 4.89,-3.23 7.44,-4.98 2.58,-1.78 4.88,-3.42 7.43,-5.26 2.58,-1.87 4.88,-3.58 7.43,-5.5 2.58,-1.96 4.88,-3.74 7.43,-5.74 2.59,-2.03 4.89,-3.88 7.43,-5.95 2.59,-2.11 4.89,-4.02 7.43,-6.16 2.59,-2.17 4.89,-4.13 7.44,-6.34 2.58,-2.23 4.88,-4.25 7.43,-6.51 2.58,-2.28 4.88,-4.35 7.43,-6.67 2.58,-2.34 4.88,-4.45 7.43,-6.82 2.58,-2.39 4.88,-4.55 7.43,-6.96 2.58,-2.44 4.88,-4.64 7.44,-7.1 2.57,-2.48 4.88,-4.72 7.43,-7.22 2.58,-2.53 4.88,-4.81 7.43,-7.35 2.58,-2.57 4.88,-4.89 7.43,-7.48 2.58,-2.62 4.88,-4.98 7.43,-7.62 2.58,-2.66 4.89,-5.07 7.43,-7.76 2.59,-2.73 4.89,-5.19 7.44,-7.94 2.58,-2.8 4.89,-5.32 7.43,-8.16 2.59,-2.9 4.9,-5.51 7.43,-8.47 2.61,-3.04 4.93,-5.78 7.43,-8.91 2.64,-3.3 5,-6.26 7.43,-9.7 2.72,-3.84 5.42,-7.17 7.44,-11.41 3.6,-7.58 7.43,-23.17 7.43,-23.17" style="fill:none;stroke:#000000;stroke-width:6.97385;stroke-linecap:butt;stroke-linejoin:miter;stroke-miterlimit:10;stroke-dasharray:none;stroke-opacity:1" transform="matrix(0.13333333,0,0,-0.13333333,0,1122.6667)"/>
    <path id="path59" d="m 2980.27,5103.04 c 0,0 4.3,15.42 8.3,22.74 2.27,4.15 5.27,7.28 8.31,10.91 2.72,3.25 5.35,6 8.31,9.04 2.78,2.87 5.38,5.35 8.3,8.08 2.81,2.63 5.4,4.93 8.31,7.45 2.82,2.45 5.4,4.61 8.3,6.98 2.84,2.31 5.41,4.35 8.31,6.58 2.84,2.19 5.41,4.12 8.3,6.24 2.84,2.08 5.42,3.91 8.31,5.91 2.84,1.98 5.41,3.71 8.3,5.62 2.85,1.87 5.42,3.52 8.31,5.31 2.84,1.78 5.42,3.33 8.3,5.03 2.85,1.68 5.42,3.14 8.31,4.75 2.85,1.57 5.42,2.95 8.31,4.45 2.84,1.48 5.41,2.76 8.3,4.16 2.85,1.38 5.42,2.58 8.31,3.87 2.84,1.28 5.42,2.39 8.3,3.58 2.85,1.18 5.42,2.19 8.31,3.28 2.85,1.07 5.42,2 8.3,2.97 2.85,0.97 5.43,1.8 8.31,2.67 2.85,0.86 5.42,1.59 8.3,2.34 2.86,0.75 5.43,1.38 8.31,2.03 2.85,0.64 5.43,1.17 8.31,1.7 2.85,0.52 5.43,0.95 8.3,1.36 2.86,0.41 5.44,0.73 8.31,1.02 2.86,0.3 5.43,0.51 8.3,0.68 2.86,0.17 5.44,0.28 8.31,0.33 2.86,0.04 5.44,0.03 8.3,-0.04 2.87,-0.08 5.45,-0.2 8.31,-0.41 2.87,-0.21 5.44,-0.45 8.3,-0.79 2.88,-0.33 5.45,-0.7 8.31,-1.17 2.88,-0.47 5.45,-0.96 8.3,-1.56 2.89,-0.61 5.46,-1.22 8.31,-1.97 2.88,-0.76 5.46,-1.5 8.31,-2.39 2.88,-0.9 5.46,-1.78 8.3,-2.81 2.89,-1.06 5.47,-2.07 8.31,-3.26 2.89,-1.22 5.47,-2.37 8.3,-3.72 2.9,-1.38 5.48,-2.68 8.31,-4.19 2.9,-1.55 5.48,-3.01 8.3,-4.69 2.91,-1.73 5.48,-3.35 8.31,-5.22 2.91,-1.92 5.49,-3.72 8.3,-5.78 2.92,-2.14 5.5,-4.12 8.31,-6.39 2.92,-2.37 5.5,-4.57 8.31,-7.08 2.93,-2.63 5.51,-5.06 8.3,-7.85 2.95,-2.96 5.54,-5.68 8.31,-8.8 2.97,-3.36 5.57,-6.44 8.3,-10 3.02,-3.95 5.67,-7.57 8.3,-11.79 3.15,-5.02 6.15,-9.52 8.31,-15.04 4.36,-11.15 8.31,-33.71 8.31,-33.71" style="fill:none;stroke:#000000;stroke-width:6.97385;stroke-linecap:butt;stroke-linejoin:miter;stroke-miterlimit:10;stroke-dasharray:none;stroke-opacity:1" transform="matrix(0.13333333,0,0,-0.13333333,0,1122.6667)"/>
    <path id="path60" d="m 3490.61,5103.92 c 0,0 2.8,24.59 5.75,37.25 1.5,6.45 3.61,12.04 5.75,18.31 1.85,5.41 3.7,10.21 5.75,15.54 1.93,4.99 3.73,9.43 5.76,14.37 1.95,4.77 3.74,9.04 5.75,13.79 1.96,4.65 3.75,8.82 5.75,13.47 1.97,4.6 3.76,8.73 5.75,13.33 1.98,4.59 3.77,8.7 5.75,13.29 1.99,4.6 3.77,8.73 5.75,13.33 1.99,4.62 3.77,8.77 5.75,13.4 1.99,4.66 3.77,8.85 5.75,13.52 1.99,4.71 3.78,8.94 5.75,13.66 2,4.76 3.78,9.04 5.76,13.82 1.99,4.82 3.77,9.16 5.74,14 2,4.89 3.78,9.29 5.76,14.19 1.99,4.96 3.77,9.42 5.74,14.4 2,5.03 3.79,9.56 5.76,14.6 2,5.11 3.78,9.71 5.75,14.83 1.99,5.19 3.78,9.86 5.75,15.05 2,5.27 3.78,10.01 5.75,15.29 1.99,5.35 3.78,10.16 5.75,15.53 2,5.43 3.78,10.32 5.75,15.77 2,5.52 3.78,10.48 5.75,16.01 2,5.61 3.78,10.65 5.75,16.27 2,5.69 3.78,10.81 5.75,16.51 2,5.79 3.78,10.99 5.75,16.78 2,5.88 3.78,11.15 5.75,17.04 2,5.96 3.78,11.32 5.76,17.3 1.99,6.05 3.77,11.49 5.75,17.56 1.99,6.15 3.77,11.67 5.75,17.83 1.99,6.24 3.77,11.85 5.75,18.1 2,6.34 3.78,12.03 5.75,18.37 2,6.43 3.78,12.21 5.75,18.65 2,6.53 3.78,12.39 5.75,18.92 2,6.62 3.78,12.57 5.75,19.2 2,6.72 3.78,12.76 5.75,19.48 2,6.82 3.78,12.94 5.75,19.77 2,6.91 3.78,13.12 5.75,20.04 2,7.01 3.78,13.31 5.75,20.33 2,7.11 3.78,13.5 5.75,20.61 2,7.21 3.78,13.69 5.75,20.91 2,7.31 3.78,13.87 5.75,21.19 2,7.41 3.79,14.07 5.75,21.48 2,7.51 3.79,14.26 5.76,21.78 1.99,7.61 3.78,14.45 5.75,22.07 1.99,7.71 3.78,14.64 5.75,22.36 1.99,7.82 3.78,14.84 5.75,22.67 1.99,7.91 3.78,15.03 5.75,22.95 2,8.03 5.75,23.27 5.75,23.27" style="fill:none;stroke:#000000;stroke-width:6.97385;stroke-linecap:butt;stroke-linejoin:miter;stroke-miterlimit:10;stroke-dasharray:none;stroke-opacity:1" transform="matrix(0.13333333,0,0,-0.13333333,0,1122.6667)" clip-path="url(#clipPath61)"/>
    <path id="path62" d="m 2603.95,4444.91 c 0,0 14.65,117.53 23.12,179.36 7.54,55.03 14.61,104.41 23.11,159.3 7.51,48.43 14.56,91.87 23.12,140.13 7.47,42.14 14.5,79.92 23.12,121.85 7.43,36.17 14.43,68.58 23.12,104.47 7.37,30.51 14.35,57.84 23.11,87.98 7.33,25.18 14.25,47.71 23.12,72.39 7.25,20.18 14.12,38.22 23.12,57.69 7.18,15.53 13.98,29.41 23.11,43.88 7.12,11.27 13.91,21.33 23.12,30.97 7.12,7.45 14.11,13.96 23.12,18.95 7.35,4.08 14.76,6.9 23.12,7.83 7.94,0.89 15.43,-0.13 23.11,-2.4 8.57,-2.52 15.71,-6.73 23.12,-11.73 8.77,-5.92 15.71,-12.61 23.12,-20.18 8.7,-8.9 15.64,-17.76 23.11,-27.72 8.58,-11.43 15.56,-22.24 23.12,-34.38 8.45,-13.56 15.47,-26.09 23.11,-40.13 8.35,-15.33 15.41,-29.33 23.12,-44.99 8.26,-16.77 15.34,-31.98 23.12,-48.97 8.18,-17.87 15.28,-34.03 23.12,-52.05 8.11,-18.65 15.21,-35.48 23.11,-54.22 8.06,-19.13 15.17,-36.35 23.12,-55.51 8,-19.29 15.11,-36.63 23.12,-55.91 7.95,-19.14 15.05,-36.32 23.12,-55.41 7.89,-18.68 14.99,-35.44 23.11,-54.01 7.84,-17.91 14.93,-33.98 23.12,-51.72 7.77,-16.85 14.85,-31.93 23.12,-48.54 7.7,-15.48 14.75,-29.33 23.11,-44.47 7.64,-13.82 14.66,-26.16 23.12,-39.49 7.55,-11.88 14.52,-22.47 23.12,-33.63 7.46,-9.68 14.4,-18.29 23.12,-26.86 7.39,-7.27 14.35,-13.68 23.11,-19.21 7.42,-4.69 14.61,-8.56 23.12,-10.67 7.74,-1.92 15.25,-2.5 23.12,-1.22 8.44,1.37 15.81,4.65 23.11,9.11 9.06,5.53 16.01,12.46 23.12,20.35 9.21,10.2 15.99,20.7 23.12,32.46 9.12,15.06 15.92,29.42 23.12,45.49 8.98,20.07 15.85,38.64 23.11,59.4 8.86,25.31 15.79,48.4 23.12,74.2 8.75,30.82 15.73,58.74 23.12,89.91 8.67,36.59 15.68,69.64 23.11,106.5 8.61,42.67 15.64,81.12 23.12,124 8.55,49.03 15.6,93.17 23.11,142.37 8.51,55.71 15.58,105.81 23.12,161.65 8.47,62.68 15.55,119.03 23.12,181.83 8.43,69.96 15.53,132.83 23.12,202.89 8.4,77.55 23.11,224.85 23.11,224.85" style="fill:none;stroke:#000000;stroke-width:6.97385;stroke-linecap:butt;stroke-linejoin:miter;stroke-miterlimit:10;stroke-dasharray:none;stroke-opacity:1" transform="matrix(0.13333333,0,0,-0.13333333,0,1122.6667)" clip-path="url(#clipPath61)"/>
    <path id="path63" d="m 5.2962812,-2.989375 c 0,-1.2773437 -1.0546875,-2.3203125 -2.3085937,-2.3203125 -1.3007813,0 -2.3203125,1.0664063 -2.3203125,2.3203125 0,1.2773438 1.0546875,2.3203125 2.3085937,2.3203125 1.3007813,0 2.3203125,-1.0664062 2.3203125,-2.3203125 z m 0,0" style="fill:#ff0000;fill-opacity:1;fill-rule:nonzero;stroke:none" aria-label="•" transform="matrix(1.3333333,0,0,1.3333333,362.92267,423.67333)"/>
    <g id="g63" aria-label="P&#10;1" transform="matrix(1.3333333,0,0,1.3333333,347.072,423.54267)" clip-path="url(#clipPath66)">
      <path id="path64" d="m 2.5065469,-2.4841484 h 1.453125 c 1.1484375,0 2.34375,-0.796875 2.34375,-1.734375 0,-0.6796875 -0.6445313,-1.21875 -1.6640625,-1.21875 H 1.9557656 c -0.1523437,0 -0.2460937,0 -0.2460937,0.140625 0,0.1171875 0.09375,0.1171875 0.2226562,0.1171875 0.2695313,0 0.4921875,0 0.4921875,0.1289062 0,0.035156 0,0.035156 -0.023437,0.140625 l -1.0664062,4.27734376 c -0.082031,0.29296875 -0.09375,0.375 -0.65625002,0.375 -0.1875,0 -0.26953125,0 -0.26953125,0.140625 0,0.03515625 0.0234375,0.1171875025 0.12890625,0.1171875025 0.140625,0 0.33984375,-0.0117187525 0.49218752,-0.0234375025 h 0.5039062 c 0.7734375,0 0.9726563,0.0234375025 1.03125,0.0234375025 0.046875,0 0.1640625,0 0.1640625,-0.1523437525 0,-0.10546875 -0.1054687,-0.10546875 -0.2460937,-0.10546875 -0.023437,0 -0.1640625,0 -0.3046875,-0.0234375 -0.1640625,-0.0117188 -0.1757813,-0.0351563 -0.1757813,-0.10546875 0,-0.046875 0.011719,-0.09375 0.023437,-0.12890625 z m 0.5859375,-2.4023438 c 0.070312,-0.2695312 0.082031,-0.2929687 0.4101562,-0.2929687 h 0.8671875 c 0.65625,0 1.1601563,0.1875 1.1601563,0.7851562 0,0.09375 -0.035156,0.8085938 -0.4921875,1.2421875 -0.1171875,0.1289063 -0.4921875,0.421875 -1.2773438,0.421875 H 2.5534219 Z m 0,0" style="fill:#000000;fill-opacity:1;fill-rule:nonzero;stroke:none"/>
      <path id="path65" d="m 7.5456094,-2.7155937 c 0,-0.1757813 -0.023437,-0.1757813 -0.1992188,-0.1757813 -0.3984375,0.375 -1.0078125,0.375 -1.21875,0.375 V -2.282 c 0.1523438,0 0.5507813,0 0.9023438,-0.1640625 V 0.577375 c 0,0.1875 0,0.26953125 -0.609375,0.26953125 H 6.1627969 V 1.0812813 c 0.328125,-0.023437 0.796875,-0.023437 1.125,-0.023437 0.3398437,0 0.796875,0 1.1367187,0.023437 V 0.84690625 H 8.1667031 c -0.6210937,0 -0.6210937,-0.0820313 -0.6210937,-0.26953125 z m 0,0" style="fill:#000000;fill-opacity:1;fill-rule:nonzero;stroke:none"/>
    </g>
    <path id="path67" d="m 5.2980703,-2.9896953 c 0,-1.2773438 -1.0546875,-2.3203125 -2.3085937,-2.3203125 -1.3007813,0 -2.32031254,1.0664062 -2.32031254,2.3203125 0,1.2773437 1.05468754,2.32031249 2.30859374,2.32031249 1.3007813,0 2.3203125,-1.06640629 2.3203125,-2.32031249 z m 0,0" style="fill:#ff0000;fill-opacity:1;fill-rule:nonzero;stroke:none" aria-label="•" transform="matrix(1.3333333,0,0,1.3333333,406.932,432.30267)"/>
    <g id="g67" aria-label="P&#10;2" transform="matrix(1.3333333,0,0,1.3333333,403.908,420.27467)" clip-path="url(#clipPath70)">
      <path id="path68" d="m 2.5065,-2.4852969 h 1.453125 c 1.1484375,0 2.34375,-0.796875 2.34375,-1.734375 0,-0.6796875 -0.6445312,-1.21875 -1.6640625,-1.21875 H 1.9557188 c -0.1523438,0 -0.2460938,0 -0.2460938,0.140625 0,0.1171875 0.09375,0.1171875 0.2226563,0.1171875 0.2695312,0 0.4921875,0 0.4921875,0.1289063 0,0.035156 0,0.035156 -0.023437,0.140625 L 1.334625,-0.63373437 c -0.082031,0.29296875 -0.09375,0.375 -0.65625,0.375 -0.1875,0 -0.26953125,0 -0.26953125,0.140625 0,0.03515625 0.0234375,0.117187495 0.12890625,0.117187495 0.140625,0 0.33984375,-0.011718745 0.4921875,-0.023437495 h 0.5039063 c 0.7734375,0 0.9726562,0.023437495 1.03125,0.023437495 0.046875,0 0.1640625,0 0.1640625,-0.152343745 0,-0.10546875 -0.1054688,-0.10546875 -0.2460938,-0.10546875 -0.023437,0 -0.1640625,0 -0.3046875,-0.0234375 -0.1640625,-0.0117188 -0.1757812,-0.0351563 -0.1757812,-0.10546875 0,-0.046875 0.011719,-0.09375 0.023437,-0.12890625 z m 0.5859375,-2.4023437 c 0.070312,-0.2695313 0.082031,-0.2929688 0.4101563,-0.2929688 h 0.8671875 c 0.65625,0 1.1601562,0.1875 1.1601562,0.7851563 0,0.09375 -0.035156,0.8085937 -0.4921875,1.2421875 -0.1171875,0.1289062 -0.4921875,0.421875 -1.2773437,0.421875 H 2.553375 Z m 0,0" style="fill:#000000;fill-opacity:1;fill-rule:nonzero;stroke:none"/>
      <path id="path69" d="M 8.6119688,-0.03314844 H 8.4010313 c -0.023437,0.08203125 -0.082031,0.46875 -0.1640625,0.5390625 -0.046875,0.0351563 -0.5273438,0.0351563 -0.609375,0.0351563 h -1.125 C 6.678375,0.40044531 7.10025,0.06060156 7.2760313,-0.08002344 c 0.1992187,-0.1640625 0.7265625,-0.5390625 0.9140625,-0.7265625 0.1757812,-0.17578125 0.421875,-0.48046876 0.421875,-0.90234376 0,-0.75 -0.6679688,-1.1835937 -1.4765625,-1.1835937 -0.7617188,0 -1.3007813,0.5039062 -1.3007813,1.0664062 0,0.3046875 0.2578125,0.3398438 0.3164063,0.3398438 0.1523437,0 0.328125,-0.1054688 0.328125,-0.3164063 0,-0.140625 -0.082031,-0.328125 -0.3398438,-0.328125 0.1289063,-0.3046875 0.5039063,-0.5273437 0.9140625,-0.5273437 0.6210938,0 0.9609375,0.46875 0.9609375,0.9492187 0,0.421875 -0.28125,0.85546876 -0.703125,1.24218751 L 5.8932188,0.83403906 C 5.834625,0.89263281 5.834625,0.89263281 5.834625,1.0801328 h 2.6015625 z m 0,0" style="fill:#000000;fill-opacity:1;fill-rule:nonzero;stroke:none"/>
    </g>
    <path id="path71" d="m 5.2983281,-2.9886719 c 0,-1.2773437 -1.0546875,-2.3203125 -2.3085937,-2.3203125 -1.3007813,0 -2.32031252,1.0664063 -2.32031252,2.3203125 0,1.2773438 1.05468752,2.32031253 2.30859372,2.32031253 1.3007813,0 2.3203125,-1.06640623 2.3203125,-2.32031253 z m 0,0" style="fill:#ff0000;fill-opacity:1;fill-rule:nonzero;stroke:none" aria-label="•" transform="matrix(1.3333333,0,0,1.3333333,351.584,474.63333)"/>
    <g id="g71" aria-label="P&#10;3&#10;ℓ" transform="matrix(1.3333333,0,0,1.3333333,340.412,464.87333)" clip-path="url(#clipPath75)">
      <path id="path72" d="m 2.5064297,-2.483125 h 1.453125 c 1.1484375,0 2.34375,-0.796875 2.34375,-1.734375 0,-0.6796875 -0.6445313,-1.21875 -1.6640625,-1.21875 H 1.9556484 c -0.1523437,0 -0.2460937,0 -0.2460937,0.140625 0,0.1171875 0.09375,0.1171875 0.2226562,0.1171875 0.2695313,0 0.4921875,0 0.4921875,0.1289063 0,0.035156 0,0.035156 -0.023437,0.140625 l -1.0664062,4.2773437 c -0.082031,0.29296875 -0.09375,0.375 -0.65625001,0.375 -0.1875,0 -0.26953125,0 -0.26953125,0.140625 0,0.03515625 0.0234375,0.1171875 0.12890625,0.1171875 0.140625,0 0.33984375,-0.01171875 0.49218751,-0.0234375 h 0.5039062 c 0.7734375,0 0.9726563,0.0234375 1.03125,0.0234375 0.046875,0 0.1640625,0 0.1640625,-0.15234375 0,-0.10546875 -0.1054687,-0.10546875 -0.2460937,-0.10546875 -0.023437,0 -0.1640625,0 -0.3046875,-0.0234375 -0.1640625,-0.0117188 -0.1757813,-0.0351563 -0.1757813,-0.10546875 0,-0.046875 0.011719,-0.09375 0.023437,-0.12890625 z M 3.0923672,-4.8854687 C 3.1626797,-5.155 3.1743984,-5.1784375 3.5025234,-5.1784375 h 0.8671875 c 0.65625,0 1.1601563,0.1875 1.1601563,0.7851563 0,0.09375 -0.035156,0.8085937 -0.4921875,1.2421875 -0.1171875,0.1289062 -0.4921875,0.421875 -1.2773438,0.421875 H 2.5533047 Z m 0,0" style="fill:#000000;fill-opacity:1;fill-rule:nonzero;stroke:none"/>
      <path id="path73" d="m 7.1587734,-0.90109375 c 0.5039063,0 0.84375,0.33984375 0.84375,0.94921875 0,0.65625 -0.3867187,0.9375 -0.8320312,0.9375 -0.1523438,0 -0.7734375,-0.0351563 -1.0429688,-0.375 0.234375,-0.0234375 0.328125,-0.1875 0.328125,-0.33984375 0,-0.2109375 -0.140625,-0.33984375 -0.3398437,-0.33984375 -0.1640625,0 -0.3398438,0.09375 -0.3398438,0.3515625 0,0.5859375 0.65625,0.9257813 1.4179688,0.9257813 0.8789062,0 1.4765625,-0.5742188 1.4765625,-1.1601563 0,-0.43359375 -0.3398438,-0.90234375 -1.0429688,-1.078125 0.46875,-0.1523437 0.8554688,-0.5390625 0.8554688,-1.03125 0,-0.4804687 -0.5625,-0.8320312 -1.2773438,-0.8320312 -0.703125,0 -1.2421875,0.3164062 -1.2421875,0.8085937 0,0.2578125 0.1992188,0.328125 0.3164063,0.328125 0.1640625,0 0.328125,-0.1054687 0.328125,-0.3164062 0,-0.1875 -0.140625,-0.2929688 -0.2929688,-0.3164063 0.2695313,-0.3046875 0.8203125,-0.3046875 0.8671875,-0.3046875 0.3046875,0 0.6914063,0.140625 0.6914063,0.6328125 0,0.328125 -0.1875,0.9023438 -0.7851563,0.9375 -0.1054687,0.011719 -0.2695312,0.023437 -0.3164062,0.023437 -0.058594,0 -0.1289063,0.011719 -0.1289063,0.10546875 0,0.09375 0.070312,0.09375 0.1640625,0.09375 z m 0,0" style="fill:#000000;fill-opacity:1;fill-rule:nonzero;stroke:none"/>
      <path id="path74" d="m -2.7230625,50.078398 c -0.75,0.738282 -0.9492187,0.914063 -0.9492187,0.960938 0,0.04687 0.046875,0.128906 0.1289062,0.128906 0.070312,0 0.75,-0.65625 0.84375,-0.761719 0.070312,0.796875 0.375,1.839844 1.3007813,1.839844 0.4804687,0 0.91406245,-0.292969 1.10156245,-0.445312 0.15234375,-0.117188 0.7265625,-0.609375 0.7265625,-0.714844 0,-0.05859 -0.0585938,-0.128906 -0.1171875,-0.128906 -0.046875,0 -0.22265625,0.175781 -0.28125,0.222656 -0.41015625,0.410156 -0.9375,0.832031 -1.41796875,0.832031 -0.6445312,0 -0.7265625,-0.9375 -0.7265625,-1.582031 0,-0.117188 0,-0.621094 0.082031,-0.714844 0.703125,-0.726562 2.9179687,-3.011719 2.9179687,-5.132812 0,-0.46875 -0.17578125,-0.890625 -0.69140625,-0.890625 -1.11328125,0 -2.08593745,2.460937 -2.24999995,2.917968 -0.046875,0.117188 -0.7382813,1.957032 -0.6679685,3.46875 z m 0.7148438,-0.75 c 0.011719,-0.07031 0.5507812,-3.199218 1.5585937,-4.875 0.19921875,-0.316406 0.3984375,-0.527343 0.64453125,-0.527343 0.3984375,0 0.421875,0.386718 0.421875,0.644531 0,0.421875 -0.1171875,1.5 -1.1484375,3 -0.31640625,0.445312 -0.79687495,1.042969 -1.47656245,1.757812 z m 0,0" style="fill:#000000;fill-opacity:1;fill-rule:nonzero;stroke:none"/>
    </g>
    <path id="path76" d="m 5.296125,-2.9893281 c 0,-1.2773438 -1.0546875,-2.3203125 -2.3085937,-2.3203125 -1.3007813,0 -2.32031255,1.0664062 -2.32031255,2.3203125 0,1.2773437 1.05468755,2.32031248 2.30859375,2.32031248 1.3007813,0 2.3203125,-1.06640628 2.3203125,-2.32031248 z m 0,0" style="fill:#ff0000;fill-opacity:1;fill-rule:nonzero;stroke:none" aria-label="•" transform="matrix(1.3333333,0,0,1.3333333,420.376,464.33733)"/>
    <g id="g76" aria-label="P&#10;4" transform="matrix(1.3333333,0,0,1.3333333,408.06933,464.78133)" clip-path="url(#clipPath79)">
      <path id="path77" d="m 2.5085469,-2.4844375 h 1.453125 c 1.1484375,0 2.34375,-0.796875 2.34375,-1.734375 0,-0.6796875 -0.6445313,-1.21875 -1.6640625,-1.21875 H 1.9577656 c -0.1523437,0 -0.2460937,0 -0.2460937,0.140625 0,0.1171875 0.09375,0.1171875 0.2226562,0.1171875 0.2695313,0 0.4921875,0 0.4921875,0.1289063 0,0.035156 0,0.035156 -0.023437,0.140625 L 1.3366719,-0.632875 c -0.082031,0.29296875 -0.09375,0.375 -0.65625003,0.375 -0.1875,0 -0.26953125,0 -0.26953125,0.140625 0,0.03515625 0.0234375,0.1171875 0.12890625,0.1171875 0.140625,0 0.33984375,-0.01171875 0.49218753,-0.0234375 h 0.5039062 c 0.7734375,0 0.9726563,0.0234375 1.03125,0.0234375 0.046875,0 0.1640625,0 0.1640625,-0.15234375 0,-0.10546875 -0.1054687,-0.10546875 -0.2460937,-0.10546875 -0.023437,0 -0.1640625,0 -0.3046875,-0.0234375 -0.1640625,-0.0117188 -0.1757813,-0.0351563 -0.1757813,-0.10546875 0,-0.046875 0.011719,-0.09375 0.023437,-0.12890625 z M 3.0944844,-4.8867812 C 3.1647969,-5.1563125 3.1765156,-5.17975 3.5046406,-5.17975 h 0.8671875 c 0.65625,0 1.1601563,0.1875 1.1601563,0.7851563 0,0.09375 -0.035156,0.8085937 -0.4921875,1.2421875 -0.1171875,0.1289062 -0.4921875,0.421875 -1.2773438,0.421875 H 2.5554219 Z m 0,0" style="fill:#000000;fill-opacity:1;fill-rule:nonzero;stroke:none"/>
      <path id="path78" d="m 8.7751484,0.09661719 v -0.234375 H 8.0720234 V -2.7744766 c 0,-0.140625 0,-0.1757812 -0.1523437,-0.1757812 -0.1054688,0 -0.1171875,0.011719 -0.1757813,0.082031 l -2.0742187,2.73046879 v 0.234375 h 1.8632812 v 0.48046875 c 0,0.19921875 0,0.26953125 -0.5039062,0.26953125 H 6.8532734 V 1.0809922 c 0.1289063,-0.011719 0.6914063,-0.023437 0.9492188,-0.023437 0.2578125,0 0.8203125,0.011719 0.9492187,0.023437 V 0.84661719 H 8.5759297 c -0.5039063,0 -0.5039063,-0.0703125 -0.5039063,-0.26953125 V 0.09661719 Z M 7.5798359,-2.3057266 v 2.16796879 H 5.9274922 Z m 0,0" style="fill:#000000;fill-opacity:1;fill-rule:nonzero;stroke:none"/>
    </g>
    <path id="path80" d="m 5.2973438,-2.9873672 c 0,-1.2773437 -1.0546875,-2.3203125 -2.3085938,-2.3203125 -1.3007812,0 -2.3203125,1.0664063 -2.3203125,2.3203125 0,1.2773438 1.0546875,2.32031251 2.3085938,2.32031251 1.3007812,0 2.3203125,-1.06640621 2.3203125,-2.32031251 z m 0,-39.0820308 c 0,-1.277344 -1.0546875,-2.320313 -2.3085938,-2.320313 -1.3007812,0 -2.3203125,1.066406 -2.3203125,2.320313 0,1.277343 1.0546875,2.320312 2.3085938,2.320312 1.3007812,0 2.3203125,-1.066406 2.3203125,-2.320312 z m 0,0" style="fill:#0000ff;fill-opacity:1;fill-rule:nonzero;stroke:none" aria-label="•&#10;•" transform="matrix(1.3333333,0,0,1.3333333,470.64,471.948)"/>
    <g id="g80" aria-label="P&#10;′&#10;1&#10;¯&#10;P&#10;1" transform="matrix(1.3333333,0,0,1.3333333,457.2,412.85467)" clip-path="url(#clipPath87)">
      <path id="path81" d="m 2.5072266,-2.4837734 h 1.453125 c 1.1484375,0 2.34375,-0.796875 2.34375,-1.734375 0,-0.6796875 -0.6445313,-1.21875 -1.6640625,-1.21875 H 1.9564453 c -0.1523437,0 -0.2460937,0 -0.2460937,0.140625 0,0.1171875 0.09375,0.1171875 0.2226562,0.1171875 0.2695313,0 0.4921875,0 0.4921875,0.1289062 0,0.035156 0,0.035156 -0.023437,0.140625 l -1.0664062,4.27734376 c -0.082031,0.29296875 -0.09375,0.375 -0.65625004,0.375 -0.1875,0 -0.26953125,0 -0.26953125,0.140625 0,0.03515625 0.0234375,0.1171875025 0.12890625,0.1171875025 0.140625,0 0.33984375,-0.0117187525 0.49218754,-0.0234375025 h 0.5039062 c 0.7734375,0 0.9726563,0.0234375025 1.03125,0.0234375025 0.046875,0 0.1640625,0 0.1640625,-0.1523437525 0,-0.10546875 -0.1054687,-0.10546875 -0.2460937,-0.10546875 -0.023437,0 -0.1640625,0 -0.3046875,-0.0234375 -0.1640625,-0.0117188 -0.1757813,-0.0351563 -0.1757813,-0.10546875 0,-0.046875 0.011719,-0.09375 0.023437,-0.12890625 z m 0.5859375,-2.4023438 c 0.070312,-0.2695312 0.082031,-0.2929687 0.4101562,-0.2929687 h 0.8671875 c 0.65625,0 1.1601563,0.1875 1.1601563,0.7851562 0,0.09375 -0.035156,0.8085938 -0.4921875,1.2421875 -0.1171875,0.1289063 -0.4921875,0.421875 -1.2773438,0.421875 H 2.5541016 Z m 0,0" style="fill:#000000;fill-opacity:1;fill-rule:nonzero;stroke:none"/>
      <path id="path82" d="m 8.475,-5.6800625 c 0.035156,-0.09375 0.058594,-0.1289062 0.058594,-0.1992187 0,-0.1992188 -0.1875,-0.3398438 -0.3632813,-0.3398438 -0.1992187,0 -0.2929687,0.140625 -0.328125,0.2578125 l -0.84375,2.6015625 c -0.035156,0.082031 -0.035156,0.09375 -0.035156,0.09375 0,0.09375 0.1875,0.1523438 0.2460937,0.1523438 0.058594,0 0.082031,-0.046875 0.1054688,-0.09375 z m 0,0" style="fill:#000000;fill-opacity:1;fill-rule:nonzero;stroke:none"/>
      <path id="path83" d="m 7.5433594,-1.3968594 c 0,-0.1757812 -0.023437,-0.1757812 -0.1992188,-0.1757812 -0.3984375,0.375 -1.0078125,0.375 -1.21875,0.375 v 0.23437498 c 0.1523438,0 0.5507813,0 0.9023438,-0.16406248 v 3.0234375 c 0,0.1875 0,0.2695312 -0.609375,0.2695312 H 6.1605469 v 0.234375 c 0.328125,-0.023437 0.796875,-0.023437 1.125,-0.023437 0.3398437,0 0.796875,0 1.1367187,0.023437 V 2.1656406 H 8.1644531 c -0.6210937,0 -0.6210937,-0.082031 -0.6210937,-0.2695312 z m 0,0" style="fill:#000000;fill-opacity:1;fill-rule:nonzero;stroke:none"/>
      <path id="path84" d="m 5.5541016,33.920523 v -0.304687 h -3.046875 v 0.304687 z m 0,0" style="fill:#000000;fill-opacity:1;fill-rule:nonzero;stroke:none"/>
      <path id="path85" d="m 2.5072266,37.916617 h 1.453125 c 1.1484375,0 2.34375,-0.796875 2.34375,-1.734375 0,-0.679687 -0.6445313,-1.21875 -1.6640625,-1.21875 H 1.9564453 c -0.1523437,0 -0.2460937,0 -0.2460937,0.140625 0,0.117188 0.09375,0.117188 0.2226562,0.117188 0.2695313,0 0.4921875,0 0.4921875,0.128906 0,0.03516 0,0.03516 -0.023437,0.140625 L 1.3353516,39.76818 c -0.082031,0.292968 -0.09375,0.375 -0.65625004,0.375 -0.1875,0 -0.26953125,0 -0.26953125,0.140625 0,0.03516 0.0234375,0.117187 0.12890625,0.117187 0.140625,0 0.33984375,-0.01172 0.49218754,-0.02344 h 0.5039062 c 0.7734375,0 0.9726563,0.02344 1.03125,0.02344 0.046875,0 0.1640625,0 0.1640625,-0.152344 0,-0.105468 -0.1054687,-0.105468 -0.2460937,-0.105468 -0.023437,0 -0.1640625,0 -0.3046875,-0.02344 -0.1640625,-0.01172 -0.1757813,-0.03516 -0.1757813,-0.105469 0,-0.04687 0.011719,-0.09375 0.023437,-0.128906 z m 0.5859375,-2.402344 c 0.070312,-0.269531 0.082031,-0.292968 0.4101562,-0.292968 h 0.8671875 c 0.65625,0 1.1601563,0.1875 1.1601563,0.785156 0,0.09375 -0.035156,0.808594 -0.4921875,1.242187 -0.1171875,0.128907 -0.4921875,0.421875 -1.2773438,0.421875 H 2.5541016 Z m 0,0" style="fill:#000000;fill-opacity:1;fill-rule:nonzero;stroke:none"/>
      <path id="path86" d="m 7.5433594,37.685172 c 0,-0.175781 -0.023437,-0.175781 -0.1992188,-0.175781 -0.3984375,0.375 -1.0078125,0.375 -1.21875,0.375 v 0.234375 c 0.1523438,0 0.5507813,0 0.9023438,-0.164063 v 3.023438 c 0,0.1875 0,0.269531 -0.609375,0.269531 H 6.1605469 v 0.234375 c 0.328125,-0.02344 0.796875,-0.02344 1.125,-0.02344 0.3398437,0 0.796875,0 1.1367187,0.02344 V 41.247672 H 8.1644531 c -0.6210937,0 -0.6210937,-0.08203 -0.6210937,-0.269531 z m 0,0" style="fill:#000000;fill-opacity:1;fill-rule:nonzero;stroke:none"/>
    </g>
    <path id="path88" d="m 5.2972031,-2.9892734 c 0,-1.2773438 -1.0546875,-2.3203125 -2.3085937,-2.3203125 -1.3007813,0 -2.32031252,1.0664062 -2.32031252,2.3203125 0,1.2773437 1.05468752,2.32031246 2.30859372,2.32031246 1.3007813,0 2.3203125,-1.06640626 2.3203125,-2.32031246 z m 0,111.1728534 c 0,-1.27735 -1.0546875,-2.32031 -2.3085937,-2.32031 -1.3007813,0 -2.32031252,1.0664 -2.32031252,2.32031 0,1.27734 1.05468752,2.32031 2.30859372,2.32031 1.3007813,0 2.3203125,-1.06641 2.3203125,-2.32031 z m 0,0" style="fill:#0000ff;fill-opacity:1;fill-rule:nonzero;stroke:none" aria-label="•&#10;•" transform="matrix(1.3333333,0,0,1.3333333,487.648,371.77867)"/>
    <g id="g88" aria-label="P&#10;′&#10;2&#10;¯&#10;P&#10;2" transform="matrix(1.3333333,0,0,1.3333333,490.08267,509.848)" clip-path="url(#clipPath95)">
      <path id="path89" d="m 2.5073359,-2.4846328 h 1.453125 c 1.1484375,0 2.34375,-0.796875 2.34375,-1.734375 0,-0.6796875 -0.6445312,-1.21875 -1.6640625,-1.21875 H 1.9565547 c -0.1523438,0 -0.2460938,0 -0.2460938,0.140625 0,0.1171875 0.09375,0.1171875 0.2226563,0.1171875 0.2695312,0 0.4921875,0 0.4921875,0.1289062 0,0.035156 0,0.035156 -0.023437,0.140625 l -1.0664063,4.27734379 c -0.082031,0.29296875 -0.09375,0.375 -0.65624996,0.375 -0.1875,0 -0.26953125,0 -0.26953125,0.140625 0,0.03515625 0.0234375,0.1171874975 0.12890625,0.1171874975 0.140625,0 0.33984375,-0.0117187475 0.49218746,-0.0234374975 h 0.5039063 c 0.7734375,0 0.9726562,0.0234374975 1.03125,0.0234374975 0.046875,0 0.1640625,0 0.1640625,-0.1523437475 0,-0.10546875 -0.1054688,-0.10546875 -0.2460938,-0.10546875 -0.023437,0 -0.1640625,0 -0.3046875,-0.0234375 -0.1640625,-0.0117188 -0.1757812,-0.0351563 -0.1757812,-0.10546875 0,-0.046875 0.011719,-0.09375 0.023437,-0.12890625 z m 0.5859375,-2.4023438 c 0.070312,-0.2695312 0.082031,-0.2929687 0.4101563,-0.2929687 h 0.8671875 c 0.65625,0 1.1601562,0.1875 1.1601562,0.7851562 0,0.09375 -0.035156,0.8085938 -0.4921875,1.2421875 -0.1171875,0.1289063 -0.4921875,0.421875 -1.2773437,0.421875 H 2.5542109 Z m 0,0" style="fill:#000000;fill-opacity:1;fill-rule:nonzero;stroke:none"/>
      <path id="path90" d="m 8.4751094,-5.6809219 c 0.035156,-0.09375 0.058594,-0.1289062 0.058594,-0.1992187 0,-0.1992188 -0.1875,-0.3398438 -0.3632812,-0.3398438 -0.1992188,0 -0.2929688,0.140625 -0.328125,0.2578125 l -0.84375,2.6015625 c -0.035156,0.082031 -0.035156,0.09375 -0.035156,0.09375 0,0.09375 0.1875,0.1523438 0.2460938,0.1523438 0.058594,0 0.082031,-0.046875 0.1054687,-0.09375 z m 0,0" style="fill:#000000;fill-opacity:1;fill-rule:nonzero;stroke:none"/>
      <path id="path91" d="M 8.609875,1.285875 H 8.3989375 C 8.3755,1.3679063 8.3169062,1.754625 8.234875,1.8249375 8.188,1.8600938 7.7075312,1.8600938 7.6255,1.8600938 H 6.5005 C 6.6762812,1.7194688 7.0981562,1.379625 7.2739375,1.239 7.4731562,1.0749375 8.0005,0.6999375 8.188,0.5124375 8.3637812,0.33665625 8.609875,0.03196875 8.609875,-0.38990625 8.609875,-1.1399062 7.9419062,-1.5735 7.1333125,-1.5735 c -0.7617188,0 -1.3007813,0.5039063 -1.3007813,1.06640625 0,0.3046875 0.2578125,0.33984375 0.3164063,0.33984375 0.1523437,0 0.328125,-0.10546875 0.328125,-0.31640625 0,-0.140625 -0.082031,-0.328125 -0.3398438,-0.328125 C 6.266125,-1.1164687 6.641125,-1.339125 7.0512812,-1.339125 c 0.6210938,0 0.9609375,0.46875 0.9609375,0.94921875 0,0.421875 -0.28125,0.85546875 -0.703125,1.2421875 L 5.891125,2.1530625 C 5.832531,2.2116565 5.832531,2.2116565 5.832531,2.3991563 h 2.6015625 z m 0,0" style="fill:#000000;fill-opacity:1;fill-rule:nonzero;stroke:none"/>
      <path id="path92" d="m 10.654797,-118.37428 v -0.30469 H 7.6079219 v 0.30469 z m 0,0" style="fill:#000000;fill-opacity:1;fill-rule:nonzero;stroke:none"/>
      <path id="path93" d="m 7.6108516,-114.37819 h 1.453125 c 1.1484374,0 2.3437504,-0.79687 2.3437504,-1.73437 0,-0.67969 -0.644532,-1.21875 -1.6640629,-1.21875 H 7.0600703 c -0.1523437,0 -0.2460937,0 -0.2460937,0.14062 0,0.11719 0.09375,0.11719 0.2226562,0.11719 0.2695313,0 0.4921875,0 0.4921875,0.12891 0,0.0352 0,0.0352 -0.023437,0.14062 l -1.0664062,4.27735 c -0.082031,0.29296 -0.09375,0.375 -0.65625,0.375 -0.1875,0 -0.2695313,0 -0.2695313,0.14062 0,0.0352 0.023437,0.11719 0.1289063,0.11719 0.140625,0 0.3398437,-0.0117 0.4921875,-0.0234 h 0.5039062 c 0.7734375,0 0.9726563,0.0234 1.03125,0.0234 0.046875,0 0.1640625,0 0.1640625,-0.15235 0,-0.10546 -0.1054687,-0.10546 -0.2460937,-0.10546 -0.023437,0 -0.1640625,0 -0.3046875,-0.0234 -0.1640625,-0.0117 -0.1757813,-0.0352 -0.1757813,-0.10547 0,-0.0469 0.011719,-0.0937 0.023437,-0.12891 z m 0.5859375,-2.40234 c 0.070312,-0.26953 0.082031,-0.29297 0.4101562,-0.29297 h 0.8671875 c 0.6562502,0 1.1601562,0.1875 1.1601562,0.78516 0,0.0937 -0.03516,0.80859 -0.492187,1.24218 -0.117188,0.12891 -0.4921879,0.42188 -1.2773442,0.42188 H 7.6577266 Z m 0,0" style="fill:#000000;fill-opacity:1;fill-rule:nonzero;stroke:none"/>
      <path id="path94" d="m 13.713391,-111.92604 h -0.210938 c -0.02344,0.082 -0.08203,0.46875 -0.164062,0.53906 -0.04687,0.0352 -0.527344,0.0352 -0.609375,0.0352 h -1.125 c 0.175781,-0.14063 0.597656,-0.48047 0.773437,-0.62109 0.199219,-0.16407 0.726563,-0.53907 0.914063,-0.72657 0.175781,-0.17578 0.421875,-0.48047 0.421875,-0.90234 0,-0.75 -0.667969,-1.18359 -1.476563,-1.18359 -0.761719,0 -1.300781,0.5039 -1.300781,1.0664 0,0.30469 0.257812,0.33985 0.316406,0.33985 0.152344,0 0.328125,-0.10547 0.328125,-0.31641 0,-0.14063 -0.08203,-0.32813 -0.339844,-0.32813 0.128907,-0.30468 0.503907,-0.52734 0.914063,-0.52734 0.621094,0 0.960937,0.46875 0.960937,0.94922 0,0.42187 -0.28125,0.85547 -0.703125,1.24219 l -1.417968,1.30078 c -0.05859,0.0586 -0.05859,0.0586 -0.05859,0.24609 h 2.601562 z m 0,0" style="fill:#000000;fill-opacity:1;fill-rule:nonzero;stroke:none"/>
    </g>
    
  </g>
</svg>