<svg version="1.1" id="svg1" width="292.00190844110057" height="262.002438769659" viewBox="260.00169929687036 164.00152655810714 292.00190844110057 262.002438769659" sodipodi:docname="ch3.pdf" xmlns:inkscape="http://www.inkscape.org/namespaces/inkscape" xmlns:sodipodi="http://sodipodi.sourceforge.net/DTD/sodipodi-0.dtd" xmlns="http://www.w3.org/2000/svg" xmlns:svg="http://www.w3.org/2000/svg" style="">
  <defs id="defs1"/>
  <sodipodi:namedview id="namedview1" pagecolor="#ffffff" bordercolor="#000000" borderopacity="0.25" inkscape:showpageshadow="2" inkscape:pageopacity="0.0" inkscape:pagecheckerboard="0" inkscape:deskcolor="#d1d1d1">
    <inkscape:page x="0" y="0" inkscape:label="13" id="page1" width="793.33331" height="1122.6667" margin="0" bleed="0"/>
  </sodipodi:namedview>
  <g id="g1" inkscape:groupmode="layer" inkscape:label="13">
    
    
    <path id="path4" d="m 2629.38,6111.4 c 0,0 7.82,-69.9 19.58,-104.68 4.79,-14.19 11.74,-26.01 19.57,-38.79 5.97,-9.74 12.19,-18 19.58,-26.71 6.25,-7.37 12.39,-13.56 19.57,-20.03 6.41,-5.77 12.53,-10.56 19.58,-15.52 6.5,-4.58 12.62,-8.32 19.58,-12.17 6.57,-3.64 12.67,-6.57 19.57,-9.56 6.63,-2.87 12.72,-5.15 19.57,-7.45 6.68,-2.24 12.76,-3.97 19.58,-5.7 6.7,-1.71 12.78,-3 19.58,-4.28 6.72,-1.26 12.79,-2.18 19.57,-3.08 6.74,-0.89 12.81,-1.51 19.58,-2.11 6.75,-0.59 12.81,-0.97 19.57,-1.33 6.76,-0.35 12.82,-0.55 19.58,-0.74 6.76,-0.18 12.82,-0.25 19.58,-0.32 6.75,-0.07 12.82,-0.06 19.57,-0.08 6.76,-0.01 12.82,0.01 19.58,-0.01 6.75,-0.02 12.82,-0.02 19.57,-0.11 6.76,-0.08 12.83,-0.17 19.58,-0.37 6.76,-0.21 12.82,-0.43 19.57,-0.82 6.77,-0.39 12.84,-0.8 19.58,-1.42 6.77,-0.62 12.84,-1.28 19.58,-2.18 6.77,-0.92 12.84,-1.86 19.57,-3.1 6.79,-1.25 12.86,-2.52 19.58,-4.13 6.8,-1.64 12.87,-3.26 19.57,-5.29 6.82,-2.05 12.89,-4.08 19.58,-6.53 6.83,-2.5 12.9,-4.93 19.58,-7.84 6.84,-2.97 12.91,-5.83 19.57,-9.19 6.86,-3.45 12.92,-6.74 19.57,-10.56 6.87,-3.94 12.93,-7.65 19.58,-11.93 6.87,-4.42 12.93,-8.55 19.58,-13.28 6.86,-4.89 12.92,-9.43 19.57,-14.61 6.87,-5.35 12.93,-10.28 19.58,-15.89 6.86,-5.79 12.92,-11.1 19.57,-17.13 6.86,-6.2 12.92,-11.88 19.58,-18.3 6.86,-6.6 12.91,-12.64 19.58,-19.43 6.85,-6.99 12.9,-13.35 19.57,-20.52 6.85,-7.35 12.91,-14.03 19.58,-21.54 6.84,-7.69 12.9,-14.68 19.57,-22.52 6.84,-8.03 12.9,-15.3 19.58,-23.45 6.83,-8.34 12.89,-15.89 19.57,-24.34 6.83,-8.65 12.89,-16.46 19.58,-25.2 6.82,-8.93 12.89,-16.99 19.58,-26.02 6.82,-9.19 12.88,-17.5 19.57,-26.78 6.82,-9.47 12.88,-18 19.58,-27.55 6.81,-9.71 12.87,-18.47 19.57,-28.26 6.82,-9.96 12.88,-18.93 19.58,-28.96 6.81,-10.19 12.87,-19.38 19.58,-29.64 6.8,-10.41 19.57,-30.28 19.57,-30.28" style="fill:none;stroke:#000000;stroke-width:7.97011;stroke-linecap:butt;stroke-linejoin:miter;stroke-miterlimit:10;stroke-dasharray:none;stroke-opacity:1" transform="matrix(0.13333333,0,0,-0.13333333,0,1122.6667)"/>
    <path id="path5" d="m 2629.38,6111.4 c 0,0 7.82,69.9 19.58,104.68 4.79,14.19 11.74,26.01 19.57,38.79 5.97,9.74 12.19,18 19.58,26.71 6.25,7.37 12.39,13.56 19.57,20.03 6.41,5.77 12.53,10.56 19.58,15.52 6.5,4.58 12.62,8.32 19.58,12.17 6.57,3.65 12.67,6.58 19.57,9.56 6.63,2.87 12.72,5.15 19.57,7.45 6.68,2.24 12.76,3.97 19.58,5.71 6.7,1.7 12.78,2.99 19.58,4.27 6.72,1.26 12.79,2.18 19.57,3.08 6.74,0.89 12.81,1.51 19.58,2.11 6.75,0.59 12.81,0.97 19.57,1.33 6.76,0.35 12.82,0.55 19.58,0.74 6.76,0.18 12.82,0.25 19.58,0.32 6.75,0.07 12.82,0.06 19.57,0.08 6.76,0.01 12.82,-0.01 19.58,0.01 6.75,0.02 12.82,0.02 19.57,0.11 6.76,0.08 12.83,0.17 19.58,0.38 6.76,0.2 12.82,0.43 19.57,0.81 6.77,0.39 12.84,0.8 19.58,1.42 6.77,0.62 12.84,1.28 19.58,2.19 6.77,0.91 12.84,1.85 19.57,3.09 6.79,1.25 12.86,2.52 19.58,4.13 6.8,1.64 12.87,3.27 19.57,5.29 6.82,2.05 12.89,4.08 19.58,6.53 6.83,2.5 12.9,4.94 19.58,7.84 6.84,2.97 12.91,5.83 19.57,9.19 6.86,3.45 12.92,6.74 19.57,10.56 6.87,3.94 12.93,7.65 19.58,11.93 6.87,4.42 12.93,8.55 19.58,13.28 6.86,4.9 12.92,9.44 19.57,14.61 6.87,5.35 12.93,10.29 19.58,15.89 6.86,5.79 12.92,11.11 19.57,17.13 6.86,6.2 12.92,11.88 19.58,18.3 6.86,6.61 12.91,12.64 19.58,19.43 6.85,6.99 12.9,13.36 19.57,20.52 6.85,7.35 12.91,14.03 19.58,21.54 6.84,7.69 12.9,14.68 19.57,22.52 6.84,8.03 12.9,15.3 19.58,23.45 6.83,8.34 12.89,15.89 19.57,24.35 6.83,8.64 12.89,16.45 19.58,25.19 6.82,8.93 12.89,16.99 19.58,26.02 6.82,9.19 12.88,17.5 19.57,26.79 6.82,9.46 12.88,18 19.58,27.54 6.81,9.71 12.87,18.47 19.57,28.26 6.82,9.96 12.88,18.93 19.58,28.96 6.81,10.2 12.87,19.38 19.58,29.64 6.8,10.41 19.57,30.28 19.57,30.28" style="fill:none;stroke:#000000;stroke-width:7.97011;stroke-linecap:butt;stroke-linejoin:miter;stroke-miterlimit:10;stroke-dasharray:none;stroke-opacity:1" transform="matrix(0.13333333,0,0,-0.13333333,0,1122.6667)"/>
    <path id="path6" d="m 2542.61,6249.5 c 0,0 13.98,5.58 21.35,8.53 7.37,2.94 13.98,5.59 21.35,8.53 7.36,2.94 13.98,5.59 21.34,8.53 7.37,2.95 13.98,5.59 21.35,8.53 7.37,2.95 13.98,5.59 21.35,8.54 7.36,2.94 13.98,5.59 21.34,8.53 7.37,2.95 13.98,5.59 21.35,8.53 7.37,2.95 13.98,5.59 21.35,8.54 7.36,2.94 13.98,5.58 21.34,8.53 7.37,2.94 13.98,5.59 21.35,8.53 7.37,2.95 13.98,5.59 21.35,8.54 7.36,2.94 13.98,5.58 21.34,8.53 7.37,2.94 13.98,5.59 21.35,8.53 7.36,2.94 13.98,5.59 21.34,8.53 7.37,2.95 13.99,5.59 21.35,8.53 7.37,2.95 13.98,5.59 21.35,8.54 7.36,2.94 13.98,5.59 21.34,8.53 7.37,2.95 13.98,5.59 21.35,8.54 7.36,2.94 13.98,5.58 21.35,8.53 7.36,2.94 13.98,5.59 21.34,8.53 7.37,2.94 13.98,5.59 21.35,8.53 7.37,2.95 13.98,5.59 21.34,8.53 7.37,2.95 13.98,5.59 21.35,8.54 7.37,2.94 13.98,5.59 21.35,8.53 7.37,2.95 13.98,5.59 21.35,8.53 7.36,2.95 13.97,5.59 21.34,8.54 7.37,2.94 13.98,5.58 21.35,8.53 7.37,2.94 13.98,5.59 21.35,8.53 7.36,2.95 13.98,5.59 21.34,8.54 7.37,2.94 13.98,5.58 21.35,8.53 7.37,2.94 13.98,5.59 21.35,8.53 7.36,2.94 13.98,5.59 21.34,8.53 7.37,2.95 13.98,5.59 21.35,8.53 7.36,2.95 13.98,5.59 21.34,8.54 7.37,2.94 13.99,5.59 21.35,8.53 7.37,2.95 13.98,5.59 21.35,8.53 7.36,2.95 13.98,5.59 21.34,8.54 7.37,2.94 13.98,5.58 21.35,8.53 7.36,2.94 13.98,5.59 21.34,8.53 7.37,2.94 13.99,5.59 21.35,8.53 7.37,2.95 13.98,5.59 21.35,8.54 7.36,2.94 13.98,5.59 21.34,8.53 7.37,2.95 13.98,5.59 21.35,8.53 7.37,2.95 13.98,5.59 21.35,8.54 7.37,2.94 13.98,5.58 21.34,8.53 7.37,2.94 13.98,5.58 21.35,8.53 7.37,2.95 13.98,5.59 21.35,8.54 7.37,2.94 13.98,5.58 21.35,8.53 7.36,2.94 21.34,8.53 21.34,8.53" style="fill:none;stroke:#000000;stroke-width:7.97011;stroke-linecap:butt;stroke-linejoin:miter;stroke-miterlimit:10;stroke-dasharray:none;stroke-opacity:1" transform="matrix(0.13333333,0,0,-0.13333333,0,1122.6667)"/>
    <path id="path7" d="m 2542.61,6179.58 c 0,0 13.98,-10.99 21.35,-16.78 7.37,-5.78 13.98,-10.98 21.35,-16.77 7.36,-5.79 13.98,-10.98 21.34,-16.77 7.37,-5.79 13.98,-10.99 21.35,-16.78 7.37,-5.78 13.98,-10.98 21.35,-16.77 7.36,-5.78 13.98,-10.98 21.34,-16.77 7.37,-5.79 13.98,-10.98 21.35,-16.77 7.37,-5.79 13.98,-10.99 21.35,-16.78 7.36,-5.78 13.98,-10.98 21.34,-16.77 7.37,-5.79 13.98,-10.98 21.35,-16.77 7.37,-5.79 13.98,-10.99 21.35,-16.78 7.36,-5.78 13.98,-10.98 21.34,-16.77 7.37,-5.78 13.98,-10.98 21.35,-16.77 7.36,-5.79 13.98,-10.98 21.34,-16.77 7.37,-5.79 13.99,-10.99 21.35,-16.78 7.37,-5.78 13.98,-10.98 21.35,-16.77 7.36,-5.78 13.98,-10.98 21.34,-16.77 7.37,-5.79 13.98,-10.99 21.35,-16.77 7.36,-5.79 13.98,-10.99 21.35,-16.78 7.36,-5.78 13.98,-10.98 21.34,-16.77 7.37,-5.79 13.98,-10.98 21.35,-16.77 7.37,-5.79 13.98,-10.99 21.34,-16.78 7.37,-5.78 13.98,-10.98 21.35,-16.77 7.37,-5.78 13.98,-10.98 21.35,-16.77 7.37,-5.79 13.98,-10.98 21.35,-16.77 7.36,-5.79 13.97,-10.99 21.34,-16.78 7.37,-5.78 13.98,-10.98 21.35,-16.77 7.37,-5.79 13.98,-10.98 21.35,-16.77 7.36,-5.79 13.98,-10.99 21.34,-16.77 7.37,-5.79 13.98,-10.99 21.35,-16.78 7.37,-5.78 13.98,-10.98 21.35,-16.77 7.36,-5.79 13.98,-10.98 21.34,-16.77 7.37,-5.79 13.98,-10.99 21.35,-16.78 7.36,-5.78 13.98,-10.98 21.34,-16.77 7.37,-5.78 13.99,-10.98 21.35,-16.77 7.37,-5.79 13.98,-10.99 21.35,-16.77 7.36,-5.79 13.98,-10.99 21.34,-16.78 7.37,-5.78 13.98,-10.98 21.35,-16.77 7.36,-5.79 13.98,-10.98 21.34,-16.77 7.37,-5.79 13.99,-10.99 21.35,-16.78 7.37,-5.78 13.98,-10.98 21.35,-16.77 7.36,-5.78 13.98,-10.98 21.34,-16.77 7.37,-5.79 13.98,-10.98 21.35,-16.77 7.37,-5.79 13.98,-10.99 21.35,-16.78 7.37,-5.78 13.98,-10.98 21.34,-16.77 7.37,-5.78 13.98,-10.98 21.35,-16.77 7.37,-5.79 13.98,-10.99 21.35,-16.77 7.37,-5.79 13.98,-10.99 21.35,-16.78 7.36,-5.78 21.34,-16.77 21.34,-16.77" style="fill:none;stroke:#000000;stroke-width:7.97011;stroke-linecap:butt;stroke-linejoin:miter;stroke-miterlimit:10;stroke-dasharray:none;stroke-opacity:1" transform="matrix(0.13333333,0,0,-0.13333333,0,1122.6667)"/>
    <path id="path8" d="m 5.2965547,-2.9885859 c 0,-1.2773438 -1.0546875,-2.3203125 -2.3085938,-2.3203125 -1.3007812,0 -2.32031246,1.0664062 -2.32031246,2.3203125 0,1.2773437 1.05468746,2.32031246 2.30859376,2.32031246 1.3007812,0 2.3203125,-1.06640626 2.3203125,-2.32031246 z m 0,0" style="fill:#ff0000;fill-opacity:1;fill-rule:nonzero;stroke:none" aria-label="•" transform="matrix(1.3333333,0,0,1.3333333,365.62933,280.684)"/>
    <path id="path9" d="m 2.5072578,-2.4858125 h 1.453125 c 1.1484375,0 2.34375,-0.796875 2.34375,-1.734375 0,-0.6796875 -0.6445312,-1.21875 -1.6640625,-1.21875 H 1.9564766 c -0.1523438,0 -0.2460938,0 -0.2460938,0.140625 0,0.1171875 0.09375,0.1171875 0.2226563,0.1171875 0.2695312,0 0.4921875,0 0.4921875,0.1289063 0,0.035156 0,0.035156 -0.023437,0.140625 L 1.3353828,-0.63425 c -0.082031,0.29296875 -0.09375,0.375 -0.65624999,0.375 -0.1875,0 -0.26953125,0 -0.26953125,0.140625 0,0.03515625 0.0234375,0.1171875 0.12890625,0.1171875 0.140625,0 0.33984375,-0.01171875 0.49218749,-0.0234375 h 0.5039063 c 0.7734375,0 0.9726562,0.0234375 1.03125,0.0234375 0.046875,0 0.1640625,0 0.1640625,-0.15234375 0,-0.10546875 -0.1054688,-0.10546875 -0.2460938,-0.10546875 -0.023437,0 -0.1640625,0 -0.3046875,-0.0234375 -0.1640625,-0.0117188 -0.1757812,-0.0351563 -0.1757812,-0.10546875 0,-0.046875 0.011719,-0.09375 0.023437,-0.12890625 z m 0.5859375,-2.4023437 c 0.070312,-0.2695313 0.082031,-0.2929688 0.4101563,-0.2929688 h 0.8671875 c 0.65625,0 1.1601562,0.1875 1.1601562,0.7851563 0,0.09375 -0.035156,0.8085937 -0.4921875,1.2421875 -0.1171875,0.1289062 -0.4921875,0.421875 -1.2773437,0.421875 H 2.5541328 Z m 0,0" style="fill:#000000;fill-opacity:1;fill-rule:nonzero;stroke:none" aria-label="P" transform="matrix(1.3333333,0,0,1.3333333,365.30933,268.97067)"/>
    <path id="path10" d="m 5.2961328,-2.9887969 c 0,-1.2773437 -1.0546875,-2.3203125 -2.3085937,-2.3203125 -1.3007813,0 -2.32031254,1.0664063 -2.32031254,2.3203125 0,1.2773438 1.05468754,2.32031253 2.30859374,2.32031253 1.3007813,0 2.3203125,-1.06640623 2.3203125,-2.32031253 z m 0,0" style="fill:#ff0000;fill-opacity:1;fill-rule:nonzero;stroke:none" aria-label="•" transform="matrix(1.3333333,0,0,1.3333333,448.15333,247.696)"/>
    <g id="g10" aria-label="−[2]P&#10;ℓ&#10;′" transform="matrix(1.3333333,0,0,1.3333333,423.82667,239.93333)">
      <path id="path11" d="m 5.5792187,-1.8044922 c 0.1171875,0 0.28125,0 0.28125,-0.1875 0,-0.1875 -0.1640625,-0.1875 -0.28125,-0.1875 H 0.9971875 c -0.1171875,0 -0.28125,0 -0.28125,0.1875 0,0.1875 0.1640625,0.1875 0.28125,0.1875 z m 0,0" style="fill:#000000;fill-opacity:1;fill-rule:nonzero;stroke:none"/>
      <path id="path12" d="M 8.755,1.9923828 V 1.6291016 H 7.958125 V -5.6130859 H 8.755 V -5.9763672 H 7.583125 v 7.96875 z m 2.493164,-3.6210937 c 0.128906,-0.1171875 0.457031,-0.375 0.585938,-0.4921875 0.492187,-0.4570313 0.960937,-0.890625 0.960937,-1.6171875 0,-0.9492188 -0.796875,-1.5585938 -1.792969,-1.5585938 -0.949218,0 -1.5820309,0.7265625 -1.5820309,1.4296875 0,0.3984375 0.3164062,0.4453125 0.421875,0.4453125 0.1640629,0 0.4101559,-0.1171875 0.4101559,-0.421875 0,-0.4101562 -0.3984372,-0.4101562 -0.4921872,-0.4101562 0.234375,-0.5859375 0.7734372,-0.7851563 1.1601562,-0.7851563 0.738281,0 1.125,0.6328125 1.125,1.3007813 0,0.8320312 -0.585937,1.4296875 -1.523437,2.4023437 l -1.0078129,1.03125001 c -0.09375,0.09375 -0.09375,0.10546875 -0.09375,0.3046875025 H 12.572383 L 12.795039,-1.4294922 h -0.246094 c -0.02344,0.1640625 -0.08203,0.56250001 -0.175781,0.71484376 -0.04687,0.0585938 -0.65625,0.0585938 -0.785156,0.0585938 h -1.417969 z m 3.307617,-4.3476563 h -1.171875 v 0.3632813 h 0.796875 v 7.2421875 h -0.796875 v 0.3632812 h 1.171875 z m 0,0" style="fill:#000000;fill-opacity:1;fill-rule:nonzero;stroke:none"/>
      <path id="path13" d="m 18.106562,-2.4841797 h 1.453125 c 1.148438,0 2.34375,-0.796875 2.34375,-1.734375 0,-0.6796875 -0.644531,-1.21875 -1.664062,-1.21875 h -2.683594 c -0.152344,0 -0.246094,0 -0.246094,0.140625 0,0.1171875 0.09375,0.1171875 0.222657,0.1171875 0.269531,0 0.492187,0 0.492187,0.1289063 0,0.035156 0,0.035156 -0.02344,0.140625 l -1.066407,4.27734371 c -0.08203,0.29296875 -0.09375,0.375 -0.65625,0.375 -0.1875,0 -0.269531,0 -0.269531,0.140625 0,0.03515625 0.02344,0.1171875025 0.128906,0.1171875025 0.140625,0 0.339844,-0.0117187525 0.492188,-0.0234375025 h 0.503906 c 0.773438,0 0.972656,0.0234375025 1.03125,0.0234375025 0.04687,0 0.164063,0 0.164063,-0.1523437525 0,-0.10546875 -0.105469,-0.10546875 -0.246094,-0.10546875 -0.02344,0 -0.164063,0 -0.304688,-0.0234375 -0.164062,-0.0117188 -0.175781,-0.0351563 -0.175781,-0.10546875 0,-0.046875 0.01172,-0.09375 0.02344,-0.12890625 z M 18.6925,-4.8865234 c 0.07031,-0.2695313 0.08203,-0.2929688 0.410156,-0.2929688 h 0.867188 c 0.65625,0 1.160156,0.1875 1.160156,0.7851563 0,0.09375 -0.03516,0.8085937 -0.492188,1.2421875 -0.117187,0.1289062 -0.492187,0.421875 -1.277343,0.421875 h -1.207032 z m 0,0" style="fill:#000000;fill-opacity:1;fill-rule:nonzero;stroke:none"/>
      <path id="path14" d="m 38.110469,3.753125 c -0.02344,0.035156 -0.05859,0.058594 -0.05859,0.1054688 0,0.058594 0.07031,0.140625 0.128906,0.140625 0.05859,0 0.09375,-0.035156 0.398438,-0.3398438 0.08203,-0.070312 0.304687,-0.28125 0.386718,-0.3632812 0.117188,0.8554687 0.433594,1.6640625 1.230469,1.6640625 0.433594,0 0.820313,-0.2460938 1.042969,-0.4101563 0.152344,-0.1171875 0.667969,-0.5390625 0.667969,-0.6445312 0,-0.035156 -0.03516,-0.1289063 -0.128907,-0.1289063 -0.03516,0 -0.04687,0.011719 -0.140625,0.09375 -0.703125,0.6914063 -1.101562,0.8554688 -1.417968,0.8554688 -0.492188,0 -0.667969,-0.5742188 -0.667969,-1.4179688 0,-0.070312 0.02344,-0.5742187 0.04687,-0.6210937 0.02344,-0.035156 0.02344,-0.058594 0.246094,-0.28125 0.878906,-0.8789063 2.4375,-2.71875005 2.4375,-4.4179688 0,-0.1875 0,-0.84375 -0.644532,-0.84375 -0.914062,0 -1.722656,1.7929688 -1.828125,2.05078125 C 39.282344,0.378125 38.954219,1.6554688 38.954219,2.95625 Z m 1.546875,-1.5351562 c 0.02344,-0.1171875 0.492187,-2.53125005 1.113281,-3.8085938 0.292969,-0.5976562 0.527344,-1.03125 0.878906,-1.03125 0.363281,0 0.363281,0.3984375 0.363281,0.5742188 0,1.8164062 -1.828125,3.7265625 -2.355468,4.265625 z m 0,0" style="fill:#000000;fill-opacity:1;fill-rule:nonzero;stroke:none"/>
      <path id="path15" d="m 44.626094,-2.9382812 c 0.01172,-0.035156 0.04687,-0.1289063 0.04687,-0.2109375 0,-0.2460938 -0.222657,-0.4335938 -0.457032,-0.4335938 -0.316406,0 -0.398437,0.2578125 -0.421875,0.3515625 L 42.774531,0.2375 c 0,0.0117188 -0.03516,0.1171875 -0.03516,0.12890625 0,0.10546875 0.246094,0.17578125 0.304687,0.17578125 0.04687,0 0.08203,-0.0351563 0.117188,-0.1171875 z m 0,0" style="fill:#000000;fill-opacity:1;fill-rule:nonzero;stroke:none"/>
    </g>
    <path id="path16" d="m 5.2983281,-2.9892578 c 0,-1.2773438 -1.0546875,-2.3203125 -2.3085937,-2.3203125 -1.3007813,0 -2.32031252,1.0664062 -2.32031252,2.3203125 0,1.2773437 1.05468752,2.32031249 2.30859372,2.32031249 1.3007813,0 2.3203125,-1.06640629 2.3203125,-2.32031249 z m 0,0" style="fill:#0000ff;fill-opacity:1;fill-rule:nonzero;stroke:none" aria-label="•" transform="matrix(1.3333333,0,0,1.3333333,346.584,311.33333)"/>
    <path id="path17" d="m 3.0934531,-4.8860625 c 0.070312,-0.2695312 0.082031,-0.2929687 0.4101563,-0.2929687 h 0.6445312 c 0.6445313,0 1.265625,0.1640625 1.265625,0.8085937 0,0.3515625 -0.1875,0.9140625 -0.5507812,1.171875 -0.3867188,0.2695313 -0.84375,0.3632813 -1.3007813,0.3632813 h -0.984375 z m 1.3476563,2.1796875 c 0.984375,-0.2460937 1.7460937,-0.84375 1.7460937,-1.5234375 0,-0.6914062 -0.7734375,-1.2070312 -1.8867187,-1.2070312 h -2.34375 c -0.1523438,0 -0.2460938,0 -0.2460938,0.140625 0,0.1171875 0.09375,0.1171875 0.2226563,0.1171875 0.2695312,0 0.4921875,0 0.4921875,0.1289062 0,0.035156 0,0.035156 -0.023437,0.140625 l -1.0664063,4.27734375 c -0.082031,0.3046875 -0.09375,0.375 -0.67968747,0.375 -0.15234375,0 -0.24609375,0 -0.24609375,0.140625 0,0.03515625 0.0234375,0.1171875 0.12890625,0.1171875 0.140625,0 0.328125,-0.01171875 0.49218747,-0.0234375 h 0.4921875 c 0.7382813,0 0.9726563,0.0234375 1.0195313,0.0234375 0.046875,0 0.1640625,0 0.1640625,-0.15234375 0,-0.10546875 -0.1054688,-0.10546875 -0.2460938,-0.10546875 -0.023437,0 -0.1640625,0 -0.3046875,-0.0234375 C 1.9918906,-0.2923125 1.9801719,-0.31575 1.9801719,-0.3860625 c 0,-0.046875 0.011719,-0.09375 0.023438,-0.12890625 L 2.5192344,-2.612625 h 1.03125 c 0.7148437,0 0.9492187,0.3867188 0.9492187,0.703125 0,0.1171875 -0.058594,0.3398438 -0.1054687,0.5039063 -0.058594,0.234375 -0.140625,0.5507812 -0.140625,0.6914062 0,0.62109375 0.5273437,0.87890625 1.1132812,0.87890625 0.6914063,0 1.0195313,-0.7734375 1.0195313,-0.92578125 0,-0.0351563 -0.023437,-0.1171875 -0.1289063,-0.1171875 -0.082031,0 -0.1054687,0.0703125 -0.1171875,0.10546875 -0.1757812,0.55078125 -0.515625,0.71484375 -0.75,0.71484375 -0.2929687,0 -0.328125,-0.22265625 -0.328125,-0.48046875 0,-0.26953125 0.058594,-0.62109375 0.082031,-0.87890625 0.035156,-0.234375 0.035156,-0.2929687 0.035156,-0.3632812 0,-0.4804688 -0.3164062,-0.7617188 -0.7382807,-0.9257813 z m 0,0" style="fill:#000000;fill-opacity:1;fill-rule:nonzero;stroke:none" aria-label="R" transform="matrix(1.3333333,0,0,1.3333333,339.46133,318.296)"/>
    <path id="path18" d="m 5.2979297,-2.9874219 c 0,-1.2773437 -1.0546875,-2.3203125 -2.3085938,-2.3203125 -1.3007812,0 -2.32031246,1.0664063 -2.32031246,2.3203125 0,1.2773438 1.05468746,2.32031253 2.30859376,2.32031253 1.3007812,0 2.3203125,-1.06640623 2.3203125,-2.32031253 z m 0,0" style="fill:#0000ff;fill-opacity:1;fill-rule:nonzero;stroke:none" aria-label="•" transform="matrix(1.3333333,0,0,1.3333333,389.44,345.00667)"/>
    <g id="g18" aria-label="S&#10;ℓ" transform="matrix(1.3333333,0,0,1.3333333,386.35867,355.372)">
      <path id="path19" d="m 5.3442812,-5.3913047 c 0.011719,-0.035156 0.023437,-0.082031 0.023437,-0.1289062 0,-0.046875 -0.046875,-0.09375 -0.1054687,-0.09375 -0.046875,0 -0.070312,0.023437 -0.1523438,0.1171875 -0.09375,0.1054687 -0.2929687,0.3515625 -0.3867187,0.4570312 -0.3046875,-0.4570312 -0.8085938,-0.5742187 -1.21875,-0.5742187 -1.1015625,0 -2.0507813,0.9375 -2.0507813,1.8398437 0,0.46875 0.2460938,0.7382813 0.28125,0.796875 0.2695313,0.2695313 0.4921875,0.3398438 1.0664063,0.46875 0.28125,0.082031 0.3046875,0.082031 0.5273437,0.1289063 0.234375,0.058594 0.7382813,0.1875 0.7382813,0.84375 0,0.70312496 -0.6796875,1.44140621 -1.5117188,1.44140621 -0.5273437,0 -1.4765625,-0.1640625 -1.4765625,-1.14843751 0,-0.023437 0,-0.1875 0.058594,-0.3867187 v -0.082031 c 0,-0.09375 -0.082031,-0.09375 -0.1171875,-0.09375 -0.10546875,0 -0.10546875,0.023437 -0.15234375,0.2109375 -0.15234375,0.5859375 -0.1875,0.72656251 -0.328125,1.30078126 -0.0234375,0.1171875 -0.0820313,0.328125 -0.0820313,0.3515625 0,0.0703125 0.046875,0.10546875 0.10546875,0.10546875 0.046875,0 0.0585938,0 0.15234375,-0.10546875 0.046875,-0.0703125 0.046875,-0.0703125 0.37500005,-0.4453125 0.1875,0.234375 0.6445312,0.55078125 1.4414062,0.55078125 1.1601563,0 2.109375,-1.04296875 2.109375,-1.99218751 0,-0.375 -0.1171875,-0.65625 -0.3398438,-0.8789062 C 4.0669375,-2.9772422 3.7974062,-3.0358359 3.4224062,-3.1295859 3.19975,-3.1881797 2.8833437,-3.2584922 2.7075625,-3.3053672 2.4614687,-3.3639609 2.0161562,-3.5280234 2.0161562,-4.0788047 c 0,-0.6210937 0.6679688,-1.2890625 1.4882813,-1.2890625 0.7148437,0 1.2070312,0.375 1.2070312,1.2304688 0,0.1875 -0.035156,0.3632812 -0.035156,0.3867187 0,0.1054688 0.070312,0.1171875 0.1289062,0.1171875 0.09375,0 0.1054688,-0.035156 0.140625,-0.1640625 z m 0,0" style="fill:#000000;fill-opacity:1;fill-rule:nonzero;stroke:none"/>
      <path id="path20" d="m 31.269086,23.099906 c -0.02344,0.03516 -0.05859,0.05859 -0.05859,0.105469 0,0.05859 0.07031,0.140625 0.128906,0.140625 0.05859,0 0.09375,-0.03516 0.398438,-0.339844 0.08203,-0.07031 0.304687,-0.28125 0.386719,-0.363281 0.117187,0.855469 0.433593,1.664063 1.230468,1.664063 0.433594,0 0.820313,-0.246094 1.042969,-0.410157 0.152344,-0.117187 0.667969,-0.539062 0.667969,-0.644531 0,-0.03516 -0.03516,-0.128906 -0.128906,-0.128906 -0.03516,0 -0.04687,0.01172 -0.140625,0.09375 -0.703125,0.691406 -1.101563,0.855469 -1.417969,0.855469 -0.492188,0 -0.667969,-0.574219 -0.667969,-1.417969 0,-0.07031 0.02344,-0.574219 0.04687,-0.621094 0.02344,-0.03516 0.02344,-0.05859 0.246094,-0.28125 0.878906,-0.878906 2.4375,-2.71875 2.4375,-4.417969 0,-0.1875 0,-0.84375 -0.644531,-0.84375 -0.914063,0 -1.722657,1.792969 -1.828125,2.050782 -0.527344,1.183593 -0.855469,2.460937 -0.855469,3.761718 z m 1.546875,-1.535156 c 0.02344,-0.117187 0.492187,-2.53125 1.113281,-3.808594 0.292969,-0.597656 0.527344,-1.03125 0.878906,-1.03125 0.363282,0 0.363282,0.398438 0.363282,0.574219 0,1.816406 -1.828125,3.726563 -2.355469,4.265625 z m 0,0" style="fill:#000000;fill-opacity:1;fill-rule:nonzero;stroke:none"/>
    </g>
    <path id="path21" d="m 5.2961328,-2.9876797 c 0,-1.2773437 -1.0546875,-2.3203125 -2.3085937,-2.3203125 -1.3007813,0 -2.32031254,1.0664063 -2.32031254,2.3203125 0,1.2773438 1.05468754,2.32031251 2.30859374,2.32031251 1.3007813,0 2.3203125,-1.06640621 2.3203125,-2.32031251 z m 0,0" style="fill:#0000ff;fill-opacity:1;fill-rule:nonzero;stroke:none" aria-label="•" transform="matrix(1.3333333,0,0,1.3333333,475.15333,412.35467)"/>
    <g id="g21" aria-label="T&#10;Figure3.8:supp(ǫ((ℓ)))andsupp(ǫ((ℓ&#10;′&#10;))).&#10;Atthispointitdoesnotmakesensetocomputeℓ(ℓ&#10;′&#10;)(orℓ&#10;′&#10;(ℓ))sincesupp((ℓ))∩&#10;supp((ℓ&#10;′&#10;))={O}.Wecanfxthisbyfndingadivisorequivalentto,say(ℓ),&#10;whosesupportisdisjointtosupp((ℓ&#10;′&#10;)).Thisiseasilydonebypickingarandom&#10;pointU/∈supp(ℓ&#10;′&#10;)anddefningD=(R+U)+(S+U)+(T+U)−3(U).Tosee&#10;thatD∼ℓ,observethat(R+U)−(U)=(R)−(O)bywritingdownthedivisor&#10;ofthequotientoftheslopedandverticallinesintheadditionofRandUonE.&#10;Computingℓ(ℓ&#10;′&#10;)isthereforethesameascomputingD(ℓ&#10;′&#10;),butthiscomputation&#10;wouldthenrequirefndinganewfunctiononEwithdivisorD,sowecaninvoke&#10;Theorem3.1andinsteadcomputeℓ&#10;′&#10;(D)as&#10;ℓ&#10;′&#10;(D)=&#10;(y&#10;R&#10;′&#10;−(λ&#10;′&#10;x&#10;R&#10;′&#10;+ν&#10;′&#10;))(y&#10;S&#10;′&#10;−(λ&#10;′&#10;x&#10;S&#10;′&#10;+ν&#10;′&#10;))(y&#10;T&#10;′&#10;−(λ&#10;′&#10;x&#10;T&#10;′&#10;+ν&#10;′&#10;))" transform="matrix(1.3333333,0,0,1.3333333,478.55467,402.30933)">
      <path id="path22" d="m 3.5976719,-4.8169609 c 0.070312,-0.2929688 0.082031,-0.3046875 0.4101562,-0.3046875 h 0.609375 c 0.8203125,0 0.9257813,0.2578125 0.9257813,0.65625 0,0.1992187 -0.046875,0.5390625 -0.058594,0.5859375 -0.023437,0.082031 -0.023437,0.1523437 -0.023437,0.1757812 0,0.1054688 0.070312,0.1289063 0.1171875,0.1289063 0.082031,0 0.1171875,-0.046875 0.140625,-0.1992188 l 0.2226563,-1.5 c 0,-0.1171875 -0.1054688,-0.1171875 -0.2460938,-0.1171875 h -4.6875 c -0.19921872,0 -0.22265622,0 -0.26953122,0.1757813 l -0.4921875,1.3710937 c -0.0117188,0.046875 -0.0351563,0.1054688 -0.0351563,0.1523438 0,0.070312 0.046875,0.1171875 0.1171875,0.1171875 0.0820313,0 0.10546875,-0.046875 0.15234375,-0.1757813 0.45703125,-1.2773437 0.67968747,-1.3710937 1.89843747,-1.3710937 h 0.3046875 c 0.2460937,0 0.2460937,0 0.2460937,0.070312 0,0.023437 -0.023437,0.1875 -0.035156,0.2109375 l -1.0546875,4.18359371 c -0.070312,0.3046875 -0.09375,0.3984375 -0.92578122,0.3984375 -0.2578125,0 -0.328125,0 -0.328125,0.140625 0,0.0117188 0,0.1171875025 0.12890625,0.1171875025 0.22265625,0 0.76171867,-0.0234375025 0.98437497,-0.0234375025 h 0.6796875 c 0.2226562,0 0.7734375,0.0234375025 0.9960937,0.0234375025 0.070312,0 0.1875,0 0.1875,-0.1523437525 0,-0.10546875 -0.09375,-0.10546875 -0.3046875,-0.10546875 -0.1875,0 -0.2578125,0 -0.4570312,-0.0234375 -0.2578125,-0.0234375 -0.2929688,-0.0585938 -0.2929688,-0.15234375 0,-0.0351563 0.011719,-0.0703125 0.035156,-0.15234375 z m 0,0" style="fill:#000000;fill-opacity:1;fill-rule:nonzero;stroke:none"/>
      
      
      
      
      
      
      
      
      
      
      
      
      
      
      
      
      
      
      
      
      
      
      
      
      
      
      
      
      
      
      
      
      
      
      
      
      
      
      
      
      
      
      
      
      
      
      
      
      
      
      
      
      
      
      
      
      
      
      
      
      
      
      
      
      
      
      
      
      
      
      
      
      
      
      
      
      
      
      
      
      
      
      
      
      
      
      
      
      
      
      
      
      
      
      
      
      
      
      
      
      
      
      
      
      
      
      
      
      
      
      
      
      
      
      
      
      
      
      
      
      
      
      
      
      
      
      
      
      
      
      
      
      
      
      
      
      
      
      
      
      
      
      
      
      
      
      
      
    </g>
    
    
  </g>
</svg>