<svg version="1.1" id="svg1" width="272.0017777259567" height="260.0024201530967" viewBox="381.0024901234908 232.00215952122477 272.0017777259567 260.0024201530967" sodipodi:docname="ch3.pdf" xmlns:inkscape="http://www.inkscape.org/namespaces/inkscape" xmlns:sodipodi="http://sodipodi.sourceforge.net/DTD/sodipodi-0.dtd" xmlns="http://www.w3.org/2000/svg" xmlns:svg="http://www.w3.org/2000/svg" style="">
  <defs id="defs1">
    <clipPath clipPathUnits="userSpaceOnUse" id="clipPath38">
      <path d="M -49.464001,100.181 V -69.898004 H 177.307 V 100.181 Z" id="path38"/>
    </clipPath>
    <clipPath clipPathUnits="userSpaceOnUse" id="clipPath42">
      <path d="M -57.117999,71.800999 V -98.278005 H 169.65301 V 71.800999 Z" id="path42"/>
    </clipPath>
    <clipPath clipPathUnits="userSpaceOnUse" id="clipPath46">
      <path d="M -20.976601,72.415002 V -97.664002 H 205.79441 V 72.415002 Z" id="path46"/>
    </clipPath>
    <clipPath clipPathUnits="userSpaceOnUse" id="clipPath50">
      <path d="M -86.882005,92.149002 V -77.930002 H 139.889 V 92.149002 Z" id="path50"/>
    </clipPath>
    <clipPath clipPathUnits="userSpaceOnUse" id="clipPath54">
      <path d="M -128.53701,72.352002 V -97.727002 H 98.234 V 72.352002 Z" id="path54"/>
    </clipPath>
    <clipPath clipPathUnits="userSpaceOnUse" id="clipPath59">
      <path d="M -159.165,98.037005 V -72.041999 H 67.606002 V 98.037005 Z" id="path59"/>
    </clipPath>
    <clipPath clipPathUnits="userSpaceOnUse" id="clipPath64">
      <path d="M -25.983601,97.52 V -72.559004 H 200.78741 V 97.52 Z" id="path64"/>
    </clipPath>
    <clipPath clipPathUnits="userSpaceOnUse" id="clipPath69">
      <path d="M -95.718002,76.414002 V -93.665002 H 131.053 V 76.414002 Z" id="path69"/>
    </clipPath>
    <clipPath clipPathUnits="userSpaceOnUse" id="clipPath74">
      <path d="M -126.219,94.596005 V -75.482999 H 100.552 V 94.596005 Z" id="path74"/>
    </clipPath>
    <clipPath clipPathUnits="userSpaceOnUse" id="clipPath79">
      <path d="M -160.10301,74.095002 V -95.984002 H 66.667999 V 74.095002 Z" id="path79"/>
    </clipPath>
    <clipPath clipPathUnits="userSpaceOnUse" id="clipPath105">
      <path d="M -38.327003,162.958 V -7.1210002 H 188.445 V 162.958 Z" id="path105"/>
    </clipPath>
    <clipPath clipPathUnits="userSpaceOnUse" id="clipPath110">
      <path d="M -26.583998,152.768 V -17.311003 H 200.18801 V 152.768 Z" id="path110"/>
    </clipPath>
    <clipPath clipPathUnits="userSpaceOnUse" id="clipPath115">
      <path d="M -92.066005,64.246002 V -105.833 H 134.706 V 64.246002 Z" id="path115"/>
    </clipPath>
    <clipPath clipPathUnits="userSpaceOnUse" id="clipPath120">
      <path d="M -129.796,106.258 V -63.821002 H 96.976005 V 106.258 Z" id="path120"/>
    </clipPath>
    <clipPath clipPathUnits="userSpaceOnUse" id="clipPath125">
      <path d="M -159.427,50.529004 V -119.55 H 67.345004 V 50.529004 Z" id="path125"/>
    </clipPath>
    <clipPath clipPathUnits="userSpaceOnUse" id="clipPath127">
      <path d="m 2842.8001,4720.6004 v 1700.79 h 2267.72 v -1700.79 z" id="path127"/>
    </clipPath>
    <clipPath clipPathUnits="userSpaceOnUse" id="clipPath132">
      <path d="M -107.658,77.152999 V -92.926005 H 119.114 V 77.152999 Z" id="path132"/>
    </clipPath>
    <clipPath clipPathUnits="userSpaceOnUse" id="clipPath137">
      <path d="M -149.724,96.743 V -73.336004 H 77.048002 V 96.743 Z" id="path137"/>
    </clipPath>
    <clipPath clipPathUnits="userSpaceOnUse" id="clipPath142">
      <path d="M -50.054004,74.308999 V -95.770005 H 176.718 V 74.308999 Z" id="path142"/>
    </clipPath>
  </defs>
  <sodipodi:namedview id="namedview1" pagecolor="#ffffff" bordercolor="#000000" borderopacity="0.25" inkscape:showpageshadow="2" inkscape:pageopacity="0.0" inkscape:pagecheckerboard="0" inkscape:deskcolor="#d1d1d1">
    <inkscape:page x="0" y="0" inkscape:label="10" id="page1" width="793.33331" height="1122.6667" margin="0" bleed="0"/>
  </sodipodi:namedview>
  <g id="g1" inkscape:groupmode="layer" inkscape:label="10">
    
    
    
    
    
    
    
    
    
    
    
    
    
    
    
    
    
    
    
    
    
    
    
    
    
    
    
    
    
    
    
    
    
    <path id="path95" d="m 3160.91,5568.62 c 0,0 2.39,-168.21 6.5,-256.74 1.55,-33.26 3.77,-63.07 6.51,-96.25 1.9,-23.06 3.9,-43.74 6.51,-66.73 1.97,-17.45 3.96,-33.1 6.5,-50.47 2.01,-13.68 3.99,-25.94 6.51,-39.53 2.02,-10.88 3.99,-20.63 6.51,-31.4 2.03,-8.69 3.99,-16.46 6.51,-25.02 2.03,-6.9 3.99,-13.07 6.5,-19.8 2.03,-5.41 3.98,-10.24 6.51,-15.43 2.03,-4.16 3.97,-7.84 6.51,-11.7 2.02,-3.07 3.98,-5.77 6.51,-8.44 2.03,-2.15 4.03,-3.99 6.51,-5.61 2.08,-1.35 4.12,-2.38 6.5,-3.08 2.18,-0.63 4.25,-0.89 6.51,-0.83 2.28,0.05 4.33,0.49 6.51,1.17 2.36,0.74 4.37,1.76 6.51,2.99 2.38,1.38 4.37,2.88 6.51,4.63 2.38,1.95 4.37,3.89 6.5,6.11 2.37,2.46 4.36,4.81 6.51,7.46 2.36,2.92 4.35,5.63 6.51,8.69 2.34,3.32 4.33,6.38 6.51,9.82 2.32,3.68 4.32,7.05 6.5,10.83 2.32,4.01 4.32,7.67 6.51,11.76 2.31,4.33 4.31,8.24 6.51,12.62 2.3,4.6 4.31,8.75 6.51,13.4 2.29,4.84 4.3,9.22 6.51,14.11 2.28,5.08 4.29,9.66 6.5,14.77 2.28,5.28 4.3,10.05 6.51,15.36 2.28,5.48 4.29,10.41 6.5,15.92 2.28,5.65 4.29,10.74 6.51,16.42 2.28,5.81 4.29,11.05 6.51,16.88 2.27,5.97 4.29,11.34 6.51,17.32 2.27,6.11 4.28,11.6 6.51,17.72 2.27,6.24 4.28,11.84 6.5,18.1 2.27,6.36 4.29,12.08 6.51,18.45 2.27,6.49 4.28,12.31 6.51,18.81 2.27,6.6 4.28,12.53 6.51,19.15 2.26,6.72 4.28,12.76 6.51,19.5 2.26,6.85 4.28,13 6.5,19.87 2.27,6.98 4.29,13.26 6.51,20.26 2.27,7.15 4.29,13.56 6.51,20.72 2.27,7.33 4.29,13.92 6.51,21.27 2.27,7.56 4.3,14.35 6.5,21.93 2.29,7.87 4.32,14.93 6.51,22.82 2.3,8.29 4.34,15.73 6.51,24.05 2.32,8.92 4.37,16.93 6.51,25.9 2.37,9.98 4.45,18.94 6.51,28.99 2.48,12.19 4.84,23.13 6.5,35.45 3.47,25.72 6.51,74.94 6.51,74.94" style="fill:none;stroke:#000000;stroke-width:6.97385;stroke-linecap:butt;stroke-linejoin:miter;stroke-miterlimit:10;stroke-dasharray:none;stroke-opacity:1" transform="matrix(0.13333333,0,0,-0.13333333,0,1122.6667)"/>
    <path id="path96" d="m 3692.42,5567.66 c 0,0 1.91,-22.12 4.34,-33.53 1.08,-5.1 2.62,-9.56 4.34,-14.48 1.32,-3.79 2.7,-7.14 4.33,-10.81 1.39,-3.11 2.75,-5.84 4.34,-8.84 1.41,-2.65 2.77,-4.98 4.34,-7.54 1.43,-2.3 2.78,-4.34 4.34,-6.55 1.44,-2.04 2.78,-3.83 4.34,-5.78 1.44,-1.82 2.79,-3.41 4.33,-5.14 1.45,-1.62 2.8,-3.04 4.34,-4.58 1.46,-1.46 2.81,-2.73 4.34,-4.1 1.46,-1.3 2.81,-2.43 4.34,-3.65 1.46,-1.17 2.81,-2.18 4.34,-3.26 1.47,-1.04 2.81,-1.93 4.33,-2.88 1.48,-0.92 2.82,-1.71 4.34,-2.54 1.47,-0.8 2.82,-1.49 4.34,-2.21 1.47,-0.7 2.82,-1.29 4.34,-1.9 1.48,-0.6 2.82,-1.09 4.33,-1.6 1.49,-0.5 2.83,-0.91 4.34,-1.32 1.49,-0.41 2.84,-0.73 4.34,-1.04 1.49,-0.32 2.84,-0.56 4.34,-0.78 1.49,-0.22 2.84,-0.38 4.34,-0.52 1.49,-0.13 2.84,-0.21 4.34,-0.26 1.49,-0.05 2.84,-0.05 4.33,-0.01 1.5,0.04 2.85,0.11 4.34,0.23 1.5,0.12 2.85,0.27 4.34,0.47 1.5,0.21 2.84,0.43 4.34,0.71 1.5,0.29 2.84,0.59 4.33,0.95 1.51,0.37 2.85,0.74 4.34,1.19 1.51,0.45 2.85,0.89 4.34,1.41 1.51,0.54 2.85,1.06 4.34,1.66 1.51,0.62 2.85,1.2 4.33,1.89 1.52,0.7 2.86,1.36 4.34,2.13 1.52,0.79 2.86,1.52 4.34,2.38 1.52,0.87 2.86,1.68 4.34,2.62 1.52,0.96 2.86,1.85 4.34,2.87 1.52,1.05 2.86,2.03 4.34,3.14 1.52,1.15 2.86,2.21 4.33,3.41 1.53,1.25 2.87,2.4 4.34,3.71 1.53,1.35 2.87,2.6 4.34,4.01 1.52,1.47 2.87,2.82 4.34,4.35 1.52,1.6 2.87,3.06 4.33,4.72 1.54,1.74 2.89,3.34 4.34,5.14 1.54,1.91 2.89,3.65 4.34,5.63 1.55,2.11 2.9,4.03 4.34,6.22 1.56,2.36 2.91,4.51 4.33,6.96 1.58,2.7 2.95,5.16 4.34,7.97 1.61,3.23 3,6.16 4.34,9.51 1.69,4.22 3.24,8.02 4.34,12.43 2.37,9.5 4.34,28.04 4.34,28.04" style="fill:none;stroke:#000000;stroke-width:6.97385;stroke-linecap:butt;stroke-linejoin:miter;stroke-miterlimit:10;stroke-dasharray:none;stroke-opacity:1" transform="matrix(0.13333333,0,0,-0.13333333,0,1122.6667)"/>
    <path id="path97" d="m 4117.62,5567.86 c 0,0 1.97,-20.71 4.34,-31.38 1.09,-4.97 2.65,-9.3 4.33,-14.11 1.35,-3.83 2.73,-7.21 4.34,-10.94 1.4,-3.25 2.76,-6.12 4.34,-9.29 1.43,-2.87 2.78,-5.41 4.34,-8.22 1.44,-2.6 2.79,-4.9 4.33,-7.44 1.46,-2.38 2.81,-4.49 4.34,-6.82 1.46,-2.21 2.81,-4.17 4.34,-6.32 1.47,-2.06 2.81,-3.88 4.34,-5.89 1.46,-1.93 2.81,-3.63 4.34,-5.51 1.46,-1.8 2.81,-3.4 4.34,-5.16 1.46,-1.69 2.81,-3.19 4.33,-4.84 1.47,-1.58 2.82,-2.99 4.34,-4.53 1.47,-1.49 2.82,-2.81 4.34,-4.25 1.47,-1.39 2.81,-2.62 4.34,-3.96 1.47,-1.31 2.81,-2.45 4.33,-3.7 1.48,-1.21 2.82,-2.27 4.34,-3.43 1.48,-1.11 2.82,-2.1 4.34,-3.16 1.48,-1.02 2.82,-1.92 4.34,-2.89 1.48,-0.94 2.82,-1.75 4.34,-2.62 1.47,-0.85 2.82,-1.58 4.33,-2.36 1.48,-0.76 2.83,-1.41 4.34,-2.09 1.48,-0.66 2.83,-1.22 4.34,-1.81 1.48,-0.57 2.82,-1.04 4.34,-1.52 1.48,-0.48 2.82,-0.87 4.34,-1.24 1.48,-0.38 2.82,-0.68 4.33,-0.95 1.49,-0.27 2.84,-0.47 4.34,-0.64 1.49,-0.17 2.84,-0.27 4.34,-0.33 1.49,-0.06 2.84,-0.06 4.34,-0.01 1.5,0.06 2.84,0.16 4.33,0.33 1.51,0.18 2.86,0.38 4.34,0.68 1.51,0.3 2.86,0.62 4.34,1.04 1.52,0.43 2.86,0.87 4.34,1.42 1.52,0.57 2.87,1.13 4.34,1.82 1.52,0.72 2.87,1.41 4.34,2.25 1.53,0.87 2.87,1.71 4.33,2.69 1.54,1.04 2.88,2.02 4.34,3.17 1.54,1.22 2.89,2.37 4.34,3.69 1.54,1.42 2.89,2.74 4.34,4.26 1.55,1.63 2.89,3.14 4.33,4.87 1.56,1.87 2.91,3.6 4.34,5.56 1.57,2.15 2.91,4.11 4.34,6.35 1.57,2.46 2.92,4.71 4.34,7.26 1.58,2.84 2.92,5.43 4.33,8.36 1.6,3.32 2.95,6.34 4.34,9.74 1.62,3.95 2.97,7.54 4.34,11.58 1.66,4.9 3.02,9.34 4.34,14.33 1.74,6.64 3.26,12.63 4.34,19.41 2.47,15.56 4.33,45.46 4.33,45.46" style="fill:none;stroke:#000000;stroke-width:6.97385;stroke-linecap:butt;stroke-linejoin:miter;stroke-miterlimit:10;stroke-dasharray:none;stroke-opacity:1" transform="matrix(0.13333333,0,0,-0.13333333,0,1122.6667)"/>
    <path id="path98" d="m 4500.28,5567.42 c 0,0 0.77,-41.52 1.73,-63.38 0.44,-9.83 1.06,-18.64 1.74,-28.45 0.54,-7.79 1.09,-14.77 1.73,-22.55 0.56,-6.78 1.11,-12.86 1.74,-19.63 0.57,-6.17 1.11,-11.7 1.73,-17.86 0.58,-5.74 1.12,-10.9 1.74,-16.64 0.58,-5.43 1.12,-10.31 1.73,-15.75 0.59,-5.2 1.13,-9.88 1.74,-15.09 0.59,-5.04 1.13,-9.56 1.73,-14.6 0.59,-4.9 1.13,-9.29 1.74,-14.19 0.59,-4.79 1.13,-9.09 1.74,-13.88 0.59,-4.7 1.13,-8.93 1.73,-13.63 0.6,-4.63 1.13,-8.79 1.74,-13.42 0.59,-4.57 1.13,-8.67 1.73,-13.24 0.6,-4.53 1.14,-8.59 1.74,-13.12 0.59,-4.49 1.13,-8.51 1.73,-13 0.6,-4.46 1.14,-8.46 1.74,-12.92 0.6,-4.43 1.13,-8.41 1.73,-12.85 0.6,-4.42 1.14,-8.38 1.74,-12.8 0.6,-4.41 1.13,-8.37 1.73,-12.78 0.6,-4.39 1.14,-8.34 1.74,-12.74 0.6,-4.39 1.14,-8.33 1.74,-12.73 0.59,-4.39 1.13,-8.33 1.73,-12.72 0.6,-4.4 1.14,-8.34 1.74,-12.74 0.59,-4.39 1.13,-8.34 1.73,-12.74 0.6,-4.4 1.14,-8.36 1.74,-12.76 0.6,-4.42 1.14,-8.38 1.73,-12.79 0.6,-4.42 1.14,-8.4 1.74,-12.82 0.6,-4.44 1.13,-8.43 1.73,-12.87 0.6,-4.44 1.14,-8.44 1.74,-12.89 0.6,-4.47 1.14,-8.48 1.73,-12.95 0.61,-4.48 1.14,-8.5 1.74,-12.99 0.6,-4.5 1.14,-8.54 1.74,-13.04 0.59,-4.52 1.13,-8.59 1.73,-13.11 0.6,-4.54 1.14,-8.62 1.74,-13.16 0.6,-4.57 1.13,-8.66 1.73,-13.22 0.6,-4.59 1.14,-8.71 1.74,-13.29 0.6,-4.62 1.13,-8.75 1.73,-13.37 0.6,-4.63 1.14,-8.79 1.74,-13.42 0.6,-4.66 1.13,-8.84 1.73,-13.5 0.6,-4.68 1.14,-8.89 1.74,-13.57 0.6,-4.71 1.14,-8.94 1.73,-13.66 0.61,-4.73 1.14,-8.99 1.74,-13.72 0.6,-4.77 1.14,-9.05 1.73,-13.81 0.6,-4.8 1.14,-9.1 1.74,-13.89 0.6,-4.82 1.14,-9.15 1.74,-13.98 0.6,-4.84 1.13,-9.2 1.73,-14.05 0.6,-4.88 1.14,-9.27 1.74,-14.15 0.6,-4.91 1.73,-14.24 1.73,-14.24" style="fill:none;stroke:#000000;stroke-width:6.97385;stroke-linecap:butt;stroke-linejoin:miter;stroke-miterlimit:10;stroke-dasharray:none;stroke-opacity:1" transform="matrix(0.13333333,0,0,-0.13333333,0,1122.6667)"/>
    <path id="path99" d="m 3160.91,5571.78 c 0,0 2.39,168.21 6.5,256.74 1.55,33.26 3.77,63.07 6.51,96.25 1.9,23.06 3.9,43.74 6.51,66.73 1.97,17.45 3.96,33.1 6.5,50.47 2.01,13.68 3.99,25.94 6.51,39.53 2.02,10.88 3.99,20.62 6.51,31.4 2.03,8.69 3.99,16.46 6.51,25.02 2.03,6.9 3.99,13.07 6.5,19.81 2.03,5.41 3.98,10.23 6.51,15.43 2.03,4.14 3.97,7.83 6.51,11.69 2.02,3.07 3.98,5.77 6.51,8.44 2.03,2.16 4.03,3.99 6.51,5.6 2.08,1.36 4.12,2.39 6.5,3.09 2.18,0.63 4.25,0.89 6.51,0.83 2.28,-0.05 4.33,-0.49 6.51,-1.17 2.36,-0.74 4.37,-1.75 6.51,-2.99 2.38,-1.38 4.37,-2.88 6.51,-4.63 2.38,-1.95 4.37,-3.9 6.5,-6.11 2.37,-2.46 4.36,-4.81 6.51,-7.46 2.36,-2.92 4.35,-5.63 6.51,-8.69 2.34,-3.32 4.33,-6.38 6.51,-9.81 2.32,-3.69 4.32,-7.06 6.5,-10.84 2.32,-4.02 4.32,-7.67 6.51,-11.76 2.31,-4.32 4.31,-8.24 6.51,-12.62 2.3,-4.6 4.31,-8.75 6.51,-13.4 2.29,-4.85 4.3,-9.22 6.51,-14.11 2.28,-5.08 4.29,-9.65 6.5,-14.77 2.28,-5.28 4.3,-10.04 6.51,-15.36 2.28,-5.48 4.29,-10.41 6.5,-15.91 2.28,-5.66 4.29,-10.75 6.51,-16.43 2.28,-5.81 4.29,-11.05 6.51,-16.88 2.27,-5.97 4.29,-11.33 6.51,-17.32 2.27,-6.1 4.28,-11.6 6.51,-17.72 2.27,-6.24 4.28,-11.85 6.5,-18.1 2.27,-6.36 4.29,-12.08 6.51,-18.45 2.27,-6.49 4.28,-12.31 6.51,-18.81 2.27,-6.6 4.28,-12.53 6.51,-19.15 2.26,-6.72 4.28,-12.76 6.51,-19.5 2.26,-6.85 4.28,-13 6.5,-19.86 2.27,-6.99 4.29,-13.27 6.51,-20.27 2.27,-7.14 4.29,-13.57 6.51,-20.72 2.27,-7.33 4.29,-13.92 6.51,-21.27 2.27,-7.56 4.3,-14.35 6.5,-21.93 2.29,-7.87 4.32,-14.93 6.51,-22.82 2.3,-8.29 4.34,-15.74 6.51,-24.05 2.32,-8.92 4.37,-16.94 6.51,-25.9 2.37,-9.97 4.45,-18.94 6.51,-28.99 2.48,-12.19 4.84,-23.13 6.5,-35.45 3.47,-25.72 6.51,-74.94 6.51,-74.94" style="fill:none;stroke:#000000;stroke-width:6.97385;stroke-linecap:butt;stroke-linejoin:miter;stroke-miterlimit:10;stroke-dasharray:none;stroke-opacity:1" transform="matrix(0.13333333,0,0,-0.13333333,0,1122.6667)"/>
    <path id="path100" d="m 3692.42,5572.74 c 0,0 1.91,22.12 4.34,33.53 1.08,5.1 2.62,9.56 4.34,14.48 1.32,3.79 2.7,7.14 4.33,10.81 1.39,3.11 2.75,5.85 4.34,8.85 1.41,2.64 2.77,4.98 4.34,7.53 1.43,2.3 2.78,4.33 4.34,6.55 1.44,2.04 2.78,3.83 4.34,5.78 1.44,1.82 2.79,3.41 4.33,5.14 1.45,1.62 2.8,3.04 4.34,4.58 1.46,1.46 2.81,2.73 4.34,4.1 1.46,1.3 2.81,2.43 4.34,3.65 1.46,1.17 2.81,2.18 4.34,3.26 1.47,1.04 2.81,1.93 4.33,2.88 1.48,0.92 2.82,1.71 4.34,2.54 1.47,0.81 2.82,1.49 4.34,2.21 1.47,0.7 2.82,1.29 4.34,1.9 1.48,0.6 2.82,1.09 4.33,1.6 1.49,0.5 2.83,0.91 4.34,1.32 1.49,0.41 2.84,0.73 4.34,1.05 1.49,0.31 2.84,0.55 4.34,0.77 1.49,0.22 2.84,0.38 4.34,0.52 1.49,0.13 2.84,0.21 4.34,0.26 1.49,0.05 2.84,0.05 4.33,0.01 1.5,-0.04 2.85,-0.11 4.34,-0.23 1.5,-0.12 2.85,-0.27 4.34,-0.47 1.5,-0.21 2.84,-0.43 4.34,-0.72 1.5,-0.28 2.84,-0.58 4.33,-0.94 1.51,-0.37 2.85,-0.74 4.34,-1.18 1.51,-0.46 2.85,-0.9 4.34,-1.43 1.51,-0.53 2.85,-1.04 4.34,-1.65 1.51,-0.62 2.85,-1.2 4.33,-1.89 1.52,-0.7 2.86,-1.36 4.34,-2.13 1.52,-0.79 2.86,-1.52 4.34,-2.37 1.52,-0.87 2.86,-1.69 4.34,-2.62 1.52,-0.97 2.86,-1.86 4.34,-2.88 1.52,-1.05 2.86,-2.03 4.34,-3.14 1.52,-1.14 2.86,-2.2 4.33,-3.41 1.53,-1.25 2.87,-2.4 4.34,-3.71 1.53,-1.35 2.87,-2.59 4.34,-4.01 1.52,-1.47 2.87,-2.82 4.34,-4.35 1.52,-1.6 2.87,-3.06 4.33,-4.72 1.54,-1.75 2.89,-3.33 4.34,-5.14 1.54,-1.91 2.89,-3.65 4.34,-5.63 1.55,-2.11 2.9,-4.03 4.34,-6.21 1.56,-2.37 2.91,-4.52 4.33,-6.96 1.58,-2.71 2.95,-5.17 4.34,-7.98 1.61,-3.22 3,-6.16 4.34,-9.51 1.69,-4.21 3.24,-8.02 4.34,-12.43 2.37,-9.5 4.34,-28.05 4.34,-28.05" style="fill:none;stroke:#000000;stroke-width:6.97385;stroke-linecap:butt;stroke-linejoin:miter;stroke-miterlimit:10;stroke-dasharray:none;stroke-opacity:1" transform="matrix(0.13333333,0,0,-0.13333333,0,1122.6667)"/>
    <path id="path101" d="m 4117.62,5572.55 c 0,0 1.97,20.7 4.34,31.37 1.09,4.97 2.65,9.3 4.33,14.11 1.35,3.83 2.73,7.21 4.34,10.94 1.4,3.25 2.76,6.12 4.34,9.29 1.43,2.87 2.78,5.42 4.34,8.22 1.44,2.6 2.79,4.9 4.33,7.43 1.46,2.39 2.81,4.5 4.34,6.83 1.46,2.21 2.81,4.17 4.34,6.32 1.47,2.06 2.81,3.89 4.34,5.89 1.46,1.93 2.81,3.63 4.34,5.51 1.46,1.81 2.81,3.4 4.34,5.16 1.46,1.69 2.81,3.19 4.33,4.84 1.47,1.59 2.82,2.99 4.34,4.53 1.47,1.49 2.82,2.81 4.34,4.25 1.47,1.39 2.81,2.62 4.34,3.97 1.47,1.3 2.81,2.44 4.33,3.69 1.48,1.21 2.82,2.27 4.34,3.43 1.48,1.12 2.82,2.1 4.34,3.15 1.48,1.04 2.82,1.93 4.34,2.9 1.48,0.94 2.82,1.75 4.34,2.62 1.47,0.85 2.82,1.59 4.33,2.36 1.48,0.76 2.83,1.41 4.34,2.09 1.48,0.66 2.83,1.23 4.34,1.81 1.48,0.56 2.82,1.04 4.34,1.53 1.48,0.47 2.82,0.85 4.34,1.24 1.48,0.37 2.82,0.67 4.33,0.94 1.49,0.27 2.84,0.48 4.34,0.64 1.49,0.17 2.84,0.27 4.34,0.33 1.49,0.06 2.84,0.06 4.34,0.01 1.5,-0.06 2.84,-0.16 4.33,-0.33 1.51,-0.17 2.86,-0.39 4.34,-0.68 1.51,-0.3 2.86,-0.62 4.34,-1.04 1.52,-0.43 2.86,-0.87 4.34,-1.42 1.52,-0.57 2.87,-1.13 4.34,-1.82 1.52,-0.71 2.87,-1.41 4.34,-2.25 1.53,-0.87 2.87,-1.7 4.33,-2.69 1.54,-1.04 2.88,-2.02 4.34,-3.17 1.54,-1.22 2.89,-2.37 4.34,-3.69 1.54,-1.42 2.89,-2.74 4.34,-4.25 1.55,-1.63 2.89,-3.15 4.33,-4.88 1.56,-1.87 2.91,-3.59 4.34,-5.56 1.57,-2.14 2.91,-4.12 4.34,-6.35 1.57,-2.46 2.92,-4.71 4.34,-7.26 1.58,-2.84 2.92,-5.44 4.33,-8.36 1.6,-3.32 2.95,-6.34 4.34,-9.74 1.62,-3.95 2.97,-7.54 4.34,-11.58 1.66,-4.9 3.02,-9.33 4.34,-14.33 1.74,-6.64 3.26,-12.63 4.34,-19.41 2.47,-15.56 4.33,-45.46 4.33,-45.46" style="fill:none;stroke:#000000;stroke-width:6.97385;stroke-linecap:butt;stroke-linejoin:miter;stroke-miterlimit:10;stroke-dasharray:none;stroke-opacity:1" transform="matrix(0.13333333,0,0,-0.13333333,0,1122.6667)"/>
    <path id="path102" d="m 4500.28,5572.98 c 0,0 0.77,41.52 1.73,63.38 0.44,9.83 1.06,18.64 1.74,28.46 0.54,7.78 1.09,14.77 1.73,22.54 0.56,6.78 1.11,12.86 1.74,19.63 0.57,6.17 1.11,11.7 1.73,17.86 0.58,5.74 1.12,10.9 1.74,16.63 0.58,5.44 1.12,10.32 1.73,15.75 0.59,5.22 1.13,9.89 1.74,15.1 0.59,5.04 1.13,9.56 1.73,14.6 0.59,4.9 1.13,9.3 1.74,14.19 0.59,4.79 1.13,9.09 1.74,13.88 0.59,4.71 1.13,8.93 1.73,13.63 0.6,4.63 1.13,8.79 1.74,13.42 0.59,4.57 1.13,8.68 1.73,13.25 0.6,4.52 1.14,8.58 1.74,13.11 0.59,4.48 1.13,8.52 1.73,13 0.6,4.46 1.14,8.46 1.74,12.92 0.6,4.44 1.13,8.42 1.73,12.85 0.6,4.42 1.14,8.39 1.74,12.8 0.6,4.41 1.13,8.37 1.73,12.77 0.6,4.4 1.14,8.35 1.74,12.75 0.6,4.39 1.14,8.34 1.74,12.73 0.59,4.39 1.13,8.33 1.73,12.72 0.6,4.4 1.14,8.34 1.74,12.73 0.59,4.4 1.13,8.35 1.73,12.75 0.6,4.4 1.14,8.36 1.74,12.76 0.6,4.42 1.14,8.38 1.73,12.79 0.6,4.43 1.14,8.4 1.74,12.82 0.6,4.44 1.13,8.43 1.73,12.87 0.6,4.45 1.14,8.44 1.74,12.89 0.6,4.47 1.14,8.48 1.73,12.95 0.61,4.48 1.14,8.51 1.74,12.99 0.6,4.5 1.14,8.54 1.74,13.04 0.59,4.53 1.13,8.59 1.73,13.11 0.6,4.55 1.14,8.62 1.74,13.17 0.6,4.56 1.13,8.65 1.73,13.22 0.6,4.58 1.14,8.7 1.74,13.28 0.6,4.61 1.13,8.75 1.73,13.36 0.6,4.64 1.14,8.8 1.74,13.43 0.6,4.66 1.13,8.84 1.73,13.5 0.6,4.69 1.14,8.89 1.74,13.57 0.6,4.71 1.14,8.94 1.73,13.66 0.61,4.73 1.14,8.99 1.74,13.72 0.6,4.77 1.14,9.05 1.73,13.81 0.6,4.79 1.14,9.1 1.74,13.9 0.6,4.82 1.14,9.14 1.74,13.96 0.6,4.86 1.13,9.21 1.73,14.06 0.6,4.89 1.14,9.27 1.74,14.15 0.6,4.92 1.73,14.24 1.73,14.24" style="fill:none;stroke:#000000;stroke-width:6.97385;stroke-linecap:butt;stroke-linejoin:miter;stroke-miterlimit:10;stroke-dasharray:none;stroke-opacity:1" transform="matrix(0.13333333,0,0,-0.13333333,0,1122.6667)"/>
    <g id="g102" aria-label="¯&#10;ℓ" transform="matrix(1.3333333,0,0,1.3333333,430.14267,275.976)" clip-path="url(#clipPath105)">
      <path id="path103" d="M 4.6888984,-6.0933281 V -6.4331719 H 0.75139844 v 0.3398438 z m 0,0" style="fill:#000000;fill-opacity:1;fill-rule:nonzero;stroke:none"/>
      <path id="path104" d="m -0.66364063,1.8021797 c -0.0234375,0.035156 -0.0585938,0.058594 -0.0585938,0.1054687 0,0.058594 0.0703125,0.140625 0.12890625,0.140625 0.0585938,0 0.09375,-0.035156 0.3984375,-0.3398437 0.0820313,-0.070312 0.3046875,-0.28125 0.38671875,-0.3632813 0.1171875,0.8554688 0.43359375,1.6640625 1.23046873,1.6640625 0.4335938,0 0.8203126,-0.2460937 1.0429687,-0.4101562 0.1523439,-0.1171875 0.6679689,-0.5390625 0.6679689,-0.6445313 0,-0.035156 -0.035156,-0.1289062 -0.1289064,-0.1289062 -0.035156,0 -0.046875,0.011719 -0.1406249,0.09375 -0.7031251,0.6914062 -1.1015626,0.8554687 -1.4179688,0.8554687 -0.49218748,0 -0.66796873,-0.5742187 -0.66796873,-1.4179687 0,-0.070312 0.0234375,-0.57421876 0.046875,-0.62109376 0.0234375,-0.0351563 0.0234375,-0.0585938 0.24609373,-0.28125 0.8789062,-0.87890625 2.4375,-2.71875004 2.4375,-4.41796874 0,-0.1875 0,-0.84375 -0.6445313,-0.84375 -0.9140625,0 -1.7226562,1.7929687 -1.828125,2.0507812 -0.52734368,1.1835938 -0.85546868,2.46093754 -0.85546868,3.7617188 z m 1.546875,-1.53515626 C 0.90667187,0.14983594 1.3754219,-2.2642266 1.9965156,-3.5415703 c 0.2929688,-0.5976563 0.5273438,-1.03125 0.8789063,-1.03125 0.3632812,0 0.3632812,0.3984375 0.3632812,0.5742187 0,1.8164063 -1.828125,3.72656254 -2.35546873,4.26562504 z m 0,0" style="fill:#000000;fill-opacity:1;fill-rule:nonzero;stroke:none"/>
    </g>
    <path id="path106" d="m 5.2961094,-2.9880547 c 0,-1.2773437 -1.0546875,-2.3203125 -2.3085938,-2.3203125 -1.3007812,0 -2.32031247,1.0664063 -2.32031247,2.3203125 0,1.2773438 1.05468747,2.32031251 2.30859377,2.32031251 1.3007812,0 2.3203125,-1.06640621 2.3203125,-2.32031251 z m 0,0" style="fill:#00ff00;fill-opacity:1;fill-rule:nonzero;stroke:none" aria-label="•" transform="matrix(1.3333333,0,0,1.3333333,425.82133,302.04267)"/>
    <g id="g106" aria-label="¯&#10;P&#10;1" transform="matrix(1.3333333,0,0,1.3333333,414.48533,289.56267)" clip-path="url(#clipPath110)">
      <path id="path107" d="M 3.6320937,-4.4415312 V -4.7462187 H 0.58521875 v 0.3046875 z m 0,0" style="fill:#000000;fill-opacity:1;fill-rule:nonzero;stroke:none"/>
      <path id="path108" d="m -0.0124375,-0.4454375 h 1.453125 c 1.1484375,0 2.34375,-0.796875 2.34375,-1.734375 0,-0.6796875 -0.6445313,-1.21875 -1.6640625,-1.21875 h -2.68359375 c -0.15234375,0 -0.24609375,0 -0.24609375,0.140625 0,0.1171875 0.09375,0.1171875 0.22265625,0.1171875 0.26953125,0 0.4921875,0 0.4921875,0.1289063 0,0.035156 0,0.035156 -0.0234375,0.140625 L -1.1843125,1.406125 c -0.082031,0.2929688 -0.09375,0.375 -0.65625,0.375 -0.1875,0 -0.2695313,0 -0.2695313,0.140625 0,0.035156 0.023437,0.1171875 0.1289063,0.1171875 0.140625,0 0.3398437,-0.011719 0.4921875,-0.023437 h 0.50390625 c 0.7734375,0 0.97265625,0.023437 1.03125,0.023437 0.046875,0 0.1640625,0 0.1640625,-0.1523437 0,-0.1054688 -0.10546875,-0.1054688 -0.24609375,-0.1054688 -0.0234375,0 -0.1640625,0 -0.3046875,-0.023437 -0.1640625,-0.011719 -0.17578125,-0.035156 -0.17578125,-0.1054687 0,-0.046875 0.0117188,-0.09375 0.0234375,-0.1289063 z M 0.5735,-2.8477812 C 0.6438125,-3.1173125 0.65553125,-3.14075 0.98365625,-3.14075 H 1.8508437 c 0.65625,0 1.1601563,0.1875 1.1601563,0.7851563 0,0.09375 -0.035156,0.8085937 -0.4921875,1.2421875 C 2.401625,-0.9845 2.026625,-0.69153125 1.2414687,-0.69153125 H 0.0344375 Z m 0,0" style="fill:#000000;fill-opacity:1;fill-rule:nonzero;stroke:none"/>
      <path id="path109" d="m 5.0236953,-0.67688281 c 0,-0.17578125 -0.023437,-0.17578125 -0.1992187,-0.17578125 -0.3984375,0.375 -1.0078125,0.375 -1.21875,0.375 v 0.234375 c 0.1523437,0 0.5507812,0 0.9023437,-0.1640625 V 2.6160859 c 0,0.1875 0,0.2695313 -0.609375,0.2695313 H 3.6408828 v 0.234375 c 0.328125,-0.023437 0.796875,-0.023437 1.125,-0.023437 0.3398438,0 0.796875,0 1.1367188,0.023437 V 2.8856172 H 5.6447891 c -0.6210938,0 -0.6210938,-0.082031 -0.6210938,-0.2695313 z m 0,0" style="fill:#000000;fill-opacity:1;fill-rule:nonzero;stroke:none"/>
    </g>
    <path id="path111" d="m 5.296125,-2.9874297 c 0,-1.2773437 -1.0546875,-2.3203125 -2.3085937,-2.3203125 -1.3007813,0 -2.32031255,1.0664063 -2.32031255,2.3203125 0,1.2773438 1.05468755,2.32031251 2.30859375,2.32031251 1.3007813,0 2.3203125,-1.06640621 2.3203125,-2.32031251 z m 0,0" style="fill:#00ff00;fill-opacity:1;fill-rule:nonzero;stroke:none" aria-label="•" transform="matrix(1.3333333,0,0,1.3333333,500.376,400.22933)"/>
    <g id="g111" aria-label="¯&#10;P&#10;2" transform="matrix(1.3333333,0,0,1.3333333,501.79467,407.592)" clip-path="url(#clipPath115)">
      <path id="path112" d="M 3.6315391,-4.4400937 V -4.7447812 H 0.58466406 v 0.3046875 z m 0,0" style="fill:#000000;fill-opacity:1;fill-rule:nonzero;stroke:none"/>
      <path id="path113" d="M -0.01299219,-0.444 H 1.4401328 c 1.1484375,0 2.34375,-0.796875 2.34375,-1.734375 0,-0.6796875 -0.6445312,-1.21875 -1.6640625,-1.21875 h -2.68359374 c -0.15234375,0 -0.24609375,0 -0.24609375,0.140625 0,0.1171875 0.09375,0.1171875 0.22265625,0.1171875 0.26953125,0 0.4921875,0 0.4921875,0.1289063 0,0.035156 0,0.035156 -0.0234375,0.140625 L -1.1848672,1.4075625 c -0.082031,0.2929688 -0.09375,0.375 -0.65625,0.375 -0.1875,0 -0.2695312,0 -0.2695312,0.140625 0,0.035156 0.023437,0.1171875 0.1289062,0.1171875 0.140625,0 0.3398438,-0.011719 0.4921875,-0.023437 h 0.50390626 c 0.7734375,0 0.97265625,0.023437 1.03125,0.023437 0.046875,0 0.1640625,0 0.1640625,-0.1523437 0,-0.1054688 -0.10546875,-0.1054688 -0.24609375,-0.1054688 -0.0234375,0 -0.1640625,0 -0.3046875,-0.023437 -0.1640625,-0.011719 -0.17578125,-0.035156 -0.17578125,-0.1054687 0,-0.046875 0.0117188,-0.09375 0.0234375,-0.1289063 z m 0.5859375,-2.4023437 c 0.0703125,-0.2695313 0.0820313,-0.2929688 0.41015625,-0.2929688 H 1.8502891 c 0.65625,0 1.1601562,0.1875 1.1601562,0.7851563 0,0.09375 -0.035156,0.8085937 -0.4921875,1.2421875 -0.1171875,0.1289062 -0.4921875,0.42187495 -1.2773437,0.42187495 H 0.03388281 Z m 0,0" style="fill:#000000;fill-opacity:1;fill-rule:nonzero;stroke:none"/>
      <path id="path114" d="M 6.0924766,2.0052188 H 5.8815391 c -0.023437,0.082031 -0.082031,0.46875 -0.1640625,0.5390625 -0.046875,0.035156 -0.5273438,0.035156 -0.609375,0.035156 h -1.125 C 4.1588828,2.4388125 4.5807578,2.0989688 4.7565391,1.9583438 4.9557578,1.7942813 5.4831016,1.4192813 5.6706016,1.2317813 5.8463828,1.056 6.0924766,0.7513125 6.0924766,0.3294375 c 0,-0.75 -0.6679688,-1.18359375 -1.4765625,-1.18359375 -0.7617188,0 -1.3007813,0.50390625 -1.3007813,1.06640625 0,0.3046875 0.2578125,0.33984375 0.3164063,0.33984375 0.1523437,0 0.328125,-0.10546875 0.328125,-0.31640625 0,-0.140625 -0.082031,-0.328125 -0.3398438,-0.328125 0.1289063,-0.3046875 0.5039063,-0.52734375 0.9140625,-0.52734375 0.6210938,0 0.9609375,0.46875 0.9609375,0.94921875 0,0.421875 -0.28125,0.8554688 -0.703125,1.2421875 L 3.3737266,2.8724063 C 3.3151328,2.931 3.3151328,2.931 3.3151328,3.1185 h 2.6015625 z m 0,0" style="fill:#000000;fill-opacity:1;fill-rule:nonzero;stroke:none"/>
    </g>
    <path id="path116" d="m 5.2975469,-2.9892656 c 0,-1.2773438 -1.0546875,-2.3203125 -2.3085938,-2.3203125 -1.3007812,0 -2.32031247,1.0664062 -2.32031247,2.3203125 0,1.2773437 1.05468747,2.32031248 2.30859377,2.32031248 1.3007812,0 2.3203125,-1.06640628 2.3203125,-2.32031248 z m 0,0" style="fill:#00ff00;fill-opacity:1;fill-rule:nonzero;stroke:none" aria-label="•" transform="matrix(1.3333333,0,0,1.3333333,556.35067,364.056)"/>
    <g id="g116" aria-label="¯&#10;P&#10;3" transform="matrix(1.3333333,0,0,1.3333333,552.10133,351.576)" clip-path="url(#clipPath120)">
      <path id="path117" d="M 3.6329844,-4.4427422 V -4.7474297 H 0.58610938 v 0.3046875 z m 0,0" style="fill:#000000;fill-opacity:1;fill-rule:nonzero;stroke:none"/>
      <path id="path118" d="M -0.01154687,-0.44371875 H 1.4415781 c 1.1484375,0 2.34375,-0.79687495 2.34375,-1.73437495 0,-0.6796875 -0.6445312,-1.21875 -1.6640625,-1.21875 h -2.68359372 c -0.15234375,0 -0.24609375,0 -0.24609375,0.140625 0,0.1171875 0.09375,0.1171875 0.22265625,0.1171875 0.26953125,0 0.4921875,0 0.4921875,0.1289062 0,0.035156 0,0.035156 -0.0234375,0.140625 L -1.1834219,1.4078438 c -0.082031,0.2929687 -0.09375,0.375 -0.65625,0.375 -0.1875,0 -0.2695312,0 -0.2695312,0.140625 0,0.035156 0.023437,0.1171875 0.1289062,0.1171875 0.140625,0 0.3398438,-0.011719 0.4921875,-0.023437 h 0.50390628 c 0.7734375,0 0.97265625,0.023437 1.03125,0.023437 0.046875,0 0.1640625,0 0.1640625,-0.1523438 0,-0.1054687 -0.10546875,-0.1054687 -0.24609375,-0.1054687 -0.0234375,0 -0.1640625,0 -0.3046875,-0.023437 -0.1640625,-0.011719 -0.17578125,-0.035156 -0.17578125,-0.1054688 0,-0.046875 0.0117188,-0.09375 0.0234375,-0.1289062 z m 0.5859375,-2.40234375 c 0.0703125,-0.2695312 0.0820313,-0.2929687 0.41015625,-0.2929687 H 1.8517344 c 0.65625,0 1.1601562,0.1875 1.1601562,0.7851562 0,0.09375 -0.035156,0.8085938 -0.4921875,1.2421875 -0.1171875,0.12890625 -0.4921875,0.421875 -1.2773437,0.421875 H 0.03532813 Z m 0,0" style="fill:#000000;fill-opacity:1;fill-rule:nonzero;stroke:none"/>
      <path id="path119" d="m 4.6378672,1.1412422 c 0.5039062,0 0.84375,0.3398437 0.84375,0.9492187 0,0.65625 -0.3867188,0.9375 -0.8320313,0.9375 -0.1523437,0 -0.7734375,-0.035156 -1.0429687,-0.375 0.234375,-0.023437 0.328125,-0.1875 0.328125,-0.3398437 0,-0.2109375 -0.140625,-0.3398438 -0.3398438,-0.3398438 -0.1640625,0 -0.3398437,0.09375 -0.3398437,0.3515625 0,0.5859375 0.65625,0.9257813 1.4179687,0.9257813 0.8789063,0 1.4765625,-0.5742188 1.4765625,-1.1601563 0,-0.4335937 -0.3398437,-0.9023437 -1.0429687,-1.078125 0.46875,-0.15234371 0.8554687,-0.53906246 0.8554687,-1.03124996 0,-0.48046875 -0.5625,-0.83203125 -1.2773437,-0.83203125 -0.703125,0 -1.2421875,0.31640625 -1.2421875,0.80859375 0,0.2578125 0.1992187,0.328125 0.3164062,0.328125 0.1640625,0 0.328125,-0.10546875 0.328125,-0.31640625 0,-0.1875 -0.140625,-0.29296875 -0.2929687,-0.31640625 0.2695312,-0.3046875 0.8203125,-0.3046875 0.8671875,-0.3046875 0.3046875,0 0.6914062,0.140625 0.6914062,0.6328125 0,0.328125 -0.1875,0.90234375 -0.7851562,0.9375 -0.1054688,0.0117188 -0.2695313,0.0234375 -0.3164063,0.0234375 -0.058594,0 -0.1289062,0.0117188 -0.1289062,0.10546876 0,0.09375 0.070312,0.09375 0.1640625,0.09375 z m 0,0" style="fill:#000000;fill-opacity:1;fill-rule:nonzero;stroke:none"/>
    </g>
    <path id="path121" d="m 5.2957734,-2.9896797 c 0,-1.2773437 -1.0546875,-2.3203125 -2.3085937,-2.3203125 -1.3007813,0 -2.32031251,1.0664063 -2.32031251,2.3203125 0,1.2773438 1.05468751,2.32031251 2.30859371,2.32031251 1.3007813,0 2.3203125,-1.06640621 2.3203125,-2.32031251 z m 0,0" style="fill:#00ff00;fill-opacity:1;fill-rule:nonzero;stroke:none" aria-label="•" transform="matrix(1.3333333,0,0,1.3333333,600.396,429.85733)"/>
    <g id="g121" aria-label="¯&#10;P&#10;4" transform="matrix(1.3333333,0,0,1.3333333,591.60933,425.88133)" clip-path="url(#clipPath125)">
      <path id="path122" d="M 3.6328438,-4.4402969 V -4.7449844 H 0.58596875 v 0.3046875 z m 0,0" style="fill:#000000;fill-opacity:1;fill-rule:nonzero;stroke:none"/>
      <path id="path123" d="m -0.0116875,-0.44420312 h 1.453125 c 1.1484375,0 2.34375,-0.79687498 2.34375,-1.73437498 0,-0.6796875 -0.6445312,-1.21875 -1.6640625,-1.21875 h -2.68359375 c -0.15234375,0 -0.24609375,0 -0.24609375,0.140625 0,0.1171875 0.09375,0.1171875 0.22265625,0.1171875 0.26953125,0 0.4921875,0 0.4921875,0.1289062 0,0.035156 0,0.035156 -0.0234375,0.140625 L -1.1835625,1.4073594 c -0.082031,0.2929687 -0.09375,0.375 -0.65625,0.375 -0.1875,0 -0.2695312,0 -0.2695312,0.140625 0,0.035156 0.023437,0.1171875 0.1289062,0.1171875 0.140625,0 0.3398438,-0.011719 0.4921875,-0.023437 h 0.50390625 c 0.7734375,0 0.97265625,0.023437 1.03125,0.023437 0.046875,0 0.1640625,0 0.1640625,-0.1523438 0,-0.1054687 -0.10546875,-0.1054687 -0.24609375,-0.1054687 -0.0234375,0 -0.1640625,0 -0.3046875,-0.023437 -0.1640625,-0.011719 -0.17578125,-0.035156 -0.17578125,-0.1054688 0,-0.046875 0.0117188,-0.09375 0.0234375,-0.1289062 z M 0.57425,-2.8465469 C 0.6445625,-3.1160781 0.6562813,-3.1395156 0.98440625,-3.1395156 H 1.8515938 c 0.65625,0 1.1601562,0.1875 1.1601562,0.7851562 0,0.09375 -0.035156,0.8085938 -0.4921875,1.2421875 C 2.402375,-0.98326562 2.027375,-0.69029687 1.2422188,-0.69029687 H 0.0351875 Z m 0,0" style="fill:#000000;fill-opacity:1;fill-rule:nonzero;stroke:none"/>
      <path id="path124" d="m 6.2549141,2.1368516 v -0.234375 h -0.703125 v -2.63671879 c 0,-0.140625 0,-0.17578125 -0.1523438,-0.17578125 -0.1054687,0 -0.1171875,0.0117188 -0.1757812,0.0820313 L 3.1494453,1.9024766 v 0.234375 h 1.8632813 v 0.4804687 c 0,0.1992188 0,0.2695313 -0.5039063,0.2695313 H 4.3330391 v 0.234375 c 0.1289062,-0.011719 0.6914062,-0.023437 0.9492187,-0.023437 0.2578125,0 0.8203125,0.011719 0.9492188,0.023437 V 2.8868516 H 6.0556953 c -0.5039062,0 -0.5039062,-0.070312 -0.5039062,-0.2695313 V 2.1368516 Z M 5.0596016,-0.26549219 V 1.9024766 H 3.4072578 Z m 0,0" style="fill:#000000;fill-opacity:1;fill-rule:nonzero;stroke:none"/>
    </g>
    <path id="path126" d="m 3160.91,6492.89 c 0,0 18.83,-101.28 29.5,-154.5 9.73,-48.55 18.8,-92.08 29.5,-140.43 9.71,-43.9 18.78,-83.25 29.5,-126.92 9.7,-39.46 18.75,-74.81 29.51,-114 9.67,-35.22 18.71,-66.74 29.5,-101.64 9.64,-31.18 18.68,-59.06 29.51,-89.85 9.61,-27.35 18.64,-51.77 29.5,-78.64 9.59,-23.72 18.6,-44.86 29.5,-68 9.56,-20.3 18.57,-38.35 29.5,-57.93 9.54,-17.09 18.55,-32.22 29.51,-48.44 9.52,-14.09 18.54,-26.49 29.5,-39.5 9.54,-11.33 18.59,-21.16 29.51,-31.16 9.57,-8.77 18.68,-16.19 29.5,-23.37 9.67,-6.41 18.85,-11.57 29.5,-16.16 9.82,-4.23 19.06,-7.24 29.51,-9.52 10.01,-2.18 19.25,-3.21 29.5,-3.45 10.2,-0.24 19.42,0.51 29.5,2.04 10.34,1.57 19.51,3.88 29.5,6.97 10.42,3.21 19.55,6.87 29.51,11.31 10.44,4.66 19.55,9.48 29.5,15.1 10.44,5.89 19.53,11.68 29.51,18.31 10.4,6.91 19.48,13.48 29.5,20.94 10.36,7.71 19.45,14.91 29.5,23 10.31,8.3 19.4,15.96 29.51,24.5 10.26,8.68 19.35,16.62 29.5,25.43 10.21,8.86 19.3,16.9 29.5,25.77 10.17,8.84 19.26,16.81 29.51,25.54 10.11,8.62 19.2,16.36 29.5,24.76 10.07,8.21 19.16,15.53 29.5,23.39 10.03,7.61 19.12,14.34 29.51,21.45 9.99,6.82 19.08,12.8 29.5,18.94 9.96,5.86 19.06,10.9 29.51,15.86 9.95,4.72 19.07,8.65 29.5,12.2 9.98,3.4 19.14,6.04 29.5,7.99 10.06,1.89 19.27,3.01 29.5,3.18 10.21,0.17 19.45,-0.45 29.51,-2.18 10.4,-1.81 19.64,-4.36 29.5,-8.13 10.61,-4.05 19.81,-8.72 29.51,-14.64 10.78,-6.57 19.91,-13.49 29.5,-21.72 10.9,-9.34 19.96,-18.63 29.5,-29.37 10.96,-12.33 19.98,-24.14 29.51,-37.6 10.95,-15.49 19.97,-30 29.5,-46.4 10.94,-18.82 19.95,-36.21 29.5,-55.77 10.91,-22.34 19.93,-42.78 29.5,-65.72 10.88,-26.03 19.9,-49.71 29.51,-76.23 10.83,-29.9 19.87,-57 29.5,-87.32 10.8,-33.96 19.85,-64.66 29.51,-98.97 10.76,-38.21 19.81,-72.7 29.5,-111.2 10.73,-42.66 29.5,-124.01 29.5,-124.01" style="fill:none;stroke:#00ff00;stroke-width:6.97385;stroke-linecap:butt;stroke-linejoin:miter;stroke-miterlimit:10;stroke-dasharray:none;stroke-opacity:1" transform="matrix(0.13333333,0,0,-0.13333333,0,1122.6667)" clip-path="url(#clipPath127)"/>
    <path id="path128" d="m 5.2955234,-2.9874297 c 0,-1.2773437 -1.0546875,-2.3203125 -2.3085937,-2.3203125 -1.3007813,0 -2.32031251,1.0664063 -2.32031251,2.3203125 0,1.2773438 1.05468751,2.32031251 2.30859371,2.32031251 1.3007813,0 2.3203125,-1.06640621 2.3203125,-2.32031251 z m 0,0" style="fill:#0000ff;fill-opacity:1;fill-rule:nonzero;stroke:none" aria-label="•" transform="matrix(1.3333333,0,0,1.3333333,516.02133,387.72933)"/>
    <g id="g128" aria-label="P&#10;′&#10;1" transform="matrix(1.3333333,0,0,1.3333333,522.584,390.38267)" clip-path="url(#clipPath132)">
      <path id="path129" d="m 2.5092656,-2.4842656 h 1.453125 c 1.1484375,0 2.34375,-0.796875 2.34375,-1.734375 0,-0.6796875 -0.6445312,-1.21875 -1.6640625,-1.21875 H 1.9584844 c -0.1523438,0 -0.2460938,0 -0.2460938,0.140625 0,0.1171875 0.09375,0.1171875 0.2226563,0.1171875 0.2695312,0 0.4921875,0 0.4921875,0.1289062 0,0.035156 0,0.035156 -0.023437,0.140625 l -1.0664063,4.27734378 c -0.082031,0.29296875 -0.09375,0.375 -0.65624997,0.375 -0.1875,0 -0.26953125,0 -0.26953125,0.140625 0,0.03515625 0.0234375,0.117187495 0.12890625,0.117187495 0.140625,0 0.33984375,-0.011718745 0.49218747,-0.023437495 h 0.5039063 c 0.7734375,0 0.9726562,0.023437495 1.03125,0.023437495 0.046875,0 0.1640625,0 0.1640625,-0.152343745 0,-0.10546875 -0.1054688,-0.10546875 -0.2460938,-0.10546875 -0.023437,0 -0.1640625,0 -0.3046875,-0.0234375 -0.1640625,-0.0117188 -0.1757812,-0.0351563 -0.1757812,-0.10546875 0,-0.046875 0.011719,-0.09375 0.023437,-0.12890625 z m 0.5859375,-2.4023438 c 0.070312,-0.2695312 0.082031,-0.2929687 0.4101563,-0.2929687 h 0.8671875 c 0.65625,0 1.1601562,0.1875 1.1601562,0.7851562 0,0.09375 -0.035156,0.8085938 -0.4921875,1.2421875 -0.1171875,0.1289063 -0.4921875,0.421875 -1.2773437,0.421875 H 2.5561406 Z m 0,0" style="fill:#000000;fill-opacity:1;fill-rule:nonzero;stroke:none"/>
      <path id="path130" d="m 8.4741094,-5.6805547 c 0.035156,-0.09375 0.058594,-0.1289062 0.058594,-0.1992187 0,-0.1992188 -0.1875,-0.3398438 -0.3632812,-0.3398438 -0.1992188,0 -0.2929688,0.140625 -0.328125,0.2578125 l -0.84375,2.6015625 c -0.035156,0.082031 -0.035156,0.09375 -0.035156,0.09375 0,0.09375 0.1875,0.1523438 0.2460938,0.1523438 0.058594,0 0.082031,-0.046875 0.1054687,-0.09375 z m 0,0" style="fill:#000000;fill-opacity:1;fill-rule:nonzero;stroke:none"/>
      <path id="path131" d="m 7.5453984,-1.3973516 c 0,-0.1757812 -0.023437,-0.1757812 -0.1992187,-0.1757812 -0.3984375,0.375 -1.0078125,0.375 -1.21875,0.375 v 0.23437499 c 0.1523437,0 0.5507812,0 0.9023437,-0.16406249 v 3.0234375 c 0,0.1875 0,0.2695312 -0.609375,0.2695312 H 6.1625859 v 0.234375 c 0.328125,-0.023437 0.796875,-0.023437 1.125,-0.023437 0.3398438,0 0.796875,0 1.1367188,0.023437 V 2.1651484 H 8.1664922 c -0.6210938,0 -0.6210938,-0.082031 -0.6210938,-0.2695312 z m 0,0" style="fill:#000000;fill-opacity:1;fill-rule:nonzero;stroke:none"/>
    </g>
    <path id="path133" d="m 5.2964297,-2.9883203 c 0,-1.2773438 -1.0546875,-2.3203125 -2.3085938,-2.3203125 -1.3007812,0 -2.32031246,1.0664062 -2.32031246,2.3203125 0,1.2773437 1.05468746,2.32031249 2.30859376,2.32031249 1.3007812,0 2.3203125,-1.06640629 2.3203125,-2.32031249 z m 0,0" style="fill:#0000ff;fill-opacity:1;fill-rule:nonzero;stroke:none" aria-label="•" transform="matrix(1.3333333,0,0,1.3333333,570.692,370.11333)"/>
    <g id="g133" aria-label="P&#10;′&#10;2" transform="matrix(1.3333333,0,0,1.3333333,578.672,364.26267)" clip-path="url(#clipPath137)">
      <path id="path134" d="m 2.5077187,-2.4850859 h 1.453125 c 1.1484375,0 2.34375,-0.796875 2.34375,-1.734375 0,-0.6796875 -0.6445312,-1.21875 -1.6640625,-1.21875 H 1.9569375 c -0.1523438,0 -0.2460938,0 -0.2460938,0.140625 0,0.1171875 0.09375,0.1171875 0.2226563,0.1171875 0.2695312,0 0.4921875,0 0.4921875,0.1289062 0,0.035156 0,0.035156 -0.023437,0.140625 l -1.0664063,4.27734376 c -0.082031,0.29296875 -0.09375,0.375 -0.65624995,0.375 -0.1875,0 -0.26953125,0 -0.26953125,0.140625 0,0.03515625 0.0234375,0.1171875025 0.12890625,0.1171875025 0.140625,0 0.33984375,-0.0117187525 0.49218745,-0.0234375025 H 1.535063 c 0.7734375,0 0.9726562,0.0234375025 1.03125,0.0234375025 0.046875,0 0.1640625,0 0.1640625,-0.1523437525 0,-0.10546875 -0.1054688,-0.10546875 -0.2460938,-0.10546875 -0.023437,0 -0.1640625,0 -0.3046875,-0.0234375 -0.1640625,-0.0117188 -0.1757812,-0.0351563 -0.1757812,-0.10546875 0,-0.046875 0.011719,-0.09375 0.023437,-0.12890625 z m 0.5859375,-2.4023438 c 0.070312,-0.2695312 0.082031,-0.2929687 0.4101563,-0.2929687 H 4.371 c 0.65625,0 1.1601562,0.1875 1.1601562,0.7851562 0,0.09375 -0.035156,0.8085938 -0.4921875,1.2421875 -0.1171875,0.1289063 -0.4921875,0.421875 -1.2773437,0.421875 H 2.5545937 Z m 0,0" style="fill:#000000;fill-opacity:1;fill-rule:nonzero;stroke:none"/>
      <path id="path135" d="m 8.4754922,-5.681375 c 0.035156,-0.09375 0.058594,-0.1289062 0.058594,-0.1992187 0,-0.1992188 -0.1875,-0.3398438 -0.3632812,-0.3398438 -0.1992188,0 -0.2929688,0.140625 -0.328125,0.2578125 l -0.84375,2.6015625 c -0.035156,0.082031 -0.035156,0.09375 -0.035156,0.09375 0,0.09375 0.1875,0.1523438 0.2460938,0.1523438 0.058594,0 0.082031,-0.046875 0.1054687,-0.09375 z m 0,0" style="fill:#000000;fill-opacity:1;fill-rule:nonzero;stroke:none"/>
      <path id="path136" d="M 8.6102578,1.2854219 H 8.3993203 c -0.023437,0.082031 -0.082031,0.46875 -0.1640625,0.5390625 -0.046875,0.035156 -0.5273437,0.035156 -0.609375,0.035156 h -1.125 C 6.6766641,1.7190156 7.0985391,1.3791719 7.2743203,1.2385469 7.4735391,1.0744844 8.0008828,0.69948438 8.1883828,0.51198438 c 0.1757813,-0.17578125 0.421875,-0.48046875 0.421875,-0.90234375 0,-0.75000003 -0.6679687,-1.18359373 -1.4765625,-1.18359373 -0.7617187,0 -1.3007812,0.5039062 -1.3007812,1.06640623 0,0.3046875 0.2578125,0.33984375 0.3164062,0.33984375 0.1523438,0 0.328125,-0.10546875 0.328125,-0.31640625 0,-0.140625 -0.082031,-0.328125 -0.3398437,-0.328125 0.1289062,-0.30468753 0.5039062,-0.52734373 0.9140625,-0.52734373 0.6210937,0 0.9609375,0.46874998 0.9609375,0.94921873 0,0.421875 -0.28125,0.85546875 -0.703125,1.2421875 L 5.8915078,2.1526094 c -0.058594,0.058594 -0.058594,0.058594 -0.058594,0.2460937 h 2.6015625 z m 0,0" style="fill:#000000;fill-opacity:1;fill-rule:nonzero;stroke:none"/>
    </g>
    <path id="path138" d="m 5.2968203,-2.9886797 c 0,-1.2773437 -1.0546875,-2.3203125 -2.3085937,-2.3203125 -1.3007813,0 -2.32031254,1.0664063 -2.32031254,2.3203125 0,1.2773438 1.05468754,2.32031251 2.30859374,2.32031251 1.3007813,0 2.3203125,-1.06640621 2.3203125,-2.32031251 z m 0,0" style="fill:#0000ff;fill-opacity:1;fill-rule:nonzero;stroke:none" aria-label="•" transform="matrix(1.3333333,0,0,1.3333333,459.05867,394.356)"/>
    <g id="g138" aria-label="P&#10;′&#10;3" transform="matrix(1.3333333,0,0,1.3333333,445.77867,394.17467)" clip-path="url(#clipPath142)">
      <path id="path139" d="m 2.5068203,-2.4835391 h 1.453125 c 1.1484375,0 2.34375,-0.796875 2.34375,-1.734375 0,-0.6796875 -0.6445312,-1.21875 -1.6640625,-1.21875 H 1.9560391 c -0.1523438,0 -0.2460938,0 -0.2460938,0.140625 0,0.1171875 0.09375,0.1171875 0.2226563,0.1171875 0.2695312,0 0.4921875,0 0.4921875,0.1289063 0,0.035156 0,0.035156 -0.023437,0.140625 l -1.0664063,4.27734374 c -0.082031,0.29296875 -0.09375,0.375 -0.65624999,0.375 -0.1875,0 -0.26953125,0 -0.26953125,0.140625 0,0.03515625 0.0234375,0.1171874975 0.12890625,0.1171874975 0.140625,0 0.33984375,-0.0117187475 0.49218749,-0.0234374975 h 0.5039063 c 0.7734375,0 0.9726562,0.0234374975 1.03125,0.0234374975 0.046875,0 0.1640625,0 0.1640625,-0.1523437475 0,-0.10546875 -0.1054688,-0.10546875 -0.2460938,-0.10546875 -0.023437,0 -0.1640625,0 -0.3046875,-0.0234375 -0.1640625,-0.0117188 -0.1757812,-0.0351563 -0.1757812,-0.10546875 0,-0.046875 0.011719,-0.09375 0.023437,-0.12890625 z m 0.5859375,-2.4023437 c 0.070312,-0.2695313 0.082031,-0.2929688 0.4101563,-0.2929688 h 0.8671875 c 0.65625,0 1.1601562,0.1875 1.1601562,0.7851563 0,0.09375 -0.035156,0.8085937 -0.4921875,1.2421875 -0.1171875,0.1289062 -0.4921875,0.421875 -1.2773437,0.421875 H 2.5536953 Z m 0,0" style="fill:#000000;fill-opacity:1;fill-rule:nonzero;stroke:none"/>
      <path id="path140" d="m 8.4745937,-5.6798281 c 0.035156,-0.09375 0.058594,-0.1289063 0.058594,-0.1992188 0,-0.1992187 -0.1875,-0.3398437 -0.3632813,-0.3398437 -0.1992187,0 -0.2929687,0.140625 -0.328125,0.2578125 l -0.84375,2.6015625 c -0.035156,0.082031 -0.035156,0.09375 -0.035156,0.09375 0,0.09375 0.1875,0.1523437 0.2460937,0.1523437 0.058594,0 0.082031,-0.046875 0.1054688,-0.09375 z m 0,0" style="fill:#000000;fill-opacity:1;fill-rule:nonzero;stroke:none"/>
      <path id="path141" d="m 7.1591641,0.41978125 c 0.5039062,0 0.84375,0.33984375 0.84375,0.94921875 0,0.65625 -0.3867188,0.9375 -0.8320313,0.9375 -0.1523437,0 -0.7734375,-0.035156 -1.0429687,-0.375 0.234375,-0.023437 0.328125,-0.1875 0.328125,-0.3398437 0,-0.2109375 -0.140625,-0.3398438 -0.3398438,-0.3398438 -0.1640625,0 -0.3398437,0.09375 -0.3398437,0.3515625 0,0.5859375 0.65625,0.9257813 1.4179687,0.9257813 0.8789063,0 1.4765625,-0.5742188 1.4765625,-1.1601563 0,-0.43359375 -0.3398437,-0.90234375 -1.0429687,-1.078125 0.46875,-0.15234375 0.8554687,-0.5390625 0.8554687,-1.03125 0,-0.4804687 -0.5625,-0.8320312 -1.2773437,-0.8320312 -0.703125,0 -1.2421875,0.3164062 -1.2421875,0.8085937 0,0.2578125 0.1992187,0.328125 0.3164062,0.328125 0.1640625,0 0.328125,-0.10546875 0.328125,-0.31640625 0,-0.1875 -0.140625,-0.29296875 -0.2929687,-0.31640625 0.2695312,-0.3046875 0.8203125,-0.3046875 0.8671875,-0.3046875 0.3046875,0 0.6914062,0.140625 0.6914062,0.6328125 0,0.328125 -0.1875,0.90234375 -0.7851562,0.9375 -0.1054688,0.0117188 -0.2695313,0.0234375 -0.3164063,0.0234375 -0.058594,0 -0.1289062,0.0117188 -0.1289062,0.10546875 0,0.09375 0.070312,0.09375 0.1640625,0.09375 z m 0,0" style="fill:#000000;fill-opacity:1;fill-rule:nonzero;stroke:none"/>
    </g>
    
  </g>
</svg>