<svg version="1.1" id="svg1" width="240.00156858172647" height="211.0019640473208" viewBox="445.0029084119512 153.50142882115517 240.00156858172647 211.0019640473208" sodipodi:docname="ch3.pdf" xmlns:inkscape="http://www.inkscape.org/namespaces/inkscape" xmlns:sodipodi="http://sodipodi.sourceforge.net/DTD/sodipodi-0.dtd" xmlns="http://www.w3.org/2000/svg" xmlns:svg="http://www.w3.org/2000/svg" style="">
  <defs id="defs1"/>
  <sodipodi:namedview id="namedview1" pagecolor="#ffffff" bordercolor="#000000" borderopacity="0.25" inkscape:showpageshadow="2" inkscape:pageopacity="0.0" inkscape:pagecheckerboard="0" inkscape:deskcolor="#d1d1d1">
    <inkscape:page x="0" y="0" inkscape:label="3" id="page1" width="793.33331" height="1122.6667" margin="0" bleed="0"/>
  </sodipodi:namedview>
  <g id="g1" inkscape:groupmode="layer" inkscape:label="3">
    
    
    
    
    
    
    
    
    
    
    
    
    
    
    <path id="path37" d="m 4550.66,6423.4 c 0,0 2.54,-38.25 5.79,-58.14 1.44,-8.85 3.55,-16.64 5.78,-25.33 1.81,-7.04 3.66,-13.31 5.79,-20.27 1.88,-6.17 3.71,-11.68 5.78,-17.78 1.93,-5.65 3.74,-10.7 5.79,-16.3 1.94,-5.29 3.75,-10.02 5.79,-15.28 1.95,-5.04 3.75,-9.55 5.78,-14.57 1.96,-4.85 3.76,-9.19 5.79,-14.02 1.96,-4.71 3.76,-8.93 5.78,-13.62 1.98,-4.6 3.77,-8.72 5.79,-13.3 1.98,-4.51 3.77,-8.56 5.78,-13.05 1.98,-4.44 3.78,-8.42 5.79,-12.85 1.98,-4.38 3.77,-8.31 5.78,-12.68 1.99,-4.34 3.78,-8.23 5.78,-12.55 1.99,-4.3 3.79,-8.16 5.79,-12.45 1.99,-4.27 3.78,-8.1 5.78,-12.37 1.99,-4.25 3.79,-8.05 5.79,-12.3 1.99,-4.23 3.79,-8.02 5.78,-12.25 2,-4.21 3.79,-7.99 5.79,-12.2 1.99,-4.21 3.79,-7.98 5.78,-12.18 2,-4.2 3.79,-7.96 5.79,-12.16 1.99,-4.19 3.79,-7.95 5.78,-12.14 2,-4.2 3.79,-7.96 5.79,-12.15 1.99,-4.19 3.79,-7.95 5.78,-12.14 2,-4.19 3.79,-7.95 5.79,-12.14 2,-4.2 3.79,-7.97 5.78,-12.16 2,-4.2 3.79,-7.97 5.79,-12.17 2,-4.21 3.79,-7.98 5.78,-12.19 2,-4.21 3.79,-7.99 5.79,-12.21 2,-4.22 3.79,-8.01 5.78,-12.23 2,-4.23 3.79,-8.03 5.79,-12.26 2,-4.24 3.79,-8.05 5.79,-12.28 1.99,-4.25 3.78,-8.07 5.78,-12.32 2,-4.27 3.79,-8.09 5.79,-12.35 1.99,-4.28 3.78,-8.11 5.78,-12.39 2,-4.28 3.79,-8.13 5.78,-12.42 2,-4.29 3.79,-8.15 5.79,-12.45 2,-4.31 3.79,-8.18 5.78,-12.5 2,-4.32 3.8,-8.2 5.79,-12.53 2,-4.34 3.79,-8.23 5.78,-12.57 2,-4.36 3.8,-8.26 5.79,-12.62 2,-4.36 3.79,-8.28 5.78,-12.65 2,-4.38 3.8,-8.32 5.79,-12.7 2,-4.4 3.79,-8.35 5.78,-12.74 2,-4.42 3.8,-8.38 5.79,-12.79 2,-4.43 3.79,-8.4 5.78,-12.83 2,-4.44 3.8,-8.43 5.79,-12.87 2,-4.46 3.79,-8.47 5.78,-12.93 2,-4.47 5.79,-12.96 5.79,-12.96" style="fill:none;stroke:#000000;stroke-width:7.97011;stroke-linecap:butt;stroke-linejoin:miter;stroke-miterlimit:10;stroke-dasharray:none;stroke-opacity:1" transform="matrix(0.13333333,0,0,-0.13333333,0,1122.6667)"/>
    <path id="path38" d="m 3983.73,6423.4 c 0,0 2.31,-37.15 5.79,-56.39 1.41,-7.76 3.45,-14.58 5.78,-22.12 1.75,-5.64 3.58,-10.64 5.79,-16.12 1.82,-4.51 3.63,-8.5 5.79,-12.87 1.85,-3.77 3.66,-7.09 5.78,-10.71 1.88,-3.21 3.68,-6.04 5.79,-9.11 1.9,-2.78 3.69,-5.22 5.78,-7.86 1.91,-2.42 3.71,-4.53 5.79,-6.81 1.92,-2.12 3.71,-3.96 5.78,-5.94 1.93,-1.85 3.73,-3.45 5.79,-5.17 1.94,-1.62 3.73,-3.01 5.78,-4.5 1.95,-1.41 3.74,-2.62 5.79,-3.89 1.95,-1.22 3.75,-2.26 5.78,-3.34 1.96,-1.05 3.76,-1.93 5.79,-2.84 1.96,-0.88 3.76,-1.61 5.78,-2.36 1.97,-0.73 3.77,-1.33 5.79,-1.93 1.97,-0.59 3.77,-1.06 5.78,-1.52 1.98,-0.45 3.78,-0.8 5.78,-1.13 1.99,-0.33 3.79,-0.56 5.79,-0.76 1.99,-0.2 3.79,-0.33 5.78,-0.41 2,-0.08 3.79,-0.1 5.79,-0.07 2,0.03 3.79,0.11 5.78,0.26 2.01,0.14 3.8,0.32 5.79,0.57 2,0.25 3.8,0.53 5.78,0.88 2.01,0.36 3.81,0.72 5.79,1.18 2.01,0.46 3.8,0.92 5.78,1.48 2.02,0.56 3.81,1.11 5.79,1.76 2.01,0.67 3.8,1.3 5.78,2.05 2.02,0.77 3.81,1.5 5.79,2.34 2.02,0.87 3.81,1.68 5.79,2.63 2.01,0.96 3.8,1.86 5.78,2.91 2.02,1.06 3.81,2.05 5.79,3.19 2.02,1.17 3.81,2.26 5.78,3.5 2.02,1.27 3.81,2.45 5.79,3.79 2.02,1.38 3.81,2.66 5.78,4.11 2.02,1.49 3.82,2.86 5.79,4.42 2.02,1.61 3.81,3.09 5.78,4.77 2.03,1.73 3.82,3.32 5.79,5.13 2.02,1.87 3.82,3.58 5.78,5.52 2.03,2.01 3.83,3.85 5.79,5.94 2.03,2.18 3.83,4.16 5.78,6.42 2.04,2.36 3.84,4.51 5.78,6.96 2.06,2.58 3.85,4.93 5.79,7.59 2.06,2.85 3.86,5.44 5.78,8.37 2.08,3.18 3.89,6.07 5.79,9.36 2.1,3.64 3.92,6.95 5.78,10.71 2.16,4.34 4,8.29 5.79,12.79 2.26,5.68 4.35,10.8 5.78,16.73 3.32,13.71 5.79,40.49 5.79,40.49" style="fill:none;stroke:#000000;stroke-width:7.97011;stroke-linecap:butt;stroke-linejoin:miter;stroke-miterlimit:10;stroke-dasharray:none;stroke-opacity:1" transform="matrix(0.13333333,0,0,-0.13333333,0,1122.6667)"/>
    <path id="path39" d="m 4550.66,6423.4 c 0,0 2.54,38.25 5.79,58.14 1.44,8.85 3.55,16.64 5.78,25.32 1.81,7.05 3.66,13.32 5.79,20.28 1.88,6.17 3.71,11.68 5.78,17.79 1.93,5.64 3.74,10.69 5.79,16.29 1.94,5.29 3.75,10.02 5.79,15.28 1.95,5.04 3.75,9.55 5.78,14.57 1.96,4.85 3.76,9.19 5.79,14.02 1.96,4.71 3.76,8.93 5.78,13.62 1.98,4.6 3.77,8.72 5.79,13.3 1.98,4.51 3.77,8.55 5.78,13.05 1.98,4.44 3.78,8.42 5.79,12.85 1.98,4.38 3.77,8.31 5.78,12.68 1.99,4.34 3.78,8.23 5.78,12.55 1.99,4.31 3.79,8.16 5.79,12.45 1.99,4.27 3.78,8.11 5.78,12.37 1.99,4.25 3.79,8.06 5.79,12.3 1.99,4.23 3.79,8.02 5.78,12.24 2,4.22 3.79,8 5.79,12.21 1.99,4.21 3.79,7.98 5.78,12.18 2,4.2 3.79,7.97 5.79,12.16 1.99,4.19 3.79,7.95 5.78,12.15 2,4.19 3.79,7.95 5.79,12.14 1.99,4.19 3.79,7.95 5.78,12.14 2,4.19 3.79,7.95 5.79,12.14 2,4.2 3.79,7.97 5.78,12.16 2,4.2 3.79,7.97 5.79,12.17 2,4.21 3.79,7.98 5.78,12.19 2,4.21 3.79,7.99 5.79,12.21 2,4.22 3.79,8.01 5.78,12.23 2,4.23 3.79,8.03 5.79,12.26 2,4.24 3.79,8.05 5.79,12.28 1.99,4.26 3.78,8.07 5.78,12.33 2,4.25 3.79,8.08 5.79,12.34 1.99,4.28 3.78,8.11 5.78,12.39 2,4.28 3.79,8.13 5.78,12.42 2,4.29 3.79,8.15 5.79,12.45 2,4.31 3.79,8.18 5.78,12.5 2,4.32 3.8,8.2 5.79,12.53 2,4.34 3.79,8.23 5.78,12.57 2,4.35 3.8,8.26 5.79,12.62 2,4.36 3.79,8.28 5.78,12.66 2,4.37 3.8,8.31 5.79,12.69 2,4.4 3.79,8.34 5.78,12.74 2,4.42 3.8,8.38 5.79,12.79 2,4.43 3.79,8.4 5.78,12.83 2,4.44 3.8,8.43 5.79,12.88 2,4.45 3.79,8.46 5.78,12.92 2,4.47 5.79,12.96 5.79,12.96" style="fill:none;stroke:#000000;stroke-width:7.97011;stroke-linecap:butt;stroke-linejoin:miter;stroke-miterlimit:10;stroke-dasharray:none;stroke-opacity:1" transform="matrix(0.13333333,0,0,-0.13333333,0,1122.6667)"/>
    <path id="path40" d="m 3983.73,6423.4 c 0,0 2.31,37.15 5.79,56.39 1.41,7.76 3.45,14.58 5.78,22.12 1.75,5.64 3.58,10.63 5.79,16.11 1.82,4.52 3.63,8.51 5.79,12.88 1.85,3.76 3.66,7.09 5.78,10.71 1.88,3.21 3.68,6.04 5.79,9.11 1.9,2.78 3.69,5.22 5.78,7.85 1.91,2.43 3.71,4.54 5.79,6.82 1.92,2.12 3.71,3.96 5.78,5.94 1.93,1.85 3.73,3.46 5.79,5.17 1.94,1.62 3.73,3.02 5.78,4.5 1.95,1.41 3.74,2.62 5.79,3.89 1.95,1.22 3.75,2.25 5.78,3.34 1.96,1.05 3.76,1.93 5.79,2.84 1.96,0.88 3.76,1.61 5.78,2.36 1.97,0.73 3.77,1.33 5.79,1.93 1.97,0.59 3.77,1.06 5.78,1.52 1.98,0.45 3.78,0.8 5.78,1.13 1.99,0.32 3.79,0.56 5.79,0.76 1.99,0.2 3.79,0.33 5.78,0.41 2,0.08 3.79,0.1 5.79,0.07 2,-0.04 3.79,-0.12 5.78,-0.26 2.01,-0.14 3.8,-0.32 5.79,-0.57 2,-0.25 3.8,-0.53 5.78,-0.88 2.01,-0.36 3.81,-0.73 5.79,-1.18 2.01,-0.46 3.8,-0.92 5.78,-1.48 2.02,-0.56 3.81,-1.11 5.79,-1.76 2.01,-0.67 3.8,-1.3 5.78,-2.05 2.02,-0.77 3.81,-1.5 5.79,-2.34 2.02,-0.87 3.81,-1.68 5.79,-2.63 2.01,-0.96 3.8,-1.86 5.78,-2.9 2.02,-1.07 3.81,-2.06 5.79,-3.2 2.02,-1.17 3.81,-2.26 5.78,-3.5 2.02,-1.27 3.81,-2.45 5.79,-3.79 2.02,-1.38 3.81,-2.66 5.78,-4.11 2.02,-1.49 3.82,-2.86 5.79,-4.42 2.02,-1.61 3.81,-3.09 5.78,-4.77 2.03,-1.74 3.82,-3.32 5.79,-5.13 2.02,-1.87 3.82,-3.58 5.78,-5.52 2.03,-2.01 3.83,-3.85 5.79,-5.94 2.03,-2.18 3.83,-4.16 5.78,-6.42 2.04,-2.36 3.84,-4.52 5.78,-6.96 2.06,-2.58 3.85,-4.93 5.79,-7.6 2.06,-2.84 3.86,-5.43 5.78,-8.36 2.08,-3.18 3.89,-6.07 5.79,-9.36 2.1,-3.64 3.92,-6.95 5.78,-10.71 2.16,-4.34 4,-8.29 5.79,-12.79 2.26,-5.67 4.35,-10.8 5.78,-16.73 3.32,-13.71 5.79,-40.49 5.79,-40.49" style="fill:none;stroke:#000000;stroke-width:7.97011;stroke-linecap:butt;stroke-linejoin:miter;stroke-miterlimit:10;stroke-dasharray:none;stroke-opacity:1" transform="matrix(0.13333333,0,0,-0.13333333,0,1122.6667)"/>
    <path id="path41" d="m 3700.27,6447.84 c 0,0 15.16,5.96 23.14,9.1 7.98,3.14 15.16,5.95 23.14,9.1 7.99,3.14 15.16,5.96 23.14,9.1 7.99,3.14 15.15,5.96 23.14,9.1 7.99,3.14 15.15,5.96 23.14,9.1 7.99,3.14 15.15,5.96 23.14,9.1 7.99,3.14 15.16,5.96 23.14,9.1 7.98,3.14 15.16,5.96 23.14,9.1 7.99,3.14 15.16,5.96 23.14,9.1 7.99,3.14 15.15,5.96 23.14,9.1 7.99,3.14 15.15,5.96 23.14,9.11 7.99,3.14 15.15,5.96 23.14,9.1 7.99,3.14 15.16,5.96 23.14,9.1 7.98,3.14 15.16,5.96 23.14,9.1 7.98,3.14 15.16,5.96 23.14,9.1 7.99,3.14 15.15,5.96 23.14,9.1 7.99,3.14 15.15,5.96 23.14,9.1 7.99,3.14 15.15,5.96 23.14,9.1 7.99,3.14 15.16,5.96 23.14,9.1 7.98,3.14 15.16,5.96 23.14,9.11 7.98,3.14 15.16,5.95 23.14,9.09 7.99,3.14 15.15,5.96 23.14,9.1 7.99,3.15 15.15,5.97 23.14,9.11 7.99,3.14 15.15,5.96 23.14,9.1 7.98,3.14 15.16,5.96 23.14,9.1 7.98,3.14 15.16,5.96 23.14,9.1 7.98,3.14 15.15,5.96 23.14,9.1 7.99,3.14 15.15,5.96 23.14,9.1 7.99,3.14 15.15,5.96 23.14,9.1 7.99,3.14 15.15,5.96 23.14,9.1 7.98,3.14 15.15,5.96 23.14,9.1 7.98,3.15 15.16,5.97 23.14,9.11 7.98,3.14 15.15,5.95 23.14,9.09 7.99,3.14 15.15,5.96 23.14,9.11 7.99,3.14 15.15,5.96 23.14,9.1 7.99,3.14 15.15,5.96 23.14,9.1 7.98,3.14 15.15,5.96 23.14,9.1 7.98,3.14 15.16,5.96 23.14,9.1 7.98,3.14 15.15,5.96 23.14,9.1 7.98,3.14 15.15,5.96 23.14,9.1 7.99,3.14 15.15,5.96 23.14,9.1 7.99,3.14 15.15,5.96 23.14,9.1 7.98,3.14 15.15,5.97 23.14,9.11 7.98,3.14 15.16,5.96 23.14,9.1 7.98,3.14 15.15,5.96 23.14,9.1 7.98,3.14 15.15,5.96 23.14,9.1 7.99,3.14 15.15,5.96 23.14,9.1 7.98,3.14 15.15,5.96 23.14,9.1 7.98,3.14 23.14,9.1 23.14,9.1" style="fill:none;stroke:#000000;stroke-width:7.97011;stroke-linecap:butt;stroke-linejoin:miter;stroke-miterlimit:10;stroke-dasharray:none;stroke-opacity:1" transform="matrix(0.13333333,0,0,-0.13333333,0,1122.6667)"/>
    <path id="path42" d="m 1.3122344,-1.5811328 c 0.070312,-0.070312 0.1523437,-0.1523438 0.2226562,-0.234375 0.5625,-0.5625 0.9375,-1.0664063 1.1367188,-1.359375 0.3984375,-0.6328125 0.6210937,-1.2890625 0.6210937,-1.7695313 0,-0.375 -0.140625,-0.6679687 -0.515625,-0.6679687 -0.9726562,0 -2.01562497,2.5429687 -2.01562497,4.0429687 0,0.09375 0,0.1054688 0,0.1757813 -0.1171875,0.1171875 -0.421875,0.3867187 -0.55078125,0.51562499 -0.12890625,0.12890625 -0.140625,0.140625 -0.140625,0.1640625 0,0.0585938 0.05859375,0.12890625 0.1171875,0.12890625 0.0234375,0 0.046875,0 0.1640625,-0.09375 L 0.78489063,-1.0772266 c 0.0820313,0.46875004 0.30468747,1.17187504 0.97265627,1.17187504 0.3046875,0 0.609375,-0.15234375 0.8203125,-0.29296875 0.1289062,-0.0820313 0.5273437,-0.38671875 0.5273437,-0.46875 0,-0.046875 -0.046875,-0.140625 -0.1289062,-0.140625 -0.035156,0 -0.058594,0.0234375 -0.1289063,0.0820313 -0.3164062,0.29296875 -0.703125,0.59765625 -1.0664062,0.59765625 -0.4335938,0 -0.515625,-0.55078125 -0.515625,-1.05468744 0,-0.058594 0,-0.1992188 0.011719,-0.3632813 z m 0.035156,-0.3867188 c 0.082031,-0.4570312 0.3515625,-1.6054687 0.609375,-2.25 0.09375,-0.2460937 0.4453125,-1.171875 0.8203125,-1.171875 0.1992188,0 0.2695313,0.1523438 0.2695313,0.421875 0,0.09375 0,0.75 -0.6210938,1.7109375 -0.421875,0.6445313 -1.03125,1.2421875 -1.078125,1.2890625 z m 0,0" style="fill:#000000;fill-opacity:1;fill-rule:nonzero;stroke:none" aria-label="ℓ" transform="matrix(1.3333333,0,0,1.3333333,483.57067,269.89333)"/>
    <path id="path43" d="m 5.2968047,-2.9870234 c 0,-1.2773438 -1.0546875,-2.3203125 -2.3085938,-2.3203125 -1.3007812,0 -2.32031246,1.0664062 -2.32031246,2.3203125 0,1.2773437 1.05468746,2.32031246 2.30859376,2.32031246 1.3007812,0 2.3203125,-1.06640626 2.3203125,-2.32031246 z m 0,0" style="fill:#ff0000;fill-opacity:1;fill-rule:nonzero;stroke:none" aria-label="•" transform="matrix(1.3333333,0,0,1.3333333,538.504,247.15067)"/>
    <path id="path44" d="m 2.5075078,-2.4829453 h 1.453125 c 1.1484375,0 2.34375,-0.796875 2.34375,-1.734375 0,-0.6796875 -0.6445312,-1.21875 -1.6640625,-1.21875 H 1.9567266 c -0.1523438,0 -0.2460938,0 -0.2460938,0.140625 0,0.1171875 0.09375,0.1171875 0.2226563,0.1171875 0.2695312,0 0.4921875,0 0.4921875,0.1289062 0,0.035156 0,0.035156 -0.023437,0.140625 l -1.0664063,4.27734379 c -0.082031,0.29296875 -0.09375,0.375 -0.65624999,0.375 -0.1875,0 -0.26953125,0 -0.26953125,0.140625 0,0.03515625 0.0234375,0.1171875 0.12890625,0.1171875 0.140625,0 0.33984375,-0.01171875 0.49218749,-0.0234375 h 0.5039063 c 0.7734375,0 0.9726562,0.0234375 1.03125,0.0234375 0.046875,0 0.1640625,0 0.1640625,-0.15234375 0,-0.10546875 -0.1054688,-0.10546875 -0.2460938,-0.10546875 -0.023437,0 -0.1640625,0 -0.3046875,-0.0234375 -0.1640625,-0.0117188 -0.1757812,-0.0351563 -0.1757812,-0.10546875 0,-0.046875 0.011719,-0.09375 0.023437,-0.12890625 z m 0.5859375,-2.4023438 c 0.070312,-0.2695312 0.082031,-0.2929687 0.4101563,-0.2929687 h 0.8671875 c 0.65625,0 1.1601562,0.1875 1.1601562,0.7851562 0,0.09375 -0.035156,0.8085938 -0.4921875,1.2421875 -0.1171875,0.1289063 -0.4921875,0.421875 -1.2773437,0.421875 H 2.5543828 Z m 0,0" style="fill:#000000;fill-opacity:1;fill-rule:nonzero;stroke:none" aria-label="P" transform="matrix(1.3333333,0,0,1.3333333,538.184,239.752)"/>
    <path id="path45" d="m 5.2959375,-2.9886719 c 0,-1.2773437 -1.0546875,-2.3203125 -2.3085937,-2.3203125 -1.3007813,0 -2.32031255,1.0664063 -2.32031255,2.3203125 0,1.2773438 1.05468755,2.32031253 2.30859375,2.32031253 1.3007813,0 2.3203125,-1.06640623 2.3203125,-2.32031253 z m 0,0" style="fill:#ff0000;fill-opacity:1;fill-rule:nonzero;stroke:none" aria-label="•" transform="matrix(1.3333333,0,0,1.3333333,623.72,213.63333)"/>
    <g id="g45" aria-label="−[2]P&#10;Figure3.2:(ℓ)=2(P)+(−[2]P)−3(O).&#10;wehaveDeg((ℓ))=0.&#10;ThebalancethatoccurredbetweenthezerosandpolesinExample3.0.2that&#10;ledtoDeg((ℓ))=0isnotacoincidence.Infact,afundamentalresultthatliesat&#10;theheartofthediscussionisthatthisalwayshappens:namely,foranyfunction&#10;fonE,wealwayshaveDeg((f))=0.Aninstructiveproofofthisresultisin&#10;Galbraith’sbook[Gal12,Th.7.7.1],butroughlyspeakingthispropertyfollows&#10;fromobservingthatthedegreeoftheafneequationthatsolvesforthezeros&#10;offonEmatchesthedegreeoftheprojectiveequationthatdeterminesthe&#10;multiplicityofthepoleoffatO,i.e.theprojectiveversionoffisg/hwhereg&#10;andhbothhavethesamedegreeasf.WerevisitExample3.0.2andillustrate&#10;inthisspecialcase.&#10;Example3.0.3(Magmascript).Wealreadyknowthatthreezeros(countingmul-&#10;tiplicities)willalwaysarisefromsubstitutingℓ:y=λx+νintoE/F&#10;q&#10;:y&#10;2&#10;=&#10;x&#10;3&#10;+ax+b,butwehaveonlyconsideredℓontheafnecurveE∩A&#10;2&#10;,whereℓ&#10;hasnopoles.ToconsiderℓonEatO=(0:1:0)(inP&#10;2&#10;(F&#10;q&#10;)),weneedtotake&#10;x=X/Zandy=Y/Zwhichgives(&#10;λX+νZ" transform="matrix(1.3333333,0,0,1.3333333,596.36933,205.27467)">
      <path id="path46" d="m 5.5794453,-1.8056094 c 0.1171875,0 0.28125,0 0.28125,-0.1875 0,-0.1875 -0.1640625,-0.1875 -0.28125,-0.1875 H 0.99741406 c -0.1171875,0 -0.28125,0 -0.28125,0.1875 0,0.1875 0.1640625,0.1875 0.28125,0.1875 z m 0,0" style="fill:#000000;fill-opacity:1;fill-rule:nonzero;stroke:none"/>
      <path id="path47" d="M 8.7552266,1.9912656 V 1.6279844 h -0.796875 v -7.2421875 h 0.796875 v -0.3632813 h -1.171875 v 7.96875 z m 2.4931644,-3.6210937 c 0.128906,-0.1171875 0.457031,-0.375 0.585937,-0.4921875 0.492188,-0.4570313 0.960938,-0.890625 0.960938,-1.6171875 0,-0.9492188 -0.796875,-1.5585938 -1.792969,-1.5585938 -0.949219,0 -1.5820314,0.7265625 -1.5820314,1.4296875 0,0.3984375 0.3164063,0.4453125 0.421875,0.4453125 0.1640624,0 0.4101564,-0.1171875 0.4101564,-0.421875 0,-0.4101562 -0.3984376,-0.4101562 -0.4921876,-0.4101562 0.234375,-0.5859375 0.7734376,-0.7851563 1.1601566,-0.7851563 0.738281,0 1.125,0.6328125 1.125,1.3007813 0,0.8320312 -0.585938,1.4296875 -1.523438,2.4023437 l -1.0078124,1.03125003 c -0.09375,0.09375 -0.09375,0.10546875 -0.09375,0.304687495 H 12.572609 L 12.795266,-1.4306094 h -0.246094 c -0.02344,0.1640625 -0.08203,0.56250003 -0.175781,0.71484378 -0.04687,0.0585938 -0.65625,0.0585938 -0.785157,0.0585938 h -1.417968 z m 3.307617,-4.3476563 h -1.171875 v 0.3632813 h 0.796875 v 7.2421875 h -0.796875 v 0.3632812 h 1.171875 z m 0,0" style="fill:#000000;fill-opacity:1;fill-rule:nonzero;stroke:none"/>
      <path id="path48" d="m 18.106789,-2.4852969 h 1.453125 c 1.148438,0 2.34375,-0.796875 2.34375,-1.734375 0,-0.6796875 -0.644531,-1.21875 -1.664062,-1.21875 h -2.683594 c -0.152344,0 -0.246094,0 -0.246094,0.140625 0,0.1171875 0.09375,0.1171875 0.222656,0.1171875 0.269532,0 0.492188,0 0.492188,0.1289063 0,0.035156 0,0.035156 -0.02344,0.140625 l -1.066406,4.27734373 c -0.08203,0.29296875 -0.09375,0.375 -0.65625,0.375 -0.1875,0 -0.269531,0 -0.269531,0.140625 0,0.03515625 0.02344,0.117187495 0.128906,0.117187495 0.140625,0 0.339844,-0.011718745 0.492188,-0.023437495 h 0.503906 c 0.773437,0 0.972656,0.023437495 1.03125,0.023437495 0.04687,0 0.164062,0 0.164062,-0.152343745 0,-0.10546875 -0.105468,-0.10546875 -0.246093,-0.10546875 -0.02344,0 -0.164063,0 -0.304688,-0.0234375 -0.164062,-0.0117188 -0.175781,-0.0351563 -0.175781,-0.10546875 0,-0.046875 0.01172,-0.09375 0.02344,-0.12890625 z m 0.585938,-2.4023437 c 0.07031,-0.2695313 0.08203,-0.2929688 0.410156,-0.2929688 h 0.867187 c 0.65625,0 1.160157,0.1875 1.160157,0.7851563 0,0.09375 -0.03516,0.8085937 -0.492188,1.2421875 -0.117187,0.1289062 -0.492187,0.421875 -1.277344,0.421875 h -1.207031 z m 0,0" style="fill:#000000;fill-opacity:1;fill-rule:nonzero;stroke:none"/>
      
      
      
      
      
      
      
      
      
      
      
      
      
      
      
      
      
      
      
      
      
      
      
      
      
      
      
      
      
      
      
      
      
      
      
      
      
      
      
      
      
      
      
      
      
      
      
      
      
      
      
      
      
      
      
      
      
      
      
      
      
      
      
      
      
      
      
      
      
      
      
      
      
      
      
      
      
      
      
      
      
      
      
      
      
      
      
      
      
      
      
      
      
      
      
      
      
      
      
      
      
    </g>
    
    
    
    
    
    
  </g>
</svg>