<svg version="1.1" id="svg1" width="143.0009346132787" height="179.00166618232427" viewBox="291.00190190534335 701.00652510508 143.0009346132787 179.00166618232427" sodipodi:docname="intro.pdf" xmlns:inkscape="http://www.inkscape.org/namespaces/inkscape" xmlns:sodipodi="http://sodipodi.sourceforge.net/DTD/sodipodi-0.dtd" xmlns="http://www.w3.org/2000/svg" xmlns:svg="http://www.w3.org/2000/svg" style="">
  <defs id="defs1"/>
  <sodipodi:namedview id="namedview1" pagecolor="#ffffff" bordercolor="#000000" borderopacity="0.25" inkscape:showpageshadow="2" inkscape:pageopacity="0.0" inkscape:pagecheckerboard="0" inkscape:deskcolor="#d1d1d1">
    <inkscape:page x="0" y="0" inkscape:label="3" id="page1" width="793.33331" height="1122.6667" margin="0" bleed="0"/>
  </sodipodi:namedview>
  <g id="g1" inkscape:groupmode="layer" inkscape:label="3">
    
    
    
    
    
    
    
    
    
    
    
    
    
    <path id="path221" d="m 2245.2,2410.6 c 0,0 10.64,-0.83 16.2,-1.62 5.62,-0.79 10.64,-1.8 16.2,-2.96 5.62,-1.18 10.63,-2.4 16.19,-3.84 5.62,-1.45 10.64,-2.88 16.2,-4.54 5.62,-1.68 10.64,-3.29 16.2,-5.15 5.62,-1.88 10.63,-3.65 16.2,-5.7 5.61,-2.06 10.63,-3.98 16.2,-6.19 5.61,-2.22 10.63,-4.29 16.2,-6.65 5.61,-2.38 10.63,-4.58 16.19,-7.08 5.62,-2.53 10.63,-4.85 16.2,-7.49 5.61,-2.67 10.63,-5.11 16.2,-7.88 5.61,-2.79 10.63,-5.34 16.19,-8.23 5.62,-2.92 10.64,-5.58 16.2,-8.59 5.62,-3.04 10.64,-5.8 16.2,-8.93 5.62,-3.15 10.63,-6.02 16.2,-9.25 5.61,-3.26 10.63,-6.23 16.2,-9.57 5.61,-3.36 10.63,-6.42 16.19,-9.86 5.62,-3.48 10.64,-6.63 16.2,-10.17 5.62,-3.57 10.63,-6.81 16.2,-10.45 5.61,-3.67 10.63,-6.99 16.2,-10.73 5.61,-3.76 10.63,-7.17 16.2,-11 5.61,-3.86 10.62,-7.35 16.19,-11.26 5.61,-3.95 10.63,-7.52 16.2,-11.53 5.61,-4.04 10.63,-7.68 16.2,-11.78 5.61,-4.12 10.63,-7.85 16.2,-12.03 5.61,-4.2 10.63,-8 16.19,-12.26 5.62,-4.29 10.63,-8.17 16.2,-12.51 5.61,-4.37 10.63,-8.32 16.2,-12.74 5.61,-4.45 10.63,-8.47 16.2,-12.97 5.61,-4.53 10.63,-8.62 16.2,-13.2 5.61,-4.6 10.62,-8.76 16.2,-13.42 5.6,-4.68 10.62,-8.91 16.19,-13.63 5.61,-4.76 10.63,-9.05 16.2,-13.85 5.61,-4.84 10.63,-9.19 16.2,-14.07 5.61,-4.9 10.62,-9.32 16.19,-14.27 5.61,-4.97 10.63,-9.46 16.2,-14.47 5.61,-5.05 10.63,-9.6 16.2,-14.68 5.61,-5.12 10.63,-9.73 16.2,-14.88 5.61,-5.19 10.62,-9.86 16.2,-15.08 5.6,-5.25 10.62,-9.98 16.2,-15.27 5.6,-5.32 10.62,-10.11 16.19,-15.46 5.61,-5.38 10.63,-10.24 16.2,-15.65 5.61,-5.45 10.63,-10.36 16.2,-15.84 5.61,-5.51 10.62,-10.48 16.2,-16.03 5.6,-5.57 10.62,-10.59 16.2,-16.2 5.6,-5.64 10.62,-10.72 16.19,-16.39 5.61,-5.71 10.63,-10.84 16.2,-16.57 5.61,-5.77 10.62,-10.95 16.2,-16.75 5.6,-5.82 16.2,-16.92 16.2,-16.92" style="fill:none;stroke:#000000;stroke-width:7.97011;stroke-linecap:butt;stroke-linejoin:miter;stroke-miterlimit:10;stroke-dasharray:none;stroke-opacity:1" transform="matrix(0.13333333,0,0,-0.13333333,0,1122.6667)"/>
    <path id="path222" d="m 2245.2,2410.6 c 0,0 10.64,0.83 16.2,1.62 5.62,0.8 10.64,1.8 16.2,2.96 5.62,1.18 10.63,2.4 16.19,3.84 5.62,1.45 10.64,2.87 16.2,4.54 5.62,1.68 10.64,3.29 16.2,5.15 5.62,1.88 10.63,3.65 16.2,5.7 5.61,2.06 10.63,3.98 16.2,6.19 5.61,2.23 10.63,4.29 16.2,6.65 5.61,2.38 10.63,4.58 16.19,7.09 5.62,2.52 10.63,4.84 16.2,7.48 5.61,2.66 10.63,5.11 16.2,7.88 5.61,2.79 10.63,5.34 16.19,8.23 5.62,2.92 10.64,5.59 16.2,8.59 5.62,3.04 10.64,5.81 16.2,8.93 5.62,3.15 10.63,6.02 16.2,9.25 5.61,3.26 10.63,6.23 16.2,9.57 5.61,3.36 10.63,6.43 16.19,9.87 5.62,3.47 10.64,6.62 16.2,10.16 5.62,3.57 10.63,6.81 16.2,10.45 5.61,3.67 10.63,6.99 16.2,10.73 5.61,3.76 10.63,7.17 16.2,11 5.61,3.86 10.62,7.35 16.19,11.27 5.61,3.94 10.63,7.52 16.2,11.52 5.61,4.03 10.63,7.69 16.2,11.78 5.61,4.12 10.63,7.85 16.2,12.02 5.61,4.21 10.63,8.01 16.19,12.27 5.62,4.29 10.63,8.17 16.2,12.51 5.61,4.37 10.63,8.32 16.2,12.74 5.61,4.45 10.63,8.47 16.2,12.97 5.61,4.53 10.63,8.62 16.2,13.2 5.61,4.61 10.62,8.76 16.2,13.42 5.6,4.68 10.62,8.91 16.19,13.63 5.61,4.76 10.63,9.05 16.2,13.85 5.61,4.84 10.63,9.2 16.2,14.07 5.61,4.9 10.62,9.32 16.19,14.27 5.61,4.97 10.63,9.46 16.2,14.48 5.61,5.04 10.63,9.59 16.2,14.67 5.61,5.12 10.63,9.73 16.2,14.88 5.61,5.18 10.62,9.86 16.2,15.08 5.6,5.25 10.62,9.98 16.2,15.27 5.6,5.32 10.62,10.11 16.19,15.46 5.61,5.39 10.63,10.23 16.2,15.65 5.61,5.45 10.63,10.36 16.2,15.84 5.61,5.51 10.62,10.48 16.2,16.03 5.6,5.57 10.62,10.6 16.2,16.21 5.6,5.63 10.62,10.71 16.19,16.38 5.61,5.71 10.63,10.84 16.2,16.57 5.61,5.77 10.62,10.95 16.2,16.75 5.6,5.82 16.2,16.92 16.2,16.92" style="fill:none;stroke:#000000;stroke-width:7.97011;stroke-linecap:butt;stroke-linejoin:miter;stroke-miterlimit:10;stroke-dasharray:none;stroke-opacity:1" transform="matrix(0.13333333,0,0,-0.13333333,0,1122.6667)"/>
    <path id="path223" d="m 5.2964062,-2.9882031 c 0,-1.2773438 -1.0546875,-2.3203125 -2.3085937,-2.3203125 -1.3007813,0 -2.3203125,1.0664062 -2.3203125,2.3203125 0,1.2773437 1.0546875,2.32031248 2.3085937,2.32031248 1.3007813,0 2.3203125,-1.06640628 2.3203125,-2.32031248 z m 0,0" style="fill:#0000ff;fill-opacity:1;fill-rule:nonzero;stroke:none" aria-label="•" transform="matrix(1.3333333,0,0,1.3333333,295.36,804.77333)"/>
    
    
    
    
    
    
    
    
    
  </g>
</svg>