<svg version="1.1" id="svg1" width="146.00095422055028" height="185.00172203201112" viewBox="571.0037319173576 704.506557684064 146.00095422055028 185.00172203201112" sodipodi:docname="intro.pdf" xmlns:inkscape="http://www.inkscape.org/namespaces/inkscape" xmlns:sodipodi="http://sodipodi.sourceforge.net/DTD/sodipodi-0.dtd" xmlns="http://www.w3.org/2000/svg" xmlns:svg="http://www.w3.org/2000/svg" style="">
  <defs id="defs1"/>
  <sodipodi:namedview id="namedview1" pagecolor="#ffffff" bordercolor="#000000" borderopacity="0.25" inkscape:showpageshadow="2" inkscape:pageopacity="0.0" inkscape:pagecheckerboard="0" inkscape:deskcolor="#d1d1d1">
    <inkscape:page x="0" y="0" inkscape:label="3" id="page1" width="793.33331" height="1122.6667" margin="0" bleed="0"/>
  </sodipodi:namedview>
  <g id="g1" inkscape:groupmode="layer" inkscape:label="3">
    
    
    
    
    
    
    
    
    
    
    
    
    
    
    
    
    
    
    
    
    <path id="path246" d="m 4441.98,2415.4 c 0,0 1.61,-26 4.04,-39.47 0.99,-5.43 2.42,-10.21 4.05,-15.48 1.23,-3.95 2.51,-7.45 4.05,-11.29 1.28,-3.16 2.54,-5.95 4.05,-9.01 1.31,-2.63 2.56,-4.96 4.05,-7.5 1.32,-2.24 2.58,-4.22 4.05,-6.38 1.33,-1.94 2.59,-3.65 4.05,-5.49 1.34,-1.69 2.6,-3.17 4.05,-4.77 1.35,-1.48 2.61,-2.77 4.05,-4.16 1.35,-1.3 2.61,-2.42 4.05,-3.62 1.36,-1.13 2.62,-2.11 4.05,-3.15 1.36,-0.99 2.62,-1.83 4.05,-2.72 1.37,-0.86 2.63,-1.58 4.05,-2.34 1.37,-0.73 2.63,-1.35 4.05,-1.98 1.38,-0.62 2.63,-1.13 4.05,-1.66 1.38,-0.51 2.64,-0.93 4.05,-1.35 1.38,-0.41 2.64,-0.74 4.05,-1.07 1.38,-0.31 2.64,-0.55 4.05,-0.78 1.39,-0.23 2.64,-0.39 4.04,-0.54 1.4,-0.14 2.66,-0.23 4.05,-0.28 1.4,-0.06 2.66,-0.07 4.06,-0.05 1.39,0.02 2.65,0.08 4.04,0.18 1.4,0.1 2.66,0.22 4.05,0.4 1.41,0.17 2.66,0.37 4.05,0.61 1.41,0.25 2.66,0.51 4.05,0.83 1.41,0.32 2.66,0.64 4.05,1.03 1.41,0.4 2.66,0.78 4.05,1.24 1.41,0.46 2.66,0.91 4.05,1.44 1.41,0.53 2.66,1.04 4.05,1.63 1.41,0.61 2.66,1.18 4.05,1.84 1.41,0.67 2.66,1.31 4.05,2.04 1.41,0.74 2.67,1.43 4.05,2.24 1.41,0.81 2.67,1.57 4.05,2.44 1.41,0.89 2.67,1.72 4.05,2.66 1.41,0.96 2.67,1.85 4.05,2.87 1.41,1.04 2.67,2.01 4.05,3.1 1.42,1.12 2.67,2.16 4.04,3.34 1.43,1.21 2.68,2.32 4.06,3.59 1.42,1.3 2.67,2.5 4.05,3.86 1.42,1.41 2.68,2.7 4.04,4.16 1.43,1.52 2.69,2.91 4.05,4.49 1.43,1.65 2.69,3.16 4.05,4.87 1.44,1.81 2.7,3.45 4.05,5.32 1.45,1.99 2.71,3.8 4.05,5.86 1.46,2.22 2.72,4.25 4.05,6.55 1.48,2.54 2.75,4.86 4.05,7.49 1.51,3.04 2.8,5.81 4.05,8.96 1.58,3.97 3.04,7.56 4.05,11.71 2.32,9.6 4.05,28.34 4.05,28.34" style="fill:none;stroke:#000000;stroke-width:7.97011;stroke-linecap:butt;stroke-linejoin:miter;stroke-miterlimit:10;stroke-dasharray:none;stroke-opacity:1" transform="matrix(0.13333333,0,0,-0.13333333,0,1122.6667)"/>
    <path id="path247" d="m 4441.98,2415.4 c 0,0 1.61,26 4.04,39.48 0.99,5.42 2.42,10.2 4.05,15.48 1.23,3.94 2.51,7.44 4.05,11.28 1.28,3.16 2.54,5.95 4.05,9.01 1.31,2.64 2.56,4.96 4.05,7.5 1.32,2.25 2.58,4.23 4.05,6.38 1.33,1.94 2.59,3.65 4.05,5.49 1.34,1.7 2.6,3.18 4.05,4.77 1.35,1.49 2.61,2.78 4.05,4.16 1.35,1.3 2.61,2.42 4.05,3.62 1.36,1.13 2.62,2.11 4.05,3.15 1.36,0.99 2.62,1.83 4.05,2.73 1.37,0.85 2.63,1.57 4.05,2.33 1.37,0.73 2.63,1.35 4.05,1.99 1.38,0.61 2.63,1.13 4.05,1.65 1.38,0.51 2.64,0.93 4.05,1.35 1.38,0.41 2.64,0.74 4.05,1.07 1.38,0.31 2.64,0.56 4.05,0.78 1.39,0.24 2.64,0.4 4.04,0.54 1.4,0.14 2.66,0.23 4.05,0.29 1.4,0.05 2.66,0.07 4.06,0.05 1.39,-0.03 2.65,-0.09 4.04,-0.18 1.4,-0.11 2.66,-0.23 4.05,-0.41 1.41,-0.17 2.66,-0.36 4.05,-0.61 1.41,-0.25 2.66,-0.51 4.05,-0.83 1.41,-0.32 2.66,-0.64 4.05,-1.03 1.41,-0.4 2.66,-0.78 4.05,-1.24 1.41,-0.46 2.66,-0.91 4.05,-1.43 1.41,-0.54 2.66,-1.05 4.05,-1.64 1.41,-0.61 2.66,-1.18 4.05,-1.84 1.41,-0.67 2.66,-1.31 4.05,-2.03 1.41,-0.75 2.67,-1.44 4.05,-2.24 1.41,-0.82 2.67,-1.58 4.05,-2.45 1.41,-0.89 2.67,-1.71 4.05,-2.66 1.41,-0.96 2.67,-1.85 4.05,-2.87 1.41,-1.04 2.67,-2 4.05,-3.1 1.42,-1.12 2.67,-2.16 4.04,-3.33 1.43,-1.22 2.68,-2.33 4.06,-3.59 1.42,-1.31 2.67,-2.51 4.05,-3.87 1.42,-1.41 2.68,-2.69 4.04,-4.16 1.43,-1.52 2.69,-2.91 4.05,-4.49 1.43,-1.65 2.69,-3.16 4.05,-4.87 1.44,-1.81 2.7,-3.45 4.05,-5.32 1.45,-1.99 2.71,-3.8 4.05,-5.86 1.46,-2.22 2.72,-4.25 4.05,-6.54 1.48,-2.55 2.75,-4.87 4.05,-7.5 1.51,-3.04 2.8,-5.8 4.05,-8.95 1.58,-3.98 3.04,-7.56 4.05,-11.72 2.32,-9.6 4.05,-28.34 4.05,-28.34" style="fill:none;stroke:#000000;stroke-width:7.97011;stroke-linecap:butt;stroke-linejoin:miter;stroke-miterlimit:10;stroke-dasharray:none;stroke-opacity:1" transform="matrix(0.13333333,0,0,-0.13333333,0,1122.6667)"/>
    <path id="path248" d="m 4838.82,2415.4 c 0,0 2.16,-29.44 4.86,-44.72 1.22,-6.88 3,-12.92 4.86,-19.66 1.53,-5.52 3.08,-10.42 4.86,-15.86 1.59,-4.87 3.12,-9.2 4.86,-14.02 1.62,-4.47 3.14,-8.47 4.86,-12.91 1.64,-4.22 3.15,-7.99 4.86,-12.18 1.64,-4.05 3.16,-7.66 4.86,-11.68 1.65,-3.91 3.16,-7.41 4.86,-11.3 1.66,-3.81 3.17,-7.22 4.86,-11.02 1.66,-3.73 3.17,-7.08 4.86,-10.8 1.66,-3.68 3.17,-6.98 4.86,-10.64 1.67,-3.64 3.17,-6.9 4.86,-10.52 1.67,-3.6 3.17,-6.83 4.86,-10.42 1.67,-3.58 3.18,-6.78 4.86,-10.35 1.67,-3.55 3.18,-6.74 4.85,-10.29 1.68,-3.54 3.18,-6.72 4.86,-10.25 1.68,-3.53 3.18,-6.7 4.86,-10.23 1.68,-3.52 3.18,-6.68 4.86,-10.21 1.68,-3.52 3.19,-6.68 4.86,-10.2 1.68,-3.51 3.19,-6.67 4.86,-10.19 1.68,-3.52 3.19,-6.68 4.86,-10.2 1.68,-3.53 3.18,-6.7 4.86,-10.22 1.68,-3.53 3.18,-6.7 4.86,-10.23 1.68,-3.54 3.18,-6.71 4.86,-10.25 1.68,-3.55 3.18,-6.73 4.86,-10.27 1.68,-3.56 3.18,-6.75 4.86,-10.3 1.68,-3.57 3.18,-6.77 4.86,-10.33 1.68,-3.58 3.18,-6.79 4.86,-10.36 1.68,-3.59 3.18,-6.81 4.86,-10.4 1.68,-3.59 3.18,-6.82 4.86,-10.43 1.68,-3.6 3.18,-6.85 4.85,-10.46 1.68,-3.62 3.19,-6.88 4.86,-10.51 1.68,-3.63 3.19,-6.9 4.86,-10.54 1.68,-3.65 3.19,-6.93 4.86,-10.59 1.68,-3.66 3.19,-6.95 4.86,-10.63 1.68,-3.68 3.19,-6.98 4.86,-10.66 1.68,-3.7 3.19,-7.02 4.86,-10.72 1.68,-3.71 3.18,-7.04 4.86,-10.76 1.68,-3.72 3.18,-7.07 4.86,-10.8 1.68,-3.74 3.18,-7.11 4.86,-10.85 1.68,-3.76 3.18,-7.14 4.86,-10.9 1.68,-3.77 3.18,-7.16 4.86,-10.94 1.68,-3.79 3.18,-7.19 4.86,-10.99 1.68,-3.81 3.18,-7.22 4.86,-11.04 1.68,-3.82 3.18,-7.25 4.86,-11.08 1.68,-3.84 3.18,-7.29 4.86,-11.13 1.68,-3.86 3.18,-7.32 4.85,-11.18 1.68,-3.88 3.19,-7.36 4.86,-11.23 1.68,-3.89 4.86,-11.28 4.86,-11.28" style="fill:none;stroke:#000000;stroke-width:7.97011;stroke-linecap:butt;stroke-linejoin:miter;stroke-miterlimit:10;stroke-dasharray:none;stroke-opacity:1" transform="matrix(0.13333333,0,0,-0.13333333,0,1122.6667)"/>
    <path id="path249" d="m 4838.82,2415.4 c 0,0 2.16,29.44 4.86,44.72 1.22,6.88 3,12.93 4.86,19.66 1.53,5.52 3.08,10.42 4.86,15.86 1.59,4.87 3.12,9.2 4.86,14.02 1.62,4.48 3.14,8.47 4.86,12.91 1.64,4.22 3.15,7.99 4.86,12.19 1.64,4.04 3.16,7.65 4.86,11.67 1.65,3.91 3.16,7.41 4.86,11.3 1.66,3.81 3.17,7.22 4.86,11.02 1.66,3.73 3.17,7.08 4.86,10.8 1.66,3.68 3.17,6.98 4.86,10.65 1.67,3.63 3.17,6.89 4.86,10.51 1.67,3.6 3.17,6.83 4.86,10.43 1.67,3.57 3.18,6.77 4.86,10.34 1.67,3.56 3.18,6.74 4.85,10.29 1.68,3.54 3.18,6.72 4.86,10.26 1.68,3.52 3.18,6.69 4.86,10.22 1.68,3.52 3.18,6.68 4.86,10.21 1.68,3.52 3.19,6.68 4.86,10.2 1.68,3.52 3.19,6.68 4.86,10.2 1.68,3.52 3.19,6.68 4.86,10.2 1.68,3.52 3.18,6.69 4.86,10.21 1.68,3.53 3.18,6.7 4.86,10.23 1.68,3.54 3.18,6.71 4.86,10.25 1.68,3.55 3.18,6.73 4.86,10.28 1.68,3.55 3.18,6.74 4.86,10.29 1.68,3.57 3.18,6.77 4.86,10.33 1.68,3.58 3.18,6.79 4.86,10.37 1.68,3.58 3.18,6.8 4.86,10.39 1.68,3.59 3.18,6.83 4.86,10.43 1.68,3.61 3.18,6.85 4.85,10.46 1.68,3.63 3.19,6.88 4.86,10.51 1.68,3.64 3.19,6.9 4.86,10.54 1.68,3.65 3.19,6.94 4.86,10.59 1.68,3.67 3.19,6.96 4.86,10.63 1.68,3.68 3.19,6.98 4.86,10.66 1.68,3.7 3.19,7.02 4.86,10.72 1.68,3.71 3.18,7.05 4.86,10.76 1.68,3.73 3.18,7.08 4.86,10.8 1.68,3.74 3.18,7.11 4.86,10.85 1.68,3.76 3.18,7.14 4.86,10.9 1.68,3.77 3.18,7.16 4.86,10.94 1.68,3.79 3.18,7.19 4.86,10.99 1.68,3.81 3.18,7.23 4.86,11.04 1.68,3.82 3.18,7.25 4.86,11.08 1.68,3.84 3.18,7.29 4.86,11.13 1.68,3.86 3.18,7.32 4.85,11.18 1.68,3.88 3.19,7.36 4.86,11.23 1.68,3.89 4.86,11.28 4.86,11.28" style="fill:none;stroke:#000000;stroke-width:7.97011;stroke-linecap:butt;stroke-linejoin:miter;stroke-miterlimit:10;stroke-dasharray:none;stroke-opacity:1" transform="matrix(0.13333333,0,0,-0.13333333,0,1122.6667)"/>
    
  </g>
</svg>