<svg version="1.1" id="svg1" width="175.50724121483375" height="177.53681012086298" viewBox="115.65217051150894 707.6110003388682 175.50724121483375 177.53681012086298" sodipodi:docname="intro.pdf" xmlns:inkscape="http://www.inkscape.org/namespaces/inkscape" xmlns:sodipodi="http://sodipodi.sourceforge.net/DTD/sodipodi-0.dtd" xmlns="http://www.w3.org/2000/svg" xmlns:svg="http://www.w3.org/2000/svg" style="">
  <defs id="defs1"/>
  <sodipodi:namedview id="namedview1" pagecolor="#ffffff" bordercolor="#000000" borderopacity="0.25" inkscape:showpageshadow="2" inkscape:pageopacity="0.0" inkscape:pagecheckerboard="0" inkscape:deskcolor="#d1d1d1">
    <inkscape:page x="0" y="0" inkscape:label="3" id="page1" width="793.33331" height="1122.6667" margin="0" bleed="0"/>
  </sodipodi:namedview>
  <g id="g1" inkscape:groupmode="layer" inkscape:label="3">
    
    
    
    
    
    
    
    <path id="path204" d="m 1155.95,2410.6 c 0,0 4.79,-66.69 12.15,-101 2.95,-13.73 7.23,-25.7 12.15,-38.86 3.66,-9.8 7.49,-18.42 12.15,-27.79 3.82,-7.69 7.61,-14.43 12.15,-21.72 3.9,-6.28 7.68,-11.76 12.15,-17.65 3.95,-5.23 7.73,-9.76 12.14,-14.61 4,-4.39 7.78,-8.17 12.15,-12.19 4.03,-3.7 7.81,-6.86 12.15,-10.19 4.06,-3.11 7.83,-5.75 12.15,-8.49 4.08,-2.6 7.85,-4.77 12.15,-7.01 4.1,-2.13 7.87,-3.89 12.15,-5.68 4.12,-1.73 7.89,-3.12 12.14,-4.5 4.15,-1.36 7.92,-2.41 12.15,-3.43 4.16,-1 7.93,-1.75 12.15,-2.44 4.17,-0.68 7.94,-1.14 12.15,-1.52 4.18,-0.38 7.95,-0.57 12.14,-0.67 4.2,-0.09 7.97,-0.05 12.15,0.13 4.21,0.17 7.97,0.45 12.15,0.88 4.21,0.42 7.97,0.92 12.15,1.59 4.21,0.66 7.98,1.37 12.15,2.26 4.22,0.89 7.98,1.8 12.15,2.9 4.22,1.11 7.98,2.21 12.14,3.51 4.23,1.33 7.99,2.61 12.15,4.11 4.23,1.52 7.99,2.97 12.15,4.66 4.23,1.72 7.99,3.34 12.15,5.21 4.23,1.9 7.99,3.68 12.15,5.73 4.23,2.08 7.99,4.01 12.15,6.23 4.23,2.26 7.99,4.34 12.15,6.72 4.23,2.42 7.99,4.65 12.14,7.19 4.23,2.58 8,4.96 12.15,7.65 4.23,2.74 7.99,5.26 12.15,8.1 4.23,2.89 7.99,5.54 12.15,8.53 4.23,3.04 7.99,5.82 12.15,8.95 4.22,3.18 7.99,6.09 12.15,9.36 4.22,3.33 7.99,6.35 12.14,9.76 4.23,3.47 7.99,6.61 12.15,10.16 4.23,3.59 7.99,6.86 12.15,10.53 4.23,3.73 7.99,7.11 12.15,10.91 4.23,3.86 7.99,7.35 12.15,11.28 4.22,3.98 7.99,7.58 12.15,11.63 4.22,4.1 7.99,7.82 12.15,11.98 4.22,4.23 7.98,8.05 12.14,12.33 4.23,4.35 7.99,8.27 12.15,12.67 4.22,4.46 7.99,8.49 12.15,13 4.22,4.58 7.98,8.71 12.15,13.33 4.22,4.68 7.98,8.91 12.15,13.65 4.22,4.79 7.98,9.12 12.15,13.96 4.21,4.9 7.98,9.32 12.14,14.27 4.22,5.01 12.15,14.58 12.15,14.58" style="fill:none;stroke:#000000;stroke-width:7.97011;stroke-linecap:butt;stroke-linejoin:miter;stroke-miterlimit:10;stroke-dasharray:none;stroke-opacity:1" transform="matrix(0.13333333,0,0,-0.13333333,0,1122.6667)"/>
    <path id="path205" d="m 1155.95,2410.6 c 0,0 4.79,66.69 12.15,101 2.95,13.73 7.23,25.7 12.15,38.86 3.66,9.8 7.49,18.42 12.15,27.79 3.82,7.69 7.61,14.43 12.15,21.73 3.9,6.27 7.68,11.75 12.15,17.64 3.95,5.23 7.73,9.76 12.14,14.61 4,4.39 7.78,8.17 12.15,12.19 4.03,3.7 7.81,6.86 12.15,10.19 4.06,3.11 7.83,5.75 12.15,8.49 4.08,2.6 7.85,4.77 12.15,7.01 4.1,2.13 7.87,3.89 12.15,5.68 4.12,1.73 7.89,3.12 12.14,4.51 4.15,1.34 7.92,2.4 12.15,3.42 4.16,1 7.93,1.75 12.15,2.44 4.17,0.68 7.94,1.14 12.15,1.52 4.18,0.38 7.95,0.58 12.14,0.67 4.2,0.1 7.97,0.04 12.15,-0.13 4.21,-0.17 7.97,-0.45 12.15,-0.88 4.21,-0.42 7.97,-0.92 12.15,-1.58 4.21,-0.67 7.98,-1.38 12.15,-2.27 4.22,-0.89 7.98,-1.8 12.15,-2.9 4.22,-1.11 7.98,-2.21 12.14,-3.52 4.23,-1.32 7.99,-2.6 12.15,-4.1 4.23,-1.52 7.99,-2.97 12.15,-4.66 4.23,-1.72 7.99,-3.34 12.15,-5.21 4.23,-1.9 7.99,-3.68 12.15,-5.73 4.23,-2.08 7.99,-4.01 12.15,-6.23 4.23,-2.25 7.99,-4.34 12.15,-6.72 4.23,-2.42 7.99,-4.65 12.14,-7.19 4.23,-2.59 8,-4.96 12.15,-7.66 4.23,-2.73 7.99,-5.25 12.15,-8.09 4.23,-2.89 7.99,-5.54 12.15,-8.53 4.23,-3.04 7.99,-5.82 12.15,-8.95 4.22,-3.18 7.99,-6.09 12.15,-9.36 4.22,-3.33 7.99,-6.35 12.14,-9.76 4.23,-3.47 7.99,-6.61 12.15,-10.15 4.23,-3.6 7.99,-6.87 12.15,-10.54 4.23,-3.73 7.99,-7.11 12.15,-10.91 4.23,-3.85 7.99,-7.35 12.15,-11.28 4.22,-3.98 7.99,-7.58 12.15,-11.63 4.22,-4.1 7.99,-7.82 12.15,-11.98 4.22,-4.23 7.98,-8.05 12.14,-12.34 4.23,-4.34 7.99,-8.26 12.15,-12.66 4.22,-4.46 7.99,-8.49 12.15,-13 4.22,-4.57 7.98,-8.71 12.15,-13.33 4.22,-4.68 7.98,-8.91 12.15,-13.65 4.22,-4.79 7.98,-9.12 12.15,-13.96 4.21,-4.9 7.98,-9.33 12.14,-14.27 4.22,-5.01 12.15,-14.58 12.15,-14.58" style="fill:none;stroke:#000000;stroke-width:7.97011;stroke-linecap:butt;stroke-linejoin:miter;stroke-miterlimit:10;stroke-dasharray:none;stroke-opacity:1" transform="matrix(0.13333333,0,0,-0.13333333,0,1122.6667)"/>
    <path id="path206" d="m 1751.22,2410.6 c 0,0 4.79,-5.81 7.29,-8.89 2.53,-3.1 4.79,-5.89 7.29,-9 2.53,-3.14 4.79,-5.96 7.29,-9.1 2.53,-3.18 4.79,-6.03 7.29,-9.22 2.53,-3.2 4.78,-6.09 7.29,-9.31 2.53,-3.24 4.78,-6.16 7.29,-9.42 2.52,-3.28 4.78,-6.23 7.29,-9.52 2.52,-3.31 4.78,-6.3 7.29,-9.62 2.52,-3.35 4.78,-6.36 7.28,-9.73 2.53,-3.38 4.79,-6.42 7.29,-9.82 2.53,-3.42 4.79,-6.49 7.29,-9.92 2.53,-3.46 4.79,-6.56 7.29,-10.02 2.52,-3.49 4.78,-6.63 7.29,-10.12 2.52,-3.52 4.78,-6.69 7.29,-10.22 2.52,-3.55 4.78,-6.75 7.29,-10.31 2.52,-3.59 4.78,-6.81 7.29,-10.41 2.52,-3.62 4.78,-6.88 7.29,-10.51 2.52,-3.65 4.78,-6.93 7.29,-10.59 2.52,-3.69 4.78,-7 7.28,-10.69 2.53,-3.72 4.79,-7.06 7.29,-10.79 2.53,-3.75 4.79,-7.12 7.29,-10.87 2.53,-3.79 4.78,-7.18 7.29,-10.97 2.53,-3.82 4.78,-7.24 7.29,-11.06 2.52,-3.85 4.78,-7.3 7.29,-11.15 2.52,-3.88 4.78,-7.36 7.29,-11.24 2.52,-3.9 4.78,-7.42 7.29,-11.33 2.52,-3.93 4.78,-7.47 7.29,-11.41 2.52,-3.97 4.78,-7.54 7.29,-11.51 2.52,-3.99 4.78,-7.59 7.29,-11.59 2.52,-4.03 4.78,-7.65 7.28,-11.68 2.53,-4.06 4.79,-7.7 7.29,-11.76 2.53,-4.09 4.78,-7.76 7.29,-11.86 2.53,-4.11 4.78,-7.81 7.29,-11.93 2.53,-4.15 4.78,-7.87 7.29,-12.02 2.52,-4.18 4.78,-7.93 7.29,-12.11 2.52,-4.2 4.78,-7.98 7.29,-12.19 2.52,-4.23 4.78,-8.03 7.29,-12.27 2.52,-4.26 4.78,-8.09 7.29,-12.35 2.52,-4.29 4.78,-8.15 7.29,-12.44 2.52,-4.32 4.78,-8.2 7.29,-12.52 2.52,-4.35 4.78,-8.25 7.28,-12.6 2.53,-4.37 4.79,-8.3 7.29,-12.68 2.53,-4.4 4.78,-8.36 7.29,-12.77 2.53,-4.42 4.78,-8.4 7.29,-12.84 2.52,-4.45 4.78,-8.46 7.29,-12.92 2.52,-4.48 4.78,-8.51 7.29,-13 2.52,-4.51 4.78,-8.56 7.29,-13.08 2.52,-4.54 4.78,-8.62 7.29,-13.16 2.52,-4.56 7.29,-13.24 7.29,-13.24" style="fill:none;stroke:#000000;stroke-width:7.97011;stroke-linecap:butt;stroke-linejoin:miter;stroke-miterlimit:10;stroke-dasharray:none;stroke-opacity:1" transform="matrix(0.13333333,0,0,-0.13333333,0,1122.6667)"/>
    <path id="path207" d="m 1751.22,2410.6 c 0,0 4.79,5.81 7.29,8.89 2.53,3.1 4.79,5.89 7.29,9 2.53,3.13 4.79,5.96 7.29,9.1 2.53,3.18 4.79,6.03 7.29,9.21 2.53,3.21 4.78,6.1 7.29,9.32 2.53,3.24 4.78,6.16 7.29,9.42 2.52,3.28 4.78,6.23 7.29,9.52 2.52,3.32 4.78,6.3 7.29,9.62 2.52,3.35 4.78,6.36 7.28,9.73 2.53,3.38 4.79,6.42 7.29,9.82 2.53,3.42 4.79,6.49 7.29,9.92 2.53,3.46 4.79,6.56 7.29,10.03 2.52,3.48 4.78,6.62 7.29,10.11 2.52,3.52 4.78,6.69 7.29,10.22 2.52,3.55 4.78,6.75 7.29,10.31 2.52,3.59 4.78,6.82 7.29,10.41 2.52,3.62 4.78,6.88 7.29,10.5 2.52,3.66 4.78,6.94 7.29,10.6 2.52,3.69 4.78,7 7.28,10.69 2.53,3.72 4.79,7.06 7.29,10.79 2.53,3.75 4.79,7.12 7.29,10.88 2.53,3.77 4.78,7.17 7.29,10.96 2.53,3.81 4.78,7.24 7.29,11.06 2.52,3.84 4.78,7.3 7.29,11.15 2.52,3.87 4.78,7.36 7.29,11.24 2.52,3.9 4.78,7.42 7.29,11.33 2.52,3.93 4.78,7.47 7.29,11.41 2.52,3.97 4.78,7.54 7.29,11.51 2.52,4 4.78,7.59 7.29,11.59 2.52,4.03 4.78,7.65 7.28,11.68 2.53,4.06 4.79,7.7 7.29,11.77 2.53,4.08 4.78,7.75 7.29,11.85 2.53,4.11 4.78,7.81 7.29,11.93 2.53,4.15 4.78,7.87 7.29,12.03 2.52,4.17 4.78,7.92 7.29,12.1 2.52,4.2 4.78,7.98 7.29,12.19 2.52,4.23 4.78,8.03 7.29,12.27 2.52,4.26 4.78,8.09 7.29,12.36 2.52,4.28 4.78,8.14 7.29,12.43 2.52,4.32 4.78,8.2 7.29,12.52 2.52,4.35 4.78,8.25 7.28,12.6 2.53,4.38 4.79,8.31 7.29,12.69 2.53,4.39 4.78,8.35 7.29,12.76 2.53,4.42 4.78,8.4 7.29,12.84 2.52,4.45 4.78,8.46 7.29,12.92 2.52,4.48 4.78,8.51 7.29,13 2.52,4.51 4.78,8.57 7.29,13.08 2.52,4.54 4.78,8.61 7.29,13.16 2.52,4.56 7.29,13.24 7.29,13.24" style="fill:none;stroke:#000000;stroke-width:7.97011;stroke-linecap:butt;stroke-linejoin:miter;stroke-miterlimit:10;stroke-dasharray:none;stroke-opacity:1" transform="matrix(0.13333333,0,0,-0.13333333,0,1122.6667)"/>
    <path id="path208" d="m 5.2969453,-2.9882031 c 0,-1.2773438 -1.0546875,-2.3203125 -2.3085937,-2.3203125 -1.3007813,0 -2.32031254,1.0664062 -2.32031254,2.3203125 0,1.2773437 1.05468754,2.32031248 2.30859374,2.32031248 1.3007813,0 2.3203125,-1.06640628 2.3203125,-2.32031248 z m 0,0" style="fill:#0000ff;fill-opacity:1;fill-rule:nonzero;stroke:none" aria-label="•" transform="matrix(1.3333333,0,0,1.3333333,229.496,804.77333)"/>
    
    
    
    
    
    
    
    
    
    
    
    
    
  </g>
</svg>