<svg version="1.1" id="svg1" width="142.0009280775215" height="179.00166618232427" viewBox="427.0027907683217 702.5065390675016 142.0009280775215 179.00166618232427" sodipodi:docname="intro.pdf" xmlns:inkscape="http://www.inkscape.org/namespaces/inkscape" xmlns:sodipodi="http://sodipodi.sourceforge.net/DTD/sodipodi-0.dtd" xmlns="http://www.w3.org/2000/svg" xmlns:svg="http://www.w3.org/2000/svg" style="">
  <defs id="defs1"/>
  <sodipodi:namedview id="namedview1" pagecolor="#ffffff" bordercolor="#000000" borderopacity="0.25" inkscape:showpageshadow="2" inkscape:pageopacity="0.0" inkscape:pagecheckerboard="0" inkscape:deskcolor="#d1d1d1">
    <inkscape:page x="0" y="0" inkscape:label="3" id="page1" width="793.33331" height="1122.6667" margin="0" bleed="0"/>
  </sodipodi:namedview>
  <g id="g1" inkscape:groupmode="layer" inkscape:label="3">
    
    
    
    
    
    
    
    
    
    
    
    
    
    
    
    
    
    <path id="path233" d="m 3321.81,2410.6 c 0,0 6.91,-28.15 14.91,-40.78 3.91,-6.18 9.32,-10.38 14.91,-15.11 4.8,-4.07 9.56,-7.19 14.91,-10.5 4.98,-3.07 9.66,-5.48 14.92,-8.03 5.04,-2.45 9.7,-4.39 14.91,-6.46 5.08,-2.02 9.72,-3.65 14.91,-5.39 5.11,-1.72 9.74,-3.13 14.91,-4.65 5.12,-1.52 9.75,-2.77 14.91,-4.15 5.13,-1.38 9.76,-2.55 14.91,-3.85 5.14,-1.29 9.77,-2.41 14.92,-3.68 5.14,-1.27 9.77,-2.39 14.91,-3.67 5.14,-1.28 9.77,-2.43 14.91,-3.76 5.15,-1.34 9.78,-2.55 14.91,-3.96 5.16,-1.42 9.78,-2.73 14.91,-4.25 5.16,-1.53 9.79,-2.95 14.91,-4.6 5.17,-1.66 9.79,-3.21 14.91,-5.01 5.18,-1.82 9.8,-3.52 14.91,-5.48 5.18,-1.99 9.8,-3.84 14.91,-5.98 5.18,-2.17 9.81,-4.18 14.92,-6.5 5.18,-2.35 9.8,-4.53 14.91,-7.03 5.18,-2.55 9.8,-4.9 14.91,-7.58 5.19,-2.73 9.81,-5.26 14.91,-8.13 5.19,-2.93 9.81,-5.62 14.91,-8.67 5.19,-3.11 9.81,-5.97 14.91,-9.21 5.19,-3.29 9.81,-6.31 14.92,-9.72 5.19,-3.47 9.8,-6.65 14.91,-10.24 5.19,-3.64 9.8,-6.97 14.91,-10.73 5.19,-3.81 9.8,-7.29 14.91,-11.21 5.19,-3.97 9.8,-7.59 14.91,-11.67 5.19,-4.14 9.81,-7.9 14.92,-12.12 5.18,-4.29 9.8,-8.19 14.91,-12.56 5.18,-4.44 9.8,-8.47 14.91,-12.99 5.18,-4.57 9.8,-8.73 14.91,-13.38 5.18,-4.73 9.8,-9 14.91,-13.79 5.18,-4.85 9.8,-9.24 14.91,-14.17 5.18,-4.98 9.8,-9.49 14.91,-14.54 5.18,-5.11 9.8,-9.73 14.92,-14.9 5.17,-5.24 9.79,-9.96 14.91,-15.26 5.17,-5.35 9.79,-10.18 14.91,-15.59 5.17,-5.47 9.79,-10.41 14.91,-15.93 5.18,-5.58 9.79,-10.62 14.91,-16.26 5.18,-5.69 9.79,-10.82 14.91,-16.57 5.18,-5.8 9.79,-11.03 14.91,-16.88 5.18,-5.91 9.79,-11.23 14.91,-17.19 5.18,-6.01 9.8,-11.43 14.92,-17.48 5.17,-6.11 9.79,-11.62 14.91,-17.77 5.17,-6.21 9.79,-11.81 14.91,-18.06 5.17,-6.31 9.79,-11.99 14.91,-18.34 5.17,-6.4 14.91,-18.61 14.91,-18.61" style="fill:none;stroke:#000000;stroke-width:7.97011;stroke-linecap:butt;stroke-linejoin:miter;stroke-miterlimit:10;stroke-dasharray:none;stroke-opacity:1" transform="matrix(0.13333333,0,0,-0.13333333,0,1122.6667)"/>
    <path id="path234" d="m 3321.81,2410.6 c 0,0 6.91,28.15 14.91,40.78 3.91,6.18 9.32,10.38 14.91,15.11 4.8,4.07 9.56,7.19 14.91,10.5 4.98,3.07 9.66,5.48 14.92,8.03 5.04,2.44 9.7,4.39 14.91,6.46 5.08,2.02 9.72,3.65 14.91,5.4 5.11,1.71 9.74,3.12 14.91,4.64 5.12,1.52 9.75,2.77 14.91,4.16 5.13,1.37 9.76,2.53 14.91,3.84 5.14,1.29 9.77,2.41 14.92,3.68 5.14,1.27 9.77,2.39 14.91,3.67 5.14,1.28 9.77,2.43 14.91,3.76 5.15,1.34 9.78,2.55 14.91,3.96 5.16,1.42 9.78,2.73 14.91,4.25 5.16,1.53 9.79,2.95 14.91,4.6 5.17,1.67 9.79,3.21 14.91,5.01 5.18,1.82 9.8,3.52 14.91,5.48 5.18,1.99 9.8,3.84 14.91,5.98 5.18,2.16 9.81,4.18 14.92,6.5 5.18,2.35 9.8,4.53 14.91,7.04 5.18,2.53 9.8,4.89 14.91,7.58 5.19,2.73 9.81,5.25 14.91,8.13 5.19,2.91 9.81,5.61 14.91,8.66 5.19,3.11 9.81,5.97 14.91,9.21 5.19,3.29 9.81,6.31 14.92,9.72 5.19,3.47 9.8,6.65 14.91,10.24 5.19,3.64 9.8,6.97 14.91,10.73 5.19,3.81 9.8,7.29 14.91,11.21 5.19,3.97 9.8,7.59 14.91,11.67 5.19,4.14 9.81,7.9 14.92,12.13 5.18,4.29 9.8,8.18 14.91,12.56 5.18,4.43 9.8,8.46 14.91,12.98 5.18,4.58 9.8,8.73 14.91,13.39 5.18,4.72 9.8,8.99 14.91,13.78 5.18,4.85 9.8,9.25 14.91,14.17 5.18,4.98 9.8,9.49 14.91,14.54 5.18,5.11 9.8,9.73 14.92,14.9 5.17,5.24 9.79,9.97 14.91,15.25 5.17,5.36 9.79,10.19 14.91,15.6 5.17,5.47 9.79,10.41 14.91,15.93 5.18,5.58 9.79,10.62 14.91,16.26 5.18,5.69 9.79,10.83 14.91,16.57 5.18,5.8 9.79,11.03 14.91,16.88 5.18,5.91 9.79,11.23 14.91,17.19 5.18,6.01 9.8,11.43 14.92,17.48 5.17,6.11 9.79,11.62 14.91,17.77 5.17,6.22 9.79,11.81 14.91,18.06 5.17,6.31 9.79,11.99 14.91,18.34 5.17,6.4 14.91,18.61 14.91,18.61" style="fill:none;stroke:#000000;stroke-width:7.97011;stroke-linecap:butt;stroke-linejoin:miter;stroke-miterlimit:10;stroke-dasharray:none;stroke-opacity:1" transform="matrix(0.13333333,0,0,-0.13333333,0,1122.6667)"/>
    
    
    
    
    
    
  </g>
</svg>