<svg version="1.1" id="svg1" width="265.0017319756563" height="252.00234568684758" viewBox="96.00062743269059 446.50415614752956 265.0017319756563 252.00234568684758" sodipodi:docname="ch4.pdf" xmlns:inkscape="http://www.inkscape.org/namespaces/inkscape" xmlns:sodipodi="http://sodipodi.sourceforge.net/DTD/sodipodi-0.dtd" xmlns="http://www.w3.org/2000/svg" xmlns:svg="http://www.w3.org/2000/svg" style="">
  <defs id="defs1">
    <clipPath clipPathUnits="userSpaceOnUse" id="clipPath5">
      <path d="M 0,0 H 719.988 V 720 H 0 Z" id="path5"/>
    </clipPath>
    <pattern patternTransform="matrix(0.4704,0,0,0.4704,-21.5,26.3)" patternUnits="userSpaceOnUse" x="0" y="0" width="71.999" height="72" id="pattern29">
      <path d="m -74.8438,614.844 179.9888,180" style="fill:none;stroke:#231f20;stroke-opacity:1;stroke-width:3;stroke-linecap:butt;stroke-linejoin:round;stroke-miterlimit:4;stroke-dasharray:none" transform="scale(0.1)" clip-path="url(#clipPath5)" id="path6"/>
      <path d="m -74.8438,554.844 239.9888,240" style="fill:none;stroke:#231f20;stroke-opacity:1;stroke-width:3;stroke-linecap:butt;stroke-linejoin:round;stroke-miterlimit:4;stroke-dasharray:none" transform="scale(0.1)" clip-path="url(#clipPath5)" id="path7"/>
      <path d="m -74.8438,494.844 299.9888,300" style="fill:none;stroke:#231f20;stroke-opacity:1;stroke-width:3;stroke-linecap:butt;stroke-linejoin:round;stroke-miterlimit:4;stroke-dasharray:none" transform="scale(0.1)" clip-path="url(#clipPath5)" id="path8"/>
      <path d="m -74.8438,434.844 359.9888,360" style="fill:none;stroke:#231f20;stroke-opacity:1;stroke-width:3;stroke-linecap:butt;stroke-linejoin:round;stroke-miterlimit:4;stroke-dasharray:none" transform="scale(0.1)" clip-path="url(#clipPath5)" id="path9"/>
      <path d="m -74.8438,374.844 419.9888,420" style="fill:none;stroke:#231f20;stroke-opacity:1;stroke-width:3;stroke-linecap:butt;stroke-linejoin:round;stroke-miterlimit:4;stroke-dasharray:none" transform="scale(0.1)" clip-path="url(#clipPath5)" id="path10"/>
      <path d="m -74.8438,314.844 479.9888,480" style="fill:none;stroke:#231f20;stroke-opacity:1;stroke-width:3;stroke-linecap:butt;stroke-linejoin:round;stroke-miterlimit:4;stroke-dasharray:none" transform="scale(0.1)" clip-path="url(#clipPath5)" id="path11"/>
      <path d="m -74.8438,254.844 539.9888,540" style="fill:none;stroke:#231f20;stroke-opacity:1;stroke-width:3;stroke-linecap:butt;stroke-linejoin:round;stroke-miterlimit:4;stroke-dasharray:none" transform="scale(0.1)" clip-path="url(#clipPath5)" id="path12"/>
      <path d="m -74.8438,194.844 599.9888,600" style="fill:none;stroke:#231f20;stroke-opacity:1;stroke-width:3;stroke-linecap:butt;stroke-linejoin:round;stroke-miterlimit:4;stroke-dasharray:none" transform="scale(0.1)" clip-path="url(#clipPath5)" id="path13"/>
      <path d="m -74.8438,134.844 659.9888,660" style="fill:none;stroke:#231f20;stroke-opacity:1;stroke-width:3;stroke-linecap:butt;stroke-linejoin:round;stroke-miterlimit:4;stroke-dasharray:none" transform="scale(0.1)" clip-path="url(#clipPath5)" id="path14"/>
      <path d="M -74.8438,74.8438 645.145,794.844" style="fill:none;stroke:#231f20;stroke-opacity:1;stroke-width:3;stroke-linecap:butt;stroke-linejoin:round;stroke-miterlimit:4;stroke-dasharray:none" transform="scale(0.1)" clip-path="url(#clipPath5)" id="path15"/>
      <path d="M -74.8438,14.8438 705.145,794.844" style="fill:none;stroke:#231f20;stroke-opacity:1;stroke-width:3;stroke-linecap:butt;stroke-linejoin:round;stroke-miterlimit:4;stroke-dasharray:none" transform="scale(0.1)" clip-path="url(#clipPath5)" id="path16"/>
      <path d="M -74.8438,-45.1484 765.145,794.844" style="fill:none;stroke:#231f20;stroke-opacity:1;stroke-width:3;stroke-linecap:butt;stroke-linejoin:round;stroke-miterlimit:4;stroke-dasharray:none" transform="scale(0.1)" clip-path="url(#clipPath5)" id="path17"/>
      <path d="M -14.8438,-45.1484 765.145,734.844" style="fill:none;stroke:#231f20;stroke-opacity:1;stroke-width:3;stroke-linecap:butt;stroke-linejoin:round;stroke-miterlimit:4;stroke-dasharray:none" transform="scale(0.1)" clip-path="url(#clipPath5)" id="path18"/>
      <path d="M 45.1445,-45.1484 765.145,674.844" style="fill:none;stroke:#231f20;stroke-opacity:1;stroke-width:3;stroke-linecap:butt;stroke-linejoin:round;stroke-miterlimit:4;stroke-dasharray:none" transform="scale(0.1)" clip-path="url(#clipPath5)" id="path19"/>
      <path d="m 105.145,-45.1484 660,659.9924" style="fill:none;stroke:#231f20;stroke-opacity:1;stroke-width:3;stroke-linecap:butt;stroke-linejoin:round;stroke-miterlimit:4;stroke-dasharray:none" transform="scale(0.1)" clip-path="url(#clipPath5)" id="path20"/>
      <path d="m 165.145,-45.1484 600,599.9924" style="fill:none;stroke:#231f20;stroke-opacity:1;stroke-width:3;stroke-linecap:butt;stroke-linejoin:round;stroke-miterlimit:4;stroke-dasharray:none" transform="scale(0.1)" clip-path="url(#clipPath5)" id="path21"/>
      <path d="m 225.145,-45.1484 540,539.9924" style="fill:none;stroke:#231f20;stroke-opacity:1;stroke-width:3;stroke-linecap:butt;stroke-linejoin:round;stroke-miterlimit:4;stroke-dasharray:none" transform="scale(0.1)" clip-path="url(#clipPath5)" id="path22"/>
      <path d="m 285.145,-45.1484 480,479.9924" style="fill:none;stroke:#231f20;stroke-opacity:1;stroke-width:3;stroke-linecap:butt;stroke-linejoin:round;stroke-miterlimit:4;stroke-dasharray:none" transform="scale(0.1)" clip-path="url(#clipPath5)" id="path23"/>
      <path d="m 345.145,-45.1484 420,419.9924" style="fill:none;stroke:#231f20;stroke-opacity:1;stroke-width:3;stroke-linecap:butt;stroke-linejoin:round;stroke-miterlimit:4;stroke-dasharray:none" transform="scale(0.1)" clip-path="url(#clipPath5)" id="path24"/>
      <path d="m 405.145,-45.1484 360,359.9924" style="fill:none;stroke:#231f20;stroke-opacity:1;stroke-width:3;stroke-linecap:butt;stroke-linejoin:round;stroke-miterlimit:4;stroke-dasharray:none" transform="scale(0.1)" clip-path="url(#clipPath5)" id="path25"/>
      <path d="m 465.145,-45.1484 300,299.9924" style="fill:none;stroke:#231f20;stroke-opacity:1;stroke-width:3;stroke-linecap:butt;stroke-linejoin:round;stroke-miterlimit:4;stroke-dasharray:none" transform="scale(0.1)" clip-path="url(#clipPath5)" id="path26"/>
      <path d="m 525.145,-45.1484 240,239.9924" style="fill:none;stroke:#231f20;stroke-opacity:1;stroke-width:3;stroke-linecap:butt;stroke-linejoin:round;stroke-miterlimit:4;stroke-dasharray:none" transform="scale(0.1)" clip-path="url(#clipPath5)" id="path27"/>
      <path d="m 585.145,-45.1484 180,179.9924" style="fill:none;stroke:#231f20;stroke-opacity:1;stroke-width:3;stroke-linecap:butt;stroke-linejoin:round;stroke-miterlimit:4;stroke-dasharray:none" transform="scale(0.1)" clip-path="url(#clipPath5)" id="path28"/>
      <path d="m 645.145,-45.1484 120,119.9922" style="fill:none;stroke:#231f20;stroke-opacity:1;stroke-width:3;stroke-linecap:butt;stroke-linejoin:round;stroke-miterlimit:4;stroke-dasharray:none" transform="scale(0.1)" clip-path="url(#clipPath5)" id="path29"/>
    </pattern>
    <clipPath clipPathUnits="userSpaceOnUse" id="clipPath31">
      <path d="M 0,0 H 288 V 287.996 H 0 Z" id="path31"/>
    </clipPath>
    <pattern patternTransform="matrix(0.4704,0,0,0.4704,-8,5.5)" patternUnits="userSpaceOnUse" x="0" y="0" width="28.8003" height="28.7998" id="pattern44">
      <path d="m 288.004,-7.20312 c 3.961,0 7.199,3.23046 7.199,7.19921375 0,3.98046625 -3.238,7.20312625 -7.199,7.20312625 -3.981,0 -7.199,-3.22266 -7.199,-7.20312625 0,-3.96875375 3.218,-7.19921375 7.199,-7.19921375" style="fill:#231f20;fill-opacity:1;fill-rule:nonzero;stroke:none" transform="scale(0.1)" clip-path="url(#clipPath31)" id="path32"/>
      <path d="m 144,-7.20312 c 3.969,0 7.199,3.23046 7.199,7.19921375 0,3.98046625 -3.23,7.20312625 -7.199,7.20312625 -3.973,0 -7.199,-3.22266 -7.199,-7.20312625 C 136.801,-3.97266 140.027,-7.20312 144,-7.20312" style="fill:#231f20;fill-opacity:1;fill-rule:nonzero;stroke:none" transform="scale(0.1)" clip-path="url(#clipPath31)" id="path33"/>
      <path d="m 0,-7.20312 c 3.96875,0 7.19922,3.23046 7.19922,7.19921375 C 7.19922,3.97656 3.96875,7.19922 0,7.19922 c -3.98047,0 -7.19922,-3.22266 -7.19922,-7.20312625 C -7.19922,-3.97266 -3.98047,-7.20312 0,-7.20312" style="fill:#231f20;fill-opacity:1;fill-rule:nonzero;stroke:none" transform="scale(0.1)" clip-path="url(#clipPath31)" id="path34"/>
      <path d="m 288.004,136.797 c 3.961,0 7.199,3.23 7.199,7.199 0,3.981 -3.238,7.199 -7.199,7.199 -3.981,0 -7.199,-3.218 -7.199,-7.199 0,-3.969 3.218,-7.199 7.199,-7.199" style="fill:#231f20;fill-opacity:1;fill-rule:nonzero;stroke:none" transform="scale(0.1)" clip-path="url(#clipPath31)" id="path35"/>
      <path d="m 144,136.797 c 3.969,0 7.199,3.23 7.199,7.199 0,3.981 -3.23,7.199 -7.199,7.199 -3.973,0 -7.199,-3.218 -7.199,-7.199 0,-3.969 3.226,-7.199 7.199,-7.199" style="fill:#231f20;fill-opacity:1;fill-rule:nonzero;stroke:none" transform="scale(0.1)" id="path36"/>
      <path d="m 0,136.797 c 3.96875,0 7.19922,3.23 7.19922,7.199 0,3.981 -3.23047,7.199 -7.19922,7.199 -3.98047,0 -7.19922,-3.218 -7.19922,-7.199 0,-3.969 3.21875,-7.199 7.19922,-7.199" style="fill:#231f20;fill-opacity:1;fill-rule:nonzero;stroke:none" transform="scale(0.1)" clip-path="url(#clipPath31)" id="path37"/>
      <path d="m 288.004,280.797 c 3.961,0 7.199,3.23 7.199,7.199 0,3.981 -3.238,7.199 -7.199,7.199 -3.981,0 -7.199,-3.218 -7.199,-7.199 0,-3.969 3.218,-7.199 7.199,-7.199" style="fill:#231f20;fill-opacity:1;fill-rule:nonzero;stroke:none" transform="scale(0.1)" clip-path="url(#clipPath31)" id="path38"/>
      <path d="m 144,280.797 c 3.969,0 7.199,3.23 7.199,7.199 0,3.981 -3.23,7.199 -7.199,7.199 -3.973,0 -7.199,-3.218 -7.199,-7.199 0,-3.969 3.226,-7.199 7.199,-7.199" style="fill:#231f20;fill-opacity:1;fill-rule:nonzero;stroke:none" transform="scale(0.1)" clip-path="url(#clipPath31)" id="path39"/>
      <path d="m 0,280.797 c 3.96875,0 7.19922,3.23 7.19922,7.199 0,3.981 -3.23047,7.199 -7.19922,7.199 -3.98047,0 -7.19922,-3.218 -7.19922,-7.199 0,-3.969 3.21875,-7.199 7.19922,-7.199" style="fill:#231f20;fill-opacity:1;fill-rule:nonzero;stroke:none" transform="scale(0.1)" clip-path="url(#clipPath31)" id="path40"/>
      <path d="m 72.0039,64.8008 c 3.9688,0 7.1992,3.2304 7.1992,7.1992 0,3.9805 -3.2304,7.1992 -7.1992,7.1992 -3.9805,0 -7.2031,-3.2187 -7.2031,-7.1992 0,-3.9688 3.2226,-7.1992 7.2031,-7.1992" style="fill:#231f20;fill-opacity:1;fill-rule:nonzero;stroke:none" transform="scale(0.1)" id="path41"/>
      <path d="m 216,64.8008 c 3.98,0 7.199,3.2304 7.199,7.1992 0,3.9805 -3.219,7.1992 -7.199,7.1992 -3.98,0 -7.199,-3.2187 -7.199,-7.1992 0,-3.9688 3.219,-7.1992 7.199,-7.1992" style="fill:#231f20;fill-opacity:1;fill-rule:nonzero;stroke:none" transform="scale(0.1)" id="path42"/>
      <path d="m 72.0039,208.801 c 3.9688,0 7.1992,3.226 7.1992,7.199 0,3.98 -3.2304,7.199 -7.1992,7.199 -3.9805,0 -7.2031,-3.219 -7.2031,-7.199 0,-3.973 3.2226,-7.199 7.2031,-7.199" style="fill:#231f20;fill-opacity:1;fill-rule:nonzero;stroke:none" transform="scale(0.1)" id="path43"/>
      <path d="m 216,208.801 c 3.98,0 7.199,3.226 7.199,7.199 0,3.98 -3.219,7.199 -7.199,7.199 -3.98,0 -7.199,-3.219 -7.199,-7.199 0,-3.973 3.219,-7.199 7.199,-7.199" style="fill:#231f20;fill-opacity:1;fill-rule:nonzero;stroke:none" transform="scale(0.1)" id="path44"/>
    </pattern>
    <clipPath clipPathUnits="userSpaceOnUse" id="clipPath65">
      <path d="M -0.92399752,2.9450001 H 11.089703 V -7.0593002 H -0.92399752 Z" id="path65"/>
    </clipPath>
    <clipPath clipPathUnits="userSpaceOnUse" id="clipPath68">
      <path d="M -0.92499752,2.5619976 H 11.089103 V -7.4423027 H -0.92499752 Z" id="path68"/>
    </clipPath>
    <clipPath clipPathUnits="userSpaceOnUse" id="clipPath71">
      <path d="M -1.1520025,-6.9870027 V 3.0179976 H 5.7919976 V -6.9870027 Z" id="path71"/>
    </clipPath>
    <clipPath clipPathUnits="userSpaceOnUse" id="clipPath80">
      <path d="M -0.80099752,2.3870001 H 31.638503 V -4.8040201 H -0.80099752 Z" id="path80"/>
    </clipPath>
    <clipPath clipPathUnits="userSpaceOnUse" id="clipPath88">
      <path d="M -0.90599752,11.216003 H 16.542803 V 1.2117025 H -0.90599752 Z" id="path88"/>
    </clipPath>
    <clipPath clipPathUnits="userSpaceOnUse" id="clipPath91">
      <path d="M 0,0 H 719.988 V 720 H 0 Z" id="path91"/>
    </clipPath>
    <pattern patternTransform="matrix(0.469404,0,0,0.469404,-30.3,20.6)" patternUnits="userSpaceOnUse" x="0" y="0" width="71.999" height="72" id="pattern115">
      <path d="m -74.8438,614.844 179.9888,180" style="fill:none;stroke:#231f20;stroke-opacity:1;stroke-width:3;stroke-linecap:butt;stroke-linejoin:round;stroke-miterlimit:4;stroke-dasharray:none" transform="scale(0.1)" clip-path="url(#clipPath91)" id="path92"/>
      <path d="m -74.8438,554.844 239.9888,240" style="fill:none;stroke:#231f20;stroke-opacity:1;stroke-width:3;stroke-linecap:butt;stroke-linejoin:round;stroke-miterlimit:4;stroke-dasharray:none" transform="scale(0.1)" clip-path="url(#clipPath91)" id="path93"/>
      <path d="m -74.8438,494.844 299.9888,300" style="fill:none;stroke:#231f20;stroke-opacity:1;stroke-width:3;stroke-linecap:butt;stroke-linejoin:round;stroke-miterlimit:4;stroke-dasharray:none" transform="scale(0.1)" clip-path="url(#clipPath91)" id="path94"/>
      <path d="m -74.8438,434.844 359.9888,360" style="fill:none;stroke:#231f20;stroke-opacity:1;stroke-width:3;stroke-linecap:butt;stroke-linejoin:round;stroke-miterlimit:4;stroke-dasharray:none" transform="scale(0.1)" clip-path="url(#clipPath91)" id="path95"/>
      <path d="m -74.8438,374.844 419.9888,420" style="fill:none;stroke:#231f20;stroke-opacity:1;stroke-width:3;stroke-linecap:butt;stroke-linejoin:round;stroke-miterlimit:4;stroke-dasharray:none" transform="scale(0.1)" clip-path="url(#clipPath91)" id="path96"/>
      <path d="m -74.8438,314.844 479.9888,480" style="fill:none;stroke:#231f20;stroke-opacity:1;stroke-width:3;stroke-linecap:butt;stroke-linejoin:round;stroke-miterlimit:4;stroke-dasharray:none" transform="scale(0.1)" clip-path="url(#clipPath91)" id="path97"/>
      <path d="m -74.8438,254.844 539.9888,540" style="fill:none;stroke:#231f20;stroke-opacity:1;stroke-width:3;stroke-linecap:butt;stroke-linejoin:round;stroke-miterlimit:4;stroke-dasharray:none" transform="scale(0.1)" clip-path="url(#clipPath91)" id="path98"/>
      <path d="m -74.8438,194.844 599.9888,600" style="fill:none;stroke:#231f20;stroke-opacity:1;stroke-width:3;stroke-linecap:butt;stroke-linejoin:round;stroke-miterlimit:4;stroke-dasharray:none" transform="scale(0.1)" clip-path="url(#clipPath91)" id="path99"/>
      <path d="m -74.8438,134.844 659.9888,660" style="fill:none;stroke:#231f20;stroke-opacity:1;stroke-width:3;stroke-linecap:butt;stroke-linejoin:round;stroke-miterlimit:4;stroke-dasharray:none" transform="scale(0.1)" clip-path="url(#clipPath91)" id="path100"/>
      <path d="M -74.8438,74.8438 645.145,794.844" style="fill:none;stroke:#231f20;stroke-opacity:1;stroke-width:3;stroke-linecap:butt;stroke-linejoin:round;stroke-miterlimit:4;stroke-dasharray:none" transform="scale(0.1)" clip-path="url(#clipPath91)" id="path101"/>
      <path d="M -74.8438,14.8438 705.145,794.844" style="fill:none;stroke:#231f20;stroke-opacity:1;stroke-width:3;stroke-linecap:butt;stroke-linejoin:round;stroke-miterlimit:4;stroke-dasharray:none" transform="scale(0.1)" clip-path="url(#clipPath91)" id="path102"/>
      <path d="M -74.8438,-45.1484 765.145,794.844" style="fill:none;stroke:#231f20;stroke-opacity:1;stroke-width:3;stroke-linecap:butt;stroke-linejoin:round;stroke-miterlimit:4;stroke-dasharray:none" transform="scale(0.1)" clip-path="url(#clipPath91)" id="path103"/>
      <path d="M -14.8438,-45.1484 765.145,734.844" style="fill:none;stroke:#231f20;stroke-opacity:1;stroke-width:3;stroke-linecap:butt;stroke-linejoin:round;stroke-miterlimit:4;stroke-dasharray:none" transform="scale(0.1)" clip-path="url(#clipPath91)" id="path104"/>
      <path d="M 45.1445,-45.1484 765.145,674.844" style="fill:none;stroke:#231f20;stroke-opacity:1;stroke-width:3;stroke-linecap:butt;stroke-linejoin:round;stroke-miterlimit:4;stroke-dasharray:none" transform="scale(0.1)" clip-path="url(#clipPath91)" id="path105"/>
      <path d="m 105.145,-45.1484 660,659.9924" style="fill:none;stroke:#231f20;stroke-opacity:1;stroke-width:3;stroke-linecap:butt;stroke-linejoin:round;stroke-miterlimit:4;stroke-dasharray:none" transform="scale(0.1)" clip-path="url(#clipPath91)" id="path106"/>
      <path d="m 165.145,-45.1484 600,599.9924" style="fill:none;stroke:#231f20;stroke-opacity:1;stroke-width:3;stroke-linecap:butt;stroke-linejoin:round;stroke-miterlimit:4;stroke-dasharray:none" transform="scale(0.1)" clip-path="url(#clipPath91)" id="path107"/>
      <path d="m 225.145,-45.1484 540,539.9924" style="fill:none;stroke:#231f20;stroke-opacity:1;stroke-width:3;stroke-linecap:butt;stroke-linejoin:round;stroke-miterlimit:4;stroke-dasharray:none" transform="scale(0.1)" clip-path="url(#clipPath91)" id="path108"/>
      <path d="m 285.145,-45.1484 480,479.9924" style="fill:none;stroke:#231f20;stroke-opacity:1;stroke-width:3;stroke-linecap:butt;stroke-linejoin:round;stroke-miterlimit:4;stroke-dasharray:none" transform="scale(0.1)" clip-path="url(#clipPath91)" id="path109"/>
      <path d="m 345.145,-45.1484 420,419.9924" style="fill:none;stroke:#231f20;stroke-opacity:1;stroke-width:3;stroke-linecap:butt;stroke-linejoin:round;stroke-miterlimit:4;stroke-dasharray:none" transform="scale(0.1)" clip-path="url(#clipPath91)" id="path110"/>
      <path d="m 405.145,-45.1484 360,359.9924" style="fill:none;stroke:#231f20;stroke-opacity:1;stroke-width:3;stroke-linecap:butt;stroke-linejoin:round;stroke-miterlimit:4;stroke-dasharray:none" transform="scale(0.1)" clip-path="url(#clipPath91)" id="path111"/>
      <path d="m 465.145,-45.1484 300,299.9924" style="fill:none;stroke:#231f20;stroke-opacity:1;stroke-width:3;stroke-linecap:butt;stroke-linejoin:round;stroke-miterlimit:4;stroke-dasharray:none" transform="scale(0.1)" clip-path="url(#clipPath91)" id="path112"/>
      <path d="m 525.145,-45.1484 240,239.9924" style="fill:none;stroke:#231f20;stroke-opacity:1;stroke-width:3;stroke-linecap:butt;stroke-linejoin:round;stroke-miterlimit:4;stroke-dasharray:none" transform="scale(0.1)" clip-path="url(#clipPath91)" id="path113"/>
      <path d="m 585.145,-45.1484 180,179.9924" style="fill:none;stroke:#231f20;stroke-opacity:1;stroke-width:3;stroke-linecap:butt;stroke-linejoin:round;stroke-miterlimit:4;stroke-dasharray:none" transform="scale(0.1)" clip-path="url(#clipPath91)" id="path114"/>
      <path d="m 645.145,-45.1484 120,119.9922" style="fill:none;stroke:#231f20;stroke-opacity:1;stroke-width:3;stroke-linecap:butt;stroke-linejoin:round;stroke-miterlimit:4;stroke-dasharray:none" transform="scale(0.1)" clip-path="url(#clipPath91)" id="path115"/>
    </pattern>
    <clipPath clipPathUnits="userSpaceOnUse" id="clipPath122">
      <path d="M 0,0 H 288 V 287.996 H 0 Z" id="path122"/>
    </clipPath>
    <pattern patternTransform="matrix(0.469404,0,0,0.469404,-3.2,7)" patternUnits="userSpaceOnUse" x="0" y="0" width="28.8003" height="28.7998" id="pattern135">
      <path d="m 288.004,-7.20312 c 3.961,0 7.199,3.23046 7.199,7.19921375 0,3.98046625 -3.238,7.20312625 -7.199,7.20312625 -3.981,0 -7.199,-3.22266 -7.199,-7.20312625 0,-3.96875375 3.218,-7.19921375 7.199,-7.19921375" style="fill:#231f20;fill-opacity:1;fill-rule:nonzero;stroke:none" transform="scale(0.1)" clip-path="url(#clipPath122)" id="path123"/>
      <path d="m 144,-7.20312 c 3.969,0 7.199,3.23046 7.199,7.19921375 0,3.98046625 -3.23,7.20312625 -7.199,7.20312625 -3.973,0 -7.199,-3.22266 -7.199,-7.20312625 C 136.801,-3.97266 140.027,-7.20312 144,-7.20312" style="fill:#231f20;fill-opacity:1;fill-rule:nonzero;stroke:none" transform="scale(0.1)" clip-path="url(#clipPath122)" id="path124"/>
      <path d="m 0,-7.20312 c 3.96875,0 7.19922,3.23046 7.19922,7.19921375 C 7.19922,3.97656 3.96875,7.19922 0,7.19922 c -3.98047,0 -7.19922,-3.22266 -7.19922,-7.20312625 C -7.19922,-3.97266 -3.98047,-7.20312 0,-7.20312" style="fill:#231f20;fill-opacity:1;fill-rule:nonzero;stroke:none" transform="scale(0.1)" clip-path="url(#clipPath122)" id="path125"/>
      <path d="m 288.004,136.797 c 3.961,0 7.199,3.23 7.199,7.199 0,3.981 -3.238,7.199 -7.199,7.199 -3.981,0 -7.199,-3.218 -7.199,-7.199 0,-3.969 3.218,-7.199 7.199,-7.199" style="fill:#231f20;fill-opacity:1;fill-rule:nonzero;stroke:none" transform="scale(0.1)" clip-path="url(#clipPath122)" id="path126"/>
      <path d="m 144,136.797 c 3.969,0 7.199,3.23 7.199,7.199 0,3.981 -3.23,7.199 -7.199,7.199 -3.973,0 -7.199,-3.218 -7.199,-7.199 0,-3.969 3.226,-7.199 7.199,-7.199" style="fill:#231f20;fill-opacity:1;fill-rule:nonzero;stroke:none" transform="scale(0.1)" id="path127"/>
      <path d="m 0,136.797 c 3.96875,0 7.19922,3.23 7.19922,7.199 0,3.981 -3.23047,7.199 -7.19922,7.199 -3.98047,0 -7.19922,-3.218 -7.19922,-7.199 0,-3.969 3.21875,-7.199 7.19922,-7.199" style="fill:#231f20;fill-opacity:1;fill-rule:nonzero;stroke:none" transform="scale(0.1)" clip-path="url(#clipPath122)" id="path128"/>
      <path d="m 288.004,280.797 c 3.961,0 7.199,3.23 7.199,7.199 0,3.981 -3.238,7.199 -7.199,7.199 -3.981,0 -7.199,-3.218 -7.199,-7.199 0,-3.969 3.218,-7.199 7.199,-7.199" style="fill:#231f20;fill-opacity:1;fill-rule:nonzero;stroke:none" transform="scale(0.1)" clip-path="url(#clipPath122)" id="path129"/>
      <path d="m 144,280.797 c 3.969,0 7.199,3.23 7.199,7.199 0,3.981 -3.23,7.199 -7.199,7.199 -3.973,0 -7.199,-3.218 -7.199,-7.199 0,-3.969 3.226,-7.199 7.199,-7.199" style="fill:#231f20;fill-opacity:1;fill-rule:nonzero;stroke:none" transform="scale(0.1)" clip-path="url(#clipPath122)" id="path130"/>
      <path d="m 0,280.797 c 3.96875,0 7.19922,3.23 7.19922,7.199 0,3.981 -3.23047,7.199 -7.19922,7.199 -3.98047,0 -7.19922,-3.218 -7.19922,-7.199 0,-3.969 3.21875,-7.199 7.19922,-7.199" style="fill:#231f20;fill-opacity:1;fill-rule:nonzero;stroke:none" transform="scale(0.1)" clip-path="url(#clipPath122)" id="path131"/>
      <path d="m 72.0039,64.8008 c 3.9688,0 7.1992,3.2304 7.1992,7.1992 0,3.9805 -3.2304,7.1992 -7.1992,7.1992 -3.9805,0 -7.2031,-3.2187 -7.2031,-7.1992 0,-3.9688 3.2226,-7.1992 7.2031,-7.1992" style="fill:#231f20;fill-opacity:1;fill-rule:nonzero;stroke:none" transform="scale(0.1)" id="path132"/>
      <path d="m 216,64.8008 c 3.98,0 7.199,3.2304 7.199,7.1992 0,3.9805 -3.219,7.1992 -7.199,7.1992 -3.98,0 -7.199,-3.2187 -7.199,-7.1992 0,-3.9688 3.219,-7.1992 7.199,-7.1992" style="fill:#231f20;fill-opacity:1;fill-rule:nonzero;stroke:none" transform="scale(0.1)" id="path133"/>
      <path d="m 72.0039,208.801 c 3.9688,0 7.1992,3.226 7.1992,7.199 0,3.98 -3.2304,7.199 -7.1992,7.199 -3.9805,0 -7.2031,-3.219 -7.2031,-7.199 0,-3.973 3.2226,-7.199 7.2031,-7.199" style="fill:#231f20;fill-opacity:1;fill-rule:nonzero;stroke:none" transform="scale(0.1)" id="path134"/>
      <path d="m 216,208.801 c 3.98,0 7.199,3.226 7.199,7.199 0,3.98 -3.219,7.199 -7.199,7.199 -3.98,0 -7.199,-3.219 -7.199,-7.199 0,-3.973 3.219,-7.199 7.199,-7.199" style="fill:#231f20;fill-opacity:1;fill-rule:nonzero;stroke:none" transform="scale(0.1)" id="path135"/>
    </pattern>
    <clipPath clipPathUnits="userSpaceOnUse" id="clipPath150">
      <path d="M -0.78099281,-109.4709 262.45842,-109.47131 262.45827,74.373547 -0.78078314,74.373022 Z" id="path150"/>
    </clipPath>
    <clipPath clipPathUnits="userSpaceOnUse" id="clipPath151">
      <path d="m -5.2211702,-110.4577 263.2394102,-1.7e-4 -3.2e-4,183.844852 -263.2390496,-7.67e-4 z" id="path151"/>
    </clipPath>
    <clipPath clipPathUnits="userSpaceOnUse" id="clipPath152">
      <path d="M -0.78171058,-123.84809 262.45771,-123.8485 262.45756,59.996363 -0.78150091,59.995838 Z" id="path152"/>
    </clipPath>
    <clipPath clipPathUnits="userSpaceOnUse" id="clipPath157">
      <path d="m 457.948,321.42133 12.45333,-4.77866 -10.89866,-28.39334 -12.45334,4.78134 z" id="path157"/>
    </clipPath>
    <clipPath clipPathUnits="userSpaceOnUse" id="clipPath161">
      <path d="M -6.0369977,10.072 H 5.9763026 V 0.0673 H -6.0369977 Z" id="path161"/>
    </clipPath>
    <clipPath clipPathUnits="userSpaceOnUse" id="clipPath164">
      <path d="M -0.92500002,2.5619976 H 11.0891 V -7.4423027 H -0.92500002 Z" id="path164"/>
    </clipPath>
    <clipPath clipPathUnits="userSpaceOnUse" id="clipPath170">
      <path d="M -0.72500002,1.8029975 H 16.5207 V -3.6348926 H -0.72500002 Z" id="path170"/>
    </clipPath>
    <clipPath clipPathUnits="userSpaceOnUse" id="clipPath171">
      <path d="m -0.72549921,-56.767101 112.17971921,3.81e-4 4.1e-4,125.438004 -112.18054179,1.93e-4 z" id="path171"/>
    </clipPath>
    <clipPath clipPathUnits="userSpaceOnUse" id="clipPath172">
      <path d="m -3.7811337,-63.458572 112.1797237,4.72e-4 3e-4,125.438006 -112.1805373,1.02e-4 z" id="path172"/>
    </clipPath>
    <clipPath clipPathUnits="userSpaceOnUse" id="clipPath173">
      <path d="m -7.2054696,-62.721106 112.1797196,3.81e-4 4.1e-4,125.438004 -112.1805422,1.92e-4 z" id="path173"/>
    </clipPath>
    <clipPath clipPathUnits="userSpaceOnUse" id="clipPath178">
      <path d="m 565.77867,331.24 -5.94,-4.15733 -6.832,9.756 5.94,4.15866 z" id="path178"/>
    </clipPath>
    <clipPath clipPathUnits="userSpaceOnUse" id="clipPath183">
      <path d="M 4.9590001,-4.8040001 V 2.3870001 H 12.661 v -7.1910002 z" id="path183"/>
    </clipPath>
    <clipPath clipPathUnits="userSpaceOnUse" id="clipPath187">
      <path d="M 0,0 H 719.988 V 720 H 0 Z" id="path187"/>
    </clipPath>
    <pattern patternTransform="matrix(0.4704,0,0,0.4704,-21.5,15)" patternUnits="userSpaceOnUse" x="0" y="0" width="71.999" height="72" id="pattern211">
      <path d="m -74.8438,614.844 179.9888,180" style="fill:none;stroke:#231f20;stroke-opacity:1;stroke-width:3;stroke-linecap:butt;stroke-linejoin:round;stroke-miterlimit:4;stroke-dasharray:none" transform="scale(0.1)" clip-path="url(#clipPath187)" id="path188"/>
      <path d="m -74.8438,554.844 239.9888,240" style="fill:none;stroke:#231f20;stroke-opacity:1;stroke-width:3;stroke-linecap:butt;stroke-linejoin:round;stroke-miterlimit:4;stroke-dasharray:none" transform="scale(0.1)" clip-path="url(#clipPath187)" id="path189"/>
      <path d="m -74.8438,494.844 299.9888,300" style="fill:none;stroke:#231f20;stroke-opacity:1;stroke-width:3;stroke-linecap:butt;stroke-linejoin:round;stroke-miterlimit:4;stroke-dasharray:none" transform="scale(0.1)" clip-path="url(#clipPath187)" id="path190"/>
      <path d="m -74.8438,434.844 359.9888,360" style="fill:none;stroke:#231f20;stroke-opacity:1;stroke-width:3;stroke-linecap:butt;stroke-linejoin:round;stroke-miterlimit:4;stroke-dasharray:none" transform="scale(0.1)" clip-path="url(#clipPath187)" id="path191"/>
      <path d="m -74.8438,374.844 419.9888,420" style="fill:none;stroke:#231f20;stroke-opacity:1;stroke-width:3;stroke-linecap:butt;stroke-linejoin:round;stroke-miterlimit:4;stroke-dasharray:none" transform="scale(0.1)" clip-path="url(#clipPath187)" id="path192"/>
      <path d="m -74.8438,314.844 479.9888,480" style="fill:none;stroke:#231f20;stroke-opacity:1;stroke-width:3;stroke-linecap:butt;stroke-linejoin:round;stroke-miterlimit:4;stroke-dasharray:none" transform="scale(0.1)" clip-path="url(#clipPath187)" id="path193"/>
      <path d="m -74.8438,254.844 539.9888,540" style="fill:none;stroke:#231f20;stroke-opacity:1;stroke-width:3;stroke-linecap:butt;stroke-linejoin:round;stroke-miterlimit:4;stroke-dasharray:none" transform="scale(0.1)" clip-path="url(#clipPath187)" id="path194"/>
      <path d="m -74.8438,194.844 599.9888,600" style="fill:none;stroke:#231f20;stroke-opacity:1;stroke-width:3;stroke-linecap:butt;stroke-linejoin:round;stroke-miterlimit:4;stroke-dasharray:none" transform="scale(0.1)" clip-path="url(#clipPath187)" id="path195"/>
      <path d="m -74.8438,134.844 659.9888,660" style="fill:none;stroke:#231f20;stroke-opacity:1;stroke-width:3;stroke-linecap:butt;stroke-linejoin:round;stroke-miterlimit:4;stroke-dasharray:none" transform="scale(0.1)" clip-path="url(#clipPath187)" id="path196"/>
      <path d="M -74.8438,74.8438 645.145,794.844" style="fill:none;stroke:#231f20;stroke-opacity:1;stroke-width:3;stroke-linecap:butt;stroke-linejoin:round;stroke-miterlimit:4;stroke-dasharray:none" transform="scale(0.1)" clip-path="url(#clipPath187)" id="path197"/>
      <path d="M -74.8438,14.8438 705.145,794.844" style="fill:none;stroke:#231f20;stroke-opacity:1;stroke-width:3;stroke-linecap:butt;stroke-linejoin:round;stroke-miterlimit:4;stroke-dasharray:none" transform="scale(0.1)" clip-path="url(#clipPath187)" id="path198"/>
      <path d="M -74.8438,-45.1484 765.145,794.844" style="fill:none;stroke:#231f20;stroke-opacity:1;stroke-width:3;stroke-linecap:butt;stroke-linejoin:round;stroke-miterlimit:4;stroke-dasharray:none" transform="scale(0.1)" clip-path="url(#clipPath187)" id="path199"/>
      <path d="M -14.8438,-45.1484 765.145,734.844" style="fill:none;stroke:#231f20;stroke-opacity:1;stroke-width:3;stroke-linecap:butt;stroke-linejoin:round;stroke-miterlimit:4;stroke-dasharray:none" transform="scale(0.1)" clip-path="url(#clipPath187)" id="path200"/>
      <path d="M 45.1445,-45.1484 765.145,674.844" style="fill:none;stroke:#231f20;stroke-opacity:1;stroke-width:3;stroke-linecap:butt;stroke-linejoin:round;stroke-miterlimit:4;stroke-dasharray:none" transform="scale(0.1)" clip-path="url(#clipPath187)" id="path201"/>
      <path d="m 105.145,-45.1484 660,659.9924" style="fill:none;stroke:#231f20;stroke-opacity:1;stroke-width:3;stroke-linecap:butt;stroke-linejoin:round;stroke-miterlimit:4;stroke-dasharray:none" transform="scale(0.1)" clip-path="url(#clipPath187)" id="path202"/>
      <path d="m 165.145,-45.1484 600,599.9924" style="fill:none;stroke:#231f20;stroke-opacity:1;stroke-width:3;stroke-linecap:butt;stroke-linejoin:round;stroke-miterlimit:4;stroke-dasharray:none" transform="scale(0.1)" clip-path="url(#clipPath187)" id="path203"/>
      <path d="m 225.145,-45.1484 540,539.9924" style="fill:none;stroke:#231f20;stroke-opacity:1;stroke-width:3;stroke-linecap:butt;stroke-linejoin:round;stroke-miterlimit:4;stroke-dasharray:none" transform="scale(0.1)" clip-path="url(#clipPath187)" id="path204"/>
      <path d="m 285.145,-45.1484 480,479.9924" style="fill:none;stroke:#231f20;stroke-opacity:1;stroke-width:3;stroke-linecap:butt;stroke-linejoin:round;stroke-miterlimit:4;stroke-dasharray:none" transform="scale(0.1)" clip-path="url(#clipPath187)" id="path205"/>
      <path d="m 345.145,-45.1484 420,419.9924" style="fill:none;stroke:#231f20;stroke-opacity:1;stroke-width:3;stroke-linecap:butt;stroke-linejoin:round;stroke-miterlimit:4;stroke-dasharray:none" transform="scale(0.1)" clip-path="url(#clipPath187)" id="path206"/>
      <path d="m 405.145,-45.1484 360,359.9924" style="fill:none;stroke:#231f20;stroke-opacity:1;stroke-width:3;stroke-linecap:butt;stroke-linejoin:round;stroke-miterlimit:4;stroke-dasharray:none" transform="scale(0.1)" clip-path="url(#clipPath187)" id="path207"/>
      <path d="m 465.145,-45.1484 300,299.9924" style="fill:none;stroke:#231f20;stroke-opacity:1;stroke-width:3;stroke-linecap:butt;stroke-linejoin:round;stroke-miterlimit:4;stroke-dasharray:none" transform="scale(0.1)" clip-path="url(#clipPath187)" id="path208"/>
      <path d="m 525.145,-45.1484 240,239.9924" style="fill:none;stroke:#231f20;stroke-opacity:1;stroke-width:3;stroke-linecap:butt;stroke-linejoin:round;stroke-miterlimit:4;stroke-dasharray:none" transform="scale(0.1)" clip-path="url(#clipPath187)" id="path209"/>
      <path d="m 585.145,-45.1484 180,179.9924" style="fill:none;stroke:#231f20;stroke-opacity:1;stroke-width:3;stroke-linecap:butt;stroke-linejoin:round;stroke-miterlimit:4;stroke-dasharray:none" transform="scale(0.1)" clip-path="url(#clipPath187)" id="path210"/>
      <path d="m 645.145,-45.1484 120,119.9922" style="fill:none;stroke:#231f20;stroke-opacity:1;stroke-width:3;stroke-linecap:butt;stroke-linejoin:round;stroke-miterlimit:4;stroke-dasharray:none" transform="scale(0.1)" clip-path="url(#clipPath187)" id="path211"/>
    </pattern>
    <clipPath clipPathUnits="userSpaceOnUse" id="clipPath215">
      <path d="M 0,0 H 288 V 287.996 H 0 Z" id="path215"/>
    </clipPath>
    <pattern patternTransform="matrix(0.4704,0,0,0.4704,-8,8.2)" patternUnits="userSpaceOnUse" x="0" y="0" width="28.8003" height="28.7998" id="pattern228">
      <path d="m 288.004,-7.20312 c 3.961,0 7.199,3.23046 7.199,7.19921375 0,3.98046625 -3.238,7.20312625 -7.199,7.20312625 -3.981,0 -7.199,-3.22266 -7.199,-7.20312625 0,-3.96875375 3.218,-7.19921375 7.199,-7.19921375" style="fill:#231f20;fill-opacity:1;fill-rule:nonzero;stroke:none" transform="scale(0.1)" clip-path="url(#clipPath215)" id="path216"/>
      <path d="m 144,-7.20312 c 3.969,0 7.199,3.23046 7.199,7.19921375 0,3.98046625 -3.23,7.20312625 -7.199,7.20312625 -3.973,0 -7.199,-3.22266 -7.199,-7.20312625 C 136.801,-3.97266 140.027,-7.20312 144,-7.20312" style="fill:#231f20;fill-opacity:1;fill-rule:nonzero;stroke:none" transform="scale(0.1)" clip-path="url(#clipPath215)" id="path217"/>
      <path d="m 0,-7.20312 c 3.96875,0 7.19922,3.23046 7.19922,7.19921375 C 7.19922,3.97656 3.96875,7.19922 0,7.19922 c -3.98047,0 -7.19922,-3.22266 -7.19922,-7.20312625 C -7.19922,-3.97266 -3.98047,-7.20312 0,-7.20312" style="fill:#231f20;fill-opacity:1;fill-rule:nonzero;stroke:none" transform="scale(0.1)" clip-path="url(#clipPath215)" id="path218"/>
      <path d="m 288.004,136.797 c 3.961,0 7.199,3.23 7.199,7.199 0,3.981 -3.238,7.199 -7.199,7.199 -3.981,0 -7.199,-3.218 -7.199,-7.199 0,-3.969 3.218,-7.199 7.199,-7.199" style="fill:#231f20;fill-opacity:1;fill-rule:nonzero;stroke:none" transform="scale(0.1)" clip-path="url(#clipPath215)" id="path219"/>
      <path d="m 144,136.797 c 3.969,0 7.199,3.23 7.199,7.199 0,3.981 -3.23,7.199 -7.199,7.199 -3.973,0 -7.199,-3.218 -7.199,-7.199 0,-3.969 3.226,-7.199 7.199,-7.199" style="fill:#231f20;fill-opacity:1;fill-rule:nonzero;stroke:none" transform="scale(0.1)" id="path220"/>
      <path d="m 0,136.797 c 3.96875,0 7.19922,3.23 7.19922,7.199 0,3.981 -3.23047,7.199 -7.19922,7.199 -3.98047,0 -7.19922,-3.218 -7.19922,-7.199 0,-3.969 3.21875,-7.199 7.19922,-7.199" style="fill:#231f20;fill-opacity:1;fill-rule:nonzero;stroke:none" transform="scale(0.1)" clip-path="url(#clipPath215)" id="path221"/>
      <path d="m 288.004,280.797 c 3.961,0 7.199,3.23 7.199,7.199 0,3.981 -3.238,7.199 -7.199,7.199 -3.981,0 -7.199,-3.218 -7.199,-7.199 0,-3.969 3.218,-7.199 7.199,-7.199" style="fill:#231f20;fill-opacity:1;fill-rule:nonzero;stroke:none" transform="scale(0.1)" clip-path="url(#clipPath215)" id="path222"/>
      <path d="m 144,280.797 c 3.969,0 7.199,3.23 7.199,7.199 0,3.981 -3.23,7.199 -7.199,7.199 -3.973,0 -7.199,-3.218 -7.199,-7.199 0,-3.969 3.226,-7.199 7.199,-7.199" style="fill:#231f20;fill-opacity:1;fill-rule:nonzero;stroke:none" transform="scale(0.1)" clip-path="url(#clipPath215)" id="path223"/>
      <path d="m 0,280.797 c 3.96875,0 7.19922,3.23 7.19922,7.199 0,3.981 -3.23047,7.199 -7.19922,7.199 -3.98047,0 -7.19922,-3.218 -7.19922,-7.199 0,-3.969 3.21875,-7.199 7.19922,-7.199" style="fill:#231f20;fill-opacity:1;fill-rule:nonzero;stroke:none" transform="scale(0.1)" clip-path="url(#clipPath215)" id="path224"/>
      <path d="m 72.0039,64.8008 c 3.9688,0 7.1992,3.2304 7.1992,7.1992 0,3.9805 -3.2304,7.1992 -7.1992,7.1992 -3.9805,0 -7.2031,-3.2187 -7.2031,-7.1992 0,-3.9688 3.2226,-7.1992 7.2031,-7.1992" style="fill:#231f20;fill-opacity:1;fill-rule:nonzero;stroke:none" transform="scale(0.1)" id="path225"/>
      <path d="m 216,64.8008 c 3.98,0 7.199,3.2304 7.199,7.1992 0,3.9805 -3.219,7.1992 -7.199,7.1992 -3.98,0 -7.199,-3.2187 -7.199,-7.1992 0,-3.9688 3.219,-7.1992 7.199,-7.1992" style="fill:#231f20;fill-opacity:1;fill-rule:nonzero;stroke:none" transform="scale(0.1)" id="path226"/>
      <path d="m 72.0039,208.801 c 3.9688,0 7.1992,3.226 7.1992,7.199 0,3.98 -3.2304,7.199 -7.1992,7.199 -3.9805,0 -7.2031,-3.219 -7.2031,-7.199 0,-3.973 3.2226,-7.199 7.2031,-7.199" style="fill:#231f20;fill-opacity:1;fill-rule:nonzero;stroke:none" transform="scale(0.1)" id="path227"/>
      <path d="m 216,208.801 c 3.98,0 7.199,3.226 7.199,7.199 0,3.98 -3.219,7.199 -7.199,7.199 -3.98,0 -7.199,-3.219 -7.199,-7.199 0,-3.973 3.219,-7.199 7.199,-7.199" style="fill:#231f20;fill-opacity:1;fill-rule:nonzero;stroke:none" transform="scale(0.1)" id="path228"/>
    </pattern>
    <clipPath clipPathUnits="userSpaceOnUse" id="clipPath245">
      <path d="M -6.0370027,10.073 H 5.9766976 V 0.0683 H -6.0370027 Z" id="path245"/>
    </clipPath>
    <clipPath clipPathUnits="userSpaceOnUse" id="clipPath248">
      <path d="M -0.92499752,2.5619976 H 11.089103 V -7.4427027 H -0.92499752 Z" id="path248"/>
    </clipPath>
    <clipPath clipPathUnits="userSpaceOnUse" id="clipPath254">
      <path d="M -0.95799752,1.7919975 H 23.945103 V -5.3994126 H -0.95799752 Z" id="path254"/>
    </clipPath>
    <clipPath clipPathUnits="userSpaceOnUse" id="clipPath260">
      <path d="M -0.96000252,1.844 H 23.943898 V -4.8435001 H -0.96000252 Z" id="path260"/>
    </clipPath>
    <clipPath clipPathUnits="userSpaceOnUse" id="clipPath263">
      <path d="M 0,0 H 719.988 V 720 H 0 Z" id="path263"/>
    </clipPath>
    <pattern patternTransform="matrix(0.469404,0,0,0.469404,-30.3,15.8)" patternUnits="userSpaceOnUse" x="0" y="0" width="71.999" height="72" id="pattern287">
      <path d="m -74.8438,614.844 179.9888,180" style="fill:none;stroke:#231f20;stroke-opacity:1;stroke-width:3;stroke-linecap:butt;stroke-linejoin:round;stroke-miterlimit:4;stroke-dasharray:none" transform="scale(0.1)" clip-path="url(#clipPath263)" id="path264"/>
      <path d="m -74.8438,554.844 239.9888,240" style="fill:none;stroke:#231f20;stroke-opacity:1;stroke-width:3;stroke-linecap:butt;stroke-linejoin:round;stroke-miterlimit:4;stroke-dasharray:none" transform="scale(0.1)" clip-path="url(#clipPath263)" id="path265"/>
      <path d="m -74.8438,494.844 299.9888,300" style="fill:none;stroke:#231f20;stroke-opacity:1;stroke-width:3;stroke-linecap:butt;stroke-linejoin:round;stroke-miterlimit:4;stroke-dasharray:none" transform="scale(0.1)" clip-path="url(#clipPath263)" id="path266"/>
      <path d="m -74.8438,434.844 359.9888,360" style="fill:none;stroke:#231f20;stroke-opacity:1;stroke-width:3;stroke-linecap:butt;stroke-linejoin:round;stroke-miterlimit:4;stroke-dasharray:none" transform="scale(0.1)" clip-path="url(#clipPath263)" id="path267"/>
      <path d="m -74.8438,374.844 419.9888,420" style="fill:none;stroke:#231f20;stroke-opacity:1;stroke-width:3;stroke-linecap:butt;stroke-linejoin:round;stroke-miterlimit:4;stroke-dasharray:none" transform="scale(0.1)" clip-path="url(#clipPath263)" id="path268"/>
      <path d="m -74.8438,314.844 479.9888,480" style="fill:none;stroke:#231f20;stroke-opacity:1;stroke-width:3;stroke-linecap:butt;stroke-linejoin:round;stroke-miterlimit:4;stroke-dasharray:none" transform="scale(0.1)" clip-path="url(#clipPath263)" id="path269"/>
      <path d="m -74.8438,254.844 539.9888,540" style="fill:none;stroke:#231f20;stroke-opacity:1;stroke-width:3;stroke-linecap:butt;stroke-linejoin:round;stroke-miterlimit:4;stroke-dasharray:none" transform="scale(0.1)" clip-path="url(#clipPath263)" id="path270"/>
      <path d="m -74.8438,194.844 599.9888,600" style="fill:none;stroke:#231f20;stroke-opacity:1;stroke-width:3;stroke-linecap:butt;stroke-linejoin:round;stroke-miterlimit:4;stroke-dasharray:none" transform="scale(0.1)" clip-path="url(#clipPath263)" id="path271"/>
      <path d="m -74.8438,134.844 659.9888,660" style="fill:none;stroke:#231f20;stroke-opacity:1;stroke-width:3;stroke-linecap:butt;stroke-linejoin:round;stroke-miterlimit:4;stroke-dasharray:none" transform="scale(0.1)" clip-path="url(#clipPath263)" id="path272"/>
      <path d="M -74.8438,74.8438 645.145,794.844" style="fill:none;stroke:#231f20;stroke-opacity:1;stroke-width:3;stroke-linecap:butt;stroke-linejoin:round;stroke-miterlimit:4;stroke-dasharray:none" transform="scale(0.1)" clip-path="url(#clipPath263)" id="path273"/>
      <path d="M -74.8438,14.8438 705.145,794.844" style="fill:none;stroke:#231f20;stroke-opacity:1;stroke-width:3;stroke-linecap:butt;stroke-linejoin:round;stroke-miterlimit:4;stroke-dasharray:none" transform="scale(0.1)" clip-path="url(#clipPath263)" id="path274"/>
      <path d="M -74.8438,-45.1484 765.145,794.844" style="fill:none;stroke:#231f20;stroke-opacity:1;stroke-width:3;stroke-linecap:butt;stroke-linejoin:round;stroke-miterlimit:4;stroke-dasharray:none" transform="scale(0.1)" clip-path="url(#clipPath263)" id="path275"/>
      <path d="M -14.8438,-45.1484 765.145,734.844" style="fill:none;stroke:#231f20;stroke-opacity:1;stroke-width:3;stroke-linecap:butt;stroke-linejoin:round;stroke-miterlimit:4;stroke-dasharray:none" transform="scale(0.1)" clip-path="url(#clipPath263)" id="path276"/>
      <path d="M 45.1445,-45.1484 765.145,674.844" style="fill:none;stroke:#231f20;stroke-opacity:1;stroke-width:3;stroke-linecap:butt;stroke-linejoin:round;stroke-miterlimit:4;stroke-dasharray:none" transform="scale(0.1)" clip-path="url(#clipPath263)" id="path277"/>
      <path d="m 105.145,-45.1484 660,659.9924" style="fill:none;stroke:#231f20;stroke-opacity:1;stroke-width:3;stroke-linecap:butt;stroke-linejoin:round;stroke-miterlimit:4;stroke-dasharray:none" transform="scale(0.1)" clip-path="url(#clipPath263)" id="path278"/>
      <path d="m 165.145,-45.1484 600,599.9924" style="fill:none;stroke:#231f20;stroke-opacity:1;stroke-width:3;stroke-linecap:butt;stroke-linejoin:round;stroke-miterlimit:4;stroke-dasharray:none" transform="scale(0.1)" clip-path="url(#clipPath263)" id="path279"/>
      <path d="m 225.145,-45.1484 540,539.9924" style="fill:none;stroke:#231f20;stroke-opacity:1;stroke-width:3;stroke-linecap:butt;stroke-linejoin:round;stroke-miterlimit:4;stroke-dasharray:none" transform="scale(0.1)" clip-path="url(#clipPath263)" id="path280"/>
      <path d="m 285.145,-45.1484 480,479.9924" style="fill:none;stroke:#231f20;stroke-opacity:1;stroke-width:3;stroke-linecap:butt;stroke-linejoin:round;stroke-miterlimit:4;stroke-dasharray:none" transform="scale(0.1)" clip-path="url(#clipPath263)" id="path281"/>
      <path d="m 345.145,-45.1484 420,419.9924" style="fill:none;stroke:#231f20;stroke-opacity:1;stroke-width:3;stroke-linecap:butt;stroke-linejoin:round;stroke-miterlimit:4;stroke-dasharray:none" transform="scale(0.1)" clip-path="url(#clipPath263)" id="path282"/>
      <path d="m 405.145,-45.1484 360,359.9924" style="fill:none;stroke:#231f20;stroke-opacity:1;stroke-width:3;stroke-linecap:butt;stroke-linejoin:round;stroke-miterlimit:4;stroke-dasharray:none" transform="scale(0.1)" clip-path="url(#clipPath263)" id="path283"/>
      <path d="m 465.145,-45.1484 300,299.9924" style="fill:none;stroke:#231f20;stroke-opacity:1;stroke-width:3;stroke-linecap:butt;stroke-linejoin:round;stroke-miterlimit:4;stroke-dasharray:none" transform="scale(0.1)" clip-path="url(#clipPath263)" id="path284"/>
      <path d="m 525.145,-45.1484 240,239.9924" style="fill:none;stroke:#231f20;stroke-opacity:1;stroke-width:3;stroke-linecap:butt;stroke-linejoin:round;stroke-miterlimit:4;stroke-dasharray:none" transform="scale(0.1)" clip-path="url(#clipPath263)" id="path285"/>
      <path d="m 585.145,-45.1484 180,179.9924" style="fill:none;stroke:#231f20;stroke-opacity:1;stroke-width:3;stroke-linecap:butt;stroke-linejoin:round;stroke-miterlimit:4;stroke-dasharray:none" transform="scale(0.1)" clip-path="url(#clipPath263)" id="path286"/>
      <path d="m 645.145,-45.1484 120,119.9922" style="fill:none;stroke:#231f20;stroke-opacity:1;stroke-width:3;stroke-linecap:butt;stroke-linejoin:round;stroke-miterlimit:4;stroke-dasharray:none" transform="scale(0.1)" clip-path="url(#clipPath263)" id="path287"/>
    </pattern>
    <clipPath clipPathUnits="userSpaceOnUse" id="clipPath289">
      <path d="M 0,0 H 288 V 287.996 H 0 Z" id="path289"/>
    </clipPath>
    <pattern patternTransform="matrix(0.469404,0,0,0.469404,-3.2,9)" patternUnits="userSpaceOnUse" x="0" y="0" width="28.8003" height="28.7998" id="pattern302">
      <path d="m 288.004,-7.20312 c 3.961,0 7.199,3.23046 7.199,7.19921375 0,3.98046625 -3.238,7.20312625 -7.199,7.20312625 -3.981,0 -7.199,-3.22266 -7.199,-7.20312625 0,-3.96875375 3.218,-7.19921375 7.199,-7.19921375" style="fill:#231f20;fill-opacity:1;fill-rule:nonzero;stroke:none" transform="scale(0.1)" clip-path="url(#clipPath289)" id="path290"/>
      <path d="m 144,-7.20312 c 3.969,0 7.199,3.23046 7.199,7.19921375 0,3.98046625 -3.23,7.20312625 -7.199,7.20312625 -3.973,0 -7.199,-3.22266 -7.199,-7.20312625 C 136.801,-3.97266 140.027,-7.20312 144,-7.20312" style="fill:#231f20;fill-opacity:1;fill-rule:nonzero;stroke:none" transform="scale(0.1)" clip-path="url(#clipPath289)" id="path291"/>
      <path d="m 0,-7.20312 c 3.96875,0 7.19922,3.23046 7.19922,7.19921375 C 7.19922,3.97656 3.96875,7.19922 0,7.19922 c -3.98047,0 -7.19922,-3.22266 -7.19922,-7.20312625 C -7.19922,-3.97266 -3.98047,-7.20312 0,-7.20312" style="fill:#231f20;fill-opacity:1;fill-rule:nonzero;stroke:none" transform="scale(0.1)" clip-path="url(#clipPath289)" id="path292"/>
      <path d="m 288.004,136.797 c 3.961,0 7.199,3.23 7.199,7.199 0,3.981 -3.238,7.199 -7.199,7.199 -3.981,0 -7.199,-3.218 -7.199,-7.199 0,-3.969 3.218,-7.199 7.199,-7.199" style="fill:#231f20;fill-opacity:1;fill-rule:nonzero;stroke:none" transform="scale(0.1)" clip-path="url(#clipPath289)" id="path293"/>
      <path d="m 144,136.797 c 3.969,0 7.199,3.23 7.199,7.199 0,3.981 -3.23,7.199 -7.199,7.199 -3.973,0 -7.199,-3.218 -7.199,-7.199 0,-3.969 3.226,-7.199 7.199,-7.199" style="fill:#231f20;fill-opacity:1;fill-rule:nonzero;stroke:none" transform="scale(0.1)" id="path294"/>
      <path d="m 0,136.797 c 3.96875,0 7.19922,3.23 7.19922,7.199 0,3.981 -3.23047,7.199 -7.19922,7.199 -3.98047,0 -7.19922,-3.218 -7.19922,-7.199 0,-3.969 3.21875,-7.199 7.19922,-7.199" style="fill:#231f20;fill-opacity:1;fill-rule:nonzero;stroke:none" transform="scale(0.1)" clip-path="url(#clipPath289)" id="path295"/>
      <path d="m 288.004,280.797 c 3.961,0 7.199,3.23 7.199,7.199 0,3.981 -3.238,7.199 -7.199,7.199 -3.981,0 -7.199,-3.218 -7.199,-7.199 0,-3.969 3.218,-7.199 7.199,-7.199" style="fill:#231f20;fill-opacity:1;fill-rule:nonzero;stroke:none" transform="scale(0.1)" clip-path="url(#clipPath289)" id="path296"/>
      <path d="m 144,280.797 c 3.969,0 7.199,3.23 7.199,7.199 0,3.981 -3.23,7.199 -7.199,7.199 -3.973,0 -7.199,-3.218 -7.199,-7.199 0,-3.969 3.226,-7.199 7.199,-7.199" style="fill:#231f20;fill-opacity:1;fill-rule:nonzero;stroke:none" transform="scale(0.1)" clip-path="url(#clipPath289)" id="path297"/>
      <path d="m 0,280.797 c 3.96875,0 7.19922,3.23 7.19922,7.199 0,3.981 -3.23047,7.199 -7.19922,7.199 -3.98047,0 -7.19922,-3.218 -7.19922,-7.199 0,-3.969 3.21875,-7.199 7.19922,-7.199" style="fill:#231f20;fill-opacity:1;fill-rule:nonzero;stroke:none" transform="scale(0.1)" clip-path="url(#clipPath289)" id="path298"/>
      <path d="m 72.0039,64.8008 c 3.9688,0 7.1992,3.2304 7.1992,7.1992 0,3.9805 -3.2304,7.1992 -7.1992,7.1992 -3.9805,0 -7.2031,-3.2187 -7.2031,-7.1992 0,-3.9688 3.2226,-7.1992 7.2031,-7.1992" style="fill:#231f20;fill-opacity:1;fill-rule:nonzero;stroke:none" transform="scale(0.1)" id="path299"/>
      <path d="m 216,64.8008 c 3.98,0 7.199,3.2304 7.199,7.1992 0,3.9805 -3.219,7.1992 -7.199,7.1992 -3.98,0 -7.199,-3.2187 -7.199,-7.1992 0,-3.9688 3.219,-7.1992 7.199,-7.1992" style="fill:#231f20;fill-opacity:1;fill-rule:nonzero;stroke:none" transform="scale(0.1)" id="path300"/>
      <path d="m 72.0039,208.801 c 3.9688,0 7.1992,3.226 7.1992,7.199 0,3.98 -3.2304,7.199 -7.1992,7.199 -3.9805,0 -7.2031,-3.219 -7.2031,-7.199 0,-3.973 3.2226,-7.199 7.2031,-7.199" style="fill:#231f20;fill-opacity:1;fill-rule:nonzero;stroke:none" transform="scale(0.1)" id="path301"/>
      <path d="m 216,208.801 c 3.98,0 7.199,3.226 7.199,7.199 0,3.98 -3.219,7.199 -7.199,7.199 -3.98,0 -7.199,-3.219 -7.199,-7.199 0,-3.973 3.219,-7.199 7.199,-7.199" style="fill:#231f20;fill-opacity:1;fill-rule:nonzero;stroke:none" transform="scale(0.1)" id="path302"/>
    </pattern>
    <clipPath clipPathUnits="userSpaceOnUse" id="clipPath304">
      <path d="M 0,0 H 288 V 287.996 H 0 Z" id="path304"/>
    </clipPath>
    <pattern patternTransform="matrix(0.469404,0,0,0.469404,-3.2,9)" patternUnits="userSpaceOnUse" x="0" y="0" width="28.8003" height="28.7998" id="pattern317">
      <path d="m 288.004,-7.20312 c 3.961,0 7.199,3.23046 7.199,7.19921375 0,3.98046625 -3.238,7.20312625 -7.199,7.20312625 -3.981,0 -7.199,-3.22266 -7.199,-7.20312625 0,-3.96875375 3.218,-7.19921375 7.199,-7.19921375" style="fill:#231f20;fill-opacity:1;fill-rule:nonzero;stroke:none" transform="scale(0.1)" clip-path="url(#clipPath304)" id="path305"/>
      <path d="m 144,-7.20312 c 3.969,0 7.199,3.23046 7.199,7.19921375 0,3.98046625 -3.23,7.20312625 -7.199,7.20312625 -3.973,0 -7.199,-3.22266 -7.199,-7.20312625 C 136.801,-3.97266 140.027,-7.20312 144,-7.20312" style="fill:#231f20;fill-opacity:1;fill-rule:nonzero;stroke:none" transform="scale(0.1)" clip-path="url(#clipPath304)" id="path306"/>
      <path d="m 0,-7.20312 c 3.96875,0 7.19922,3.23046 7.19922,7.19921375 C 7.19922,3.97656 3.96875,7.19922 0,7.19922 c -3.98047,0 -7.19922,-3.22266 -7.19922,-7.20312625 C -7.19922,-3.97266 -3.98047,-7.20312 0,-7.20312" style="fill:#231f20;fill-opacity:1;fill-rule:nonzero;stroke:none" transform="scale(0.1)" clip-path="url(#clipPath304)" id="path307"/>
      <path d="m 288.004,136.797 c 3.961,0 7.199,3.23 7.199,7.199 0,3.981 -3.238,7.199 -7.199,7.199 -3.981,0 -7.199,-3.218 -7.199,-7.199 0,-3.969 3.218,-7.199 7.199,-7.199" style="fill:#231f20;fill-opacity:1;fill-rule:nonzero;stroke:none" transform="scale(0.1)" clip-path="url(#clipPath304)" id="path308"/>
      <path d="m 144,136.797 c 3.969,0 7.199,3.23 7.199,7.199 0,3.981 -3.23,7.199 -7.199,7.199 -3.973,0 -7.199,-3.218 -7.199,-7.199 0,-3.969 3.226,-7.199 7.199,-7.199" style="fill:#231f20;fill-opacity:1;fill-rule:nonzero;stroke:none" transform="scale(0.1)" id="path309"/>
      <path d="m 0,136.797 c 3.96875,0 7.19922,3.23 7.19922,7.199 0,3.981 -3.23047,7.199 -7.19922,7.199 -3.98047,0 -7.19922,-3.218 -7.19922,-7.199 0,-3.969 3.21875,-7.199 7.19922,-7.199" style="fill:#231f20;fill-opacity:1;fill-rule:nonzero;stroke:none" transform="scale(0.1)" clip-path="url(#clipPath304)" id="path310"/>
      <path d="m 288.004,280.797 c 3.961,0 7.199,3.23 7.199,7.199 0,3.981 -3.238,7.199 -7.199,7.199 -3.981,0 -7.199,-3.218 -7.199,-7.199 0,-3.969 3.218,-7.199 7.199,-7.199" style="fill:#231f20;fill-opacity:1;fill-rule:nonzero;stroke:none" transform="scale(0.1)" clip-path="url(#clipPath304)" id="path311"/>
      <path d="m 144,280.797 c 3.969,0 7.199,3.23 7.199,7.199 0,3.981 -3.23,7.199 -7.199,7.199 -3.973,0 -7.199,-3.218 -7.199,-7.199 0,-3.969 3.226,-7.199 7.199,-7.199" style="fill:#231f20;fill-opacity:1;fill-rule:nonzero;stroke:none" transform="scale(0.1)" clip-path="url(#clipPath304)" id="path312"/>
      <path d="m 0,280.797 c 3.96875,0 7.19922,3.23 7.19922,7.199 0,3.981 -3.23047,7.199 -7.19922,7.199 -3.98047,0 -7.19922,-3.218 -7.19922,-7.199 0,-3.969 3.21875,-7.199 7.19922,-7.199" style="fill:#231f20;fill-opacity:1;fill-rule:nonzero;stroke:none" transform="scale(0.1)" clip-path="url(#clipPath304)" id="path313"/>
      <path d="m 72.0039,64.8008 c 3.9688,0 7.1992,3.2304 7.1992,7.1992 0,3.9805 -3.2304,7.1992 -7.1992,7.1992 -3.9805,0 -7.2031,-3.2187 -7.2031,-7.1992 0,-3.9688 3.2226,-7.1992 7.2031,-7.1992" style="fill:#231f20;fill-opacity:1;fill-rule:nonzero;stroke:none" transform="scale(0.1)" id="path314"/>
      <path d="m 216,64.8008 c 3.98,0 7.199,3.2304 7.199,7.1992 0,3.9805 -3.219,7.1992 -7.199,7.1992 -3.98,0 -7.199,-3.2187 -7.199,-7.1992 0,-3.9688 3.219,-7.1992 7.199,-7.1992" style="fill:#231f20;fill-opacity:1;fill-rule:nonzero;stroke:none" transform="scale(0.1)" id="path315"/>
      <path d="m 72.0039,208.801 c 3.9688,0 7.1992,3.226 7.1992,7.199 0,3.98 -3.2304,7.199 -7.1992,7.199 -3.9805,0 -7.2031,-3.219 -7.2031,-7.199 0,-3.973 3.2226,-7.199 7.2031,-7.199" style="fill:#231f20;fill-opacity:1;fill-rule:nonzero;stroke:none" transform="scale(0.1)" id="path316"/>
      <path d="m 216,208.801 c 3.98,0 7.199,3.226 7.199,7.199 0,3.98 -3.219,7.199 -7.199,7.199 -3.98,0 -7.199,-3.219 -7.199,-7.199 0,-3.973 3.219,-7.199 7.199,-7.199" style="fill:#231f20;fill-opacity:1;fill-rule:nonzero;stroke:none" transform="scale(0.1)" id="path317"/>
    </pattern>
    <clipPath clipPathUnits="userSpaceOnUse" id="clipPath320">
      <path d="M 0,0 H 288 V 287.996 H 0 Z" id="path320"/>
    </clipPath>
    <pattern patternTransform="matrix(0.469404,0,0,0.469404,-3.2,9)" patternUnits="userSpaceOnUse" x="0" y="0" width="28.8003" height="28.7998" id="pattern333">
      <path d="m 288.004,-7.20312 c 3.961,0 7.199,3.23046 7.199,7.19921375 0,3.98046625 -3.238,7.20312625 -7.199,7.20312625 -3.981,0 -7.199,-3.22266 -7.199,-7.20312625 0,-3.96875375 3.218,-7.19921375 7.199,-7.19921375" style="fill:#231f20;fill-opacity:1;fill-rule:nonzero;stroke:none" transform="scale(0.1)" clip-path="url(#clipPath320)" id="path321"/>
      <path d="m 144,-7.20312 c 3.969,0 7.199,3.23046 7.199,7.19921375 0,3.98046625 -3.23,7.20312625 -7.199,7.20312625 -3.973,0 -7.199,-3.22266 -7.199,-7.20312625 C 136.801,-3.97266 140.027,-7.20312 144,-7.20312" style="fill:#231f20;fill-opacity:1;fill-rule:nonzero;stroke:none" transform="scale(0.1)" clip-path="url(#clipPath320)" id="path322"/>
      <path d="m 0,-7.20312 c 3.96875,0 7.19922,3.23046 7.19922,7.19921375 C 7.19922,3.97656 3.96875,7.19922 0,7.19922 c -3.98047,0 -7.19922,-3.22266 -7.19922,-7.20312625 C -7.19922,-3.97266 -3.98047,-7.20312 0,-7.20312" style="fill:#231f20;fill-opacity:1;fill-rule:nonzero;stroke:none" transform="scale(0.1)" clip-path="url(#clipPath320)" id="path323"/>
      <path d="m 288.004,136.797 c 3.961,0 7.199,3.23 7.199,7.199 0,3.981 -3.238,7.199 -7.199,7.199 -3.981,0 -7.199,-3.218 -7.199,-7.199 0,-3.969 3.218,-7.199 7.199,-7.199" style="fill:#231f20;fill-opacity:1;fill-rule:nonzero;stroke:none" transform="scale(0.1)" clip-path="url(#clipPath320)" id="path324"/>
      <path d="m 144,136.797 c 3.969,0 7.199,3.23 7.199,7.199 0,3.981 -3.23,7.199 -7.199,7.199 -3.973,0 -7.199,-3.218 -7.199,-7.199 0,-3.969 3.226,-7.199 7.199,-7.199" style="fill:#231f20;fill-opacity:1;fill-rule:nonzero;stroke:none" transform="scale(0.1)" id="path325"/>
      <path d="m 0,136.797 c 3.96875,0 7.19922,3.23 7.19922,7.199 0,3.981 -3.23047,7.199 -7.19922,7.199 -3.98047,0 -7.19922,-3.218 -7.19922,-7.199 0,-3.969 3.21875,-7.199 7.19922,-7.199" style="fill:#231f20;fill-opacity:1;fill-rule:nonzero;stroke:none" transform="scale(0.1)" clip-path="url(#clipPath320)" id="path326"/>
      <path d="m 288.004,280.797 c 3.961,0 7.199,3.23 7.199,7.199 0,3.981 -3.238,7.199 -7.199,7.199 -3.981,0 -7.199,-3.218 -7.199,-7.199 0,-3.969 3.218,-7.199 7.199,-7.199" style="fill:#231f20;fill-opacity:1;fill-rule:nonzero;stroke:none" transform="scale(0.1)" clip-path="url(#clipPath320)" id="path327"/>
      <path d="m 144,280.797 c 3.969,0 7.199,3.23 7.199,7.199 0,3.981 -3.23,7.199 -7.199,7.199 -3.973,0 -7.199,-3.218 -7.199,-7.199 0,-3.969 3.226,-7.199 7.199,-7.199" style="fill:#231f20;fill-opacity:1;fill-rule:nonzero;stroke:none" transform="scale(0.1)" clip-path="url(#clipPath320)" id="path328"/>
      <path d="m 0,280.797 c 3.96875,0 7.19922,3.23 7.19922,7.199 0,3.981 -3.23047,7.199 -7.19922,7.199 -3.98047,0 -7.19922,-3.218 -7.19922,-7.199 0,-3.969 3.21875,-7.199 7.19922,-7.199" style="fill:#231f20;fill-opacity:1;fill-rule:nonzero;stroke:none" transform="scale(0.1)" clip-path="url(#clipPath320)" id="path329"/>
      <path d="m 72.0039,64.8008 c 3.9688,0 7.1992,3.2304 7.1992,7.1992 0,3.9805 -3.2304,7.1992 -7.1992,7.1992 -3.9805,0 -7.2031,-3.2187 -7.2031,-7.1992 0,-3.9688 3.2226,-7.1992 7.2031,-7.1992" style="fill:#231f20;fill-opacity:1;fill-rule:nonzero;stroke:none" transform="scale(0.1)" id="path330"/>
      <path d="m 216,64.8008 c 3.98,0 7.199,3.2304 7.199,7.1992 0,3.9805 -3.219,7.1992 -7.199,7.1992 -3.98,0 -7.199,-3.2187 -7.199,-7.1992 0,-3.9688 3.219,-7.1992 7.199,-7.1992" style="fill:#231f20;fill-opacity:1;fill-rule:nonzero;stroke:none" transform="scale(0.1)" id="path331"/>
      <path d="m 72.0039,208.801 c 3.9688,0 7.1992,3.226 7.1992,7.199 0,3.98 -3.2304,7.199 -7.1992,7.199 -3.9805,0 -7.2031,-3.219 -7.2031,-7.199 0,-3.973 3.2226,-7.199 7.2031,-7.199" style="fill:#231f20;fill-opacity:1;fill-rule:nonzero;stroke:none" transform="scale(0.1)" id="path332"/>
      <path d="m 216,208.801 c 3.98,0 7.199,3.226 7.199,7.199 0,3.98 -3.219,7.199 -7.199,7.199 -3.98,0 -7.199,-3.219 -7.199,-7.199 0,-3.973 3.219,-7.199 7.199,-7.199" style="fill:#231f20;fill-opacity:1;fill-rule:nonzero;stroke:none" transform="scale(0.1)" id="path333"/>
    </pattern>
    <clipPath clipPathUnits="userSpaceOnUse" id="clipPath335">
      <path d="M 0,0 H 288 V 287.996 H 0 Z" id="path335"/>
    </clipPath>
    <pattern patternTransform="matrix(0.469404,0,0,0.469404,-3.2,9)" patternUnits="userSpaceOnUse" x="0" y="0" width="28.8003" height="28.7998" id="pattern348">
      <path d="m 288.004,-7.20312 c 3.961,0 7.199,3.23046 7.199,7.19921375 0,3.98046625 -3.238,7.20312625 -7.199,7.20312625 -3.981,0 -7.199,-3.22266 -7.199,-7.20312625 0,-3.96875375 3.218,-7.19921375 7.199,-7.19921375" style="fill:#231f20;fill-opacity:1;fill-rule:nonzero;stroke:none" transform="scale(0.1)" clip-path="url(#clipPath335)" id="path336"/>
      <path d="m 144,-7.20312 c 3.969,0 7.199,3.23046 7.199,7.19921375 0,3.98046625 -3.23,7.20312625 -7.199,7.20312625 -3.973,0 -7.199,-3.22266 -7.199,-7.20312625 C 136.801,-3.97266 140.027,-7.20312 144,-7.20312" style="fill:#231f20;fill-opacity:1;fill-rule:nonzero;stroke:none" transform="scale(0.1)" clip-path="url(#clipPath335)" id="path337"/>
      <path d="m 0,-7.20312 c 3.96875,0 7.19922,3.23046 7.19922,7.19921375 C 7.19922,3.97656 3.96875,7.19922 0,7.19922 c -3.98047,0 -7.19922,-3.22266 -7.19922,-7.20312625 C -7.19922,-3.97266 -3.98047,-7.20312 0,-7.20312" style="fill:#231f20;fill-opacity:1;fill-rule:nonzero;stroke:none" transform="scale(0.1)" clip-path="url(#clipPath335)" id="path338"/>
      <path d="m 288.004,136.797 c 3.961,0 7.199,3.23 7.199,7.199 0,3.981 -3.238,7.199 -7.199,7.199 -3.981,0 -7.199,-3.218 -7.199,-7.199 0,-3.969 3.218,-7.199 7.199,-7.199" style="fill:#231f20;fill-opacity:1;fill-rule:nonzero;stroke:none" transform="scale(0.1)" clip-path="url(#clipPath335)" id="path339"/>
      <path d="m 144,136.797 c 3.969,0 7.199,3.23 7.199,7.199 0,3.981 -3.23,7.199 -7.199,7.199 -3.973,0 -7.199,-3.218 -7.199,-7.199 0,-3.969 3.226,-7.199 7.199,-7.199" style="fill:#231f20;fill-opacity:1;fill-rule:nonzero;stroke:none" transform="scale(0.1)" id="path340"/>
      <path d="m 0,136.797 c 3.96875,0 7.19922,3.23 7.19922,7.199 0,3.981 -3.23047,7.199 -7.19922,7.199 -3.98047,0 -7.19922,-3.218 -7.19922,-7.199 0,-3.969 3.21875,-7.199 7.19922,-7.199" style="fill:#231f20;fill-opacity:1;fill-rule:nonzero;stroke:none" transform="scale(0.1)" clip-path="url(#clipPath335)" id="path341"/>
      <path d="m 288.004,280.797 c 3.961,0 7.199,3.23 7.199,7.199 0,3.981 -3.238,7.199 -7.199,7.199 -3.981,0 -7.199,-3.218 -7.199,-7.199 0,-3.969 3.218,-7.199 7.199,-7.199" style="fill:#231f20;fill-opacity:1;fill-rule:nonzero;stroke:none" transform="scale(0.1)" clip-path="url(#clipPath335)" id="path342"/>
      <path d="m 144,280.797 c 3.969,0 7.199,3.23 7.199,7.199 0,3.981 -3.23,7.199 -7.199,7.199 -3.973,0 -7.199,-3.218 -7.199,-7.199 0,-3.969 3.226,-7.199 7.199,-7.199" style="fill:#231f20;fill-opacity:1;fill-rule:nonzero;stroke:none" transform="scale(0.1)" clip-path="url(#clipPath335)" id="path343"/>
      <path d="m 0,280.797 c 3.96875,0 7.19922,3.23 7.19922,7.199 0,3.981 -3.23047,7.199 -7.19922,7.199 -3.98047,0 -7.19922,-3.218 -7.19922,-7.199 0,-3.969 3.21875,-7.199 7.19922,-7.199" style="fill:#231f20;fill-opacity:1;fill-rule:nonzero;stroke:none" transform="scale(0.1)" clip-path="url(#clipPath335)" id="path344"/>
      <path d="m 72.0039,64.8008 c 3.9688,0 7.1992,3.2304 7.1992,7.1992 0,3.9805 -3.2304,7.1992 -7.1992,7.1992 -3.9805,0 -7.2031,-3.2187 -7.2031,-7.1992 0,-3.9688 3.2226,-7.1992 7.2031,-7.1992" style="fill:#231f20;fill-opacity:1;fill-rule:nonzero;stroke:none" transform="scale(0.1)" id="path345"/>
      <path d="m 216,64.8008 c 3.98,0 7.199,3.2304 7.199,7.1992 0,3.9805 -3.219,7.1992 -7.199,7.1992 -3.98,0 -7.199,-3.2187 -7.199,-7.1992 0,-3.9688 3.219,-7.1992 7.199,-7.1992" style="fill:#231f20;fill-opacity:1;fill-rule:nonzero;stroke:none" transform="scale(0.1)" id="path346"/>
      <path d="m 72.0039,208.801 c 3.9688,0 7.1992,3.226 7.1992,7.199 0,3.98 -3.2304,7.199 -7.1992,7.199 -3.9805,0 -7.2031,-3.219 -7.2031,-7.199 0,-3.973 3.2226,-7.199 7.2031,-7.199" style="fill:#231f20;fill-opacity:1;fill-rule:nonzero;stroke:none" transform="scale(0.1)" id="path347"/>
      <path d="m 216,208.801 c 3.98,0 7.199,3.226 7.199,7.199 0,3.98 -3.219,7.199 -7.199,7.199 -3.98,0 -7.199,-3.219 -7.199,-7.199 0,-3.973 3.219,-7.199 7.199,-7.199" style="fill:#231f20;fill-opacity:1;fill-rule:nonzero;stroke:none" transform="scale(0.1)" id="path348"/>
    </pattern>
    <clipPath clipPathUnits="userSpaceOnUse" id="clipPath350">
      <path d="M 0,0 H 288 V 287.996 H 0 Z" id="path350"/>
    </clipPath>
    <pattern patternTransform="matrix(0.469404,0,0,0.469404,-3.2,9)" patternUnits="userSpaceOnUse" x="0" y="0" width="28.8003" height="28.7998" id="pattern363">
      <path d="m 288.004,-7.20312 c 3.961,0 7.199,3.23046 7.199,7.19921375 0,3.98046625 -3.238,7.20312625 -7.199,7.20312625 -3.981,0 -7.199,-3.22266 -7.199,-7.20312625 0,-3.96875375 3.218,-7.19921375 7.199,-7.19921375" style="fill:#231f20;fill-opacity:1;fill-rule:nonzero;stroke:none" transform="scale(0.1)" clip-path="url(#clipPath350)" id="path351"/>
      <path d="m 144,-7.20312 c 3.969,0 7.199,3.23046 7.199,7.19921375 0,3.98046625 -3.23,7.20312625 -7.199,7.20312625 -3.973,0 -7.199,-3.22266 -7.199,-7.20312625 C 136.801,-3.97266 140.027,-7.20312 144,-7.20312" style="fill:#231f20;fill-opacity:1;fill-rule:nonzero;stroke:none" transform="scale(0.1)" clip-path="url(#clipPath350)" id="path352"/>
      <path d="m 0,-7.20312 c 3.96875,0 7.19922,3.23046 7.19922,7.19921375 C 7.19922,3.97656 3.96875,7.19922 0,7.19922 c -3.98047,0 -7.19922,-3.22266 -7.19922,-7.20312625 C -7.19922,-3.97266 -3.98047,-7.20312 0,-7.20312" style="fill:#231f20;fill-opacity:1;fill-rule:nonzero;stroke:none" transform="scale(0.1)" clip-path="url(#clipPath350)" id="path353"/>
      <path d="m 288.004,136.797 c 3.961,0 7.199,3.23 7.199,7.199 0,3.981 -3.238,7.199 -7.199,7.199 -3.981,0 -7.199,-3.218 -7.199,-7.199 0,-3.969 3.218,-7.199 7.199,-7.199" style="fill:#231f20;fill-opacity:1;fill-rule:nonzero;stroke:none" transform="scale(0.1)" clip-path="url(#clipPath350)" id="path354"/>
      <path d="m 144,136.797 c 3.969,0 7.199,3.23 7.199,7.199 0,3.981 -3.23,7.199 -7.199,7.199 -3.973,0 -7.199,-3.218 -7.199,-7.199 0,-3.969 3.226,-7.199 7.199,-7.199" style="fill:#231f20;fill-opacity:1;fill-rule:nonzero;stroke:none" transform="scale(0.1)" id="path355"/>
      <path d="m 0,136.797 c 3.96875,0 7.19922,3.23 7.19922,7.199 0,3.981 -3.23047,7.199 -7.19922,7.199 -3.98047,0 -7.19922,-3.218 -7.19922,-7.199 0,-3.969 3.21875,-7.199 7.19922,-7.199" style="fill:#231f20;fill-opacity:1;fill-rule:nonzero;stroke:none" transform="scale(0.1)" clip-path="url(#clipPath350)" id="path356"/>
      <path d="m 288.004,280.797 c 3.961,0 7.199,3.23 7.199,7.199 0,3.981 -3.238,7.199 -7.199,7.199 -3.981,0 -7.199,-3.218 -7.199,-7.199 0,-3.969 3.218,-7.199 7.199,-7.199" style="fill:#231f20;fill-opacity:1;fill-rule:nonzero;stroke:none" transform="scale(0.1)" clip-path="url(#clipPath350)" id="path357"/>
      <path d="m 144,280.797 c 3.969,0 7.199,3.23 7.199,7.199 0,3.981 -3.23,7.199 -7.199,7.199 -3.973,0 -7.199,-3.218 -7.199,-7.199 0,-3.969 3.226,-7.199 7.199,-7.199" style="fill:#231f20;fill-opacity:1;fill-rule:nonzero;stroke:none" transform="scale(0.1)" clip-path="url(#clipPath350)" id="path358"/>
      <path d="m 0,280.797 c 3.96875,0 7.19922,3.23 7.19922,7.199 0,3.981 -3.23047,7.199 -7.19922,7.199 -3.98047,0 -7.19922,-3.218 -7.19922,-7.199 0,-3.969 3.21875,-7.199 7.19922,-7.199" style="fill:#231f20;fill-opacity:1;fill-rule:nonzero;stroke:none" transform="scale(0.1)" clip-path="url(#clipPath350)" id="path359"/>
      <path d="m 72.0039,64.8008 c 3.9688,0 7.1992,3.2304 7.1992,7.1992 0,3.9805 -3.2304,7.1992 -7.1992,7.1992 -3.9805,0 -7.2031,-3.2187 -7.2031,-7.1992 0,-3.9688 3.2226,-7.1992 7.2031,-7.1992" style="fill:#231f20;fill-opacity:1;fill-rule:nonzero;stroke:none" transform="scale(0.1)" id="path360"/>
      <path d="m 216,64.8008 c 3.98,0 7.199,3.2304 7.199,7.1992 0,3.9805 -3.219,7.1992 -7.199,7.1992 -3.98,0 -7.199,-3.2187 -7.199,-7.1992 0,-3.9688 3.219,-7.1992 7.199,-7.1992" style="fill:#231f20;fill-opacity:1;fill-rule:nonzero;stroke:none" transform="scale(0.1)" id="path361"/>
      <path d="m 72.0039,208.801 c 3.9688,0 7.1992,3.226 7.1992,7.199 0,3.98 -3.2304,7.199 -7.1992,7.199 -3.9805,0 -7.2031,-3.219 -7.2031,-7.199 0,-3.973 3.2226,-7.199 7.2031,-7.199" style="fill:#231f20;fill-opacity:1;fill-rule:nonzero;stroke:none" transform="scale(0.1)" id="path362"/>
      <path d="m 216,208.801 c 3.98,0 7.199,3.226 7.199,7.199 0,3.98 -3.219,7.199 -7.199,7.199 -3.98,0 -7.199,-3.219 -7.199,-7.199 0,-3.973 3.219,-7.199 7.199,-7.199" style="fill:#231f20;fill-opacity:1;fill-rule:nonzero;stroke:none" transform="scale(0.1)" id="path363"/>
    </pattern>
    <clipPath clipPathUnits="userSpaceOnUse" id="clipPath365">
      <path d="M 0,0 H 288 V 287.996 H 0 Z" id="path365"/>
    </clipPath>
    <pattern patternTransform="matrix(0.469404,0,0,0.469404,-3.2,9)" patternUnits="userSpaceOnUse" x="0" y="0" width="28.8003" height="28.7998" id="pattern378">
      <path d="m 288.004,-7.20312 c 3.961,0 7.199,3.23046 7.199,7.19921375 0,3.98046625 -3.238,7.20312625 -7.199,7.20312625 -3.981,0 -7.199,-3.22266 -7.199,-7.20312625 0,-3.96875375 3.218,-7.19921375 7.199,-7.19921375" style="fill:#231f20;fill-opacity:1;fill-rule:nonzero;stroke:none" transform="scale(0.1)" clip-path="url(#clipPath365)" id="path366"/>
      <path d="m 144,-7.20312 c 3.969,0 7.199,3.23046 7.199,7.19921375 0,3.98046625 -3.23,7.20312625 -7.199,7.20312625 -3.973,0 -7.199,-3.22266 -7.199,-7.20312625 C 136.801,-3.97266 140.027,-7.20312 144,-7.20312" style="fill:#231f20;fill-opacity:1;fill-rule:nonzero;stroke:none" transform="scale(0.1)" clip-path="url(#clipPath365)" id="path367"/>
      <path d="m 0,-7.20312 c 3.96875,0 7.19922,3.23046 7.19922,7.19921375 C 7.19922,3.97656 3.96875,7.19922 0,7.19922 c -3.98047,0 -7.19922,-3.22266 -7.19922,-7.20312625 C -7.19922,-3.97266 -3.98047,-7.20312 0,-7.20312" style="fill:#231f20;fill-opacity:1;fill-rule:nonzero;stroke:none" transform="scale(0.1)" clip-path="url(#clipPath365)" id="path368"/>
      <path d="m 288.004,136.797 c 3.961,0 7.199,3.23 7.199,7.199 0,3.981 -3.238,7.199 -7.199,7.199 -3.981,0 -7.199,-3.218 -7.199,-7.199 0,-3.969 3.218,-7.199 7.199,-7.199" style="fill:#231f20;fill-opacity:1;fill-rule:nonzero;stroke:none" transform="scale(0.1)" clip-path="url(#clipPath365)" id="path369"/>
      <path d="m 144,136.797 c 3.969,0 7.199,3.23 7.199,7.199 0,3.981 -3.23,7.199 -7.199,7.199 -3.973,0 -7.199,-3.218 -7.199,-7.199 0,-3.969 3.226,-7.199 7.199,-7.199" style="fill:#231f20;fill-opacity:1;fill-rule:nonzero;stroke:none" transform="scale(0.1)" id="path370"/>
      <path d="m 0,136.797 c 3.96875,0 7.19922,3.23 7.19922,7.199 0,3.981 -3.23047,7.199 -7.19922,7.199 -3.98047,0 -7.19922,-3.218 -7.19922,-7.199 0,-3.969 3.21875,-7.199 7.19922,-7.199" style="fill:#231f20;fill-opacity:1;fill-rule:nonzero;stroke:none" transform="scale(0.1)" clip-path="url(#clipPath365)" id="path371"/>
      <path d="m 288.004,280.797 c 3.961,0 7.199,3.23 7.199,7.199 0,3.981 -3.238,7.199 -7.199,7.199 -3.981,0 -7.199,-3.218 -7.199,-7.199 0,-3.969 3.218,-7.199 7.199,-7.199" style="fill:#231f20;fill-opacity:1;fill-rule:nonzero;stroke:none" transform="scale(0.1)" clip-path="url(#clipPath365)" id="path372"/>
      <path d="m 144,280.797 c 3.969,0 7.199,3.23 7.199,7.199 0,3.981 -3.23,7.199 -7.199,7.199 -3.973,0 -7.199,-3.218 -7.199,-7.199 0,-3.969 3.226,-7.199 7.199,-7.199" style="fill:#231f20;fill-opacity:1;fill-rule:nonzero;stroke:none" transform="scale(0.1)" clip-path="url(#clipPath365)" id="path373"/>
      <path d="m 0,280.797 c 3.96875,0 7.19922,3.23 7.19922,7.199 0,3.981 -3.23047,7.199 -7.19922,7.199 -3.98047,0 -7.19922,-3.218 -7.19922,-7.199 0,-3.969 3.21875,-7.199 7.19922,-7.199" style="fill:#231f20;fill-opacity:1;fill-rule:nonzero;stroke:none" transform="scale(0.1)" clip-path="url(#clipPath365)" id="path374"/>
      <path d="m 72.0039,64.8008 c 3.9688,0 7.1992,3.2304 7.1992,7.1992 0,3.9805 -3.2304,7.1992 -7.1992,7.1992 -3.9805,0 -7.2031,-3.2187 -7.2031,-7.1992 0,-3.9688 3.2226,-7.1992 7.2031,-7.1992" style="fill:#231f20;fill-opacity:1;fill-rule:nonzero;stroke:none" transform="scale(0.1)" id="path375"/>
      <path d="m 216,64.8008 c 3.98,0 7.199,3.2304 7.199,7.1992 0,3.9805 -3.219,7.1992 -7.199,7.1992 -3.98,0 -7.199,-3.2187 -7.199,-7.1992 0,-3.9688 3.219,-7.1992 7.199,-7.1992" style="fill:#231f20;fill-opacity:1;fill-rule:nonzero;stroke:none" transform="scale(0.1)" id="path376"/>
      <path d="m 72.0039,208.801 c 3.9688,0 7.1992,3.226 7.1992,7.199 0,3.98 -3.2304,7.199 -7.1992,7.199 -3.9805,0 -7.2031,-3.219 -7.2031,-7.199 0,-3.973 3.2226,-7.199 7.2031,-7.199" style="fill:#231f20;fill-opacity:1;fill-rule:nonzero;stroke:none" transform="scale(0.1)" id="path377"/>
      <path d="m 216,208.801 c 3.98,0 7.199,3.226 7.199,7.199 0,3.98 -3.219,7.199 -7.199,7.199 -3.98,0 -7.199,-3.219 -7.199,-7.199 0,-3.973 3.219,-7.199 7.199,-7.199" style="fill:#231f20;fill-opacity:1;fill-rule:nonzero;stroke:none" transform="scale(0.1)" id="path378"/>
    </pattern>
    <clipPath clipPathUnits="userSpaceOnUse" id="clipPath389">
      <path d="M -6.0369977,10.072 H 5.9763026 V 0.0677 H -6.0369977 Z" id="path389"/>
    </clipPath>
    <clipPath clipPathUnits="userSpaceOnUse" id="clipPath393">
      <path d="M -6.0370002,10.071998 H 5.9771001 V 0.0676975 H -6.0370002 Z" id="path393"/>
    </clipPath>
    <clipPath clipPathUnits="userSpaceOnUse" id="clipPath396">
      <path d="M -0.92500252,2.9439976 H 11.088698 V -7.0603027 H -0.92500252 Z" id="path396"/>
    </clipPath>
    <clipPath clipPathUnits="userSpaceOnUse" id="clipPath399">
      <path d="M -0.92600252,2.9439976 H 11.088098 V -7.0603027 H -0.92600252 Z" id="path399"/>
    </clipPath>
    <clipPath clipPathUnits="userSpaceOnUse" id="clipPath402">
      <path d="M -0.92400002,2.9440026 H 11.0893 V -7.0602977 H -0.92400002 Z" id="path402"/>
    </clipPath>
    <clipPath clipPathUnits="userSpaceOnUse" id="clipPath406">
      <path d="M -6.0369977,10.071998 H 5.9767026 V 0.0676975 H -6.0369977 Z" id="path406"/>
    </clipPath>
    <clipPath clipPathUnits="userSpaceOnUse" id="clipPath409">
      <path d="M -0.92500002,2.5619976 H 11.0891 V -7.4427027 H -0.92500002 Z" id="path409"/>
    </clipPath>
    <clipPath clipPathUnits="userSpaceOnUse" id="clipPath415">
      <path d="M -0.95899752,1.4289975 H 24.678103 V -5.1624126 H -0.95899752 Z" id="path415"/>
    </clipPath>
  </defs>
  <sodipodi:namedview id="namedview1" pagecolor="#ffffff" bordercolor="#000000" borderopacity="0.25" inkscape:showpageshadow="2" inkscape:pageopacity="0.0" inkscape:pagecheckerboard="0" inkscape:deskcolor="#d1d1d1">
    <inkscape:page x="0" y="0" inkscape:label="14" id="page1" width="793.33331" height="1122.6667" margin="0" bleed="0"/>
  </sodipodi:namedview>
  <g id="g1" inkscape:groupmode="layer" inkscape:label="14">
    
    
    
    
    
    
    
    
    
    
    
    
    
    
    
    
    
    
    
    
    
    
    
    
    
    
    
    
    
    
    
    
    
    
    
    
    
    
    
    
    
    
    
    
    
    
    
    
    
    
    
    
    
    
    
    
    
    
    
    <path id="path186" d="m 1699.05,4119.96 c 0,0 -169.31,386.57 -315.37,559.3 -5.92,7.69 -12.43,15.12 -19.51,22.21 -0.92,0.91 -1.87,1.76 -2.79,2.67 -1.78,1.85 -3.56,3.67 -5.31,5.43 l 0.53,-0.87 c -78.22,71.52 -191.61,77.2 -257.55,11.26 -65.94,-65.94 -60.27,-179.32 11.26,-257.55 l -0.86,0.54 c 1.75,-1.75 3.57,-3.53 5.43,-5.32 0.9,-0.92 1.76,-1.87 2.67,-2.78 7.09,-7.09 14.52,-13.59 22.2,-19.52 172.73,-146.06 559.29,-315.37 559.29,-315.37" style="fill:url(#pattern211);fill-opacity:1;fill-rule:nonzero;stroke:#231f20;stroke-width:4.704;stroke-linecap:butt;stroke-linejoin:miter;stroke-miterlimit:4;stroke-dasharray:none;stroke-opacity:1" transform="matrix(0.13333333,0,0,-0.13333333,0,1122.6667)"/>
    <path id="path212" d="m 1699.04,4119.96 c 0,0 -386.56,-169.3 -559.28,-315.35 -7.69,-5.94 -15.12,-12.44 -22.21,-19.52 -0.92,-0.93 -1.77,-1.86 -2.67,-2.79 -1.85,-1.79 -3.68,-3.57 -5.43,-5.32 l 0.87,0.54 c -71.53,-78.23 -77.21,-191.61 -11.27,-257.56 65.95,-65.94 179.33,-60.26 257.55,11.26 l -0.53,-0.86 c 1.75,1.75 3.53,3.57 5.32,5.43 0.91,0.9 1.86,1.75 2.78,2.67 7.08,7.09 13.58,14.52 19.53,22.2 146.04,172.73 315.34,559.3 315.34,559.3" style="fill:#ffffff;fill-opacity:1;fill-rule:nonzero;stroke:#231f20;stroke-width:4.704;stroke-linecap:butt;stroke-linejoin:miter;stroke-miterlimit:4;stroke-dasharray:none;stroke-opacity:1" transform="matrix(0.13333333,0,0,-0.13333333,0,1122.6667)"/>
    <path id="path213" d="m 1699.05,4119.96 c 0,0 169.31,-386.57 315.36,-559.29 5.94,-7.69 12.44,-15.12 19.53,-22.21 0.92,-0.92 1.85,-1.77 2.78,-2.67 1.79,-1.86 3.57,-3.68 5.32,-5.43 l -0.54,0.86 c 78.23,-71.52 191.62,-77.2 257.55,-11.26 65.95,65.95 60.27,179.33 -11.27,257.56 l 0.88,-0.54 c -1.75,1.75 -3.59,3.53 -5.44,5.32 -0.89,0.91 -1.75,1.87 -2.67,2.79 -7.09,7.08 -14.52,13.58 -22.2,19.52 -172.73,146.05 -559.3,315.35 -559.3,315.35" style="fill:#ffffff;fill-opacity:1;fill-rule:nonzero;stroke:#231f20;stroke-width:4.704;stroke-linecap:butt;stroke-linejoin:miter;stroke-miterlimit:4;stroke-dasharray:none;stroke-opacity:1" transform="matrix(0.13333333,0,0,-0.13333333,0,1122.6667)"/>
    <path id="path214" d="m 1699.06,4119.96 c 0,0 386.57,169.31 559.29,315.37 7.68,5.92 15.11,12.43 22.2,19.51 0.91,0.92 1.77,1.87 2.67,2.79 1.85,1.79 3.67,3.56 5.43,5.32 l -0.87,-0.54 c 71.53,78.23 77.2,191.61 11.27,257.55 -65.94,65.94 -179.32,60.27 -257.55,-11.26 l 0.54,0.87 c -1.75,-1.76 -3.53,-3.58 -5.32,-5.43 -0.92,-0.91 -1.87,-1.76 -2.78,-2.68 -7.09,-7.08 -13.59,-14.51 -19.53,-22.2 -146.05,-172.73 -315.35,-559.3 -315.35,-559.3" style="fill:url(#pattern228);fill-opacity:1;fill-rule:nonzero;stroke:#231f20;stroke-width:4.704;stroke-linecap:butt;stroke-linejoin:miter;stroke-miterlimit:4;stroke-dasharray:none;stroke-opacity:1" transform="matrix(0.13333333,0,0,-0.13333333,0,1122.6667)"/>
    <path id="path229" d="m 1697.84,4119.96 c 0,0 153.63,393.08 172.49,618.49 1.24,9.62 1.9,19.47 1.9,29.5 -0.01,1.3 -0.06,2.57 -0.09,3.85 0.05,2.58 0.09,5.13 0.09,7.61 l -0.24,-0.99 c -4.73,105.88 -80.89,190.08 -174.15,190.07 -93.26,0.01 -169.42,-84.18 -174.15,-190.07 l -0.24,0.99 c 0,-2.48 0.05,-5.03 0.09,-7.61 -0.02,-1.28 -0.09,-2.57 -0.09,-3.86 0,-10.02 0.66,-19.87 1.9,-29.49 18.87,-225.42 172.48,-618.49 172.48,-618.49" style="fill:#ffffff;fill-opacity:1;fill-rule:nonzero;stroke:#231f20;stroke-width:4.704;stroke-linecap:butt;stroke-linejoin:miter;stroke-miterlimit:4;stroke-dasharray:none;stroke-opacity:1" transform="matrix(0.13333333,0,0,-0.13333333,0,1122.6667)"/>
    <path id="path230" d="m 1697.83,4119.98 c 0,0 -393.06,153.61 -618.46,172.47 -9.63,1.25 -19.48,1.91 -29.51,1.91 -1.3,0 -2.57,-0.07 -3.85,-0.09 -2.58,0.05 -5.13,0.09 -7.61,0.09 l 0.99,-0.25 c -105.882,-4.72 -190.078,-80.9 -190.07,-174.15 -0.008,-93.25 84.18,-169.41 190.07,-174.14 l -0.99,-0.24 c 2.48,0 5.03,0.04 7.6,0.08 1.29,-0.02 2.56,-0.08 3.86,-0.08 10.02,0 19.87,0.66 29.5,1.89 225.41,18.87 618.47,172.49 618.47,172.49" style="fill:#ffffff;fill-opacity:1;fill-rule:nonzero;stroke:#231f20;stroke-width:4.704;stroke-linecap:butt;stroke-linejoin:miter;stroke-miterlimit:4;stroke-dasharray:none;stroke-opacity:1" transform="matrix(0.13333333,0,0,-0.13333333,0,1122.6667)"/>
    <path id="path231" d="m 1697.84,4119.96 c 0,0 -153.62,-393.07 -172.48,-618.48 -1.25,-9.62 -1.91,-19.48 -1.91,-29.5 0,-1.29 0.07,-2.57 0.09,-3.86 -0.04,-2.57 -0.09,-5.11 -0.09,-7.6 l 0.25,0.99 c 4.72,-105.89 80.88,-190.08 174.14,-190.08 93.26,0 169.42,84.18 174.15,190.08 l 0.24,-0.99 c 0,2.49 -0.04,5.03 -0.08,7.6 0.02,1.29 0.08,2.57 0.08,3.86 0,10.02 -0.66,19.88 -1.89,29.5 -18.87,225.41 -172.5,618.48 -172.5,618.48" style="fill:#ffffff;fill-opacity:1;fill-rule:nonzero;stroke:#231f20;stroke-width:4.704;stroke-linecap:butt;stroke-linejoin:miter;stroke-miterlimit:4;stroke-dasharray:none;stroke-opacity:1" transform="matrix(0.13333333,0,0,-0.13333333,0,1122.6667)"/>
    <path id="path232" d="m 1697.85,4119.96 c 0,0 393.06,-153.62 618.46,-172.49 9.63,-1.24 19.48,-1.89 29.5,-1.89 1.31,0 2.58,0.06 3.86,0.08 2.58,-0.05 5.12,-0.08 7.6,-0.08 l -0.99,0.23 c 105.89,4.74 190.09,80.9 190.08,174.15 0.01,93.25 -84.18,169.43 -190.07,174.15 l 0.99,0.25 c -2.48,0 -5.03,-0.05 -7.61,-0.09 -1.28,0.01 -2.55,0.09 -3.85,0.09 -10.02,0 -19.87,-0.68 -29.51,-1.91 -225.41,-18.86 -618.46,-172.49 -618.46,-172.49" style="fill:#ffffff;fill-opacity:1;fill-rule:nonzero;stroke:#231f20;stroke-width:4.704;stroke-linecap:butt;stroke-linejoin:miter;stroke-miterlimit:4;stroke-dasharray:none;stroke-opacity:1" transform="matrix(0.13333333,0,0,-0.13333333,0,1122.6667)"/>
    <path id="path233" d="m 1663.96,4087.15 h 67.7461 v 65.0977 H 1663.96 Z" style="fill:#ffffff;fill-opacity:1;fill-rule:nonzero;stroke:none" transform="matrix(0.13333333,0,0,-0.13333333,0,1122.6667)"/>
    <path id="path234" d="m 1673.01,4104.88 c 9.34,-28.55 63.79,5.17 48.6,34.39 -7.77,14.97 -31.82,-0.98 -33.2,-13.05 11.02,2.23 7.12,16.19 18.98,15.42 3.95,-0.26 8.2,-4.48 9.48,-9.49 4.34,-16.98 -9.33,-36.99 -26.08,-34.38 -12.44,1.94 -15.01,20.36 -10.67,30.82 3.29,7.95 11.6,10.21 14.22,16.61 -11.43,-8.17 -28.24,-19.22 -21.33,-40.32" style="fill:#ffffff;fill-opacity:1;fill-rule:evenodd;stroke:none" transform="matrix(0.13333333,0,0,-0.13333333,0,1122.6667)"/>
    <path id="path235" d="m 1694.34,4145.2 c -2.63,-6.4 -10.93,-8.66 -14.22,-16.61 -4.34,-10.46 -1.77,-28.88 10.67,-30.82 16.75,-2.61 30.42,17.4 26.08,34.38 -1.28,5.01 -5.52,9.23 -9.49,9.49 -11.85,0.76 -7.95,-13.2 -18.96,-15.42 1.37,12.06 25.42,28.02 33.19,13.05 15.19,-29.22 -39.26,-62.95 -48.6,-34.39 -6.91,21.1 9.9,32.15 21.33,40.32" style="fill:#231f20;fill-opacity:1;fill-rule:evenodd;stroke:none" transform="matrix(0.13333333,0,0,-0.13333333,0,1122.6667)"/>
    <path id="path236" d="m 2.7772266,-1.0091641 c -0.1523438,0.53906254 -0.328125,0.84375004 -0.3632813,0.91406254 -0.28125,0.4921875 -0.421875,0.50390625 -0.6328125,0.50390625 -0.1171875,0 -0.5625,-0.0234375 -0.93749999,-0.28125 -0.28125,0.0234375 -0.515625,0.234375 -0.515625,0.31640625 0,0.046875 0.43359375,0.31640625 1.03124999,0.31640625 0.4804688,0 1.2070313,-0.2578125 1.6757813,-1.25390625 0.1757812,-0.36328125 0.28125,-0.72656254 0.328125,-0.89062504 0.082031,-0.2695312 0.234375,-0.8789062 0.234375,-0.9140625 0,-0.035156 -0.011719,-0.058594 -0.070312,-0.058594 -0.082031,0 -0.4101563,0.1289062 -0.46875,0.3398437 -0.1523438,0.5039063 -0.5625,1.23046879 -1.2539063,1.23046879 -0.6210937,0 -0.98437499,-0.51562499 -0.98437499,-1.21874999 0,-0.4101563 0.140625,-1.0664063 0.57421879,-1.59375 0.2226562,-0.28125 0.5507812,-0.5507813 1.1953125,-0.5507813 0.3398437,0 0.703125,0.058594 0.703125,0.3515625 0,0.1992188 -0.3046875,0.5742188 -0.3398438,0.6328125 -0.046875,0.058594 -0.070312,0.082031 -0.070312,0.1054688 0,0.046875 0.035156,0.046875 0.070312,0.046875 0.4101563,0 0.8789063,-0.796875 0.8789063,-1.0546875 0,-0.3164063 -0.328125,-0.4335938 -0.8203125,-0.4335938 -1.4296875,0 -2.73046879,1.265625 -2.73046879,2.765625 0,0.703125 0.328125,1.30078129 1.10156249,1.30078129 0.4921875,0 0.984375,-0.24609375 1.3945308,-0.57421849 z m 0,0" style="fill:#231f20;fill-opacity:1;fill-rule:nonzero;stroke:none" aria-label="G" transform="matrix(1.3333333,0,0,1.3333333,208.34,561.52133)"/>
    <path id="path237" d="m 1.4638828,-2.96575 c 0,-0.1289062 -0.011719,-0.1289062 -0.140625,-0.1289062 -0.1875,0.1875 -0.43359374,0.2929687 -0.87890624,0.2929687 v 0.1640625 c 0.12890625,0 0.375,0 0.64453124,-0.1289062 v 2.3789062 c 0,0.17578125 -0.011719,0.234375 -0.45703124,0.234375 H 0.46778906 V -9.0625e-4 C 0.66700781,-0.012625 1.0654453,-0.012625 1.2763828,-0.012625 c 0.2109375,0 0.609375,0 0.796875,0.01171875 V -0.15325 H 1.9209141 c -0.4453125,0 -0.4570313,-0.0585938 -0.4570313,-0.234375 z m 0,0" style="fill:#231f20;fill-opacity:1;fill-rule:nonzero;stroke:none" aria-label="1" transform="matrix(1.3333333,0,0,1.3333333,213.388,562.82933)"/>
    <path id="path238" d="m 2.7771797,-1.0074531 c -0.1523438,0.53906248 -0.328125,0.84374998 -0.3632813,0.91406248 -0.28125,0.4921875 -0.421875,0.50390625 -0.6328125,0.50390625 -0.1171875,0 -0.5625,-0.0234375 -0.93749996,-0.28125 -0.28125,0.0234375 -0.515625,0.234375 -0.515625,0.31640625 0,0.046875 0.43359375,0.31640625 1.03124996,0.31640625 0.4804688,0 1.2070313,-0.2578125 1.6757813,-1.25390625 0.1757812,-0.36328125 0.28125,-0.72656248 0.328125,-0.89062498 0.082031,-0.2695313 0.234375,-0.8789063 0.234375,-0.9140625 0,-0.035156 -0.011719,-0.058594 -0.070312,-0.058594 -0.082031,0 -0.4101563,0.1289063 -0.46875,0.3398438 -0.1523438,0.5039062 -0.5625,1.23046873 -1.2539063,1.23046873 -0.6210937,0 -0.98437496,-0.51562503 -0.98437496,-1.21875003 0,-0.4101562 0.140625,-1.0664062 0.57421876,-1.59375 0.2226562,-0.28125 0.5507812,-0.5507812 1.1953125,-0.5507812 0.3398437,0 0.703125,0.058594 0.703125,0.3515625 0,0.1992187 -0.3046875,0.5742187 -0.3398438,0.6328125 -0.046875,0.058594 -0.070312,0.082031 -0.070312,0.1054687 0,0.046875 0.035156,0.046875 0.070312,0.046875 0.4101563,0 0.8789063,-0.796875 0.8789063,-1.0546875 0,-0.3164062 -0.328125,-0.4335937 -0.8203125,-0.4335937 -1.4296875,0 -2.73046876,1.265625 -2.73046876,2.765625 0,0.703125 0.328125,1.30078123 1.10156246,1.30078123 0.4921875,0 0.984375,-0.24609375 1.3945308,-0.57421853 z m 0,0" style="fill:#231f20;fill-opacity:1;fill-rule:nonzero;stroke:none" aria-label="G" transform="matrix(1.3333333,0,0,1.3333333,235.176,561.75733)"/>
    <path id="path239" d="m 1.3114922,-0.94841406 c 0.070312,-0.0703125 0.2695312,-0.22265624 0.3398437,-0.29296874 0.2929688,-0.2578125 0.5625,-0.515625 0.5625,-0.9375 0,-0.5507813 -0.4570312,-0.9140625 -1.0429687,-0.9140625 -0.56250001,0 -0.92578126,0.421875 -0.92578126,0.8320312 0,0.234375 0.1875,0.2695313 0.24609375,0.2695313 0.09375,0 0.24609375,-0.070312 0.24609375,-0.2460938 0,-0.2460937 -0.234375,-0.2460937 -0.29296875,-0.2460937 0.140625,-0.3398438 0.4453125,-0.4570313 0.67968751,-0.4570313 0.4335937,0 0.65625,0.3632813 0.65625,0.7617188 0,0.4804687 -0.3398438,0.8320312 -0.89062501,1.39453124 l -0.5859375,0.609375 c -0.0585938,0.046875 -0.0585938,0.0585938 -0.0585938,0.1757812475 H 2.0849297 L 2.2138359,-0.83122656 h -0.140625 c -0.011719,0.09375 -0.046875,0.328125 -0.1054687,0.41015625 -0.023437,0.0351563 -0.3867188,0.0351563 -0.4570313,0.0351563 H 0.67867969 Z m 0,0" style="fill:#231f20;fill-opacity:1;fill-rule:nonzero;stroke:none" aria-label="2" transform="matrix(1.3333333,0,0,1.3333333,240.224,563.06533)"/>
    <path id="path240" d="m 1917.25,4449.74 c -5.36,0 -9.71,-4.34 -9.71,-9.69 0,-5.36 4.35,-9.7 9.71,-9.7 5.36,0 9.7,4.34 9.7,9.7 0,5.35 -4.34,9.69 -9.7,9.69" style="fill:#231f20;fill-opacity:1;fill-rule:nonzero;stroke:none" transform="matrix(0.13333333,0,0,-0.13333333,0,1122.6667)"/>
    <path id="path241" d="m 1235.28,4449.74 c -5.36,0 -9.7,-4.34 -9.7,-9.69 0,-5.36 4.34,-9.7 9.7,-9.7 5.36,0 9.7,4.34 9.7,9.7 0,5.35 -4.34,9.69 -9.7,9.69" style="fill:#231f20;fill-opacity:1;fill-rule:nonzero;stroke:none" transform="matrix(0.13333333,0,0,-0.13333333,0,1122.6667)"/>
    <g id="g241" aria-label="1&#10;G&#10;2" transform="matrix(1.3333333,0,0,1.3333333,292.27867,498.672)" clip-path="url(#clipPath245)">
      <path id="path242" d="m 1.4990078,-3.0469688 c 0,-0.1289062 -0.011719,-0.1289062 -0.140625,-0.1289062 -0.1875,0.1875 -0.44531249,0.3046875 -0.90234374,0.3046875 v 0.1523437 c 0.12890625,0 0.38671875,0 0.66796874,-0.1289062 v 2.4609375 c 0,0.17578125 -0.011719,0.234375 -0.46874999,0.234375 H 0.49119531 V -9.375e-5 c 0.1875,-0.01171875 0.59765629,-0.01171875 0.82031249,-0.01171875 0.2109375,0 0.6328125,0 0.8203125,0.01171875 V -0.1524375 H 1.9677578 c -0.4570312,0 -0.46875,-0.0585938 -0.46875,-0.234375 z m 0,0" style="fill:#231f20;fill-opacity:1;fill-rule:nonzero;stroke:none"/>
      <path id="path243" d="m -0.81251562,5.4520547 c -0.1640625,0.2109375 -0.1640625,0.4335937 -0.1640625,0.5390625 v 0.6679687 c -0.09375,0.046875 -0.32812498,0.1523438 -0.57421878,0.2226563 0.023437,-0.1054688 0.023437,-0.3632813 0.023437,-0.5390625 0,-0.4804688 0,-0.6914063 -0.2226562,-0.890625 z M -2.5234531,7.2567422 c 0.5625,0 1.1484375,-0.1523438 1.60546873,-0.375 0.1640625,-0.09375 0.1640625,-0.09375 0.1640625,-0.28125 V 6.0028359 c 0,-0.3515625 0.17578125,-0.515625 0.421875,-0.5390625 0.1171875,-0.011719 0.1171875,-0.09375 0.1171875,-0.1171875 0,-0.1171875 -0.10546875,-0.1171875 -0.22265625,-0.1171875 H -2.1953281 c -0.1289063,0 -0.234375,0 -0.234375,0.1171875 0,0.058594 0.035156,0.1054688 0.1289062,0.1171875 0.5390625,0.046875 0.5390625,0.4335938 0.5390625,0.6328125 v 0.4921875 c 0,0.1875 0,0.2929688 -0.1875,0.3632813 -0.1992187,0.070312 -0.5039062,0.070312 -0.5625,0.070312 -0.2695312,0 -0.7265625,-0.046875 -0.9960937,-0.7382813 -0.1523438,-0.3867187 -0.2109375,-0.8789062 -0.2109375,-1.3828125 0,-1.3125 0.4804687,-2.15625 1.171875,-2.15625 0.5859375,0 1.3242187,0.609375 1.4765625,1.125 0.035156,0.1171875 0.058594,0.1757813 0.14062498,0.1757813 0.1171875,0 0.1171875,-0.1054688 0.1171875,-0.2226563 V 2.7333047 c 0,-0.1171875 0,-0.2226563 -0.1171875,-0.2226563 0,0 -0.10546878,0 -0.11718748,0.1289063 -0.011719,0.1054687 -0.082031,0.1757812 -0.2109375,0.1757812 -0.2226563,0 -0.4570313,-0.09375 -0.5507813,-0.140625 -0.2460937,-0.1054687 -0.4570312,-0.1640625 -0.7617187,-0.1640625 -1.0898438,0 -2.296875,0.6914063 -2.296875,2.3671875 0,1.59375 1.078125,2.3789063 2.34375,2.3789063 z m 1.4765625,-3.8554688 c -0.1054688,-0.140625 -0.2226563,-0.28125 -0.328125,-0.3632812 0.046875,0.011719 0.082031,0.011719 0.1171875,0.011719 0.070312,0 0.1640625,-0.011719 0.2109375,-0.046875 z m -2.390625,3.4570313 c -0.8671875,-0.3632813 -1.2070313,-1.1367188 -1.2070313,-1.96875 0,-1.2070313 0.6679688,-1.7929688 1.2773438,-2.0039063 v 0.011719 c -0.1640625,0.1640625 -0.5742188,0.7382812 -0.5742188,2.0039062 0,0.515625 0.046875,1.40625 0.5039063,1.9570311 z m 0,0" style="fill:#231f20;fill-opacity:1;fill-rule:nonzero;stroke:none"/>
      <path id="path244" d="m 1.3466641,7.1629922 c 0.082031,-0.070312 0.28125,-0.234375 0.3515625,-0.3046875 0.3046875,-0.2695313 0.5859375,-0.5273438 0.5859375,-0.9609375 0,-0.5742188 -0.4804688,-0.9375 -1.078125,-0.9375 -0.57421879,0 -0.94921879,0.4335937 -0.94921879,0.8554687 0,0.234375 0.1875,0.2695313 0.24609375,0.2695313 0.10546875,0 0.24609375,-0.070312 0.24609375,-0.2578125 0,-0.2460938 -0.234375,-0.2460938 -0.29296875,-0.2460938 0.140625,-0.3515625 0.45703125,-0.46875 0.69140624,-0.46875 0.4453125,0 0.6796875,0.375 0.6796875,0.7851563 0,0.4921875 -0.3515625,0.8554687 -0.91406249,1.4296875 L 0.31541406,7.9481484 c -0.0585938,0.058594 -0.0585938,0.070312 -0.0585938,0.1875 H 2.1435391 L 2.2841641,7.2801797 H 2.1318203 c -0.011719,0.09375 -0.058594,0.3398437 -0.1054687,0.421875 -0.035156,0.046875 -0.3984375,0.046875 -0.46875,0.046875 H 0.70213281 Z m 0,0" style="fill:#231f20;fill-opacity:1;fill-rule:nonzero;stroke:none"/>
    </g>
    <g id="g245" aria-label="G&#10;1" transform="matrix(1.3333333,0,0,1.3333333,154.95733,508.68667)" clip-path="url(#clipPath248)">
      <path id="path246" d="m 4.3005547,-1.6751562 c -0.1640625,0.2109375 -0.1640625,0.4335937 -0.1640625,0.5390625 v 0.6679687 c -0.09375,0.046875 -0.328125,0.15234375 -0.5742188,0.22265625 0.023437,-0.10546875 0.023437,-0.36328125 0.023437,-0.5390625 0,-0.48046875 0,-0.69140625 -0.2226562,-0.89062495 z M 2.5896172,0.12953125 c 0.5625,0 1.1484375,-0.15234375 1.6054687,-0.375 0.1640625,-0.09375 0.1640625,-0.09375 0.1640625,-0.28125 V -1.124375 c 0,-0.3515625 0.1757813,-0.515625 0.421875,-0.5390625 0.1171875,-0.011719 0.1171875,-0.09375 0.1171875,-0.1171875 0,-0.1171875 -0.1054687,-0.1171875 -0.2226562,-0.1171875 H 2.9177422 c -0.1289063,0 -0.234375,0 -0.234375,0.1171875 0,0.058594 0.035156,0.1054688 0.1289062,0.1171875 0.5390625,0.046875 0.5390625,0.4335938 0.5390625,0.6328125 v 0.4921875 c 0,0.1875 0,0.29296875 -0.1875,0.36328125 -0.1992187,0.0703125 -0.5039062,0.0703125 -0.5625,0.0703125 -0.2695312,0 -0.7265625,-0.046875 -0.9960937,-0.73828125 -0.1523438,-0.3867187 -0.2109375,-0.8789062 -0.2109375,-1.3828125 0,-1.3125 0.4804687,-2.15625 1.171875,-2.15625 0.5859375,0 1.3242187,0.609375 1.4765625,1.125 0.035156,0.1171875 0.058594,0.1757813 0.140625,0.1757813 0.1171875,0 0.1171875,-0.1054688 0.1171875,-0.2226563 v -1.0898437 c 0,-0.1171875 0,-0.2226563 -0.1171875,-0.2226563 0,0 -0.1054688,0 -0.1171875,0.1289063 -0.011719,0.1054687 -0.082031,0.1757812 -0.2109375,0.1757812 -0.2226563,0 -0.4570313,-0.09375 -0.5507813,-0.140625 -0.2460937,-0.1054687 -0.4570312,-0.1640625 -0.7617187,-0.1640625 -1.0898438,0 -2.29687501,0.6914063 -2.29687501,2.3671875 0,1.59375 1.07812501,2.37890625 2.34375001,2.37890625 z M 4.0661797,-3.7259375 c -0.1054688,-0.140625 -0.2226563,-0.28125 -0.328125,-0.3632812 0.046875,0.011719 0.082031,0.011719 0.1171875,0.011719 0.070312,0 0.1640625,-0.011719 0.2109375,-0.046875 z m -2.390625,3.45703125 C 0.80836719,-0.6321875 0.46852344,-1.405625 0.46852344,-2.2376562 c 0,-1.2070313 0.66796876,-1.7929688 1.27734376,-2.0039063 v 0.011719 c -0.1640625,0.1640625 -0.5742188,0.7382812 -0.5742188,2.0039062 0,0.515625 0.046875,1.40625 0.5039063,1.95703105 z m 0,0" style="fill:#231f20;fill-opacity:1;fill-rule:nonzero;stroke:none"/>
      <path id="path247" d="m 6.6120781,-2.0384375 c 0,-0.1289062 -0.011719,-0.1289062 -0.140625,-0.1289062 -0.1875,0.1875 -0.4453125,0.3046875 -0.9023437,0.3046875 v 0.1523437 c 0.1289062,0 0.3867187,0 0.6679687,-0.1289062 v 2.46093745 c 0,0.17578125 -0.011719,0.234375 -0.46875,0.234375 H 5.6042656 V 1.0084375 c 0.1875,-0.0117188 0.5976563,-0.0117188 0.8203125,-0.0117188 0.2109375,0 0.6328125,0 0.8203125,0.0117188 V 0.85609375 H 7.0808281 c -0.4570312,0 -0.46875,-0.0585938 -0.46875,-0.234375 z m 0,0" style="fill:#231f20;fill-opacity:1;fill-rule:nonzero;stroke:none"/>
    </g>
    <g id="g248" aria-label="P&#10;1&#10;=P&#10;1" transform="matrix(1.3333333,0,0,1.3333333,167.74533,533.35067)" clip-path="url(#clipPath254)">
      <path id="path249" d="m 1.9224453,-2.0032344 h 1.078125 c 0.9023438,0 1.78125,-0.65625 1.78125,-1.3710937 0,-0.4804688 -0.421875,-0.9609375 -1.2539062,-0.9609375 H 1.4771328 c -0.1171875,0 -0.1875,0 -0.1875,0.1289062 0,0.070312 0.058594,0.070312 0.1875,0.070312 0.082031,0 0.1875,0.011719 0.2695313,0.011719 0.09375,0.011719 0.140625,0.035156 0.140625,0.1054687 0,0.023437 -0.011719,0.046875 -0.023437,0.1171875 l -0.8554688,3.41015628 c -0.0585937,0.24609375 -0.0703125,0.29296875 -0.57421874,0.29296875 -0.10546875,0 -0.17578125,0 -0.17578125,0.12890625 0,0.070312495 0.0703125,0.070312495 0.09375,0.070312495 0.17578125,0 0.62109375,-0.023437495 0.79687499,-0.023437495 0.140625,0 0.28125,0.01171875 0.4101563,0.01171875 0.140625,0 0.28125,0.011718745 0.4101562,0.011718745 0.046875,0 0.1289063,0 0.1289063,-0.128906245 0,-0.0703125 -0.058594,-0.0703125 -0.1757813,-0.0703125 -0.234375,0 -0.4101562,0 -0.4101562,-0.1171875 0,-0.0351563 0.011719,-0.0585938 0.011719,-0.10546875 z m 0.4570313,-1.8867187 c 0.058594,-0.2226563 0.070312,-0.2460938 0.3398437,-0.2460938 h 0.609375 c 0.5273438,0 0.8671875,0.1757813 0.8671875,0.609375 0,0.2460938 -0.1289062,0.796875 -0.375,1.0195313 -0.3164062,0.2929687 -0.703125,0.3398437 -0.984375,0.3398437 h -0.890625 z m 0,0" style="fill:#231f20;fill-opacity:1;fill-rule:nonzero;stroke:none"/>
      <path id="path250" d="m 5.4937344,-1.9768672 c 0,-0.1171875 -0.011719,-0.1289062 -0.1289063,-0.1289062 -0.1992187,0.1875 -0.4453125,0.3046875 -0.8789062,0.3046875 v 0.1523437 c 0.1289062,0 0.375,0 0.6445312,-0.1289062 v 2.37890621 c 0,0.1640625 -0.011719,0.22265625 -0.4570312,0.22265625 H 4.5093594 v 0.15234375 c 0.1875,-0.0117188 0.5859375,-0.0117188 0.796875,-0.0117188 0.2109375,0 0.609375,0 0.8085937,0.0117188 V 0.82391406 H 5.9507656 c -0.4453125,0 -0.4570312,-0.0585938 -0.4570312,-0.22265625 z m 0,0" style="fill:#231f20;fill-opacity:1;fill-rule:nonzero;stroke:none"/>
      <path id="path251" d="m 12.929281,-2.0735469 c 0.09375,0 0.210938,0 0.210938,-0.1289062 0,-0.1289063 -0.117188,-0.1289063 -0.210938,-0.1289063 H 9.1324063 c -0.082031,0 -0.2109375,0 -0.2109375,0.1289063 0,0.1289062 0.1289062,0.1289062 0.2226562,0.1289062 z m 0,1.23046878 c 0.09375,0 0.210938,0 0.210938,-0.12890625 0,-0.12890623 -0.117188,-0.12890623 -0.210938,-0.12890623 H 9.144125 c -0.09375,0 -0.2226562,0 -0.2226562,0.12890623 0,0.12890625 0.1289062,0.12890625 0.2109375,0.12890625 z m 0,0" style="fill:#231f20;fill-opacity:1;fill-rule:nonzero;stroke:none"/>
      <path id="path252" d="m 17.452719,-4.3352656 c -0.902344,0 -1.933594,0.515625 -2.0625,1.21875 0,0 0.02344,0.011719 0.05859,0.011719 0.09375,0 0.410156,-0.1171875 0.480468,-0.3164062 0.08203,-0.234375 0.175782,-0.515625 1.078125,-0.5625 -0.105468,1.453125 -0.492187,2.8476562 -1.042968,4.19531248 0,0.0117188 -0.02344,0.046875 -0.02344,0.0585938 0,0.0351563 0.03516,0.046875 0.07031,0.046875 0.128906,0 0.421875,-0.17578125 0.46875,-0.28125 0.398437,-0.97265625 0.867187,-2.36718748 1.042968,-4.01953118 h 0.339844 c 0.738281,0 1.511719,0.2929687 1.511719,0.9375 0,0.4335937 -0.421875,1.359375 -1.699219,1.3945312 -0.339844,0.011719 -0.539062,0.2460938 -0.539062,0.3046875 0,0.046875 0.04687,0.046875 0.117187,0.046875 1.148438,0 2.660156,-0.9726562 2.660156,-2.015625 0,-0.7617187 -0.925781,-1.0195312 -1.582031,-1.0195312 z m 0,0" style="fill:#231f20;fill-opacity:1;fill-rule:nonzero;stroke:none"/>
      <path id="path253" d="m 21.103109,-1.9768672 c 0,-0.1171875 -0.01172,-0.1289062 -0.128906,-0.1289062 -0.199219,0.1875 -0.445312,0.3046875 -0.878906,0.3046875 v 0.1523437 c 0.128906,0 0.375,0 0.644531,-0.1289062 v 2.37890621 c 0,0.1640625 -0.01172,0.22265625 -0.457031,0.22265625 h -0.164063 v 0.15234375 c 0.1875,-0.0117188 0.585938,-0.0117188 0.796875,-0.0117188 0.210938,0 0.609375,0 0.808594,0.0117188 V 0.82391406 h -0.164062 c -0.445313,0 -0.457032,-0.0585938 -0.457032,-0.22265625 z m 0,0" style="fill:#231f20;fill-opacity:1;fill-rule:nonzero;stroke:none"/>
    </g>
    <g id="g254" aria-label="P&#10;2&#10;=P&#10;2" transform="matrix(1.3333333,0,0,1.3333333,260.16667,532.66)" clip-path="url(#clipPath260)">
      <path id="path255" d="m 1.9228516,-2.0037891 h 1.078125 c 0.9023437,0 1.78125,-0.65625 1.78125,-1.3710937 0,-0.4804688 -0.421875,-0.9609375 -1.2539063,-0.9609375 H 1.4775391 c -0.1171875,0 -0.1875,0 -0.1875,0.1289062 0,0.070312 0.058594,0.070312 0.1875,0.070312 0.082031,0 0.1875,0.011719 0.2695312,0.011719 0.09375,0.011719 0.140625,0.035156 0.140625,0.1054687 0,0.023437 -0.011719,0.046875 -0.023437,0.1171875 l -0.8554687,3.41015629 c -0.0585938,0.24609375 -0.0703125,0.29296875 -0.57421879,0.29296875 -0.10546875,0 -0.17578125,0 -0.17578125,0.12890625 0,0.0703124975 0.0703125,0.0703124975 0.09375,0.0703124975 0.17578125,0 0.62109375,-0.0234374975 0.79687504,-0.0234374975 0.140625,0 0.28125,0.01171875 0.4101562,0.01171875 0.140625,0 0.28125,0.0117187475 0.4101563,0.0117187475 0.046875,0 0.1289062,0 0.1289062,-0.1289062475 0,-0.0703125 -0.058594,-0.0703125 -0.1757812,-0.0703125 -0.234375,0 -0.4101563,0 -0.4101563,-0.1171875 0,-0.0351563 0.011719,-0.0585938 0.011719,-0.10546875 z m 0.4570312,-1.8867187 c 0.058594,-0.2226563 0.070312,-0.2460938 0.3398438,-0.2460938 h 0.609375 c 0.5273437,0 0.8671875,0.1757813 0.8671875,0.609375 0,0.2460938 -0.1289063,0.796875 -0.375,1.0195313 -0.3164063,0.2929687 -0.703125,0.3398437 -0.984375,0.3398437 h -0.890625 z m 0,0" style="fill:#231f20;fill-opacity:1;fill-rule:nonzero;stroke:none"/>
      <path id="path256" d="m 5.3417969,0.02648438 c 0.082031,-0.0703125 0.2695312,-0.22265625 0.3515625,-0.28125 0.28125,-0.26953125 0.5507812,-0.515625 0.5507812,-0.93749998 0,-0.5507813 -0.4570312,-0.9140625 -1.03125,-0.9140625 -0.5625,0 -0.9257812,0.421875 -0.9257812,0.8320312 0,0.234375 0.1757812,0.2695313 0.2460937,0.2695313 0.09375,0 0.234375,-0.070312 0.234375,-0.2460938 0,-0.2460937 -0.2226562,-0.2460937 -0.28125,-0.2460937 0.1289063,-0.3398438 0.4453125,-0.4570313 0.6679688,-0.4570313 0.4335937,0 0.65625,0.375 0.65625,0.7617188 0,0.48046873 -0.3398438,0.83203123 -0.890625,1.39453123 L 4.3457031,0.79992188 c -0.058594,0.046875 -0.058594,0.0585938 -0.058594,0.17578125 h 1.828125 L 6.2441406,0.14367188 h -0.140625 c -0.011719,0.09375 -0.046875,0.328125 -0.1054687,0.41015625 -0.023437,0.046875 -0.375,0.046875 -0.4570313,0.046875 H 4.7207031 Z m 0,0" style="fill:#231f20;fill-opacity:1;fill-rule:nonzero;stroke:none"/>
      <path id="path257" d="m 12.929688,-2.0741016 c 0.09375,0 0.210937,0 0.210937,-0.1289062 0,-0.1289063 -0.117187,-0.1289063 -0.210937,-0.1289063 H 9.1328125 c -0.082031,0 -0.2109375,0 -0.2109375,0.1289063 0,0.1289062 0.1289063,0.1289062 0.2226563,0.1289062 z m 0,1.23046879 c 0.09375,0 0.210937,0 0.210937,-0.12890625 0,-0.12890624 -0.117187,-0.12890624 -0.210937,-0.12890624 H 9.1445313 c -0.09375,0 -0.2226563,0 -0.2226563,0.12890624 0,0.12890625 0.1289063,0.12890625 0.2109375,0.12890625 z m 0,0" style="fill:#231f20;fill-opacity:1;fill-rule:nonzero;stroke:none"/>
      <path id="path258" d="m 17.453125,-4.3358203 c -0.902344,0 -1.933594,0.515625 -2.0625,1.21875 0,0 0.02344,0.011719 0.05859,0.011719 0.09375,0 0.410156,-0.1171875 0.480469,-0.3164062 0.08203,-0.234375 0.175781,-0.515625 1.078125,-0.5625 -0.105469,1.453125 -0.492188,2.8476562 -1.042969,4.19531249 0,0.0117188 -0.02344,0.046875 -0.02344,0.0585938 0,0.0351563 0.03516,0.046875 0.07031,0.046875 0.128906,0 0.421875,-0.17578125 0.46875,-0.28125 0.398437,-0.97265625 0.867187,-2.36718759 1.042969,-4.01953129 h 0.339843 c 0.738282,0 1.511719,0.2929687 1.511719,0.9375 0,0.4335937 -0.421875,1.3593751 -1.699219,1.3945313 -0.339843,0.011719 -0.539062,0.2460938 -0.539062,0.3046875 0,0.046875 0.04687,0.046875 0.117187,0.046875 1.148438,0 2.660157,-0.9726563 2.660157,-2.0156251 0,-0.7617187 -0.925782,-1.0195312 -1.582032,-1.0195312 z m 0,0" style="fill:#231f20;fill-opacity:1;fill-rule:nonzero;stroke:none"/>
      <path id="path259" d="m 20.951172,0.02648438 c 0.08203,-0.0703125 0.269531,-0.22265625 0.351562,-0.28125 0.28125,-0.26953125 0.550782,-0.515625 0.550782,-0.93749998 0,-0.5507813 -0.457032,-0.9140625 -1.03125,-0.9140625 -0.5625,0 -0.925782,0.421875 -0.925782,0.8320312 0,0.234375 0.175782,0.2695313 0.246094,0.2695313 0.09375,0 0.234375,-0.070312 0.234375,-0.2460938 0,-0.2460937 -0.222656,-0.2460937 -0.28125,-0.2460937 0.128906,-0.3398438 0.445313,-0.4570313 0.667969,-0.4570313 0.433594,0 0.65625,0.375 0.65625,0.7617188 0,0.48046873 -0.339844,0.83203123 -0.890625,1.39453123 l -0.574219,0.59765625 c -0.05859,0.046875 -0.05859,0.0585938 -0.05859,0.17578125 h 1.828125 L 21.85352,0.14367188 h -0.140625 c -0.01172,0.09375 -0.04687,0.328125 -0.105469,0.41015625 -0.02344,0.046875 -0.375,0.046875 -0.457031,0.046875 h -0.820313 z m 0,0" style="fill:#231f20;fill-opacity:1;fill-rule:nonzero;stroke:none"/>
    </g>
    
    
    
    
    
    
    
    
    
    
    
    
    
    
    
    
    
    
    
    
    
    
    
    
    
    
  </g>
</svg>